<svg xmlns="http://www.w3.org/2000/svg" width="40.09" height="52" viewBox="0 0 40.09 52"><g id="all-robots-out-of-order" transform="translate(-219.39 -389.305)"><g id="Rectangle_3" data-name="Rectangle 3"><g id="Group_370" data-name="Group 370"><rect id="Rectangle_66" data-name="Rectangle 66" width="22" height="52" rx="2" transform="translate(228.445 389.305)" fill="none"/></g><g id="Group_371" data-name="Group 371"><path id="Path_2362" data-name="Path 2362" d="M250.445,441.3h-22v-52h22Zm-18-4h14v-44h-14Z"/></g></g><g id="Group_372" data-name="Group 372"><ellipse id="Ellipse_7" data-name="Ellipse 7" cx="5" cy="5.5" rx="5" ry="5.5" transform="translate(234.445 397.805)"/><ellipse id="Ellipse_8" data-name="Ellipse 8" cx="5" cy="5.5" rx="5" ry="5.5" transform="translate(234.445 409.805)" fill="#777"/><ellipse id="Ellipse_9" data-name="Ellipse 9" cx="5" cy="5.5" rx="5" ry="5.5" transform="translate(234.445 421.805)" fill="#fff"/></g><g id="Group_231" data-name="Group 231"><g id="Group_228" data-name="Group 228"><path id="Path_2293" data-name="Path 2293" d="M226.833,398.533" fill="none" stroke="#000" stroke-width="4"/><path id="Path_2294" data-name="Path 2294" d="M226.833,433.385" fill="none" stroke="#000" stroke-width="4"/><path id="Path_2294-2" data-name="Path 2294" d="M253.552,397.372" fill="none" stroke="#000" stroke-width="4"/></g><g id="Group_229" data-name="Group 229"><g id="Path_2293-2" data-name="Path 2293-2"><path id="Path_2363" data-name="Path 2363" d="M242.55,414.4l16.93,14.32-2.59,3.06-17.44-14.75-17.41,14.75-2.58-3.06,16.89-14.31-16.96-14.35,2.59-3.05,17.47,14.77,17.44-14.77,2.59,3.05Z"/></g></g></g></g></svg>