<svg xmlns="http://www.w3.org/2000/svg" width="56.244" height="44.737" viewBox="0 0 56.244 44.737"><g id="barrier-line" transform="translate(0)"><path id="Path_2303" data-name="Path 2303" d="M-1200.351-739.807c-7.036-.161-5.635-1.119-5.756-5.962-.045-1.806-.027-3.615,0-5.423.035-2.213.675-2.859,2.841-2.915.883-.023,1.767,0,2.6,0,.921-4.377.921-4.377,4.741-4.254,1.7.054,1.7.054,2.251,4.086h31.13c.26-1.29.111-3.019.876-3.665.806-.681,2.485-.385,3.785-.41,1.592-.031,1.593.017,2.442,4.244.832,0,1.718.018,2.6,0a2.5,2.5,0,0,1,2.879,2.774c.045,2.711.084,5.424.037,8.133-.044,2.6-.776,3.246-3.448,3.267-.682.006-1.364,0-2.241,0-.049.965-.123,1.772-.124,2.579-.011,6.883-.059,13.766.022,20.648.023,2.006-.515,3.076-2.7,2.759a5.986,5.986,0,0,0-1.458,0c-1.811.188-2.525-.586-2.4-2.41.117-1.716.025-3.447.025-5.351-.863-.053-1.538-.131-2.212-.131-9.107-.008-18.215.027-27.323-.035-1.584-.011-2.391.354-2.126,2.079a11.111,11.111,0,0,1,.012,1.667c0,4.106-1.37,5.213-5.343,4.027-.548-.164-1.057-1.479-1.066-2.267-.081-6.952-.045-13.9-.043-20.857C-1200.351-738.05-1200.351-738.869-1200.351-739.807Zm6.576,12.236h31.375V-739.8h-31.375Zm3.237-13.993c2.079,0,3.669.042,5.255-.029a1.627,1.627,0,0,0,1.194-.608c1.833-3.313,3.6-6.664,5.569-10.358-1.97,0-3.54-.039-5.106.026a1.627,1.627,0,0,0-1.2.567C-1186.687-748.668-1188.481-745.333-1190.538-741.564Zm37.637-11c-1.963,0-3.413-.041-4.858.023-.5.022-1.26.156-1.449.493-1.888,3.358-3.681,6.769-5.677,10.493,2.044,0,3.693.031,5.338-.025a1.367,1.367,0,0,0,1-.542C-1156.71-745.443-1154.928-748.793-1152.9-752.565Zm-38.4,0c-2.044,0-3.631-.042-5.215.028a1.615,1.615,0,0,0-1.184.6c-1.836,3.31-3.6,6.658-5.586,10.361,2.033,0,3.668.046,5.3-.032a1.6,1.6,0,0,0,1.125-.7C-1195.054-745.557-1193.3-748.846-1191.3-752.564Zm25.636-.013c-2.072,0-3.658-.043-5.238.029a1.641,1.641,0,0,0-1.2.621c-1.84,3.315-3.611,6.668-5.59,10.362,2.028,0,3.667.045,5.3-.033a1.571,1.571,0,0,0,1.1-.7C-1169.47-745.546-1167.7-748.829-1165.665-752.577Z" transform="translate(1206.147 758.396)"/></g></svg>