<svg xmlns="http://www.w3.org/2000/svg" width="56.628" height="58.894" viewBox="0 0 56.628 58.894"><g id="boom" transform="translate(0)"><path id="Path_2295" data-name="Path 2295" d="M-1062.036-199.4c10.924-6.3,21.576-12.445,32.229-18.586,3-1.728,5.965-3.516,9.028-5.123a11.976,11.976,0,0,1,3.213-.679c-.734.929-1.282,2.179-2.235,2.739-8.7,5.121-17.471,10.12-26.218,15.161-4.583,2.64-9.122,5.361-13.758,7.9a3.721,3.721,0,0,0-2.241,3.822c.12,8.663.05,17.328.049,25.993,0,1.034,0,2.069,0,3.275H-1074c-.061-.758-.186-1.585-.186-2.413q-.015-15.018.011-30.036c.007-3.326,1.193-4.6,4.457-4.553C-1066.938-201.848-1063.77-202.917-1062.036-199.4Zm-1.86,3.48a13.7,13.7,0,0,1-2.207,2.522,4.458,4.458,0,0,1-2.907.963,2.709,2.709,0,0,1-1.328-2.363c.253-.821,1.413-1.465,2.309-1.953a15.667,15.667,0,0,1,3.063-.857c-2.671-1.9-4.61-1.629-6.285.049a4.077,4.077,0,0,0-.532,5.5,3.981,3.981,0,0,0,4.986,1.728C-1064.566-191.12-1063.467-192.726-1063.9-195.916Z" transform="translate(1074.195 223.783)"/></g></svg>