<svg xmlns="http://www.w3.org/2000/svg" width="37.31" height="56.17" viewBox="0 0 37.31 56.17"><g id="flashing-robots_red-yellow" transform="translate(-287.19 -392.72)"><g id="Group_234" data-name="Group 234"><g id="Rectangle_3" data-name="Rectangle 3"><g id="Group_376" data-name="Group 376"><path id="Path_2364" data-name="Path 2364" d="M313.19,405.95l-1.11.89,1.11,1.39v5.14h-.86v4h.86v1.71l-.28-.14-1.79,3.57,2.07,1.04v21.34h-14V423.13l1.31-.87-1.31-1.96v-2.93h.2v-4h-.2v-4.66l1.31-1.97-1.31-.87v-3.98h5v1.28h4v-1.28h5Z" fill="none"/></g><g id="Group_377" data-name="Group 377"><path id="Path_2365" data-name="Path 2365" d="M295.19,446.89v2h2A2,2,0,0,1,295.19,446.89Zm20,2h2v-2A1.993,1.993,0,0,1,315.19,448.89Z"/></g></g><g id="Group_374" data-name="Group 374"><g id="Ellipse_7" data-name="Ellipse 7"><circle id="Ellipse_15" data-name="Ellipse 15" cx="5" cy="5" r="5" transform="translate(301.194 406.891)"/></g><g id="Ellipse_8" data-name="Ellipse 8"><ellipse id="Ellipse_16" data-name="Ellipse 16" cx="5" cy="5.5" rx="5" ry="5.5" transform="translate(301.194 418.891)" fill="#777"/></g><g id="Ellipse_9" data-name="Ellipse 9"><ellipse id="Ellipse_17" data-name="Ellipse 17" cx="5" cy="5.5" rx="5" ry="5.5" transform="translate(301.194 431.891)" fill="#fff"/></g></g></g><g id="Group_375" data-name="Group 375"><g id="Line_6" data-name="Line 6"><path id="Path_2366" data-name="Path 2366" d="M324.5,417.37v-4h-7.31v-5.5l6.11-4.88-2.5-3.12-3.61,2.89v-4.87h-9v-5.17h-4v5.17h-9v5.31l-5.14-3.43-2.22,3.33,7.36,4.91v5.36h-8v4h8V421l-7.36,4.91,2.22,3.32,5.14-3.43v21.09a2,2,0,0,0,2,2h18a1.993,1.993,0,0,0,2-2V425.55l5.28,2.64,1.79-3.58-7.07-3.53v-3.71Zm-11.31-11.42-1.11.89,1.11,1.39v5.14h-.86v4h.86v1.71l-.28-.14-1.79,3.57,2.07,1.04v21.34h-14V423.13l1.31-.87-1.31-1.96v-2.93h.2v-4h-.2v-4.66l1.31-1.97-1.31-.87v-3.98h5v1.28h4v-1.28h5Z"/></g></g></g></svg>