<svg xmlns="http://www.w3.org/2000/svg" width="50.665" height="50.677" viewBox="0 0 50.665 50.677"><g transform="translate(-280.42 500.982)"><path d="M329.08-485.5a25.338,25.338,0,0,0-33.2-13.478A25.327,25.327,0,0,0,280.42-475.66a25.339,25.339,0,0,0,25.32,25.355h.04A25.148,25.148,0,0,0,315.6-452.3,25.338,25.338,0,0,0,329.08-485.5Zm-23.34,29.109a19.249,19.249,0,0,1-19.247-19.247,19.18,19.18,0,0,1,5.135-13.092l22.511,30.41A19.112,19.112,0,0,1,305.74-456.391Zm13.8-5.832-22.6-30.531a19.1,19.1,0,0,1,8.8-2.13,19.263,19.263,0,0,1,19.247,19.247A19.167,19.167,0,0,1,319.541-462.223Z"/><path d="M303.2-467.387c-3.62-.083-2.9-.576-2.961-3.067-.023-.929-.014-1.86,0-2.789.018-1.138.347-1.47,1.461-1.5.454-.012.909,0,1.337,0,.474-2.252.474-2.252,2.439-2.188.875.028.875.028,1.158,2.1h16.013c.134-.663.057-1.553.451-1.885.415-.351,1.278-.2,1.947-.211.819-.016.819.009,1.256,2.183.428,0,.884.01,1.337,0a1.286,1.286,0,0,1,1.474,1.065,1.317,1.317,0,0,1,.007.362c.023,1.394.043,2.79.019,4.183-.023,1.337-.4,1.67-1.774,1.681-.351,0-.7,0-1.153,0-.025.5-.063.911-.064,1.327-.006,3.541-.031,7.081.012,10.621.012,1.032-.265,1.583-1.389,1.419a3.08,3.08,0,0,0-.75,0c-.932.1-1.3-.3-1.235-1.24.06-.883.013-1.773.013-2.753-.444-.027-.791-.067-1.138-.067-4.684,0-9.369.014-14.054-.018-.815-.006-1.23.182-1.094,1.07a5.681,5.681,0,0,1,.006.857c0,2.112-.7,2.681-2.749,2.071-.282-.085-.543-.761-.548-1.166-.042-3.576-.024-7.15-.022-10.728Zm3.382,6.294h16.139v-6.29H306.582Zm1.665-7.2c1.07,0,1.887.022,2.7-.015a.836.836,0,0,0,.614-.313c.943-1.7,1.852-3.428,2.865-5.328-1.014,0-1.821-.02-2.626.013a.837.837,0,0,0-.617.291c-.957,1.7-1.88,3.412-2.939,5.351Zm19.36-5.658c-1.01,0-1.755-.021-2.5.012-.257.011-.648.08-.745.253-.971,1.727-1.894,3.482-2.92,5.4,1.051,0,1.9.016,2.746-.013a.7.7,0,0,0,.514-.279c.945-1.708,1.862-3.431,2.905-5.372Zm-19.753,0c-1.051,0-1.868-.021-2.682.014a.832.832,0,0,0-.609.309c-.944,1.7-1.852,3.425-2.873,5.33,1.046,0,1.887.024,2.727-.016a.825.825,0,0,0,.579-.36c.929-1.672,1.831-3.363,2.86-5.276Zm13.187-.007c-1.066,0-1.881-.022-2.694.015a.845.845,0,0,0-.617.32c-.947,1.705-1.857,3.43-2.876,5.33,1.043,0,1.887.023,2.727-.017a.81.81,0,0,0,.566-.36c.937-1.671,1.848-3.359,2.895-5.287Z" transform="translate(-8.4 -10.197)"/></g></svg>