<svg xmlns="http://www.w3.org/2000/svg" width="54" height="50" viewBox="0 0 54 50"><g id="officer-robot" transform="translate(-116 -3253)"><g id="emoji_people-24px" transform="translate(116.441 3253.13)"><g id="Bounding_Box" transform="translate(0 0)"><rect id="Rectangle_4" data-name="Rectangle 4" width="42" height="50" transform="translate(-0.441 -0.13)" fill="none"/></g><g id="Flat" transform="translate(7.336 3.955)"><g id="Group_220" data-name="Group 220"><ellipse id="Ellipse_10" data-name="Ellipse 10" cx="4" cy="3" rx="4" ry="3" transform="translate(10.223 0.915)"/><path id="Path_2292" data-name="Path 2292" d="M24.719,15.486a5.124,5.124,0,0,0-4.112-2.45H16.181C11.388,13.014,7.485,8.07,7.485,2H4c0,6.975,3.677,12.89,8.713,14.811V46.145H16.2V32.9h3.485V46.145h3.485V19.768l6.883,8.719,2.457-3.112Z" transform="translate(-4 -2)"/></g></g></g><g id="Group_369" data-name="Group 369" transform="translate(-99.186 2801.326)"><g id="Rectangle_3" data-name="Rectangle 3" transform="translate(258.186 455.055)"><g id="Group_366" data-name="Group 366" transform="translate(0 0)"><rect id="Rectangle_63" data-name="Rectangle 63" width="11" height="28" rx="2" transform="translate(0 -0.381)" fill="none"/></g><g id="Group_367" data-name="Group 367"><path id="Path_2361" data-name="Path 2361" d="M268.138,482.293h-8.9a1.049,1.049,0,0,1-1.048-1.048V456.1a1.049,1.049,0,0,1,1.048-1.048h8.9a1.049,1.049,0,0,1,1.048,1.048v25.143A1.049,1.049,0,0,1,268.138,482.293Zm-8.9-26.191h0v25.143h8.9V456.1Z" transform="translate(-258.186 -455.055)"/></g></g><g id="Group_366-2" data-name="Group 366" transform="translate(260.805 459.769)"><ellipse id="Ellipse_7" data-name="Ellipse 7" cx="2.5" cy="3" rx="2.5" ry="3" transform="translate(0.381 -0.095)"/><ellipse id="Ellipse_8" data-name="Ellipse 8" cx="2.5" cy="3" rx="2.5" ry="3" transform="translate(0.381 5.905)" fill="#777"/><circle id="Ellipse_9" data-name="Ellipse 9" cx="2.5" cy="2.5" r="2.5" transform="translate(0.381 12.905)" fill="#fff"/></g></g></g></svg>