<svg xmlns="http://www.w3.org/2000/svg" width="50.634" height="40.433" viewBox="0 0 50.634 40.433"><g id="pedestrian-crossing" transform="translate(0)"><path id="Path_2296" data-name="Path 2296" d="M-1122.893-490.338c.185,3.112-.906,6.2.722,9.259,1.952,3.673,3.723,7.445,5.489,11.213a3.42,3.42,0,0,1,.171,2.185,1.614,1.614,0,0,1-1.385.8,2.9,2.9,0,0,1-1.759-1.2c-1.774-3.353-3.421-6.774-5.111-10.171-.385-.774-.768-1.548-1.262-2.542a49.626,49.626,0,0,0-4.2,5.15c-.6.962-.476,2.388-.641,3.61-.14,1.042-.215,2.093-.337,3.138-.162,1.39-.984,2.2-2.075,2.065-1.055-.129-1.622-.94-1.477-2.375.245-2.411.539-4.819.9-7.215a3.749,3.749,0,0,1,.809-1.55,11.7,11.7,0,0,1,1.97-2.285c3.084-2.393,2.159-5.428,1.6-8.238-2.615,1.244-5.219,2.5-7.839,3.72-1.371.639-2.4.4-2.86-.583-.492-1.053.006-1.994,1.411-2.667a4.726,4.726,0,0,1,.495-.237,20.125,20.125,0,0,0,9.364-6.649,2.484,2.484,0,0,1,3.392-.7c2.24,1.035,4.527,1.969,6.8,2.921a2.377,2.377,0,0,1,1.638,1.994c.224,1.581.6,3.142.867,4.718a1.775,1.775,0,0,1-1.447,2.251,1.74,1.74,0,0,1-2.045-1.571,16.2,16.2,0,0,1-.46-2.42C-1120.212-489.364-1121.059-490.152-1122.893-490.338Z" transform="translate(1152.578 503.21)"/><path id="Path_2297" data-name="Path 2297" d="M-1174.2-404.4c-1.315,2.676-2.5,5.127-3.738,7.556a1.032,1.032,0,0,1-.777.412c-1.91.035-3.821.019-6.062.019.438-.713.718-1.2,1.026-1.666,1.209-1.833,2.383-3.691,3.672-5.467a2.337,2.337,0,0,1,1.531-.816C-1177.2-404.477-1175.834-404.4-1174.2-404.4Z" transform="translate(1184.778 436.843)"/><path id="Path_2298" data-name="Path 2298" d="M-1038.418-404.758c1.479,0,2.938-.026,4.394.021a1.287,1.287,0,0,1,.909.447c1.638,2.4,3.232,4.827,5.015,7.512-2.278,0-4.262.018-6.245-.023a1.011,1.011,0,0,1-.714-.5c-1.164-2.323-2.291-4.664-3.417-7.006C-1038.521-404.4-1038.449-404.548-1038.418-404.758Z" transform="translate(1078.734 437.09)"/><path id="Path_2299" data-name="Path 2299" d="M-1098.242-396.446h-6.748c.2-1.494.379-2.909.573-4.323.018-.13.127-.246.157-.377.239-1.038.243-2.82.746-2.974,1.367-.416,2.943-.143,4.629-.143Z" transform="translate(1126.939 436.789)"/><path id="Path_2300" data-name="Path 2300" d="M-1146.027-397.244c1.007-2.622,1.824-5.1,2.955-7.423.25-.514,1.607-.491,2.531-.735a15.059,15.059,0,0,0,.03,2.551c.143.73.321,1.694.837,2.065,1.339.962.579,2.04.437,3.088a.768.768,0,0,1-.589.434C-1141.824-397.231-1143.824-397.244-1146.027-397.244Z" transform="translate(1156.687 437.551)"/><path id="Path_2301" data-name="Path 2301" d="M-1097.256-519.131a3.282,3.282,0,0,1-3.24,3.235,3.3,3.3,0,0,1-3.161-3.183,3.2,3.2,0,0,1,3.251-3.187A3.16,3.16,0,0,1-1097.256-519.131Z" transform="translate(1125.974 522.266)"/><path id="Path_2302" data-name="Path 2302" d="M-1062.538-391.471l1.586,4.331c-2.171,0-4.157.023-6.141-.03-.238-.006-.595-.385-.672-.655-.221-.775-.327-1.583-.527-2.639C-1065.966-388.874-1064.106-389.22-1062.538-391.471Z" transform="translate(1100.337 427.452)"/></g></svg>