<svg xmlns="http://www.w3.org/2000/svg" width="55.188" height="44.816" viewBox="0 0 55.188 44.816"><g id="some-robots-out-of-order" transform="translate(-250.478 -3035.592)"><g id="Group_358" data-name="Group 358" transform="translate(250.478 3035.592)"><g id="Group_373" data-name="Group 373" transform="translate(0 0)"><g id="Rectangle_3" data-name="Rectangle 3"><g id="Group_370" data-name="Group 370" transform="translate(0 0)"><rect id="Rectangle_66" data-name="Rectangle 66" width="18.961" height="44.816" rx="2" fill="none"/></g><g id="Group_371" data-name="Group 371"><path id="Path_2362" data-name="Path 2362" d="M247.406,434.121H228.445V389.305h18.961Zm-15.513-3.447h12.066V392.752H231.892Z" transform="translate(-228.445 -389.305)"/></g></g><g id="Group_372" data-name="Group 372" transform="translate(5.171 7.326)"><ellipse id="Ellipse_7" data-name="Ellipse 7" cx="4.309" cy="4.74" rx="4.309" ry="4.74"/><ellipse id="Ellipse_8" data-name="Ellipse 8" cx="4.309" cy="4.74" rx="4.309" ry="4.74" transform="translate(0 10.342)" fill="#777"/><ellipse id="Ellipse_9" data-name="Ellipse 9" cx="4.309" cy="4.74" rx="4.309" ry="4.74" transform="translate(0 20.684)" fill="#fff"/></g></g></g><g id="Group_358-2" data-name="Group 358" transform="translate(271.115 3035.592)"><g id="Rectangle_3-2" data-name="Rectangle 3" transform="translate(7.804 0)"><g id="Group_370-2" data-name="Group 370" transform="translate(0 0)"><rect id="Rectangle_66-2" data-name="Rectangle 66" width="18.961" height="44.816" rx="2" fill="none"/></g><g id="Group_371-2" data-name="Group 371"><path id="Path_2362-2" data-name="Path 2362" d="M247.406,434.121H228.445V389.305h18.961Zm-15.513-3.447h12.066V392.752H231.892Z" transform="translate(-228.445 -389.305)"/></g></g><g id="Group_372-2" data-name="Group 372" transform="translate(12.976 7.326)"><ellipse id="Ellipse_7-2" data-name="Ellipse 7" cx="4.309" cy="4.74" rx="4.309" ry="4.74"/><ellipse id="Ellipse_8-2" data-name="Ellipse 8" cx="4.309" cy="4.74" rx="4.309" ry="4.74" transform="translate(0 10.342)" fill="#777"/><ellipse id="Ellipse_9-2" data-name="Ellipse 9" cx="4.309" cy="4.74" rx="4.309" ry="4.74" transform="translate(0 20.684)" fill="#fff"/></g><g id="Group_231" data-name="Group 231" transform="translate(0 6.641)"><g id="Group_228" data-name="Group 228" transform="translate(6.415 0.312)"><path id="Path_2293" data-name="Path 2293" d="M226.833,398.533" transform="translate(-226.833 -397.532)" fill="none" stroke="#000" stroke-width="4"/><path id="Path_2294" data-name="Path 2294" d="M226.833,433.385" transform="translate(-226.833 -402.347)" fill="none" stroke="#000" stroke-width="4"/><path id="Path_2294-2" data-name="Path 2294" d="M253.552,397.372" transform="translate(-230.524 -397.372)" fill="none" stroke="#000" stroke-width="4"/></g><g id="Group_229" data-name="Group 229"><g id="Path_2293-2" data-name="Path 2293-2"><path id="Path_2363" data-name="Path 2363" d="M239.35,412l14.591,12.342-2.232,2.637-15.031-12.712-15,12.712-2.224-2.637,14.557-12.333L219.39,399.639l2.232-2.629,15.057,12.73,15.031-12.73,2.232,2.629Z" transform="translate(-219.39 -397.01)"/></g></g></g></g></g></svg>