<svg xmlns="http://www.w3.org/2000/svg" width="53.333" height="50.535" viewBox="0 0 53.333 50.535"><g id="stop-sign" transform="translate(-246.972 -532.876)"><path id="Path_2291" data-name="Path 2291" d="M259.139,532.876h28.333L300.3,543.912v27.723l-12.833,11.776H259.139l-12.167-11.776V543.913Z"/><g id="STOP" style="isolation: isolate"><g id="Group_364" data-name="Group 364" style="isolation: isolate"><path id="Path_2357" data-name="Path 2357" d="M261.8,559.623a1.053,1.053,0,0,0-.41-.893,5.422,5.422,0,0,0-1.476-.656,10.424,10.424,0,0,1-1.689-.679,2.76,2.76,0,0,1-1.695-2.468,2.4,2.4,0,0,1,.454-1.439,2.971,2.971,0,0,1,1.306-.988,4.912,4.912,0,0,1,1.911-.355,4.463,4.463,0,0,1,1.9.386,3.013,3.013,0,0,1,1.3,1.09,2.853,2.853,0,0,1,.462,1.6h-2.051a1.338,1.338,0,0,0-.431-1.063,1.764,1.764,0,0,0-1.21-.38A1.893,1.893,0,0,0,259,554.1a1,1,0,0,0-.417.838.961.961,0,0,0,.488.813,5.51,5.51,0,0,0,1.439.615,6.21,6.21,0,0,1,2.55,1.306,2.6,2.6,0,0,1,.8,1.941,2.4,2.4,0,0,1-.978,2.028,4.284,4.284,0,0,1-2.632.734,5.1,5.1,0,0,1-2.091-.42,3.317,3.317,0,0,1-1.439-1.152,2.945,2.945,0,0,1-.5-1.7h2.058q0,1.647,1.968,1.647a1.91,1.91,0,0,0,1.142-.3A.963.963,0,0,0,261.8,559.623Z" fill="#fff"/><path id="Path_2358" data-name="Path 2358" d="M272.74,553.942h-3.049v8.292H267.64v-8.292h-3.008v-1.661h8.108Z" fill="#fff"/><path id="Path_2359" data-name="Path 2359" d="M281.893,557.483a6.019,6.019,0,0,1-.519,2.578,3.923,3.923,0,0,1-1.487,1.709,4.4,4.4,0,0,1-4.427.006,3.948,3.948,0,0,1-1.5-1.7,5.823,5.823,0,0,1-.54-2.54v-.492a5.973,5.973,0,0,1,.529-2.587,3.948,3.948,0,0,1,1.5-1.717,4.395,4.395,0,0,1,4.423,0,3.948,3.948,0,0,1,1.5,1.717,5.954,5.954,0,0,1,.53,2.58Zm-2.078-.451a4.185,4.185,0,0,0-.561-2.379,1.98,1.98,0,0,0-3.192-.01,4.136,4.136,0,0,0-.567,2.355v.485a4.249,4.249,0,0,0,.56,2.366,1.823,1.823,0,0,0,1.613.84,1.8,1.8,0,0,0,1.586-.81,4.2,4.2,0,0,0,.561-2.361Z" fill="#fff"/><path id="Path_2360" data-name="Path 2360" d="M285.434,558.728v3.506h-2.051v-9.953h3.883a4.5,4.5,0,0,1,1.972.41,3.025,3.025,0,0,1,1.309,1.166,3.243,3.243,0,0,1,.458,1.719,2.858,2.858,0,0,1-1,2.307,4.172,4.172,0,0,1-2.772.845Zm0-1.662h1.832a1.807,1.807,0,0,0,1.241-.382,1.393,1.393,0,0,0,.427-1.094,1.641,1.641,0,0,0-.431-1.183,1.606,1.606,0,0,0-1.189-.465h-1.88Z" fill="#fff"/></g></g></g></svg>