<svg xmlns="http://www.w3.org/2000/svg" width="27.509" height="53.597" viewBox="0 0 27.509 53.597"><g transform="translate(-138.321 -7956.404)"><g transform="translate(-1398.42 8489.164)"><path d="M1564.249-505.972q0,10.7,0,21.41c0,2.871-1.138,4.428-3.837,5.264a3.337,3.337,0,0,1-.972.127q-8.9.012-17.8.006a4.969,4.969,0,0,1-4.876-4.537c-.02-.24-.023-.481-.023-.722q0-21.545,0-43.09c0-2.773,1.252-4.462,3.779-5.125a4.253,4.253,0,0,1,1.067-.114q8.943-.01,17.887,0a4.7,4.7,0,0,1,4.75,4.655c.034,7.377.012,14.755.012,22.132ZM1538.4-489.1h24.219v-33.838H1538.4Zm14.491,4.2a2.377,2.377,0,0,0-2.381-2.324,2.45,2.45,0,0,0-2.4,2.431,2.434,2.434,0,0,0,2.446,2.274A2.393,2.393,0,0,0,1552.894-484.9Zm-2.424-41.356v0c1.019,0,2.038.008,3.057,0,.532-.006.976-.194.977-.81,0-.589-.371-.837-.943-.835q-3.013.008-6.025,0c-.579,0-1.056.185-1.029.842.026.642.516.809,1.085.807C1548.551-526.258,1549.511-526.255,1550.47-526.255Z"/></g><g transform="translate(159.806 7993.528) rotate(-179)"><path d="M0,0H16.544V16.544H0Z" fill="none"/><path d="M0,13.786H2.757V5.515H0ZM15.165,6.2a1.383,1.383,0,0,0-1.379-1.379H9.437l.655-3.15.021-.221a1.038,1.038,0,0,0-.3-.731L9.078,0,4.543,4.543a1.348,1.348,0,0,0-.407.972v6.893a1.383,1.383,0,0,0,1.379,1.379h6.2a1.369,1.369,0,0,0,1.268-.841l2.082-4.86a1.362,1.362,0,0,0,.1-.5Z" transform="translate(0.689 0.689)" fill="#3acce1"/></g></g></svg>