<svg xmlns="http://www.w3.org/2000/svg" width="72.333" height="64" viewBox="0 0 72.333 64"><g transform="translate(-243 -426)"><g transform="translate(242.948 426.12)"><rect width="36" height="64" rx="5" transform="translate(0.052 -0.12)" fill="#4d4d4d"/><rect width="34" height="62" rx="6" transform="translate(1.052 0.88)" fill="#c5cfd6"/><g transform="translate(4.195 21.812)"><g transform="translate(0 0)"><rect width="1" height="8" transform="translate(-0.143 0.067)" fill="#2b44ff"/><rect width="9" height="1" transform="translate(-0.143 0.067)" fill="#2b44ff"/></g><g transform="translate(27.685 25.168) rotate(180)"><rect width="1" height="8" transform="translate(-0.172 0.101)" fill="#2b44ff"/><rect width="8" height="1" transform="translate(0.828 0.101)" fill="#2b44ff"/></g><g transform="translate(19.296 0)"><rect width="1" height="8" transform="translate(7.561 0.067)" fill="#2b44ff"/><rect width="9" height="1" transform="translate(-0.439 0.067)" fill="#2b44ff"/></g><g transform="translate(8.389 25.168) rotate(180)"><rect width="1" height="8" transform="translate(7.532 0.101)" fill="#2b44ff"/><rect width="9" height="1" transform="translate(-0.468 0.101)" fill="#2b44ff"/></g></g><g transform="translate(7.239 25.421)"><path d="M105.374,114.706a3.146,3.146,0,0,0-2.148.715v.35h4.3v-.355A3.176,3.176,0,0,0,105.374,114.706Zm12.142,1.393h-5.452a.739.739,0,1,0,0,1.477h5.452a.739.739,0,1,0,0-1.477Zm0-2.461h-5.452a.739.739,0,1,0,0,1.477h5.452a.739.739,0,1,0,0-1.477Zm0-2.461h-5.452a.739.739,0,1,0,0,1.477h5.452a.739.739,0,1,0,0-1.477Zm-5.452,1.477h5.452a.739.739,0,1,0,0-1.477h-5.452a.739.739,0,1,0,0,1.477Zm5.452.984h-5.452a.739.739,0,1,0,0,1.477h5.452a.739.739,0,1,0,0-1.477Zm0,2.461h-5.452a.739.739,0,1,0,0,1.477h5.452a.739.739,0,1,0,0-1.477Zm-12.142-1.393a3.146,3.146,0,0,0-2.148.715v.35h4.3v-.355A3.176,3.176,0,0,0,105.374,114.706Zm13.876-8.945H101.41a1.982,1.982,0,0,0-1.983,1.97v12.8a1.983,1.983,0,0,0,1.983,1.97h17.84a1.984,1.984,0,0,0,1.983-1.97v-12.8A1.983,1.983,0,0,0,119.249,105.761Zm-11.013,10.365a.357.357,0,0,1-.357.355h-5.011a.359.359,0,0,1-.359-.355v-.711c0-.946,1.909-1.422,2.863-1.422s2.863.476,2.863,1.422Zm-4.3-3.912a1.431,1.431,0,1,1,1.432,1.423h0A1.427,1.427,0,0,1,103.942,112.215Zm15.308,7.331a.987.987,0,0,1-.991.984h-7.929v-12.8h7.929a.987.987,0,0,1,.991.984Zm-1.734-8.369h-5.452a.739.739,0,1,0,0,1.477h5.452a.739.739,0,1,0,0-1.477Zm0,2.461h-5.452a.739.739,0,1,0,0,1.477h5.452a.739.739,0,1,0,0-1.477Zm0,2.461h-5.452a.739.739,0,1,0,0,1.477h5.452a.739.739,0,1,0,0-1.477Zm-12.142-1.393a3.146,3.146,0,0,0-2.148.715v.35h4.3v-.355A3.176,3.176,0,0,0,105.374,114.706Zm.716-2.492a.715.715,0,1,0-.716.711A.712.712,0,0,0,106.089,112.215Zm11.426,3.885h-5.452a.739.739,0,1,0,0,1.477h5.452a.739.739,0,1,0,0-1.477Zm0-2.461h-5.452a.739.739,0,1,0,0,1.477h5.452a.739.739,0,1,0,0-1.477Zm0-2.461h-5.452a.739.739,0,1,0,0,1.477h5.452a.739.739,0,1,0,0-1.477Zm0,0h-5.452a.739.739,0,1,0,0,1.477h5.452a.739.739,0,1,0,0-1.477Zm0,2.461h-5.452a.739.739,0,1,0,0,1.477h5.452a.739.739,0,1,0,0-1.477Zm0,2.461h-5.452a.739.739,0,1,0,0,1.477h5.452a.739.739,0,1,0,0-1.477Z" transform="translate(-99.427 -105.761)" fill="#fff"/></g></g><g transform="translate(284.953 446.312)"><path d="M97.054,620.782a15.19,15.19,0,1,0,15.191,15.191A15.19,15.19,0,0,0,97.054,620.782Zm0,29.39a14.2,14.2,0,0,1-3.181-28.039.226.226,0,0,0-.049.132c0,.424,1.446.766,3.229.766s3.231-.342,3.231-.766a.226.226,0,0,0-.049-.132,14.2,14.2,0,0,1-3.183,28.039Z" transform="translate(-81.865 -620.782)" fill="#fff"/><path d="M151.257,667.087a.093.093,0,0,1,.025.069.092.092,0,0,1-.025.071.112.112,0,0,1-.074.022h-.138v-.187h.138A.11.11,0,0,1,151.257,667.087Z" transform="translate(-137.55 -658.042)" fill="#fff"/><path d="M117.48,647.84l-.168.518h.337Zm0,0-.168.518h.337Zm0,0-.168.518h.337Zm0,0-.168.518h.337Zm0,0-.168.518h.337Zm0,0-.168.518h.337Zm0,0-.168.518h.337Zm0,0-.168.518h.337Zm0,0-.168.518h.337Zm0,0-.168.518h.337Zm0,0-.168.518h.337Zm0,0-.168.518h.337Zm0,0-.168.518h.337Zm0,0-.168.518h.337Zm0,0-.168.518h.337Zm0,0-.168.518h.337Zm-9.141,3.546a.35.35,0,0,0-.133-.142.37.37,0,0,0-.195-.05.364.364,0,0,0-.195.05.355.355,0,0,0-.136.142.521.521,0,0,0,0,.438.346.346,0,0,0,.136.144.385.385,0,0,0,.195.05.391.391,0,0,0,.195-.05.369.369,0,0,0,.133-.144.521.521,0,0,0,0-.438Zm9.141-3.546-.168.518h.337Zm0,0-.168.518h.337Zm-9.141,3.546a.35.35,0,0,0-.133-.142.37.37,0,0,0-.195-.05.364.364,0,0,0-.195.05.355.355,0,0,0-.136.142.521.521,0,0,0,0,.438.346.346,0,0,0,.136.144.385.385,0,0,0,.195.05.391.391,0,0,0,.195-.05.369.369,0,0,0,.133-.144.521.521,0,0,0,0-.438Zm0,0a.35.35,0,0,0-.133-.142.37.37,0,0,0-.195-.05.364.364,0,0,0-.195.05.355.355,0,0,0-.136.142.521.521,0,0,0,0,.438.346.346,0,0,0,.136.144.385.385,0,0,0,.195.05.391.391,0,0,0,.195-.05.369.369,0,0,0,.133-.144.521.521,0,0,0,0-.438Zm1.686-.14a.241.241,0,0,0-.192-.077.228.228,0,0,0-.166.063.239.239,0,0,0-.063.175.25.25,0,0,0,.063.184.224.224,0,0,0,.171.066.294.294,0,0,0,.122-.026.227.227,0,0,0,.092-.079.21.21,0,0,0,.037-.125A.27.27,0,0,0,110.026,651.245Zm.908,0a.234.234,0,0,0-.19-.077.225.225,0,0,0-.166.063.23.23,0,0,0-.063.175.241.241,0,0,0,.063.184.224.224,0,0,0,.171.066.284.284,0,0,0,.12-.026.22.22,0,0,0,.094-.079.209.209,0,0,0,.035-.125A.26.26,0,0,0,110.933,651.245Zm6.547-3.406-.168.518h.337Zm0,0-.168.518h.337Zm-6.547,3.406a.234.234,0,0,0-.19-.077.225.225,0,0,0-.166.063.23.23,0,0,0-.063.175.241.241,0,0,0,.063.184.224.224,0,0,0,.171.066.284.284,0,0,0,.12-.026.22.22,0,0,0,.094-.079.209.209,0,0,0,.035-.125A.26.26,0,0,0,110.933,651.245Zm-.908,0a.241.241,0,0,0-.192-.077.228.228,0,0,0-.166.063.239.239,0,0,0-.063.175.25.25,0,0,0,.063.184.224.224,0,0,0,.171.066.294.294,0,0,0,.122-.026.227.227,0,0,0,.092-.079.21.21,0,0,0,.037-.125A.27.27,0,0,0,110.026,651.245Zm-1.686.14a.35.35,0,0,0-.133-.142.37.37,0,0,0-.195-.05.364.364,0,0,0-.195.05.355.355,0,0,0-.136.142.521.521,0,0,0,0,.438.346.346,0,0,0,.136.144.385.385,0,0,0,.195.05.391.391,0,0,0,.195-.05.369.369,0,0,0,.133-.144.521.521,0,0,0,0-.438Zm0,0a.35.35,0,0,0-.133-.142.37.37,0,0,0-.195-.05.364.364,0,0,0-.195.05.355.355,0,0,0-.136.142.521.521,0,0,0,0,.438.346.346,0,0,0,.136.144.385.385,0,0,0,.195.05.391.391,0,0,0,.195-.05.369.369,0,0,0,.133-.144.521.521,0,0,0,0-.438Zm1.686-.14a.241.241,0,0,0-.192-.077.228.228,0,0,0-.166.063.239.239,0,0,0-.063.175.25.25,0,0,0,.063.184.224.224,0,0,0,.171.066.294.294,0,0,0,.122-.026.227.227,0,0,0,.092-.079.21.21,0,0,0,.037-.125A.27.27,0,0,0,110.026,651.245Zm.908,0a.234.234,0,0,0-.19-.077.225.225,0,0,0-.166.063.23.23,0,0,0-.063.175.241.241,0,0,0,.063.184.224.224,0,0,0,.171.066.284.284,0,0,0,.12-.026.22.22,0,0,0,.094-.079.209.209,0,0,0,.035-.125A.26.26,0,0,0,110.933,651.245Zm6.547-3.406-.168.518h.337Zm0,0-.168.518h.337Zm-6.547,3.406a.234.234,0,0,0-.19-.077.225.225,0,0,0-.166.063.23.23,0,0,0-.063.175.241.241,0,0,0,.063.184.224.224,0,0,0,.171.066.284.284,0,0,0,.12-.026.22.22,0,0,0,.094-.079.209.209,0,0,0,.035-.125A.26.26,0,0,0,110.933,651.245Zm-.908,0a.241.241,0,0,0-.192-.077.228.228,0,0,0-.166.063.239.239,0,0,0-.063.175.25.25,0,0,0,.063.184.224.224,0,0,0,.171.066.294.294,0,0,0,.122-.026.227.227,0,0,0,.092-.079.21.21,0,0,0,.037-.125A.27.27,0,0,0,110.026,651.245Zm-1.686.14a.35.35,0,0,0-.133-.142.37.37,0,0,0-.195-.05.364.364,0,0,0-.195.05.355.355,0,0,0-.136.142.521.521,0,0,0,0,.438.346.346,0,0,0,.136.144.385.385,0,0,0,.195.05.391.391,0,0,0,.195-.05.369.369,0,0,0,.133-.144.521.521,0,0,0,0-.438Zm0,0a.35.35,0,0,0-.133-.142.37.37,0,0,0-.195-.05.364.364,0,0,0-.195.05.355.355,0,0,0-.136.142.521.521,0,0,0,0,.438.346.346,0,0,0,.136.144.385.385,0,0,0,.195.05.391.391,0,0,0,.195-.05.369.369,0,0,0,.133-.144.521.521,0,0,0,0-.438Zm1.686-.14a.241.241,0,0,0-.192-.077.228.228,0,0,0-.166.063.239.239,0,0,0-.063.175.25.25,0,0,0,.063.184.224.224,0,0,0,.171.066.294.294,0,0,0,.122-.026.227.227,0,0,0,.092-.079.21.21,0,0,0,.037-.125A.27.27,0,0,0,110.026,651.245Zm.908,0a.234.234,0,0,0-.19-.077.225.225,0,0,0-.166.063.23.23,0,0,0-.063.175.241.241,0,0,0,.063.184.224.224,0,0,0,.171.066.284.284,0,0,0,.12-.026.22.22,0,0,0,.094-.079.209.209,0,0,0,.035-.125A.26.26,0,0,0,110.933,651.245Zm6.547-3.406-.168.518h.337Zm0,0-.168.518h.337Zm-6.547,3.406a.234.234,0,0,0-.19-.077.225.225,0,0,0-.166.063.23.23,0,0,0-.063.175.241.241,0,0,0,.063.184.224.224,0,0,0,.171.066.284.284,0,0,0,.12-.026.22.22,0,0,0,.094-.079.209.209,0,0,0,.035-.125A.26.26,0,0,0,110.933,651.245Zm-.908,0a.241.241,0,0,0-.192-.077.228.228,0,0,0-.166.063.239.239,0,0,0-.063.175.25.25,0,0,0,.063.184.224.224,0,0,0,.171.066.294.294,0,0,0,.122-.026.227.227,0,0,0,.092-.079.21.21,0,0,0,.037-.125A.27.27,0,0,0,110.026,651.245Zm-1.686.14a.35.35,0,0,0-.133-.142.37.37,0,0,0-.195-.05.364.364,0,0,0-.195.05.355.355,0,0,0-.136.142.521.521,0,0,0,0,.438.346.346,0,0,0,.136.144.385.385,0,0,0,.195.05.391.391,0,0,0,.195-.05.369.369,0,0,0,.133-.144.521.521,0,0,0,0-.438Zm0,0a.35.35,0,0,0-.133-.142.37.37,0,0,0-.195-.05.364.364,0,0,0-.195.05.355.355,0,0,0-.136.142.521.521,0,0,0,0,.438.346.346,0,0,0,.136.144.385.385,0,0,0,.195.05.391.391,0,0,0,.195-.05.369.369,0,0,0,.133-.144.521.521,0,0,0,0-.438Zm1.686-.14a.241.241,0,0,0-.192-.077.228.228,0,0,0-.166.063.239.239,0,0,0-.063.175.25.25,0,0,0,.063.184.224.224,0,0,0,.171.066.294.294,0,0,0,.122-.026.227.227,0,0,0,.092-.079.21.21,0,0,0,.037-.125A.27.27,0,0,0,110.026,651.245Zm.908,0a.234.234,0,0,0-.19-.077.225.225,0,0,0-.166.063.23.23,0,0,0-.063.175.241.241,0,0,0,.063.184.224.224,0,0,0,.171.066.284.284,0,0,0,.12-.026.22.22,0,0,0,.094-.079.209.209,0,0,0,.035-.125A.26.26,0,0,0,110.933,651.245Zm3.99,0a.24.24,0,0,0-.19-.077.23.23,0,0,0-.168.063.239.239,0,0,0-.063.175.25.25,0,0,0,.063.184.226.226,0,0,0,.173.066.292.292,0,0,0,.12-.026.227.227,0,0,0,.092-.079.21.21,0,0,0,.037-.125A.27.27,0,0,0,114.923,651.245Zm.908,0a.234.234,0,0,0-.19-.077.225.225,0,0,0-.166.063.23.23,0,0,0-.063.175.241.241,0,0,0,.063.184.224.224,0,0,0,.171.066.284.284,0,0,0,.12-.026.219.219,0,0,0,.094-.079.209.209,0,0,0,.035-.125A.259.259,0,0,0,115.831,651.245Zm1.649-3.406-.168.518h.337Zm0,0-.168.518h.337Zm-2.557,3.406a.24.24,0,0,0-.19-.077.23.23,0,0,0-.168.063.239.239,0,0,0-.063.175.25.25,0,0,0,.063.184.226.226,0,0,0,.173.066.292.292,0,0,0,.12-.026.227.227,0,0,0,.092-.079.21.21,0,0,0,.037-.125A.27.27,0,0,0,114.923,651.245Zm-3.99,0a.234.234,0,0,0-.19-.077.225.225,0,0,0-.166.063.23.23,0,0,0-.063.175.241.241,0,0,0,.063.184.224.224,0,0,0,.171.066.284.284,0,0,0,.12-.026.22.22,0,0,0,.094-.079.209.209,0,0,0,.035-.125A.26.26,0,0,0,110.933,651.245Zm-.908,0a.241.241,0,0,0-.192-.077.228.228,0,0,0-.166.063.239.239,0,0,0-.063.175.25.25,0,0,0,.063.184.224.224,0,0,0,.171.066.294.294,0,0,0,.122-.026.227.227,0,0,0,.092-.079.21.21,0,0,0,.037-.125A.27.27,0,0,0,110.026,651.245Zm-1.686.14a.35.35,0,0,0-.133-.142.37.37,0,0,0-.195-.05.364.364,0,0,0-.195.05.355.355,0,0,0-.136.142.521.521,0,0,0,0,.438.346.346,0,0,0,.136.144.385.385,0,0,0,.195.05.391.391,0,0,0,.195-.05.369.369,0,0,0,.133-.144.521.521,0,0,0,0-.438Zm7.492-.14a.234.234,0,0,0-.19-.077.225.225,0,0,0-.166.063.23.23,0,0,0-.063.175.241.241,0,0,0,.063.184.224.224,0,0,0,.171.066.284.284,0,0,0,.12-.026.219.219,0,0,0,.094-.079.209.209,0,0,0,.035-.125A.259.259,0,0,0,115.831,651.245Zm-7.492.14a.35.35,0,0,0-.133-.142.37.37,0,0,0-.195-.05.364.364,0,0,0-.195.05.355.355,0,0,0-.136.142.521.521,0,0,0,0,.438.346.346,0,0,0,.136.144.385.385,0,0,0,.195.05.391.391,0,0,0,.195-.05.369.369,0,0,0,.133-.144.521.521,0,0,0,0-.438Zm1.686-.14a.241.241,0,0,0-.192-.077.228.228,0,0,0-.166.063.239.239,0,0,0-.063.175.25.25,0,0,0,.063.184.224.224,0,0,0,.171.066.294.294,0,0,0,.122-.026.227.227,0,0,0,.092-.079.21.21,0,0,0,.037-.125A.27.27,0,0,0,110.026,651.245Zm.908,0a.234.234,0,0,0-.19-.077.225.225,0,0,0-.166.063.23.23,0,0,0-.063.175.241.241,0,0,0,.063.184.224.224,0,0,0,.171.066.284.284,0,0,0,.12-.026.22.22,0,0,0,.094-.079.209.209,0,0,0,.035-.125A.26.26,0,0,0,110.933,651.245Zm3.99,0a.24.24,0,0,0-.19-.077.23.23,0,0,0-.168.063.239.239,0,0,0-.063.175.25.25,0,0,0,.063.184.226.226,0,0,0,.173.066.292.292,0,0,0,.12-.026.227.227,0,0,0,.092-.079.21.21,0,0,0,.037-.125A.27.27,0,0,0,114.923,651.245Zm.908,0a.234.234,0,0,0-.19-.077.225.225,0,0,0-.166.063.23.23,0,0,0-.063.175.241.241,0,0,0,.063.184.224.224,0,0,0,.171.066.284.284,0,0,0,.12-.026.219.219,0,0,0,.094-.079.209.209,0,0,0,.035-.125A.259.259,0,0,0,115.831,651.245Zm.941.359a.234.234,0,0,0-.173-.063.285.285,0,0,0-.12.026.207.207,0,0,0-.092.077.215.215,0,0,0-.037.125.28.28,0,0,0,.063.184.246.246,0,0,0,.192.072.226.226,0,0,0,.166-.061.235.235,0,0,0,.063-.175A.253.253,0,0,0,116.771,651.6Zm.709-3.764-.168.518h.337Zm.247,3.543a.279.279,0,0,0-.072-.138.2.2,0,0,0-.151-.052.2.2,0,0,0-.149.052.279.279,0,0,0-.072.138,1.183,1.183,0,0,0-.018.217,1.2,1.2,0,0,0,.018.217.277.277,0,0,0,.072.14.2.2,0,0,0,.149.052.2.2,0,0,0,.151-.052.277.277,0,0,0,.072-.14,1.2,1.2,0,0,0,.018-.217A1.184,1.184,0,0,0,117.727,651.383Zm0,0a.279.279,0,0,0-.072-.138.2.2,0,0,0-.151-.052.2.2,0,0,0-.149.052.279.279,0,0,0-.072.138,1.183,1.183,0,0,0-.018.217,1.2,1.2,0,0,0,.018.217.277.277,0,0,0,.072.14.2.2,0,0,0,.149.052.2.2,0,0,0,.151-.052.277.277,0,0,0,.072-.14,1.2,1.2,0,0,0,.018-.217A1.184,1.184,0,0,0,117.727,651.383Zm-.247-3.543-.168.518h.337Zm-.709,3.764a.234.234,0,0,0-.173-.063.285.285,0,0,0-.12.026.207.207,0,0,0-.092.077.215.215,0,0,0-.037.125.28.28,0,0,0,.063.184.246.246,0,0,0,.192.072.226.226,0,0,0,.166-.061.235.235,0,0,0,.063-.175A.253.253,0,0,0,116.771,651.6Zm-1.848-.359a.24.24,0,0,0-.19-.077.23.23,0,0,0-.168.063.239.239,0,0,0-.063.175.25.25,0,0,0,.063.184.226.226,0,0,0,.173.066.292.292,0,0,0,.12-.026.227.227,0,0,0,.092-.079.21.21,0,0,0,.037-.125A.27.27,0,0,0,114.923,651.245Zm-3.99,0a.234.234,0,0,0-.19-.077.225.225,0,0,0-.166.063.23.23,0,0,0-.063.175.241.241,0,0,0,.063.184.224.224,0,0,0,.171.066.284.284,0,0,0,.12-.026.22.22,0,0,0,.094-.079.209.209,0,0,0,.035-.125A.26.26,0,0,0,110.933,651.245Zm-.908,0a.241.241,0,0,0-.192-.077.228.228,0,0,0-.166.063.239.239,0,0,0-.063.175.25.25,0,0,0,.063.184.224.224,0,0,0,.171.066.294.294,0,0,0,.122-.026.227.227,0,0,0,.092-.079.21.21,0,0,0,.037-.125A.27.27,0,0,0,110.026,651.245Zm-1.686.14a.35.35,0,0,0-.133-.142.37.37,0,0,0-.195-.05.364.364,0,0,0-.195.05.355.355,0,0,0-.136.142.521.521,0,0,0,0,.438.346.346,0,0,0,.136.144.385.385,0,0,0,.195.05.391.391,0,0,0,.195-.05.369.369,0,0,0,.133-.144.521.521,0,0,0,0-.438Zm7.492-.14a.234.234,0,0,0-.19-.077.225.225,0,0,0-.166.063.23.23,0,0,0-.063.175.241.241,0,0,0,.063.184.224.224,0,0,0,.171.066.284.284,0,0,0,.12-.026.219.219,0,0,0,.094-.079.209.209,0,0,0,.035-.125A.259.259,0,0,0,115.831,651.245Zm-7.492.14a.35.35,0,0,0-.133-.142.37.37,0,0,0-.195-.05.364.364,0,0,0-.195.05.355.355,0,0,0-.136.142.521.521,0,0,0,0,.438.346.346,0,0,0,.136.144.385.385,0,0,0,.195.05.391.391,0,0,0,.195-.05.369.369,0,0,0,.133-.144.521.521,0,0,0,0-.438Zm1.686-.14a.241.241,0,0,0-.192-.077.228.228,0,0,0-.166.063.239.239,0,0,0-.063.175.25.25,0,0,0,.063.184.224.224,0,0,0,.171.066.294.294,0,0,0,.122-.026.227.227,0,0,0,.092-.079.21.21,0,0,0,.037-.125A.27.27,0,0,0,110.026,651.245Zm.908,0a.234.234,0,0,0-.19-.077.225.225,0,0,0-.166.063.23.23,0,0,0-.063.175.241.241,0,0,0,.063.184.224.224,0,0,0,.171.066.284.284,0,0,0,.12-.026.22.22,0,0,0,.094-.079.209.209,0,0,0,.035-.125A.26.26,0,0,0,110.933,651.245Zm3.99,0a.24.24,0,0,0-.19-.077.23.23,0,0,0-.168.063.239.239,0,0,0-.063.175.25.25,0,0,0,.063.184.226.226,0,0,0,.173.066.292.292,0,0,0,.12-.026.227.227,0,0,0,.092-.079.21.21,0,0,0,.037-.125A.27.27,0,0,0,114.923,651.245Zm.908,0a.234.234,0,0,0-.19-.077.225.225,0,0,0-.166.063.23.23,0,0,0-.063.175.241.241,0,0,0,.063.184.224.224,0,0,0,.171.066.284.284,0,0,0,.12-.026.219.219,0,0,0,.094-.079.209.209,0,0,0,.035-.125A.259.259,0,0,0,115.831,651.245Zm.941.359a.234.234,0,0,0-.173-.063.285.285,0,0,0-.12.026.207.207,0,0,0-.092.077.215.215,0,0,0-.037.125.28.28,0,0,0,.063.184.246.246,0,0,0,.192.072.226.226,0,0,0,.166-.061.235.235,0,0,0,.063-.175A.253.253,0,0,0,116.771,651.6Zm.709-3.764-.168.518h.337Zm.247,3.543a.279.279,0,0,0-.072-.138.2.2,0,0,0-.151-.052.2.2,0,0,0-.149.052.279.279,0,0,0-.072.138,1.183,1.183,0,0,0-.018.217,1.2,1.2,0,0,0,.018.217.277.277,0,0,0,.072.14.2.2,0,0,0,.149.052.2.2,0,0,0,.151-.052.277.277,0,0,0,.072-.14,1.2,1.2,0,0,0,.018-.217A1.184,1.184,0,0,0,117.727,651.383Zm0,0a.279.279,0,0,0-.072-.138.2.2,0,0,0-.151-.052.2.2,0,0,0-.149.052.279.279,0,0,0-.072.138,1.183,1.183,0,0,0-.018.217,1.2,1.2,0,0,0,.018.217.277.277,0,0,0,.072.14.2.2,0,0,0,.149.052.2.2,0,0,0,.151-.052.277.277,0,0,0,.072-.14,1.2,1.2,0,0,0,.018-.217A1.184,1.184,0,0,0,117.727,651.383Zm-.247-3.543-.168.518h.337Zm-.709,3.764a.234.234,0,0,0-.173-.063.285.285,0,0,0-.12.026.207.207,0,0,0-.092.077.215.215,0,0,0-.037.125.28.28,0,0,0,.063.184.246.246,0,0,0,.192.072.226.226,0,0,0,.166-.061.235.235,0,0,0,.063-.175A.253.253,0,0,0,116.771,651.6Zm-1.848-.359a.24.24,0,0,0-.19-.077.23.23,0,0,0-.168.063.239.239,0,0,0-.063.175.25.25,0,0,0,.063.184.226.226,0,0,0,.173.066.292.292,0,0,0,.12-.026.227.227,0,0,0,.092-.079.21.21,0,0,0,.037-.125A.27.27,0,0,0,114.923,651.245Zm-3.99,0a.234.234,0,0,0-.19-.077.225.225,0,0,0-.166.063.23.23,0,0,0-.063.175.241.241,0,0,0,.063.184.224.224,0,0,0,.171.066.284.284,0,0,0,.12-.026.22.22,0,0,0,.094-.079.209.209,0,0,0,.035-.125A.26.26,0,0,0,110.933,651.245Zm-.908,0a.241.241,0,0,0-.192-.077.228.228,0,0,0-.166.063.239.239,0,0,0-.063.175.25.25,0,0,0,.063.184.224.224,0,0,0,.171.066.294.294,0,0,0,.122-.026.227.227,0,0,0,.092-.079.21.21,0,0,0,.037-.125A.27.27,0,0,0,110.026,651.245Zm-1.686.14a.35.35,0,0,0-.133-.142.37.37,0,0,0-.195-.05.364.364,0,0,0-.195.05.355.355,0,0,0-.136.142.521.521,0,0,0,0,.438.346.346,0,0,0,.136.144.385.385,0,0,0,.195.05.391.391,0,0,0,.195-.05.369.369,0,0,0,.133-.144.521.521,0,0,0,0-.438Zm7.492-.14a.234.234,0,0,0-.19-.077.225.225,0,0,0-.166.063.23.23,0,0,0-.063.175.241.241,0,0,0,.063.184.224.224,0,0,0,.171.066.284.284,0,0,0,.12-.026.219.219,0,0,0,.094-.079.209.209,0,0,0,.035-.125A.259.259,0,0,0,115.831,651.245Zm-7.492.14a.35.35,0,0,0-.133-.142.37.37,0,0,0-.195-.05.364.364,0,0,0-.195.05.355.355,0,0,0-.136.142.521.521,0,0,0,0,.438.346.346,0,0,0,.136.144.385.385,0,0,0,.195.05.391.391,0,0,0,.195-.05.369.369,0,0,0,.133-.144.521.521,0,0,0,0-.438Zm1.686-.14a.241.241,0,0,0-.192-.077.228.228,0,0,0-.166.063.239.239,0,0,0-.063.175.25.25,0,0,0,.063.184.224.224,0,0,0,.171.066.294.294,0,0,0,.122-.026.227.227,0,0,0,.092-.079.21.21,0,0,0,.037-.125A.27.27,0,0,0,110.026,651.245Zm.908,0a.234.234,0,0,0-.19-.077.225.225,0,0,0-.166.063.23.23,0,0,0-.063.175.241.241,0,0,0,.063.184.224.224,0,0,0,.171.066.284.284,0,0,0,.12-.026.22.22,0,0,0,.094-.079.209.209,0,0,0,.035-.125A.26.26,0,0,0,110.933,651.245Zm3.99,0a.24.24,0,0,0-.19-.077.23.23,0,0,0-.168.063.239.239,0,0,0-.063.175.25.25,0,0,0,.063.184.226.226,0,0,0,.173.066.292.292,0,0,0,.12-.026.227.227,0,0,0,.092-.079.21.21,0,0,0,.037-.125A.27.27,0,0,0,114.923,651.245Zm.908,0a.234.234,0,0,0-.19-.077.225.225,0,0,0-.166.063.23.23,0,0,0-.063.175.241.241,0,0,0,.063.184.224.224,0,0,0,.171.066.284.284,0,0,0,.12-.026.219.219,0,0,0,.094-.079.209.209,0,0,0,.035-.125A.259.259,0,0,0,115.831,651.245Zm.941.359a.234.234,0,0,0-.173-.063.285.285,0,0,0-.12.026.207.207,0,0,0-.092.077.215.215,0,0,0-.037.125.28.28,0,0,0,.063.184.246.246,0,0,0,.192.072.226.226,0,0,0,.166-.061.235.235,0,0,0,.063-.175A.253.253,0,0,0,116.771,651.6Zm.709-3.764-.168.518h.337Zm.247,3.543a.279.279,0,0,0-.072-.138.2.2,0,0,0-.151-.052.2.2,0,0,0-.149.052.279.279,0,0,0-.072.138,1.183,1.183,0,0,0-.018.217,1.2,1.2,0,0,0,.018.217.277.277,0,0,0,.072.14.2.2,0,0,0,.149.052.2.2,0,0,0,.151-.052.277.277,0,0,0,.072-.14,1.2,1.2,0,0,0,.018-.217A1.184,1.184,0,0,0,117.727,651.383Zm1.84,0a.279.279,0,0,0-.072-.138.2.2,0,0,0-.151-.052.2.2,0,0,0-.149.052.279.279,0,0,0-.072.138,1.181,1.181,0,0,0-.018.217,1.2,1.2,0,0,0,.018.217.276.276,0,0,0,.072.14.2.2,0,0,0,.149.052.2.2,0,0,0,.151-.052.276.276,0,0,0,.072-.14,1.2,1.2,0,0,0,.018-.217A1.184,1.184,0,0,0,119.567,651.383Zm0,0a.279.279,0,0,0-.072-.138.2.2,0,0,0-.151-.052.2.2,0,0,0-.149.052.279.279,0,0,0-.072.138,1.181,1.181,0,0,0-.018.217,1.2,1.2,0,0,0,.018.217.276.276,0,0,0,.072.14.2.2,0,0,0,.149.052.2.2,0,0,0,.151-.052.276.276,0,0,0,.072-.14,1.2,1.2,0,0,0,.018-.217A1.184,1.184,0,0,0,119.567,651.383Zm-1.84,0a.279.279,0,0,0-.072-.138.2.2,0,0,0-.151-.052.2.2,0,0,0-.149.052.279.279,0,0,0-.072.138,1.183,1.183,0,0,0-.018.217,1.2,1.2,0,0,0,.018.217.277.277,0,0,0,.072.14.2.2,0,0,0,.149.052.2.2,0,0,0,.151-.052.277.277,0,0,0,.072-.14,1.2,1.2,0,0,0,.018-.217A1.184,1.184,0,0,0,117.727,651.383Zm-.247-3.543-.168.518h.337Zm-.709,3.764a.234.234,0,0,0-.173-.063.285.285,0,0,0-.12.026.207.207,0,0,0-.092.077.215.215,0,0,0-.037.125.28.28,0,0,0,.063.184.246.246,0,0,0,.192.072.226.226,0,0,0,.166-.061.235.235,0,0,0,.063-.175A.253.253,0,0,0,116.771,651.6Zm-1.848-.359a.24.24,0,0,0-.19-.077.23.23,0,0,0-.168.063.239.239,0,0,0-.063.175.25.25,0,0,0,.063.184.226.226,0,0,0,.173.066.292.292,0,0,0,.12-.026.227.227,0,0,0,.092-.079.21.21,0,0,0,.037-.125A.27.27,0,0,0,114.923,651.245Zm-3.99,0a.234.234,0,0,0-.19-.077.225.225,0,0,0-.166.063.23.23,0,0,0-.063.175.241.241,0,0,0,.063.184.224.224,0,0,0,.171.066.284.284,0,0,0,.12-.026.22.22,0,0,0,.094-.079.209.209,0,0,0,.035-.125A.26.26,0,0,0,110.933,651.245Zm-.908,0a.241.241,0,0,0-.192-.077.228.228,0,0,0-.166.063.239.239,0,0,0-.063.175.25.25,0,0,0,.063.184.224.224,0,0,0,.171.066.294.294,0,0,0,.122-.026.227.227,0,0,0,.092-.079.21.21,0,0,0,.037-.125A.27.27,0,0,0,110.026,651.245Zm-1.686.14a.35.35,0,0,0-.133-.142.37.37,0,0,0-.195-.05.364.364,0,0,0-.195.05.355.355,0,0,0-.136.142.521.521,0,0,0,0,.438.346.346,0,0,0,.136.144.385.385,0,0,0,.195.05.391.391,0,0,0,.195-.05.369.369,0,0,0,.133-.144.521.521,0,0,0,0-.438Zm7.492-.14a.234.234,0,0,0-.19-.077.225.225,0,0,0-.166.063.23.23,0,0,0-.063.175.241.241,0,0,0,.063.184.224.224,0,0,0,.171.066.284.284,0,0,0,.12-.026.219.219,0,0,0,.094-.079.209.209,0,0,0,.035-.125A.259.259,0,0,0,115.831,651.245Zm-7.492.14a.35.35,0,0,0-.133-.142.37.37,0,0,0-.195-.05.364.364,0,0,0-.195.05.355.355,0,0,0-.136.142.521.521,0,0,0,0,.438.346.346,0,0,0,.136.144.385.385,0,0,0,.195.05.391.391,0,0,0,.195-.05.369.369,0,0,0,.133-.144.521.521,0,0,0,0-.438Zm1.686-.14a.241.241,0,0,0-.192-.077.228.228,0,0,0-.166.063.239.239,0,0,0-.063.175.25.25,0,0,0,.063.184.224.224,0,0,0,.171.066.294.294,0,0,0,.122-.026.227.227,0,0,0,.092-.079.21.21,0,0,0,.037-.125A.27.27,0,0,0,110.026,651.245Zm.908,0a.234.234,0,0,0-.19-.077.225.225,0,0,0-.166.063.23.23,0,0,0-.063.175.241.241,0,0,0,.063.184.224.224,0,0,0,.171.066.284.284,0,0,0,.12-.026.22.22,0,0,0,.094-.079.209.209,0,0,0,.035-.125A.26.26,0,0,0,110.933,651.245Zm3.99,0a.24.24,0,0,0-.19-.077.23.23,0,0,0-.168.063.239.239,0,0,0-.063.175.25.25,0,0,0,.063.184.226.226,0,0,0,.173.066.292.292,0,0,0,.12-.026.227.227,0,0,0,.092-.079.21.21,0,0,0,.037-.125A.27.27,0,0,0,114.923,651.245Zm.908,0a.234.234,0,0,0-.19-.077.225.225,0,0,0-.166.063.23.23,0,0,0-.063.175.241.241,0,0,0,.063.184.224.224,0,0,0,.171.066.284.284,0,0,0,.12-.026.219.219,0,0,0,.094-.079.209.209,0,0,0,.035-.125A.259.259,0,0,0,115.831,651.245Zm.941.359a.234.234,0,0,0-.173-.063.285.285,0,0,0-.12.026.207.207,0,0,0-.092.077.215.215,0,0,0-.037.125.28.28,0,0,0,.063.184.246.246,0,0,0,.192.072.226.226,0,0,0,.166-.061.235.235,0,0,0,.063-.175A.253.253,0,0,0,116.771,651.6Zm.709-3.764-.168.518h.337Zm.247,3.543a.279.279,0,0,0-.072-.138.2.2,0,0,0-.151-.052.2.2,0,0,0-.149.052.279.279,0,0,0-.072.138,1.183,1.183,0,0,0-.018.217,1.2,1.2,0,0,0,.018.217.277.277,0,0,0,.072.14.2.2,0,0,0,.149.052.2.2,0,0,0,.151-.052.277.277,0,0,0,.072-.14,1.2,1.2,0,0,0,.018-.217A1.184,1.184,0,0,0,117.727,651.383Zm1.84,0a.279.279,0,0,0-.072-.138.2.2,0,0,0-.151-.052.2.2,0,0,0-.149.052.279.279,0,0,0-.072.138,1.181,1.181,0,0,0-.018.217,1.2,1.2,0,0,0,.018.217.276.276,0,0,0,.072.14.2.2,0,0,0,.149.052.2.2,0,0,0,.151-.052.276.276,0,0,0,.072-.14,1.2,1.2,0,0,0,.018-.217A1.184,1.184,0,0,0,119.567,651.383Zm0,0a.279.279,0,0,0-.072-.138.2.2,0,0,0-.151-.052.2.2,0,0,0-.149.052.279.279,0,0,0-.072.138,1.181,1.181,0,0,0-.018.217,1.2,1.2,0,0,0,.018.217.276.276,0,0,0,.072.14.2.2,0,0,0,.149.052.2.2,0,0,0,.151-.052.276.276,0,0,0,.072-.14,1.2,1.2,0,0,0,.018-.217A1.184,1.184,0,0,0,119.567,651.383Zm-1.84,0a.279.279,0,0,0-.072-.138.2.2,0,0,0-.151-.052.2.2,0,0,0-.149.052.279.279,0,0,0-.072.138,1.183,1.183,0,0,0-.018.217,1.2,1.2,0,0,0,.018.217.277.277,0,0,0,.072.14.2.2,0,0,0,.149.052.2.2,0,0,0,.151-.052.277.277,0,0,0,.072-.14,1.2,1.2,0,0,0,.018-.217A1.184,1.184,0,0,0,117.727,651.383Zm-.247-3.543-.168.518h.337Zm-.709,3.764a.234.234,0,0,0-.173-.063.285.285,0,0,0-.12.026.207.207,0,0,0-.092.077.215.215,0,0,0-.037.125.28.28,0,0,0,.063.184.246.246,0,0,0,.192.072.226.226,0,0,0,.166-.061.235.235,0,0,0,.063-.175A.253.253,0,0,0,116.771,651.6Zm-1.848-.359a.24.24,0,0,0-.19-.077.23.23,0,0,0-.168.063.239.239,0,0,0-.063.175.25.25,0,0,0,.063.184.226.226,0,0,0,.173.066.292.292,0,0,0,.12-.026.227.227,0,0,0,.092-.079.21.21,0,0,0,.037-.125A.27.27,0,0,0,114.923,651.245Zm-3.99,0a.234.234,0,0,0-.19-.077.225.225,0,0,0-.166.063.23.23,0,0,0-.063.175.241.241,0,0,0,.063.184.224.224,0,0,0,.171.066.284.284,0,0,0,.12-.026.22.22,0,0,0,.094-.079.209.209,0,0,0,.035-.125A.26.26,0,0,0,110.933,651.245Zm-.908,0a.241.241,0,0,0-.192-.077.228.228,0,0,0-.166.063.239.239,0,0,0-.063.175.25.25,0,0,0,.063.184.224.224,0,0,0,.171.066.294.294,0,0,0,.122-.026.227.227,0,0,0,.092-.079.21.21,0,0,0,.037-.125A.27.27,0,0,0,110.026,651.245Zm-1.686.14a.35.35,0,0,0-.133-.142.37.37,0,0,0-.195-.05.364.364,0,0,0-.195.05.355.355,0,0,0-.136.142.521.521,0,0,0,0,.438.346.346,0,0,0,.136.144.385.385,0,0,0,.195.05.391.391,0,0,0,.195-.05.369.369,0,0,0,.133-.144.521.521,0,0,0,0-.438Zm7.492-.14a.234.234,0,0,0-.19-.077.225.225,0,0,0-.166.063.23.23,0,0,0-.063.175.241.241,0,0,0,.063.184.224.224,0,0,0,.171.066.284.284,0,0,0,.12-.026.219.219,0,0,0,.094-.079.209.209,0,0,0,.035-.125A.259.259,0,0,0,115.831,651.245Zm-7.492.14a.35.35,0,0,0-.133-.142.37.37,0,0,0-.195-.05.364.364,0,0,0-.195.05.355.355,0,0,0-.136.142.521.521,0,0,0,0,.438.346.346,0,0,0,.136.144.385.385,0,0,0,.195.05.391.391,0,0,0,.195-.05.369.369,0,0,0,.133-.144.521.521,0,0,0,0-.438Zm1.686-.14a.241.241,0,0,0-.192-.077.228.228,0,0,0-.166.063.239.239,0,0,0-.063.175.25.25,0,0,0,.063.184.224.224,0,0,0,.171.066.294.294,0,0,0,.122-.026.227.227,0,0,0,.092-.079.21.21,0,0,0,.037-.125A.27.27,0,0,0,110.026,651.245Zm.908,0a.234.234,0,0,0-.19-.077.225.225,0,0,0-.166.063.23.23,0,0,0-.063.175.241.241,0,0,0,.063.184.224.224,0,0,0,.171.066.284.284,0,0,0,.12-.026.22.22,0,0,0,.094-.079.209.209,0,0,0,.035-.125A.26.26,0,0,0,110.933,651.245Zm3.99,0a.24.24,0,0,0-.19-.077.23.23,0,0,0-.168.063.239.239,0,0,0-.063.175.25.25,0,0,0,.063.184.226.226,0,0,0,.173.066.292.292,0,0,0,.12-.026.227.227,0,0,0,.092-.079.21.21,0,0,0,.037-.125A.27.27,0,0,0,114.923,651.245Zm.908,0a.234.234,0,0,0-.19-.077.225.225,0,0,0-.166.063.23.23,0,0,0-.063.175.241.241,0,0,0,.063.184.224.224,0,0,0,.171.066.284.284,0,0,0,.12-.026.219.219,0,0,0,.094-.079.209.209,0,0,0,.035-.125A.259.259,0,0,0,115.831,651.245Zm.941.359a.234.234,0,0,0-.173-.063.285.285,0,0,0-.12.026.207.207,0,0,0-.092.077.215.215,0,0,0-.037.125.28.28,0,0,0,.063.184.246.246,0,0,0,.192.072.226.226,0,0,0,.166-.061.235.235,0,0,0,.063-.175A.253.253,0,0,0,116.771,651.6Zm.709-3.764-.168.518h.337Zm.247,3.543a.279.279,0,0,0-.072-.138.2.2,0,0,0-.151-.052.2.2,0,0,0-.149.052.279.279,0,0,0-.072.138,1.183,1.183,0,0,0-.018.217,1.2,1.2,0,0,0,.018.217.277.277,0,0,0,.072.14.2.2,0,0,0,.149.052.2.2,0,0,0,.151-.052.277.277,0,0,0,.072-.14,1.2,1.2,0,0,0,.018-.217A1.184,1.184,0,0,0,117.727,651.383Zm1.84,0a.279.279,0,0,0-.072-.138.2.2,0,0,0-.151-.052.2.2,0,0,0-.149.052.279.279,0,0,0-.072.138,1.181,1.181,0,0,0-.018.217,1.2,1.2,0,0,0,.018.217.276.276,0,0,0,.072.14.2.2,0,0,0,.149.052.2.2,0,0,0,.151-.052.276.276,0,0,0,.072-.14,1.2,1.2,0,0,0,.018-.217A1.184,1.184,0,0,0,119.567,651.383Zm1.765,0a.277.277,0,0,0-.07-.138.244.244,0,0,0-.3,0,.26.26,0,0,0-.07.138,1,1,0,0,0-.02.217,1.016,1.016,0,0,0,.02.217.259.259,0,0,0,.07.14.243.243,0,0,0,.3,0,.274.274,0,0,0,.07-.14,1.016,1.016,0,0,0,.02-.217A1,1,0,0,0,121.332,651.383Zm.919,0a.28.28,0,0,0-.072-.138.241.241,0,0,0-.3,0,.279.279,0,0,0-.072.138,1.183,1.183,0,0,0-.018.217,1.2,1.2,0,0,0,.018.217.276.276,0,0,0,.072.14.24.24,0,0,0,.3,0,.277.277,0,0,0,.072-.14,1.031,1.031,0,0,0,.018-.217A1.016,1.016,0,0,0,122.251,651.383Zm0,0a.28.28,0,0,0-.072-.138.241.241,0,0,0-.3,0,.279.279,0,0,0-.072.138,1.183,1.183,0,0,0-.018.217,1.2,1.2,0,0,0,.018.217.276.276,0,0,0,.072.14.24.24,0,0,0,.3,0,.277.277,0,0,0,.072-.14,1.031,1.031,0,0,0,.018-.217A1.016,1.016,0,0,0,122.251,651.383Zm-.919,0a.277.277,0,0,0-.07-.138.244.244,0,0,0-.3,0,.26.26,0,0,0-.07.138,1,1,0,0,0-.02.217,1.016,1.016,0,0,0,.02.217.259.259,0,0,0,.07.14.243.243,0,0,0,.3,0,.274.274,0,0,0,.07-.14,1.016,1.016,0,0,0,.02-.217A1,1,0,0,0,121.332,651.383Zm-1.765,0a.279.279,0,0,0-.072-.138.2.2,0,0,0-.151-.052.2.2,0,0,0-.149.052.279.279,0,0,0-.072.138,1.181,1.181,0,0,0-.018.217,1.2,1.2,0,0,0,.018.217.276.276,0,0,0,.072.14.2.2,0,0,0,.149.052.2.2,0,0,0,.151-.052.276.276,0,0,0,.072-.14,1.2,1.2,0,0,0,.018-.217A1.184,1.184,0,0,0,119.567,651.383Zm-1.84,0a.279.279,0,0,0-.072-.138.2.2,0,0,0-.151-.052.2.2,0,0,0-.149.052.279.279,0,0,0-.072.138,1.183,1.183,0,0,0-.018.217,1.2,1.2,0,0,0,.018.217.277.277,0,0,0,.072.14.2.2,0,0,0,.149.052.2.2,0,0,0,.151-.052.277.277,0,0,0,.072-.14,1.2,1.2,0,0,0,.018-.217A1.184,1.184,0,0,0,117.727,651.383Zm-.247-3.543-.168.518h.337Zm-.709,3.764a.234.234,0,0,0-.173-.063.285.285,0,0,0-.12.026.207.207,0,0,0-.092.077.215.215,0,0,0-.037.125.28.28,0,0,0,.063.184.246.246,0,0,0,.192.072.226.226,0,0,0,.166-.061.235.235,0,0,0,.063-.175A.253.253,0,0,0,116.771,651.6Zm-1.848-.359a.24.24,0,0,0-.19-.077.23.23,0,0,0-.168.063.239.239,0,0,0-.063.175.25.25,0,0,0,.063.184.226.226,0,0,0,.173.066.292.292,0,0,0,.12-.026.227.227,0,0,0,.092-.079.21.21,0,0,0,.037-.125A.27.27,0,0,0,114.923,651.245Zm-3.99,0a.234.234,0,0,0-.19-.077.225.225,0,0,0-.166.063.23.23,0,0,0-.063.175.241.241,0,0,0,.063.184.224.224,0,0,0,.171.066.284.284,0,0,0,.12-.026.22.22,0,0,0,.094-.079.209.209,0,0,0,.035-.125A.26.26,0,0,0,110.933,651.245Zm-.908,0a.241.241,0,0,0-.192-.077.228.228,0,0,0-.166.063.239.239,0,0,0-.063.175.25.25,0,0,0,.063.184.224.224,0,0,0,.171.066.294.294,0,0,0,.122-.026.227.227,0,0,0,.092-.079.21.21,0,0,0,.037-.125A.27.27,0,0,0,110.026,651.245Zm-1.686.14a.35.35,0,0,0-.133-.142.37.37,0,0,0-.195-.05.364.364,0,0,0-.195.05.355.355,0,0,0-.136.142.521.521,0,0,0,0,.438.346.346,0,0,0,.136.144.385.385,0,0,0,.195.05.391.391,0,0,0,.195-.05.369.369,0,0,0,.133-.144.521.521,0,0,0,0-.438Zm7.492-.14a.234.234,0,0,0-.19-.077.225.225,0,0,0-.166.063.23.23,0,0,0-.063.175.241.241,0,0,0,.063.184.224.224,0,0,0,.171.066.284.284,0,0,0,.12-.026.219.219,0,0,0,.094-.079.209.209,0,0,0,.035-.125A.259.259,0,0,0,115.831,651.245Zm-7.492.14a.35.35,0,0,0-.133-.142.37.37,0,0,0-.195-.05.364.364,0,0,0-.195.05.355.355,0,0,0-.136.142.521.521,0,0,0,0,.438.346.346,0,0,0,.136.144.385.385,0,0,0,.195.05.391.391,0,0,0,.195-.05.369.369,0,0,0,.133-.144.521.521,0,0,0,0-.438Zm1.686-.14a.241.241,0,0,0-.192-.077.228.228,0,0,0-.166.063.239.239,0,0,0-.063.175.25.25,0,0,0,.063.184.224.224,0,0,0,.171.066.294.294,0,0,0,.122-.026.227.227,0,0,0,.092-.079.21.21,0,0,0,.037-.125A.27.27,0,0,0,110.026,651.245Zm.908,0a.234.234,0,0,0-.19-.077.225.225,0,0,0-.166.063.23.23,0,0,0-.063.175.241.241,0,0,0,.063.184.224.224,0,0,0,.171.066.284.284,0,0,0,.12-.026.22.22,0,0,0,.094-.079.209.209,0,0,0,.035-.125A.26.26,0,0,0,110.933,651.245Zm3.99,0a.24.24,0,0,0-.19-.077.23.23,0,0,0-.168.063.239.239,0,0,0-.063.175.25.25,0,0,0,.063.184.226.226,0,0,0,.173.066.292.292,0,0,0,.12-.026.227.227,0,0,0,.092-.079.21.21,0,0,0,.037-.125A.27.27,0,0,0,114.923,651.245Zm.908,0a.234.234,0,0,0-.19-.077.225.225,0,0,0-.166.063.23.23,0,0,0-.063.175.241.241,0,0,0,.063.184.224.224,0,0,0,.171.066.284.284,0,0,0,.12-.026.219.219,0,0,0,.094-.079.209.209,0,0,0,.035-.125A.259.259,0,0,0,115.831,651.245Zm.941.359a.234.234,0,0,0-.173-.063.285.285,0,0,0-.12.026.207.207,0,0,0-.092.077.215.215,0,0,0-.037.125.28.28,0,0,0,.063.184.246.246,0,0,0,.192.072.226.226,0,0,0,.166-.061.235.235,0,0,0,.063-.175A.253.253,0,0,0,116.771,651.6Zm.709-3.764-.168.518h.337Zm.247,3.543a.279.279,0,0,0-.072-.138.2.2,0,0,0-.151-.052.2.2,0,0,0-.149.052.279.279,0,0,0-.072.138,1.183,1.183,0,0,0-.018.217,1.2,1.2,0,0,0,.018.217.277.277,0,0,0,.072.14.2.2,0,0,0,.149.052.2.2,0,0,0,.151-.052.277.277,0,0,0,.072-.14,1.2,1.2,0,0,0,.018-.217A1.184,1.184,0,0,0,117.727,651.383Zm1.84,0a.279.279,0,0,0-.072-.138.2.2,0,0,0-.151-.052.2.2,0,0,0-.149.052.279.279,0,0,0-.072.138,1.181,1.181,0,0,0-.018.217,1.2,1.2,0,0,0,.018.217.276.276,0,0,0,.072.14.2.2,0,0,0,.149.052.2.2,0,0,0,.151-.052.276.276,0,0,0,.072-.14,1.2,1.2,0,0,0,.018-.217A1.184,1.184,0,0,0,119.567,651.383Zm1.765,0a.277.277,0,0,0-.07-.138.244.244,0,0,0-.3,0,.26.26,0,0,0-.07.138,1,1,0,0,0-.02.217,1.016,1.016,0,0,0,.02.217.259.259,0,0,0,.07.14.243.243,0,0,0,.3,0,.274.274,0,0,0,.07-.14,1.016,1.016,0,0,0,.02-.217A1,1,0,0,0,121.332,651.383Zm.919,0a.28.28,0,0,0-.072-.138.241.241,0,0,0-.3,0,.279.279,0,0,0-.072.138,1.183,1.183,0,0,0-.018.217,1.2,1.2,0,0,0,.018.217.276.276,0,0,0,.072.14.24.24,0,0,0,.3,0,.277.277,0,0,0,.072-.14,1.031,1.031,0,0,0,.018-.217A1.016,1.016,0,0,0,122.251,651.383Zm0,0a.28.28,0,0,0-.072-.138.241.241,0,0,0-.3,0,.279.279,0,0,0-.072.138,1.183,1.183,0,0,0-.018.217,1.2,1.2,0,0,0,.018.217.276.276,0,0,0,.072.14.24.24,0,0,0,.3,0,.277.277,0,0,0,.072-.14,1.031,1.031,0,0,0,.018-.217A1.016,1.016,0,0,0,122.251,651.383Zm-.919,0a.277.277,0,0,0-.07-.138.244.244,0,0,0-.3,0,.26.26,0,0,0-.07.138,1,1,0,0,0-.02.217,1.016,1.016,0,0,0,.02.217.259.259,0,0,0,.07.14.243.243,0,0,0,.3,0,.274.274,0,0,0,.07-.14,1.016,1.016,0,0,0,.02-.217A1,1,0,0,0,121.332,651.383Zm-1.765,0a.279.279,0,0,0-.072-.138.2.2,0,0,0-.151-.052.2.2,0,0,0-.149.052.279.279,0,0,0-.072.138,1.181,1.181,0,0,0-.018.217,1.2,1.2,0,0,0,.018.217.276.276,0,0,0,.072.14.2.2,0,0,0,.149.052.2.2,0,0,0,.151-.052.276.276,0,0,0,.072-.14,1.2,1.2,0,0,0,.018-.217A1.184,1.184,0,0,0,119.567,651.383Zm-1.84,0a.279.279,0,0,0-.072-.138.2.2,0,0,0-.151-.052.2.2,0,0,0-.149.052.279.279,0,0,0-.072.138,1.183,1.183,0,0,0-.018.217,1.2,1.2,0,0,0,.018.217.277.277,0,0,0,.072.14.2.2,0,0,0,.149.052.2.2,0,0,0,.151-.052.277.277,0,0,0,.072-.14,1.2,1.2,0,0,0,.018-.217A1.184,1.184,0,0,0,117.727,651.383Zm-.247-3.543-.168.518h.337Zm-.709,3.764a.234.234,0,0,0-.173-.063.285.285,0,0,0-.12.026.207.207,0,0,0-.092.077.215.215,0,0,0-.037.125.28.28,0,0,0,.063.184.246.246,0,0,0,.192.072.226.226,0,0,0,.166-.061.235.235,0,0,0,.063-.175A.253.253,0,0,0,116.771,651.6Zm-1.848-.359a.24.24,0,0,0-.19-.077.23.23,0,0,0-.168.063.239.239,0,0,0-.063.175.25.25,0,0,0,.063.184.226.226,0,0,0,.173.066.292.292,0,0,0,.12-.026.227.227,0,0,0,.092-.079.21.21,0,0,0,.037-.125A.27.27,0,0,0,114.923,651.245Zm-3.99,0a.234.234,0,0,0-.19-.077.225.225,0,0,0-.166.063.23.23,0,0,0-.063.175.241.241,0,0,0,.063.184.224.224,0,0,0,.171.066.284.284,0,0,0,.12-.026.22.22,0,0,0,.094-.079.209.209,0,0,0,.035-.125A.26.26,0,0,0,110.933,651.245Zm-.908,0a.241.241,0,0,0-.192-.077.228.228,0,0,0-.166.063.239.239,0,0,0-.063.175.25.25,0,0,0,.063.184.224.224,0,0,0,.171.066.294.294,0,0,0,.122-.026.227.227,0,0,0,.092-.079.21.21,0,0,0,.037-.125A.27.27,0,0,0,110.026,651.245Zm-1.686.14a.35.35,0,0,0-.133-.142.37.37,0,0,0-.195-.05.364.364,0,0,0-.195.05.355.355,0,0,0-.136.142.521.521,0,0,0,0,.438.346.346,0,0,0,.136.144.385.385,0,0,0,.195.05.391.391,0,0,0,.195-.05.369.369,0,0,0,.133-.144.521.521,0,0,0,0-.438Zm7.492-.14a.234.234,0,0,0-.19-.077.225.225,0,0,0-.166.063.23.23,0,0,0-.063.175.241.241,0,0,0,.063.184.224.224,0,0,0,.171.066.284.284,0,0,0,.12-.026.219.219,0,0,0,.094-.079.209.209,0,0,0,.035-.125A.259.259,0,0,0,115.831,651.245Zm8.872,0a.244.244,0,0,0-.3,0,.277.277,0,0,0-.07.138,1,1,0,0,0-.02.217,1.017,1.017,0,0,0,.02.217.274.274,0,0,0,.07.14.243.243,0,0,0,.3,0,.259.259,0,0,0,.07-.14,1.015,1.015,0,0,0,.02-.217,1,1,0,0,0-.02-.217A.26.26,0,0,0,124.7,651.245Zm-8.955-8.959a12.4,12.4,0,1,0,12.4,12.4A12.4,12.4,0,0,0,115.748,642.286Zm-.75,5.16a.572.572,0,0,1,.256-.193.95.95,0,0,1,.363-.066.837.837,0,0,1,.529.153.594.594,0,0,1,.217.446h-.628c-.009-.1-.05-.147-.12-.147a.08.08,0,0,0-.085.09.113.113,0,0,0,.068.1,1.225,1.225,0,0,0,.208.087,2.012,2.012,0,0,1,.3.125.623.623,0,0,1,.206.182.5.5,0,0,1,.087.306.525.525,0,0,1-.083.289.568.568,0,0,1-.241.2.857.857,0,0,1-.374.074.928.928,0,0,1-.551-.155.581.581,0,0,1-.234-.459h.619c.009.107.057.16.142.16a.1.1,0,0,0,.072-.022.094.094,0,0,0,.028-.07.118.118,0,0,0-.068-.1,1.157,1.157,0,0,0-.217-.088,2.248,2.248,0,0,1-.293-.118.628.628,0,0,1-.2-.179.577.577,0,0,1,.007-.615Zm.809,4.263a.324.324,0,0,1-.19.055.333.333,0,0,1-.247-.094.373.373,0,0,1-.09-.265.408.408,0,0,1,.039-.179.293.293,0,0,1,.12-.127.386.386,0,0,1,.2-.048.34.34,0,0,1,.313.14.762.762,0,0,1,.083.385.861.861,0,0,1-.085.424.314.314,0,0,1-.291.144.319.319,0,0,1-.236-.085.343.343,0,0,1-.1-.223h.127a.247.247,0,0,0,.066.147.2.2,0,0,0,.144.05.215.215,0,0,0,.19-.1.576.576,0,0,0,.063-.306v-.061A.232.232,0,0,1,115.807,651.709Zm-2.607-4.491h.866a.839.839,0,0,1,.385.081.554.554,0,0,1,.241.216.619.619,0,0,1,.079.311.55.55,0,0,1-.1.333.569.569,0,0,1-.3.206l.4.713h-.641l-.352-.667v.667H113.2Zm-5.89,4.915h-.136l-.547-.833v.833h-.136v-1.054h.136l.547.833v-.833h.136Zm.252-.249a.564.564,0,0,1-.068-.28.555.555,0,0,1,.068-.278.463.463,0,0,1,.186-.193.55.55,0,0,1,.529,0,.486.486,0,0,1,.184.193.555.555,0,0,1,.068.278.564.564,0,0,1-.068.28.5.5,0,0,1-.184.192.55.55,0,0,1-.529,0A.477.477,0,0,1,107.561,651.884Zm1.262,6.4h-1.129v-3.664h1.129Zm.47-6.155h-.144v-.927h-.157v-.127h.3Zm.556.011a.319.319,0,0,1-.236-.085.353.353,0,0,1-.1-.223h.129a.248.248,0,0,0,.066.147.2.2,0,0,0,.142.05.212.212,0,0,0,.19-.1.554.554,0,0,0,.066-.306c0-.028,0-.048,0-.061a.232.232,0,0,1-.1.142.317.317,0,0,1-.188.055.329.329,0,0,1-.247-.094.363.363,0,0,1-.09-.265.439.439,0,0,1,.037-.179.293.293,0,0,1,.12-.127.386.386,0,0,1,.2-.048.338.338,0,0,1,.313.14.738.738,0,0,1,.085.385.859.859,0,0,1-.088.424A.314.314,0,0,1,109.848,652.144Zm.669,6.144h-.383v-3.664h.383Zm.532-6.289a.314.314,0,0,1-.291.144.319.319,0,0,1-.236-.085.355.355,0,0,1-.1-.223h.129a.248.248,0,0,0,.066.147.2.2,0,0,0,.144.05.215.215,0,0,0,.19-.1.576.576,0,0,0,.063-.306v-.061a.232.232,0,0,1-.1.142.329.329,0,0,1-.19.055.333.333,0,0,1-.247-.094.373.373,0,0,1-.09-.265.407.407,0,0,1,.039-.179.3.3,0,0,1,.118-.127.4.4,0,0,1,.2-.048.34.34,0,0,1,.313.14.762.762,0,0,1,.083.385A.861.861,0,0,1,111.049,652Zm.507,6.289h-.383v-3.664h.383Zm-.109-6.234a.335.335,0,0,1-.112-.232h.133a.235.235,0,0,0,.079.144.22.22,0,0,0,.153.053.215.215,0,0,0,.173-.07.265.265,0,0,0,.059-.179.212.212,0,0,0-.23-.232.27.27,0,0,0-.136.033.215.215,0,0,0-.088.09h-.133v-.6h.667v.12h-.54v.352a.258.258,0,0,1,.107-.081.39.39,0,0,1,.153-.028.352.352,0,0,1,.188.046.294.294,0,0,1,.107.125.4.4,0,0,1,.037.171.388.388,0,0,1-.092.267.345.345,0,0,1-.269.1A.387.387,0,0,1,111.447,652.054Zm1.476,6.234h-1.039v-3.664h1.039Zm0-6.162H112.2v-.1a2.164,2.164,0,0,0,.407-.339.481.481,0,0,0,.153-.313.212.212,0,0,0-.046-.145.178.178,0,0,0-.147-.055.2.2,0,0,0-.16.066.322.322,0,0,0-.059.184h-.133a.39.39,0,0,1,.107-.271.355.355,0,0,1,.256-.094.333.333,0,0,1,.234.079.29.29,0,0,1,.087.223.444.444,0,0,1-.079.243,1,1,0,0,1-.193.23,1.519,1.519,0,0,1-.238.179h.536Zm.129-.315h.136a.245.245,0,0,0,.077.155.227.227,0,0,0,.166.059.225.225,0,0,0,.155-.05.185.185,0,0,0,.053-.136.163.163,0,0,0-.077-.149.385.385,0,0,0-.219-.052h-.035v-.114h.035q.276,0,.276-.184a.173.173,0,0,0-.05-.129.207.207,0,0,0-.142-.048.227.227,0,0,0-.151.052.224.224,0,0,0-.07.151h-.133a.338.338,0,0,1,.1-.234.379.379,0,0,1,.256-.083.4.4,0,0,1,.175.035.254.254,0,0,1,.109.1.261.261,0,0,1,.037.142.234.234,0,0,1-.225.247v.009a.407.407,0,0,1,.182.092.242.242,0,0,1,.063.175.283.283,0,0,1-.085.212.352.352,0,0,1-.249.081.4.4,0,0,1-.265-.083A.366.366,0,0,1,113.057,651.812Zm1.07,6.477h-.875v-3.664h.875Zm.063-6.155h-.144v-.927h-.157v-.127h.3Zm.521,6.155h-.256v-3.664h.256Zm.035-6.144a.319.319,0,0,1-.236-.085.353.353,0,0,1-.1-.223h.129a.248.248,0,0,0,.066.147.2.2,0,0,0,.142.05.21.21,0,0,0,.19-.1.554.554,0,0,0,.066-.306c0-.028,0-.048,0-.061a.224.224,0,0,1-.1.142.317.317,0,0,1-.188.055.329.329,0,0,1-.247-.094.363.363,0,0,1-.09-.265.407.407,0,0,1,.039-.179.276.276,0,0,1,.118-.127.386.386,0,0,1,.2-.048.338.338,0,0,1,.313.14.739.739,0,0,1,.085.385.859.859,0,0,1-.087.424A.312.312,0,0,1,114.746,652.144Zm2.17,6.144h-1.864v-3.664h1.864Zm.009-6.319a.293.293,0,0,1-.12.127.386.386,0,0,1-.2.046.332.332,0,0,1-.311-.14.758.758,0,0,1-.085-.387.779.779,0,0,1,.092-.422.322.322,0,0,1,.3-.142.305.305,0,0,1,.232.085.361.361,0,0,1,.1.223H116.8a.253.253,0,0,0-.063-.144.2.2,0,0,0-.144-.053.212.212,0,0,0-.19.1.579.579,0,0,0-.066.313v.055a.235.235,0,0,1,.1-.142.333.333,0,0,1,.188-.053.322.322,0,0,1,.247.094.367.367,0,0,1,.09.262A.407.407,0,0,1,116.924,651.969Zm-.457-2.892.678-1.859h.674l.676,1.859h-.615l-.092-.282h-.619l-.092.282Zm.663,2.522a.8.8,0,0,1,.083-.4.371.371,0,0,1,.582,0,.763.763,0,0,1,.085.394.777.777,0,0,1-.085.4.369.369,0,0,1-.582,0A.8.8,0,0,1,117.13,651.6Zm1.153,6.689h-1.039v-3.664h1.039Zm-.09-6.234a.329.329,0,0,1-.114-.232h.136a.244.244,0,0,0,.077.144.228.228,0,0,0,.153.053.212.212,0,0,0,.173-.07.265.265,0,0,0,.059-.179.231.231,0,0,0-.059-.171.221.221,0,0,0-.168-.061.279.279,0,0,0-.138.033.229.229,0,0,0-.088.09h-.131v-.6h.667v.12h-.542v.352a.273.273,0,0,1,.107-.081.4.4,0,0,1,.155-.028.349.349,0,0,1,.186.046.3.3,0,0,1,.109.125.4.4,0,0,1,.035.171.388.388,0,0,1-.092.267.34.34,0,0,1-.267.1A.383.383,0,0,1,118.193,652.054Zm1.183,6.234h-.766v-3.664h.766Zm-.033-6.151a.312.312,0,0,1-.291-.142.984.984,0,0,1,0-.792.371.371,0,0,1,.582,0,.763.763,0,0,1,.085.394.777.777,0,0,1-.085.4A.312.312,0,0,1,119.344,652.138Zm.962,6.151h-.6v-3.664h.6Zm.284-6.162h-.724v-.1a2.316,2.316,0,0,0,.407-.339.488.488,0,0,0,.151-.313.223.223,0,0,0-.044-.145.183.183,0,0,0-.149-.055.19.19,0,0,0-.157.066.307.307,0,0,0-.061.184h-.133a.391.391,0,0,1,.109-.271.35.35,0,0,1,.254-.094.333.333,0,0,1,.234.079.282.282,0,0,1,.088.223.459.459,0,0,1-.077.243,1.12,1.12,0,0,1-.192.23,1.756,1.756,0,0,1-.238.179h.534ZM121.4,652a.367.367,0,0,1-.58,0,.984.984,0,0,1,0-.792.309.309,0,0,1,.291-.14.3.3,0,0,1,.289.142.763.763,0,0,1,.085.394A.777.777,0,0,1,121.4,652Zm.547,6.293h-.273v-3.664h.273Zm.081-6.151a.306.306,0,0,1-.289-.142.961.961,0,0,1,0-.792.368.368,0,0,1,.58,0,.762.762,0,0,1,.085.394.777.777,0,0,1-.085.4A.31.31,0,0,1,122.027,652.138Zm.794,6.151h-.547v-3.664h.547Zm.378-7.111-.4.956h-.144l.407-.943h-.553v-.118h.691Zm.768,7.111H123.5v-3.664h.464Zm.063-6.162h-.724v-.1a2.315,2.315,0,0,0,.407-.339.492.492,0,0,0,.153-.313.212.212,0,0,0-.046-.145.183.183,0,0,0-.149-.055.189.189,0,0,0-.157.066.293.293,0,0,0-.059.184h-.136a.391.391,0,0,1,.109-.271.35.35,0,0,1,.254-.094.333.333,0,0,1,.234.079.282.282,0,0,1,.087.223.459.459,0,0,1-.077.243,1.12,1.12,0,0,1-.193.23,1.754,1.754,0,0,1-.238.179h.534Zm.521.011a.312.312,0,0,1-.291-.142.984.984,0,0,1,0-.792.371.371,0,0,1,.582,0,.787.787,0,0,1,.083.394.8.8,0,0,1-.083.4A.312.312,0,0,1,124.552,652.138Zm-2.373-.892a.241.241,0,0,0-.3,0,.279.279,0,0,0-.072.138,1.183,1.183,0,0,0-.018.217,1.2,1.2,0,0,0,.018.217.276.276,0,0,0,.072.14.24.24,0,0,0,.3,0,.277.277,0,0,0,.072-.14,1.031,1.031,0,0,0,.018-.217,1.016,1.016,0,0,0-.018-.217A.28.28,0,0,0,122.178,651.245Zm-.916,0a.244.244,0,0,0-.3,0,.26.26,0,0,0-.07.138,1,1,0,0,0-.02.217,1.016,1.016,0,0,0,.02.217.259.259,0,0,0,.07.14.243.243,0,0,0,.3,0,.274.274,0,0,0,.07-.14,1.016,1.016,0,0,0,.02-.217,1,1,0,0,0-.02-.217A.277.277,0,0,0,121.262,651.245Zm-1.767,0a.2.2,0,0,0-.151-.052.2.2,0,0,0-.149.052.279.279,0,0,0-.072.138,1.181,1.181,0,0,0-.018.217,1.2,1.2,0,0,0,.018.217.276.276,0,0,0,.072.14.2.2,0,0,0,.149.052.2.2,0,0,0,.151-.052.276.276,0,0,0,.072-.14,1.2,1.2,0,0,0,.018-.217,1.184,1.184,0,0,0-.018-.217A.279.279,0,0,0,119.495,651.245Zm-2.139.711a.2.2,0,0,0,.149.052.2.2,0,0,0,.151-.052.277.277,0,0,0,.072-.14,1.2,1.2,0,0,0,.018-.217,1.184,1.184,0,0,0-.018-.217.279.279,0,0,0-.072-.138.2.2,0,0,0-.151-.052.2.2,0,0,0-.149.052.279.279,0,0,0-.072.138,1.183,1.183,0,0,0-.018.217,1.2,1.2,0,0,0,.018.217A.277.277,0,0,0,117.355,651.956Zm.125-4.117-.168.518h.337Zm-.881,3.7a.285.285,0,0,0-.12.026.207.207,0,0,0-.092.077.215.215,0,0,0-.037.125.28.28,0,0,0,.063.184.246.246,0,0,0,.192.072.226.226,0,0,0,.166-.061.235.235,0,0,0,.063-.175.253.253,0,0,0-.063-.184A.234.234,0,0,0,116.6,651.541Zm-.958-.372a.225.225,0,0,0-.166.063.23.23,0,0,0-.063.175.241.241,0,0,0,.063.184.224.224,0,0,0,.171.066.284.284,0,0,0,.12-.026.219.219,0,0,0,.094-.079.209.209,0,0,0,.035-.125.259.259,0,0,0-.063-.182A.234.234,0,0,0,115.641,651.169Zm-.908,0a.23.23,0,0,0-.168.063.239.239,0,0,0-.063.175.25.25,0,0,0,.063.184.226.226,0,0,0,.173.066.292.292,0,0,0,.12-.026.227.227,0,0,0,.092-.079.21.21,0,0,0,.037-.125.27.27,0,0,0-.063-.182A.24.24,0,0,0,114.733,651.169Zm-3.99,0a.225.225,0,0,0-.166.063.23.23,0,0,0-.063.175.241.241,0,0,0,.063.184.224.224,0,0,0,.171.066.284.284,0,0,0,.12-.026.22.22,0,0,0,.094-.079.209.209,0,0,0,.035-.125.26.26,0,0,0-.063-.182A.234.234,0,0,0,110.743,651.169Zm-.91,0a.228.228,0,0,0-.166.063.239.239,0,0,0-.063.175.25.25,0,0,0,.063.184.224.224,0,0,0,.171.066.294.294,0,0,0,.122-.026.227.227,0,0,0,.092-.079.21.21,0,0,0,.037-.125.27.27,0,0,0-.063-.182A.241.241,0,0,0,109.833,651.169Zm-1.822.849a.391.391,0,0,0,.195-.05.369.369,0,0,0,.133-.144.521.521,0,0,0,0-.438.35.35,0,0,0-.133-.142.37.37,0,0,0-.195-.05.364.364,0,0,0-.195.05.355.355,0,0,0-.136.142.521.521,0,0,0,0,.438.346.346,0,0,0,.136.144A.385.385,0,0,0,108.011,652.017Zm7.82-.772a.234.234,0,0,0-.19-.077.225.225,0,0,0-.166.063.23.23,0,0,0-.063.175.241.241,0,0,0,.063.184.224.224,0,0,0,.171.066.284.284,0,0,0,.12-.026.219.219,0,0,0,.094-.079.209.209,0,0,0,.035-.125A.259.259,0,0,0,115.831,651.245Zm-7.492.14a.35.35,0,0,0-.133-.142.37.37,0,0,0-.195-.05.364.364,0,0,0-.195.05.355.355,0,0,0-.136.142.521.521,0,0,0,0,.438.346.346,0,0,0,.136.144.385.385,0,0,0,.195.05.391.391,0,0,0,.195-.05.369.369,0,0,0,.133-.144.521.521,0,0,0,0-.438Zm1.686-.14a.241.241,0,0,0-.192-.077.228.228,0,0,0-.166.063.239.239,0,0,0-.063.175.25.25,0,0,0,.063.184.224.224,0,0,0,.171.066.294.294,0,0,0,.122-.026.227.227,0,0,0,.092-.079.21.21,0,0,0,.037-.125A.27.27,0,0,0,110.026,651.245Zm.908,0a.234.234,0,0,0-.19-.077.225.225,0,0,0-.166.063.23.23,0,0,0-.063.175.241.241,0,0,0,.063.184.224.224,0,0,0,.171.066.284.284,0,0,0,.12-.026.22.22,0,0,0,.094-.079.209.209,0,0,0,.035-.125A.26.26,0,0,0,110.933,651.245Zm3.99,0a.24.24,0,0,0-.19-.077.23.23,0,0,0-.168.063.239.239,0,0,0-.063.175.25.25,0,0,0,.063.184.226.226,0,0,0,.173.066.292.292,0,0,0,.12-.026.227.227,0,0,0,.092-.079.21.21,0,0,0,.037-.125A.27.27,0,0,0,114.923,651.245Zm1.848.359a.234.234,0,0,0-.173-.063.285.285,0,0,0-.12.026.207.207,0,0,0-.092.077.215.215,0,0,0-.037.125.28.28,0,0,0,.063.184.246.246,0,0,0,.192.072.226.226,0,0,0,.166-.061.235.235,0,0,0,.063-.175A.253.253,0,0,0,116.771,651.6Zm.709-3.764-.168.518h.337Zm.247,3.543a.279.279,0,0,0-.072-.138.2.2,0,0,0-.151-.052.2.2,0,0,0-.149.052.279.279,0,0,0-.072.138,1.183,1.183,0,0,0-.018.217,1.2,1.2,0,0,0,.018.217.277.277,0,0,0,.072.14.2.2,0,0,0,.149.052.2.2,0,0,0,.151-.052.277.277,0,0,0,.072-.14,1.2,1.2,0,0,0,.018-.217A1.184,1.184,0,0,0,117.727,651.383Zm1.84,0a.279.279,0,0,0-.072-.138.2.2,0,0,0-.151-.052.2.2,0,0,0-.149.052.279.279,0,0,0-.072.138,1.181,1.181,0,0,0-.018.217,1.2,1.2,0,0,0,.018.217.276.276,0,0,0,.072.14.2.2,0,0,0,.149.052.2.2,0,0,0,.151-.052.276.276,0,0,0,.072-.14,1.2,1.2,0,0,0,.018-.217A1.184,1.184,0,0,0,119.567,651.383Zm1.765,0a.277.277,0,0,0-.07-.138.244.244,0,0,0-.3,0,.26.26,0,0,0-.07.138,1,1,0,0,0-.02.217,1.016,1.016,0,0,0,.02.217.259.259,0,0,0,.07.14.243.243,0,0,0,.3,0,.274.274,0,0,0,.07-.14,1.016,1.016,0,0,0,.02-.217A1,1,0,0,0,121.332,651.383Zm.919,0a.28.28,0,0,0-.072-.138.241.241,0,0,0-.3,0,.279.279,0,0,0-.072.138,1.183,1.183,0,0,0-.018.217,1.2,1.2,0,0,0,.018.217.276.276,0,0,0,.072.14.24.24,0,0,0,.3,0,.277.277,0,0,0,.072-.14,1.031,1.031,0,0,0,.018-.217A1.016,1.016,0,0,0,122.251,651.383Zm0,0a.28.28,0,0,0-.072-.138.241.241,0,0,0-.3,0,.279.279,0,0,0-.072.138,1.183,1.183,0,0,0-.018.217,1.2,1.2,0,0,0,.018.217.276.276,0,0,0,.072.14.24.24,0,0,0,.3,0,.277.277,0,0,0,.072-.14,1.031,1.031,0,0,0,.018-.217A1.016,1.016,0,0,0,122.251,651.383Zm-.919,0a.277.277,0,0,0-.07-.138.244.244,0,0,0-.3,0,.26.26,0,0,0-.07.138,1,1,0,0,0-.02.217,1.016,1.016,0,0,0,.02.217.259.259,0,0,0,.07.14.243.243,0,0,0,.3,0,.274.274,0,0,0,.07-.14,1.016,1.016,0,0,0,.02-.217A1,1,0,0,0,121.332,651.383Zm-1.765,0a.279.279,0,0,0-.072-.138.2.2,0,0,0-.151-.052.2.2,0,0,0-.149.052.279.279,0,0,0-.072.138,1.181,1.181,0,0,0-.018.217,1.2,1.2,0,0,0,.018.217.276.276,0,0,0,.072.14.2.2,0,0,0,.149.052.2.2,0,0,0,.151-.052.276.276,0,0,0,.072-.14,1.2,1.2,0,0,0,.018-.217A1.184,1.184,0,0,0,119.567,651.383Zm-1.84,0a.279.279,0,0,0-.072-.138.2.2,0,0,0-.151-.052.2.2,0,0,0-.149.052.279.279,0,0,0-.072.138,1.183,1.183,0,0,0-.018.217,1.2,1.2,0,0,0,.018.217.277.277,0,0,0,.072.14.2.2,0,0,0,.149.052.2.2,0,0,0,.151-.052.277.277,0,0,0,.072-.14,1.2,1.2,0,0,0,.018-.217A1.184,1.184,0,0,0,117.727,651.383Zm-.247-3.543-.168.518h.337Zm-.709,3.764a.234.234,0,0,0-.173-.063.285.285,0,0,0-.12.026.207.207,0,0,0-.092.077.215.215,0,0,0-.037.125.28.28,0,0,0,.063.184.246.246,0,0,0,.192.072.226.226,0,0,0,.166-.061.235.235,0,0,0,.063-.175A.253.253,0,0,0,116.771,651.6Zm-.941-.359a.234.234,0,0,0-.19-.077.225.225,0,0,0-.166.063.23.23,0,0,0-.063.175.241.241,0,0,0,.063.184.224.224,0,0,0,.171.066.284.284,0,0,0,.12-.026.219.219,0,0,0,.094-.079.209.209,0,0,0,.035-.125A.259.259,0,0,0,115.831,651.245Zm-.908,0a.24.24,0,0,0-.19-.077.23.23,0,0,0-.168.063.239.239,0,0,0-.063.175.25.25,0,0,0,.063.184.226.226,0,0,0,.173.066.292.292,0,0,0,.12-.026.227.227,0,0,0,.092-.079.21.21,0,0,0,.037-.125A.27.27,0,0,0,114.923,651.245Zm-3.99,0a.234.234,0,0,0-.19-.077.225.225,0,0,0-.166.063.23.23,0,0,0-.063.175.241.241,0,0,0,.063.184.224.224,0,0,0,.171.066.284.284,0,0,0,.12-.026.22.22,0,0,0,.094-.079.209.209,0,0,0,.035-.125A.26.26,0,0,0,110.933,651.245Zm-.908,0a.241.241,0,0,0-.192-.077.228.228,0,0,0-.166.063.239.239,0,0,0-.063.175.25.25,0,0,0,.063.184.224.224,0,0,0,.171.066.294.294,0,0,0,.122-.026.227.227,0,0,0,.092-.079.21.21,0,0,0,.037-.125A.27.27,0,0,0,110.026,651.245Zm-1.686.14a.35.35,0,0,0-.133-.142.37.37,0,0,0-.195-.05.364.364,0,0,0-.195.05.355.355,0,0,0-.136.142.521.521,0,0,0,0,.438.346.346,0,0,0,.136.144.385.385,0,0,0,.195.05.391.391,0,0,0,.195-.05.369.369,0,0,0,.133-.144.521.521,0,0,0,0-.438Zm7.492-.14a.234.234,0,0,0-.19-.077.225.225,0,0,0-.166.063.23.23,0,0,0-.063.175.241.241,0,0,0,.063.184.224.224,0,0,0,.171.066.284.284,0,0,0,.12-.026.219.219,0,0,0,.094-.079.209.209,0,0,0,.035-.125A.259.259,0,0,0,115.831,651.245Zm-7.492.14a.35.35,0,0,0-.133-.142.37.37,0,0,0-.195-.05.364.364,0,0,0-.195.05.355.355,0,0,0-.136.142.521.521,0,0,0,0,.438.346.346,0,0,0,.136.144.385.385,0,0,0,.195.05.391.391,0,0,0,.195-.05.369.369,0,0,0,.133-.144.521.521,0,0,0,0-.438Zm1.686-.14a.241.241,0,0,0-.192-.077.228.228,0,0,0-.166.063.239.239,0,0,0-.063.175.25.25,0,0,0,.063.184.224.224,0,0,0,.171.066.294.294,0,0,0,.122-.026.227.227,0,0,0,.092-.079.21.21,0,0,0,.037-.125A.27.27,0,0,0,110.026,651.245Zm.908,0a.234.234,0,0,0-.19-.077.225.225,0,0,0-.166.063.23.23,0,0,0-.063.175.241.241,0,0,0,.063.184.224.224,0,0,0,.171.066.284.284,0,0,0,.12-.026.22.22,0,0,0,.094-.079.209.209,0,0,0,.035-.125A.26.26,0,0,0,110.933,651.245Zm3.99,0a.24.24,0,0,0-.19-.077.23.23,0,0,0-.168.063.239.239,0,0,0-.063.175.25.25,0,0,0,.063.184.226.226,0,0,0,.173.066.292.292,0,0,0,.12-.026.227.227,0,0,0,.092-.079.21.21,0,0,0,.037-.125A.27.27,0,0,0,114.923,651.245Zm1.848.359a.234.234,0,0,0-.173-.063.285.285,0,0,0-.12.026.207.207,0,0,0-.092.077.215.215,0,0,0-.037.125.28.28,0,0,0,.063.184.246.246,0,0,0,.192.072.226.226,0,0,0,.166-.061.235.235,0,0,0,.063-.175A.253.253,0,0,0,116.771,651.6Zm.709-3.764-.168.518h.337Zm.247,3.543a.279.279,0,0,0-.072-.138.2.2,0,0,0-.151-.052.2.2,0,0,0-.149.052.279.279,0,0,0-.072.138,1.183,1.183,0,0,0-.018.217,1.2,1.2,0,0,0,.018.217.277.277,0,0,0,.072.14.2.2,0,0,0,.149.052.2.2,0,0,0,.151-.052.277.277,0,0,0,.072-.14,1.2,1.2,0,0,0,.018-.217A1.184,1.184,0,0,0,117.727,651.383Zm1.84,0a.279.279,0,0,0-.072-.138.2.2,0,0,0-.151-.052.2.2,0,0,0-.149.052.279.279,0,0,0-.072.138,1.181,1.181,0,0,0-.018.217,1.2,1.2,0,0,0,.018.217.276.276,0,0,0,.072.14.2.2,0,0,0,.149.052.2.2,0,0,0,.151-.052.276.276,0,0,0,.072-.14,1.2,1.2,0,0,0,.018-.217A1.184,1.184,0,0,0,119.567,651.383Zm1.765,0a.277.277,0,0,0-.07-.138.244.244,0,0,0-.3,0,.26.26,0,0,0-.07.138,1,1,0,0,0-.02.217,1.016,1.016,0,0,0,.02.217.259.259,0,0,0,.07.14.243.243,0,0,0,.3,0,.274.274,0,0,0,.07-.14,1.016,1.016,0,0,0,.02-.217A1,1,0,0,0,121.332,651.383Zm0,0a.277.277,0,0,0-.07-.138.244.244,0,0,0-.3,0,.26.26,0,0,0-.07.138,1,1,0,0,0-.02.217,1.016,1.016,0,0,0,.02.217.259.259,0,0,0,.07.14.243.243,0,0,0,.3,0,.274.274,0,0,0,.07-.14,1.016,1.016,0,0,0,.02-.217A1,1,0,0,0,121.332,651.383Zm-1.765,0a.279.279,0,0,0-.072-.138.2.2,0,0,0-.151-.052.2.2,0,0,0-.149.052.279.279,0,0,0-.072.138,1.181,1.181,0,0,0-.018.217,1.2,1.2,0,0,0,.018.217.276.276,0,0,0,.072.14.2.2,0,0,0,.149.052.2.2,0,0,0,.151-.052.276.276,0,0,0,.072-.14,1.2,1.2,0,0,0,.018-.217A1.184,1.184,0,0,0,119.567,651.383Zm-1.84,0a.279.279,0,0,0-.072-.138.2.2,0,0,0-.151-.052.2.2,0,0,0-.149.052.279.279,0,0,0-.072.138,1.183,1.183,0,0,0-.018.217,1.2,1.2,0,0,0,.018.217.277.277,0,0,0,.072.14.2.2,0,0,0,.149.052.2.2,0,0,0,.151-.052.277.277,0,0,0,.072-.14,1.2,1.2,0,0,0,.018-.217A1.184,1.184,0,0,0,117.727,651.383Zm-.247-3.543-.168.518h.337Zm-.709,3.764a.234.234,0,0,0-.173-.063.285.285,0,0,0-.12.026.207.207,0,0,0-.092.077.215.215,0,0,0-.037.125.28.28,0,0,0,.063.184.246.246,0,0,0,.192.072.226.226,0,0,0,.166-.061.235.235,0,0,0,.063-.175A.253.253,0,0,0,116.771,651.6Zm-.941-.359a.234.234,0,0,0-.19-.077.225.225,0,0,0-.166.063.23.23,0,0,0-.063.175.241.241,0,0,0,.063.184.224.224,0,0,0,.171.066.284.284,0,0,0,.12-.026.219.219,0,0,0,.094-.079.209.209,0,0,0,.035-.125A.259.259,0,0,0,115.831,651.245Zm-.908,0a.24.24,0,0,0-.19-.077.23.23,0,0,0-.168.063.239.239,0,0,0-.063.175.25.25,0,0,0,.063.184.226.226,0,0,0,.173.066.292.292,0,0,0,.12-.026.227.227,0,0,0,.092-.079.21.21,0,0,0,.037-.125A.27.27,0,0,0,114.923,651.245Zm-3.99,0a.234.234,0,0,0-.19-.077.225.225,0,0,0-.166.063.23.23,0,0,0-.063.175.241.241,0,0,0,.063.184.224.224,0,0,0,.171.066.284.284,0,0,0,.12-.026.22.22,0,0,0,.094-.079.209.209,0,0,0,.035-.125A.26.26,0,0,0,110.933,651.245Zm-.908,0a.241.241,0,0,0-.192-.077.228.228,0,0,0-.166.063.239.239,0,0,0-.063.175.25.25,0,0,0,.063.184.224.224,0,0,0,.171.066.294.294,0,0,0,.122-.026.227.227,0,0,0,.092-.079.21.21,0,0,0,.037-.125A.27.27,0,0,0,110.026,651.245Zm-1.686.14a.35.35,0,0,0-.133-.142.37.37,0,0,0-.195-.05.364.364,0,0,0-.195.05.355.355,0,0,0-.136.142.521.521,0,0,0,0,.438.346.346,0,0,0,.136.144.385.385,0,0,0,.195.05.391.391,0,0,0,.195-.05.369.369,0,0,0,.133-.144.521.521,0,0,0,0-.438Zm7.492-.14a.234.234,0,0,0-.19-.077.225.225,0,0,0-.166.063.23.23,0,0,0-.063.175.241.241,0,0,0,.063.184.224.224,0,0,0,.171.066.284.284,0,0,0,.12-.026.219.219,0,0,0,.094-.079.209.209,0,0,0,.035-.125A.259.259,0,0,0,115.831,651.245Zm-7.492.14a.35.35,0,0,0-.133-.142.37.37,0,0,0-.195-.05.364.364,0,0,0-.195.05.355.355,0,0,0-.136.142.521.521,0,0,0,0,.438.346.346,0,0,0,.136.144.385.385,0,0,0,.195.05.391.391,0,0,0,.195-.05.369.369,0,0,0,.133-.144.521.521,0,0,0,0-.438Zm1.686-.14a.241.241,0,0,0-.192-.077.228.228,0,0,0-.166.063.239.239,0,0,0-.063.175.25.25,0,0,0,.063.184.224.224,0,0,0,.171.066.294.294,0,0,0,.122-.026.227.227,0,0,0,.092-.079.21.21,0,0,0,.037-.125A.27.27,0,0,0,110.026,651.245Zm.908,0a.234.234,0,0,0-.19-.077.225.225,0,0,0-.166.063.23.23,0,0,0-.063.175.241.241,0,0,0,.063.184.224.224,0,0,0,.171.066.284.284,0,0,0,.12-.026.22.22,0,0,0,.094-.079.209.209,0,0,0,.035-.125A.26.26,0,0,0,110.933,651.245Zm3.99,0a.24.24,0,0,0-.19-.077.23.23,0,0,0-.168.063.239.239,0,0,0-.063.175.25.25,0,0,0,.063.184.226.226,0,0,0,.173.066.292.292,0,0,0,.12-.026.227.227,0,0,0,.092-.079.21.21,0,0,0,.037-.125A.27.27,0,0,0,114.923,651.245Zm1.848.359a.234.234,0,0,0-.173-.063.285.285,0,0,0-.12.026.207.207,0,0,0-.092.077.215.215,0,0,0-.037.125.28.28,0,0,0,.063.184.246.246,0,0,0,.192.072.226.226,0,0,0,.166-.061.235.235,0,0,0,.063-.175A.253.253,0,0,0,116.771,651.6Zm.709-3.764-.168.518h.337Zm.247,3.543a.279.279,0,0,0-.072-.138.2.2,0,0,0-.151-.052.2.2,0,0,0-.149.052.279.279,0,0,0-.072.138,1.183,1.183,0,0,0-.018.217,1.2,1.2,0,0,0,.018.217.277.277,0,0,0,.072.14.2.2,0,0,0,.149.052.2.2,0,0,0,.151-.052.277.277,0,0,0,.072-.14,1.2,1.2,0,0,0,.018-.217A1.184,1.184,0,0,0,117.727,651.383Zm1.84,0a.279.279,0,0,0-.072-.138.2.2,0,0,0-.151-.052.2.2,0,0,0-.149.052.279.279,0,0,0-.072.138,1.181,1.181,0,0,0-.018.217,1.2,1.2,0,0,0,.018.217.276.276,0,0,0,.072.14.2.2,0,0,0,.149.052.2.2,0,0,0,.151-.052.276.276,0,0,0,.072-.14,1.2,1.2,0,0,0,.018-.217A1.184,1.184,0,0,0,119.567,651.383Zm0,0a.279.279,0,0,0-.072-.138.2.2,0,0,0-.151-.052.2.2,0,0,0-.149.052.279.279,0,0,0-.072.138,1.181,1.181,0,0,0-.018.217,1.2,1.2,0,0,0,.018.217.276.276,0,0,0,.072.14.2.2,0,0,0,.149.052.2.2,0,0,0,.151-.052.276.276,0,0,0,.072-.14,1.2,1.2,0,0,0,.018-.217A1.184,1.184,0,0,0,119.567,651.383Zm-1.84,0a.279.279,0,0,0-.072-.138.2.2,0,0,0-.151-.052.2.2,0,0,0-.149.052.279.279,0,0,0-.072.138,1.183,1.183,0,0,0-.018.217,1.2,1.2,0,0,0,.018.217.277.277,0,0,0,.072.14.2.2,0,0,0,.149.052.2.2,0,0,0,.151-.052.277.277,0,0,0,.072-.14,1.2,1.2,0,0,0,.018-.217A1.184,1.184,0,0,0,117.727,651.383Zm-.247-3.543-.168.518h.337Zm-.709,3.764a.234.234,0,0,0-.173-.063.285.285,0,0,0-.12.026.207.207,0,0,0-.092.077.215.215,0,0,0-.037.125.28.28,0,0,0,.063.184.246.246,0,0,0,.192.072.226.226,0,0,0,.166-.061.235.235,0,0,0,.063-.175A.253.253,0,0,0,116.771,651.6Zm-.941-.359a.234.234,0,0,0-.19-.077.225.225,0,0,0-.166.063.23.23,0,0,0-.063.175.241.241,0,0,0,.063.184.224.224,0,0,0,.171.066.284.284,0,0,0,.12-.026.219.219,0,0,0,.094-.079.209.209,0,0,0,.035-.125A.259.259,0,0,0,115.831,651.245Zm-.908,0a.24.24,0,0,0-.19-.077.23.23,0,0,0-.168.063.239.239,0,0,0-.063.175.25.25,0,0,0,.063.184.226.226,0,0,0,.173.066.292.292,0,0,0,.12-.026.227.227,0,0,0,.092-.079.21.21,0,0,0,.037-.125A.27.27,0,0,0,114.923,651.245Zm-3.99,0a.234.234,0,0,0-.19-.077.225.225,0,0,0-.166.063.23.23,0,0,0-.063.175.241.241,0,0,0,.063.184.224.224,0,0,0,.171.066.284.284,0,0,0,.12-.026.22.22,0,0,0,.094-.079.209.209,0,0,0,.035-.125A.26.26,0,0,0,110.933,651.245Zm-.908,0a.241.241,0,0,0-.192-.077.228.228,0,0,0-.166.063.239.239,0,0,0-.063.175.25.25,0,0,0,.063.184.224.224,0,0,0,.171.066.294.294,0,0,0,.122-.026.227.227,0,0,0,.092-.079.21.21,0,0,0,.037-.125A.27.27,0,0,0,110.026,651.245Zm-1.686.14a.35.35,0,0,0-.133-.142.37.37,0,0,0-.195-.05.364.364,0,0,0-.195.05.355.355,0,0,0-.136.142.521.521,0,0,0,0,.438.346.346,0,0,0,.136.144.385.385,0,0,0,.195.05.391.391,0,0,0,.195-.05.369.369,0,0,0,.133-.144.521.521,0,0,0,0-.438Zm7.492-.14a.234.234,0,0,0-.19-.077.225.225,0,0,0-.166.063.23.23,0,0,0-.063.175.241.241,0,0,0,.063.184.224.224,0,0,0,.171.066.284.284,0,0,0,.12-.026.219.219,0,0,0,.094-.079.209.209,0,0,0,.035-.125A.259.259,0,0,0,115.831,651.245Zm-7.492.14a.35.35,0,0,0-.133-.142.37.37,0,0,0-.195-.05.364.364,0,0,0-.195.05.355.355,0,0,0-.136.142.521.521,0,0,0,0,.438.346.346,0,0,0,.136.144.385.385,0,0,0,.195.05.391.391,0,0,0,.195-.05.369.369,0,0,0,.133-.144.521.521,0,0,0,0-.438Zm1.686-.14a.241.241,0,0,0-.192-.077.228.228,0,0,0-.166.063.239.239,0,0,0-.063.175.25.25,0,0,0,.063.184.224.224,0,0,0,.171.066.294.294,0,0,0,.122-.026.227.227,0,0,0,.092-.079.21.21,0,0,0,.037-.125A.27.27,0,0,0,110.026,651.245Zm.908,0a.234.234,0,0,0-.19-.077.225.225,0,0,0-.166.063.23.23,0,0,0-.063.175.241.241,0,0,0,.063.184.224.224,0,0,0,.171.066.284.284,0,0,0,.12-.026.22.22,0,0,0,.094-.079.209.209,0,0,0,.035-.125A.26.26,0,0,0,110.933,651.245Zm3.99,0a.24.24,0,0,0-.19-.077.23.23,0,0,0-.168.063.239.239,0,0,0-.063.175.25.25,0,0,0,.063.184.226.226,0,0,0,.173.066.292.292,0,0,0,.12-.026.227.227,0,0,0,.092-.079.21.21,0,0,0,.037-.125A.27.27,0,0,0,114.923,651.245Zm1.848.359a.234.234,0,0,0-.173-.063.285.285,0,0,0-.12.026.207.207,0,0,0-.092.077.215.215,0,0,0-.037.125.28.28,0,0,0,.063.184.246.246,0,0,0,.192.072.226.226,0,0,0,.166-.061.235.235,0,0,0,.063-.175A.253.253,0,0,0,116.771,651.6Zm.709-3.764-.168.518h.337Zm.247,3.543a.279.279,0,0,0-.072-.138.2.2,0,0,0-.151-.052.2.2,0,0,0-.149.052.279.279,0,0,0-.072.138,1.183,1.183,0,0,0-.018.217,1.2,1.2,0,0,0,.018.217.277.277,0,0,0,.072.14.2.2,0,0,0,.149.052.2.2,0,0,0,.151-.052.277.277,0,0,0,.072-.14,1.2,1.2,0,0,0,.018-.217A1.184,1.184,0,0,0,117.727,651.383Zm0,0a.279.279,0,0,0-.072-.138.2.2,0,0,0-.151-.052.2.2,0,0,0-.149.052.279.279,0,0,0-.072.138,1.183,1.183,0,0,0-.018.217,1.2,1.2,0,0,0,.018.217.277.277,0,0,0,.072.14.2.2,0,0,0,.149.052.2.2,0,0,0,.151-.052.277.277,0,0,0,.072-.14,1.2,1.2,0,0,0,.018-.217A1.184,1.184,0,0,0,117.727,651.383Zm-.247-3.543-.168.518h.337Zm-.709,3.764a.234.234,0,0,0-.173-.063.285.285,0,0,0-.12.026.207.207,0,0,0-.092.077.215.215,0,0,0-.037.125.28.28,0,0,0,.063.184.246.246,0,0,0,.192.072.226.226,0,0,0,.166-.061.235.235,0,0,0,.063-.175A.253.253,0,0,0,116.771,651.6Zm-.941-.359a.234.234,0,0,0-.19-.077.225.225,0,0,0-.166.063.23.23,0,0,0-.063.175.241.241,0,0,0,.063.184.224.224,0,0,0,.171.066.284.284,0,0,0,.12-.026.219.219,0,0,0,.094-.079.209.209,0,0,0,.035-.125A.259.259,0,0,0,115.831,651.245Zm-.908,0a.24.24,0,0,0-.19-.077.23.23,0,0,0-.168.063.239.239,0,0,0-.063.175.25.25,0,0,0,.063.184.226.226,0,0,0,.173.066.292.292,0,0,0,.12-.026.227.227,0,0,0,.092-.079.21.21,0,0,0,.037-.125A.27.27,0,0,0,114.923,651.245Zm-3.99,0a.234.234,0,0,0-.19-.077.225.225,0,0,0-.166.063.23.23,0,0,0-.063.175.241.241,0,0,0,.063.184.224.224,0,0,0,.171.066.284.284,0,0,0,.12-.026.22.22,0,0,0,.094-.079.209.209,0,0,0,.035-.125A.26.26,0,0,0,110.933,651.245Zm-.908,0a.241.241,0,0,0-.192-.077.228.228,0,0,0-.166.063.239.239,0,0,0-.063.175.25.25,0,0,0,.063.184.224.224,0,0,0,.171.066.294.294,0,0,0,.122-.026.227.227,0,0,0,.092-.079.21.21,0,0,0,.037-.125A.27.27,0,0,0,110.026,651.245Zm-1.686.14a.35.35,0,0,0-.133-.142.37.37,0,0,0-.195-.05.364.364,0,0,0-.195.05.355.355,0,0,0-.136.142.521.521,0,0,0,0,.438.346.346,0,0,0,.136.144.385.385,0,0,0,.195.05.391.391,0,0,0,.195-.05.369.369,0,0,0,.133-.144.521.521,0,0,0,0-.438Zm7.492-.14a.234.234,0,0,0-.19-.077.225.225,0,0,0-.166.063.23.23,0,0,0-.063.175.241.241,0,0,0,.063.184.224.224,0,0,0,.171.066.284.284,0,0,0,.12-.026.219.219,0,0,0,.094-.079.209.209,0,0,0,.035-.125A.259.259,0,0,0,115.831,651.245Zm-7.492.14a.35.35,0,0,0-.133-.142.37.37,0,0,0-.195-.05.364.364,0,0,0-.195.05.355.355,0,0,0-.136.142.521.521,0,0,0,0,.438.346.346,0,0,0,.136.144.385.385,0,0,0,.195.05.391.391,0,0,0,.195-.05.369.369,0,0,0,.133-.144.521.521,0,0,0,0-.438Zm1.686-.14a.241.241,0,0,0-.192-.077.228.228,0,0,0-.166.063.239.239,0,0,0-.063.175.25.25,0,0,0,.063.184.224.224,0,0,0,.171.066.294.294,0,0,0,.122-.026.227.227,0,0,0,.092-.079.21.21,0,0,0,.037-.125A.27.27,0,0,0,110.026,651.245Zm.908,0a.234.234,0,0,0-.19-.077.225.225,0,0,0-.166.063.23.23,0,0,0-.063.175.241.241,0,0,0,.063.184.224.224,0,0,0,.171.066.284.284,0,0,0,.12-.026.22.22,0,0,0,.094-.079.209.209,0,0,0,.035-.125A.26.26,0,0,0,110.933,651.245Zm3.99,0a.24.24,0,0,0-.19-.077.23.23,0,0,0-.168.063.239.239,0,0,0-.063.175.25.25,0,0,0,.063.184.226.226,0,0,0,.173.066.292.292,0,0,0,.12-.026.227.227,0,0,0,.092-.079.21.21,0,0,0,.037-.125A.27.27,0,0,0,114.923,651.245Zm1.848.359a.234.234,0,0,0-.173-.063.285.285,0,0,0-.12.026.207.207,0,0,0-.092.077.215.215,0,0,0-.037.125.28.28,0,0,0,.063.184.246.246,0,0,0,.192.072.226.226,0,0,0,.166-.061.235.235,0,0,0,.063-.175A.253.253,0,0,0,116.771,651.6Zm.709-3.764-.168.518h.337Zm.247,3.543a.279.279,0,0,0-.072-.138.2.2,0,0,0-.151-.052.2.2,0,0,0-.149.052.279.279,0,0,0-.072.138,1.183,1.183,0,0,0-.018.217,1.2,1.2,0,0,0,.018.217.277.277,0,0,0,.072.14.2.2,0,0,0,.149.052.2.2,0,0,0,.151-.052.277.277,0,0,0,.072-.14,1.2,1.2,0,0,0,.018-.217A1.184,1.184,0,0,0,117.727,651.383Zm0,0a.279.279,0,0,0-.072-.138.2.2,0,0,0-.151-.052.2.2,0,0,0-.149.052.279.279,0,0,0-.072.138,1.183,1.183,0,0,0-.018.217,1.2,1.2,0,0,0,.018.217.277.277,0,0,0,.072.14.2.2,0,0,0,.149.052.2.2,0,0,0,.151-.052.277.277,0,0,0,.072-.14,1.2,1.2,0,0,0,.018-.217A1.184,1.184,0,0,0,117.727,651.383Zm-.247-3.543-.168.518h.337Zm-.709,3.764a.234.234,0,0,0-.173-.063.285.285,0,0,0-.12.026.207.207,0,0,0-.092.077.215.215,0,0,0-.037.125.28.28,0,0,0,.063.184.246.246,0,0,0,.192.072.226.226,0,0,0,.166-.061.235.235,0,0,0,.063-.175A.253.253,0,0,0,116.771,651.6Zm-.941-.359a.234.234,0,0,0-.19-.077.225.225,0,0,0-.166.063.23.23,0,0,0-.063.175.241.241,0,0,0,.063.184.224.224,0,0,0,.171.066.284.284,0,0,0,.12-.026.219.219,0,0,0,.094-.079.209.209,0,0,0,.035-.125A.259.259,0,0,0,115.831,651.245Zm-.908,0a.24.24,0,0,0-.19-.077.23.23,0,0,0-.168.063.239.239,0,0,0-.063.175.25.25,0,0,0,.063.184.226.226,0,0,0,.173.066.292.292,0,0,0,.12-.026.227.227,0,0,0,.092-.079.21.21,0,0,0,.037-.125A.27.27,0,0,0,114.923,651.245Zm-3.99,0a.234.234,0,0,0-.19-.077.225.225,0,0,0-.166.063.23.23,0,0,0-.063.175.241.241,0,0,0,.063.184.224.224,0,0,0,.171.066.284.284,0,0,0,.12-.026.22.22,0,0,0,.094-.079.209.209,0,0,0,.035-.125A.26.26,0,0,0,110.933,651.245Zm-.908,0a.241.241,0,0,0-.192-.077.228.228,0,0,0-.166.063.239.239,0,0,0-.063.175.25.25,0,0,0,.063.184.224.224,0,0,0,.171.066.294.294,0,0,0,.122-.026.227.227,0,0,0,.092-.079.21.21,0,0,0,.037-.125A.27.27,0,0,0,110.026,651.245Zm-1.686.14a.35.35,0,0,0-.133-.142.37.37,0,0,0-.195-.05.364.364,0,0,0-.195.05.355.355,0,0,0-.136.142.521.521,0,0,0,0,.438.346.346,0,0,0,.136.144.385.385,0,0,0,.195.05.391.391,0,0,0,.195-.05.369.369,0,0,0,.133-.144.521.521,0,0,0,0-.438Zm7.492-.14a.234.234,0,0,0-.19-.077.225.225,0,0,0-.166.063.23.23,0,0,0-.063.175.241.241,0,0,0,.063.184.224.224,0,0,0,.171.066.284.284,0,0,0,.12-.026.219.219,0,0,0,.094-.079.209.209,0,0,0,.035-.125A.259.259,0,0,0,115.831,651.245Zm-7.492.14a.35.35,0,0,0-.133-.142.37.37,0,0,0-.195-.05.364.364,0,0,0-.195.05.355.355,0,0,0-.136.142.521.521,0,0,0,0,.438.346.346,0,0,0,.136.144.385.385,0,0,0,.195.05.391.391,0,0,0,.195-.05.369.369,0,0,0,.133-.144.521.521,0,0,0,0-.438Zm1.686-.14a.241.241,0,0,0-.192-.077.228.228,0,0,0-.166.063.239.239,0,0,0-.063.175.25.25,0,0,0,.063.184.224.224,0,0,0,.171.066.294.294,0,0,0,.122-.026.227.227,0,0,0,.092-.079.21.21,0,0,0,.037-.125A.27.27,0,0,0,110.026,651.245Zm.908,0a.234.234,0,0,0-.19-.077.225.225,0,0,0-.166.063.23.23,0,0,0-.063.175.241.241,0,0,0,.063.184.224.224,0,0,0,.171.066.284.284,0,0,0,.12-.026.22.22,0,0,0,.094-.079.209.209,0,0,0,.035-.125A.26.26,0,0,0,110.933,651.245Zm3.99,0a.24.24,0,0,0-.19-.077.23.23,0,0,0-.168.063.239.239,0,0,0-.063.175.25.25,0,0,0,.063.184.226.226,0,0,0,.173.066.292.292,0,0,0,.12-.026.227.227,0,0,0,.092-.079.21.21,0,0,0,.037-.125A.27.27,0,0,0,114.923,651.245Zm1.848.359a.234.234,0,0,0-.173-.063.285.285,0,0,0-.12.026.207.207,0,0,0-.092.077.215.215,0,0,0-.037.125.28.28,0,0,0,.063.184.246.246,0,0,0,.192.072.226.226,0,0,0,.166-.061.235.235,0,0,0,.063-.175A.253.253,0,0,0,116.771,651.6Zm.709-3.764-.168.518h.337Zm0,0-.168.518h.337Zm-.709,3.764a.234.234,0,0,0-.173-.063.285.285,0,0,0-.12.026.207.207,0,0,0-.092.077.215.215,0,0,0-.037.125.28.28,0,0,0,.063.184.246.246,0,0,0,.192.072.226.226,0,0,0,.166-.061.235.235,0,0,0,.063-.175A.253.253,0,0,0,116.771,651.6Zm-.941-.359a.234.234,0,0,0-.19-.077.225.225,0,0,0-.166.063.23.23,0,0,0-.063.175.241.241,0,0,0,.063.184.224.224,0,0,0,.171.066.284.284,0,0,0,.12-.026.219.219,0,0,0,.094-.079.209.209,0,0,0,.035-.125A.259.259,0,0,0,115.831,651.245Zm-.908,0a.24.24,0,0,0-.19-.077.23.23,0,0,0-.168.063.239.239,0,0,0-.063.175.25.25,0,0,0,.063.184.226.226,0,0,0,.173.066.292.292,0,0,0,.12-.026.227.227,0,0,0,.092-.079.21.21,0,0,0,.037-.125A.27.27,0,0,0,114.923,651.245Zm-3.99,0a.234.234,0,0,0-.19-.077.225.225,0,0,0-.166.063.23.23,0,0,0-.063.175.241.241,0,0,0,.063.184.224.224,0,0,0,.171.066.284.284,0,0,0,.12-.026.22.22,0,0,0,.094-.079.209.209,0,0,0,.035-.125A.26.26,0,0,0,110.933,651.245Zm-.908,0a.241.241,0,0,0-.192-.077.228.228,0,0,0-.166.063.239.239,0,0,0-.063.175.25.25,0,0,0,.063.184.224.224,0,0,0,.171.066.294.294,0,0,0,.122-.026.227.227,0,0,0,.092-.079.21.21,0,0,0,.037-.125A.27.27,0,0,0,110.026,651.245Zm-1.686.14a.35.35,0,0,0-.133-.142.37.37,0,0,0-.195-.05.364.364,0,0,0-.195.05.355.355,0,0,0-.136.142.521.521,0,0,0,0,.438.346.346,0,0,0,.136.144.385.385,0,0,0,.195.05.391.391,0,0,0,.195-.05.369.369,0,0,0,.133-.144.521.521,0,0,0,0-.438Zm0,0a.35.35,0,0,0-.133-.142.37.37,0,0,0-.195-.05.364.364,0,0,0-.195.05.355.355,0,0,0-.136.142.521.521,0,0,0,0,.438.346.346,0,0,0,.136.144.385.385,0,0,0,.195.05.391.391,0,0,0,.195-.05.369.369,0,0,0,.133-.144.521.521,0,0,0,0-.438Zm1.686-.14a.241.241,0,0,0-.192-.077.228.228,0,0,0-.166.063.239.239,0,0,0-.063.175.25.25,0,0,0,.063.184.224.224,0,0,0,.171.066.294.294,0,0,0,.122-.026.227.227,0,0,0,.092-.079.21.21,0,0,0,.037-.125A.27.27,0,0,0,110.026,651.245Zm.908,0a.234.234,0,0,0-.19-.077.225.225,0,0,0-.166.063.23.23,0,0,0-.063.175.241.241,0,0,0,.063.184.224.224,0,0,0,.171.066.284.284,0,0,0,.12-.026.22.22,0,0,0,.094-.079.209.209,0,0,0,.035-.125A.26.26,0,0,0,110.933,651.245Zm3.99,0a.24.24,0,0,0-.19-.077.23.23,0,0,0-.168.063.239.239,0,0,0-.063.175.25.25,0,0,0,.063.184.226.226,0,0,0,.173.066.292.292,0,0,0,.12-.026.227.227,0,0,0,.092-.079.21.21,0,0,0,.037-.125A.27.27,0,0,0,114.923,651.245Zm2.557-3.406-.168.518h.337Zm0,0-.168.518h.337Zm-2.557,3.406a.24.24,0,0,0-.19-.077.23.23,0,0,0-.168.063.239.239,0,0,0-.063.175.25.25,0,0,0,.063.184.226.226,0,0,0,.173.066.292.292,0,0,0,.12-.026.227.227,0,0,0,.092-.079.21.21,0,0,0,.037-.125A.27.27,0,0,0,114.923,651.245Zm-3.99,0a.234.234,0,0,0-.19-.077.225.225,0,0,0-.166.063.23.23,0,0,0-.063.175.241.241,0,0,0,.063.184.224.224,0,0,0,.171.066.284.284,0,0,0,.12-.026.22.22,0,0,0,.094-.079.209.209,0,0,0,.035-.125A.26.26,0,0,0,110.933,651.245Zm-.908,0a.241.241,0,0,0-.192-.077.228.228,0,0,0-.166.063.239.239,0,0,0-.063.175.25.25,0,0,0,.063.184.224.224,0,0,0,.171.066.294.294,0,0,0,.122-.026.227.227,0,0,0,.092-.079.21.21,0,0,0,.037-.125A.27.27,0,0,0,110.026,651.245Zm-1.686.14a.35.35,0,0,0-.133-.142.37.37,0,0,0-.195-.05.364.364,0,0,0-.195.05.355.355,0,0,0-.136.142.521.521,0,0,0,0,.438.346.346,0,0,0,.136.144.385.385,0,0,0,.195.05.391.391,0,0,0,.195-.05.369.369,0,0,0,.133-.144.521.521,0,0,0,0-.438Zm0,0a.35.35,0,0,0-.133-.142.37.37,0,0,0-.195-.05.364.364,0,0,0-.195.05.355.355,0,0,0-.136.142.521.521,0,0,0,0,.438.346.346,0,0,0,.136.144.385.385,0,0,0,.195.05.391.391,0,0,0,.195-.05.369.369,0,0,0,.133-.144.521.521,0,0,0,0-.438Zm1.686-.14a.241.241,0,0,0-.192-.077.228.228,0,0,0-.166.063.239.239,0,0,0-.063.175.25.25,0,0,0,.063.184.224.224,0,0,0,.171.066.294.294,0,0,0,.122-.026.227.227,0,0,0,.092-.079.21.21,0,0,0,.037-.125A.27.27,0,0,0,110.026,651.245Zm.908,0a.234.234,0,0,0-.19-.077.225.225,0,0,0-.166.063.23.23,0,0,0-.063.175.241.241,0,0,0,.063.184.224.224,0,0,0,.171.066.284.284,0,0,0,.12-.026.22.22,0,0,0,.094-.079.209.209,0,0,0,.035-.125A.26.26,0,0,0,110.933,651.245Zm6.547-3.406-.168.518h.337Zm0,0-.168.518h.337Zm-6.547,3.406a.234.234,0,0,0-.19-.077.225.225,0,0,0-.166.063.23.23,0,0,0-.063.175.241.241,0,0,0,.063.184.224.224,0,0,0,.171.066.284.284,0,0,0,.12-.026.22.22,0,0,0,.094-.079.209.209,0,0,0,.035-.125A.26.26,0,0,0,110.933,651.245Zm-.908,0a.241.241,0,0,0-.192-.077.228.228,0,0,0-.166.063.239.239,0,0,0-.063.175.25.25,0,0,0,.063.184.224.224,0,0,0,.171.066.294.294,0,0,0,.122-.026.227.227,0,0,0,.092-.079.21.21,0,0,0,.037-.125A.27.27,0,0,0,110.026,651.245Zm-1.686.14a.35.35,0,0,0-.133-.142.37.37,0,0,0-.195-.05.364.364,0,0,0-.195.05.355.355,0,0,0-.136.142.521.521,0,0,0,0,.438.346.346,0,0,0,.136.144.385.385,0,0,0,.195.05.391.391,0,0,0,.195-.05.369.369,0,0,0,.133-.144.521.521,0,0,0,0-.438Zm0,0a.35.35,0,0,0-.133-.142.37.37,0,0,0-.195-.05.364.364,0,0,0-.195.05.355.355,0,0,0-.136.142.521.521,0,0,0,0,.438.346.346,0,0,0,.136.144.385.385,0,0,0,.195.05.391.391,0,0,0,.195-.05.369.369,0,0,0,.133-.144.521.521,0,0,0,0-.438Zm1.686-.14a.241.241,0,0,0-.192-.077.228.228,0,0,0-.166.063.239.239,0,0,0-.063.175.25.25,0,0,0,.063.184.224.224,0,0,0,.171.066.294.294,0,0,0,.122-.026.227.227,0,0,0,.092-.079.21.21,0,0,0,.037-.125A.27.27,0,0,0,110.026,651.245Zm.908,0a.234.234,0,0,0-.19-.077.225.225,0,0,0-.166.063.23.23,0,0,0-.063.175.241.241,0,0,0,.063.184.224.224,0,0,0,.171.066.284.284,0,0,0,.12-.026.22.22,0,0,0,.094-.079.209.209,0,0,0,.035-.125A.26.26,0,0,0,110.933,651.245Zm6.547-3.406-.168.518h.337Zm0,0-.168.518h.337Zm-6.547,3.406a.234.234,0,0,0-.19-.077.225.225,0,0,0-.166.063.23.23,0,0,0-.063.175.241.241,0,0,0,.063.184.224.224,0,0,0,.171.066.284.284,0,0,0,.12-.026.22.22,0,0,0,.094-.079.209.209,0,0,0,.035-.125A.26.26,0,0,0,110.933,651.245Zm-.908,0a.241.241,0,0,0-.192-.077.228.228,0,0,0-.166.063.239.239,0,0,0-.063.175.25.25,0,0,0,.063.184.224.224,0,0,0,.171.066.294.294,0,0,0,.122-.026.227.227,0,0,0,.092-.079.21.21,0,0,0,.037-.125A.27.27,0,0,0,110.026,651.245Zm-1.686.14a.35.35,0,0,0-.133-.142.37.37,0,0,0-.195-.05.364.364,0,0,0-.195.05.355.355,0,0,0-.136.142.521.521,0,0,0,0,.438.346.346,0,0,0,.136.144.385.385,0,0,0,.195.05.391.391,0,0,0,.195-.05.369.369,0,0,0,.133-.144.521.521,0,0,0,0-.438Zm0,0a.35.35,0,0,0-.133-.142.37.37,0,0,0-.195-.05.364.364,0,0,0-.195.05.355.355,0,0,0-.136.142.521.521,0,0,0,0,.438.346.346,0,0,0,.136.144.385.385,0,0,0,.195.05.391.391,0,0,0,.195-.05.369.369,0,0,0,.133-.144.521.521,0,0,0,0-.438Zm1.686-.14a.241.241,0,0,0-.192-.077.228.228,0,0,0-.166.063.239.239,0,0,0-.063.175.25.25,0,0,0,.063.184.224.224,0,0,0,.171.066.294.294,0,0,0,.122-.026.227.227,0,0,0,.092-.079.21.21,0,0,0,.037-.125A.27.27,0,0,0,110.026,651.245Zm7.454-3.406-.168.518h.337Zm0,0-.168.518h.337Zm-7.454,3.406a.241.241,0,0,0-.192-.077.228.228,0,0,0-.166.063.239.239,0,0,0-.063.175.25.25,0,0,0,.063.184.224.224,0,0,0,.171.066.294.294,0,0,0,.122-.026.227.227,0,0,0,.092-.079.21.21,0,0,0,.037-.125A.27.27,0,0,0,110.026,651.245Zm-1.686.14a.35.35,0,0,0-.133-.142.37.37,0,0,0-.195-.05.364.364,0,0,0-.195.05.355.355,0,0,0-.136.142.521.521,0,0,0,0,.438.346.346,0,0,0,.136.144.385.385,0,0,0,.195.05.391.391,0,0,0,.195-.05.369.369,0,0,0,.133-.144.521.521,0,0,0,0-.438Zm0,0a.35.35,0,0,0-.133-.142.37.37,0,0,0-.195-.05.364.364,0,0,0-.195.05.355.355,0,0,0-.136.142.521.521,0,0,0,0,.438.346.346,0,0,0,.136.144.385.385,0,0,0,.195.05.391.391,0,0,0,.195-.05.369.369,0,0,0,.133-.144.521.521,0,0,0,0-.438Zm9.141-3.546-.168.518h.337Zm0,0-.168.518h.337Zm-9.141,3.546a.35.35,0,0,0-.133-.142.37.37,0,0,0-.195-.05.364.364,0,0,0-.195.05.355.355,0,0,0-.136.142.521.521,0,0,0,0,.438.346.346,0,0,0,.136.144.385.385,0,0,0,.195.05.391.391,0,0,0,.195-.05.369.369,0,0,0,.133-.144.521.521,0,0,0,0-.438Zm9.141-3.546-.168.518h.337Zm0,0-.168.518h.337Zm0,0-.168.518h.337Zm0,0-.168.518h.337Zm0,0-.168.518h.337Zm0,0-.168.518h.337Zm0,0-.168.518h.337Zm0,0-.168.518h.337Zm0,0-.168.518h.337Zm0,0-.168.518h.337Zm0,0-.168.518h.337Zm0,0-.168.518h.337Zm0,0-.168.518h.337Zm0,0-.168.518h.337Z" transform="translate(-100.559 -639.492)" fill="#fff"/></g></g></svg>