<svg xmlns="http://www.w3.org/2000/svg" width="86.245" height="72.13" viewBox="0 0 86.245 72.13"><g transform="translate(-161.24 -106.951)"><g transform="translate(161.24 106.951)"><g transform="translate(0 0)"><g transform="translate(63.304 43.53)"><path d="M295.283,201.262v10.507a31.44,31.44,0,0,1-3.878,4.511V201.262H291.4v-.036c-.018-.078-1.9-1.641-3.353-2.828v-.656l1.754-.454a3.337,3.337,0,0,1,2.154.167c.3.132.62.257.937.358v1.372a30.536,30.536,0,0,1,2.386,2.041v.036Z" transform="translate(-288.045 -197.183)" fill="#3acce1" opacity="0.73"/></g><g transform="translate(0.538)"><path d="M163.011,110.469l9.171,21.518,6.7-4.586,3.884,5.644.7-9.521,8.112-4.943Z" transform="translate(-163.011 -110.469)" fill="#dde3e9"/><path d="M187.844,131.7l-8.189,5.6,6.7-4.585,3.884,5.644.7-9.521-12.926-7.7Z" transform="translate(-170.484 -115.784)" fill="#c5cfd6"/><path d="M190.771,131.173l-12.755-10.032,12.926,7.7Z" transform="translate(-170.484 -115.784)" fill="#afb9c5"/></g><g transform="translate(7.879 23.849)"><path d="M202.428,159.39c-.072-.419-.164-.837-.273-1.243l.629-.168c.113.425.209.862.285,1.3Z" transform="translate(-189.846 -157.978)" fill="#f2f2f2"/><path d="M182.622,177.935a5.38,5.38,0,0,1-2.614-.872l.36-.542a4.732,4.732,0,0,0,2.3.765Zm2.7-.531-.287-.584a6.552,6.552,0,0,0,1.947-1.534l.484.435A7.176,7.176,0,0,1,185.326,177.4Zm-7.13-2.42a5.367,5.367,0,0,1-.561-2.365c0-.066,0-.132,0-.2l.008-.141.649.048-.007.118c0,.059,0,.116,0,.173a4.708,4.708,0,0,0,.494,2.077Zm25.187-.149,0-.651c.848,0,1.72-.039,2.593-.1l.048.649C205.134,174.8,204.246,174.831,203.384,174.835Zm-2.64-.085-.416-.032c-.8-.067-1.526-.157-2.217-.277l.11-.642c.673.116,1.379.2,2.16.27l.407.031Zm7.9-.3-.088-.645c.837-.114,1.7-.257,2.565-.423l.123.639C210.369,174.193,209.494,174.338,208.644,174.454Zm-13.121-.658a12.607,12.607,0,0,1-2.132-.945c-.1-.057-.2-.117-.3-.178l.336-.558c.095.057.19.113.287.168a11.961,11.961,0,0,0,2.023.9Zm-6.5-.259-.565-.324a14.618,14.618,0,0,0,1.074-2.322l.612.221A15.329,15.329,0,0,1,189.027,173.536Zm24.791-.072-.153-.633c.814-.2,1.662-.422,2.518-.667l.179.626C215.5,173.038,214.641,173.264,213.818,173.464Zm5.059-1.442-.2-.619q1.241-.4,2.47-.84l.218.614Q220.127,171.616,218.876,172.022Zm-27.963-.858a18.019,18.019,0,0,0-1.938-1.275l-.218-.115.3-.579c.078.04.155.081.232.123a18.855,18.855,0,0,1,2.009,1.32Zm-11.705-.979-.455-.465a5.562,5.562,0,0,1,2.4-1.286l.219.614A5.069,5.069,0,0,0,179.208,170.186Zm7.171-1.271a10.343,10.343,0,0,0-2.256-.249l-.264,0-.016-.651a11.013,11.013,0,0,1,2.679.262Zm4.457-.384-.641-.114a15.112,15.112,0,0,0,.231-2.549l.651,0A15.749,15.749,0,0,1,190.836,168.531Z" transform="translate(-177.635 -161.907)" fill="#f2f2f2"/><path d="M269.479,173.546l-.231-.608q.608-.232,1.214-.469l.236.607Q270.091,173.312,269.479,173.546Z" transform="translate(-223.259 -165.194)" fill="#00c8b7"/></g><path d="M309.891,199.464a.651.651,0,0,1-.063-1.3,15.464,15.464,0,0,0,10.192-5.288.651.651,0,1,1,.981.855,16.753,16.753,0,0,1-11.047,5.729Z" transform="translate(-235.297 -151.398)" fill="#fff"/><g transform="translate(21.3 18.273)"><path d="M249.73,187.2,227.05,200.57,204.371,187.2a.13.13,0,0,1,0-.037c.019-.085,1.271-1.13,3.18-2.681l.052-.044c6.262-5.085,19.445-15.5,19.445-15.5s13.183,10.413,19.445,15.5c1.939,1.573,3.213,2.636,3.231,2.725A.129.129,0,0,1,249.73,187.2Z" transform="translate(-204.371 -157.86)" fill="#273de5"/><g transform="translate(3.736)"><path d="M240.085,146.871h-24.47a3.8,3.8,0,0,0-3.8,3.8v37a3.8,3.8,0,0,0,3.8,3.8h30.662a3.8,3.8,0,0,0,3.8-3.8V156.863Z" transform="translate(-211.814 -146.871)" fill="#fff"/><path d="M268.131,153.063a3.8,3.8,0,0,0,3.8,3.8h6.192l-9.992-9.992Z" transform="translate(-239.86 -146.871)" fill="#e6e8e8"/><rect width="11.15" height="11.15" rx="2.697" transform="translate(5.788 6.254)" fill="#3acce1"/><path d="M244.719,187.713H224.462a1.091,1.091,0,0,0-1.091,1.091h0a1.091,1.091,0,0,0,1.091,1.091h20.257a1.091,1.091,0,0,0,1.091-1.091h0A1.091,1.091,0,0,0,244.719,187.713Z" transform="translate(-217.569 -167.211)" fill="#d9dbdb"/><path d="M244.719,198.537H224.462a1.091,1.091,0,0,0-1.091,1.091h0a1.091,1.091,0,0,0,1.091,1.091h20.257a1.091,1.091,0,0,0,1.091-1.091h0A1.091,1.091,0,0,0,244.719,198.537Z" transform="translate(-217.569 -172.601)" fill="#d9dbdb"/><path d="M235.519,209.037H224.462a1.091,1.091,0,0,0-1.091,1.091h0a1.091,1.091,0,0,0,1.091,1.091h11.057a1.091,1.091,0,0,0,1.091-1.091h0A1.091,1.091,0,0,0,235.519,209.037Z" transform="translate(-217.569 -177.83)" fill="#d9dbdb"/></g><g transform="translate(0.003 29.335)"><path d="M249.735,205.309v21.758a2.771,2.771,0,0,1-2.764,2.763H207.132a2.764,2.764,0,0,1-2.756-2.763V205.309l22.679,13.372Z" transform="translate(-204.376 -205.309)" fill="#273de5"/><path d="M249.725,237.95l-14.6-14.6-7.316,4.314-7.319-4.315-14.6,14.6a2.739,2.739,0,0,0,1.994.866h39.839A2.75,2.75,0,0,0,249.725,237.95Z" transform="translate(-205.132 -214.294)" fill="#2b44ff"/></g></g><g transform="translate(58.996 17.672)"><path d="M291.71,145.741A13.682,13.682,0,0,0,279.5,158.307a13.529,13.529,0,0,0,2.39,8.729,3.3,3.3,0,0,1,.315,3.15l-1.077,2.592,4.4-1.141a3.317,3.317,0,0,1,2.155.167,13.625,13.625,0,1,0,4.028-26.062Z" transform="translate(-279.463 -145.673)" fill="#665eff"/><g transform="translate(6.495 7.877)"><path d="M299.869,174.791l.749-.748s-.595-1.4,1.9-3.765a4.573,4.573,0,0,0,1.7-3.883,3.892,3.892,0,0,0-3.413-3.413,4.573,4.573,0,0,0-3.883,1.7c-2.364,2.493-3.765,1.9-3.765,1.9l-.749.749Z" transform="translate(-292.402 -162.159)" fill="#fff"/><path d="M295.371,177.42a2.063,2.063,0,0,0,2.884,2.884Z" transform="translate(-293.682 -169.361)" fill="#fff"/><path d="M315.083,163.1l-.466.466a4.508,4.508,0,0,0-1.437-1.43l.47-.47a1.014,1.014,0,1,1,1.434,1.434Z" transform="translate(-302.749 -161.365)" fill="#fff"/></g><path d="M293.94,145.687a11.768,11.768,0,1,1-12.03,19.239,13.611,13.611,0,0,0,1.2,2.113,3.3,3.3,0,0,1,.315,3.15l-1.077,2.592,4.4-1.141a3.317,3.317,0,0,1,2.155.167,13.623,13.623,0,1,0,5.039-26.12Z" transform="translate(-280.682 -145.678)" fill="#483eff"/></g><path d="M163.254,122.771l2.975,6.826a.686.686,0,0,1-.357.9l-.106.046a.686.686,0,0,1-.9-.363l-2.868-6.872a.686.686,0,0,1,.395-.91h0A.686.686,0,0,1,163.254,122.771Z" transform="translate(-161.939 -116.39)" fill="#f2f2f2"/></g></g></g></svg>