<svg xmlns="http://www.w3.org/2000/svg" width="58.482" height="17.381" viewBox="0 0 58.482 17.381"><g transform="translate(-9)"><g transform="translate(0 0)"><path d="M2426.99-789.857c-.714,2.408-2.044,3.593-3.944,3.619-1.916.026-3.21-1.128-3.994-3.624-.833,0-1.7.03-2.556-.007a2.287,2.287,0,0,1-2.447-2.385c-.059-1.481-.049-2.967-.008-4.449a3.922,3.922,0,0,1,1.9-3.022,19.405,19.405,0,0,1,9.586-3.662,81.026,81.026,0,0,1,9.84-.166,6.563,6.563,0,0,1,4.92,2.287,15.746,15.746,0,0,0,9.109,4.973,22.615,22.615,0,0,1,3.053.972,2.03,2.03,0,0,1,1.389,1.983c.2,3.411.192,3.441-3.217,3.482-.322,0-.644,0-1.02,0a3.977,3.977,0,0,1-2.992,3.478,3.8,3.8,0,0,1-4.6-2.552c-.177-.542-.271-.95-1.013-.944C2436.344-789.84,2431.689-789.857,2426.99-789.857Zm13.848-8.559c-1.669-1.79-3.61-3.493-6.433-3.575-2.137-.062-4.276-.041-6.414-.039a11.192,11.192,0,0,0-1.24.14c.063.811.168,1.5.156,2.194-.014.8.334,1.066,1.1,1.08,1.769.032,3.536.168,5.3.192C2435.852-798.39,2438.39-798.416,2440.838-798.416Zm-15.588-.573c-.1-.851-.2-1.687-.33-2.759l-6.482,2.307.09.452Z" transform="translate(-2405.007 803.619)"/><g transform="translate(56.909 0.018)"><path d="M2637.828-785.2a5.215,5.215,0,0,0,.312,3.9A32.267,32.267,0,0,1,2640-777c.146.4-.1.936-.162,1.409-.447-.239-1.059-.367-1.306-.739a18.215,18.215,0,0,1-1.171-2.446,20.468,20.468,0,0,0-1.307-2.471,6.983,6.983,0,0,1-2.323,4.964c-.355.349-1.019.383-1.541.562.059-.509-.076-1.208.208-1.5,2.064-2.095,1.675-4.9,2.268-7.414a3.434,3.434,0,0,0-.011-1.8,6.752,6.752,0,0,0-.677,1.174c-.186.54-.161,1.16-.388,1.676-.151.343-.582.563-.887.838a3.246,3.246,0,0,1-.456-1.073,5.162,5.162,0,0,1,2.917-4.869c1.388-.791,2.656-.718,3.344.727a6.15,6.15,0,0,0,3.85,3.69c.192.057.273.491.406.75-.322.116-.727.419-.949.318C2640.47-783.808,2639.17-784.512,2637.828-785.2Z" transform="translate(-2632.19 792.93)" fill="#3acce1"/><path d="M2647.19-803.548a1.646,1.646,0,0,1,1.692,1.594,1.619,1.619,0,0,1-1.574,1.7,1.644,1.644,0,0,1-1.757-1.644A1.659,1.659,0,0,1,2647.19-803.548Z" transform="translate(-2642.066 803.548)" fill="#3acce1"/></g></g></g></svg>