<svg xmlns="http://www.w3.org/2000/svg" width="53.73" height="38.415" viewBox="0 0 53.73 38.415"><g transform="translate(-1047.874 -7386.507)"><g transform="translate(1047.874 7386.507)"><path d="M1814.479-1750.759h-18.268c-1.346,0-1.348,0-1.112-.882,1.092-4.056,2.2-8.11,3.274-12.168q2.623-9.89,5.218-19.784c.437-1.654.906-3.3,1.308-4.962.134-.552.617-.6,1.254-.594q7.229.009,14.458,0c.782,0,1.573.052,2.342-.013,1.032-.087,1.33.258,1.49.88,1.587,6.182,3.2,12.36,4.811,18.539q2.246,8.64,4.488,17.28c.442,1.7.441,1.7-2.071,1.7Zm-.961-28.533c0,.425.028.851-.008,1.275-.037.45.265.6.873.578.555-.017,1.151.059,1.138-.538-.019-.85.01-1.7-.021-2.551a.545.545,0,0,0-.316-.431c-.9-.324-1.666.024-1.666.726C1813.519-1779.919,1813.519-1779.605,1813.517-1779.292Zm0,24.7c0,.426.032.853-.01,1.276-.04.405.158.593.767.542.531-.044,1.258.16,1.245-.519-.016-.851.031-1.7-.037-2.552-.014-.176-.388-.456-.645-.486-1.21-.139-1.322-.047-1.32.8C1813.519-1755.221,1813.519-1754.908,1813.518-1754.594Zm.049-4.392c.306.015.5.031.691.033,1.26.016,1.26.015,1.261-.884q0-.837,0-1.673c0-1,0-1.006-1.423-.966a4.726,4.726,0,0,0-.53.073Zm-.049-28.114c0,1.073,0,2.075,0,3.076,0,.49.531.413.972.416.48,0,1.025.069,1.022-.457a21.146,21.146,0,0,1,.023-2.277c.068-.663-.3-.9-1.216-.8C1814.1-1787.12,1813.878-1787.119,1813.518-1787.1Zm.041,21.989a6.572,6.572,0,0,0,1.257-.02c.275-.058.656-.29.669-.456a18.02,18.02,0,0,0,0-2.61c-.011-.158-.358-.391-.608-.436a7.845,7.845,0,0,0-1.318-.02Zm-.041-8a11.02,11.02,0,0,1-.009,1.205c-.054.491.289.622.927.609.586-.011,1.114.006,1.09-.572-.033-.8-.028-1.607,0-2.411.014-.434-.239-.552-.86-.585-.95-.05-1.283.177-1.156.817A4.8,4.8,0,0,1,1813.518-1773.108Z" transform="translate(-1787.836 1789.174)"/><path d="M1771.269-1750.667h-3.708l13.636-38.191h1.862Z" transform="translate(-1767.561 1788.94)"/><path d="M1914.214-1788.905h1.864l13.654,38.251c-1.213,0-2.3.018-3.386-.019a.694.694,0,0,1-.457-.415q-5.691-18.387-11.352-36.779C1914.437-1788.194,1914.334-1788.521,1914.214-1788.905Z" transform="translate(-1876.001 1788.975)"/></g><g transform="translate(1062.469 7405.986)"><path d="M2636.432-786.186a3.924,3.924,0,0,0,.234,2.936,24.275,24.275,0,0,1,1.4,3.237c.11.3-.073.7-.122,1.06-.336-.18-.8-.276-.983-.556a13.691,13.691,0,0,1-.881-1.84,15.426,15.426,0,0,0-.983-1.859,5.252,5.252,0,0,1-1.748,3.735c-.267.262-.767.288-1.159.423.044-.383-.057-.909.156-1.125,1.553-1.576,1.261-3.687,1.707-5.579a2.579,2.579,0,0,0-.008-1.355,5.063,5.063,0,0,0-.51.884c-.14.406-.121.873-.292,1.261-.114.258-.438.424-.667.631a2.445,2.445,0,0,1-.343-.808,3.884,3.884,0,0,1,2.195-3.664c1.044-.595,2-.54,2.516.547a4.628,4.628,0,0,0,2.9,2.777c.145.043.206.37.305.565-.242.087-.547.315-.714.239C2638.42-785.139,2637.441-785.669,2636.432-786.186Z" transform="translate(-2632.19 792.002)" fill="#3acce1"/><path d="M2646.784-803.548a1.238,1.238,0,0,1,1.273,1.2,1.219,1.219,0,0,1-1.185,1.279,1.237,1.237,0,0,1-1.322-1.237A1.248,1.248,0,0,1,2646.784-803.548Z" transform="translate(-2642.929 803.548)" fill="#3acce1"/></g><path d="M2842.749-1830.891c-.676-.158-.8-.311-.751-1.05a.68.68,0,0,1,.692-.683c.843-.055.842-.055,1.1-.848.1-.305.189-.614.3-.914a2.07,2.07,0,0,1,1.988-1.423q2.47-.023,4.94,0a2.081,2.081,0,0,1,1.985,1.433c.178.49.337.988.479,1.49.059.211.159.289.367.262.079-.01.161,0,.241,0,1.053-.054,1.036.492.947,1.183-.057.445-.418.54-.8.537.051.727.125,1.428.143,2.13.024.95.007,1.9,0,2.852,0,.589-.229.839-.809.866a7.054,7.054,0,0,1-.923-.009.684.684,0,0,1-.725-.778c-.007-.268-.006-.535-.011-.8a.53.53,0,0,0-.035-.111h-6.732c0,.28,0,.569,0,.857-.006.558-.242.813-.8.844a8.3,8.3,0,0,1-.843,0c-.6-.028-.819-.256-.814-.851C2842.706-1827.562,2842.729-1829.215,2842.749-1830.891Zm5.792-.849c1.176,0,2.353-.005,3.529,0,.294,0,.395-.089.3-.381-.2-.582-.379-1.169-.572-1.752a.825.825,0,0,0-.846-.609c-1.591,0-3.182,0-4.772,0a.81.81,0,0,0-.844.6c-.192.582-.379,1.167-.584,1.745-.111.313-.012.4.3.4C2846.215-1831.748,2847.378-1831.74,2848.541-1831.74Zm-3.123,3.123c.173,0,.347,0,.52,0,.285,0,.579-.051.567-.408-.016-.488-.122-.814-.472-.864-.4-.056-.786-.144-1.181-.2a.4.4,0,0,0-.5.393c-.044.9-.082,1.133.9,1.082C2845.311-1828.619,2845.364-1828.617,2845.417-1828.617Zm6.256-.046v0h.32c.725,0,.767-.042.765-.771,0-.027,0-.053,0-.08-.006-.537-.168-.671-.685-.573-.235.045-.471.085-.708.119-.585.083-.728.234-.77.819-.021.291.1.465.4.48C2851.22-1828.654,2851.447-1828.663,2851.673-1828.663Z" transform="translate(-1780.334 9222.327)" fill="#3acce1"/></g></svg>