<svg xmlns="http://www.w3.org/2000/svg" width="58.482" height="17.381" viewBox="0 0 58.482 17.381"><g transform="translate(-9)"><g transform="translate(0 0)"><path d="M2450.624-637.857c-.715,2.408-2.044,3.593-3.944,3.619-1.916.026-3.209-1.128-3.995-3.624-.833,0-1.7.03-2.556-.007a2.287,2.287,0,0,1-2.447-2.385c-.059-1.481-.049-2.967-.008-4.449a3.922,3.922,0,0,1,1.9-3.022,19.4,19.4,0,0,1,9.586-3.662,81.049,81.049,0,0,1,9.841-.166,6.563,6.563,0,0,1,4.92,2.287,15.746,15.746,0,0,0,9.109,4.973,22.623,22.623,0,0,1,3.053.972,2.03,2.03,0,0,1,1.389,1.983c.2,3.411.192,3.441-3.217,3.482-.322,0-.644,0-1.02,0a3.977,3.977,0,0,1-2.992,3.478,3.8,3.8,0,0,1-4.6-2.552c-.177-.542-.271-.95-1.013-.944C2459.978-637.84,2455.323-637.857,2450.624-637.857Zm13.848-8.559c-1.669-1.79-3.61-3.493-6.433-3.575-2.137-.062-4.276-.041-6.415-.039a11.161,11.161,0,0,0-1.24.14c.063.811.168,1.5.156,2.194-.014.8.334,1.066,1.1,1.08,1.769.032,3.536.168,5.3.192C2459.485-646.39,2462.023-646.416,2464.472-646.416Zm-15.588-.573c-.1-.851-.2-1.687-.33-2.759l-6.482,2.307.09.452Z" transform="translate(-2428.64 651.619)"/><g transform="translate(56.909 0.018)"><path d="M2660.759-633.2a5.218,5.218,0,0,1-.312,3.9,32.3,32.3,0,0,0-1.86,4.3c-.146.4.1.936.163,1.409.447-.239,1.059-.367,1.306-.739a18.214,18.214,0,0,0,1.171-2.446,20.5,20.5,0,0,1,1.306-2.471,6.982,6.982,0,0,0,2.323,4.964c.355.349,1.019.383,1.541.562-.059-.509.076-1.208-.207-1.5-2.065-2.095-1.675-4.9-2.268-7.414a3.434,3.434,0,0,1,.011-1.8,6.754,6.754,0,0,1,.677,1.174c.186.54.161,1.16.388,1.676.151.343.582.563.887.838a3.244,3.244,0,0,0,.456-1.073,5.161,5.161,0,0,0-2.917-4.869c-1.388-.791-2.656-.718-3.344.727a6.149,6.149,0,0,1-3.849,3.69c-.192.057-.273.491-.406.75.321.116.728.419.95.317C2658.116-631.808,2659.417-632.512,2660.759-633.2Z" transform="translate(-2655.824 640.93)" fill="#3acce1"/><path d="M2671.916-651.548a1.646,1.646,0,0,0-1.692,1.594,1.619,1.619,0,0,0,1.574,1.7,1.644,1.644,0,0,0,1.757-1.644A1.659,1.659,0,0,0,2671.916-651.548Z" transform="translate(-2666.467 651.548)" fill="#3acce1"/></g></g></g></svg>