<svg xmlns="http://www.w3.org/2000/svg" width="86.716" height="21.452" viewBox="0 0 86.716 21.452"><g id="accident-site" transform="translate(0)"><path id="Path_2192" data-name="Path 2192" d="M-284.332,304.11s-.262,2.508-.327,3.087-2.567-.759-3.023-.893-3.064,4.413-3.064,4.413a12.737,12.737,0,0,1-2.65-1.008c-.658-.46-2.08-1.491-4.251-3.1-3.041-2.245-15.7-2.489-19.8-1.62a14.922,14.922,0,0,1-6.235.437c-1.808-.106-2.36,3.653-1.748,4.238-1.546-.11-1.583,1.219-1.974,2.443s1.113,2,1.822,2.48a25.082,25.082,0,0,0,3.805,1.385h0a4.262,4.262,0,0,1-.1-1.5,4.36,4.36,0,0,1,4.8-3.883,4.361,4.361,0,0,1,3.883,4.8,4.33,4.33,0,0,1-1.068,2.429l.948.235,15.423,3.189,3.35-.193,1.9.745s1.1-3.474,3.4-3.649,1.942,5.25,1.942,5.25,1.85.718,2.2.23.957-5.043.607-5.756-1.463-1.348-1.256-1.794-.469-1.979-.175-2.337-3.018-.446-3.018-.446-1.012-2.057-.833-2.48,1.891-3.681,2.245-3.557,3.3,1.564,3.515,1.2a35.662,35.662,0,0,0,.5-4.265Zm-19.849,6.285-10.168-2.213s2.213-3.575,11.4-2.075A11.585,11.585,0,0,1-304.181,310.4Zm9.35,2.075a39.4,39.4,0,0,0-7.7-1.44s.8-3.12.934-4.417c2.913.861,6.478,3.069,8.3,4.146s2.172.906,2.765,1.771C-290.875,313.768-292.288,313.446-294.832,312.47Z" transform="translate(327.466 -302.9)"/><path id="Path_2193" data-name="Path 2193" d="M-310.733,326.964a3.775,3.775,0,0,1-2.555-1.388,3.775,3.775,0,0,1-.825-2.789,3.789,3.789,0,0,1,3.775-3.4,3.915,3.915,0,0,1,.4.021,3.776,3.776,0,0,1,2.556,1.388,3.774,3.774,0,0,1,.826,2.789,3.791,3.791,0,0,1-3.776,3.4A3.917,3.917,0,0,1-310.733,326.964Zm-1.632-3.993a2.029,2.029,0,0,0,.444,1.5,2.029,2.029,0,0,0,1.373.746,2.127,2.127,0,0,0,.217.012,2.035,2.035,0,0,0,2.027-1.828,2.027,2.027,0,0,0-.444-1.5,2.028,2.028,0,0,0-1.373-.746,2.172,2.172,0,0,0-.217-.011A2.035,2.035,0,0,0-312.366,322.971Z" transform="translate(320.269 -311.147)" fill="#1a1718"/><path id="Path_2194" data-name="Path 2194" d="M-254.029,337.144c-.515-1.7.666-2.308,1.448-2.71a6.384,6.384,0,0,0,1.333-.844,2.982,2.982,0,0,1,1.94-.785,2.724,2.724,0,0,1,2.553,2.136,3.776,3.776,0,0,1-.287,2.895,3.773,3.773,0,0,1-2.249,1.844,3.8,3.8,0,0,1-1.1.164A3.777,3.777,0,0,1-254.029,337.144Zm3.929-2.221A7.961,7.961,0,0,1-251.777,336a3.419,3.419,0,0,0-.619.365.9.9,0,0,0,.051.271,2.055,2.055,0,0,0,1.952,1.45A2.036,2.036,0,0,0-249.8,338a2.028,2.028,0,0,0,1.208-.991,2.027,2.027,0,0,0,.154-1.555c-.081-.267-.327-.888-.87-.888A1.268,1.268,0,0,0-250.1,334.922Z" transform="translate(287.886 -318.392)" fill="#1a1718"/><g id="Group_150" data-name="Group 150" transform="translate(42.901)"><path id="Path_2195" data-name="Path 2195" d="M-232.147,301.48a35.71,35.71,0,0,0-.283,4.285c.147.4,3.3-.49,3.675-.542s1.462,3.457,1.561,3.905-1.27,2.287-1.27,2.287-3.278-.517-3.05-.109-.715,1.791-.6,2.267-1.088.9-1.561,1.536-.71,5.231-.449,5.77,2.209.174,2.209.174.629-5.4,2.864-4.809,2.68,4.206,2.68,4.206l2-.388,3.259.8,15.746-.332.975-.059a4.331,4.331,0,0,1-.608-2.583,4.361,4.361,0,0,1,4.691-4.013,4.361,4.361,0,0,1,4.013,4.691,4.272,4.272,0,0,1-.371,1.452h0a25.1,25.1,0,0,0,3.994-.67c.784-.346,2.4-.829,2.243-2.108s.043-2.589-1.5-2.761c.708-.463.848-4.26-.949-4.485a14.922,14.922,0,0,1-6.051-1.564c-3.869-1.6-16.364-3.662-19.763-2.006-2.427,1.184-4.013,1.939-4.743,2.272a12.731,12.731,0,0,1-2.789.509s-1.739-4.944-2.211-4.9-3.181.909-3.135.329.24-3.1.24-3.1Zm18.769,5.411c9.308.2,10.835,4.113,10.835,4.113l-10.4.328A11.585,11.585,0,0,1-213.378,306.891Zm-13.375,4.06c.741-.743,1.05-.513,3.041-1.239s5.9-2.251,8.916-2.568c-.1,1.3.116,4.513.116,4.513a39.37,39.37,0,0,0-7.836.016C-225.2,312.17-226.643,312.23-226.753,310.951Z" transform="translate(234.226 -301.48)"/><path id="Path_2196" data-name="Path 2196" d="M-166.389,337.154a3.79,3.79,0,0,1-3.094-4.032,3.776,3.776,0,0,1,1.319-2.592,3.778,3.778,0,0,1,2.766-.9,3.872,3.872,0,0,1,.4.052,3.79,3.79,0,0,1,3.094,4.032,3.776,3.776,0,0,1-1.319,2.592,3.775,3.775,0,0,1-2.765.9A3.87,3.87,0,0,1-166.389,337.154Zm1.069-5.743a2.127,2.127,0,0,0-.216-.028,2.028,2.028,0,0,0-1.486.484,2.03,2.03,0,0,0-.709,1.392,2.036,2.036,0,0,0,1.661,2.166,2.087,2.087,0,0,0,.216.028,2.029,2.029,0,0,0,1.486-.484,2.031,2.031,0,0,0,.709-1.393A2.035,2.035,0,0,0-165.32,331.411Z" transform="translate(199.279 -316.671)" fill="#1a1718"/><path id="Path_2197" data-name="Path 2197" d="M-227.5,338.705a3.786,3.786,0,0,1-1.054-.362,3.775,3.775,0,0,1-1.877-2.222,3.774,3.774,0,0,1,.245-2.9,2.724,2.724,0,0,1,2.9-1.637,2.98,2.98,0,0,1,1.765,1.125,6.377,6.377,0,0,0,1.157,1.072c.7.537,1.747,1.349.931,2.928A3.778,3.778,0,0,1-227.5,338.705Zm-.107-5.389c-.533-.1-.888.467-1.017.715a2.027,2.027,0,0,0-.131,1.557,2.027,2.027,0,0,0,1.008,1.194,2.038,2.038,0,0,0,.566.195A2.055,2.055,0,0,0-225,335.9a.887.887,0,0,0,.1-.257,3.4,3.4,0,0,0-.542-.471,7.963,7.963,0,0,1-1.454-1.363A1.267,1.267,0,0,0-227.612,333.316Z" transform="translate(232.278 -317.712)" fill="#1a1718"/></g></g></svg>