<svg id="Component_109_1" data-name="Component 109 – 1" xmlns="http://www.w3.org/2000/svg" width="72.033" height="47.878" viewBox="0 0 72.033 47.878">
  <g id="Group_195" data-name="Group 195" transform="translate(10.272)">
    <g id="Group_192" data-name="Group 192">
      <g id="Group_184" data-name="Group 184">
        <path id="Path_2242" data-name="Path 2242" d="M-394.986,748.4h-6.483l-27.638,47.878h61.759Z" transform="translate(429.107 -748.403)" fill="#262626"/>
      </g>
      <g id="Group_188" data-name="Group 188" transform="translate(27.821)">
        <g id="Group_185" data-name="Group 185" transform="translate(0 44.456)">
          <path id="Path_2243" data-name="Path 2243" d="M-315.989,922.8h-6.118q.1-1.711.2-3.422h5.726Z" transform="translate(322.107 -919.381)" fill="#eee"/>
        </g>
        <g id="Group_186" data-name="Group 186" transform="translate(0.531 9.284)">
          <path id="Path_2244" data-name="Path 2244" d="M-315.009,813.418h-5.056q.167-2.931.335-5.862h4.386Q-315.177,810.487-315.009,813.418Zm-.671-11.724h-3.715q.167-2.931.335-5.862h3.045Q-315.847,798.763-315.68,801.694Zm-.67-11.724h-2.374q.168-2.931.335-5.862h1.7Q-316.518,787.039-316.35,789.97Z" transform="translate(320.065 -784.108)" fill="#eee"/>
        </g>
        <g id="Group_187" data-name="Group 187" transform="translate(2.542)">
          <path id="Path_2245" data-name="Path 2245" d="M-311.3,751.825h-1.034l.2-3.422h.642Q-311.4,750.114-311.3,751.825Z" transform="translate(312.331 -748.403)" fill="#eee"/>
        </g>
      </g>
      <g id="Group_191" data-name="Group 191" transform="translate(1.921)">
        <g id="Group_189" data-name="Group 189">
          <path id="Path_2246" data-name="Path 2246" d="M-419.835,796.281h-1.882L-395.8,748.4h.2Z" transform="translate(421.717 -748.403)" fill="#eee"/>
        </g>
        <g id="Group_190" data-name="Group 190" transform="translate(31.8)">
          <path id="Path_2247" data-name="Path 2247" d="M-273.3,796.281h-1.882L-299.412,748.4h.2Z" transform="translate(299.412 -748.403)" fill="#eee"/>
        </g>
      </g>
    </g>
  </g>
  <g id="Group_160" data-name="Group 160" transform="matrix(-1, 0.017, -0.017, -1, 64.189, 35.511)">
    <path id="Path_2214" data-name="Path 2214" d="M12.331,12.767c-4.373-.245-7.173,2.881-7.4,8.3-.061.033-.123.092-.186.093q-1.282.017-2.566.02c-1.708,0-2.076-.246-2.167-2-.072-1.371.175-2.756.185-4.135A4.336,4.336,0,0,1,2.87,10.815,30.11,30.11,0,0,1,11.821,8.5a7.627,7.627,0,0,0,3.913-1.491C21.438,2.472,28.047.5,35.235.066c6.211-.377,11.9.816,16.787,4.91a11.931,11.931,0,0,0,5.031,2.231,36.682,36.682,0,0,1,4.066,1.268A2.63,2.63,0,0,1,63,11.046c.036,1.021.385,2.028.475,3.052.154,1.726.273,3.46.288,5.192a1.765,1.765,0,0,1-1.491,1.743,20.545,20.545,0,0,1-2.937.19,7.047,7.047,0,0,0-5.8-8.381A6.407,6.407,0,0,0,48.5,14.082a6.99,6.99,0,0,0-2.823,7.055H18.73A7.136,7.136,0,0,0,12.331,12.767ZM18.714,8.36a7.348,7.348,0,0,0,1.024.107c4.124-.152,8.249-.307,12.371-.5a1.048,1.048,0,0,0,.793-.581c.281-1.605.47-3.227.688-4.831C30.1,1.633,19.863,5.583,18.714,8.36Zm31.174-.735c-1.485-3.3-9.23-5.879-13.706-5.291L35.46,7.625Z" fill="#2e3094"/>
    <path id="Path_2215" data-name="Path 2215" d="M5.358,10.547a5.183,5.183,0,0,0,5.2-5.438A5.283,5.283,0,1,0,.006,5.557,5.236,5.236,0,0,0,5.358,10.547Z" transform="translate(6.672 14.512)"/>
    <path id="Path_2216" data-name="Path 2216" d="M0,5.4a5.194,5.194,0,0,0,5.354,5.178,5.171,5.171,0,0,0,5.2-5.333A5.072,5.072,0,0,0,5.482,0,5.23,5.23,0,0,0,0,5.4Z" transform="translate(47.171 14.334)"/>
    <path id="Path_2217" data-name="Path 2217" d="M3.35.048a2.925,2.925,0,0,0-.3-.039,2.831,2.831,0,0,0-.739,5.605,2.9,2.9,0,0,0,.3.039,2.831,2.831,0,0,0,3.043-2.6A2.823,2.823,0,0,0,3.35.048Z" transform="translate(49.621 16.79)" fill="#fff"/>
    <path id="Path_2218" data-name="Path 2218" d="M3.351.048a2.926,2.926,0,0,0-.3-.04,2.831,2.831,0,0,0-.74,5.605,2.934,2.934,0,0,0,.3.04A2.831,2.831,0,0,0,3.351.048Z" transform="translate(9.122 16.955)" fill="#fff"/>
  </g>
</svg>
