<svg xmlns="http://www.w3.org/2000/svg" width="97.631" height="61.48" viewBox="0 0 97.631 61.48">
  <g id="Component_111_1" data-name="Component 111 – 1" transform="translate(0 0)">
    <path id="Path_2222" data-name="Path 2222" d="M-1068.692,1290.68a10.822,10.822,0,0,0-.84-3.392,6.256,6.256,0,0,0-4.841-4.086,22.831,22.831,0,0,0-3.789-.447c-2.178-.065-4.365-.061-6.543.026-1.292.05-2.575.31-3.861.484a.976.976,0,0,1-1.24-.827c-.2-.72-.522-1.414-1.6-1.279.159.657.312,1.3.487,2.023a7.408,7.408,0,0,1-.742.076c-2.292.007-4.583.02-6.872-.009-.675-.009-1.347-.216-2.019-.205-2.711.048-5.421.155-8.132.22a7.142,7.142,0,0,1-1.464-.1c-4.033-.742-8.1-.4-12.158-.365a23.067,23.067,0,0,0-3.477.482,4.181,4.181,0,0,0-3.252,2.575,18.357,18.357,0,0,0-1.447,6.344,31.74,31.74,0,0,0,.611,10,18.15,18.15,0,0,0,.707,2.174,4.668,4.668,0,0,0,4.038,3c4.153.644,8.324.388,12.488.329,1.923-.026,3.839-.323,5.759-.461a17.726,17.726,0,0,1,2.357.007c.694.044,1.379.22,2.073.271a17.969,17.969,0,0,0,2.276.022c1.318-.074,2.634-.271,3.953-.3,1.6-.037,3.208.044,4.812.079a2.985,2.985,0,0,1,.452.087c-.177.663-.343,1.283-.508,1.907a1.394,1.394,0,0,0,1.7-1.255c.151-.76.513-.926,1.192-.8.9.166,1.807.347,2.717.432a28.823,28.823,0,0,0,3.007.118c2.309-.02,4.629.059,6.923-.157,2.619-.247,4.932-1.305,6.133-3.83a10.468,10.468,0,0,0,1.072-3.826C-1068.561,1296.9-1068.583,1293.781-1068.692,1290.68Zm-60.5,10.413c.76,1.943,1.338,3.734,2.992,4.856C-1127.636,1305.656-1129.068,1303.386-1129.188,1301.093Zm3.2-16.648c-1.883,1.146-2.488,3.11-3.237,4.985C-1129.064,1287.04-1127.669,1284.868-1125.984,1284.445Zm9.029,20.921c.375-.181.74-.389,1.126-.537,3.053-1.178,6.283-.818,9.446-1.023a1.091,1.091,0,0,1,.779.552,11.646,11.646,0,0,1,.6,1.674c-1.2,0-2.333.017-3.464,0q-3.755-.072-7.51-.181a5.5,5.5,0,0,1-.943-.185C-1116.934,1305.562-1116.944,1305.464-1116.955,1305.366Zm-4.782-19.057c2.2.334,4.406.692,6.611,1.041a1.565,1.565,0,0,1,.061.3,61.332,61.332,0,0,0-.009,14.928c.063.5-.168.6-.578.67-1.56.251-3.114.533-4.675.794-2.425.406-2.682.268-3.331-2.121a27.951,27.951,0,0,1-.532-9.991,31.53,31.53,0,0,1,1.069-4.756A1.129,1.129,0,0,1-1121.737,1286.308Zm16.779-1.966c-.229.76-.373,1.366-.609,1.936a.8.8,0,0,1-.594.41c-3.154.013-6.32.109-9.374-.9a14.84,14.84,0,0,1-1.423-.642l.059-.347C-1112.981,1284.421-1109.046,1284.44-1104.958,1284.342Zm1.536,19.623c.882,0,1.766-.048,2.643.011,1.46.1,2.922.229,4.374.421,1.477.194,2.951.449,4.413.742a4.329,4.329,0,0,1,1.1.587c-.044.159-.085.321-.127.482-1.563,0-3.125.009-4.688,0-1.652-.013-3.308-.118-4.959-.05S-1103.169,1305.615-1103.422,1303.965Zm12.648-19.289a3.252,3.252,0,0,1-.941.6c-1.41.3-2.827.6-4.256.772-2.449.288-4.911.476-7.368.7-.052-.1-.107-.2-.159-.3.188-.38.4-.751.559-1.144a1.529,1.529,0,0,1,1.707-1.028c2.039.07,4.081.024,6.124.024h4.205C-1090.862,1284.434-1090.818,1284.556-1090.774,1284.676Zm5.989,3.979c.476,1.827,1.8,3.385,1.613,5.441-.177,1.923.1,3.887-.391,5.786l-.251-.007V1295.9c-.111.006-.221.015-.332.024.035.474.035.956.107,1.425a14.228,14.228,0,0,1-.443,5.74c-.439,1.715-1.572,2.289-3.3,1.914-1.353-.295-2.728-.478-4.086-.742-1.408-.275-2.807-.587-4.241-.888a40.658,40.658,0,0,0,.015-16.266c.821-.157,1.541-.293,2.259-.432q3.09-.6,6.181-1.2c1.179-.231,2.248-.046,2.78,1.13.559,1.237.954,2.549,1.419,3.83l-.279.1q-.429-.979-.858-1.96Zm13.536-1.859a7.559,7.559,0,0,0-3.819-2.658C-1073.69,1283.722-1072.267,1284.717-1071.25,1286.8Zm.1,16.75c-.847,2.115-2.569,3.3-4.077,2.785C-1073.4,1306.075-1072.372,1304.827-1071.15,1303.546Z" transform="translate(1130.619 -1247.861)" fill="#e0e1e3"/>
    <path id="Path_2223" data-name="Path 2223" d="M-966.845,1157.1a10.47,10.47,0,0,0,1.86,3.511c1.71,2.212,4.195,2.755,6.807,2.44,2.287-.276,4.537-.846,6.8-1.317a28.794,28.794,0,0,0,2.914-.754c.871-.276,1.716-.646,2.563-1,.637-.266,1.026-.181,1.335.53a1.394,1.394,0,0,0,1.932.864c-.295-.575-.588-1.145-.9-1.756a2.99,2.99,0,0,1,.423-.181c1.56-.375,3.113-.8,4.686-1.1,1.295-.25,2.622-.338,3.926-.545a18.034,18.034,0,0,0,2.22-.505c.667-.2,1.3-.515,1.969-.7a17.667,17.667,0,0,1,2.3-.507c1.906-.274,3.841-.391,5.726-.774,4.082-.827,8.211-1.463,12.133-2.975a4.667,4.667,0,0,0,3.309-3.786,18.174,18.174,0,0,0,.229-2.274,31.748,31.748,0,0,0-1.527-9.9,18.361,18.361,0,0,0-2.762-5.892,4.181,4.181,0,0,0-3.725-1.826,23.116,23.116,0,0,0-3.5.267c-3.969.83-8.02,1.357-11.8,2.939a7.149,7.149,0,0,1-1.41.409c-2.663.512-5.334.983-7.993,1.512-.659.132-1.272.477-1.929.629-2.231.514-4.473.988-6.714,1.469a7.337,7.337,0,0,1-.741.083c.017-.743.03-1.4.046-2.08-1.087.1-1.255.844-1.3,1.59a.976.976,0,0,1-1.036,1.072c-1.293.1-2.6.121-3.875.347-2.147.377-4.285.838-6.4,1.365a22.8,22.8,0,0,0-3.607,1.242,6.254,6.254,0,0,0-3.862,5.021,10.823,10.823,0,0,0-.1,3.493C-968.3,1151.063-967.659,1154.111-966.845,1157.1Zm57.429-6.39c1.378-1.448,1.563-3.321,1.892-5.381C-907.154,1147.6-908.071,1150.122-909.416,1150.714Zm-.554-16.785c-1.13-1.673-2.138-3.464-4.222-4.183C-912.455,1129.8-910.631,1131.627-909.97,1133.929Zm-8.567,18.473a5.515,5.515,0,0,1-.882.382q-3.647.9-7.3,1.772c-1.1.262-2.211.485-3.384.74a11.679,11.679,0,0,1,.227-1.762,1.092,1.092,0,0,1,.644-.705c3.134-.471,6.214-1.509,9.448-1.006.409.063.809.188,1.214.285C-918.559,1152.206-918.549,1152.3-918.537,1152.4Zm2.128-19.378a31.527,31.527,0,0,1,2.055,4.42,27.95,27.95,0,0,1,1.6,9.876c-.126,2.473-.348,2.662-2.8,2.78-1.58.076-3.159.131-4.737.217-.415.021-.664-.034-.708-.532a61.336,61.336,0,0,0-3.18-14.585,1.553,1.553,0,0,1,0-.309c2.08-.809,4.156-1.627,6.239-2.422A1.129,1.129,0,0,1-916.409,1133.024Zm-6.586-1,.131.327a14.674,14.674,0,0,1-1.254.929c-2.768,1.638-5.883,2.217-8.968,2.875a.8.8,0,0,1-.667-.275c-.351-.507-.621-1.069-1.006-1.762C-930.744,1133.34-926.9,1132.485-923,1132.019Zm-11.329,24.322c-1.627.284-3.223.739-4.835,1.1-1.525.343-3.053.666-4.58,1-.075-.149-.15-.3-.226-.445a4.325,4.325,0,0,1,.954-.808c1.367-.6,2.752-1.159,4.155-1.663,1.378-.5,2.779-.933,4.184-1.341.845-.244,1.719-.385,2.58-.572C-931.989,1155.279-932.708,1156.059-934.324,1156.341Zm-14.176-19.273,4.109-.894c2-.434,4-.823,5.979-1.324a1.528,1.528,0,0,1,1.886.642c.237.35.525.668.789,1-.03.109-.062.217-.092.326-2.45.3-4.9.638-7.349.876-1.432.14-2.881.146-4.323.149a3.238,3.238,0,0,1-1.048-.391C-948.531,1137.325-948.515,1137.2-948.5,1137.068Zm-5.264,5.511q-.21,1.051-.422,2.1l-.3-.043c.182-1.351.289-2.716.573-4.044.27-1.262,1.276-1.671,2.477-1.7q3.148-.065,6.3-.138c.731-.016,1.464-.037,2.3-.057a40.663,40.663,0,0,0,3.471,15.891c-1.337.6-2.638,1.2-3.955,1.769-1.271.546-2.575,1.017-3.835,1.593-1.607.734-2.836.413-3.629-1.17a14.228,14.228,0,0,1-1.652-5.515c-.029-.474-.132-.945-.2-1.415-.111.015-.219.03-.329.047l.844,3.884-.244.06c-.883-1.751-1.03-3.729-1.611-5.571-.622-1.969.343-3.773.42-5.659Zm-10.246-2.318a7.557,7.557,0,0,0-3.167,3.409C-966.624,1141.424-965.445,1140.149-964.009,1140.261Zm4.868,21.654c-1.365.82-3.3.031-4.575-1.855C-962.25,1161.052-960.98,1162.054-959.141,1161.915Z" transform="translate(1004.238 -1128.646)" fill="#2e3094"/>
  </g>
</svg>
