<svg xmlns="http://www.w3.org/2000/svg" width="74.743" height="47.878" viewBox="0 0 74.743 47.878"><g transform="translate(12.984)"><path d="M-394.986,748.4h-6.483l-27.638,47.878h61.759Z" transform="translate(429.107 -748.403)" fill="#262626"/><g transform="translate(27.821)"><g transform="translate(0 44.456)"><path d="M-315.989,922.8h-6.118q.1-1.711.2-3.422h5.726Z" transform="translate(322.107 -919.381)" fill="#eee"/></g><g transform="translate(0.531 9.284)"><path d="M-315.009,813.418h-5.056q.167-2.931.335-5.862h4.386Q-315.177,810.487-315.009,813.418Zm-.671-11.724h-3.715q.167-2.931.335-5.862h3.045Q-315.847,798.763-315.68,801.694Zm-.67-11.724h-2.374q.168-2.931.335-5.862h1.7Q-316.518,787.039-316.35,789.97Z" transform="translate(320.065 -784.108)" fill="#eee"/></g><g transform="translate(2.542)"><path d="M-311.3,751.825h-1.034l.2-3.422h.642Q-311.4,750.114-311.3,751.825Z" transform="translate(312.331 -748.403)" fill="#eee"/></g></g><g transform="translate(1.921)"><path d="M-419.835,796.281h-1.882L-395.8,748.4h.2Z" transform="translate(421.717 -748.403)" fill="#eee"/><g transform="translate(31.8)"><path d="M-273.3,796.281h-1.882L-299.412,748.4h.2Z" transform="translate(299.412 -748.403)" fill="#eee"/></g></g></g><path d="M-446.884,806.957c-.532-.091-.856.315-.864.85a.8.8,0,0,0,.912.895c.57-.019.808-.373.97-1.092C-446.2,807.382-446.52,807.019-446.884,806.957Zm5.808,1.1c-.2.794-.7,1.028-1.5.961-.814-.07-1.639-.016-2.528-.016,0,1.092-.04,2.144.016,3.191a.8.8,0,0,0,.926.82c.489-.027.982-.006,1.473-.006,2,0,2,0,2-2.012v-3.4A.77.77,0,0,0-441.077,808.056Zm-32.238.947a20.513,20.513,0,0,0-2.18.014c-1.04.118-1.759-.161-1.985-1.268-.019-.1-.045-.2-.068-.3-.064.05-.128.1-.193.153,0,1.471-.01,2.942,0,4.413a.9.9,0,0,0,1.075,1,22.04,22.04,0,0,1,2.248,0,.909.909,0,0,0,1.09-.995C-473.292,811.043-473.315,810.063-473.315,809Zm4.351-17.885c1.415.013,2.835.015,4.252.015Q-466.837,791.132-468.963,791.117Zm9.786.008q-1.318,0-2.633,0,1.314,0,2.633,0c1.834,0,3.667.006,5.5.006C-455.512,791.134-457.344,791.125-459.177,791.125Z" transform="translate(478.081 -780.011)" fill="#fff"/><path d="M-443.974,791.117c1.415.013,2.835.015,4.252.015Q-441.848,791.132-443.974,791.117Zm9.786.008q-1.318,0-2.633,0,1.314,0,2.633,0c1.834,0,3.667.006,5.5.006C-430.523,791.134-432.354,791.125-434.188,791.125Z" transform="translate(453.092 -780.011)"/><path d="M-473.314,855.482c0,1.06.023,2.042-.008,3.021a.909.909,0,0,1-1.089.994,22.069,22.069,0,0,0-2.249,0,.9.9,0,0,1-1.075-1c-.015-1.471,0-2.943,0-4.414l.193-.153c.023.1.048.2.069.3.225,1.107.944,1.385,1.984,1.268A20.37,20.37,0,0,1-473.314,855.482Z" transform="translate(478.08 -826.49)"/><path d="M-352.237,855.893c.89,0,1.715-.054,2.529.016.791.068,1.294-.166,1.5-.96a.76.76,0,0,1,.391-.463q0,1.7,0,3.4c0,2.012,0,2.012-2,2.012-.491,0-.983-.022-1.472,0a.8.8,0,0,1-.927-.82C-352.276,858.037-352.237,856.985-352.237,855.893Z" transform="translate(385.217 -826.903)"/><path d="M-360.5,852.658c-.163.719-.4,1.073-.97,1.091a.8.8,0,0,1-.912-.895c.008-.535.33-.94.863-.849C-361.151,852.067-360.836,852.43-360.5,852.658Z" transform="translate(392.714 -825.058)"/><path d="M-439.722,791.132c-1.417,0-2.836,0-4.252-.015Q-441.848,791.133-439.722,791.132Z" transform="translate(453.092 -780.011)" fill="#fff"/><path d="M-408.333,791.157c-1.832,0-3.665-.008-5.5-.006q-1.318,0-2.633,0,1.318,0,2.633,0C-412,791.149-410.166,791.157-408.333,791.157Z" transform="translate(432.736 -780.035)" fill="#fff"/><path d="M-437.366,839.323a2.815,2.815,0,0,0-2.866-1.952c-2.878-.133-5.76-.249-8.64-.3-3.046-.056-6.1-.087-9.142-.031-2.416.043-4.828.259-7.244.354-1.3.052-2.464.259-3.089,1.587a7.661,7.661,0,0,0-.912,3.526,11,11,0,0,1,1.181.008c.646.075,1.044-.126,1.113-.82a1.555,1.555,0,0,1,.135-.442,1.588,1.588,0,0,1,1.521-1.113,1.614,1.614,0,0,1,1.56,1.067c.118.251.191.522.336.932,1.069-.147,2.132-.311,3.2-.441a62.474,62.474,0,0,1,12.933-.168c1.407.118,2.809.319,4.212.489a.682.682,0,0,0,.879-.59,1.583,1.583,0,0,1,1.625-1.289,1.471,1.471,0,0,1,1.548,1.268c.168,1.03.735,1.225,1.61,1.117.228-.029.462,0,.992,0C-436.757,841.368-437.039,840.339-437.366,839.323Zm-27.773-.334H-467c.1-.841.713-1.164,2.074-1.061C-465,838.31-465.069,838.633-465.139,838.99Zm24.261-1.044a1.784,1.784,0,0,1,2.06.941C-440.36,839.348-440.806,839.143-440.879,837.945Z" transform="translate(471.804 -813.97)" fill="#3acce1"/><path d="M-455.537,852.792c-.037.568-.3.905-.86.916a.8.8,0,0,1-.9-.916.812.812,0,0,1,.891-.856A.82.82,0,0,1-455.537,852.792Z" transform="translate(462.948 -825.016)"/><path d="M-441.356,779.508A15.5,15.5,0,0,0-441.8,776a30.28,30.28,0,0,0-1.49-3.744,3.573,3.573,0,0,0-.528-.746,17.085,17.085,0,0,1-1.546-1.985c-.827-1.461-1.533-2.986-2.3-4.477a1.837,1.837,0,0,0-1.473-1c-.665-.1-1.32-.265-1.985-.354a66.383,66.383,0,0,0-12.938-.443c-2.37.141-4.724.524-7.086.785a2.021,2.021,0,0,0-1.639,1.144c-.477.889-.934,1.784-1.392,2.683-.694,1.37-1.117,2.913-2.534,3.816-.191.122-.282.423-.383.657-.375.879-.785,1.749-1.086,2.654a14.549,14.549,0,0,0-.789,3.05,28.1,28.1,0,0,0,0,4.028,13.686,13.686,0,0,0,1.084,5.279c.114.244.389.417.59.621.468-1.407.8-2.629,1.287-3.788a2.752,2.752,0,0,1,2.435-1.664c.918-.085,1.84-.166,2.762-.2,2.677-.1,5.356-.224,8.033-.242q5.15-.037,10.3.089c1.776.039,3.547.259,5.325.34a2.893,2.893,0,0,1,2.845,1.755c.477,1.16.812,2.379,1.251,3.7a2.573,2.573,0,0,0,.564-.547,5.864,5.864,0,0,0,.454-1.148A20.278,20.278,0,0,0-441.356,779.508Zm-26.521-6.382a6.026,6.026,0,0,1-3.947,1.558c-1.291.062-2.584.1-3.877.17a1.062,1.062,0,0,1-1.206-1.032c-.263-1.5.238-2.194,1.73-2.031,2.455.269,4.892.688,7.337,1.042Zm8.178-.3c-.1.079-.3.035-.383.041-.856.006-1.467-.383-1.482-.9-.014-.535.655-.986,1.444-.961.176.006.406-.01.516.089.3.271.781.62.756.9C-458.876,772.3-459.376,772.578-459.7,772.829Zm-.439-2.422q-1.318,0-2.633,0-1.452,0-2.9,0c-1.417,0-2.836,0-4.252-.014a18.72,18.72,0,0,1-2.472-.228c-.547-.077-1.336-.089-1.367-.767a3.216,3.216,0,0,1,.532-2.066A7.02,7.02,0,0,1-468.5,765.1a65.49,65.49,0,0,1,16.725.015,7.78,7.78,0,0,1,4.637,2.13,2.3,2.3,0,0,1,.555,2.153c-.041.253-.474.572-.775.63a16.945,16.945,0,0,1-2.919.362c-1.455.019-2.909.023-4.364.023C-456.471,770.413-458.3,770.4-460.138,770.406Zm15.012,4.451c-1.463-.13-2.936-.159-4.4-.3a5.787,5.787,0,0,1-3.141-1.573c1.628-.319,3.106-.655,4.6-.887,1.117-.176,2.254-.228,3.383-.315a1.012,1.012,0,0,1,1.22,1.053C-443.343,774.159-443.5,775-445.127,774.857Z" transform="translate(479.042 -759.29)" fill="#3acce1"/><path d="M-369.811,799.756c-1.463-.131-2.936-.159-4.4-.3a5.785,5.785,0,0,1-3.141-1.573c1.628-.319,3.106-.655,4.6-.887,1.117-.176,2.254-.228,3.384-.315a1.012,1.012,0,0,1,1.22,1.053C-368.027,799.057-368.187,799.9-369.811,799.756Z" transform="translate(403.792 -784.124)" fill="#fff"/></svg>