<svg xmlns="http://www.w3.org/2000/svg" width="116.472" height="33.618" viewBox="0 0 116.472 33.618"><g transform="translate(0 0)"><g transform="translate(0 1.315)"><rect width="9.218" height="8.969" rx="2.698" transform="matrix(0.695, -0.719, 0.719, 0.695, 35.001, 25.437)" fill="#060707"/><rect width="9.218" height="8.969" rx="2.698" transform="translate(0 23.335)" fill="#060707"/><path d="M-669.631,253.82v7.971h36.879s6.782-3.65,6.59-8.259-3.723-1.987-2.778-4.684,3.361-5.947,1.618-6.819-3.273-1.869-4.181-.251c-.658,1.175.044-4.484-5.592-7.336-1-.51-2.83.325-4.285,0-1.6-.347-2.881-1.212-5.127-1.219h-11.045c-2.785,2.054-4.447,5.541-5.349,8.053a1.958,1.958,0,0,0-1.182-.392h-3.28a2,2,0,0,0-1.995,1.995v.665a2,2,0,0,0,1.995,1.995H-666C-667.651,246.824-669.631,249.306-669.631,253.82Zm36.414-9.626c-9.043-4.314-10.72.857-14.731.081s-13.3-.089-13.3-.089a26.623,26.623,0,0,1,4.233-8.681c1.042,0,7.683-.288,10.926,0s4.728,1.2,7.358.5c1.566-.421,3.649,1.98,4.928,4.359C-633.1,241.674-632.826,243.47-633.217,244.194Zm-8.658,15.529a.374.374,0,0,1,.022-.126l1.463-3.782a.366.366,0,0,1,.473-.207.368.368,0,0,1,.229.34.42.42,0,0,1-.022.133l-1.463,3.775a.36.36,0,0,1-.465.207A.364.364,0,0,1-641.876,259.723Zm-1.256-.872a.377.377,0,0,1,.015-.089l1.02-3.923a.359.359,0,0,1,.443-.259.356.356,0,0,1,.273.347.429.429,0,0,1-.015.1l-1.02,3.915a.369.369,0,0,1-.443.266A.37.37,0,0,1-643.131,258.851Zm-1.67.421a.368.368,0,0,1,.015-.089l1.012-3.923a.364.364,0,0,1,.443-.266.37.37,0,0,1,.273.355.37.37,0,0,1-.015.089l-1.012,3.923a.366.366,0,0,1-.443.266A.37.37,0,0,1-644.8,259.272Zm-1.537-.754.554-4.019a.366.366,0,0,1,.414-.31.367.367,0,0,1,.31.369v.044l-.554,4.012a.366.366,0,0,1-.414.31.365.365,0,0,1-.31-.362Zm-1.61,0,.525-4.019a.355.355,0,0,1,.406-.31.359.359,0,0,1,.318.355c0,.015-.007.037-.007.052l-.517,4.019a.359.359,0,0,1-.406.31.366.366,0,0,1-.318-.362Zm-1.8-3.546a.363.363,0,0,1,.362-.362.364.364,0,0,1,.369.362v4.056a.364.364,0,0,1-.369.362.363.363,0,0,1-.362-.362Zm-1.529,0a.363.363,0,0,1,.362-.362.363.363,0,0,1,.362.362v4.056a.363.363,0,0,1-.362.362.363.363,0,0,1-.362-.362Zm-1.537,0a.364.364,0,0,1,.369-.362.363.363,0,0,1,.362.362v4.056a.363.363,0,0,1-.362.362.364.364,0,0,1-.369-.362Zm-1.529,0a.363.363,0,0,1,.362-.362.363.363,0,0,1,.362.362v4.056a.363.363,0,0,1-.362.362.363.363,0,0,1-.362-.362Zm-1.529,0a.363.363,0,0,1,.362-.362.363.363,0,0,1,.362.362v4.056a.363.363,0,0,1-.362.362.363.363,0,0,1-.362-.362Zm-10.188-3.642a3.282,3.282,0,0,1,3.28-3.28,3.282,3.282,0,0,1,3.221,2.637h14.635c1.714,0,4.824.835,8.112,1.138a3.9,3.9,0,0,1,2.061-1.152c1.995-.495,4.758.362,4.994,1.308s-1.529,1.788-3.524,2.275-3.8.118-4.034-.827a1.841,1.841,0,0,1-.03-.2c-3.132-.052-6.457-1.256-7.661-1.256h-14.554a3.282,3.282,0,0,1-3.221,2.637A3.282,3.282,0,0,1-666.063,251.33Z" transform="translate(669.632 -233.223)" fill="#3acce1"/></g><g transform="translate(45.894 0)"><path d="M-607.511,231.583s.458,6.257.805,6.848,5.068-1.736,5.644-1.928,3.317,5.031,3.605,5.711-1.337,3.982-1.337,3.982-5.327.14-4.846.717-.606,3.036-.281,3.753-1.455,1.736-2.017,2.881.406,8.466.975,9.242,3.539-.369,3.539-.369-.584-8.71,3.118-8.429,5.46,5.858,5.46,5.858l3.044-1.2,5.378.31,24.763-5.12,1.522-.377a6.953,6.953,0,0,1-1.714-3.9,7,7,0,0,1,6.235-7.705,7,7,0,0,1,7.705,6.235,6.847,6.847,0,0,1-.163,2.4h.007s4.979-1.448,6.11-2.224,3.546-2.009,2.926-3.982-.687-4.1-3.169-3.923c.983-.938.1-6.974-2.807-6.8s-3.435.694-10.01-.7-26.906-1-31.789,2.6c-3.487,2.578-5.77,4.233-6.826,4.972a20.452,20.452,0,0,1-4.255,1.618s-4.189-7.3-4.92-7.085-4.758,2.364-4.854,1.433-.525-4.957-.525-4.957Zm31.213,3.066c14.753-2.408,18.307,3.332,18.307,3.332l-16.327,3.554A18.6,18.6,0,0,1-576.3,234.649Zm-19.932,10.313c.953-1.389,1.507-1.116,4.44-2.844s8.651-5.275,13.327-6.656c.222,2.083,1.5,7.092,1.5,7.092s-8.281.754-12.367,2.312S-595.683,246.95-596.23,244.962Z" transform="translate(607.511 -231.443)" fill="#e0e1e3"/><path d="M-535.728,258.921a6.085,6.085,0,0,1-6.062-5.463,6.061,6.061,0,0,1,1.325-4.478,6.065,6.065,0,0,1,4.1-2.228,6.073,6.073,0,0,1,.644-.034,6.085,6.085,0,0,1,6.062,5.463,6.059,6.059,0,0,1-1.325,4.477,6.061,6.061,0,0,1-4.1,2.229A6.074,6.074,0,0,1-535.728,258.921Zm.011-9.379a3.255,3.255,0,0,0-.349.018,3.256,3.256,0,0,0-2.2,1.2,3.256,3.256,0,0,0-.712,2.405,3.268,3.268,0,0,0,3.254,2.935,3.259,3.259,0,0,0,.349-.018,3.252,3.252,0,0,0,2.2-1.2,3.254,3.254,0,0,0,.713-2.4A3.268,3.268,0,0,0-535.717,249.542Z" transform="translate(590.352 -235.433)" fill="#1a1718"/><path d="M-595.621,271.44a6.082,6.082,0,0,1-1.769-.264,6.056,6.056,0,0,1-3.611-2.96,6.058,6.058,0,0,1-.46-4.647,4.374,4.374,0,0,1,4.1-3.431,4.788,4.788,0,0,1,3.115,1.261,10.247,10.247,0,0,0,2.14,1.356c1.255.644,3.152,1.619,2.325,4.351A6.066,6.066,0,0,1-595.621,271.44Zm-1.742-8.478c-.871,0-1.266,1-1.4,1.426a3.255,3.255,0,0,0,.247,2.5,3.257,3.257,0,0,0,1.94,1.591,3.3,3.3,0,0,0,.952.142,3.3,3.3,0,0,0,3.135-2.329,1.469,1.469,0,0,0,.082-.435,5.5,5.5,0,0,0-.994-.586,12.805,12.805,0,0,1-2.693-1.727A2.037,2.037,0,0,0-597.363,262.962Z" transform="translate(606 -238.939)" fill="#1a1718"/></g></g></svg>