<svg xmlns="http://www.w3.org/2000/svg" width="107.626" height="48.178" viewBox="0 0 107.626 48.178"><g transform="translate(0 0)"><g transform="translate(0)"><path d="M84.142,1180.878c-3.3,0-6.5.032-9.689-.02a2.12,2.12,0,0,0-2.116,1.113c-.681,1.323-1.274,2.693-1.85,4.067a35.573,35.573,0,0,0-3.185,12.121c-.157,3.472-.06,6.956-.184,10.431a7.829,7.829,0,0,0,2.909,6.253A4.151,4.151,0,0,0,73,1215.95q26.091-.048,52.182-.022h1.8c0-2.938.023-5.717-.04-8.495-.006-.246-.546-.636-.884-.694a37.559,37.559,0,0,1-18.511-8.643,34.249,34.249,0,0,1-9.56-13.225c-.868-2.13-3.335-4.233-5.924-4.018-1.664.138-3.35.026-5.075.026a6.557,6.557,0,0,1,5.68-4.6,9.811,9.811,0,0,0,1.693-.043c.269-.051.679-.43.666-.639a1.639,1.639,0,0,0-.556-.936c-.131-.127-.465-.052-.706-.052q-8.373,0-16.747,0c-.162,0-.382-.061-.475.02-.268.235-.667.525-.671.8a1.066,1.066,0,0,0,.646.8,7.283,7.283,0,0,0,1.689.055A6.749,6.749,0,0,1,84.142,1180.878Zm4.607,38.318H78.679l-.128-1.963H74.023c-2.17,0-2.17,0-2.493,2.068,0,.032-.047.059-.2.245H67.181v3.152c.333.026.57.062.807.062q15.59.006,31.179,0a3.026,3.026,0,0,0,.955-.12c5.965-2.02,12.2-2.288,18.392-2.806,2.768-.232,5.552-.279,8.4-.413v-2.12H88.885Z" transform="translate(-67.114 -1174.585)" fill="#fff"/><path d="M84.142,1180.878a6.749,6.749,0,0,0-5.938-4.6,7.283,7.283,0,0,1-1.689-.055,1.066,1.066,0,0,1-.646-.8c0-.273.4-.563.671-.8.093-.081.313-.02.475-.02q8.373,0,16.747,0c.242,0,.575-.075.706.052a1.639,1.639,0,0,1,.556.936c.013.209-.4.588-.666.639a9.811,9.811,0,0,1-1.693.043,6.557,6.557,0,0,0-5.68,4.6c1.725,0,3.411.113,5.075-.026,2.588-.215,5.055,1.888,5.924,4.018a34.249,34.249,0,0,0,9.56,13.225,37.559,37.559,0,0,0,18.511,8.643c.338.058.878.448.884.694.063,2.777.04,5.557.04,8.495h-1.8q-26.091,0-52.182.022a4.151,4.151,0,0,1-2.97-1.108,7.829,7.829,0,0,1-2.909-6.253c.124-3.475.027-6.958.184-10.431a35.573,35.573,0,0,1,3.185-12.121c.576-1.374,1.169-2.744,1.85-4.067a2.12,2.12,0,0,1,2.116-1.113C77.645,1180.91,80.838,1180.878,84.142,1180.878Zm-1.074,11.813v.006c3.841,0,7.682.012,11.522-.006,1.363-.006,1.677-.477,1.209-1.749-.739-2.008-1.521-4-2.251-6.013a1.565,1.565,0,0,0-1.709-1.171q-8.794.058-17.587,0a1.542,1.542,0,0,0-1.691,1.183c-.679,1.9-1.407,3.784-2.124,5.672-.646,1.7-.4,2.07,1.471,2.077C75.629,1192.7,79.349,1192.691,83.068,1192.691Zm17.168,1.5c0,3.429-.006,6.562.015,9.7a.766.766,0,0,0,.339.573c1.059.523,2.141,1,3.38,1.566,0-2.607.016-4.976-.018-7.344a1.627,1.627,0,0,0-.4-.977C102.5,1196.538,101.4,1195.415,100.235,1194.188Zm5.87,5.758c0,2.454-.007,4.693.016,6.931a.633.633,0,0,0,.349.435c1.015.43,2.045.827,3.122,1.255,0-1.938.02-3.711-.019-5.483a1.357,1.357,0,0,0-.411-.935C108.257,1201.432,107.291,1200.789,106.105,1199.947Zm5.322,3.586c0,1.859-.02,3.424.02,4.988a.946.946,0,0,0,.426.737c.974.322,1.979.548,3.088.84,0-1.641.017-3.128-.018-4.614a.867.867,0,0,0-.382-.653C113.625,1204.4,112.657,1204.033,111.428,1203.533Zm-17.784.924a2.446,2.446,0,0,0-2.314-2.178,2.408,2.408,0,0,0-2.3,2.325,2.31,2.31,0,0,0,4.617-.147ZM73.035,1206.7a2.225,2.225,0,0,0,2.253-2.322,2.3,2.3,0,0,0-4.586.071A2.252,2.252,0,0,0,73.035,1206.7Zm46.073,4.19c0-.758,0-1.475,0-2.191,0-2.544,0-2.544-2.511-2.943-.031,0-.069.036-.28.155,0,.684,0,1.476,0,2.267C116.3,1210.677,116.3,1210.677,119.108,1210.892Zm3.635.567a1.879,1.879,0,0,0,.147-.4q-.009-1.022-.034-2.044c-.046-1.954-.166-2.061-2.212-2v4.183ZM83.12,1176.342l2.432,3.473,2.37-3.473Zm40.9,31.361c0,.81.007,1.643,0,2.475-.016,1.666-.02,1.666,1.871,1.532,0-.862.006-1.734,0-2.606C125.878,1207.475,125.833,1207.441,124.021,1207.7Z" transform="translate(-67.114 -1174.585)" fill="#e0e1e3"/><path d="M88.792,1246.277l.136-1.9H126.96v2.12c-2.851.135-5.635.182-8.4.413-6.191.518-12.427.786-18.392,2.806a3.026,3.026,0,0,1-.955.12q-15.589.008-31.179,0c-.237,0-.474-.035-.807-.062v-3.152H71.37c.157-.186.2-.213.2-.245.323-2.069.323-2.069,2.493-2.069h4.528l.128,1.963Z" transform="translate(-67.156 -1201.666)" fill="#e0e1e3"/><path d="M84.974,1198.514c-3.719,0-7.439.01-11.158,0-1.875-.007-2.117-.377-1.471-2.077.717-1.888,1.445-3.771,2.124-5.672a1.542,1.542,0,0,1,1.691-1.183q8.793.063,17.587,0a1.565,1.565,0,0,1,1.709,1.171c.73,2.011,1.511,4.005,2.251,6.013.468,1.271.154,1.742-1.209,1.748-3.84.018-7.681.006-11.522.006Z" transform="translate(-69.02 -1180.408)" fill="#fff"/><path d="M121.267,1206.637c1.166,1.227,2.264,2.35,3.315,3.514a1.627,1.627,0,0,1,.4.977c.034,2.368.018,4.737.018,7.344-1.239-.567-2.32-1.043-3.38-1.566a.766.766,0,0,1-.339-.573C121.261,1213.2,121.267,1210.066,121.267,1206.637Z" transform="translate(-88.145 -1187.033)" fill="#fff"/><path d="M130.864,1216.052c1.185.842,2.152,1.485,3.057,2.2a1.357,1.357,0,0,1,.411.935c.039,1.772.019,3.545.019,5.482-1.077-.428-2.107-.825-3.122-1.255a.632.632,0,0,1-.349-.435C130.858,1220.745,130.864,1218.506,130.864,1216.052Z" transform="translate(-91.873 -1190.69)" fill="#fff"/><path d="M139.564,1221.915c1.229.5,2.2.865,3.135,1.3a.867.867,0,0,1,.382.653c.034,1.486.018,2.973.018,4.613-1.109-.291-2.114-.518-3.088-.84a.946.946,0,0,1-.426-.737C139.544,1225.339,139.564,1223.774,139.564,1221.915Z" transform="translate(-95.25 -1192.967)" fill="#fff"/><path d="M107.558,1222.041a2.31,2.31,0,0,1-4.617.147,2.408,2.408,0,0,1,2.3-2.325A2.446,2.446,0,0,1,107.558,1222.041Z" transform="translate(-81.028 -1192.17)" fill="#fff"/><path d="M75.314,1224.253A2.252,2.252,0,0,1,72.981,1222a2.3,2.3,0,0,1,4.586-.071A2.225,2.225,0,0,1,75.314,1224.253Z" transform="translate(-69.392 -1192.136)" fill="#fff"/><path d="M150.35,1230.686c-2.8-.215-2.8-.215-2.791-2.713,0-.791,0-1.582,0-2.266.211-.12.249-.161.28-.156,2.507.4,2.507.4,2.511,2.943C150.352,1229.212,150.35,1229.928,150.35,1230.686Z" transform="translate(-98.356 -1194.379)" fill="#fff"/><path d="M156.735,1232.047l-2.1-.257v-4.183c2.046-.064,2.166.043,2.212,2q.024,1.021.034,2.044A1.882,1.882,0,0,1,156.735,1232.047Z" transform="translate(-101.106 -1195.173)" fill="#fff"/><path d="M93.284,1177.458h4.8l-2.37,3.473Z" transform="translate(-77.278 -1175.701)" fill="#fff"/><path d="M160.156,1228.656c1.812-.262,1.856-.228,1.868,1.4.007.872,0,1.744,0,2.606-1.891.134-1.887.134-1.871-1.532C160.162,1230.3,160.156,1229.466,160.156,1228.656Z" transform="translate(-103.248 -1195.538)" fill="#fff"/></g><g transform="translate(49.383 16.859)"><path d="M150.619,1202.149a47.367,47.367,0,0,0-.375,5.7c.194.527,4.387-.651,4.885-.72s1.943,4.6,2.075,5.192-1.687,3.04-1.687,3.04-4.358-.687-4.053-.146-.95,2.381-.793,3.013-1.446,1.195-2.076,2.042-.943,6.954-.6,7.671,2.936.232,2.936.232.835-7.178,3.807-6.393,3.563,5.591,3.563,5.591l2.658-.516,4.331,1.062,20.931-.441,1.3-.078a5.8,5.8,0,1,1,10.762-2.533,5.686,5.686,0,0,1-.494,1.93h.006a33.277,33.277,0,0,0,5.308-.891c1.043-.46,3.189-1.1,2.981-2.8s.057-3.442-1.99-3.67c.941-.616,1.127-5.663-1.262-5.962s-2.9.048-8.043-2.078-21.753-4.867-26.271-2.667c-3.227,1.574-5.335,2.578-6.306,3.02a16.937,16.937,0,0,1-3.708.677s-2.311-6.573-2.939-6.508-4.229,1.209-4.167.436.319-4.114.319-4.114Zm24.949,7.194c12.373.259,14.4,5.467,14.4,5.467l-13.826.436A15.388,15.388,0,0,1,175.569,1209.343Zm-17.779,5.4c.985-.987,1.395-.682,4.042-1.647s7.837-2.992,11.852-3.413c-.133,1.729.154,6,.154,6s-6.856-.633-10.416.021S157.936,1216.439,157.79,1214.739Z" transform="translate(-147.855 -1202.149)" fill="#3acce1"/><path d="M216.715,1240.3a5.051,5.051,0,0,1,1.316-10,5.267,5.267,0,0,1,.53.069,5.051,5.051,0,0,1-1.316,10A5.108,5.108,0,0,1,216.715,1240.3Zm1.421-7.634a2.781,2.781,0,0,0-.287-.038,2.714,2.714,0,0,0-.709,5.373,2.748,2.748,0,0,0,.286.038,2.714,2.714,0,0,0,.709-5.373Z" transform="translate(-172.995 -1213.077)" fill="#1a1718"/><path d="M155.6,1241.732a5.053,5.053,0,0,1-3.571-7.287,3.622,3.622,0,0,1,3.853-2.176,3.965,3.965,0,0,1,2.346,1.5,8.517,8.517,0,0,0,1.538,1.425c.925.714,2.322,1.793,1.238,3.892A5.021,5.021,0,0,1,155.6,1241.732Zm-.143-7.165c-.709-.131-1.181.621-1.352.95a2.719,2.719,0,0,0,1.919,3.916,2.732,2.732,0,0,0,2.9-1.424,1.2,1.2,0,0,0,.131-.342,4.5,4.5,0,0,0-.721-.627,10.539,10.539,0,0,1-1.932-1.812A1.69,1.69,0,0,0,155.459,1234.568Z" transform="translate(-149.257 -1213.826)" fill="#1a1718"/></g></g></svg>