<svg id="Component_107_1" data-name="Component 107 – 1" xmlns="http://www.w3.org/2000/svg" width="84.752" height="52.689" viewBox="0 0 84.752 52.689">
  <ellipse id="Ellipse_5" data-name="Ellipse 5" cx="10.313" cy="11.187" rx="10.313" ry="11.187" fill="#e0e1e3"/>
  <line id="Line_25" data-name="Line 25" x1="0.793" y2="33.561" transform="translate(9.916 17.211)" fill="none" stroke="#e0e1e3" stroke-miterlimit="10" stroke-width="3"/>
  <g id="Group_202" data-name="Group 202" transform="translate(9.206 16.381)">
    <path id="Path_2279" data-name="Path 2279" d="M-298.059,1282.149s-.738,6.7-.486,7.389,5.691-.844,6.336-.935,2.52,5.96,2.692,6.734-2.189,3.944-2.189,3.944-5.652-.892-5.257-.19-1.233,3.089-1.029,3.908-1.876,1.549-2.693,2.649-1.223,9.019-.774,9.95,3.809.3,3.809.3,1.084-9.311,4.938-8.293,4.621,7.252,4.621,7.252l3.448-.67,5.618,1.378,27.149-.572,1.68-.1a7.465,7.465,0,0,1-1.048-4.454,7.518,7.518,0,0,1,8.088-6.919,7.518,7.518,0,0,1,6.919,8.088,7.374,7.374,0,0,1-.64,2.5l.008,0s5.541-.557,6.885-1.156,4.136-1.43,3.867-3.633.075-4.464-2.581-4.761c1.22-.8,1.462-7.345-1.637-7.733s-3.763.063-10.433-2.695-28.215-6.313-34.075-3.46c-4.186,2.042-6.919,3.344-8.179,3.918a21.981,21.981,0,0,1-4.809.878s-3-8.525-3.813-8.442-5.485,1.568-5.4.566.414-5.337.414-5.337Zm32.361,9.331c16.049.336,18.68,7.091,18.68,7.091l-17.934.565A19.959,19.959,0,0,1-265.7,1291.48Zm-23.06,7c1.277-1.28,1.809-.884,5.243-2.136s10.165-3.881,15.373-4.427c-.173,2.243.2,7.782.2,7.782s-8.892-.821-13.51.027S-288.57,1300.684-288.758,1298.479Z" transform="translate(301.645 -1282.149)" fill="#2e3094"/>
    <path id="Path_2280" data-name="Path 2280" d="M-231.558,1323.281a6.535,6.535,0,0,1-5.335-6.952,6.507,6.507,0,0,1,2.274-4.469,6.506,6.506,0,0,1,4.768-1.553,6.881,6.881,0,0,1,.687.09,6.535,6.535,0,0,1,5.334,6.952,6.511,6.511,0,0,1-2.274,4.47,6.509,6.509,0,0,1-4.768,1.552A6.578,6.578,0,0,1-231.558,1323.281Zm1.843-9.9a3.642,3.642,0,0,0-.372-.049,3.5,3.5,0,0,0-2.562.834,3.5,3.5,0,0,0-1.221,2.4,3.508,3.508,0,0,0,2.863,3.734,3.6,3.6,0,0,0,.371.049,3.5,3.5,0,0,0,2.562-.835,3.5,3.5,0,0,0,1.222-2.4A3.508,3.508,0,0,0-229.715,1313.379Z" transform="translate(288.266 -1287.965)" fill="#1a1718"/>
    <path id="Path_2281" data-name="Path 2281" d="M-292.67,1324.56a6.549,6.549,0,0,1-1.818-.624,6.508,6.508,0,0,1-3.235-3.831,6.508,6.508,0,0,1,.421-5,4.7,4.7,0,0,1,5-2.822,5.143,5.143,0,0,1,3.042,1.94,11.044,11.044,0,0,0,2,1.848c1.2.926,3.012,2.325,1.606,5.048A6.513,6.513,0,0,1-292.67,1324.56Zm-.185-9.293c-.919-.17-1.532.806-1.753,1.233a3.5,3.5,0,0,0-.226,2.685,3.494,3.494,0,0,0,1.738,2.058,3.514,3.514,0,0,0,.977.336,3.544,3.544,0,0,0,3.765-1.848,1.554,1.554,0,0,0,.171-.443,5.829,5.829,0,0,0-.935-.813,13.665,13.665,0,0,1-2.506-2.35A2.193,2.193,0,0,0-292.855,1315.267Z" transform="translate(300.899 -1288.363)" fill="#1a1718"/>
  </g>
</svg>
