<svg xmlns="http://www.w3.org/2000/svg" width="117.612" height="38.328" viewBox="0 0 117.612 38.328"><g transform="translate(0 0)"><path d="M-206.864,1047.507l-1.129-2.56-.538-3.8.707-10.211-.29-.642.062-.434-.487-.615h0l-2.387-3.008-3.967-2.008-2.21-.226-1.969.3-3.446-.651h0l-3.376-.637-3.9-.143h0l-.589-.021-1.88-.572-3.471-1.493L-237,1020.4l-1.845.312h0l-1.413.239-2.884.168-.047-.009h0l-.419-.077-2.635-.484-.817-.253-.916-.643,1.427-.653.027-.671-.32-.581-2.116.5-.289.35.013-.126-.444-1.014-1.3-.512-1.848.359-1.421-.525-.582-.9-.144,1,.524,1.065.917.094,1.523-.055.817.252.021.058-4.285,2.077-.122.367-3.378,1.719-1.17.3-.059.584.2,1.706.511.769.8.039.328.5,1.608.165.519.053,2.382-.221.571.606.8,1.683,2.1,1.691,2.874,2.4,1.4,3.6,1.283,2.7,1.171.687.1,2.94.476,1.524.25,3.734.158.521-.882.375-.971,1.249.755.456,1.009.019.4-.029-.625,1.438.493.135.04.426,2.512-.249.179-1.752.417-.379.227-.567.476-.12-.191-4.317.509-1.676.941-2.6h0l5.431.43,5.853-.372,1.83.392.611,1.291.961.9-.353.975.32.58.891-.878.638.359-.041,1.219.671.027.442-1.43.823-.211.411.927.48-.161-.065-1.018.324-.135.05.594-.8,4.133-.425,1.684-1.539,1.444-.084.413,1.935.451.814-.128.074-1.13.41-.716.447.172-.018-1.477.679-1.7.825-2.424.205.591-.023,1.052-.081,4.5-.81.507-.306.516-1.192,1.354.092.346,2.794.286.643-.978h0l.006-.01.244-.734,1-.7.035-.755.238-3.979,1.647-1.686-.055-1.522-.284-1.757,2.83-8.289-.551,7.427.435,3.584-.332.767-.051,5.431,1.266,1.647.367-.3-.464-1.227Zm-34.42,1.026-.123-.346.258-3.345.161-1.458.026.044-.026,3.959Z" transform="translate(260.189 -1015.88)" fill="#e0e1e3"/><g transform="translate(47.293 3.891)"><path d="M-192.807,1021.149s-.687,6.234-.453,6.878,5.3-.786,5.9-.87,2.346,5.548,2.506,6.269-2.037,3.671-2.037,3.671-5.261-.83-4.894-.177-1.148,2.875-.958,3.638-1.746,1.442-2.506,2.465-1.139,8.4-.721,9.262,3.545.28,3.545.28,1.009-8.667,4.6-7.719,4.3,6.75,4.3,6.75l3.209-.623,5.23,1.283,25.271-.532,1.564-.094a6.948,6.948,0,0,1-.975-4.146,7,7,0,0,1,7.528-6.441,7,7,0,0,1,6.441,7.528,6.864,6.864,0,0,1-.6,2.331l.007,0s5.157-.518,6.409-1.076,3.85-1.331,3.6-3.382.069-4.156-2.4-4.431c1.136-.744,1.361-6.838-1.523-7.2s-3.5.058-9.711-2.508-26.263-5.876-31.718-3.22c-3.9,1.9-6.441,3.113-7.613,3.646a20.457,20.457,0,0,1-4.476.817s-2.791-7.935-3.549-7.858-5.106,1.459-5.031.526.385-4.967.385-4.967Zm30.122,8.686c14.939.313,17.388,6.6,17.388,6.6l-16.693.526A18.579,18.579,0,0,1-162.685,1029.835Zm-21.465,6.514c1.189-1.192,1.684-.823,4.88-1.988s9.462-3.613,14.31-4.121c-.161,2.088.185,7.243.185,7.243s-8.277-.764-12.576.025S-183.974,1038.4-184.15,1036.349Z" transform="translate(196.145 -1021.149)" fill="#3acce1"/><path d="M-126.429,1061.382a6.083,6.083,0,0,1-4.966-6.471,6.058,6.058,0,0,1,2.117-4.16,6.057,6.057,0,0,1,4.438-1.445,6.441,6.441,0,0,1,.64.083,6.083,6.083,0,0,1,4.965,6.471,6.061,6.061,0,0,1-2.116,4.16,6.06,6.06,0,0,1-4.438,1.445A6.172,6.172,0,0,1-126.429,1061.382Zm1.715-9.217a3.385,3.385,0,0,0-.346-.046,3.257,3.257,0,0,0-2.384.776,3.257,3.257,0,0,0-1.136,2.235,3.265,3.265,0,0,0,2.665,3.476,3.31,3.31,0,0,0,.346.046,3.256,3.256,0,0,0,2.384-.777,3.253,3.253,0,0,0,1.137-2.235A3.266,3.266,0,0,0-124.713,1052.165Z" transform="translate(179.214 -1028.509)" fill="#1a1718"/><path d="M-187.541,1062.706a6.1,6.1,0,0,1-1.692-.58,6.059,6.059,0,0,1-3.011-3.566,6.058,6.058,0,0,1,.392-4.651,4.373,4.373,0,0,1,4.652-2.627,4.786,4.786,0,0,1,2.832,1.806,10.3,10.3,0,0,0,1.857,1.721c1.117.862,2.8,2.164,1.495,4.7A6.062,6.062,0,0,1-187.541,1062.706Zm-.172-8.65c-.856-.158-1.426.75-1.632,1.148a3.254,3.254,0,0,0-.21,2.5,3.253,3.253,0,0,0,1.618,1.916,3.274,3.274,0,0,0,.91.313,3.3,3.3,0,0,0,3.5-1.72,1.445,1.445,0,0,0,.159-.413,5.435,5.435,0,0,0-.871-.757,12.729,12.729,0,0,1-2.333-2.187A2.04,2.04,0,0,0-187.713,1054.056Z" transform="translate(195.201 -1029.013)" fill="#1a1718"/></g></g></svg>