<svg id="Component_106_1" data-name="Component 106 – 1" xmlns="http://www.w3.org/2000/svg" width="77.096" height="39.586" viewBox="0 0 77.096 39.586">
  <path id="_ionicons_svg_md-man" d="M5.957,5.29A2.645,2.645,0,1,0,3.312,2.645,2.636,2.636,0,0,0,5.957,5.29Zm2.652.6H3.3A3.4,3.4,0,0,0,0,9.318v8.056a1.1,1.1,0,1,0,2.2,0V9.928h.425V30.182a1.526,1.526,0,1,0,3.049,0V18.509h.567v11.68a1.526,1.526,0,1,0,3.049-.007V9.928h.355v7.446a1.135,1.135,0,1,0,2.269,0V9.318A3.4,3.4,0,0,0,8.609,5.886Z" transform="matrix(0.995, -0.105, 0.105, 0.995, 0, 7.988)" fill="#e0e1e3"/>
  <g id="Group_296" data-name="Group 296" transform="translate(6.353)">
    <path id="Path_2219" data-name="Path 2219" d="M-230.868,301.48s-.691,6.271-.456,6.919,5.329-.79,5.934-.875,2.36,5.581,2.521,6.306-2.05,3.693-2.05,3.693-5.293-.835-4.924-.177-1.154,2.891-.964,3.659-1.756,1.451-2.521,2.481-1.146,8.446-.725,9.317,3.567.282,3.567.282,1.015-8.719,4.624-7.765,4.327,6.791,4.327,6.791l3.229-.627,5.261,1.29,25.423-.536,1.574-.094a6.994,6.994,0,0,1-.982-4.171,7.04,7.04,0,0,1,7.575-6.48,7.04,7.04,0,0,1,6.48,7.575,6.9,6.9,0,0,1-.6,2.344l.007,0s5.188-.522,6.448-1.082,3.873-1.339,3.621-3.4.07-4.179-2.417-4.458c1.143-.748,1.37-6.878-1.532-7.241s-3.524.059-9.771-2.524-26.422-5.912-31.91-3.239c-3.919,1.911-6.479,3.13-7.659,3.668a20.563,20.563,0,0,1-4.5.822s-2.808-7.983-3.57-7.905-5.136,1.468-5.061.53.388-5,.388-5Zm30.3,8.737c15.029.316,17.494,6.642,17.494,6.642l-16.794.529A18.7,18.7,0,0,1-200.565,310.217Zm-21.595,6.555c1.2-1.2,1.695-.828,4.911-2s9.519-3.635,14.4-4.146c-.161,2.1.186,7.287.186,7.287s-8.326-.769-12.652.026S-221.982,318.837-222.159,316.772Z" transform="translate(234.226 -301.48)" fill="#2e3094"/>
    <path id="Path_2220" data-name="Path 2220" d="M-164.48,341.786a6.119,6.119,0,0,1-5-6.51,6.1,6.1,0,0,1,2.129-4.185,6.1,6.1,0,0,1,4.466-1.454,6.223,6.223,0,0,1,.643.085,6.119,6.119,0,0,1,5,6.51,6.1,6.1,0,0,1-2.129,4.185,6.093,6.093,0,0,1-4.465,1.454A6.177,6.177,0,0,1-164.48,341.786Zm1.726-9.273a3.388,3.388,0,0,0-.348-.045,3.273,3.273,0,0,0-2.4.781,3.278,3.278,0,0,0-1.144,2.248,3.287,3.287,0,0,0,2.681,3.5,3.406,3.406,0,0,0,.348.045,3.276,3.276,0,0,0,2.4-.781,3.279,3.279,0,0,0,1.144-2.249A3.286,3.286,0,0,0-162.754,332.513Z" transform="translate(217.584 -308.714)" fill="#1a1718"/>
    <path id="Path_2221" data-name="Path 2221" d="M-225.592,343.105a6.111,6.111,0,0,1-1.7-.584,6.094,6.094,0,0,1-3.03-3.587,6.093,6.093,0,0,1,.4-4.679,4.4,4.4,0,0,1,4.68-2.643,4.811,4.811,0,0,1,2.849,1.816,10.3,10.3,0,0,0,1.868,1.731c1.123.867,2.821,2.177,1.5,4.727A6.1,6.1,0,0,1-225.592,343.105Zm-.173-8.7c-.861-.159-1.435.754-1.642,1.154a3.273,3.273,0,0,0-.212,2.513A3.274,3.274,0,0,0-225.991,340a3.293,3.293,0,0,0,.914.314,3.318,3.318,0,0,0,3.526-1.73,1.434,1.434,0,0,0,.16-.415,5.5,5.5,0,0,0-.876-.761,12.851,12.851,0,0,1-2.348-2.2A2.046,2.046,0,0,0-225.765,334.4Z" transform="translate(233.298 -309.21)" fill="#1a1718"/>
  </g>
</svg>
