<svg xmlns="http://www.w3.org/2000/svg" width="60.673" height="45.39" viewBox="0 0 60.673 45.39"><g id="correct-road-lane" transform="translate(0.789 0.655)"><g id="Group_246" data-name="Group 246" transform="translate(2.694 0.4)"><g id="Group_184" data-name="Group 184"><path id="Path_2242" data-name="Path 2242" d="M-397.51,748.4h-6l-25.594,44.336h57.191Z" transform="translate(429.107 -748.403)" fill="#262626"/></g><g id="Group_188" data-name="Group 188" transform="translate(25.763)"><g id="Group_185" data-name="Group 185" transform="translate(0 41.167)"><path id="Path_2243" data-name="Path 2243" d="M-316.442,922.55h-5.665q.09-1.584.181-3.169h5.3Z" transform="translate(322.107 -919.381)" fill="#eee"/></g><g id="Group_186" data-name="Group 186" transform="translate(0.492 8.597)"><path id="Path_2244" data-name="Path 2244" d="M-315.383,811.25h-4.682q.155-2.714.31-5.428h4.061Q-315.538,808.536-315.383,811.25ZM-316,800.393h-3.44q.155-2.714.31-5.428h2.819Q-316.159,797.679-316,800.393Zm-.621-10.857h-2.2q.156-2.714.31-5.428h1.578Q-316.78,786.822-316.625,789.536Z" transform="translate(320.065 -784.108)" fill="#eee"/></g><g id="Group_187" data-name="Group 187" transform="translate(2.354)"><path id="Path_2245" data-name="Path 2245" d="M-311.374,751.572h-.957q.091-1.584.181-3.169h.595Q-311.464,749.988-311.374,751.572Z" transform="translate(312.331 -748.403)" fill="#eee"/></g></g><g id="Group_191" data-name="Group 191" transform="translate(1.779)"><g id="Group_189" data-name="Group 189"><path id="Path_2246" data-name="Path 2246" d="M-419.974,792.739h-1.743l24-44.336h.183Z" transform="translate(421.717 -748.403)" fill="#eee"/></g><g id="Group_190" data-name="Group 190" transform="translate(29.448)"><path id="Path_2247" data-name="Path 2247" d="M-275.228,792.739h-1.743L-299.412,748.4h.183Z" transform="translate(299.412 -748.403)" fill="#eee"/></g></g></g><path id="Path_2304" data-name="Path 2304" d="M-451.33,775.17a11.4,11.4,0,0,0-.323-2.579,22.259,22.259,0,0,0-1.1-2.753,2.628,2.628,0,0,0-.388-.549,12.529,12.529,0,0,1-1.137-1.46c-.608-1.074-1.128-2.2-1.693-3.292a1.351,1.351,0,0,0-1.083-.739c-.489-.07-.97-.195-1.46-.26a48.81,48.81,0,0,0-9.513-.326c-1.743.1-3.474.385-5.211.578a1.485,1.485,0,0,0-1.205.841c-.35.654-.687,1.312-1.024,1.973-.511,1.007-.821,2.142-1.863,2.806-.14.09-.207.311-.282.483-.276.646-.577,1.286-.8,1.952a10.7,10.7,0,0,0-.581,2.243,20.673,20.673,0,0,0,0,2.962,10.065,10.065,0,0,0,.8,3.882c.084.18.286.306.434.457.344-1.035.588-1.933.946-2.785a2.024,2.024,0,0,1,1.79-1.223c.675-.062,1.353-.122,2.031-.148,1.968-.071,3.939-.164,5.907-.178q3.787-.028,7.572.065c1.306.029,2.608.191,3.916.25a2.128,2.128,0,0,1,2.092,1.29c.35.853.6,1.749.92,2.719a1.891,1.891,0,0,0,.414-.4,4.321,4.321,0,0,0,.334-.844A14.912,14.912,0,0,0-451.33,775.17Zm-19.5-4.693a4.431,4.431,0,0,1-2.9,1.146c-.949.046-1.9.076-2.851.125a.781.781,0,0,1-.887-.759c-.194-1.1.175-1.614,1.272-1.493,1.805.2,3.6.506,5.4.766Zm6.014-.219c-.073.058-.219.026-.282.03-.629,0-1.079-.282-1.089-.661s.482-.725,1.062-.707c.129,0,.3-.008.379.065.221.2.574.456.556.658C-464.214,769.869-464.581,770.073-464.819,770.258Zm-.323-1.781q-.969,0-1.936,0h-2.133c-1.042,0-2.086,0-3.126-.011a13.756,13.756,0,0,1-1.818-.168c-.4-.056-.983-.065-1.005-.564a2.367,2.367,0,0,1,.391-1.519,5.163,5.163,0,0,1,3.48-1.644,48.157,48.157,0,0,1,12.3.011,5.722,5.722,0,0,1,3.41,1.566,1.693,1.693,0,0,1,.408,1.583c-.03.186-.349.421-.57.463a12.445,12.445,0,0,1-2.147.267c-1.07.014-2.139.017-3.209.017C-462.445,768.481-463.793,768.475-465.142,768.477Zm11.038,3.273c-1.076-.1-2.159-.117-3.234-.221a4.255,4.255,0,0,1-2.31-1.157c1.2-.235,2.284-.481,3.381-.652.821-.13,1.658-.167,2.488-.231a.744.744,0,0,1,.9.774C-452.791,771.236-452.909,771.857-454.1,771.749Z" transform="translate(481.996 -736.652)" fill="#3acce1"/><path id="Path_2305" data-name="Path 2305" d="M541.333-408.174l3.72,4.783,13.816-15.942" transform="translate(-541.333 419.333)" fill="none" stroke="#3acce1" stroke-width="2"/></g></svg>