<svg id="off-road-parking-bay" xmlns="http://www.w3.org/2000/svg" width="76.073" height="44.336" viewBox="0 0 76.073 44.336"><g id="Group_277" data-name="Group 277" transform="translate(0 0)"><g id="Group_251" data-name="Group 251" transform="translate(18.883 0)"><g id="Group_184" data-name="Group 184"><path id="Path_2242" data-name="Path 2242" d="M-397.51,748.4h-6l-25.594,44.336h57.191Z" transform="translate(429.107 -748.403)" fill="#262626"/></g><g id="Group_188" data-name="Group 188" transform="translate(25.763)"><g id="Group_185" data-name="Group 185" transform="translate(0 41.167)"><path id="Path_2243" data-name="Path 2243" d="M-316.442,922.55h-5.665q.09-1.584.181-3.169h5.3Z" transform="translate(322.107 -919.381)" fill="#eee"/></g><g id="Group_186" data-name="Group 186" transform="translate(0.492 8.597)"><path id="Path_2244" data-name="Path 2244" d="M-315.383,811.25h-4.682q.155-2.714.31-5.428h4.061Q-315.538,808.536-315.383,811.25ZM-316,800.393h-3.44q.155-2.714.31-5.428h2.819Q-316.159,797.679-316,800.393Zm-.621-10.857h-2.2q.156-2.714.31-5.428h1.578Q-316.78,786.822-316.625,789.536Z" transform="translate(320.065 -784.108)" fill="#eee"/></g><g id="Group_187" data-name="Group 187" transform="translate(2.354)"><path id="Path_2245" data-name="Path 2245" d="M-311.374,751.572h-.957q.091-1.584.181-3.169h.595Q-311.464,749.988-311.374,751.572Z" transform="translate(312.331 -748.403)" fill="#eee"/></g></g><g id="Group_191" data-name="Group 191" transform="translate(1.779)"><g id="Group_189" data-name="Group 189"><path id="Path_2246" data-name="Path 2246" d="M-419.974,792.739h-1.743l24-44.336h.183Z" transform="translate(421.717 -748.403)" fill="#eee"/></g><g id="Group_190" data-name="Group 190" transform="translate(29.448)"><path id="Path_2247" data-name="Path 2247" d="M-275.228,792.739h-1.743L-299.412,748.4h.183Z" transform="translate(299.412 -748.403)" fill="#eee"/></g></g></g><g id="Group_252" data-name="Group 252" transform="translate(0 5.215)"><path id="Path_2289" data-name="Path 2289" d="M55-913.169v-1.1c.02-.146.036-.293.06-.439a6.484,6.484,0,0,1,1.81-3.633,6.5,6.5,0,0,1,6.071-1.933,6.473,6.473,0,0,1,4.1,2.578,6.506,6.506,0,0,1,1.264,3.052,7.138,7.138,0,0,1-.2,2.94c-.016.059-.025.12-.039.195.084,0,.147.009.211.009h2.465q2.264,0,4.529,0a2.543,2.543,0,0,1,1.464.407,3.156,3.156,0,0,1,1.234,1.748,3.021,3.021,0,0,0,.11.354c.451.98.907,1.957,1.359,2.936a.185.185,0,0,0,.194.123c.282-.005.565.006.846,0a.5.5,0,0,1,.411.165,3.134,3.134,0,0,1,.829,1.939c.009.109-.03.15-.142.147-.257-.006-.515,0-.772,0-.179,0-.188.008-.188.181q0,1.663,0,3.326c0,1.767,0,3.534,0,5.3a.988.988,0,0,1-.6.96,1.838,1.838,0,0,1-.3.121,3.24,3.24,0,0,1-1.687.03.916.916,0,0,1-.785-.971c-.009-.312,0-.624,0-.935,0-.221,0-.221-.223-.22H65.242c-.2,0-.206.009-.209.21,0,.366,0,.732-.017,1.1a.768.768,0,0,1-.73.842,8.758,8.758,0,0,1-1.331.05,1.73,1.73,0,0,1-.861-.251.813.813,0,0,1-.426-.747c0-.233,0-.465,0-.7q0-1.5,0-3,0-1.462,0-2.925c0-.742,0-1.485,0-2.227,0-.107-.034-.151-.145-.149-.272.006-.544,0-.817,0-.113,0-.163-.033-.155-.153a6.949,6.949,0,0,1,.038-.71,3.944,3.944,0,0,1,.223-.84.855.855,0,0,1,.828-.547c.336-.005.673,0,1.01,0a.171.171,0,0,0,.181-.1c.185-.377.376-.752.563-1.128a.289.289,0,0,0,.011-.069c-.225.038-.438.073-.651.111a6.264,6.264,0,0,1-3.688-.443,6.587,6.587,0,0,1-3.8-4.27A12.892,12.892,0,0,1,55-913.169Zm16.143,8.342h2.97c.713,0,1.426,0,2.138-.008a.985.985,0,0,0,.952-.791c.042-.192.088-.384.123-.578a.457.457,0,0,0-.014-.189c-.181-.7-.366-1.407-.546-2.112a1.511,1.511,0,0,0-.268-.621c-.355-.425-.711-.85-1.074-1.268a.285.285,0,0,0-.2-.071q-3.794,0-7.588,0a.248.248,0,0,0-.254.151,5.384,5.384,0,0,1-1.792,1.984.376.376,0,0,0-.164.233c-.138.511-.275,1.022-.425,1.529a.77.77,0,0,0,0,.587.723.723,0,0,1,.037.233.984.984,0,0,0,.745.882,1.715,1.715,0,0,0,.411.041Q68.671-904.824,71.143-904.827Zm-11.677-8.89h0q0,1.574,0,3.148c0,.173.007.18.173.181q.356,0,.713,0c.194,0,.194,0,.194-.2,0-.624,0-1.248,0-1.871,0-.1.018-.155.142-.141a7.583,7.583,0,0,0,1.909-.012,3.711,3.711,0,0,0,1.483-.488,1.955,1.955,0,0,0,.678-2.614,2.237,2.237,0,0,0-1.073-.857,6.417,6.417,0,0,0-1.928-.45,12.536,12.536,0,0,0-2.105-.03c-.18.011-.188.016-.188.2Q59.466-915.283,59.466-913.716Zm6.1,11.144a1.692,1.692,0,0,0-1.649,1.684,1.7,1.7,0,0,0,1.647,1.628,1.708,1.708,0,0,0,1.662-1.664A1.7,1.7,0,0,0,65.568-902.572Zm12.78,1.67a1.689,1.689,0,0,0-1.644-1.671,1.7,1.7,0,0,0-1.662,1.642,1.7,1.7,0,0,0,1.647,1.67A1.689,1.689,0,0,0,78.349-900.9Z" transform="translate(-55 920.398)" fill="#3acce1"/><path id="Path_2290" data-name="Path 2290" d="M241.763-770.73c0-.331,0-.663,0-.994,0-.09.027-.138.123-.144a6.645,6.645,0,0,1,2.208.148,2.472,2.472,0,0,1,.634.277.793.793,0,0,1,.383.862.76.76,0,0,1-.353.458,2.605,2.605,0,0,1-1.17.394c-.548.063-1.1.088-1.653.123-.167.01-.17,0-.171-.175,0-.316,0-.633,0-.949Z" transform="translate(-236.215 776.305)" fill="#3acce1"/></g></g></svg>