<svg id="road-shoulder" xmlns="http://www.w3.org/2000/svg" width="66.679" height="44.336" viewBox="0 0 66.679 44.336">
  <g id="Group_253" data-name="Group 253" transform="translate(9.488)">
    <g id="Group_184" data-name="Group 184">
      <path id="Path_2242" data-name="Path 2242" d="M-397.51,748.4h-6l-25.594,44.336h57.191Z" transform="translate(429.107 -748.403)" fill="#262626"/>
    </g>
    <g id="Group_188" data-name="Group 188" transform="translate(25.763)">
      <g id="Group_185" data-name="Group 185" transform="translate(0 41.167)">
        <path id="Path_2243" data-name="Path 2243" d="M-316.442,922.55h-5.665q.09-1.584.181-3.169h5.3Z" transform="translate(322.107 -919.381)" fill="#eee"/>
      </g>
      <g id="Group_186" data-name="Group 186" transform="translate(0.492 8.597)">
        <path id="Path_2244" data-name="Path 2244" d="M-315.383,811.25h-4.682q.155-2.714.31-5.428h4.061Q-315.538,808.536-315.383,811.25ZM-316,800.393h-3.44q.155-2.714.31-5.428h2.819Q-316.159,797.679-316,800.393Zm-.621-10.857h-2.2q.156-2.714.31-5.428h1.578Q-316.78,786.822-316.625,789.536Z" transform="translate(320.065 -784.108)" fill="#eee"/>
      </g>
      <g id="Group_187" data-name="Group 187" transform="translate(2.354)">
        <path id="Path_2245" data-name="Path 2245" d="M-311.374,751.572h-.957q.091-1.584.181-3.169h.595Q-311.464,749.988-311.374,751.572Z" transform="translate(312.331 -748.403)" fill="#eee"/>
      </g>
    </g>
    <g id="Group_191" data-name="Group 191" transform="translate(1.779)">
      <g id="Group_189" data-name="Group 189">
        <path id="Path_2246" data-name="Path 2246" d="M-419.974,792.739h-1.743l24-44.336h.183Z" transform="translate(421.717 -748.403)" fill="#eee"/>
      </g>
      <g id="Group_190" data-name="Group 190" transform="translate(29.448)">
        <path id="Path_2247" data-name="Path 2247" d="M-275.228,792.739h-1.743L-299.412,748.4h.183Z" transform="translate(299.412 -748.403)" fill="#eee"/>
      </g>
    </g>
  </g>
  <path id="Path_2309" data-name="Path 2309" d="M27.712,12.054a11.4,11.4,0,0,0-.323-2.579,22.27,22.27,0,0,0-1.1-2.753,2.625,2.625,0,0,0-.388-.548,12.544,12.544,0,0,1-1.137-1.46c-.608-1.074-1.128-2.2-1.693-3.292A1.351,1.351,0,0,0,21.992.683c-.489-.07-.971-.195-1.46-.261A48.807,48.807,0,0,0,11.02.1C9.277.2,7.546.481,5.809.673A1.485,1.485,0,0,0,4.6,1.514c-.35.653-.687,1.312-1.024,1.973C3.069,4.495,2.759,5.63,1.717,6.294c-.14.09-.207.311-.282.483-.276.646-.577,1.286-.8,1.952a10.7,10.7,0,0,0-.58,2.243,20.665,20.665,0,0,0,0,2.962,10.063,10.063,0,0,0,.8,3.882c.084.18.286.306.434.457.344-1.035.588-1.933.946-2.785a2.024,2.024,0,0,1,1.79-1.223c.675-.062,1.353-.122,2.031-.148,1.968-.071,3.938-.164,5.907-.178q3.787-.028,7.572.066c1.306.029,2.608.19,3.916.25a2.128,2.128,0,0,1,2.092,1.29c.351.853.6,1.749.92,2.72a1.89,1.89,0,0,0,.414-.4,4.318,4.318,0,0,0,.334-.844A14.911,14.911,0,0,0,27.712,12.054ZM8.21,7.362a4.431,4.431,0,0,1-2.9,1.146c-.949.046-1.9.076-2.851.125a.781.781,0,0,1-.887-.759c-.193-1.1.175-1.614,1.272-1.493,1.805.2,3.6.506,5.4.767Zm6.014-.219c-.073.058-.219.026-.282.03-.629,0-1.079-.282-1.089-.661s.482-.725,1.062-.707c.129,0,.3-.008.379.066.221.2.574.456.556.658C14.828,6.754,14.461,6.958,14.224,7.143ZM13.9,5.361q-.969,0-1.936,0H9.831c-1.042,0-2.086,0-3.126-.011a13.771,13.771,0,0,1-1.818-.168c-.4-.056-.983-.066-1.006-.564A2.366,2.366,0,0,1,4.273,3.1,5.162,5.162,0,0,1,7.753,1.46a48.154,48.154,0,0,1,12.3.011,5.722,5.722,0,0,1,3.41,1.566,1.693,1.693,0,0,1,.408,1.583c-.03.186-.349.421-.57.463a12.454,12.454,0,0,1-2.147.267c-1.07.014-2.139.017-3.209.017C16.6,5.366,15.249,5.36,13.9,5.361ZM24.939,8.634c-1.076-.1-2.159-.117-3.235-.221a4.255,4.255,0,0,1-2.31-1.157c1.2-.235,2.284-.481,3.381-.652.821-.13,1.658-.168,2.488-.231a.744.744,0,0,1,.9.774C26.251,8.121,26.133,8.742,24.939,8.634Z" transform="translate(0 22.682) rotate(-11)" fill="#2e3094"/>
</svg>
