<svg id="wrong-road-lane-but-right-side-of-road" xmlns="http://www.w3.org/2000/svg" width="64.732" height="47.83" viewBox="0 0 64.732 47.83">
  <g id="Group_261" data-name="Group 261">
    <g id="Group_260" data-name="Group 260" transform="translate(0 0)">
      <g id="Group_254" data-name="Group 254" transform="translate(0 6.37)">
        <g id="Group_184" data-name="Group 184">
          <path id="Path_2242" data-name="Path 2242" d="M-404.1,748.4h-4.751l-20.256,35.089h45.263Z" transform="translate(429.107 -748.403)" fill="#262626"/>
        </g>
        <g id="Group_191" data-name="Group 191" transform="translate(1.408)">
          <g id="Group_189" data-name="Group 189">
            <path id="Path_2246" data-name="Path 2246" d="M-420.337,783.492h-1.38l19-35.089h.145Z" transform="translate(421.717 -748.403)" fill="#eee"/>
          </g>
          <g id="Group_190" data-name="Group 190" transform="translate(23.306)">
            <path id="Path_2247" data-name="Path 2247" d="M-280.272,783.492h-1.38L-299.412,748.4h.145Z" transform="translate(299.412 -748.403)" fill="#eee"/>
          </g>
        </g>
        <g id="Group_255" data-name="Group 255" transform="translate(23.337 0.04) rotate(13)">
          <g id="Group_185" data-name="Group 185" transform="translate(0 32.581)">
            <path id="Path_2243" data-name="Path 2243" d="M2.909,2.508H0Q.047,1.254.093,0H2.816Z" transform="translate(0 0)" fill="#eee"/>
          </g>
          <g id="Group_186" data-name="Group 186" transform="translate(0.389 6.804)">
            <path id="Path_2244" data-name="Path 2244" d="M2.131,21.481H0q.071-2.148.141-4.3H1.989Q2.06,19.333,2.131,21.481Zm-.283-8.592H.282q.071-2.148.141-4.3H1.707Q1.778,10.741,1.848,12.889ZM1.566,4.3h-1Q.636,2.148.706,0h.718Q1.495,2.148,1.566,4.3Z" transform="translate(0 0)" fill="#eee"/>
          </g>
          <g id="Group_187" data-name="Group 187" transform="translate(1.076 0)">
            <path id="Path_2245" data-name="Path 2245" d="M.757,2.508H0L.144,0H.614Q.686,1.254.757,2.508Z" transform="translate(0 0)" fill="#eee"/>
          </g>
        </g>
      </g>
      <path id="Path_2318" data-name="Path 2318" d="M1303.187-139h6.231l34.32,35.035h-22.88Z" transform="translate(-1279.006 145.37)" fill="#262626"/>
      <g id="Group_256" data-name="Group 256" transform="matrix(0.891, -0.454, 0.454, 0.891, 25.827, 7.625)">
        <g id="Group_185-2" data-name="Group 185" transform="translate(0 36.811)">
          <path id="Path_2243-2" data-name="Path 2243" d="M2.934,2.508H0Q.047,1.254.094,0H2.84Z" transform="translate(0 0)" fill="#eee"/>
        </g>
        <g id="Group_186-2" data-name="Group 186" transform="translate(0.389 8.919)">
          <path id="Path_2244-2" data-name="Path 2244" d="M2.156,21.481H0q.071-2.148.143-4.3h1.87Q2.085,19.333,2.156,21.481ZM1.87,12.889H.286q.071-2.148.143-4.3h1.3Q1.8,10.741,1.87,12.889ZM1.584,4.3H.572Q.643,2.148.715,0h.727Q1.513,2.148,1.584,4.3Z" transform="translate(0 0)" fill="#eee"/>
        </g>
        <g id="Group_187-2" data-name="Group 187" transform="translate(1.088 0)">
          <path id="Path_2245-2" data-name="Path 2245" d="M.757,2.508H0L.144,0H.614Q.686,1.254.757,2.508Z" transform="translate(0 0)" fill="#eee"/>
        </g>
      </g>
      <g id="keyboard_return-24px" transform="translate(55.58 38.993) rotate(180)">
        <path id="Path_2255" data-name="Path 2255" d="M0,9.679H10.569V0H0Z" transform="translate(0 0)" fill="none"/>
        <path id="Path_2256" data-name="Path 2256" d="M11.957,10.263,7.62,2.823H1.645L3.182,4.271l-.606.569L0,2.42,2.577,0l.606.569L1.645,2.016H8.16l4.491,7.726Z" transform="translate(0.963 0.338)" fill="#fff"/>
      </g>
      <g id="Group_258" data-name="Group 258" transform="matrix(-0.996, 0.087, -0.087, -0.996, 33.908, 40.002)">
        <path id="Path_2273" data-name="Path 2273" d="M0,0V11.5" transform="translate(3.309 1.58)" fill="none" stroke="#fff" stroke-width="1"/>
        <path id="Path_2274" data-name="Path 2274" d="M4.039,5.772l-2.5-2.5,2.5-2.5L3.27,0,0,3.27l3.27,3.27Z" transform="translate(6.541 0) rotate(90)" fill="#fff"/>
      </g>
      <path id="Path_2319" data-name="Path 2319" d="M21.867,43.2h1.7L.178,0H0Z" transform="matrix(0.966, -0.259, 0.259, 0.966, 29.401, 6.099)" fill="#eee"/>
      <g id="Group_259" data-name="Group 259" transform="translate(19.744 20.647)">
        <path id="Path_2321" data-name="Path 2321" d="M1329.38-145.009l-2.3,1.226,1.726.8,2.977-.3.15-1.526-.751-.8Z" transform="translate(-1315.842 150.21)" fill="#bacf00"/>
        <path id="Path_2320" data-name="Path 2320" d="M1324.6-147.459l-1.176.6-2.252,3.878-.7.951,1.026,1.626,2.2,1.626,3.7.851s5.479-.4,5.529-.525.476-2.477.476-2.477a35.441,35.441,0,0,0-3.6-1c-.575-.025-4.553-.55-4.553-.55l-.876-1.676s4.553.15,4.678.15,4.228-.15,4.228-.15l.8-.9-.8-1.976-2.527-.951Z" transform="translate(-1319.816 148.783)" fill="#fff"/>
        <path id="_ionicons_svg_logo-model-s" d="M15.147,4.137a.147.147,0,0,1,.048-.269l.2-.041a2.2,2.2,0,0,0,.942-.2.414.414,0,0,0,.155-.3.7.7,0,0,0-.177-.409,2.09,2.09,0,0,0-.872-.228c-.283-.037-.32,0-.394.044s-.1.35-.114.552a.1.1,0,0,1-.077.092l-.015,0a.25.25,0,0,1-.287-.158,12.208,12.208,0,0,0-.714-1.782A2.115,2.115,0,0,0,12.787.375,8.533,8.533,0,0,0,11.2.151,28.212,28.212,0,0,0,8.242,0,28.317,28.317,0,0,0,5.275.151,7.8,7.8,0,0,0,3.692.375,2.115,2.115,0,0,0,2.643,1.443a13.053,13.053,0,0,0-.751,1.888.127.127,0,0,1-.14.077.262.262,0,0,1-.206-.239c-.015-.184-.044-.394-.107-.431s-.11-.081-.394-.044a2.107,2.107,0,0,0-.872.228A.715.715,0,0,0,0,3.331a.421.421,0,0,0,.155.306,2.132,2.132,0,0,0,.942.2l.2.04a.147.147,0,0,1,.048.269,5.792,5.792,0,0,0-1.189.942A18.135,18.135,0,0,0,0,7.373a29.735,29.735,0,0,0,.213,3.4l.2.033c0,.044.026.482.074.78a.212.212,0,0,0,.228.2H3.092c.07,0,.188-.059.188-.136l.037-.626c.265,0,.118,0,.4,0,.913-.011.574-.276,1-.269s2.024.11,3.534.11,3.118-.1,3.534-.11.085.261,1,.269c.283,0,.173,0,.438,0l.037.626c0,.077.118.136.188.136H15.78a.212.212,0,0,0,.228-.2c.048-.3.07-.732.074-.78l.2-.033a29.65,29.65,0,0,0,.213-3.4,18.059,18.059,0,0,0-.151-2.286A5.818,5.818,0,0,0,15.147,4.137ZM3.361,2.164a3.491,3.491,0,0,1,.368-.633,1.178,1.178,0,0,1,.758-.46A24.1,24.1,0,0,1,8.238.8a24.1,24.1,0,0,1,3.751.269,1.178,1.178,0,0,1,.758.46,3.318,3.318,0,0,1,.372.633,4.932,4.932,0,0,1,.346,1.222c-.037.092.037.136-.449.1S9.681,3.4,8.242,3.4s-4.3.04-4.774.077-.416-.007-.449-.1A5.1,5.1,0,0,1,3.361,2.164Zm.309,4.27c-.364,0-1.1-.037-1.27-.044s-.324.14-.412.14S1.049,6.4.957,5.981a2.2,2.2,0,0,1-.022-.718.153.153,0,0,1,.14-.129,6.074,6.074,0,0,1,2.036.291,4.294,4.294,0,0,1,1.358.655.149.149,0,0,1-.063.265A4.826,4.826,0,0,1,3.67,6.434Zm7.745,2.687c-.467.063-2.153.081-3.173.081s-2.705-.018-3.173-.081-1.1-.637-.677-1.112c.28-.313.766-.5,1.8-.637a17.007,17.007,0,0,1,2.047-.158,17.006,17.006,0,0,1,2.047.158c1.034.136,1.59.353,1.8.637C12.467,8.518,11.9,9.055,11.414,9.121Zm4.112-3.136c-.092.412-.942.548-1.031.548s-.239-.144-.412-.14-.906.044-1.27.044a4.935,4.935,0,0,1-.736-.088.148.148,0,0,1-.063-.265,4.292,4.292,0,0,1,1.358-.655,6.062,6.062,0,0,1,2.036-.291.143.143,0,0,1,.14.129A2.2,2.2,0,0,1,15.526,5.985Z" transform="translate(0 0.863) rotate(-3)" fill="#2e3094"/>
        <path id="Path_2322" data-name="Path 2322" d="M1329.078-144.659v-1.294" transform="translate(-1314.69 149.604)" fill="none" stroke="#bacf00" stroke-width="0.5"/>
        <path id="Path_2323" data-name="Path 2323" d="M1330.172-145.028l1.6-.425" transform="translate(-1313.982 150.304)" fill="none" stroke="#bacf00" stroke-width="0.5"/>
        <path id="Path_2324" data-name="Path 2324" d="M1329.139-144.709l.634-1.285" transform="translate(-1313.646 149.602)" fill="none" stroke="#bacf00" stroke-width="0.5"/>
        <path id="Path_2325" data-name="Path 2325" d="M1330.172-145.045l1.629.251" transform="translate(-1313.982 151.362)" fill="none" stroke="#bacf00" stroke-width="0.5"/>
        <path id="Path_2326" data-name="Path 2326" d="M1330.58-145.476l1.073,1.139" transform="translate(-1315.006 152.386)" fill="none" stroke="#bacf00" stroke-width="0.5"/>
        <path id="Path_2327" data-name="Path 2327" d="M1330.721-145.3l.081,1.5" transform="translate(-1316.042 152.393)" fill="none" stroke="#bacf00" stroke-width="0.5"/>
      </g>
    </g>
  </g>
</svg>
