<svg xmlns="http://www.w3.org/2000/svg" width="24" height="17.166" viewBox="0 0 24 17.166">
  <path id="Path_6242" data-name="Path 6242" d="M112.857,675a.569.569,0,0,1,.367.133l11.633,5.288v-1.4a.572.572,0,0,1,.572-.572h1.142a4.268,4.268,0,0,1,2.875,1.3,7.091,7.091,0,0,1,.762.856c.088.117.156.215.2.286l.054.084.015.023,2.28,3.42a.58.58,0,0,1,.072.151,2.217,2.217,0,0,1,.605.449,2.089,2.089,0,0,1,.562,1.432v1.714a1.716,1.716,0,0,1-1.184,1.631,2.858,2.858,0,0,1-5.616.083h-9.257a2.858,2.858,0,0,1-5.616-.083,1.716,1.716,0,0,1-1.184-1.631v-3.372a.571.571,0,0,1,.571-.571h8.648l-6.933-5.2v1.12a1.715,1.715,0,0,1-3.429,0,.571.571,0,1,1,1.143,0,.572.572,0,0,0,1.143,0v-4.572A.571.571,0,0,1,112.857,675Zm2.286,11.451a2.859,2.859,0,0,1,2.8,2.286H127.2a2.858,2.858,0,0,1,5.543-.229.565.565,0,0,0,.114-.342v-1.714a.939.939,0,0,0-.249-.646,1.923,1.923,0,0,0-1.465-.44H112.286v2.8a.57.57,0,0,0,.113.342A2.861,2.861,0,0,1,115.143,686.451Zm14.382-4.825,1.732,2.6H126v-4.629h.571a3.141,3.141,0,0,1,2.088.986,5.813,5.813,0,0,1,.637.716c.073.1.129.178.166.232l.04.061.008.014v0Zm-16.1-5.144,11.428,5.2v2.546h-2.59l-8.838-6.629Zm1.714,11.112a1.715,1.715,0,1,0,1.714,1.715A1.714,1.714,0,0,0,115.143,687.594Zm14.857,0a1.715,1.715,0,1,0,1.714,1.715A1.714,1.714,0,0,0,130,687.594Z" transform="translate(-110 -675)" fill="#fff" fill-rule="evenodd"/>
</svg>
