<svg xmlns="http://www.w3.org/2000/svg" width="58.545" height="41.874" viewBox="0 0 58.545 41.874">
  <path id="Path_6398" data-name="Path 6398" d="M116.969,675a1.388,1.388,0,0,1,.9.324l28.377,12.9v-3.41a1.4,1.4,0,0,1,1.4-1.4h2.786a10.412,10.412,0,0,1,7.013,3.171,17.3,17.3,0,0,1,1.859,2.088c.215.285.381.525.5.7q.084.128.132.2l.037.056,5.562,8.343a1.415,1.415,0,0,1,.176.368,5.407,5.407,0,0,1,1.476,1.1,5.1,5.1,0,0,1,1.371,3.493v4.181a4.186,4.186,0,0,1-2.888,3.979,6.972,6.972,0,0,1-13.7.2H129.376a6.972,6.972,0,0,1-13.7-.2,4.186,4.186,0,0,1-2.888-3.979v-8.226a1.394,1.394,0,0,1,1.393-1.393h21.1l-16.912-12.685v2.732a4.182,4.182,0,0,1-8.365,0,1.394,1.394,0,1,1,2.788,0,1.394,1.394,0,0,0,2.788,0V676.393A1.394,1.394,0,0,1,116.969,675Zm5.576,27.933a6.974,6.974,0,0,1,6.83,5.576h22.581a6.971,6.971,0,0,1,13.521-.559,1.377,1.377,0,0,0,.278-.834v-4.181a2.291,2.291,0,0,0-.607-1.576c-.459-.483-1.437-1.073-3.574-1.073h-46v6.83a1.391,1.391,0,0,0,.276.834A6.978,6.978,0,0,1,122.546,702.933Zm35.083-11.77,4.225,6.338c-.093,0-.185,0-.278,0H149.03V686.207h1.393a7.661,7.661,0,0,1,5.093,2.405,14.183,14.183,0,0,1,1.554,1.747c.178.237.315.434.4.566.044.066.076.117.1.149l.02.034,0,0C157.607,691.129,157.617,691.146,157.629,691.163Zm-39.264-12.548,27.877,12.672V697.5h-6.318l-21.559-16.171Zm4.181,27.106a4.182,4.182,0,1,0,4.181,4.184A4.182,4.182,0,0,0,122.546,705.721Zm36.242,0a4.182,4.182,0,1,0,4.181,4.184A4.182,4.182,0,0,0,158.787,705.721Z" transform="translate(-110 -675)" fill="#03a" fill-rule="evenodd"/>
</svg>
