<svg width="911" height="495" viewBox="0 0 911 495" fill="none" xmlns="http://www.w3.org/2000/svg">
<path opacity="0.6" d="M123.713 179.392C84.5376 186.582 26.8735 188.146 8.44199 230.191C7.43538 232.503 6.57079 234.875 5.85191 237.293C-14.7848 306.469 20.3844 377.668 93.4721 418.006C159.546 454.465 221.197 468.333 301.159 477.672C377.615 486.594 411.331 446.667 503.69 450.926C585.138 454.717 676.246 520.198 756.436 482.627C778.65 471.328 798.001 455.122 813.026 435.238C836.714 405.745 854.13 371.727 864.207 335.266C882.569 268.61 874.089 193.41 834.711 136.58C795.403 79.8705 732.008 48.3544 668.632 26.0875C589.984 -1.53759 422.743 -26.4766 335.836 58.3131C323.547 70.3059 244.753 157.194 123.713 179.392Z" fill="#B8DDF5"/>
<path fill-rule="evenodd" clip-rule="evenodd" d="M542.035 331.148L487.353 338.099L489.989 393.153L450.459 354.741L409.053 391.126L414.437 336.267L360.172 326.579L406.418 296.587L380.158 248.127L432.445 265.58L453.96 214.834L472.916 266.592L525.992 251.774L497.343 298.867L542.035 331.148Z" fill="#FFC060"/>
<path d="M412.409 294.231L52.4557 224.149C49.9681 223.664 47.4092 223.676 44.9254 224.18C42.4415 224.684 40.0814 225.673 37.9796 227.089C35.8779 228.506 34.0757 230.32 32.6761 232.433C31.2765 234.546 30.3065 236.915 29.8222 239.402L13.0144 325.71L434.019 407.673L448.242 335.9L429.122 331.143L448.242 319.724L429.11 315.732L440.085 303.548L422.702 307.075L412.409 294.231Z" fill="#B8DDF5" stroke="#00338A" stroke-linejoin="round"/>
<path d="M378.03 287.531C378.03 287.531 338.09 225.512 321.162 200.332C304.235 175.152 272.635 169.038 272.635 169.038L156.858 146.491C114.757 138.277 85.5147 176.298 85.5147 176.298L32.3755 232.919L378.03 287.531Z" fill="white" stroke="#00338A" stroke-linecap="round" stroke-linejoin="round"/>
<path d="M436.495 382.717L17.488 301.141L12.6472 326.005L431.654 407.581L436.495 382.717Z" fill="#69AEE1" stroke="#00338A" stroke-linejoin="round"/>
<path d="M355.314 457.26C384.924 457.26 408.928 433.257 408.928 403.647C408.928 374.037 384.924 350.033 355.314 350.033C325.704 350.033 301.7 374.037 301.7 403.647C301.7 433.257 325.704 457.26 355.314 457.26Z" fill="#00338A"/>
<path d="M81.6603 403.984C111.27 403.984 135.274 379.98 135.274 350.37C135.274 320.76 111.27 296.757 81.6603 296.757C52.0503 296.757 28.0466 320.76 28.0466 350.37C28.0466 379.98 52.0503 403.984 81.6603 403.984Z" fill="#00338A"/>
<path d="M198.935 154.726L159.999 354.705" stroke="#00338A" stroke-miterlimit="10"/>
<path d="M355.314 428.121C368.83 428.121 379.786 417.164 379.786 403.649C379.786 390.133 368.83 379.177 355.314 379.177C341.799 379.177 330.842 390.133 330.842 403.649C330.842 417.164 341.799 428.121 355.314 428.121Z" fill="#E7F4FC" stroke="#00338A" stroke-linejoin="round"/>
<path d="M81.6608 374.841C95.1763 374.841 106.133 363.885 106.133 350.369C106.133 336.854 95.1763 325.897 81.6608 325.897C68.1452 325.897 57.1887 336.854 57.1887 350.369C57.1887 363.885 68.1452 374.841 81.6608 374.841Z" fill="#E7F4FC" stroke="#00338A" stroke-linejoin="round"/>
<path d="M151.657 271.701L176.736 276.586" stroke="#00338A" stroke-miterlimit="10" stroke-linecap="round"/>
<path d="M834.076 292.382C834.076 292.382 783.122 238.769 761.677 217.323C740.231 195.878 708.063 195.878 708.063 195.878H590.12C547.229 195.878 525.783 238.769 525.783 238.769L482.893 303.106L834.076 292.382Z" fill="white" stroke="#00338A" stroke-linecap="round" stroke-linejoin="round"/>
<path d="M909.135 399.61H480.226V311.686C480.226 309.151 480.726 306.642 481.696 304.3C482.666 301.958 484.088 299.83 485.88 298.037C487.673 296.245 489.8 294.824 492.142 293.854C494.484 292.883 496.994 292.382 499.529 292.382H866.244C877.619 292.382 888.529 296.901 896.573 304.945C904.616 312.989 909.135 323.898 909.135 335.273V399.61Z" fill="#B8DDF5" stroke="#00338A" stroke-linejoin="round"/>
<path d="M909.767 374.271H482.893V399.603H909.767V374.271Z" fill="#69AEE1" stroke="#00338A" stroke-linejoin="round"/>
<path d="M834.076 463.946C863.686 463.946 887.69 439.943 887.69 410.333C887.69 380.723 863.686 356.719 834.076 356.719C804.466 356.719 780.462 380.723 780.462 410.333C780.462 439.943 804.466 463.946 834.076 463.946Z" fill="#00338A"/>
<path d="M555.285 463.946C584.895 463.946 608.899 439.943 608.899 410.333C608.899 380.723 584.895 356.719 555.285 356.719C525.675 356.719 501.671 380.723 501.671 410.333C501.671 439.943 525.675 463.946 555.285 463.946Z" fill="#00338A"/>
<path d="M633.004 195.878V399.609" stroke="#00338A" stroke-miterlimit="10"/>
<path d="M834.069 434.797C847.585 434.797 858.542 423.841 858.542 410.325C858.542 396.81 847.585 385.853 834.069 385.853C820.554 385.853 809.597 396.81 809.597 410.325C809.597 423.841 820.554 434.797 834.069 434.797Z" fill="#E7F4FC" stroke="#00338A" stroke-linejoin="round"/>
<path d="M555.285 434.797C568.801 434.797 579.757 423.841 579.757 410.325C579.757 396.81 568.801 385.853 555.285 385.853C541.77 385.853 530.813 396.81 530.813 410.325C530.813 423.841 541.77 434.797 555.285 434.797Z" fill="#E7F4FC" stroke="#00338A" stroke-linejoin="round"/>
<path d="M651.088 311.307H676.634" stroke="#00338A" stroke-miterlimit="10" stroke-linecap="round"/>
<path d="M882.743 295.692V318.965C882.614 320.054 882.733 321.159 883.092 322.195C883.451 323.231 884.041 324.171 884.817 324.947C885.592 325.722 886.533 326.312 887.57 326.672C888.606 327.031 889.709 327.149 890.798 327.02H908.333C907.214 320.003 904.257 313.41 899.762 307.907C895.267 302.404 889.395 298.189 882.743 295.692V295.692Z" fill="#FF9D15" stroke="#00338A" stroke-linejoin="round"/>
</svg>
