<svg xmlns="http://www.w3.org/2000/svg" xmlns:xlink="http://www.w3.org/1999/xlink" width="41" height="56.172" viewBox="0 0 41 56.172"><defs><clipPath id="clip-path"><rect width="4" height="56" fill="none"/></clipPath></defs><g id="dual-carriageway" transform="translate(0.056)"><g id="Group_306" data-name="Group 306" transform="translate(0.169 0)"><g id="Group_282" data-name="Group 282" transform="translate(0)"><g id="Group_280" data-name="Group 280"><g id="Group_270" data-name="Group 270"><rect id="Rectangle_8" data-name="Rectangle 8" width="41" height="56" transform="translate(-0.225 0.172)" fill="#262626"/><g id="Repeat_Grid_1" data-name="Repeat Grid 1" transform="translate(19.775 0.172)" clip-path="url(#clip-path)"><g id="Group_268" data-name="Group 268" transform="translate(-508 -1045)">                <rect id="Rectangle_9" data-name="Rectangle 9" width="1" height="3" transform="translate(508 1045)" fill="#fff"/>                <rect id="Rectangle_10" data-name="Rectangle 10" width="1" height="3" transform="translate(508 1050)" fill="#fff"/></g><g id="Group_268-2" data-name="Group 268" transform="translate(-508 -1035)">                <rect id="Rectangle_9-2" data-name="Rectangle 9" width="1" height="3" transform="translate(508 1045)" fill="#fff"/>                <rect id="Rectangle_10-2" data-name="Rectangle 10" width="1" height="3" transform="translate(508 1050)" fill="#fff"/></g><g id="Group_268-3" data-name="Group 268" transform="translate(-508 -1025)">                <rect id="Rectangle_9-3" data-name="Rectangle 9" width="1" height="3" transform="translate(508 1045)" fill="#fff"/>                <rect id="Rectangle_10-3" data-name="Rectangle 10" width="1" height="3" transform="translate(508 1050)" fill="#fff"/></g><g id="Group_268-4" data-name="Group 268" transform="translate(-508 -1015)">                <rect id="Rectangle_9-4" data-name="Rectangle 9" width="1" height="3" transform="translate(508 1045)" fill="#fff"/>                <rect id="Rectangle_10-4" data-name="Rectangle 10" width="1" height="3" transform="translate(508 1050)" fill="#fff"/></g><g id="Group_268-5" data-name="Group 268" transform="translate(-508 -1005)">                <rect id="Rectangle_9-5" data-name="Rectangle 9" width="1" height="3" transform="translate(508 1045)" fill="#fff"/>                <rect id="Rectangle_10-5" data-name="Rectangle 10" width="1" height="3" transform="translate(508 1050)" fill="#fff"/></g><g id="Group_268-6" data-name="Group 268" transform="translate(-508 -995)">                <rect id="Rectangle_9-6" data-name="Rectangle 9" width="1" height="3" transform="translate(508 1045)" fill="#fff"/>                <rect id="Rectangle_10-6" data-name="Rectangle 10" width="1" height="3" transform="translate(508 1050)" fill="#fff"/></g></g><line id="Line_10" data-name="Line 10" y2="55.983" transform="translate(36.814)" fill="none" stroke="#fff" stroke-width="1"/><line id="Line_9" data-name="Line 9" y2="55.983" transform="translate(2.502)" fill="none" stroke="#fff" stroke-width="1"/></g></g><g id="arrow_downward-24px" transform="translate(19.746 18.879)"><path id="Path_2340" data-name="Path 2340" d="M0,0H19.174V19.174H0Z" transform="translate(0 0)" fill="none"/><path id="Path_2341" data-name="Path 2341" d="M16.782,10.391,15.656,9.265,11.19,13.723V4h-1.6v9.723L5.134,9.257,4,10.391l6.391,6.391Z" transform="translate(-0.804 -0.804)" fill="#fff"/></g><g id="arrow_upward-24px" transform="translate(2.203 19.141)"><path id="Path_2342" data-name="Path 2342" d="M0,0H19.174V19.174H0Z" transform="translate(0 0)" fill="none"/><path id="Path_2343" data-name="Path 2343" d="M4,10.391l1.126,1.126L9.592,7.06v9.723h1.6V7.06l4.458,4.466,1.134-1.134L10.391,4Z" transform="translate(-0.804 -0.804)" fill="#fff"/></g></g></g></g></svg>