<svg xmlns="http://www.w3.org/2000/svg" xmlns:xlink="http://www.w3.org/1999/xlink" width="54" height="41" viewBox="0 0 54 41"><defs><clipPath id="clip-path"><rect width="2" height="41" fill="none"/></clipPath><clipPath id="clip-path-2"><rect width="3" height="41" fill="none"/></clipPath></defs><g id="freeway" transform="translate(0.368 0.005)"><g id="Group_309" data-name="Group 309" transform="translate(0 0)"><g id="Group_286" data-name="Group 286" transform="translate(0 0)"><g id="Group_281" data-name="Group 281" transform="translate(0 0)"><g id="Group_271" data-name="Group 271"><rect id="Rectangle_8" data-name="Rectangle 8" width="29" height="41" transform="translate(-0.368 -0.005)" fill="#262626"/><g id="Repeat_Grid_1" data-name="Repeat Grid 1" transform="translate(14.632 -0.005)" clip-path="url(#clip-path)"><g id="Group_268" data-name="Group 268" transform="translate(-508 -1045)">                <rect id="Rectangle_9" data-name="Rectangle 9" width="1" height="3" transform="translate(508 1045)" fill="#fff"/>                <rect id="Rectangle_10" data-name="Rectangle 10" width="1" height="3" transform="translate(508 1050)" fill="#fff"/></g><g id="Group_268-2" data-name="Group 268" transform="translate(-508 -1035)">                <rect id="Rectangle_9-2" data-name="Rectangle 9" width="1" height="3" transform="translate(508 1045)" fill="#fff"/>                <rect id="Rectangle_10-2" data-name="Rectangle 10" width="1" height="3" transform="translate(508 1050)" fill="#fff"/></g><g id="Group_268-3" data-name="Group 268" transform="translate(-508 -1025)">                <rect id="Rectangle_9-3" data-name="Rectangle 9" width="1" height="3" transform="translate(508 1045)" fill="#fff"/>                <rect id="Rectangle_10-3" data-name="Rectangle 10" width="1" height="3" transform="translate(508 1050)" fill="#fff"/></g><g id="Group_268-4" data-name="Group 268" transform="translate(-508 -1015)">                <rect id="Rectangle_9-4" data-name="Rectangle 9" width="1" height="3" transform="translate(508 1045)" fill="#fff"/>                <rect id="Rectangle_10-4" data-name="Rectangle 10" width="1" height="3" transform="translate(508 1050)" fill="#fff"/></g><g id="Group_268-5" data-name="Group 268" transform="translate(-508 -1005)">                <rect id="Rectangle_9-5" data-name="Rectangle 9" width="1" height="3" transform="translate(508 1045)" fill="#fff"/>                <rect id="Rectangle_10-5" data-name="Rectangle 10" width="1" height="3" transform="translate(508 1050)" fill="#fff"/></g></g><line id="Line_10" data-name="Line 10" y2="40.037" transform="translate(26.753)" fill="none" stroke="#fff" stroke-width="1"/><line id="Line_9" data-name="Line 9" y2="40.037" transform="translate(2.215)" fill="none" stroke="#fff" stroke-width="1"/></g></g></g><g id="Group_287" data-name="Group 287" transform="translate(24.476 0)"><g id="Group_281-2" data-name="Group 281" transform="translate(0 0)"><g id="Group_271-2" data-name="Group 271" transform="translate(0)"><rect id="Rectangle_8-2" data-name="Rectangle 8" width="29" height="41" transform="translate(0.156 -0.005)" fill="#262626"/><g id="Repeat_Grid_1-2" data-name="Repeat Grid 1" transform="translate(14.156 -0.005)" clip-path="url(#clip-path-2)"><g id="Group_268-6" data-name="Group 268" transform="translate(-508 -1045)">                <rect id="Rectangle_9-6" data-name="Rectangle 9" width="1" height="3" transform="translate(508 1045)" fill="#fff"/>                <rect id="Rectangle_10-6" data-name="Rectangle 10" width="1" height="3" transform="translate(508 1050)" fill="#fff"/></g><g id="Group_268-7" data-name="Group 268" transform="translate(-508 -1035)">                <rect id="Rectangle_9-7" data-name="Rectangle 9" width="1" height="3" transform="translate(508 1045)" fill="#fff"/>                <rect id="Rectangle_10-7" data-name="Rectangle 10" width="1" height="3" transform="translate(508 1050)" fill="#fff"/></g><g id="Group_268-8" data-name="Group 268" transform="translate(-508 -1025)">                <rect id="Rectangle_9-8" data-name="Rectangle 9" width="1" height="3" transform="translate(508 1045)" fill="#fff"/>                <rect id="Rectangle_10-8" data-name="Rectangle 10" width="1" height="3" transform="translate(508 1050)" fill="#fff"/></g><g id="Group_268-9" data-name="Group 268" transform="translate(-508 -1015)">                <rect id="Rectangle_9-9" data-name="Rectangle 9" width="1" height="3" transform="translate(508 1045)" fill="#fff"/>                <rect id="Rectangle_10-9" data-name="Rectangle 10" width="1" height="3" transform="translate(508 1050)" fill="#fff"/></g><g id="Group_268-10" data-name="Group 268" transform="translate(-508 -1005)">                <rect id="Rectangle_9-10" data-name="Rectangle 9" width="1" height="3" transform="translate(508 1045)" fill="#fff"/>                <rect id="Rectangle_10-10" data-name="Rectangle 10" width="1" height="3" transform="translate(508 1050)" fill="#fff"/></g></g><line id="Line_10-2" data-name="Line 10" y2="40.037" transform="translate(26.816)" fill="none" stroke="#fff" stroke-width="1"/></g></g></g><g id="Repeat_Grid_2" data-name="Repeat Grid 2" transform="translate(27.632 -0.005)" clip-path="url(#clip-path)"><g id="Group_268-11" data-name="Group 268" transform="translate(-508 -1045)"><rect id="Rectangle_9-11" data-name="Rectangle 9" width="1" height="3" transform="translate(508 1045)" fill="#fff"/><rect id="Rectangle_10-11" data-name="Rectangle 10" width="1" height="3" transform="translate(508 1050)" fill="#fff"/></g><g id="Group_268-12" data-name="Group 268" transform="translate(-508 -1035)"><rect id="Rectangle_9-12" data-name="Rectangle 9" width="1" height="3" transform="translate(508 1045)" fill="#fff"/><rect id="Rectangle_10-12" data-name="Rectangle 10" width="1" height="3" transform="translate(508 1050)" fill="#fff"/></g><g id="Group_268-13" data-name="Group 268" transform="translate(-508 -1025)"><rect id="Rectangle_9-13" data-name="Rectangle 9" width="1" height="3" transform="translate(508 1045)" fill="#fff"/><rect id="Rectangle_10-13" data-name="Rectangle 10" width="1" height="3" transform="translate(508 1050)" fill="#fff"/></g><g id="Group_268-14" data-name="Group 268" transform="translate(-508 -1015)"><rect id="Rectangle_9-14" data-name="Rectangle 9" width="1" height="3" transform="translate(508 1045)" fill="#fff"/><rect id="Rectangle_10-14" data-name="Rectangle 10" width="1" height="3" transform="translate(508 1050)" fill="#fff"/></g><g id="Group_268-15" data-name="Group 268" transform="translate(-508 -1005)"><rect id="Rectangle_9-15" data-name="Rectangle 9" width="1" height="3" transform="translate(508 1045)" fill="#fff"/><rect id="Rectangle_10-15" data-name="Rectangle 10" width="1" height="3" transform="translate(508 1050)" fill="#fff"/></g></g></g></g></svg>