<svg xmlns="http://www.w3.org/2000/svg" xmlns:xlink="http://www.w3.org/1999/xlink" width="46.77" height="60.59" viewBox="0 0 46.77 60.59"><defs><clipPath id="clip-path"><rect width="3.223" height="46.049" fill="none"/></clipPath></defs><g id="on-off-ramp" transform="translate(-0.496)"><g id="Group_308" data-name="Group 308" transform="matrix(-0.017, 1, -1, -0.017, 47.921, 0.818)"><g id="Group_270" data-name="Group 270" transform="translate(0 0)"><path id="Path_2344" data-name="Path 2344" d="M0,21.263v-4.92S.374,8.611,5.427,5.1A50.742,50.742,0,0,1,14.41,0h7.86S9.544,7.029,6.924,10.544,4.679,21.263,4.679,21.263Z" transform="translate(37.511 0)" fill="#262626"/><rect id="Rectangle_8" data-name="Rectangle 8" width="25.784" height="46.049" transform="translate(17.633 0.567)" fill="#262626"/><g id="Repeat_Grid_1" data-name="Repeat Grid 1" transform="translate(30.585 0.567)" clip-path="url(#clip-path)"><g id="Group_268" data-name="Group 268" transform="translate(-508 -1045)"><rect id="Rectangle_9" data-name="Rectangle 9" width="1" height="3" transform="translate(508 1045)" fill="#fff"/><rect id="Rectangle_10" data-name="Rectangle 10" width="1" height="3" transform="translate(508 1050)" fill="#fff"/></g><g id="Group_268-2" data-name="Group 268" transform="translate(-508 -1035)"><rect id="Rectangle_9-2" data-name="Rectangle 9" width="1" height="3" transform="translate(508 1045)" fill="#fff"/><rect id="Rectangle_10-2" data-name="Rectangle 10" width="1" height="3" transform="translate(508 1050)" fill="#fff"/></g><g id="Group_268-3" data-name="Group 268" transform="translate(-508 -1025)"><rect id="Rectangle_9-3" data-name="Rectangle 9" width="1" height="3" transform="translate(508 1045)" fill="#fff"/><rect id="Rectangle_10-3" data-name="Rectangle 10" width="1" height="3" transform="translate(508 1050)" fill="#fff"/></g><g id="Group_268-4" data-name="Group 268" transform="translate(-508 -1015)"><rect id="Rectangle_9-4" data-name="Rectangle 9" width="1" height="3" transform="translate(508 1045)" fill="#fff"/><rect id="Rectangle_10-4" data-name="Rectangle 10" width="1" height="3" transform="translate(508 1050)" fill="#fff"/></g><g id="Group_268-5" data-name="Group 268" transform="translate(-508 -1005)"><rect id="Rectangle_9-5" data-name="Rectangle 9" width="1" height="3" transform="translate(508 1045)" fill="#fff"/><rect id="Rectangle_10-5" data-name="Rectangle 10" width="1" height="3" transform="translate(508 1050)" fill="#fff"/></g></g><line id="Line_10" data-name="Line 10" y2="46.127" transform="translate(41.751 0.567)" fill="none" stroke="#fff" stroke-width="1"/><path id="Path_2337" data-name="Path 2337" d="M22.644,0V5.328s-.381,8.372-5.518,12.178a50.707,50.707,0,0,1-9.134,5.518H0s12.94-7.612,15.6-11.417S17.887,0,17.887,0Z" transform="translate(0 23.86)" fill="#262626"/><line id="Line_9" data-name="Line 9" y2="46.127" transform="translate(19.3 0.567)" fill="none" stroke="#fff" stroke-width="1"/></g></g></g></svg>