<svg xmlns="http://www.w3.org/2000/svg" xmlns:xlink="http://www.w3.org/1999/xlink" width="41" height="56.604" viewBox="0 0 41 56.604"><defs><clipPath id="clip-path"><rect width="4" height="56" fill="none"/></clipPath></defs><g id="single-carriageway" transform="translate(-0.169 -0.196)"><g id="Group_307" data-name="Group 307" transform="translate(0.169 0.153)"><g id="Group_281" data-name="Group 281" transform="translate(0 0)"><g id="Group_271" data-name="Group 271" transform="translate(0 0)"><rect id="Rectangle_8" data-name="Rectangle 8" width="41" height="56" transform="translate(0 0.29)" fill="#262626"/><g id="Repeat_Grid_1" data-name="Repeat Grid 1" transform="translate(20 0.29)" clip-path="url(#clip-path)"><g id="Group_268" data-name="Group 268" transform="translate(-508 -1045)"><rect id="Rectangle_9" data-name="Rectangle 9" width="1" height="3" transform="translate(508 1045)" fill="#fff"/><rect id="Rectangle_10" data-name="Rectangle 10" width="1" height="3" transform="translate(508 1050)" fill="#fff"/></g><g id="Group_268-2" data-name="Group 268" transform="translate(-508 -1035)"><rect id="Rectangle_9-2" data-name="Rectangle 9" width="1" height="3" transform="translate(508 1045)" fill="#fff"/><rect id="Rectangle_10-2" data-name="Rectangle 10" width="1" height="3" transform="translate(508 1050)" fill="#fff"/></g><g id="Group_268-3" data-name="Group 268" transform="translate(-508 -1025)"><rect id="Rectangle_9-3" data-name="Rectangle 9" width="1" height="3" transform="translate(508 1045)" fill="#fff"/><rect id="Rectangle_10-3" data-name="Rectangle 10" width="1" height="3" transform="translate(508 1050)" fill="#fff"/></g><g id="Group_268-4" data-name="Group 268" transform="translate(-508 -1015)"><rect id="Rectangle_9-4" data-name="Rectangle 9" width="1" height="3" transform="translate(508 1045)" fill="#fff"/><rect id="Rectangle_10-4" data-name="Rectangle 10" width="1" height="3" transform="translate(508 1050)" fill="#fff"/></g><g id="Group_268-5" data-name="Group 268" transform="translate(-508 -1005)"><rect id="Rectangle_9-5" data-name="Rectangle 9" width="1" height="3" transform="translate(508 1045)" fill="#fff"/><rect id="Rectangle_10-5" data-name="Rectangle 10" width="1" height="3" transform="translate(508 1050)" fill="#fff"/></g><g id="Group_268-6" data-name="Group 268" transform="translate(-508 -995)"><rect id="Rectangle_9-6" data-name="Rectangle 9" width="1" height="3" transform="translate(508 1045)" fill="#fff"/><rect id="Rectangle_10-6" data-name="Rectangle 10" width="1" height="3" transform="translate(508 1050)" fill="#fff"/></g></g><line id="Line_10" data-name="Line 10" y2="56.603" transform="translate(37.222 0.043)" fill="none" stroke="#fff" stroke-width="1"/><line id="Line_9" data-name="Line 9" y2="56.603" transform="translate(2.53 0.043)" fill="none" stroke="#fff" stroke-width="1"/></g></g><g id="arrow_upward-24px" transform="translate(2.228 18.171)"><path id="Path_2342" data-name="Path 2342" d="M0,0H19.386V19.386H0Z" fill="none"/><path id="Path_2343" data-name="Path 2343" d="M4,10.462,5.139,11.6,9.654,7.094v9.83H11.27V7.094l4.507,4.515,1.147-1.147L10.462,4Z" transform="translate(-0.769 -0.769)" fill="#fff"/></g><g id="arrow_upward-24px-2" data-name="arrow_upward-24px" transform="translate(18.661 18.171)"><path id="Path_2342-2" data-name="Path 2342" d="M0,0H19.386V19.386H0Z" fill="none"/><path id="Path_2343-2" data-name="Path 2343" d="M4,10.462,5.139,11.6,9.654,7.094v9.83H11.27V7.094l4.507,4.515,1.147-1.147L10.462,4Z" transform="translate(-0.769 -0.769)" fill="#fff"/></g></g></g></svg>