<svg xmlns="http://www.w3.org/2000/svg" width="68.816" height="41.454" viewBox="0 0 68.816 41.454"><g transform="translate(-7.481 -311.33)"><path d="M60.205,320.451v4.773l-1.774,1.023,1.255,2.264c3.009-.072,5.726-.14,8.443-.2.373-.008.837-.1,1.1.079a12.31,12.31,0,0,1,1.48,1.352c-.538.424-1.022,1.081-1.625,1.218a16.03,16.03,0,0,1-2.982.108,17.86,17.86,0,0,0-3.64.4c1.774.756,3.63.537,5.429.462,2.993-.124,5.052,1,6.127,3.843.7,1.853,1.792,3.628,2.119,5.538.758,4.423-1.283,7.655-5.035,9.894-3.264,1.948-6.446,2.28-9.78-.054-2.069-1.448-4.127-2.785-5.049-5.266-.335-.9-.609-1.829-.878-2.755-.2-.7-.139-1.62-.576-2.078-.924-.968-1.668-2.019-1.213-3.274a28.61,28.61,0,0,1,2.432-4.93,9.182,9.182,0,0,1,2.085-1.78l-1.253-2.7-4.381,1.614,1.451,3c-.277.079-.583.194-.9.252a6.538,6.538,0,0,0-4.874,3.5c-5.018,8.688-4.547,6.971-13.753,7.07-1.332.014-2.716-1.473-3.877-.257a8.452,8.452,0,0,0-1.49,3.352c-.551,1.8-1.834,2.827-3.3,3.865-3.774,2.665-7.446,2.2-11.223.085a7.505,7.505,0,0,1-4.173-6.945c-.079-7.059-.115-7.059,5.349-11.592.282-.233.6-.426.878-.625-.03-.159-.013-.314-.076-.361-.689-.515-1.391-1.014-1.91-1.387-3.147.848-3.541,4.811-7.109,5.636.606-3.3,2.93-5.128,4.34-7.376-2.01-3.86-1.962-3.97,2.449-5.959v-3.98c2.642-1.494,2.8,1.14,3.977,2.363,4.963,1.056,10.08,2.054,15.144,3.274a4.244,4.244,0,0,0,4.137-.841c3.823-3.315,8.383-5.289,13.256-7.317L49.6,313.088,46.834,314.5l-1.555-3.173h5.137l4.265,6.057,2.488-.835v2.685ZM64.4,336.893c.182.444.2.622.274.647.569.191,1.139.383,1.723.518,1.98.457,2.741,1.143,3,2.751.336,2.123-.254,3.651-1.705,4.558a2.644,2.644,0,0,1-2.789.2c-2.475-1.164-2.933-2.017-2.313-4.938.051-.241.233-.53.154-.708-.179-.4-.436-1-.749-1.059a1.4,1.4,0,0,0-1.173.6c-1.791,3.39-.1,6.986,3.722,8.031a5.523,5.523,0,0,0,5.94-2c1.74-2.461,1.717-4.2-.09-6.743C68.452,336.025,67.979,335.872,64.4,336.893ZM25.8,343.787c-1.471.826-2.606,1.786-3.9,2.1a18.64,18.64,0,0,1-4.357.076c-.483-.849-.817-1.511-1.218-2.13a3.605,3.605,0,0,1,.513-4.756c.487-.551,1.1-.99,1.57-1.555a8.633,8.633,0,0,0,.79-1.475c-2.176-.462-2.988.929-3.717,2.151a8.949,8.949,0,0,0-1.44,3.713c-.14,2.017,2.82,5.666,4.374,5.872C22.42,348.315,24.855,347.116,25.8,343.787Z"/><path d="M64.4,336.893c3.583-1.021,4.056-.868,5.99,1.86,1.807,2.548,1.83,4.282.09,6.743a5.523,5.523,0,0,1-5.94,2c-3.821-1.045-5.513-4.641-3.722-8.031a1.4,1.4,0,0,1,1.173-.6c.313.06.57.655.749,1.059.079.178-.1.467-.154.708-.62,2.921-.162,3.774,2.313,4.938a2.644,2.644,0,0,0,2.789-.2c1.451-.907,2.041-2.435,1.705-4.558-.255-1.608-1.016-2.294-3-2.751-.584-.135-1.154-.327-1.723-.518C64.6,337.515,64.578,337.337,64.4,336.893Z" fill="#fff"/><path d="M25.8,343.787c-.949,3.329-3.384,4.528-7.384,4-1.554-.206-4.514-3.855-4.374-5.872a8.949,8.949,0,0,1,1.44-3.713c.729-1.222,1.541-2.613,3.717-2.151a8.633,8.633,0,0,1-.79,1.475c-.467.565-1.083,1-1.57,1.555a3.605,3.605,0,0,0-.513,4.756c.4.619.735,1.281,1.218,2.13a18.64,18.64,0,0,0,4.357-.076C23.2,345.573,24.333,344.613,25.8,343.787Z" fill="#fff"/></g></svg>