<svg xmlns="http://www.w3.org/2000/svg" width="94.014" height="42.588" viewBox="0 0 94.014 42.588"><g transform="translate(-445.085 -527.783)"><path d="M504.961,553.919c-1.694-.261-3.381-.586-5.083-.765-1.685-.178-2.926-.131-3.276,2.292-.322,2.232-1.928,2.22-3.617.245a17.018,17.018,0,0,0-1.23-1.185,5.537,5.537,0,0,0-.4,1.7c.189,2.084.423,4.169.774,6.231.462,2.717-1.206,4.988-3.6,4.753-1.289-.126-1.987-.621-.963-1.859,1.655-2,1.1-4.345.678-6.411-.319-1.55-1.754-2.872-2.692-4.295-.51,1.391-.961,2.807-1.544,4.167a38.812,38.812,0,0,1-2.964,6.219c-.462.7-2.125.954-3.166.823-1.12-.141-1.1-2.344.177-2.807,1.559-.566,2.383-1.547,2.292-2.991a38.556,38.556,0,0,0-1.034-6.116c-.062-.271-.986-.474-1.516-.486a45.111,45.111,0,0,0-5.057.1,1.823,1.823,0,0,0-1.346,1.028,36.227,36.227,0,0,0-.979,7.321c.044,1.987-1.04,3.322-1.989,4.6-.485.653-2.226.4-3.4.443a2.379,2.379,0,0,1-.209-1.493,20.63,20.63,0,0,1,1.9-2.553c2.431-.872,1.36-2.5.731-3.881a17.111,17.111,0,0,0-2.146-3.433c-.537-.683-1.681-1.75-2.009-1.583a13.754,13.754,0,0,0-3.036,2.543c-.1.1.1.744.331.906,1.173.833,2.33,2.086,3.622,2.267,2.2.309,2.6,1.509,2.613,3.281-3.592.4-6.29-1.556-8.948-3.495-2.26-1.648-2.541-3.219-.717-5.323,1.223-1.411,1.87-2.3.7-4.258-.877-1.467-.65-3.589-.935-5.416a7.774,7.774,0,0,0-.313-1.046,2.927,2.927,0,0,0-.42.88c-.147,1.419-.276,2.865-2.156,2.943-1.79.074-2.577-1.071-3.134-2.625-1.058-2.949-2.409-5.716-5.607-6.991a.926.926,0,0,1-.177-.763c.906-.655,1.79-1.582,2.81-1.786,1.982-.4,4.068-.246,6.075-.558,4.556-.707,8.382,1.388,11.668,3.8,4.643,3.417,9.566,2.819,14.635,2.557,2.067-.108,4.141-.085,6.212-.089a15.812,15.812,0,0,0,3.3.061c4.388-.981,7.423,1.68,6.982,6.278-.11,1.153-.306,2.3-.462,3.446,1.356.1,2.716.155,4.066.3,2.015.22,2.663-.621,2.358-2.592-.687-4.438-1.236-8.9-1.894-13.339-.45-3.04-.477-2.972,2.542-3.621,4.678-1.005,9.395-1.9,13.976-3.252,2.194-.647,4.114-.153,6.088.23,4.689.911,9.315,2.145,14.011,3.008,1.514.278,1.816.627,1.514,2.1-.98,4.762-1.782,9.56-2.723,14.331-.225,1.138-.443,2.018.562,3.043a4.884,4.884,0,0,1,.95,2.988c.207,4.13.158,4.18-3.879,4.573-1.2.116-1.79.432-1.845,1.745-.172,4.131-2.872,6.1-6.221,8.047-4.784,2.782-9.35,2.786-14.288.869-6.242-2.423-8.632-6.831-7.01-13.3.15-.6.256-1.213.383-1.82l.229-.046Zm25.59-.717-.9-.832-.064-.163.161.07.905.835.057.181Zm-2.268-18.743v.013c-1.365,0-2.732.056-4.093-.013-2.154-.109-1.988,1.376-1.93,2.746s-.55,3.174,1.936,3.116,4.965-.092,7.44.023c1.939.09,2.6-.666,2.579-2.586-.035-3.137-.036-3.244-3.328-3.3C530.019,534.448,529.151,534.459,528.283,534.459Zm-16.35-.074c-.866,0-1.733-.005-2.6,0-3.779.026-3.851.174-3.614,4.029.085,1.381.5,2.024,1.947,1.986,2.351-.06,4.706.015,7.058-.014,3.048-.037,3.048-.057,3.029-3.092-.018-2.833-.017-2.84-2.848-2.9C513.915,534.367,512.924,534.386,511.933,534.385Zm15,24.795c2.883.08,3.078-.265,1.743-2.932-.327-.653-.508-1.519-1.036-1.9-.8-.58-2.235-1.409-2.719-1.092-1.14.747-2.325,1.784-1.948,3.652C523.478,559.382,525.358,559.011,526.938,559.18Zm-18.974.725c3.235-.044,5.538-1.4,4.993-2.738a6.434,6.434,0,0,0-2.79-3.067c-1.12-.577-3.294,2.447-3.069,4.293C507.175,559.017,507.766,559.578,507.964,559.905Zm15.25,1.62c-.849.677-2.152,1.212-2.451,2.088-.334.982.243,2.273.423,3.43,1-.277,2.012-.536,3.005-.848.207-.065.353-.329.527-.5l2.548-2.506Zm-6.749,4.044a2.813,2.813,0,0,0-3.694-3.12,12.672,12.672,0,0,0-3.006,1.713,19.844,19.844,0,0,0,2.328,2.157,6.684,6.684,0,0,0,2.354.874C515.795,567.479,516.586,566.956,516.465,565.569Zm1.627-15.461a10.755,10.755,0,0,0-1.909.025,8.775,8.775,0,0,0-1.631.641c.271.619.505,1.259.828,1.849.172.313.5.766.756.77a14.566,14.566,0,0,0,4.075-.238c.641-.18,1.02-1.289,1.518-1.978Zm-32.978,2.033v.05c.741,0,1.483.01,2.225,0,.493-.009.985-.051,1.477-.078-.451-.091-.9-.2-1.354-.268-1.886-.289-3.775-.562-5.661-.851-.39-.06-.773-.165-1.159-.249.258.466.468,1.295.781,1.335A28.716,28.716,0,0,0,485.114,552.141Zm35.538,7.079c-.789-.693-1.219-1.373-1.61-1.352a11.84,11.84,0,0,0-2.593.7c.269.584.6,1.689.8,1.665A20.385,20.385,0,0,0,520.652,559.22Zm-37.23-13.468-.662-1.553-1.251,3.66c.313-.059.782-.01.911-.2A16.044,16.044,0,0,0,483.422,545.752Zm34.8,1.862,1.273-.129c-.481-.014-.963-.04-1.445-.036-.355,0-.711.047-1.066.073Zm-39.314-5.266.89-.08c-.368-.024-.736-.066-1.1-.067-.285,0-.57.048-.854.075Zm14.841,9.7c-.052-.061-.1-.164-.143-.161-.2.016-.4.06-.607.094.047.054.1.157.14.154C493.342,552.123,493.542,552.082,493.749,552.049Z"/><path d="M528.283,534.459c.868,0,1.736-.011,2.6,0,3.292.052,3.293.159,3.328,3.3.022,1.92-.64,2.676-2.579,2.586-2.475-.115-4.961-.08-7.44-.023s-1.879-1.743-1.936-3.116-.224-2.855,1.93-2.746c1.361.069,2.728.013,4.093.013Z" fill="#fff"/><path d="M511.933,534.386c.991,0,1.982-.019,2.972,0,2.831.065,2.83.072,2.848,2.9.019,3.035.019,3.055-3.029,3.092-2.352.029-4.707-.046-7.058.014-1.451.038-1.862-.6-1.947-1.986-.237-3.855-.165-4,3.614-4.029C510.2,534.38,511.067,534.385,511.933,534.386Z" fill="#fff"/><path d="M466.822,562.979c-.014-1.772-.409-2.972-2.613-3.281-1.292-.181-2.449-1.434-3.622-2.267-.227-.162-.432-.808-.331-.906a13.754,13.754,0,0,1,3.036-2.543c.328-.167,1.472.9,2.009,1.583A17.111,17.111,0,0,1,467.447,559c.629,1.377,1.7,3.009-.731,3.881Z" fill="#fff"/><path d="M526.938,559.18c-1.58-.169-3.46.2-3.96-2.272-.377-1.868.808-2.905,1.948-3.652.484-.317,1.915.512,2.719,1.092.528.381.709,1.247,1.036,1.9C530.016,558.915,529.821,559.26,526.938,559.18Z" fill="#fff"/><path d="M507.964,559.905c-.2-.327-.789-.888-.866-1.512-.225-1.846,1.949-4.87,3.069-4.293a6.434,6.434,0,0,1,2.79,3.067C513.5,558.506,511.2,559.861,507.964,559.905Z" fill="#fff"/><path d="M523.214,561.525l4.052,1.663-2.548,2.506c-.174.172-.32.436-.527.5-.993.312-2,.571-3.005.848-.18-1.157-.757-2.448-.423-3.43C521.062,562.737,522.365,562.2,523.214,561.525Z" fill="#fff"/><path d="M516.465,565.569c.121,1.387-.67,1.91-2.018,1.624a6.684,6.684,0,0,1-2.354-.874,19.844,19.844,0,0,1-2.328-2.157,12.672,12.672,0,0,1,3.006-1.713A2.813,2.813,0,0,1,516.465,565.569Z" fill="#fff"/><path d="M518.092,550.108l3.637,1.069c-.5.689-.877,1.8-1.518,1.978a14.566,14.566,0,0,1-4.075.238c-.26,0-.584-.457-.756-.77-.323-.59-.557-1.23-.828-1.849a8.775,8.775,0,0,1,1.631-.641A10.755,10.755,0,0,1,518.092,550.108Z" fill="#fff"/><path d="M485.114,552.141a28.716,28.716,0,0,1-3.69-.064c-.313-.04-.523-.869-.781-1.335.386.084.769.189,1.159.249,1.886.289,3.775.562,5.661.851.454.069.9.177,1.354.268-.492.027-.984.069-1.477.078-.742.013-1.484,0-2.225,0Z" fill="#fff"/><path d="M520.652,559.22a20.385,20.385,0,0,1-3.408,1.012c-.2.024-.526-1.081-.8-1.665a11.84,11.84,0,0,1,2.593-.7C519.433,557.847,519.863,558.527,520.652,559.22Z" fill="#fff"/><path d="M483.422,545.752a16.044,16.044,0,0,1-1,1.91c-.129.187-.6.138-.911.2l1.251-3.66Z" fill="#fff"/><path d="M518.222,547.614l-1.238-.092c.355-.026.711-.07,1.066-.073.482,0,.964.022,1.445.036Z" fill="#fff"/><path d="M478.908,542.348l-1.068-.072c.284-.027.569-.076.854-.075.368,0,.736.043,1.1.067Z" fill="#fff"/><path d="M493.749,552.049c-.207.033-.407.074-.61.087-.043,0-.093-.1-.14-.154.2-.034.4-.078.607-.094C493.647,551.885,493.7,551.988,493.749,552.049Z" fill="#fff"/><path d="M529.745,552.277l-.161-.07.064.164Z" fill="#fff"/><path d="M504.961,553.919l.191-.054-.229.046Z" fill="#fff"/><path d="M530.551,553.2l.156.091-.056-.181Z" fill="#fff"/><path d="M530.65,553.112l-.905-.835-.1.093.9.832Z" fill="#fff"/></g></svg>