<svg xmlns="http://www.w3.org/2000/svg" width="74.93" height="36.764" viewBox="0 0 74.93 36.764"><g transform="translate(-464.344 -266.457)"><path d="M501.673,272.641c2.622,0,5.245-.05,7.865.019,1.582.042,2.025-.406,1.274-1.914-.64-1.284-1.1-2.656-1.641-3.989,1.481-.1,2.961-.277,4.443-.294a13.74,13.74,0,0,1,3.7.285c1.816.49,2.414,1.868,1.724,3.371-.583,1.268-3.007,2.153-4.1,1.4-.144-.1.056-1,.329-1.342a11.993,11.993,0,0,1,1.654-1.474c-.819-.166-1.635-.355-2.46-.487a8.059,8.059,0,0,0-1.121,0c-1.538-.024-1.674.647-.963,1.834.637,1.061,1.212,2.16,1.8,3.251,1.934,3.6,1.92,3.514,5.963,2.956a20.646,20.646,0,0,1,13.629,2.713c5.467,3.289,7.516,11.789,3.136,17.284-3.393,4.256-7.828,5.622-12.426,6.757-5.038,1.243-14.306-3.4-16-8.156-.98-2.752-.45-6.108-.3-9.176a5.787,5.787,0,0,1,3.258-5.009,19.554,19.554,0,0,0,1.808-1.323c.747-.507,1.477-.944.743-2.03-.837-1.239-1.429-.4-2.054.175-.548.509-1.065,1.053-1.594,1.583-2.737,2.736-5.484,5.462-8.2,8.214-1.489,1.508-2.827,3.138-5.339,2.929-.493-.041-1.431.972-1.57,1.626-1.659,7.763-11.535,12.327-20.4,9.154-1.287-.461-2.494-1.138-3.764-1.651-9.05-3.653-8.234-15.421-1.88-20.36a11.436,11.436,0,0,1,7.917-2.8c2.726.177,5.457.312,8.175.574a3.91,3.91,0,0,0,3.806-3.147,2.939,2.939,0,0,0-2.4-3.2c-.48-.105-1.121.128-1.464-.112-.5-.35-1.107-1-1.084-1.5.023-.48.822-1.35,1.22-1.316,2.6.217,5.19.6,7.77,1.02.344.056.608.6.91.924a5.786,5.786,0,0,1-1.083.884c-.736.354-1.526.594-2.293.881.925.479,1.827,1.3,2.781,1.37C496.172,272.762,498.927,272.64,501.673,272.641Zm-9.379,6.706.407.328-.484-.259L490.64,276.4c-.274.223-.778.44-.785.671C489.8,278.7,490.881,279.226,492.294,279.347Zm31.582.024c-1.124,0-2.256-.081-3.372.017-2.168.191-2.429.718-1.118,2.522a63.092,63.092,0,0,0,4.666,5.842c.977,1.053,1.149,1.95.225,2.9-1.26,1.292-1.932-.287-2.75-.8-.348-.217-.374-.9-.625-1.324-1.209-2.038-2.37-4.113-3.723-6.052-.349-.5-1.587-.988-1.986-.752-5.378,3.174-6.989,9.074-2.553,13.684a14.648,14.648,0,0,0,8.706,4.336c6.818.976,12.718-1.9,14.663-8.844a6.448,6.448,0,0,0,.008-3.224C534.687,282.6,529.856,279.339,523.876,279.371Zm-45.542,20.045c2.519-.632,5.014-1.4,7.564-1.861,2.935-.533,4.395-2.581,5.7-4.9.873-1.552.471-2.27-1.354-2.251-3.365.035-6.732.069-10.093-.053a8.155,8.155,0,0,1-2.516-1,18.055,18.055,0,0,1,1.164-2.188c1.556-2.181,3.225-4.281,4.75-6.483.925-1.334.308-2.05-1.188-2.189a15.713,15.713,0,0,0-14.471,5.955,5.053,5.053,0,0,0-1.021,3.131C467.148,294.059,472.856,299.605,478.334,299.416Zm24.01-24.518c-2.361,0-4.722.013-7.082-.005-1.277-.01-1.452.5-.918,1.581q2.068,4.164,4.042,8.374c.582,1.237,1.268,1.333,2.22.4,3.111-3.036,6.239-6.055,9.34-9.1a3.06,3.06,0,0,0,.444-.936,3.474,3.474,0,0,0-.964-.3C507.066,274.885,504.7,274.9,502.344,274.9Zm-14.871,12.2.023-.187c1.12,0,2.24.022,3.36-.006,1.149-.028,1.624-.5.978-1.632-.3-.535-.584-1.085-.861-1.635-1.5-2.98-3.6-3.235-5.453-.591a39.433,39.433,0,0,0-1.964,3.471Z"/><path d="M523.876,279.371c5.98-.032,10.811,3.226,12.141,8.3a6.448,6.448,0,0,1-.008,3.224c-1.945,6.939-7.845,9.82-14.663,8.844a14.648,14.648,0,0,1-8.706-4.336c-4.436-4.61-2.825-10.51,2.553-13.684.4-.236,1.637.252,1.986.752,1.353,1.939,2.514,4.014,3.723,6.052.251.424.277,1.107.625,1.324.818.513,1.49,2.092,2.75.8.924-.949.752-1.846-.225-2.9a63.092,63.092,0,0,1-4.666-5.842c-1.311-1.8-1.05-2.331,1.118-2.522C521.62,279.29,522.752,279.371,523.876,279.371Z" fill="#fff"/><path d="M478.334,299.416c-5.478.189-11.186-5.357-11.464-11.847a5.053,5.053,0,0,1,1.021-3.131,15.713,15.713,0,0,1,14.471-5.955c1.5.139,2.113.855,1.188,2.189-1.525,2.2-3.194,4.3-4.75,6.483a18.055,18.055,0,0,0-1.164,2.188,8.155,8.155,0,0,0,2.516,1c3.361.122,6.728.088,10.093.053,1.825-.019,2.227.7,1.354,2.251-1.306,2.324-2.766,4.372-5.7,4.9C483.348,298.017,480.853,298.784,478.334,299.416Z" fill="#fff"/><path d="M502.344,274.9c2.361,0,4.722-.013,7.082.014a3.474,3.474,0,0,1,.964.3,3.06,3.06,0,0,1-.444.936c-3.1,3.046-6.229,6.065-9.34,9.1-.952.928-1.638.832-2.22-.4q-1.977-4.207-4.042-8.374c-.534-1.077-.359-1.591.918-1.581C497.622,274.911,499.983,274.9,502.344,274.9Z" fill="#fff"/><path d="M487.473,287.1l-3.917-.58a39.433,39.433,0,0,1,1.964-3.471c1.852-2.644,3.95-2.389,5.453.591.277.55.557,1.1.861,1.635.646,1.135.171,1.6-.978,1.632-1.12.028-2.24.006-3.36.006Z" fill="#fff"/><path d="M492.294,279.347c-1.413-.121-2.489-.644-2.439-2.278.007-.231.511-.448.785-.671l1.577,3.018Z" fill="#fff"/><path d="M492.217,279.416l.484.259-.407-.328Z" fill="#fff"/></g></svg>