<svg xmlns="http://www.w3.org/2000/svg" width="121.303" height="39.329" viewBox="0 0 121.303 39.329"><g transform="translate(-257.554 -465.962)"><path d="M378.857,498.239c-5.883,0-10.983.041-16.082-.02-2-.024-3.372.154-4.194,2.558-1.13,3.306-4.159,4.55-7.513,4.5-3.331-.053-6.252-1.311-7.421-4.654-.754-2.157-2.035-2.412-3.95-2.407q-24.364.07-48.729,0c-2.038,0-3.238.311-4.122,2.648-1.185,3.134-4.183,4.508-7.589,4.421-3.373-.086-6.265-1.447-7.435-4.685-.723-2-1.719-2.419-3.532-2.381-3.47.071-6.943.02-10.736.02.235-2.909-.42-5.125,1.018-7.956,1.413-2.784.416-6.792.469-10.264a17.474,17.474,0,0,1,.063-3.722c2-8.249,2.283-10.277,12.374-10.209,29.986.2,59.978.327,89.958-.126,6.515-.1,9.283,3.324,12.166,7.7a24.972,24.972,0,0,1,4.334,15.9C377.755,492.214,378.474,494.925,378.857,498.239Zm-83.7-28.485c2.9,7.665,3.637,8.2,10.838,8.2h13.732c-1.774-2.9-2.888-4.96-4.251-6.836a3.5,3.5,0,0,0-2.4-1.305C307.239,469.7,301.395,469.754,295.161,469.754Zm72.6,8.132c-.421-4.126-3.167-7.644-6.743-7.968-4.86-.441-9.79-.11-15.405-.11,1.518,2.572,2.478,4.455,3.7,6.152a4.16,4.16,0,0,0,2.524,1.841C357.045,477.972,362.269,477.886,367.758,477.886Zm-95.367-8.132v8.138h20.616c-1.675-2.445-2.866-4.45-4.34-6.219a4.9,4.9,0,0,0-2.981-1.833C281.359,469.637,277.016,469.754,272.391,469.754Zm70.685,8.13.492-.881c-1.2-1.7-2.3-3.489-3.626-5.083-.735-.882-1.826-2.012-2.8-2.055-4.79-.212-9.594-.1-15.151-.1,1.568,2.6,2.669,4.632,3.99,6.508a3.577,3.577,0,0,0,2.293,1.537C333.206,477.953,338.142,477.884,343.076,477.884Zm-83.341.7c9.215,1.306,10.866-.4,8.932-8.6h-6.923C261.1,472.728,260.444,475.542,259.735,478.579Zm19.721,23.447c1.73-1.823,2.855-3.009,3.981-4.194-1.2-1.025-2.261-2.605-3.63-2.945a2.9,2.9,0,0,0-3.582,3.145C276.271,499.152,277.908,500.206,279.456,502.026Zm72.452-7.718c-2.628.513-4.18.86-4.125,3.334.048,2.173,1.083,3.505,3.154,3.025,1.278-.3,3.184-1.615,3.231-2.553C354.229,496.886,352.734,495.581,351.908,494.308Z"/><path d="M295.161,469.754c6.234,0,12.078-.052,17.919.059a3.5,3.5,0,0,1,2.4,1.305c1.363,1.876,2.477,3.933,4.251,6.836H306C298.8,477.952,298.058,477.419,295.161,469.754Z" fill="#fff"/><path d="M367.758,477.886c-5.489,0-10.713.086-15.928-.085a4.16,4.16,0,0,1-2.524-1.841c-1.218-1.7-2.178-3.58-3.7-6.152,5.615,0,10.545-.331,15.405.11C364.591,470.242,367.337,473.76,367.758,477.886Z" fill="#fff"/><path d="M272.391,469.754c4.625,0,8.968-.117,13.3.086a4.9,4.9,0,0,1,2.981,1.833c1.474,1.769,2.665,3.774,4.34,6.219H272.391Z" fill="#fff"/><path d="M343.076,477.884c-4.934,0-9.87.069-14.8-.071a3.577,3.577,0,0,1-2.293-1.537c-1.321-1.876-2.422-3.908-3.99-6.508,5.557,0,10.361-.115,15.151.1.973.043,2.064,1.173,2.8,2.055,1.329,1.594,2.43,3.378,3.626,5.083Z" fill="#fff"/><path d="M259.735,478.579c.709-3.037,1.366-5.851,2.009-8.6h6.923C270.6,478.176,268.95,479.885,259.735,478.579Z" fill="#fff"/><path d="M279.456,502.026c-1.548-1.82-3.185-2.874-3.231-3.994a2.9,2.9,0,0,1,3.582-3.145c1.369.34,2.43,1.92,3.63,2.945C282.311,499.017,281.186,500.2,279.456,502.026Z" fill="#fff"/><path d="M351.908,494.308c.826,1.273,2.321,2.578,2.26,3.806-.047.938-1.953,2.256-3.231,2.553-2.071.48-3.106-.852-3.154-3.025C347.728,495.168,349.28,494.821,351.908,494.308Z" fill="#fff"/></g></svg>