<svg xmlns="http://www.w3.org/2000/svg" width="137.604" height="39.911" viewBox="0 0 137.604 39.911"><g transform="translate(-240.206 -530.609)"><path d="M240.206,562.784c.852-2.937,1.77-5.058,2.032-7.257.382-3.2.271-6.455.408-9.686.143-3.348.2-6.708.541-10.037a5.659,5.659,0,0,1,5.55-5.035c.995-.069,2-.023,3-.023,37.863,0,75.726.1,113.588-.137,4.473-.028,6.509,1.945,8.169,5.309,4.1,8.309,4.777,17.147,4.078,26.711H365.236c-1.872,3.53-2.573,7.833-7.093,7.58-3.854-.216-5.345-3.46-6.137-7.37-1.613,0-3.2,0-4.8,0-9.747.022-19.494.1-29.24.033-2.354-.015-3.848.378-4.778,2.969-.675,1.882-1.474,4.207-4.339,4.6-3.5.485-5.336-1.451-6.114-4.193-.845-2.978-2.551-3.412-5.223-3.391-10.12.077-20.243.053-30.361-.134-2.753-.051-4.389.554-5.177,3.443-.628,2.3-1.914,4.186-4.974,4.182s-4.336-1.831-4.913-4.193c-.712-2.912-2.332-3.733-5.105-3.414C245.158,562.954,243.286,562.784,240.206,562.784Zm27.936-28.39c1.037,2.686,1.732,4.782,2.676,6.759a2.771,2.771,0,0,0,1.927,1.415c3.932.133,7.87.065,12.44.065-1.063-2.674-1.783-4.766-2.742-6.742a2.772,2.772,0,0,0-1.9-1.43C276.609,534.326,272.671,534.394,268.142,534.394Zm101.993,8.264c-1.663-9.05-4.8-9.048-15.486-7.833.886,2.256,1.631,4.462,2.64,6.54a2.776,2.776,0,0,0,2.046,1.236C362.908,542.726,366.488,542.658,370.135,542.658Zm-16.393-.024c-1.7-3.217-2.466-7.045-4.388-7.759-3.151-1.17-7.053-.317-11.091-.317.995,2.588,1.587,4.483,2.463,6.236.382.764,1.321,1.716,2.054,1.758C346.071,542.741,349.379,542.634,353.742,542.634Zm-87.648-.075c-1.863-8.125-5.212-10.021-13.193-7.689v7.689Zm69.237-.244c-1.277-7.975-4.26-9.677-12.482-7.335C325.339,543,326.279,543.567,335.331,542.315Zm-18.961-.021c-2.469-8.943-2.56-8.675-12.18-7.346C306.357,542.492,308.071,543.554,316.37,542.294Zm-66.488-8.153c-2.052.36-4.789.22-5.091,1.009-.955,2.5-1,5.353-1.415,8.181h6.506Zm45.506.84a39.382,39.382,0,0,0-.5,7.042c.028.357,3.021.483,4.577.706C300.921,536.118,300.088,534.495,295.388,534.981Zm-4.015,7.423,1.185-.016c.571-2.487,1.142-4.975,1.785-7.78h-7.1C288.8,537.555,290.087,539.98,291.373,542.4Zm70.485,20.409-3.345-3.167c-.888,1.007-2.521,2.049-2.478,3.015.057,1.27,1.433,2.481,2.242,3.718Zm-103.689,3.6a26.446,26.446,0,0,0,1.3-5.09c.034-.467-1.634-1.4-2.572-1.477-.576-.047-1.68,1.061-1.8,1.774C254.785,563.543,254.534,565.7,258.169,566.414Zm52.624-3.858-3.156-2.714c-.781.973-2.284,2.046-2.166,2.9.156,1.13,1.573,2.086,2.449,3.116Z"/><path d="M268.142,534.394c4.529,0,8.467-.068,12.4.067a2.772,2.772,0,0,1,1.9,1.43c.959,1.976,1.679,4.068,2.742,6.742-4.57,0-8.508.068-12.44-.065a2.771,2.771,0,0,1-1.927-1.415C269.874,539.176,269.179,537.08,268.142,534.394Z" fill="#fff"/><path d="M370.135,542.658c-3.647,0-7.227.068-10.8-.057a2.776,2.776,0,0,1-2.046-1.236c-1.009-2.078-1.754-4.284-2.64-6.54C365.34,533.61,368.472,533.608,370.135,542.658Z" fill="#fff"/><path d="M353.742,542.634c-4.363,0-7.671.107-10.962-.082-.733-.042-1.672-.994-2.054-1.758-.876-1.753-1.468-3.648-2.463-6.236,4.038,0,7.94-.853,11.091.317C351.276,535.589,352.041,539.417,353.742,542.634Z" fill="#fff"/><path d="M266.094,542.559H252.9V534.87C260.882,532.538,264.231,534.434,266.094,542.559Z" fill="#fff"/><path d="M335.331,542.315c-9.052,1.252-9.992.685-12.482-7.335C331.071,532.638,334.054,534.34,335.331,542.315Z" fill="#fff"/><path d="M316.37,542.294c-8.3,1.26-10.013.2-12.18-7.346C313.81,533.619,313.9,533.351,316.37,542.294Z" fill="#fff"/><path d="M249.882,534.141v9.19h-6.506c.414-2.828.46-5.678,1.415-8.181C245.093,534.361,247.83,534.5,249.882,534.141Z" fill="#fff"/><path d="M295.388,534.981c4.7-.486,5.533,1.137,4.073,7.748-1.556-.223-4.549-.349-4.577-.706A39.382,39.382,0,0,1,295.388,534.981Z" fill="#fff"/><path d="M291.373,542.4c-1.286-2.424-2.572-4.849-4.134-7.8h7.1c-.643,2.805-1.214,5.293-1.785,7.78Z" fill="#fff"/><path d="M361.858,562.813l-3.581,3.566c-.809-1.237-2.185-2.448-2.242-3.718-.043-.966,1.59-2.008,2.478-3.015Z" fill="#fff"/><path d="M258.169,566.414c-3.635-.713-3.384-2.871-3.069-4.793.117-.713,1.221-1.821,1.8-1.774.938.075,2.606,1.01,2.572,1.477A26.446,26.446,0,0,1,258.169,566.414Z" fill="#fff"/><path d="M310.793,562.556l-2.873,3.3c-.876-1.03-2.293-1.986-2.449-3.116-.118-.849,1.385-1.922,2.166-2.9Z" fill="#fff"/></g></svg>