<svg xmlns="http://www.w3.org/2000/svg" width="146.239" height="48.754" viewBox="0 0 146.239 48.754"><g transform="translate(-394.046 -381.563)"><path d="M516.223,393.43c6.991,0,13.981-.018,20.971.009,2.96.012,3.022.056,3.038,2.765.037,6.491-.064,12.983.052,19.472.039,2.178-.778,2.8-2.833,2.751-4.616-.1-9.236.009-13.854-.043-1.7-.019-2.9.365-3.143,2.3a4.679,4.679,0,0,1-.681,1.719c-.886,1.5-2.33,1.755-3.9,1.566a2.279,2.279,0,0,1-2.053-2.672c.185-2.771-1.425-2.955-3.536-2.923-4.992.075-10-.211-14.973.115-2.92.191-5.8,1.224-8.663,1.978-1.678.441-3.284,1.16-4.964,1.59-.7.178-1.989.174-2.168-.178a1.854,1.854,0,0,1,1.155-2.7c1.15-.464,2.368-.76,3.518-1.226,2.519-1.02,5.874-1.463,7.268-3.343,1.282-1.729.486-5.03.528-7.64.048-2.995.006-5.991.012-8.987.009-4.542.012-4.547,4.383-4.551Q506.3,393.423,516.223,393.43ZM519.044,419a6.292,6.292,0,0,0-2.057-.735c-.327.007-.933.862-.883,1.269.067.546.647,1.028,1.006,1.538Z"/><path d="M438.432,381.568c8.862,0,17.725-.016,26.587.01,3.271.009,3.282.055,3.422,3.326.217,5.105.352,10.215.658,15.315.129,2.167-.72,2.784-2.789,2.773-12.607-.066-25.214-.016-37.822-.044-2.894-.006-2.942-.075-2.971-2.889-.044-4.369-.083-8.74.018-13.106.044-1.894-.514-2.655-2.521-2.6-8.087.226-6.315-1.077-6.505,6.432-.085,3.369-.049,6.741-.008,10.111.018,1.395-.5,2.076-1.955,2.058-3-.037-5.992-.017-8.987-.01-1.326,0-1.715-.537-1.4-1.877q2.11-8.908,4.067-17.853c.38-1.741,1.622-1.634,2.867-1.638,4.369-.015,8.738-.009,13.107-.009Q431.317,381.566,438.432,381.568Z"/><path d="M450.368,419.652a25.361,25.361,0,0,1-.163,3.738c-.239,1.293-.461,2.821-1.271,3.728-1.625,1.82-3.615,4.078-6.327,2.849-2.5-1.134-5.286-2.624-5.1-6.206.07-1.34-.4-1.416-1.717-1.4-12.872.12-25.746.09-38.618.1a2.345,2.345,0,0,1-.375,0c-1.108-.182-2.84.508-2.75-1.526.091-2.058,1.847-1.184,2.9-1.246,2.242-.131,4.5-.1,6.746-.026,1.481.046,1.957-.457,1.735-1.975-.543-3.7-.84-7.442-1.433-11.134-.3-1.874.56-2.126,2.029-2.109,2.625.031,5.252.075,7.873-.016,1.867-.066,2.71.518,2.632,2.548-.133,3.494.021,7-.052,10.5-.034,1.594.531,2.12,2.154,2.211,6.877.386,6.873.442,6.874-6.477,0-2.124.086-4.253-.021-6.372-.091-1.793.611-2.451,2.385-2.4,3.247.083,6.5.016,9.748.016q13.873,0,27.746.005c3.839.007,3.912.041,3.6,3.667-.343,3.978-.944,7.935-1.225,11.916-.141,2-1.05,2.5-2.853,2.452a94.051,94.051,0,0,0-10.118.047c-2.449.2-3.661-.845-4.458-2.872l-.161-.134Zm-11.374-2.281,2.421-2.09,4.977-.055,2.4,2.119.232.363c0-.076.021-.2-.017-.221a.884.884,0,0,0-.29-.075c.107-1.774-.651-2.528-2.439-2.064-2.046-2.076-2.609-2.073-4.763.028-1.854-.537-2.612.224-2.451,2.071l-.4.238c.08,0,.2.03.232-.008A1.021,1.021,0,0,0,438.994,417.371Zm4.915,7.513a2.114,2.114,0,0,0,2.576-2.323c.031-1.049-1.614-3.254-2.459-3.287-.941-.037-2.988,2.293-2.9,3.335C441.266,424.283,442.248,424.974,443.909,424.884Z"/><path d="M519.044,419l-1.934,2.072c-.359-.51-.939-.992-1.006-1.538-.05-.407.556-1.262.883-1.269A6.292,6.292,0,0,1,519.044,419Z" fill="#fff"/><path d="M443.909,424.884c-1.661.09-2.643-.6-2.784-2.275-.087-1.042,1.96-3.372,2.9-3.335.845.033,2.49,2.238,2.459,3.287A2.114,2.114,0,0,1,443.909,424.884Z" fill="#fff"/><path d="M446.392,415.226l-4.977.055.1.1c2.154-2.1,2.717-2.1,4.763-.028Z" fill="#fff"/><path d="M448.791,417.345l-2.4-2.119-.115.122c1.788-.464,2.546.29,2.439,2.064Z" fill="#fff"/><path d="M441.415,415.281l-2.421,2.09.069.076c-.161-1.847.6-2.608,2.451-2.071Z" fill="#fff"/><path d="M448.716,417.412a.884.884,0,0,1,.29.075c.038.024.013.145.017.221l-.232-.363Z" fill="#fff"/><path d="M450.368,419.652l-.223-.128.161.135Z" fill="#fff"/><path d="M438.994,417.371a1.021,1.021,0,0,1-.1.306c-.028.038-.152.007-.232.008l.4-.238Z" fill="#fff"/></g></svg>