<svg xmlns="http://www.w3.org/2000/svg" width="44.977" height="31.365" viewBox="0 0 44.977 31.365"><g transform="translate(-31.099 -256.202)"><path d="M47.735,256.867l-.345,2.69c3,1.261,6.207,2.2,8.747,4.489a4.377,4.377,0,0,0,4.86.7c2.55-.943,5.253-1.471,8.193-2.258l2.045-2.4c1.241,2.591,2.36,4.931,3.483,7.276l-2.076,1.213a8.542,8.542,0,0,1,3.434,5.9L70.9,269.678c-.922,1.316-.354,1.834.353,2.452a9.387,9.387,0,0,1,3.359,7.5c-.041,3.642-1.906,6.052-5.066,7.532-2.122.994-6.122-.776-7.287-3.161-.539-1.1-.93-2.275-1.4-3.441-1.805.079-3.4.056-4.979.24a4.227,4.227,0,0,1-4.834-2.709c-1.044-2.884-3.643-4.548-5.01-7.151-.325-.619-1.628-.725-2.855-1.218l3.1,6.919a11.788,11.788,0,0,0-1.839,5.535c-.178,2.752-3.271,5.1-6.367,5.377-2.4.213-5-1.6-6.024-4.174a9.954,9.954,0,0,1-.233-7.932c.734-1.673,1.371-3.54,3.74-3.723-.361-.682-.588-1.113-.816-1.545,2.572-1.412,2.719-1.426,6.821-.609a18.51,18.51,0,0,0,1.275-2.109c.148-.327.089-1.054-.133-1.194-1.762-1.118-.875-2.5-.386-3.763a21.028,21.028,0,0,1,1.546-2.745l1.149.561,2.743-3.411Zm-7.107,19.986c-.4,1.863-.353,3.239-.982,4.147-.648.934-1.954,1.412-3.035,2.132,2.5,1.232,2.5,1.232,5.018-2.962Zm24.01,4.351c.345,2.665,2.165,2.859,4.1,2.78,1.208-.049,2.017-.6,2.2-2.335C68.551,282.986,66.459,283.748,64.638,281.2Zm-29.669-4.918.194.515a14.748,14.748,0,0,0,3-.621c.307-.127.265-1.1.55-2.522Z"/><path d="M47.761,256.906c.078-.1.136-.228.236-.284.926-.517,1.846-.73,2.465.4a1,1,0,0,1-.3.937c-1.045.615-1.52-.317-2.117-.893a1.79,1.79,0,0,0-.314-.2Z"/><path d="M40.628,276.853l1,3.317c-2.516,4.194-2.516,4.194-5.018,2.962,1.081-.72,2.387-1.2,3.035-2.132C40.275,280.092,40.229,278.716,40.628,276.853Z" fill="#fff"/><path d="M64.638,281.2c1.821,2.544,3.913,1.782,6.3.445-.182,1.738-.991,2.286-2.2,2.335C66.8,284.063,64.983,283.869,64.638,281.2Z" fill="#fff"/><path d="M34.969,276.286l3.744-2.628c-.285,1.423-.243,2.4-.55,2.522a14.748,14.748,0,0,1-3,.621Z" fill="#fff"/></g></svg>