<svg xmlns="http://www.w3.org/2000/svg" width="68.215" height="36.058" viewBox="0 0 68.215 36.058"><g transform="translate(-143.112 -399.277)"><path d="M210.814,427.726l-6.049.559c-.374,1.378-.694,2.556-1.015,3.735-.576,2.112-2.3,2.921-4.154,3.286-1.5.3-3.806-1.7-4.356-3.522-.316-1.048-.448-2.152-.724-3.537-1.411-.087-2.746-.235-4.082-.24-6.99-.024-13.979,0-20.969-.027a20.541,20.541,0,0,1-3.7-.331c-2.706-.509-2.7-.554-4.083,2.386l-3.364.362c-1.517,1.6-2.516,3.036-3.865,3.976-2.2,1.533-3.367,1.183-5.056-.96-2.324-2.949-2.324-2.949-5.585-3.473-1.414-4.939-.6-17.481,1.626-22.675h13.9c.177-2.908.332-5.448.487-7.988h.265c.169,2.555.337,5.11.517,7.836h4.8c.166-2.294.324-4.475.48-6.619,2.691-.87,40.342-1.081,44.727-.28C211.42,402.934,211.619,422.951,210.814,427.726Zm-11.193-1.389c-2.64,1.749-3.318,2.908-2.652,4.868a2.812,2.812,0,0,0,2.937,2.274c1.944-.081,2.331-1.544,2.77-2.952C203.531,427.788,201.1,427.4,199.621,426.337Zm-47.318-.066c-2.812,2.09-3.5,4-1.908,6.008a2.937,2.937,0,0,0,2.452.966c2.388-.686,3.033-3.986,1.235-5.761A11.589,11.589,0,0,0,152.3,426.271Zm-3.937-17.426-1.031-.232a5.36,5.36,0,0,0-2.084,4.9c.045.445.995,1.1,1.532,1.106s1.454-.653,1.51-1.106A38.27,38.27,0,0,0,148.366,408.845Zm.953,2.15c.67,1.446-.339,3.535,1.734,3.462,1.685-.059,1.068-1.924,1.1-3.042.027-1.01.393-2.563-1.172-2.589C150.423,408.817,149.842,410.273,149.319,410.995Z"/><path d="M199.62,426.338c1.477,1.064,3.911,1.45,3.056,4.189-.439,1.408-.826,2.871-2.77,2.952a2.812,2.812,0,0,1-2.937-2.274C196.3,429.245,196.981,428.086,199.62,426.338Z" fill="#fff"/><path d="M152.3,426.271a11.589,11.589,0,0,1,1.779,1.213c1.8,1.775,1.153,5.075-1.235,5.761a2.937,2.937,0,0,1-2.452-.966C148.8,430.272,149.491,428.361,152.3,426.271Z" fill="#fff"/><path d="M148.366,408.845a38.27,38.27,0,0,1-.073,4.672c-.056.453-.985,1.11-1.51,1.106s-1.487-.661-1.532-1.106a5.36,5.36,0,0,1,2.084-4.9Z" fill="#fff"/><path d="M149.319,410.995c.523-.722,1.1-2.178,1.661-2.169,1.565.026,1.2,1.579,1.172,2.589-.031,1.118.586,2.983-1.1,3.042C148.98,414.53,149.989,412.441,149.319,410.995Z" fill="#fff"/></g></svg>