<svg xmlns="http://www.w3.org/2000/svg" width="68.693" height="31.613" viewBox="0 0 68.693 31.613"><g transform="translate(-144.034 -273.606)"><path d="M179.78,274.339c0,1.555-.017,3.034,0,4.511.058,4.307.2,4.484,4.391,4.5,7.485.031,14.97,0,22.455.022,1.332.005,2.663.16,4.432.273-.741,4.23.73,7.868,1.666,11.737-3,1.194-5.623,2.319-8.305,3.273-1.753.624-3.143,1.506-3.6,3.4-.628,2.583-2.468,3.131-4.818,3.123-2.4-.008-4.483-.3-5.255-3.08-.5-1.811-1.8-2.448-3.68-2.433q-11.788.1-23.578.006a3.733,3.733,0,0,0-3.575,2.084,6.959,6.959,0,0,1-3.476,3.091c-3.14.818-5.893.5-6.675-3.3a12.818,12.818,0,0,0-1.034-2.4c-.88-.089-1.612-.155-2.341-.238s-1.432-.183-2.353-.3V286.166a18.818,18.818,0,0,1,7.983-1.8c3.8.167,6.592-1.491,8.838-4.564,5.468-7.483,2.589-6.011,12.024-6.18,1.743-.031,3.49.046,5.233.119A8.545,8.545,0,0,1,179.78,274.339Zm-8.148,8.348c0-1.871,0-3.215,0-4.558a2.1,2.1,0,0,0-2.217-2.371c-2.292-.214-4.2.248-5.313,2.452-.712,1.406-2.58,2.439-1.646,4.477Zm6.639-6.588h-5.139v6.472h5.139ZM198.4,298.335c-1.2-1.073-1.957-2.306-2.735-2.321-1.421-.026-1.92,1.284-1.867,2.677.042,1.086.339,2.243,1.608,1.894C196.385,300.316,197.16,299.309,198.4,298.335Zm-43.142-2.558a2.674,2.674,0,0,0-1.934,3.465c.088.488.68,1.271,1,1.251a2.448,2.448,0,0,0,1.717-.909C156.937,298.2,156,297.1,155.26,295.777Z"/><path d="M171.632,282.687h-9.175c-.934-2.038.934-3.071,1.646-4.477,1.118-2.2,3.021-2.666,5.313-2.452a2.1,2.1,0,0,1,2.217,2.371C171.628,279.472,171.632,280.816,171.632,282.687Z" fill="#fff"/><path d="M178.271,276.1v6.472h-5.139V276.1Z" fill="#fff"/><path d="M198.4,298.335c-1.242.974-2.017,1.981-2.994,2.25-1.269.349-1.566-.808-1.608-1.894-.053-1.393.446-2.7,1.867-2.677C196.445,296.029,197.2,297.262,198.4,298.335Z" fill="#fff"/><path d="M155.26,295.777c.741,1.322,1.677,2.424.783,3.807a2.448,2.448,0,0,1-1.717.909c-.32.02-.912-.763-1-1.251A2.674,2.674,0,0,1,155.26,295.777Z" fill="#fff"/></g></svg>