<svg xmlns="http://www.w3.org/2000/svg" width="85.231" height="38.971" viewBox="0 0 85.231 38.971"><g transform="translate(-293.625 -399.501)"><path d="M378.856,430.786c-4.148,0-7.5.083-10.847-.03-2.14-.072-3.331.444-4.012,2.795a7.549,7.549,0,0,1-3.413,4.493c-2.213.99-4.628.311-5.654-2.549-.536-1.495-1.266-2.921-2.055-4.711-7.179,0-14.528,0-21.877,0-4.494,0-8.993-.114-13.477.091a4.1,4.1,0,0,0-3.07,1.824c-1.139,2.6-1.444,5.793-5.36,5.6-2.724-.132-4.776-2.7-5.836-7.52-1.682,0-3.505.01-5.329,0-4.045-.028-4.644-.87-4.158-4.891.475-3.924.557-7.894,1.019-11.82.473-4.034,1.149-8.046,1.832-12.051.315-1.85,1.471-2.523,3.446-2.518q33.888.1,67.776.014a5.429,5.429,0,0,1,5.321,3.3,36.235,36.235,0,0,1,4.477,17.17C377.6,423.375,378.374,426.77,378.856,430.786Zm-58.738-27.1c.994,2.575,1.644,4.577,2.556,6.452a2.755,2.755,0,0,0,1.945,1.366c3.935.129,7.877.063,12.342.063a55.19,55.19,0,0,0-2.69-6.322,3.666,3.666,0,0,0-2.624-1.49C328.057,403.586,324.454,403.687,320.118,403.687Zm50.606,7.884c-.843-7.465-5.562-9.7-15.054-7.236.772,1.968,1.432,3.957,2.349,5.819a2.752,2.752,0,0,0,1.935,1.355C363.527,411.643,367.108,411.571,370.724,411.571Zm-66.174-.3H318.4c-1.114-2.279-1.939-4.162-2.951-5.939-.369-.648-1.161-1.451-1.8-1.483-3.032-.155-6.076-.07-9.1-.07Zm49.525.338c-1.262-2.634-2.046-4.588-3.124-6.366a3.386,3.386,0,0,0-2.295-1.471c-2.953-.175-5.923-.069-8.943-.069,1.09,7.2,1.876,7.906,8.326,7.906Zm-52.643-7.59c-4.949-.568-4.949-.568-5.555,7.346h5.555Zm54.549,26.531,2.8,4.161c.944-1.286,2.392-2.484,2.642-3.893.146-.826-1.62-1.989-2.526-3Zm-46.953,3.783c3.254-3.314,3.2-4.155-.247-6.465C306.307,430.58,306.317,431.519,309.028,434.329Z"/><path d="M320.118,403.687c4.336,0,7.939-.1,11.529.069a3.666,3.666,0,0,1,2.624,1.49,55.19,55.19,0,0,1,2.69,6.322c-4.465,0-8.407.066-12.342-.063a2.755,2.755,0,0,1-1.945-1.366C321.762,408.264,321.112,406.262,320.118,403.687Z" fill="#fff"/><path d="M370.724,411.571c-3.616,0-7.2.072-10.77-.062a2.752,2.752,0,0,1-1.935-1.355c-.917-1.862-1.577-3.851-2.349-5.819C365.162,401.876,369.881,404.106,370.724,411.571Z" fill="#fff"/><path d="M304.55,411.267v-7.492c3.024,0,6.068-.085,9.1.07.634.032,1.426.835,1.8,1.483,1.012,1.777,1.837,3.66,2.951,5.939Z" fill="#fff"/><path d="M354.075,411.605h-6.036c-6.45,0-7.236-.711-8.326-7.906,3.02,0,5.99-.106,8.943.069a3.386,3.386,0,0,1,2.295,1.471C352.029,407.017,352.813,408.971,354.075,411.605Z" fill="#fff"/><path d="M301.432,404.015v7.346h-5.555C296.483,403.447,296.483,403.447,301.432,404.015Z" fill="#fff"/><path d="M355.981,430.546l2.919-2.732c.906,1.011,2.672,2.174,2.526,3-.25,1.409-1.7,2.607-2.642,3.893Z" fill="#fff"/><path d="M309.028,434.329c-2.711-2.81-2.721-3.749-.247-6.465C312.224,430.174,312.282,431.015,309.028,434.329Z" fill="#fff"/></g></svg>