<svg xmlns="http://www.w3.org/2000/svg" width="63.113" height="39.379" viewBox="0 0 63.113 39.379"><g transform="translate(0 0)"><path d="M375.586,355.3c-.149,1.923.329,4.43-.621,6.145a37.635,37.635,0,0,1-6.574,8.442c-1.819,1.785-5.911.245-6.672-2.419-.783-2.74-2.277-3.4-4.958-3.342-8.051.17-16.108.1-24.161.038-1.936-.013-3.448.123-4.125,2.415-.605,2.048-2.035,3.755-4.4,3.613-2.491-.148-4.751-1.2-5.654-3.76-.633-1.791-1.534-2.909-3.519-2.924-2.2-.017-2.47-1.536-2.422-3.222.085-2.984.156-5.97.375-8.945a5,5,0,0,1,.956-2.629c4.2-5.23,8.42-10.456,12.825-15.516a5.872,5.872,0,0,1,3.9-1.821c12.741-.136,25.484-.1,38.227-.072,3.731.007,5,1.061,5.331,4.721C374.668,342.358,375.084,348.708,375.586,355.3Zm-3.916-11.744c-.165-3.27-.145-6.027-.539-8.724a3.143,3.143,0,0,0-2.112-2.132,100.659,100.659,0,0,0-11.479,0,3.067,3.067,0,0,0-2.12,2.079c-.26,2.816-.1,5.669-.1,8.781Zm-31.313-10.571c-10.226-.887-9.3-1.348-12.518,5.8L330,343.477h10.361ZM353.3,343.571V333.145c-9.759-2.276-11.356-1.056-10.971,8.154a18.643,18.643,0,0,0,.392,2.272Zm-32.662-1.144c3.032.017,7.05-5.09,7.629-9.553Zm45.52,17.348c-.871,1.75-1.634,2.665-1.687,3.62-.033.581,1.031,1.223,1.6,1.837.728-.759,1.859-1.429,2.053-2.307C368.263,362.272,367.195,361.351,366.153,359.775Zm-39.508,3.551c-1.459-1.161-2.254-2.27-3.093-2.3-.628-.026-1.726,1.28-1.827,2.092-.068.545,1.169,1.634,1.956,1.786C324.339,365.027,325.191,364.148,326.644,363.325Z" transform="translate(-312.473 -331.277)"/><path d="M373.362,343.605H357.01c0-3.112-.158-5.965.1-8.781a3.067,3.067,0,0,1,2.12-2.079,100.659,100.659,0,0,1,11.479,0,3.143,3.143,0,0,1,2.112,2.132C373.217,337.578,373.2,340.335,373.362,343.605Z" transform="translate(-314.166 -331.326)" fill="#fff"/><path d="M340.965,333.033v10.493H330.6l-2.157-4.692C331.668,331.685,330.738,332.146,340.965,333.033Z" transform="translate(-313.081 -331.325)" fill="#fff"/><path d="M354.474,343.605H343.9a18.643,18.643,0,0,1-.392-2.272c-.385-9.21,1.212-10.429,10.971-8.154Z" transform="translate(-313.652 -331.311)" fill="#fff"/><path d="M320.956,342.49l7.629-9.553C328.006,337.4,323.988,342.507,320.956,342.49Z" transform="translate(-312.796 -331.34)" fill="#fff"/><path d="M368.209,360.9c1.042,1.577,2.111,2.5,1.967,3.15-.193.877-1.325,1.548-2.053,2.307-.57-.615-1.634-1.256-1.6-1.837C366.575,363.567,367.339,362.652,368.209,360.9Z" transform="translate(-314.529 -332.404)" fill="#fff"/><path d="M327.01,364.5c-1.453.822-2.306,1.7-2.964,1.575-.787-.152-2.024-1.241-1.956-1.786.1-.812,1.2-2.118,1.827-2.092C324.756,362.232,325.551,363.341,327.01,364.5Z" transform="translate(-312.839 -332.453)" fill="#fff"/></g></svg>