<svg xmlns="http://www.w3.org/2000/svg" width="83.219" height="46.055" viewBox="0 0 83.219 46.055"><path d="M456.793,356.028c1.2-6.036,1.72-12.371,6.146-17.275a14.454,14.454,0,0,1,3.022-1.934,41.3,41.3,0,0,1,3.987-2.594c2.1-1.032,2.2,2.058,3.932,2.086,1.428.023,2.821-.194,4.088,1.19,1.381,1.508,1.342,3.1,1.356,4.833.031,3.552.037,3.55,3.323,4.491.471.135,1.267.185,1.354.455.952,2.946,3.391,1.957,5.333,2.006,3.995.1,7.993,0,11.99.042,1.507.015,2.4-.264,2.968-2.01.446-1.359,1.973-2.382,3.076-3.5.6-.6,1.466-.981,1.94-1.652,1.384-1.959,1.029-2.926-1.058-4.12-4.459-2.553-9.473-2.971-14.368-3.794-9.464-1.592-18.948-3.055-28.422-4.587-2.652-.43-3.024-1.035-1.786-3.349.77-1.439,1.261-2.58-.317-3.833-.346-.274-.22-1.4.014-2.015.091-.237,1.1-.249,1.657-.165q16.827,2.529,33.644,5.113,18.48,2.838,36.955,5.709c.616.095,1.242.146,1.849.282,3,.673,3.007.952,1.333,3.707a4.276,4.276,0,0,0-.127,3.068c.917,3.094.94,3.222-2.3,2.748-4.933-.72-9.839-1.626-14.77-2.363a6.452,6.452,0,0,0-2.182.48c.486.566.929,1.176,1.466,1.688.781.744,1.924,1.267,2.382,2.158a2.98,2.98,0,0,0,3.2,1.95c1.261-.107,1.729.6,1.838,1.8.147,1.612.388,3.222.694,4.812a3.8,3.8,0,0,0,.842,1.911c.538.537,1.868.673,1.977,1.173a12.3,12.3,0,0,1,.133,4.457c-.085.539-1.224,1.276-1.9,1.3-2.82.08-4.983.669-6.153,3.746-.727,1.91-3.623,2.164-5.524.989a5.691,5.691,0,0,1-.954-.589c-1.45-1.364-2.423-2.146-4.4-.076-2.478,2.6-6.487,1.6-8.068-1.679-.6-1.251-1.159-1.721-2.414-1.719-8.993.013-17.986-.027-26.978.065-.8.008-1.607.809-2.382,1.288-.187.116-.237.435-.387.632-3.53,4.6-5.1,4.43-8.658-.213-1.106-1.442-3.2-2.228-4.975-3.026C457.483,358.955,456.4,358.068,456.793,356.028Zm9.128-11.824a20.562,20.562,0,0,0-.038-2.96,6.652,6.652,0,0,0-.839-1.775,6.366,6.366,0,0,0-1.674,1.243,29.326,29.326,0,0,0-2.362,4.137,42.075,42.075,0,0,0-1.411,4.042c1.343.1,2.689.17,4.029.3,1.8.174,2.452-.679,2.312-2.391C465.868,345.939,465.926,345.07,465.921,344.2Zm6.831-2.1c.032-2.714-.109-2.872-2.568-2.89-2.518-.018-2.624.161-2.709,2.77-.057,1.759.25,2.8,2.406,2.7C472.57,344.562,472.722,344.581,472.752,342.109Zm50.95-10.138c-2.326.007-2.109,1.291-2.21,2.341-.108,1.124.184,1.89,1.545,1.895a1.866,1.866,0,0,0,2.093-2.326C525,333.072,524.043,332.4,523.7,331.971Zm-20.223-1.632c-.909-.908-1.453-1.93-2.074-1.979-1.873-.148-1.535,1.471-1.672,2.635-.142,1.2.344,2.145,1.587,1.721C502.078,332.457,502.563,331.395,503.479,330.339Zm-8.885-1.424c-.533,1.98-.329,2.941,1.091,2.73a2.459,2.459,0,0,0,1.717-1.295c.361-1.115.107-2.4-1.426-2.357C495.323,328.013,494.7,328.842,494.594,328.915Zm20.335,3.884c-1.1-1.056-1.585-1.92-2.253-2.093-1.555-.4-1.652.915-1.927,2.006-.407,1.613.9,1.652,1.714,1.643C513.1,334.348,513.721,333.6,514.929,332.8Zm-33.544-6.72a9.245,9.245,0,0,0-2.01-.9c-1.092-.147-1.944.123-1.952,1.534-.008,1.3.49,2.506,1.772,2.213C479.979,328.748,480.478,327.327,481.385,326.079Zm5.533,2.006-1.925-2.05c-.564.8-1.454,1.566-1.571,2.432-.068.509,1.092,1.183,1.7,1.783Zm21.758,3.5c-.8-.906-1.268-1.914-1.78-1.935-1.806-.076-1.562,1.567-1.791,2.7-.22,1.082.412,1.888,1.419,1.5C507.3,333.552,507.8,332.547,508.676,331.582Zm-42.508-6.207,1.9,1.967c.556-.655,1.4-1.231,1.606-1.982.419-1.518-.892-1.926-1.975-1.923C467.273,323.438,466.853,324.464,466.168,325.375Zm25.968,4.024c-.747-1.166-1.112-2.416-1.709-2.539-1.788-.367-1.29,1.432-1.514,2.3-.136.53.6,1.285.945,1.939Zm24.763,5.719,1.032.09a6.858,6.858,0,0,0,1.253-1.934c.236-1-.035-1.95-1.383-2.09-1.8-.188-1.574,1.22-1.635,2.2C516.131,333.945,516.636,334.539,516.9,335.118Zm9.912-.286c.81,1,1.25,2.08,1.888,2.212,1.524.316,1.72-.988,1.842-2.155.154-1.476-1.01-1.668-1.928-1.644C528.106,333.258,527.62,334.083,526.811,334.832ZM473.3,323.744c-.683,1.072-1.182,1.537-1.285,2.077-.274,1.432.706,2.13,1.9,2.09.441-.015,1.253-1.182,1.169-1.707C474.966,325.479,474.161,324.864,473.3,323.744Zm61.056,14.8c.793-1.033,1.253-1.391,1.379-1.842.353-1.26.016-2.286-1.481-2.323-.421-.011-1.263.681-1.215.887A23.194,23.194,0,0,0,534.355,338.54Zm-24.21,22.831a6.562,6.562,0,0,0,.759-2.123c-.028-.443-.634-.85-.983-1.273a9.731,9.731,0,0,0-1.22,2.012C508.63,360.2,509.42,360.7,510.145,361.371Zm10.238-3.627c-.429.628-.936,1.079-.85,1.3a10.723,10.723,0,0,0,1.148,1.848c.432-.328,1.275-.864,1.231-.95A17.073,17.073,0,0,0,520.383,357.744Zm-51.1,2.957c-.052-.081-.088-.206-.159-.232-.089-.031-.206.02-.311.036l.213.364Z" transform="translate(-456.712 -320.258)"/></svg>