<svg xmlns="http://www.w3.org/2000/svg" width="58.616" height="28.176" viewBox="0 0 58.616 28.176"><path d="M339.841,273.5a31.773,31.773,0,0,0,4.432-.032c5.66-.811,9.155,2.165,12.163,6.435,1.673,2.374,3.269,4.717,4.708,7.25,1.037,1.827,2.03,3.306,1.818,5.356a2.672,2.672,0,0,1-1.081,1.891c-1.733.867-3.642,1.38-5.386,2.23a5.467,5.467,0,0,0-2.014,1.9c-2.5,3.827-5.711,4.031-8.073.222a3.3,3.3,0,0,0-3.295-1.79c-6.9.051-13.8.024-20.7.023a2.724,2.724,0,0,0-2.788,1.474c-2.314,3.723-5.951,3.562-8.582.084a6.445,6.445,0,0,0-2.968-2.06c-3.6-1.2-4.271-3.746-3.294-7.189,1.195-4.213,3.855-5.414,7.577-5.784.473-.047.954-.53,1.38-.466,7.4,1.119,10.866-4.845,15.607-8.538a4.721,4.721,0,0,1,2.514-.965C334.514,273.421,337.179,273.5,339.841,273.5Zm.408,8.261h14.816c-2.381-2.537-4.3-4.606-6.257-6.638a2.262,2.262,0,0,0-1.047-.489C341.023,272.885,339.177,274.563,340.248,281.759Zm-16.192.01h14.069v-6.807C331.448,273.655,328.338,275.156,324.056,281.769Zm-8.381,10.27c-.99,1.227-2.014,1.947-1.972,2.6.044.678,1.027,1.495,1.785,1.825.289.126,1.539-.918,1.557-1.454C317.07,294.235,316.37,293.438,315.675,292.038Zm34.593,5.44c.993-1.269,1.951-1.962,1.891-2.552-.074-.732-.99-1.379-1.543-2.063-.6.6-1.548,1.128-1.7,1.828C348.78,295.294,349.55,296.1,350.268,297.478Z" transform="translate(-304.374 -273.333)"/><path d="M349.724,281.935c-1.072-7.2.775-8.873,7.512-7.127a2.262,2.262,0,0,1,1.047.489c1.956,2.033,3.876,4.1,6.257,6.638Z" transform="translate(-313.85 -273.509)" fill="none"/><path d="M329.3,282.088c4.281-6.612,7.391-8.114,14.069-6.807v6.807Z" transform="translate(-309.615 -273.652)" fill="none"/><path d="M318.159,297.019c.7,1.4,1.4,2.2,1.369,2.969-.017.536-1.268,1.58-1.557,1.454-.757-.33-1.741-1.147-1.785-1.825C316.145,298.966,317.169,298.246,318.159,297.019Z" transform="translate(-306.858 -278.313)" fill="none"/><path d="M362.122,302.678c-.718-1.382-1.488-2.184-1.354-2.786.155-.7,1.1-1.227,1.7-1.828.553.684,1.469,1.331,1.543,2.063C364.074,300.716,363.115,301.409,362.122,302.678Z" transform="translate(-316.229 -278.533)" fill="none"/></svg>