<svg xmlns="http://www.w3.org/2000/svg" width="61.224" height="37.369" viewBox="0 0 61.224 37.369"><g transform="translate(-150.616 -332.849)"><path d="M195.991,364.418H166.359c-.323.755-.653,1.4-.883,2.086-.864,2.554-1.92,3.507-4.1,3.636-1.715.1-4.21-1.243-4.648-3.027-.463-1.883-1.728-2.7-2.959-3.933a12.533,12.533,0,0,1-2.912-6.078c-.485-2.271-.068-4.726-.129-7.1a2.685,2.685,0,0,1,1.881-2.865c1.733-.7,3.384-1.608,5.114-2.317a5.623,5.623,0,0,0,3.251-3.4c.807-2.1,1.76-4.134,2.553-6.234a3.17,3.17,0,0,1,3.342-2.339q18.554.069,37.106,0c2.032-.009,2.86.991,3.3,2.786,1.617,6.545,3.054,13.1,3.035,19.9a7.155,7.155,0,0,0,.841,3.071c1.174,2.348.931,3.3-1.38,4.335a12.748,12.748,0,0,1-1.395.537,3.364,3.364,0,0,0-2.732,3.05c-.285,1.93-2.123,3-3.89,3.526a4.308,4.308,0,0,1-5.125-2.775A22.036,22.036,0,0,1,195.991,364.418ZM172.2,335.075c-1.854,0-3.452-.109-5.021.054a2.445,2.445,0,0,0-1.741,1.144c-.945,2.234-2.427,4.32-2.465,7.24,3.239.024,6.271.44,9.227-.234Zm30.273,28.349c-.072-1.108.025-2.488-1.633-2.279a2.5,2.5,0,0,0-2.406,2.4c-.053,1.183,1.546,2.97,2.473,2.8C202.578,366.031,202.428,364.66,202.471,363.424Zm-43.11-.437c.037,1.968.227,3.308,1.805,3.377,1.63.07,1.76-1.52,2.03-2.609.3-1.2-1-2.663-2.1-2.328C160.292,361.671,159.711,362.651,159.361,362.987Z"/><path d="M172.2,335.075v8.2c-2.956.674-5.988.258-9.227.234.038-2.92,1.52-5.006,2.465-7.24a2.445,2.445,0,0,1,1.741-1.144C168.746,334.966,170.344,335.075,172.2,335.075Z" fill="#fff"/><path d="M202.471,363.426c-.043,1.234.107,2.605-1.566,2.917-.927.172-2.526-1.615-2.473-2.8a2.5,2.5,0,0,1,2.406-2.4C202.5,360.936,202.4,362.316,202.471,363.426Z" fill="#fff"/><path d="M159.361,362.987c.35-.336.931-1.316,1.735-1.56,1.1-.335,2.4,1.124,2.1,2.328-.27,1.089-.4,2.679-2.03,2.609C159.588,366.3,159.4,364.955,159.361,362.987Z" fill="#fff"/></g></svg>