<svg xmlns="http://www.w3.org/2000/svg" width="53.767" height="41.196" viewBox="0 0 53.767 41.196"><g transform="translate(-22.354 -442.906)"><path d="M44.226,443.97c1.7,2.29,1.04,4.649.9,7.286L39.8,453.067c-.617,1.868-1.256,3.8-2.064,6.245,4.716-1.867,8.747-2.177,11.893,1.6.427,0,.767.106.906-.016,2.2-1.937,4.8-2.245,7.616-2.226a27.984,27.984,0,0,0,5.2-.946v-4.952c-2.073-.069-4.026-.1-5.975-.206-2.746-.15-3.858-1.021-4.592-3.484-.769-2.585,1.211-5.94,3.936-6.051,4.865-.2,9.746-.14,14.614.007a5.827,5.827,0,0,1,4.705,3.784c.546,2.486-1.8,5.472-4.587,5.724-1.222.111-2.462.019-3.842.019a20.513,20.513,0,0,0-.481,2.373,20.884,20.884,0,0,0,.086,2.37c1.214.893,3.332.73,3.74,2.576a28.852,28.852,0,0,1,.6,5.106c.1,2.724-1.544,4.024-4.238,4.329v6.04c1.585.994,3.247.5,4.824.577,3.144.153,3.893.886,3.963,4.088.019.871,0,1.743,0,2.451-1.016,1.469-2.352,1.608-3.764,1.605-5.373-.01-10.747.028-16.12-.018-2.6-.022-3.327-.863-3.512-3.71a3.864,3.864,0,0,1,3.577-4.379c1.118-.086,2.249,0,3.373-.03,1.1-.026,2.209-.093,3.246-.138.84-2.909.844-3.064.142-6.661-2.57-.288-5.255-.776-7.95-.833-2.083-.043-3.66-.563-4.524-2.546-4.916,3.822-4.916,3.822-13.326,1.368.834,2.669,1.543,5.137,2.39,7.557.384,1.1,1.454,1.278,2.5,1.248,1.427-.042,3.1,0,3.484,1.525a16.118,16.118,0,0,1,.149,5.487c-.046.441-1.342,1.023-2.092,1.067-2.366.141-4.745.06-7.119.06-3.5,0-7,.044-10.5-.017-2.474-.043-2.81-.423-2.914-2.816A16.861,16.861,0,0,1,23.168,479c.18-1.986,1.062-2.9,3.077-3.016,1.731-.1,3.472-.02,5.214-.02,1.185-2.237.634-4.31.506-6.576-3.458-.1-3.77-3.064-5.051-5.385,1.108-2.469,2.188-4.952,5.071-5.9v-5c-3.049-1.36-6.778.715-9.423-2.347-.08-2.15-.783-4.518.949-6.788Z"/></g></svg>