<svg xmlns="http://www.w3.org/2000/svg" width="44.903" height="42.213" viewBox="0 0 44.903 42.213"><g transform="translate(-495.034 -455.784)"><path d="M504.877,469.82q3,0,5.993,0c.624,0,1.5.24,1.83-.077,1.891-1.818,3.489-1.945,4.966.439.059.094.806-.049.821-.143.468-3.107,3.579-3.558,5.365-5.321,1.528-1.507,3.965-2.413,1.573-5.243-.467-.552.25-2.694,1.039-3.492.453-.458,2.526-.064,3.2.613a2.6,2.6,0,0,1-.376,3.974c-1.081.877-2.861,1.37.119,1.893a1.458,1.458,0,0,1,.82,1.049c.365,2.717.708,5.441.916,8.173a3.8,3.8,0,0,0,1.877,3c3.24,1.959,6.054,4.3,6.488,8.455a24.869,24.869,0,0,1,.353,5.786c-.351,3.015-2.092,4.864-3.645,7a5.205,5.205,0,0,1-4.117,1.992c-6.964.691-9.25-2.89-10.731-9.073-.806-3.364-.657-3.433-3.867-2.212a9.123,9.123,0,0,1-2.9.442c-2.121.069-4.245.015-6.367.048-.985.016-1.431.139-1.187,1.531a10.151,10.151,0,0,1-.5,5c-1.37,3.771-3.275,4.795-6.785,4.154-1.879-.343-4.491-3.733-4.686-6.182-.207-2.588.264-5.012,2.237-6.874.9-.848,1.046-1.3.518-2.71-1.218-3.236-1.721-6.742-2.512-10.138-.33-1.416.164-2.1,1.689-2.073,2.621.048,5.243.013,7.866.013Zm17.213,1.328,3.311-.453-.265-1.032-2.993,1.582,0,.156Zm-2.947,1.614a19.56,19.56,0,0,0-2.665.71c-.522.215-1.344.818-1.294,1.128.376,2.328.916,4.63,1.462,6.927.073.3.467.534.712.8a3.277,3.277,0,0,0,.474-.923c.428-2.916.819-5.837,1.221-8.756l.93.1-.089-.514Zm13.652,13.129c-.043-2.289-.629-3.163-2.162-3.229-1.459-.063-3.178,2.092-3.1,3.889.063,1.47,1.828,3.411,3.148,3.1C532.537,489.209,532.852,487.58,532.795,485.891Zm-31.61,1.495c-.869,1.429-1.472,2.022-1.584,2.7-.178,1.069-.238,2.446,1.466,2.266.651-.069,1.8-.873,1.75-1.15A20.539,20.539,0,0,0,501.185,487.386Zm21.965-8.649,2.235-2.835c-.209-.151-.427-.442-.624-.427-1.031.075-2.529,2.081-2.2,2.909C522.619,478.521,522.875,478.578,523.15,478.737Zm4.775-3.924c-.071-.081-.153-.238-.211-.23a3.62,3.62,0,0,0-.59.177c.073.08.155.234.217.226A3.271,3.271,0,0,0,527.925,474.813Z"/><path d="M532.795,485.89c.057,1.69-.258,3.319-2.115,3.759-1.32.313-3.085-1.628-3.148-3.1-.077-1.8,1.642-3.952,3.1-3.889C532.166,482.728,532.752,483.6,532.795,485.89Z" fill="#fff"/><path d="M519.053,472.646c-.4,2.919-.793,5.84-1.221,8.756a3.277,3.277,0,0,1-.474.923c-.245-.264-.639-.493-.712-.8-.546-2.3-1.086-4.6-1.462-6.927-.05-.31.772-.913,1.294-1.128a19.56,19.56,0,0,1,2.665-.71Z" fill="#fff"/><path d="M501.185,487.386a20.539,20.539,0,0,1,1.632,3.813c.054.277-1.1,1.081-1.75,1.15-1.7.18-1.644-1.2-1.466-2.266C499.713,489.408,500.316,488.815,501.185,487.386Z" fill="#fff"/><path d="M523.15,478.737c-.275-.159-.531-.216-.586-.353-.332-.828,1.166-2.834,2.2-2.909.2-.015.415.276.624.427Z" fill="#fff"/><path d="M522.143,471.245l2.993-1.582.265,1.032-3.311.453Z" fill="#fff"/><path d="M527.925,474.814a3.353,3.353,0,0,1-.584.172c-.062.008-.144-.146-.217-.226a3.62,3.62,0,0,1,.59-.177C527.772,474.575,527.854,474.732,527.925,474.814Z" fill="#fff"/><path d="M519.143,472.762l.751-.527.089.514-.93-.1Z" fill="#fff"/><path d="M522.09,471.148l.054.253,0-.156Z" fill="#fff"/></g></svg>