<svg xmlns="http://www.w3.org/2000/svg" width="49.33" height="32.033" viewBox="0 0 49.33 32.033"><path d="M66.418,410.666c.074-1.163.161-1.78.134-2.392a5.193,5.193,0,0,0-.393-1.2,31.408,31.408,0,0,0-4.648-.99c-1.922-.129-3.773-.156-4.7-1.926-2.231.224-3.448,2.386-5.522,1.794-1.61-.459-3.176-1.076-4.838-1.649-1,2.62.572,4.858,1.054,7.47-1.136.2-1.756-.281-1.8-1.266-.089-1.979-.027-3.964-.027-6.063H28.3c-.243-.27-.528-.436-.55-.631-.63-5.517-.4-5.775,5.037-5.778,2.375,0,4.752-.073,7.123.024,1.787.073,3.565.363,5.481.571.73-2.349-.614-5.287,1.438-8.213.21,1.023.6,1.731.4,2.171a8.154,8.154,0,0,0-.82,5.724c3.448-.481,7.258-2.258,9.973,1.913,2.712-3.326,6.455-1.629,9.717-2.465.832-1.535.586-3.09.184-5.029l-7.524-.4a21.317,21.317,0,0,1-.361-3.065c.069-2.215.97-3.166,3.231-3.226,3.5-.093,7-.067,10.5-.019s4.61,1.364,4.562,5.23c-1.805,2.194-4.5.739-6.79,1.592-.924,1.423-.547,3-.305,4.733l3.215,1c.448,3.387.86,6.5-2.725,8.592-.626.366-.557,1.923-.791,2.857,1.705,1.164,3.252.63,4.7.8,2.144.245,2.842,1.116,2.843,3.566s-.689,3.483-2.831,3.541c-4,.108-8,.1-12,0a3.327,3.327,0,0,1-3.453-3.579c.032-2.083,1.277-3.355,3.533-3.522C63.422,410.73,64.77,410.725,66.418,410.666Z" transform="translate(-27.5 -385.973)"/></svg>