<svg xmlns="http://www.w3.org/2000/svg" width="100.251" height="41.788" viewBox="0 0 100.251 41.788"><g transform="translate(-112.279 -458.981)"><path d="M201.855,494.438c-.2.893-.358,1.8-.6,2.676a4.332,4.332,0,0,1-3.485,3.486c-2.018.372-2.957-1.139-3.757-2.52A27.475,27.475,0,0,1,192.461,494H152.587c-.121-4.087-2.885-6.412-5.008-9.109-.966-1.227-2.357-1.3-3.769-1.073-1.311.21-1.953,1-1.845,2.648l4.344.692a19.993,19.993,0,0,1,.008,9.593,6.885,6.885,0,0,1-2.815,3.687c-1.179.777-2.726.083-3.6-1.166a34.565,34.565,0,0,1-1.854-3.419c-.514,2.466-1.551,4.826-4.3,4.643-2.878-.191-3.81-2.817-4.538-5.477h-4.423a37.3,37.3,0,0,1-2.252,3.9c-1.9,2.548-3.572,2.414-4.963-.415-1.015-2.063-1.851-4.183-4.855-3.936a53.956,53.956,0,0,1,.536-17.264c.308-1.53,1.446-1.9,2.8-1.916,2.25-.021,4.5.032,6.748-.06,2.671-.108,2.858-.384,3.091-3.09.1-1.125-.459-2.5,1.281-3.485,1.436,5.847,1.485,11.6,1.507,17.357,2.811,1.166,5.358.709,8,.478.347-2.994-2.258-2.531-3.591-3.364-.768-2.811-.938-19.192-.189-23.934,8.713-.572,17.536-.168,26.344-.243,8.748-.074,17.5-.016,26.244-.016h26.713c.125,1.379.287,2.342.289,3.3q.028,14.06,0,28.119c0,1.447.318,2.945-1.333,3.992-.541.343-.44,1.615-.76,2.41a12.057,12.057,0,0,1-1.48,2.975,2.615,2.615,0,0,1-4.141-.225,51.768,51.768,0,0,1-2.3-5Z"/></g></svg>