<svg xmlns="http://www.w3.org/2000/svg" width="98.012" height="41.296" viewBox="0 0 98.012 41.296"><g transform="translate(-113.831 -526.563)"><path d="M139.873,563.283c-.616,1.074-.988,1.815-1.443,2.5-1.621,2.444-4.48,2.327-5.906-.224-.122-.218-.233-.443-.346-.665-1.763-3.472-2.022-3.586-6.335-2.639-.122,2.631-1.761,4.1-4.325,4.747a6.487,6.487,0,0,1-3.89-3.609c-.427-1.031-1.982-1.6-3.626-2.815-.312-5.632-.433-11.878,1.773-18.3,2.867,0,5.6.049,8.322-.013,2.956-.067,3.091-.3,3.314-3.226.1-1.367-.564-2.97.944-4.178,1.4.98.826,2.335.931,3.48.134,1.459-.039,2.859,1,4.24.643.854.459,2.363.553,3.586.077.993.014,2,.017,3,.013,5.119.907,5.908,5.91,5.022.616-.109,1.52-.664,1.607-1.138.1-.538-.468-1.316-.937-1.8a5.309,5.309,0,0,0-1.6-.8V527.216c2.88-.711,38.851-.917,44.34-.235.189,4.477.06,9.053.083,13.622.023,4.606.005,9.212.005,14.16h5.4c0-.843.285-1.755-.049-2.225-1.517-2.129-1.211-4.514-1.221-6.859q-.033-7.494,0-14.988c.006-1.214.13-2.428.211-3.845h26.63c1.1,4.9.572,34.422-.665,40.232h-4.641c-.159-.772-.392-1.684-.525-2.611-.14-.973-.186-1.959-.3-3.251-4.7-1.107-9.474.048-14.243-.733-.766-2.789-.133-5.959-2.582-8.758l-.755,3.8H180.79c-1.056,4.1-1.18,8.344-3.078,12.337-2.693-1.775-2.192-4-2.681-6.074a39.017,39.017,0,0,1-1.657,4.561,2.1,2.1,0,0,1-1.8.871,2.208,2.208,0,0,1-1.293-1.511,40.39,40.39,0,0,1-.419-4.536,27.978,27.978,0,0,0-3.158-.4c-4.746-.039-9.492-.052-14.238-.009-3.267.03-3.353.175-4.437,3.3a6.325,6.325,0,0,1-1.257,2.234c-1.629,1.732-3.6,1.548-5.017-.361C141.19,565.165,140.652,564.381,139.873,563.283Zm4.258-9.437c-.154-1.606-.435-2.973-2.361-2.541a1.964,1.964,0,0,0-1,1.651C141.343,554.831,142.728,554.216,144.131,553.846Z"/><path d="M144.131,553.846c-1.4.37-2.788.985-3.365-.89a1.964,1.964,0,0,1,1-1.651C143.7,550.873,143.977,552.24,144.131,553.846Z" fill="#fff"/></g></svg>