<svg id="uphill" xmlns="http://www.w3.org/2000/svg" width="62.06" height="38.657" viewBox="0 0 62.06 38.657">
  <g id="uphill-2" data-name="uphill" transform="translate(0 11.019) rotate(-11)">
    <g id="Group_241" data-name="Group 241" transform="translate(0 0)">
      <g id="Group_239" data-name="Group 239" transform="translate(0.444 0)">
        <path id="Path_2214" data-name="Path 2214" d="M46.222,11.305c3.93-.217,6.446,2.551,6.65,7.351.055.029.111.081.167.082q1.153.015,2.306.017c1.535,0,1.865-.218,1.948-1.77.065-1.214-.158-2.44-.166-3.662a3.836,3.836,0,0,0-2.4-3.748,27.385,27.385,0,0,0-8.045-2.047,6.916,6.916,0,0,1-3.517-1.32C38.038,2.189,32.1.445,25.638.058,20.056-.276,14.944.781,10.551,4.406A10.8,10.8,0,0,1,6.03,6.381,33.33,33.33,0,0,0,2.376,7.5,2.333,2.333,0,0,0,.686,9.781c-.033.9-.346,1.8-.427,2.7C.12,14.011.013,15.547,0,17.08a1.57,1.57,0,0,0,1.34,1.543,18.737,18.737,0,0,0,2.64.168,6.252,6.252,0,0,1,5.211-7.421,5.823,5.823,0,0,1,4.528,1.1,6.148,6.148,0,0,1,2.537,6.247H40.471A6.341,6.341,0,0,1,46.222,11.305ZM40.486,7.4a6.7,6.7,0,0,1-.92.095c-3.707-.135-7.414-.272-11.119-.446a.941.941,0,0,1-.713-.515c-.253-1.421-.423-2.857-.618-4.278C30.255,1.446,39.453,4.944,40.486,7.4ZM12.47,6.751c1.335-2.925,8.3-5.206,12.318-4.685l.649,4.685Z" transform="translate(0 0)" fill="#2e3094"/>
        <path id="Path_2215" data-name="Path 2215" d="M4.678,9.339A4.621,4.621,0,0,1,0,4.524,4.686,4.686,0,0,1,4.6,0a4.673,4.673,0,1,1,.08,9.339Z" transform="translate(41.816 12.85)"/>
        <path id="Path_2216" data-name="Path 2216" d="M9.493,4.778A4.636,4.636,0,0,1,4.681,9.363,4.611,4.611,0,0,1,0,4.64,4.524,4.524,0,0,1,4.566,0,4.667,4.667,0,0,1,9.493,4.778Z" transform="translate(5.418 12.693)"/>
        <path id="Path_2217" data-name="Path 2217" d="M2.077.042A2.666,2.666,0,0,1,2.346.008,2.554,2.554,0,0,1,4.2.6a2.478,2.478,0,0,1,.882,1.71A2.505,2.505,0,0,1,3.011,4.971a2.641,2.641,0,0,1-.268.034A2.55,2.55,0,0,1,.891,4.412,2.477,2.477,0,0,1,.008,2.7,2.506,2.506,0,0,1,2.077.042Z" transform="translate(7.62 14.867)" fill="#fff"/>
        <path id="Path_2218" data-name="Path 2218" d="M2.077.043A2.667,2.667,0,0,1,2.346.008,2.554,2.554,0,0,1,4.2.6,2.494,2.494,0,0,1,3.011,4.971a2.675,2.675,0,0,1-.269.035A2.553,2.553,0,0,1,.891,4.412,2.478,2.478,0,0,1,.008,2.7,2.505,2.505,0,0,1,2.077.043Z" transform="translate(44.018 15.014)" fill="#fff"/>
      </g>
      <rect id="Rectangle_5" data-name="Rectangle 5" width="57.749" height="6.243" transform="translate(0 21.912)"/>
    </g>
  </g>
</svg>
