<svg xmlns="http://www.w3.org/2000/svg" width="52.364" height="43.545" viewBox="0 0 52.364 43.545"><g transform="translate(-75.692 1403.362)"><path d="M90.44-1385.7c-.455.934-.819,1.707-1.206,2.467a2.464,2.464,0,0,1-3.1,1.469q-4.133-.888-8.265-1.78c-1.994-.435-2.659-1.753-1.834-3.62.593-1.341,1.2-2.676,1.824-4.076l7.554,2.146,1.067-2.567c-3.577-2.069-4.851-4.481-3.943-7.4a5.934,5.934,0,0,1,5.94-4.287,6.027,6.027,0,0,1,5.687,5.939c.937-.312,1.85-.609,2.759-.919,2.233-.761,4.47-1.511,6.694-2.3a2.649,2.649,0,0,1,2.6.344c2.331,1.641,4.694,3.237,7.035,4.864a2.247,2.247,0,0,1-.081,4.031c-.648.409-1.3.816-1.966,1.191a2.25,2.25,0,0,1-2.942-.329c-1.192-1.059-2.383-2.12-3.541-3.216a.914.914,0,0,0-1.2-.171c-1.095.524-2.222.979-3.632,1.592a41.293,41.293,0,0,1,3.185,3.024,28.177,28.177,0,0,0,9.968,7.321c1.513.695,2.417.7,3.6-.471,1.589-1.567,3.384-2.926,5.093-4.371a2.52,2.52,0,0,1,3.572-.159c.606.417,1.227.816,1.8,1.271a2.144,2.144,0,0,1,.168,3.422c-3.215,2.982-6.457,5.935-9.686,8.9a2.454,2.454,0,0,1-2.964.394c-3-1.4-6.01-2.768-9.018-4.147-.3-.137-.6-.263-.961-.419-.319,1.7-.6,3.331-.937,4.948-.115.555.218.685.593.851q4.83,2.141,9.657,4.289c1.724.766,2.116,1.621,1.571,3.427-.239.792-.465,1.588-.725,2.373a2.279,2.279,0,0,1-3.371,1.578c-2.134-.852-4.25-1.753-6.373-2.633q-3.694-1.533-7.387-3.069a2.58,2.58,0,0,1-1.85-3q.251-4.685.464-9.372a1.383,1.383,0,0,0-.144-.866C94.3-1381.23,92.417-1383.4,90.44-1385.7Zm-.284-2.242c2.295,2.683,4.532,5.324,6.806,7.934a2.2,2.2,0,0,1,.579,1.731c-.193,3.275-.315,6.555-.475,9.832a1.236,1.236,0,0,0,.782,1.394c4.732,1.951,9.455,3.922,14.188,5.87a1.022,1.022,0,0,0,1.559-.741c.27-.845.516-1.7.769-2.549.317-1.07.163-1.413-.862-1.873q-4.78-2.142-9.564-4.275c-1.644-.733-1.66-.73-1.355-2.456.366-2.068.76-4.132,1.154-6.264.408.176.716.3,1.018.439q5.173,2.388,10.343,4.785a1.239,1.239,0,0,0,1.527-.068q4.892-4.465,9.782-8.933a1,1,0,0,0-.116-1.646c-.558-.43-1.169-.793-1.715-1.237a1.326,1.326,0,0,0-1.951.094c-2.279,1.958-4.6,3.865-6.883,5.821a.973.973,0,0,1-1.277.161c-2.31-1.2-4.653-2.343-6.968-3.536a5.11,5.11,0,0,1-1.243-.917q-3.873-3.869-7.711-7.774c-.2-.207-.4-.426-.625-.674,2.042-.895,4-1.773,5.978-2.594a1.1,1.1,0,0,1,.936.149c.989.823,1.923,1.712,2.879,2.575,2.4,2.169,1.783,2.114,4.583.387,1.253-.773,1.255-1.408.037-2.249-2.194-1.514-4.4-3.01-6.575-4.551a1.95,1.95,0,0,0-1.967-.272c-3.463,1.223-6.941,2.4-10.416,3.591-.236.081-.485.127-.771.2.694-3.361-.613-5.785-3.381-6.423a4.741,4.741,0,0,0-5.56,3.379c-.747,2.879.862,5.01,4.571,6l-2.085,5.014-7.58-2.142c-.492,1.11-.972,2.166-1.429,3.232-.422.985-.166,1.506.89,1.741,2.781.619,5.57,1.2,8.349,1.828a1.41,1.41,0,0,0,1.815-.94C88.8-1385.238,89.472-1386.543,90.157-1387.944Z"/></g></svg>