<svg xmlns="http://www.w3.org/2000/svg" width="45.694" height="45.59" viewBox="0 0 45.694 45.59"><g transform="translate(-1.259 1153.167)"><path d="M36.207-1153.165a5.76,5.76,0,0,1,4.187,1.8q2.321,2.21,4.522,4.544c2.434,2.591,2.451,5.837-.048,8.348q-14.322,14.388-28.72,28.7c-2.8,2.779-6,2.7-8.84-.052-1.406-1.364-2.8-2.74-4.162-4.149a5.661,5.661,0,0,1,0-8.443q14.363-14.441,28.788-28.821A6.08,6.08,0,0,1,36.207-1153.165ZM11.7-1109.342a5.3,5.3,0,0,0,3.361-1.94q3.812-3.832,7.631-7.656,10.424-10.435,20.844-20.873a3.933,3.933,0,0,0,0-5.926q-2.05-2.1-4.159-4.147c-2.085-2.03-4.105-2.008-6.155.038q-7.558,7.544-15.114,15.089c-4.5,4.5-9.018,8.979-13.5,13.495-1.945,1.96-1.927,4.026-.018,5.973,1.464,1.493,2.894,3.028,4.454,4.416A14.641,14.641,0,0,0,11.7-1109.342Z" transform="translate(0)"/><path d="M81.036-1063.858a5.463,5.463,0,0,1-4.109-1.6c-2.005-1.957-3.975-3.952-5.952-5.937-.448-.45-1-1.033-.277-1.533a1.681,1.681,0,0,1,1.541.306c1.914,1.794,3.731,3.691,5.6,5.534,2.1,2.071,4.058,2.06,6.141-.013,1.387-1.381,2.778-2.758,4.147-4.156a3.916,3.916,0,0,0,0-6c-1.673-1.723-3.391-3.4-5.09-5.1-.188-.189-.4-.362-.565-.567-.471-.574-1.537-1.087-.722-1.952.831-.883,1.4.127,1.952.63.656.6,1.264,1.251,1.9,1.877,1.327,1.314,2.675,2.609,3.981,3.944a5.666,5.666,0,0,1,.13,8.242c-1.527,1.616-3.121,3.17-4.716,4.719A5.17,5.17,0,0,1,81.036-1063.858Z" transform="translate(-44.47 -43.727)"/><path d="M13.124-1152.99a18.92,18.92,0,0,1,3.756,2.031c2.112,1.837,4.037,3.893,5.965,5.93.323.341.272,1.037.394,1.569-.537-.1-1.247-.011-1.583-.325-1.886-1.763-3.674-3.63-5.509-5.447-2.156-2.134-4.255-2.142-6.4-.028q-2.044,2.018-4.06,4.064a3.926,3.926,0,0,0-.031,6.013c1.768,1.821,3.585,3.594,5.38,5.389.221.22.537.4.639.671a11.883,11.883,0,0,1,.389,1.6,4.208,4.208,0,0,1-1.583-.337,16.269,16.269,0,0,1-1.915-1.854c-1.417-1.417-2.85-2.818-4.247-4.255a5.668,5.668,0,0,1,.007-8.431c1.5-1.523,3.024-3.022,4.534-4.535a5.639,5.639,0,0,1,4.084-1.7Z" transform="translate(-0.764 -0.114)"/><path d="M34.045-1140.481c.367.515.787.847.765,1.148s-.481.578-.749.865c-.305-.3-.774-.562-.857-.914C33.148-1139.617,33.642-1139.983,34.045-1140.481Z" transform="translate(-20.56 -8.166)"/><path d="M26.681-1129.939c-.517.377-.9.846-1.127.779-.351-.1-.594-.572-.883-.885.3-.255.594-.695.908-.711C25.869-1130.772,26.182-1130.333,26.681-1129.939Z" transform="translate(-15.07 -14.425)"/><path d="M28.244-1120.715c.41.488.915.841.868,1.093-.065.351-.541.626-.841.934-.275-.286-.744-.555-.769-.862S27.893-1120.2,28.244-1120.715Z" transform="translate(-16.891 -20.889)"/><path d="M92.055-1056.922c.412.493.919.853.868,1.1-.072.352-.551.621-.856.925-.269-.289-.728-.562-.752-.87S91.705-1056.412,92.055-1056.922Z" transform="translate(-57.966 -61.951)"/><path d="M18.415-1121.664c-.565.355-.935.769-1.239.726a1.122,1.122,0,0,1-.722-.856,1.126,1.126,0,0,1,.841-.736C17.6-1122.536,17.908-1122.081,18.415-1121.664Z" transform="translate(-9.78 -19.72)"/><path d="M111.635-1062.975c.424.523.885.844.875,1.15a1.142,1.142,0,0,1-.78.821c-.258.026-.764-.456-.805-.762S111.29-1062.426,111.635-1062.975Z" transform="translate(-70.588 -58.055)"/><path d="M95.783-1043.937c-.54.349-.889.751-1.178.712-.321-.043-.587-.491-.877-.762.319-.3.6-.749.97-.837C94.922-1044.877,95.279-1044.369,95.783-1043.937Z" transform="translate(-59.521 -69.736)"/><path d="M37.982-1127.589c-.505.43-.81.89-1.108.886a1.121,1.121,0,0,1-.841-.731,1.117,1.117,0,0,1,.722-.842C37.05-1128.328,37.422-1127.926,37.982-1127.589Z" transform="translate(-22.383 -16.018)"/><path d="M101.646-1063.669c-.55.373-.9.8-1.193.758s-.553-.524-.827-.814c.289-.271.564-.735.871-.757S101.119-1064.066,101.646-1063.669Z" transform="translate(-63.317 -57.084)"/><path d="M103.042-1051.378c-.422-.527-.872-.844-.868-1.156a1.115,1.115,0,0,1,.76-.811c.264-.022.766.447.805.746S103.382-1051.934,103.042-1051.378Z" transform="translate(-64.957 -64.253)"/><path d="M46.238-1076.157a7.512,7.512,0,0,1-.949-.666c-1.8-1.773-3.611-3.53-5.333-5.375-.309-.331-.215-1.039-.306-1.573.536.1,1.24.029,1.578.345,1.844,1.722,3.617,3.521,5.363,5.344a1.943,1.943,0,0,1,.4,1.267C46.994-1076.606,46.533-1076.4,46.238-1076.157Z" transform="translate(-24.712 -44.669)"/><path d="M78.052-1108.1c-.214.251-.412.691-.647.713a1.644,1.644,0,0,1-1.158-.352c-1.325-1.242-2.592-2.548-3.878-3.833a18.707,18.707,0,0,1-1.843-1.911c-.211-.283-.059-.838-.072-1.268.434.011,1.04-.16,1.273.062,1.992,1.892,3.921,3.853,5.856,5.805A4.256,4.256,0,0,1,78.052-1108.1Z" transform="translate(-44.513 -24.696)"/><path d="M16.942-1062.9c.39.495.837.814.828,1.12s-.463.616-.722.923c-.312-.3-.8-.549-.88-.9C16.107-1062.006,16.576-1062.387,16.942-1062.9Z" transform="translate(-9.593 -58.105)"/><path d="M102.886-1131.76c.4.5.834.8.824,1.095-.01.316-.438.619-.684.927-.325-.289-.794-.528-.919-.887C102.035-1130.836,102.509-1131.238,102.886-1131.76Z" transform="translate(-64.91 -13.779)"/><path d="M34.094-1045.994c.35.526.8.926.726,1.157-.111.344-.592.569-.915.845-.249-.309-.692-.618-.69-.925S33.675-1045.511,34.094-1045.994Z" transform="translate(-20.569 -68.985)"/><path d="M92.954-1127.465c-.548.385-.9.821-1.178.779-.321-.05-.577-.522-.861-.81.288-.278.558-.749.869-.778C92.078-1128.3,92.414-1127.864,92.954-1127.465Z" transform="translate(-57.711 -16.021)"/><path d="M112.781-1121.684c-.525.35-.922.8-1.167.733-.333-.1-.549-.594-.816-.92.305-.245.615-.687.913-.679S112.309-1122.091,112.781-1121.684Z" transform="translate(-70.508 -19.707)"/><path d="M29.14-1063.635c-.56.357-.928.773-1.21.722-.314-.057-.55-.541-.82-.839.3-.264.589-.721.9-.736C28.3-1064.5,28.62-1064.052,29.14-1063.635Z" transform="translate(-16.64 -57.08)"/><path d="M26.658-1052.518c-.535.353-.887.768-1.176.727-.309-.043-.559-.515-.835-.8.317-.283.6-.723.962-.793C25.842-1053.427,26.18-1052.933,26.658-1052.518Z" transform="translate(-15.054 -64.228)"/><path d="M95.757-1138.6c-.547.366-.9.785-1.187.745-.306-.042-.774-.531-.761-.8a1.125,1.125,0,0,1,.809-.766C94.907-1139.451,95.233-1139.006,95.757-1138.6Z" transform="translate(-59.572 -8.842)"/><path d="M100.465-1118.043c-.343-.565-.748-.939-.693-1.221.061-.309.548-.533.85-.795.26.3.714.6.725.911C101.358-1118.859,100.9-1118.552,100.465-1118.043Z" transform="translate(-63.408 -21.311)"/><path d="M37.985-1055.277c-.555.354-.911.76-1.208.721s-.771-.542-.748-.8a1.13,1.13,0,0,1,.815-.765C37.143-1056.14,37.464-1055.69,37.985-1055.277Z" transform="translate(-22.38 -62.464)"/></g></svg>