<svg xmlns="http://www.w3.org/2000/svg" width="36.776" height="42.03" viewBox="0 0 36.776 42.03"><path d="M22.769.983A10.43,10.43,0,0,0,8.66,6.567h6.665L22.769.983Zm5.347,5.584a10.483,10.483,0,0,0-3-4.065L19.7,6.567ZM18.388,21.015A10.508,10.508,0,0,0,28.9,10.508a10.5,10.5,0,0,0-.132-1.313H8.013a10.345,10.345,0,0,0-.132,1.313A10.508,10.508,0,0,0,18.388,21.015ZM6.567,24.6V42.03H17.1L9.014,23.845a10.9,10.9,0,0,0-2.447.757ZM0,38.09a3.94,3.94,0,0,0,3.94,3.94V26.288A10.959,10.959,0,0,0,0,34.675Zm21.015-3.94H16.469l3.5,7.881h1.043a3.94,3.94,0,0,0,0-7.881Zm4.728-10.508H24.372a14.286,14.286,0,0,1-11.967,0H11.8l3.5,7.881h5.713a6.575,6.575,0,0,1,6.567,6.567,6.5,6.5,0,0,1-1.347,3.94h6.6a3.94,3.94,0,0,0,3.94-3.94V34.675A11.033,11.033,0,0,0,25.743,23.642Z"/></svg>