<svg xmlns="http://www.w3.org/2000/svg" width="22.664" height="50.625" viewBox="0 0 22.664 50.625"><g transform="translate(-374.258 1190.139)"><path d="M385.9-1139.306h-1.609v1.1c0,4.9.007,9.81,0,14.715,0,1.814-1.018,2.865-2.63,2.785a2.31,2.31,0,0,1-2.183-1.831,5.991,5.991,0,0,1-.089-1.2q-.009-7.171,0-14.342a1.236,1.236,0,0,0-.593-1.228,2.79,2.79,0,0,1-.94-1.219c-1.12-2.624-2.178-5.274-3.28-7.906a2.813,2.813,0,0,1,.4-3.195c1.1-1.305,2.106-2.687,3.091-4.08a3.342,3.342,0,0,1,2.838-1.509c3.127-.012,6.254.044,9.351.073l-1.327-1.641a16.258,16.258,0,0,1-3.081.724,3.413,3.413,0,0,1-1.927-.762,3.5,3.5,0,0,1-.324-5.246,3.6,3.6,0,0,1,5.167.11q3.615,4.113,7.191,8.259a4.361,4.361,0,0,1,.822,1.438c.5,1.509-.306,2.563-1.91,2.4a29.1,29.1,0,0,1-3.355-.725c-.206-.046-.418-.07-.755-.124,0,.451,0,.845,0,1.239q.028,13.923.055,27.846c0,1.908-.961,2.981-2.593,2.918a2.292,2.292,0,0,1-2.247-1.975,7.527,7.527,0,0,1-.07-1.205q-.006-7.171,0-14.342Zm-6.042-11.763c-1.536,1.1-1.6,2.735-.229,4.575Z" transform="translate(0 -18.809)"/><path d="M419.529-1190.139c.157.765.272,1.31.379,1.856s.207,1.094.341,1.807l3.117-2.134L422.311-1185l3.448-.411.107.141-2.58,2.157.231.4,3.425,1.3c-1.135.372-2.047.7-2.982.954a.942.942,0,0,1-.758-.267,24.481,24.481,0,0,1-1.822-2.112c-1.458-1.94-3.276-2.983-5.877-2.406v-4.368l2.259,2.777Z" transform="translate(-30.997)"/></g></svg>