<svg xmlns="http://www.w3.org/2000/svg" width="30.111" height="52.93" viewBox="0 0 30.111 52.93"><g id="night-lit-by-street-light" transform="translate(-331.7 -375.96)"><g id="Path_2367" data-name="Path 2367"><path id="Path_2367-2" data-name="Path 2367" d="M356.17,380.56a4,4,0,0,1-7.95,0,3.554,3.554,0,0,1,.05-.57c-1.08.46-2.04,4.71-1.97,8.75v33.63h-.31c2.81.61,4.71,1.73,4.71,3.02,0,1.93-4.26,3.5-9.5,3.5s-9.5-1.57-9.5-3.5,4.25-3.5,9.5-3.5c.37,0,.74.01,1.1.03V388.78c-.05-2.44.14-10.66,4.4-12.47a5.177,5.177,0,0,1,4.93.71,3.642,3.642,0,0,1,.57-.04A3.79,3.79,0,0,1,356.17,380.56Z"/></g><g id="Group_381" data-name="Group 381"><rect id="Rectangle_143" data-name="Rectangle 143" width="1" height="1.5" transform="translate(349.695 386)"/></g><g id="Group_382" data-name="Group 382"><rect id="Rectangle_144" data-name="Rectangle 144" width="1" height="2.591" transform="translate(352.17 386.131) rotate(-15.241)"/></g><g id="Group_383" data-name="Group 383"><rect id="Rectangle_145" data-name="Rectangle 145" width="1" height="3.436" transform="matrix(0.776, -0.631, 0.631, 0.776, 355.778, 385.149)"/></g><g id="Group_384" data-name="Group 384"><rect id="Rectangle_146" data-name="Rectangle 146" width="1" height="4.613" transform="translate(357.106 382.479) rotate(-73.199)"/></g><g id="Group_385" data-name="Group 385"><rect id="Rectangle_147" data-name="Rectangle 147" width="1" height="1.9" transform="translate(358.368 379.649) rotate(-74.746)"/></g><g id="Group_386" data-name="Group 386"><rect id="Rectangle_148" data-name="Rectangle 148" width="3.292" height="1" transform="translate(356.167 376.483)"/></g></g></svg>