<svg xmlns="http://www.w3.org/2000/svg" width="45.646" height="29.443" viewBox="0 0 45.646 29.443"><path d="M1293.917-975.6a2.531,2.531,0,0,0-.993-3.3,5.966,5.966,0,0,0-2.129-.548c-1.417-.226-2.847-.375-4.266-.586-.947-.141-1.1-.455-.773-1.345.571-1.536,1.2-3.055,1.679-4.618a2.539,2.539,0,0,0-3.01-3.319,2.552,2.552,0,0,0-1.938,1.791c-.251.688-.5,1.375-.786,2.148-1.088-2.519.22-5.486,1.964-6.006a5.393,5.393,0,0,1,4.854.991c2.742,1.936,5.468,3.9,8.257,5.764a16.858,16.858,0,0,0,3.056,1.432,1.2,1.2,0,0,0,.954-.1c1.813-1.162,3.6-2.365,5.387-3.564a3.254,3.254,0,0,1,3.7-.145q5.435,3.2,10.834,6.463a3.182,3.182,0,0,1,1.449,3.594,3.133,3.133,0,0,1-2.911,2.349,4.488,4.488,0,0,1-2.167-.6c-2.741-1.557-5.444-3.182-8.134-4.825a1.11,1.11,0,0,0-1.416.052c-1.967,1.347-3.993,2.609-5.947,3.973C1299.1-974.273,1296.575-974.334,1293.917-975.6Z" transform="translate(-1276.619 1004.043)"/><path d="M1264.326-1040.507a5.812,5.812,0,0,1-5.831-5.814,5.853,5.853,0,0,1,5.812-5.853,5.872,5.872,0,0,1,5.879,5.873A5.83,5.83,0,0,1,1264.326-1040.507Z" transform="translate(-1258.495 1052.175)"/><path d="M1278.471-969.317c1.976.264,3.879.517,5.781.774a14.682,14.682,0,0,1,1.594.242,2.014,2.014,0,0,1,1.6,2.354,1.943,1.943,0,0,1-2.2,1.7c-1.734-.162-3.459-.428-5.188-.654-1.424-.186-2.844-.394-4.269-.567-1.855-.226-2.627-1.453-1.983-3.209q1.508-4.11,3.03-8.215a2.03,2.03,0,0,1,2.662-1.415,2.078,2.078,0,0,1,1.263,2.81C1280.033-973.456,1279.258-971.428,1278.471-969.317Z" transform="translate(-1270.489 993.583)"/></svg>