<svg xmlns="http://www.w3.org/2000/svg" width="33.617" height="44.22" viewBox="0 0 33.617 44.22"><path d="M1056.944-1393.848a47.229,47.229,0,0,0-5.274,3.388c-1.041.866-1.615,2.286-2.432,3.434a4.326,4.326,0,0,1-1.035,1.106,2.011,2.011,0,0,1-2.49-.235,1.989,1.989,0,0,1-.478-2.458c1.835-3.027,3.653-6.058,6.8-8.008,3.628-2.25,2.387-2.068,6.815-2.207q4.5-.141,9-.34a5.022,5.022,0,0,1,2.643.67,15.524,15.524,0,0,1,7.96,10.166,2.245,2.245,0,0,1-1.52,2.87,2.081,2.081,0,0,1-2.782-1.332c-.382-.95-.631-1.957-1.059-2.883a3.367,3.367,0,0,0-1.118-1.381c-1.434-.93-2.94-1.748-4.521-2.67-.281.9-.541,1.687-.777,2.485q-3.4,11.5-6.784,23a2.37,2.37,0,0,1-1.971,1.91,2.222,2.222,0,0,1-2.336-1,2.647,2.647,0,0,1-.206-2.293q1.607-5.816,3.21-11.633a.333.333,0,0,0-.077-.3c-.681.984-1.3,2.018-2.067,2.933a3.461,3.461,0,0,1-1.634,1.155,2.261,2.261,0,0,1-2.617-3.035c.725-2.08,1.533-4.132,2.307-6.2q1.306-3.482,2.617-6.962Z" transform="translate(-1044.934 1410.271)"/><path d="M1125.551-1448.805a4.41,4.41,0,0,1-4.412,4.4,4.429,4.429,0,0,1-4.392-4.431,4.385,4.385,0,0,1,4.423-4.381A4.356,4.356,0,0,1,1125.551-1448.805Z" transform="translate(-1101.954 1453.216)"/><path d="M1052.3-1271.209a3.8,3.8,0,0,1-3.827,3.8,3.818,3.818,0,0,1-3.76-3.87,3.823,3.823,0,0,1,3.8-3.76A3.812,3.812,0,0,1,1052.3-1271.209Z" transform="translate(-1044.714 1311.632)"/></svg>