<svg xmlns="http://www.w3.org/2000/svg" width="34.207" height="42.114" viewBox="0 0 34.207 42.114"><g transform="translate(0 0)"><path d="M1680.89-1101.968c-.947.133-1.737.211-2.51.371a1.135,1.135,0,0,0-.607.5c-.731,1.146-1.407,2.326-2.147,3.466a2.046,2.046,0,0,1-2.916.767,1.6,1.6,0,0,1-.609-2.093c1.029-1.949,2.094-3.882,3.231-5.768a2.934,2.934,0,0,1,2.241-1.2c2.13-.31,4.254-.692,6.394-.906a7.3,7.3,0,0,1,4.773,1.177,48.962,48.962,0,0,1,4.083,3.243,8.556,8.556,0,0,1,.881,1.011c.546-.761.992-1.37,1.426-1.988.634-.9,1.253-1.816,1.89-2.715a1.952,1.952,0,0,1,2.43-.694,1.931,1.931,0,0,1,1.009,2.4,5.5,5.5,0,0,1-.666,1.292q-1.759,2.618-3.559,5.209c-1.049,1.518-1.928,1.706-3.507.779l-4.087-2.4-4.8,8.215c1.583,1.62,3.113,3.2,4.665,4.768,1.806,1.818,2.01,3.217.751,5.427s-2.5,4.418-3.774,6.615a2.329,2.329,0,0,1-2.462,1.208,2.006,2.006,0,0,1-1.761-1.789,3.454,3.454,0,0,1,.423-1.878c1.107-2.022,2.307-3.992,3.513-6.051-1.184-1.032-2.364-2.049-3.529-3.083-1.056-.936-2.122-1.861-3.135-2.841a4.265,4.265,0,0,1-.987-5.556C1678.744-1096.878,1679.743-1099.377,1680.89-1101.968Z" transform="translate(-1666.358 1114.444)"/><path d="M1655-1019.625l3.923,3.719c-.217.32-.462.67-.7,1.027a88.793,88.793,0,0,1-9.347,11.118,2.262,2.262,0,0,1-3.351.186,2.272,2.272,0,0,1,.1-3.351c1.5-1.585,3.078-3.1,4.453-4.789a36.232,36.232,0,0,0,2.557-4.007C1653.442-1017.029,1654.227-1018.349,1655-1019.625Z" transform="translate(-1644.836 1045.033)"/><path d="M1735.373-1139.622a3.71,3.71,0,0,1,3.774-3.731,3.47,3.47,0,0,1,3.595,3.337,4.309,4.309,0,0,1-3.931,4.1A3.611,3.611,0,0,1,1735.373-1139.622Z" transform="translate(-1716.781 1143.353)"/></g></svg>