<svg xmlns="http://www.w3.org/2000/svg" width="35.423" height="45.653" viewBox="0 0 35.423 45.653"><g transform="translate(0 0)"><path d="M950.408-1022.414c-2.647,2.846-5.212,5.61-7.785,8.366a4.153,4.153,0,0,1-4.972,1.01,4.023,4.023,0,0,1-1.432-6.029c1.361-1.666,2.885-3.2,4.351-4.777,1.885-2.031,3.774-4.058,5.688-6.061a1.758,1.758,0,0,1,.964-.482c1.98-.271,3.97-.476,5.951-.742a1.111,1.111,0,0,1,1.175.459c1.208,1.562,2.451,3.1,3.683,4.641.1.131.22.254.33.381l.186-.068-1.03-6.112c1.9-.491,3.8-.978,5.693-1.474a3.265,3.265,0,0,0,2.549-3.72,3.147,3.147,0,0,0-4-2.6c-1.329.278-2.638.646-3.957.97-.217.053-.438.089-.664.134-.07-1.357,1.661-3.2,2.951-3.469a7.123,7.123,0,0,1,7.446,3.487,23.314,23.314,0,0,1,2.249,6.274,34.628,34.628,0,0,1,.523,14.348,6.074,6.074,0,0,1-6.325,5.346c-1.444,0-2.966.335-4.3-.466a12.236,12.236,0,0,1-2.638-1.957c-2.075-2.2-4.042-4.5-6.051-6.763C950.814-1021.924,950.639-1022.141,950.408-1022.414Z" transform="translate(-935.393 1058.111)"/><path d="M1018.255-1112.722a7.334,7.334,0,0,1,7.474-7.279,7.347,7.347,0,0,1,7.213,7.541,7.344,7.344,0,0,1-7.437,7.161A7.327,7.327,0,0,1,1018.255-1112.722Z" transform="translate(-1001.239 1120.001)"/><path d="M952.926-1024.349a77.487,77.487,0,0,0,17.137-2.658,10.656,10.656,0,0,1,1.42-.324,2.6,2.6,0,0,1,2.733,1.79,2.584,2.584,0,0,1-1.194,3.037,7.384,7.384,0,0,1-1.512.54,81.132,81.132,0,0,1-21.72,2.854,2.644,2.644,0,0,1-2.849-2.654,2.65,2.65,0,0,1,2.921-2.585C950.759-1024.346,951.656-1024.349,952.926-1024.349Z" transform="translate(-944.569 1046.377)"/></g></svg>