<svg xmlns="http://www.w3.org/2000/svg" width="24.943" height="45.637" viewBox="0 0 24.943 45.637"><g transform="translate(0 0)"><path d="M1415.672-1385.242c0,5.031.016,9.958-.021,14.884a3.477,3.477,0,0,1-.484,1.722,2.179,2.179,0,0,1-2.531.818,2.257,2.257,0,0,1-1.582-2.221c-.011-4.132,0-8.263-.005-12.4v-.862h-.841v.919c0,4,.007,8.007,0,12.01,0,1.734-1,2.725-2.584,2.62-1.274-.085-2.086-1.1-2.089-2.665q-.011-6.852,0-13.7v-1.084c-.263.181-.455.323-.657.45a1.774,1.774,0,0,1-2.574-.653c-1.315-2.525-2.6-5.064-3.905-7.595a1.884,1.884,0,0,1,.247-2.216c1.418-1.757,2.823-3.523,4.247-5.276a4.826,4.826,0,0,1,3.905-1.83c2.719-.007,5.439,0,8.158.045a4.2,4.2,0,0,1,3.211,1.6c1.517,1.808,2.982,3.659,4.465,5.495a1.855,1.855,0,0,1,.207,2.157c-1.267,2.492-2.523,4.989-3.817,7.467C1418.313-1384.207,1417.139-1384.087,1415.672-1385.242Zm.043-12.364v10.3c1.1-2.181,2.1-4.157,3.073-6.147a.69.69,0,0,0-.132-.581C1417.728-1395.186,1416.775-1396.324,1415.716-1397.606Zm-13.406,3.9,3.049,6.118.12-.056v-9.932Z" transform="translate(-1398.142 1413.341)"/><path d="M1439.126-1445.795a5.081,5.081,0,0,1-5.1-5.061,5.155,5.155,0,0,1,5.075-5.12,5.065,5.065,0,0,1,5.1,5.132A4.985,4.985,0,0,1,1439.126-1445.795Z" transform="translate(-1426.655 1455.976)"/></g></svg>