<svg xmlns="http://www.w3.org/2000/svg" width="23.098" height="41.111" viewBox="0 0 23.098 41.111"><path d="M672.679-1055.722c-.276.341-.507.6-.707.877a17.918,17.918,0,0,0-2.478,5.092,2.409,2.409,0,0,1-3.552,1.5,2.3,2.3,0,0,1-1.182-2.737,19.68,19.68,0,0,1,7.986-11.222,2.437,2.437,0,0,1,3.4.639,30.42,30.42,0,0,0,3.062,3.727,22.9,22.9,0,0,0,3.995,2.806,2.645,2.645,0,0,1,1.377,3.343,2.508,2.508,0,0,1-3.36,1.278c-.934-.409-1.8-.965-2.7-1.456-.193-.106-.382-.218-.661-.378-.055.815-.083,1.522-.153,2.225a27.254,27.254,0,0,1-5.411,13.383c-1.482,2.05-3.187,3.941-4.832,5.868a2.288,2.288,0,0,1-3.2.059,2.386,2.386,0,0,1-.338-3.322c.647-.825,1.392-1.574,2.073-2.375a32.325,32.325,0,0,0,5.855-9.6,19.442,19.442,0,0,0,1-9.31A2.127,2.127,0,0,0,672.679-1055.722Z" transform="translate(-663.395 1071.211)"/><path d="M731.975-990.865c1.217,2.37,2.4,4.669,3.578,6.969,1.227,2.395,2.466,4.783,3.672,7.189a2.3,2.3,0,0,1-1.69,3.5,2.268,2.268,0,0,1-2.412-1.4c-1.523-2.962-3-5.949-4.566-8.888a2.693,2.693,0,0,1-.124-2.621C731.074-987.6,731.451-989.2,731.975-990.865Z" transform="translate(-716.443 1014.167)"/><path d="M700.586-1104.338a3.84,3.84,0,0,1,3.874,3.833,3.876,3.876,0,0,1-3.814,3.834,3.864,3.864,0,0,1-3.869-3.851A3.832,3.832,0,0,1,700.586-1104.338Z" transform="translate(-689.922 1104.338)"/></svg>