<svg xmlns="http://www.w3.org/2000/svg" width="37.663" height="33.368" viewBox="0 0 37.663 33.368"><g transform="translate(0 0)"><path d="M684.949-1388.859l-7.958-4.568v4.276c0,1.488.009,2.977,0,4.465a1.7,1.7,0,0,1-1.709,1.85,1.655,1.655,0,0,1-1.7-1.857c-.012-2.618-.018-5.235.008-7.853a1.036,1.036,0,0,0-.624-1.075c-2.279-1.229-4.535-2.5-6.8-3.759-1.428-.794-1.649-1.293-1.265-2.906l-3.429-2.016a1.828,1.828,0,0,1-.741-2.685c.949-1.614,1.946-3.2,2.946-4.782a2.488,2.488,0,0,1,2.225-1.146c1.9-.013,3.8-.023,5.7,0a3.206,3.206,0,0,1,3.038,2.595c.931,3.466,1.986,6.906,2.727,10.413a5.745,5.745,0,0,0,3.446,4.51c1.835.836,3.523,1.992,5.277,3.006a1.707,1.707,0,0,0,.2.076,12.843,12.843,0,0,1,4.629-4.444l7.052,12.265H678.038c.377-2.535,1.759-4.693,4.169-5.053A3.869,3.869,0,0,0,684.949-1388.859Zm-18.962-13.12,3.408-5.956a7.541,7.541,0,0,1-1.173-.008,2.661,2.661,0,0,0-3.316,1.853,20.037,20.037,0,0,1-1.483,2.581Zm8.646,4.994L673-1403.064l-2.261,3.864Z" transform="translate(-660.304 1415.86)"/><path d="M664.5-1344.561c1.223.681,2.32,1.282,3.4,1.909a.836.836,0,0,1,.348.463,4.74,4.74,0,0,1-.537,4.256c-1.54,2.145-3.031,4.326-4.543,6.491a4.329,4.329,0,0,1-.371.49,1.679,1.679,0,0,1-2.222.325,1.788,1.788,0,0,1-.461-2.283c.323-.552.716-1.062,1.084-1.588,1.146-1.639,2.284-3.284,3.45-4.909a2.183,2.183,0,0,0,.417-1.8C664.855-1342.263,664.7-1343.327,664.5-1344.561Z" transform="translate(-659.883 1363.122)"/><path d="M727.862-1428.327a3.012,3.012,0,0,1-3.252-3.439c.02-.332.073-.662.123-.991a2.235,2.235,0,0,1,3.122-2.052,3.407,3.407,0,0,1,1.618,5.646A2.455,2.455,0,0,1,727.862-1428.327Z" transform="translate(-711.311 1434.945)"/></g></svg>