<svg xmlns="http://www.w3.org/2000/svg" width="46.473" height="51.226" viewBox="0 0 46.473 51.226"><g transform="translate(-560.996 512.704)"><path d="M572.766-446.519a12.229,12.229,0,0,1,1.351-.105,3.116,3.116,0,0,1,2.38,1.009,2.146,2.146,0,0,1,.4.8c.081.283-.054.409-.347.418-.2.006-.4,0-.6,0H559.809c-.575,0-.64-.081-.526-.653a1.836,1.836,0,0,1,1.547-1.391c.666-.123.666-.123.769-.793a3.567,3.567,0,0,1,3.112-2.9,3.836,3.836,0,0,1,2.9.711,3.493,3.493,0,0,1,.761.915c.149.241.227.32.515.181a2.788,2.788,0,0,1,3.271.53C572.445-447.507,572.524-447.339,572.766-446.519Z" transform="translate(1.759 -62.542)"/><path d="M739.01-471.813a8.751,8.751,0,0,1-8.794,8.749,9.174,9.174,0,0,1-8.73-8.972,8.747,8.747,0,0,1,8.832-8.453A8.317,8.317,0,0,1,739.01-471.813Z" transform="translate(-145.65 -12.318)"/><g transform="translate(561.839 -506.932)"><path d="M713.46-459.831q-.69.395-1.379.789c-2.845,1.629-5.666,3.3-8.556,4.848-.532.284-1.348.035-2.032.032.338-.593.529-1.422,1.038-1.74q4.17-2.6,8.492-4.955c.536-.291,1.366-.042,2.061-.042Z" transform="translate(-698.503 488.428)"/><path d="M747.921-461.845c.909.363,1.211.443,1.472.6,2.914,1.706,5.847,3.385,8.708,5.178.448.28.564,1.091.833,1.656-.628-.011-1.372.195-1.863-.069-2.9-1.568-5.766-3.215-8.6-4.914a2.4,2.4,0,0,1-.9-1.417C747.485-461.182,747.847-461.653,747.921-461.845Z" transform="translate(-716.248 488.753)"/><path d="M741.72-488.955c-.166-.766-.54-1.423-.349-1.777q2.561-4.762,5.332-9.408c.215-.359.991-.382,1.508-.561.09.49.42,1.116.232,1.449-1.811,3.2-3.7,6.36-5.6,9.515C742.707-489.507,742.37-489.4,741.72-488.955Z" transform="translate(-713.845 503.722)"/><path d="M702.389-487.974a10.1,10.1,0,0,1,1.159.475c2.849,1.622,5.712,3.221,8.509,4.928.454.277.607,1.049.9,1.592-.609.017-1.341.263-1.808.014q-4.44-2.364-8.762-4.946c-.411-.245-.616-.922-.776-1.442C701.573-487.471,702.122-487.769,702.389-487.974Z" transform="translate(-698.547 498.819)"/><path d="M703.1-470.03c1.678,0,3.362-.071,5.031.046.538.038,1.04.579,1.559.89-.516.35-1.024.989-1.55,1-3.277.1-6.56.109-9.835,0-.569-.019-1.116-.728-1.672-1.118a5.148,5.148,0,0,1,1.664-.79C699.888-470.1,701.494-470.033,703.1-470.03Z" transform="translate(-696.629 491.917)"/><path d="M742.464-455.287c.293.447.6.877.867,1.33,1.625,2.765,3.288,5.51,4.817,8.327.276.507-.013,1.321-.041,1.993-.534-.319-1.281-.508-1.568-.978-1.71-2.8-3.333-5.658-4.93-8.526a2.857,2.857,0,0,1-.2-1.492C741.418-454.794,741.861-454.928,742.464-455.287Z" transform="translate(-713.874 486.227)"/><path d="M756.451-470c1.685,0,3.373-.05,5.054.036.435.022.848.472,1.272.726-.393.384-.778,1.09-1.181,1.1q-5.276.132-10.557,0c-.392-.01-.766-.728-1.148-1.119.425-.248.841-.69,1.278-.711C752.926-470.047,754.69-470,756.451-470Z" transform="translate(-717.147 491.9)"/><path d="M759.42-486.337c-.459.256-.919.51-1.378.768-2.859,1.6-5.7,3.242-8.594,4.774-.472.25-1.2.025-1.8.019.308-.54.479-1.3.944-1.583q4.2-2.555,8.526-4.889c.5-.269,1.268-.038,1.912-.038Z" transform="translate(-716.282 498.59)"/><path d="M715.125-501.708a9.936,9.936,0,0,1,1.4,1.361c1.751,2.955,3.495,5.917,5.16,8.92.231.418.021,1.08.015,1.63-.5-.222-1.229-.3-1.461-.687q-2.726-4.5-5.255-9.126C714.769-500.009,715.04-500.675,715.125-501.708Z" transform="translate(-703.669 504.11)"/><path d="M722.128-453.954c-.218.494-.341.86-.531,1.187-1.618,2.779-3.212,5.574-4.91,8.3-.285.459-1.032.63-1.565.934.012-.559-.171-1.225.068-1.658q2.441-4.424,5.058-8.748a2.32,2.32,0,0,1,1.274-.743C721.642-454.715,721.936-454.192,722.128-453.954Z" transform="translate(-703.732 485.993)"/><path d="M734.184-499.087c0,1.683.063,3.371-.044,5.048-.029.457-.568.882-.873,1.322-.255-.412-.724-.821-.731-1.237-.06-3.443-.067-6.888.006-10.33.01-.449.567-.887.871-1.33.257.492.709.973.738,1.479C734.244-502.458,734.186-500.771,734.184-499.087Z" transform="translate(-710.443 505.615)"/><path d="M734.179-445.982c0,1.686.065,3.376-.043,5.055-.028.45-.583.866-.9,1.3-.245-.427-.7-.85-.7-1.281-.059-3.371-.067-6.745.009-10.115.009-.438.584-.863.9-1.294.246.426.682.842.7,1.279C734.229-449.357,734.179-447.668,734.179-445.982Z" transform="translate(-710.444 485.083)"/></g></g></svg>