<svg xmlns="http://www.w3.org/2000/svg" width="42.476" height="40.179" viewBox="0 0 42.476 40.179"><g id="dust" transform="translate(0)"><g id="bubble_chart-24px" transform="translate(7.709 18.532)"><path id="Path_36" data-name="Path 36" d="M0,0H21.647V21.647H0Z" fill="none"/><ellipse id="Ellipse_2" data-name="Ellipse 2" cx="2.886" cy="2.886" rx="2.886" ry="2.886" transform="translate(3.608 10.102)"/><ellipse id="Ellipse_3" data-name="Ellipse 3" cx="1.804" cy="1.804" rx="1.804" ry="1.804" transform="translate(11.545 14.431)"/><ellipse id="Ellipse_4" data-name="Ellipse 4" cx="4.329" cy="4.329" rx="4.329" ry="4.329" transform="translate(9.38 3.608)"/></g><g id="bubble_chart-24px-2" data-name="bubble_chart-24px" transform="translate(21.472 30.3) rotate(-104)"><path id="Path_36-2" data-name="Path 36" d="M0,0H21.647V21.647H0Z" transform="translate(0 0)" fill="none"/><ellipse id="Ellipse_2-2" data-name="Ellipse 2" cx="2.886" cy="2.886" rx="2.886" ry="2.886" transform="translate(3.608 10.102)"/><ellipse id="Ellipse_3-2" data-name="Ellipse 3" cx="1.804" cy="1.804" rx="1.804" ry="1.804" transform="translate(11.545 14.431)"/><ellipse id="Ellipse_4-2" data-name="Ellipse 4" cx="4.329" cy="4.329" rx="4.329" ry="4.329" transform="translate(9.38 3.608)"/></g><g id="bubble_chart-24px-3" data-name="bubble_chart-24px" transform="translate(5.237 26.241) rotate(-104)"><path id="Path_36-3" data-name="Path 36" d="M0,0H21.647V21.647H0Z" transform="translate(0 0)" fill="none"/><ellipse id="Ellipse_2-3" data-name="Ellipse 2" cx="2.886" cy="2.886" rx="2.886" ry="2.886" transform="translate(3.608 10.102)"/><ellipse id="Ellipse_3-3" data-name="Ellipse 3" cx="1.804" cy="1.804" rx="1.804" ry="1.804" transform="translate(11.545 14.431)"/><ellipse id="Ellipse_4-3" data-name="Ellipse 4" cx="4.329" cy="4.329" rx="4.329" ry="4.329" transform="translate(9.38 3.608)"/></g></g></svg>