<svg id="fire-smoke" xmlns="http://www.w3.org/2000/svg" width="50.971" height="50.971" viewBox="0 0 50.971 50.971"><path id="Path_21" data-name="Path 21" d="M24.176.67a45.647,45.647,0,0,1,1.572,10.194c0,4.375-2.867,7.922-7.242,7.922A7.73,7.73,0,0,1,10.8,10.864l.064-.765A29.241,29.241,0,0,0,4,28.98a16.99,16.99,0,0,0,33.981,0A36.348,36.348,0,0,0,24.176.67ZM20.375,39.6a6.745,6.745,0,0,1-6.839-6.669c0-3.441,2.23-5.862,5.968-6.626,3.759-.765,7.646-2.57,9.812-5.479a29.634,29.634,0,0,1,1.253,8.58A10.2,10.2,0,0,1,20.375,39.6Z" transform="translate(4.495 0.753)"/><path id="Path_22" data-name="Path 22" d="M0,0H50.971V50.971H0Z" fill="none"/></svg>