<svg id="hail-snow" xmlns="http://www.w3.org/2000/svg" width="50.971" height="50.971" viewBox="0 0 50.971 50.971"><path id="Path_23" data-name="Path 23" d="M44.476,21.114H35.62L42.5,14.233l-2.995-3.016-9.9,9.9H25.362V16.867l9.9-9.9L32.243,3.975l-6.881,6.881V2H21.114v8.856L14.233,3.975,11.217,6.97l9.9,9.9v4.248H16.867l-9.9-9.9L3.975,14.233l6.881,6.881H2v4.248h8.856L3.975,32.243,6.97,35.259l9.9-9.9h4.248V29.61l-9.9,9.9L14.233,42.5l6.881-6.881v8.856h4.248V35.62L32.243,42.5l3.016-2.995-9.9-9.9V25.362H29.61l9.9,9.9L42.5,32.243,35.62,25.362h8.856Z" transform="translate(2.248 2.248)"/><path id="Path_24" data-name="Path 24" d="M0,0H50.971V50.971H0Z" fill="none"/></svg>