<svg xmlns="http://www.w3.org/2000/svg" width="43.687" height="36.886" viewBox="0 0 43.687 36.886"><path id="mist-fog" d="M31.857,28.31a12.666,12.666,0,0,0-6.265,1.7,8.67,8.67,0,0,1-4.354,1.274,8.1,8.1,0,0,1-4.354-1.274,12.4,12.4,0,0,0-12.53,0A8.606,8.606,0,0,1,0,31.284v4.141a12.666,12.666,0,0,0,6.265-1.7,8.606,8.606,0,0,1,4.354-1.274,8.21,8.21,0,0,1,4.354,1.274,12.4,12.4,0,0,0,12.53,0,8.67,8.67,0,0,1,4.354-1.274,8.1,8.1,0,0,1,4.354,1.274,12.532,12.532,0,0,0,6.265,1.7V31.284a8.1,8.1,0,0,1-4.354-1.274A12.666,12.666,0,0,0,31.857,28.31Zm0-9.451a12.894,12.894,0,0,0-6.265,1.7,8.887,8.887,0,0,1-4.354,1.274,8.1,8.1,0,0,1-4.354-1.274,12.465,12.465,0,0,0-6.265-1.7,12.686,12.686,0,0,0-6.265,1.7A8.819,8.819,0,0,1,0,21.833v4.141a12.894,12.894,0,0,0,6.265-1.7,8.075,8.075,0,0,1,8.708,0,12.465,12.465,0,0,0,6.265,1.7,12.686,12.686,0,0,0,6.265-1.7,8.075,8.075,0,0,1,8.708,0,12.532,12.532,0,0,0,6.265,1.7V21.833a8.1,8.1,0,0,1-4.354-1.274A12.666,12.666,0,0,0,31.857,18.859ZM38.122,1.7a12.4,12.4,0,0,0-12.53,0,8.887,8.887,0,0,1-4.354,1.274A8.1,8.1,0,0,1,16.884,1.7,12.686,12.686,0,0,0,10.619,0,12.465,12.465,0,0,0,4.354,1.7,8.606,8.606,0,0,1,0,2.973v4.1a12.894,12.894,0,0,0,6.265-1.7A8.606,8.606,0,0,1,10.619,4.1a8.21,8.21,0,0,1,4.354,1.274,12.465,12.465,0,0,0,6.265,1.7,12.686,12.686,0,0,0,6.265-1.7A8.887,8.887,0,0,1,31.857,4.1a8.1,8.1,0,0,1,4.354,1.274,12.532,12.532,0,0,0,6.265,1.7V2.931A8.464,8.464,0,0,1,38.122,1.7ZM31.857,9.408a12.894,12.894,0,0,0-6.265,1.7,8.075,8.075,0,0,1-8.708,0,12.465,12.465,0,0,0-6.265-1.7,12.686,12.686,0,0,0-6.265,1.7A8.1,8.1,0,0,1,0,12.382v4.141a12.894,12.894,0,0,0,6.265-1.7,8.887,8.887,0,0,1,4.354-1.274,8.268,8.268,0,0,1,4.354,1.274,12.465,12.465,0,0,0,6.265,1.7,12.686,12.686,0,0,0,6.265-1.7,8.887,8.887,0,0,1,4.354-1.274,8.1,8.1,0,0,1,4.354,1.274,12.532,12.532,0,0,0,6.265,1.7V12.382a8.1,8.1,0,0,1-4.354-1.274,12.666,12.666,0,0,0-6.265-1.7Z" transform="matrix(-0.999, -0.035, 0.035, -0.999, 42.45, 36.886)"/></svg>