<svg id="other" xmlns="http://www.w3.org/2000/svg" width="40.506" height="40.506" viewBox="0 0 40.506 40.506"><path id="Path_2249" data-name="Path 2249" d="M0,0H40.506V40.506H0Z" fill="none"/><path id="Path_2250" data-name="Path 2250" d="M18.877,2A16.877,16.877,0,1,0,35.755,18.877,16.884,16.884,0,0,0,18.877,2Zm1.688,28.692H17.19V27.316h3.375Zm3.494-13.08L22.54,19.164a5.746,5.746,0,0,0-1.975,4.776H17.19V23.1a6.793,6.793,0,0,1,1.975-4.776l2.093-2.127a3.3,3.3,0,0,0,1-2.38,3.375,3.375,0,0,0-6.751,0H12.126a6.751,6.751,0,0,1,13.5,0A5.37,5.37,0,0,1,24.059,17.612Z" transform="translate(1.375 1.375)"/></svg>