<svg id="rain" xmlns="http://www.w3.org/2000/svg" width="44.57" height="41.394" viewBox="0 0 44.57 41.394"><path id="Path_49" data-name="Path 49" d="M151.486,130.125c-4.009,0-8.019.023-12.028-.007-3.873-.03-6.912-1.575-8.493-5.236a8.443,8.443,0,0,1,6.238-11.732c1.014-.2,1.448-.466,1.56-1.633A11.048,11.048,0,0,1,149.9,101.339a10.637,10.637,0,0,1,10.087,6.868c.4.957.751,1.151,1.76.882a10.6,10.6,0,1,1,3.974,20.809,27.61,27.61,0,0,1-3.255.218C158.8,130.142,155.145,130.125,151.486,130.125Zm-10.132-14.762c-1.228,0-2.2-.035-3.162.007a6.2,6.2,0,0,0,.894,12.361c4.165.04,8.332.019,12.5.009,4.4-.01,8.8.114,13.195-.1a8.291,8.291,0,1,0-3.951-15.852c-.592.252-1.18.515-1.959.855-.36-2.682-1.109-5.017-3.115-6.743a8.774,8.774,0,0,0-7.036-2.142,8.389,8.389,0,0,0-5.143,2.523C141.084,108.851,140.619,111.983,141.353,115.362Z" transform="translate(-130.241 -101.338)"/><path id="Path_50" data-name="Path 50" d="M206.052,224.656c-.927-.022-1.554-.991-1.035-1.657a16.9,16.9,0,0,1,2.53-2.54,1.313,1.313,0,0,1,1.24.125c.277.222.515.986.363,1.166-.843,1-1.806,1.889-2.742,2.8C206.312,224.647,206.118,224.639,206.052,224.656Z" transform="translate(-181.593 -183.276)"/><path id="Path_51" data-name="Path 51" d="M226.234,204.421a5.131,5.131,0,0,1-.546,1.01,10.751,10.751,0,0,1-1.9,1.85,1.873,1.873,0,0,1-1.63.064c-.646-.363-.5-1.1-.049-1.613a17.771,17.771,0,0,1,2.144-2.109,1.531,1.531,0,0,1,1.269-.146C225.823,203.585,225.992,204.08,226.234,204.421Z" transform="translate(-193.219 -171.607)"/><path id="Path_52" data-name="Path 52" d="M195.814,201a4.786,4.786,0,0,1-.526.974c-.626.682-1.3,1.325-1.958,1.973a1.1,1.1,0,0,1-1.652.106,1.066,1.066,0,0,1-.019-1.645,18.872,18.872,0,0,1,2.147-2.1,1.622,1.622,0,0,1,1.27-.143C195.367,200.243,195.555,200.687,195.814,201Z" transform="translate(-172.265 -169.332)"/><path id="Path_53" data-name="Path 53" d="M179.511,218.02a5.02,5.02,0,0,1-.523.9,15.114,15.114,0,0,1-2.074,2.011c-.354.252-1.012.077-1.533.1-.02-.556-.267-1.269-.014-1.636a10.493,10.493,0,0,1,2.107-2.132,1.55,1.55,0,0,1,1.265-.142C179.054,217.219,179.246,217.689,179.511,218.02Z" transform="translate(-161.231 -180.998)"/><path id="Path_54" data-name="Path 54" d="M158.933,204.4a3.686,3.686,0,0,1-.418.836c-.693.735-1.4,1.46-2.139,2.146a1,1,0,0,1-1.622-.055,1.672,1.672,0,0,1,.032-1.522,11.559,11.559,0,0,1,2.13-2.14,1.539,1.539,0,0,1,1.263-.156C158.5,203.617,158.691,204.095,158.933,204.4Z" transform="translate(-147.002 -171.633)"/><path id="Path_55" data-name="Path 55" d="M141.583,221.332a4.575,4.575,0,0,1-.5.9c-.662.707-1.35,1.392-2.053,2.059a1.144,1.144,0,1,1-1.613-1.619,23.466,23.466,0,0,1,2.082-2.025,1.581,1.581,0,0,1,1.262-.212C141.089,220.533,141.3,221.007,141.583,221.332Z" transform="translate(-134.9 -183.299)"/></svg>