<svg xmlns="http://www.w3.org/2000/svg" width="38.328" height="34.469" viewBox="0 0 38.328 34.469"><g id="severe-wind" transform="matrix(0.883, 0.469, -0.469, 0.883, 13.042, -4.776)"><path id="Path_56" data-name="Path 56" d="M1.509,22.353c-1.144-.116-1.919-5.145-1.278-8.6C1.135,8.875,2.225,4.522,3.356.557c.292-1.025,1.181-.533,1.531.649a24.043,24.043,0,0,1,.448,6.055c-1.041,5.169-2.23,9.813-3.386,14.558C1.831,22.3,1.59,22.263,1.509,22.353Z" transform="translate(26.091 5.355)"/><path id="Path_57" data-name="Path 57" d="M5.256,5.077c-.271,2-.4,3.564-.646,4.656-.819,3.641-1.6,7.574-2.561,10.447-.437,1.31-1.25.4-1.893.5-.025-2.887-.33-6.589-.017-8.5a88.75,88.75,0,0,1,2.6-11.076C3.1-.1,3.841-.28,4.3.37,4.692.913,4.929,3.352,5.256,5.077Z" transform="translate(14.713 0)"/><path id="Path_58" data-name="Path 58" d="M5.649,4.912C5.4,6.857,5.281,8.478,5.033,9.589c-.818,3.672-1.667,7.228-2.535,10.7C1.85,22.877,1.1,23.192.455,20.441a19.357,19.357,0,0,1,.05-8.565c.835-3.605,1.641-7.4,2.571-10.519C3.448.108,4.17-.328,4.634.256,5.039.765,5.3,3.228,5.649,4.912Z" transform="translate(0 5.409)"/></g></svg>