<svg id="concrete" xmlns="http://www.w3.org/2000/svg" width="61.42" height="28.28" viewBox="0 0 61.42 28.28"><path id="Path_2248" data-name="Path 2248" d="M-292.758,561.687c1.8-.394,3.63-.7,5.4-1.2a70.568,70.568,0,0,0,8.564-2.728c3.707-1.594,3.9-3.678.631-5.977-2.3-1.614-4.845-2.866-7.259-4.316a69.877,69.877,0,0,1-6.038-3.788c-2.216-1.662-2.268-2.857-.661-5.007-2.742,1.294-3.09,3.093-.728,5.014,1.884,1.532,4.04,2.729,6.074,4.076s4.187,2.549,6.07,4.083c2.437,1.985,2.311,4.188-.586,5.4a108.556,108.556,0,0,1-11.934,3.788,51.614,51.614,0,0,1-5.255.96l-.132-.566c1.149-.3,2.3-.59,3.446-.913,3.067-.867,6.142-1.708,9.185-2.652a9.027,9.027,0,0,0,2.475-1.318c1.862-1.325,2.111-2.848.409-4.353-1.911-1.69-4.109-3.055-6.187-4.555a59.6,59.6,0,0,1-4.855-3.529c-2.34-2.08-2.141-4.005.649-5.485a27.847,27.847,0,0,1,6.076-2.282c3.757-.966,7.573-1.71,11.374-2.5a3.672,3.672,0,0,1,1.969.222,52.079,52.079,0,0,0-4.979,1.988c-2.978,1.541-3.092,3.293-.052,4.737a99.231,99.231,0,0,0,11.867,4.617c7.791,2.534,15.675,4.781,23.472,7.3a20.517,20.517,0,0,1,5.3,2.757c1.8,1.257,1.628,2.648-.194,3.88a16.921,16.921,0,0,1-9.639,2.236c1.57-.545,2.855-.942,4.1-1.44a12.349,12.349,0,0,0,2.5-1.275c1.539-1.078,1.643-2.213.157-3.321a15.681,15.681,0,0,0-4.233-2.377c-7.705-2.589-15.487-4.952-23.179-7.575-3.833-1.307-7.572-2.914-11.273-4.569-1.447-.647-2.642-1.807-1.6-3.9-1.467,1.421-1.542,2.426-.008,3.421a27.524,27.524,0,0,0,5.811,3c7.5,2.61,15.093,4.973,22.6,7.578a42.3,42.3,0,0,1,7.491,3.419c2.68,1.572,2.547,3.474-.236,4.837a23.2,23.2,0,0,1-10.268,2.678q-17.592-.012-35.185.011H-292.7Zm32.6-3.113c-4.656-1.073-7.971,1.752-11.779,2.427C-267.849,561.533-264.163,560.328-260.155,558.574Zm-4.633-4.921c1.271,3,1.861,3.267,5.211,2.372C-260.2,553.643-261.281,553.153-264.788,553.654Zm.3-2.438c-2.728-.939-5.136-2.894-8.245-2.4C-270.006,549.714-267.728,552.077-264.492,551.216Zm-10.957-3.582.213-.773-6.963-2.623-.244.707Zm-9.841-5.29-2.688-2.924-.53.554C-288,541.227-287.48,542.47-285.29,542.344Z" transform="translate(298.612 -533.778)"/></svg>