<svg xmlns="http://www.w3.org/2000/svg" width="48.142" height="40.15" viewBox="0 0 48.142 40.15"><path id="dirt" d="M38.106,35.747a14.356,14.356,0,0,0-7.1,1.926,9.826,9.826,0,0,1-4.935,1.444,9.176,9.176,0,0,1-4.935-1.444,14.055,14.055,0,0,0-14.2,0A9.754,9.754,0,0,1,2,39.117V43.81a14.356,14.356,0,0,0,7.1-1.926,9.754,9.754,0,0,1,4.935-1.444,9.3,9.3,0,0,1,4.935,1.444,14.055,14.055,0,0,0,14.2,0,9.826,9.826,0,0,1,4.935-1.444,9.176,9.176,0,0,1,4.935,1.444,14.2,14.2,0,0,0,7.1,1.926V39.117a9.176,9.176,0,0,1-4.935-1.444A14.356,14.356,0,0,0,38.106,35.747Zm0-10.712a14.614,14.614,0,0,0-7.1,1.926A10.072,10.072,0,0,1,26.071,28.4a9.176,9.176,0,0,1-4.935-1.444,14.128,14.128,0,0,0-7.1-1.926,14.378,14.378,0,0,0-7.1,1.926A10,10,0,0,1,2,28.4V33.1a14.614,14.614,0,0,0,7.1-1.926,9.152,9.152,0,0,1,9.869,0,14.128,14.128,0,0,0,7.1,1.926,14.378,14.378,0,0,0,7.1-1.926,9.152,9.152,0,0,1,9.869,0,14.2,14.2,0,0,0,7.1,1.926V28.4a9.176,9.176,0,0,1-4.935-1.444A14.356,14.356,0,0,0,38.106,25.035Zm7.1-19.449a14.055,14.055,0,0,0-14.2,0A10.072,10.072,0,0,1,26.071,7.03a9.176,9.176,0,0,1-4.935-1.444,14.378,14.378,0,0,0-7.1-1.926,14.128,14.128,0,0,0-7.1,1.926A9.754,9.754,0,0,1,2,7.03v4.646A14.614,14.614,0,0,0,9.1,9.75a9.754,9.754,0,0,1,4.935-1.444A9.3,9.3,0,0,1,18.97,9.75a14.128,14.128,0,0,0,7.1,1.926,14.378,14.378,0,0,0,7.1-1.926,10.072,10.072,0,0,1,4.935-1.444A9.176,9.176,0,0,1,43.041,9.75a14.2,14.2,0,0,0,7.1,1.926V6.982A9.593,9.593,0,0,1,45.207,5.586Zm-7.1,8.738a14.614,14.614,0,0,0-7.1,1.926,9.152,9.152,0,0,1-9.869,0,14.128,14.128,0,0,0-7.1-1.926,14.378,14.378,0,0,0-7.1,1.926A9.176,9.176,0,0,1,2,17.693v4.694a14.614,14.614,0,0,0,7.1-1.926,10.072,10.072,0,0,1,4.935-1.444,9.37,9.37,0,0,1,4.935,1.444,14.128,14.128,0,0,0,7.1,1.926,14.378,14.378,0,0,0,7.1-1.926,10.072,10.072,0,0,1,4.935-1.444,9.176,9.176,0,0,1,4.935,1.444,14.2,14.2,0,0,0,7.1,1.926V17.693a9.176,9.176,0,0,1-4.935-1.444,14.356,14.356,0,0,0-7.1-1.926Z" transform="translate(-2 -3.66)"/></svg>