<svg xmlns="http://www.w3.org/2000/svg" width="50.374" height="35.43" viewBox="0 0 50.374 35.43"><g id="gravel" transform="translate(0)"><path id="Path_2198" data-name="Path 2198" d="M175.625,310.028c-4.062-.173-8.124-.335-12.185-.524-1.164-.054-2.324-.186-3.654-.3,0,1.828-.073,3.54.027,5.243.059,1-.426,1.36-1.235,1.54a7.547,7.547,0,0,1-1.245.171c-2.376.122-3.009-.4-3.224-2.707-.093-1-.087-2.012-.16-3.016a5.451,5.451,0,0,0-.855-3.2,3.659,3.659,0,0,1-.46-2.038c-.05-2.6,0-5.2-.027-7.806a3.4,3.4,0,0,1,1.767-3.229,2.481,2.481,0,0,0,.821-1.53c.559-2.662,1.038-5.341,1.55-8.014a6.475,6.475,0,0,1,2.333-3.876l1.863,3.22c-1.949,1.129-2.186,3.149-2.647,5.038-.472,1.934.325,2.9,2.323,2.862,1.258-.022,2.514-.151,3.771-.161a1.429,1.429,0,0,1,1.078.385c1.276,2.1,2.479,4.249,3.769,6.5-2.116.123-4.065.228-6.013.352-.923.059-.922.074-.865,1.509,2.15,0,4.324.076,6.489-.03a1.853,1.853,0,0,1,2.2,1.622h-8.934c-.036.5-.064.893-.105,1.457h6.212c.881,0,1.763,0,2.644,0,1.331,0,1.331,0,1.787,1.549H162.234c-.464,1.1-.056,1.419.865,1.448,3.1.1,6.2.283,9.308.3a2.089,2.089,0,0,1,2.24,1.341,8.081,8.081,0,0,0,.979,1.391Zm-17.954-8.791a2.688,2.688,0,1,0-.185-5.369,2.638,2.638,0,0,0-2.629,2.77A2.674,2.674,0,0,0,157.671,301.237Z" transform="translate(-125.252 -280.748)"/><path id="Path_2199" data-name="Path 2199" d="M44,401.22l1.48-1.272a4.228,4.228,0,0,1,.947,1.109c.231.557.062,1.074-.779.965A15.412,15.412,0,0,0,44,401.976Z" transform="translate(-44 -369.925)"/><path id="Path_2200" data-name="Path 2200" d="M120.327,356.766l-9-14.279,1.69-.862L120.54,356.6Z" transform="translate(-94.366 -326.292)"/><path id="Path_2201" data-name="Path 2201" d="M78.981,397.789l.335-1.9,16.364,3.347-.026.176Z" transform="translate(-70.17 -366.887)"/><path id="Path_2202" data-name="Path 2202" d="M111.253,382.952l-10.062-5.544,1.125-1.6,9.134,6.916Z" transform="translate(-86.786 -351.867)"/><path id="Path_2203" data-name="Path 2203" d="M93.457,361.337c1.6-.589,2.525-.424,2.77.53.33,1.286-.062,2.186-1.212,2.26a2.263,2.263,0,0,1-1.757-.816C93,362.915,93.353,362.113,93.457,361.337Z" transform="translate(-80.781 -340.782)"/><path id="Path_2204" data-name="Path 2204" d="M69.456,364.638c-.653-.8-2.057-.866-1.513-2.136.219-.511.931-1.178,1.359-1.138a2.257,2.257,0,0,1,1.487,1.191C71.346,363.742,69.893,363.789,69.456,364.638Z" transform="translate(-61.82 -341.058)"/><path id="Path_2205" data-name="Path 2205" d="M67.942,389c-.909-.533-2.05-.923-2.032-1.25.04-.738,0-2.009,1.146-2.022A2.179,2.179,0,0,1,68.593,387C68.763,387.454,68.239,388.17,67.942,389Z" transform="translate(-60.391 -359.284)"/><path id="Path_2206" data-name="Path 2206" d="M94.68,336.787c.564.908,1.153,1.465,1.194,2.06.026.376-.832,1.188-1.177,1.129-.556-.1-1.42-.753-1.416-1.167C93.286,338.257,94,337.711,94.68,336.787Z" transform="translate(-80.869 -322.672)"/><path id="Path_2207" data-name="Path 2207" d="M90.771,323.8l2.019-.448q-.069.923-.137,1.847l-1.891-.639Z" transform="translate(-78.984 -312.62)"/><path id="Path_2208" data-name="Path 2208" d="M112.185,322.305a4.622,4.622,0,0,1-1.491.11c-.212-.051-.465-.7-.381-.988s.65-.664.865-.591a4.488,4.488,0,0,1,1.177.886Z" transform="translate(-93.598 -310.733)"/></g></svg>