<svg xmlns="http://www.w3.org/2000/svg" width="54.662" height="52.396" viewBox="0 0 54.662 52.396"><g transform="translate(-1134.901 1858.073)"><g transform="translate(1134.901 -1858.073)"><path d="M1146.654-1799.035v-.977c0-7.564-.018-15.128.022-22.691a1.575,1.575,0,0,0-1.189-1.754c-3.224-1.227-6.417-2.536-9.614-3.833a6.6,6.6,0,0,1-.972-.557c2.575-5.543,5.1-10.959,7.6-16.386a3.722,3.722,0,0,1,1.773-1.905,79.014,79.014,0,0,1,10.791-4.293,6.1,6.1,0,0,0,3.256,3.541c3.117,1.489,7.542.836,9.634-1.472a5.241,5.241,0,0,0,.919-1.372c.232-.528.462-.716,1.034-.477,3.464,1.444,6.952,2.836,10.4,4.328a2.873,2.873,0,0,1,1.269,1.355c2.066,4.374,4.057,8.783,6.107,13.165.532,1.138,1.193,2.216,1.88,3.476-1.009.473-1.98.982-2.992,1.392-2.628,1.063-5.262,2.113-7.92,3.1a1.225,1.225,0,0,0-.991,1.365c.035,7.594.021,15.189.02,22.784,0,1.218,0,1.214-1.222,1.213C1166.582-1799.036,1156.706-1799.035,1146.654-1799.035Z" transform="translate(-1134.901 1851.43)"/></g></g></svg>