<svg xmlns="http://www.w3.org/2000/svg" width="50.128" height="34.715" viewBox="0 0 50.128 34.715"><g transform="translate(0)"><g transform="translate(0 0)"><path d="M4.167,32A4.165,4.165,0,0,0,0,36.167V44.5a4.167,4.167,0,1,0,8.334,0V36.167A4.165,4.165,0,0,0,4.167,32Zm1.786,8.334H2.381V36.167a1.786,1.786,0,1,1,3.572,0Zm5.2-1.1a.306.306,0,0,0-.458.03,5.918,5.918,0,0,0,8.271,8.271.3.3,0,0,0,.03-.458Zm8.55-.707a5.932,5.932,0,0,0-7.679-.592.3.3,0,0,0-.03.458l7.843,7.843a.306.306,0,0,0,.458-.03A5.927,5.927,0,0,0,19.7,38.522Z" transform="translate(28.698 -16.949)"/><path d="M34.4,4.923,29.8.32a1.085,1.085,0,0,0-1.534,0L26.733,1.855a1.085,1.085,0,0,0,0,1.534l-5.2,5.2a8.673,8.673,0,0,0-9.518,1.846L1.278,21.173a4.34,4.34,0,0,0,0,6.137l6.137,6.137a4.34,4.34,0,0,0,6.137,0l10.74-10.74a8.673,8.673,0,0,0,1.846-9.518l5.2-5.2a1.085,1.085,0,0,0,1.534,0l1.534-1.534a1.085,1.085,0,0,0,0-1.534ZM12.159,28.7,6.022,22.566,14.3,14.291l6.137,6.137Z" transform="translate(-0.007 -0.003)"/></g></g></svg>