<svg xmlns="http://www.w3.org/2000/svg" width="59.514" height="32.417" viewBox="0 0 59.514 32.417"><g transform="translate(35.013 12.737)"><path d="M-477.775,301.688a17.508,17.508,0,0,0-.795-3.1,9.739,9.739,0,0,0-7.514-6.209,18.738,18.738,0,0,0-5.19-.213,7.274,7.274,0,0,0-5.551,2.828c-.621.8-1.191,1.648-1.8,2.492.825,0,1.568-.053,2.3.011,1.925.17,3.853.341,5.765.612a12.294,12.294,0,0,1,2.962.779c1.209.5,1.323,1.4.253,2.248-1.024.813-2.155,1.49-3.222,2.252a11.243,11.243,0,0,1-6.46,2.045c-.965.022-1.928.08-3.017.127,0,.708-.01,1.4,0,2.09a.972.972,0,0,1-.755,1.128c-.334.116-.686.177-1.071.272.163.5.307.973.474,1.439.392,1.089.4,1.1,1.547,1.115,3.206.038,6.414.134,9.617.064,2.032-.045,4.06-.323,6.085-.549a4.031,4.031,0,0,0,1.951-.73c-1.122.09-2.106.2-3.092.241-2.462.111-4.924.192-7.386.283a.72.72,0,0,1-.356-.035c-.1-.056-.226-.185-.228-.283a.416.416,0,0,1,.22-.289.957.957,0,0,1,.4-.039c1.088-.014,2.179.022,3.265-.047,2.534-.16,5.062-.393,7.6-.535a1.14,1.14,0,0,0,.863-.421c.577-.638,1.176-1.262,1.691-1.95A6.92,6.92,0,0,0-477.775,301.688Zm-6.353-6.472a15.646,15.646,0,0,0-7.824-.978c-.434.047-.863.156-1.3.184-.166.01-.341-.131-.512-.2.125-.126.236-.344.375-.363,1.134-.163,2.273-.289,3.409-.427a17.4,17.4,0,0,1,5.852,1.152c.084.034.191.054.241.117a3.8,3.8,0,0,1,.264.441C-483.79,295.168-483.992,295.273-484.128,295.216Zm-14.519,3.092a.663.663,0,0,0-.6.42c-.488.972-1.023,1.922-1.45,2.92-.414.966-.718,1.98-1.07,2.972.035.05.07.1.1.149,2.127-.116,4.255-.221,6.38-.367a1.121,1.121,0,0,0,.69-.418c.95-1.191,1.868-2.407,2.8-3.616.381-.5.759-1,1.188-1.566A32.877,32.877,0,0,0-498.647,298.308Zm-3.177,7.267c-.122.015-.322.2-.323.3-.013.8.013,1.61.028,2.418.19.018.22.025.249.023,1.121-.068,1.139-.092,1.153-1.195.007-.518.047-1.035.073-1.566A11.4,11.4,0,0,0-501.823,305.575Zm12.945-6.52a.954.954,0,0,0-.98.962.954.954,0,0,0,.983,1,.962.962,0,0,0,1.009-.982A.976.976,0,0,0-488.878,299.055Zm.008,1.565c-.178-.286-.355-.443-.349-.594.006-.132.214-.257.334-.385.134.13.359.247.38.391S-488.682,300.335-488.869,300.62Z" transform="translate(502.15 -292.084)"/><path d="M-475.674,301.688a17.5,17.5,0,0,0-.8-3.1,9.738,9.738,0,0,0-7.514-6.209,18.737,18.737,0,0,0-5.19-.213,7.274,7.274,0,0,0-5.551,2.828c-.621.8-1.191,1.648-1.8,2.492.825,0,1.568-.053,2.3.011,1.925.17,3.853.341,5.765.612a12.293,12.293,0,0,1,2.962.779c1.209.5,1.323,1.4.253,2.248-1.024.813-2.155,1.49-3.222,2.252a11.243,11.243,0,0,1-6.46,2.045c-.965.022-1.928.08-3.017.127,0,.708-.01,1.4,0,2.09a.973.973,0,0,1-.755,1.128c-.334.116-.686.177-1.071.272.163.5.307.973.474,1.439.392,1.089.4,1.1,1.547,1.115,3.206.038,6.414.134,9.617.064,2.032-.045,4.06-.323,6.085-.549a4.03,4.03,0,0,0,1.951-.73c-1.122.09-2.106.2-3.092.241-2.462.111-4.924.192-7.386.283a.72.72,0,0,1-.356-.035c-.1-.056-.226-.185-.227-.283a.416.416,0,0,1,.22-.289.957.957,0,0,1,.4-.039c1.088-.014,2.18.022,3.265-.047,2.534-.16,5.062-.393,7.6-.535a1.14,1.14,0,0,0,.863-.421c.577-.638,1.176-1.262,1.691-1.95A6.921,6.921,0,0,0-475.674,301.688Zm-6.353-6.472a15.646,15.646,0,0,0-7.824-.978c-.435.047-.863.156-1.3.184-.166.01-.341-.131-.512-.2.125-.126.236-.344.375-.363,1.134-.163,2.273-.289,3.409-.427a17.4,17.4,0,0,1,5.852,1.152c.084.034.191.054.241.117a3.812,3.812,0,0,1,.264.441C-481.69,295.168-481.892,295.273-482.027,295.216Z" transform="translate(500.05 -292.084)"/><path d="M-498.99,349.055c.352-.993.656-2.007,1.07-2.973.427-1,.962-1.949,1.449-2.92a.666.666,0,0,1,.6-.42,32.876,32.876,0,0,1,8.036.5c-.43.566-.806,1.067-1.188,1.565-.927,1.209-1.846,2.425-2.8,3.617a1.123,1.123,0,0,1-.69.417c-2.125.146-4.252.25-6.379.367Z" transform="translate(499.373 -336.518)"/><path d="M-502.121,406.131c-.015-.809-.042-1.614-.029-2.419,0-.108.2-.291.323-.3a11.245,11.245,0,0,1,1.181-.015c-.026.53-.066,1.048-.073,1.566-.015,1.1-.032,1.127-1.154,1.195C-501.9,406.156-501.931,406.15-502.121,406.131Z" transform="translate(502.153 -389.917)"/><path d="M-399.6,349.69a.954.954,0,0,0-.98.962.954.954,0,0,0,.983,1,.962.962,0,0,0,1.009-.981A.976.976,0,0,0-399.6,349.69Zm.008,1.565c-.178-.286-.355-.443-.348-.594.006-.132.214-.257.334-.385.134.13.359.247.38.391S-399.4,350.97-399.593,351.254Z" transform="translate(412.873 -342.718)"/></g><g transform="translate(0 0)"><path d="M217.429,331.793a1.994,1.994,0,0,0-.266-.116,23.217,23.217,0,0,0-9.9-.789,7.418,7.418,0,0,0-4.768,2.259,9.914,9.914,0,0,1-1.062.921l-.147-.07v-3.582a.606.606,0,0,0-.117.07c-2.009,1.769-4.024,3.533-6.016,5.321a1.52,1.52,0,0,0-.413.8,1.309,1.309,0,0,0,.647,1.44,1.413,1.413,0,0,0,1.681-.144c.886-.755,1.75-1.534,2.625-2.3.541-.475,1.084-.948,1.682-1.47.372,2.318.724,4.518,1.078,6.718a.916.916,0,0,0,1.048.921q.786.016,1.572,0c.772-.015,1.108-.382,1-1.145-.166-1.21-.36-2.416-.549-3.623-.2-1.275-.406-2.549-.615-3.86h8.759c-.02.2-.027.371-.054.538q-.543,3.418-1.091,6.834c-.128.8.219,1.239,1.013,1.255q.786.016,1.573,0a.961.961,0,0,0,1.07-.919c.363-2.278.732-4.556,1.065-6.839.108-.738.112-1.491.162-2.239,1.372.515,2.752,1.009,4.113,1.551a1.451,1.451,0,0,0,2.037-.609,1.435,1.435,0,0,0-.773-1.979,14.126,14.126,0,0,0-1.587-.72c-1.317-.485-2.647-.935-4.121-1.452Zm-16.011-1.767.139.09,13.26-11.706a4.962,4.962,0,0,0-1.017-.577c-.961-.253-1.939-.44-2.975-.667-.139-.4.036-.716.513-1.012a3.635,3.635,0,0,0,1.486-4.233,3.7,3.7,0,0,0-7.1.2,3.643,3.643,0,0,0,1.58,4.044.888.888,0,0,1,.43,1.189c-.292,0-.58-.007-.867,0a4.85,4.85,0,0,0-4.606,3.312,13.468,13.468,0,0,0-.416,2.979C201.678,325.768,201.559,327.9,201.418,330.025Zm7.3-2.364a30.9,30.9,0,0,1,8.388.953c-.2-2.632-.227-5.167-.614-7.8Zm6.208-9.318,1.637,2.379c1.637-1.441,3.318-2.9,4.974-4.392a1.315,1.315,0,0,0,.376-1.537,1.241,1.241,0,0,0-1.274-.918,2.76,2.76,0,0,0-1.363.644C217.795,315.768,216.362,317.073,214.926,318.344Z" transform="translate(-194.713 -309.365)"/><path d="M237.862,330.025c.14-2.128.26-4.257.43-6.382a13.465,13.465,0,0,1,.416-2.979,4.85,4.85,0,0,1,4.606-3.312c.287-.008.575,0,.867,0a.888.888,0,0,0-.43-1.189,3.643,3.643,0,0,1-1.58-4.044,3.7,3.7,0,0,1,7.1-.2,3.635,3.635,0,0,1-1.486,4.233c-.478.3-.653.608-.514,1.012,1.036.227,2.014.415,2.975.667a4.962,4.962,0,0,1,1.017.577L238,330.116Z" transform="translate(-231.157 -309.365)"/><path d="M217.415,446.19c-.052.746-.056,1.5-.164,2.237-.333,2.283-.7,4.56-1.065,6.839a.96.96,0,0,1-1.07.919q-.786.015-1.573,0c-.794-.016-1.142-.457-1.013-1.255q.549-3.416,1.091-6.834c.027-.167.034-.337.054-.538h-8.759c.209,1.311.416,2.585.615,3.86.189,1.207.383,2.413.549,3.623.1.763-.232,1.129-1,1.145q-.786.016-1.572,0a.916.916,0,0,1-1.048-.921c-.354-2.2-.706-4.4-1.078-6.718-.6.523-1.141,1-1.682,1.47-.875.768-1.74,1.547-2.625,2.3a1.413,1.413,0,0,1-1.681.144,1.309,1.309,0,0,1-.647-1.44,1.52,1.52,0,0,1,.413-.8c1.992-1.789,4.007-3.552,6.016-5.322a.61.61,0,0,1,.117-.07v3.582l.147.069a9.9,9.9,0,0,0,1.062-.922,7.418,7.418,0,0,1,4.768-2.259,23.216,23.216,0,0,1,9.9.789,1.974,1.974,0,0,1,.266.116Z" transform="translate(-194.713 -423.775)"/><path d="M284.834,389.87l7.774-6.85c.388,2.637.419,5.172.614,7.8A30.905,30.905,0,0,0,284.834,389.87Z" transform="translate(-270.829 -371.574)"/><path d="M324.783,342.815c1.436-1.271,2.869-2.576,4.349-3.824a2.759,2.759,0,0,1,1.363-.644,1.241,1.241,0,0,1,1.274.918,1.315,1.315,0,0,1-.376,1.537c-1.656,1.49-3.337,2.951-4.974,4.392Z" transform="translate(-304.57 -333.837)"/><path d="M339.005,436.166c-.109-1.011-.218-2.023-.347-3.223,1.474.517,2.8.967,4.121,1.452a14.122,14.122,0,0,1,1.587.72,1.435,1.435,0,0,1,.773,1.979,1.451,1.451,0,0,1-2.037.609c-1.361-.542-2.741-1.036-4.112-1.55Z" transform="translate(-316.289 -413.739)"/></g></svg>