<svg xmlns="http://www.w3.org/2000/svg" width="54.253" height="46.324" viewBox="0 0 54.253 46.324"><g transform="translate(-234.747 -6790.631)"><g transform="translate(-1403.419 8932.054)"><path d="M1796.976-2141.328v2.485l.96.043v-2.535h9.311v46.3h-9.287v-2.469h-.952v2.461H1787.7v-46.289Zm.925,30v-4.6l-.869.043v4.558Zm-.864-13.67v4.513l.866-.046v-4.467Zm-.016,18.3v4.515h.885v-4.515Zm.9-27.486h-.873v4.5l.873-.05Z" transform="translate(-114.828 -0.068)"/><path d="M1657.616-2095.1h-9.2v-2.464H1647.4v2.464h-9.232v-46.324h9.2v2.5h1.039v-2.493h9.211Zm-9.273-16.3V-2116l-.911.059v4.548Zm.018-18.389v-4.52l-.932.047v4.473Zm-.921,4.7v4.487h.91v-4.487Zm0,18.3v4.589l.9-.05v-4.539Z" transform="translate(0 0)"/><path d="M1725.421-2141.38l-2.451,2.451v-2.451Z" transform="translate(-65.121 -0.033)"/><path d="M1734.851-2141.38,1722.97-2129.5v-8.112l3.769-3.769Z" transform="translate(-65.121 -0.033)"/><path d="M1737.762-2141.38v6.52l-14.792,14.792v-8.112l13.2-13.2Z" transform="translate(-65.121 -0.033)"/><path d="M1722.97-2092.818l14.792-14.792v8.112l-14.792,14.792Z" transform="translate(-65.121 -25.965)"/><path d="M1737.762-2066.98v8.112l-14.792,14.794v-8.114Z" transform="translate(-65.121 -57.165)"/><path d="M1737.762-2026.35v8.112l-11.492,11.494h-3.3v-4.812Z" transform="translate(-65.121 -88.364)"/><path d="M1753.043-1985.72v8.114l-2.061,2.061h-8.112Z" transform="translate(-80.402 -119.564)"/><path d="M1783.5-1944.337l.743-.743v.743Z" transform="translate(-111.602 -150.771)"/></g><g transform="translate(-2.871 185.01)"><circle cx="3" cy="3" r="3" transform="translate(261.871 6625.99)" fill="#3acce1"/><path d="M0,3.945V1.214S.231-.175,1.08.018a1.421,1.421,0,0,1,.965,1.2L2.12,5.492A3.828,3.828,0,0,0,.792,4.308Z" transform="matrix(-1, -0.017, 0.017, -1, 263.887, 6637.088)" fill="#3acce1"/><path d="M0,3.945V1.214S.231-.175,1.08.018a1.421,1.421,0,0,1,.965,1.2L2.12,5.492A3.828,3.828,0,0,0,.792,4.308Z" transform="translate(266.42 6621.884) rotate(2)" fill="#3acce1"/></g></g></svg>