<svg xmlns="http://www.w3.org/2000/svg" width="57.969" height="41.437" viewBox="0 0 57.969 41.437"><g transform="translate(-992.635 -6309.829)"><g transform="translate(992.635 6309.829)"><g transform="translate(0 0)"><path d="M2289.937-1747.765c-1.734-.4-2.044-.8-1.926-2.691a1.745,1.745,0,0,1,1.776-1.75c2.16-.142,2.159-.142,2.813-2.175.252-.783.485-1.574.772-2.344a5.31,5.31,0,0,1,5.1-3.65q6.333-.06,12.668,0a5.335,5.335,0,0,1,5.09,3.674c.457,1.256.865,2.533,1.228,3.819.153.541.409.741.941.673.2-.026.412.006.617,0,2.7-.139,2.655,1.262,2.429,3.033-.146,1.142-1.073,1.384-2.057,1.377.13,1.865.319,3.662.365,5.463.062,2.436.02,4.875.013,7.312,0,1.51-.588,2.15-2.074,2.222a18.217,18.217,0,0,1-2.366-.022,1.755,1.755,0,0,1-1.86-1.995c-.019-.686-.015-1.373-.028-2.059a1.436,1.436,0,0,0-.089-.284h-17.263c0,.719.007,1.458,0,2.2-.017,1.43-.62,2.084-2.042,2.164a21.239,21.239,0,0,1-2.161,0c-1.531-.071-2.1-.657-2.087-2.183C2289.828-1739.228,2289.886-1743.469,2289.937-1747.765Zm14.853-2.178c3.016,0,6.033-.014,9.049.01.754.006,1.012-.229.76-.976-.5-1.493-.973-3-1.466-4.494a2.116,2.116,0,0,0-2.17-1.56c-4.079-.013-8.158-.006-12.237-.005a2.077,2.077,0,0,0-2.165,1.545c-.492,1.493-.972,2.992-1.5,4.474-.284.8-.03,1.028.78,1.02C2298.825-1749.962,2301.808-1749.943,2304.79-1749.943Zm-8.009,8.009c.445,0,.89,0,1.334,0,.732-.009,1.484-.132,1.454-1.047-.041-1.252-.312-2.088-1.209-2.216-1.014-.144-2.016-.368-3.03-.517a1.015,1.015,0,0,0-1.272,1.006c-.112,2.311-.211,2.906,2.313,2.775C2296.507-1741.94,2296.644-1741.934,2296.781-1741.935Zm16.042-.118v.008h.82c1.859,0,1.967-.107,1.96-1.978,0-.069,0-.136,0-.2-.015-1.377-.431-1.72-1.757-1.469-.6.115-1.208.219-1.815.305-1.5.213-1.866.6-1.974,2.1-.053.745.26,1.192,1.023,1.231C2311.66-1742.029,2312.242-1742.053,2312.823-1742.053Z" transform="translate(-2275.799 1760.405)"/><path d="M2255.219-1696.049c0,1.705.016,3.411-.015,5.116a1.876,1.876,0,0,1-.326.842q-4.137,6.983-8.292,13.955c-.587.984-1.439,1.288-2.215.838a1.545,1.545,0,0,1-.419-2.32q5.41-9.094,10.84-18.177c.067-.112.153-.211.231-.317Z" transform="translate(-2243.617 1713.774)"/><path d="M2412.779-1695.981q1.727,2.906,3.454,5.812,3.724,6.282,7.446,12.566c.667,1.127.564,1.838-.332,2.377-.784.471-1.591.193-2.2-.833q-4.169-6.975-8.307-13.969a1.644,1.644,0,0,1-.266-.758c-.024-1.713-.012-3.426-.012-5.139Z" transform="translate(-2366.141 1713.68)"/><path d="M2346.739-1635.4a9.5,9.5,0,0,1-.009,1.229,1.337,1.337,0,0,1-1.32,1.216,1.232,1.232,0,0,1-1.434-1.044,12.635,12.635,0,0,1-.031-2.847,1.27,1.27,0,0,1,1.488-1.112,1.33,1.33,0,0,1,1.315,1.328c.026.409.005.82.005,1.23Z" transform="translate(-2316.333 1671.604)"/><path d="M2346.84-1663.436c-.024.443.1.975-.108,1.306a2.565,2.565,0,0,1-1.259,1.118,1.118,1.118,0,0,1-1.441-.963,12.793,12.793,0,0,1-.018-2.939,1.23,1.23,0,0,1,1.426-1.045,1.315,1.315,0,0,1,1.328,1.194,9.064,9.064,0,0,1,.011,1.329Z" transform="translate(-2316.377 1691.908)"/></g><g transform="translate(10.907 12.113)"><path d="M2289.939-1689.146c-.2.243-.362.426-.505.626a12.789,12.789,0,0,0-1.767,3.632,1.719,1.719,0,0,1-2.534,1.067,1.642,1.642,0,0,1-.843-1.953,14.036,14.036,0,0,1,5.7-8,1.738,1.738,0,0,1,2.422.456,21.759,21.759,0,0,0,2.184,2.658,16.352,16.352,0,0,0,2.85,2,1.887,1.887,0,0,1,.981,2.384,1.789,1.789,0,0,1-2.4.912c-.666-.292-1.286-.688-1.927-1.039-.137-.075-.272-.155-.471-.27-.04.581-.06,1.086-.109,1.587a19.434,19.434,0,0,1-3.86,9.546c-1.057,1.462-2.273,2.811-3.447,4.186a1.632,1.632,0,0,1-2.285.042,1.7,1.7,0,0,1-.241-2.369c.461-.589.993-1.123,1.478-1.694a23.041,23.041,0,0,0,4.176-6.847,13.867,13.867,0,0,0,.712-6.641A1.588,1.588,0,0,0,2289.939-1689.146Z" transform="translate(-2283.317 1700.193)" fill="#3acce1"/><path d="M2320.209-1655.814c.868,1.691,1.711,3.33,2.552,4.971.875,1.708,1.759,3.412,2.619,5.128a1.642,1.642,0,0,1-1.206,2.5,1.618,1.618,0,0,1-1.72-1c-1.087-2.112-2.138-4.243-3.257-6.339a1.921,1.921,0,0,1-.088-1.869C2319.567-1653.486,2319.835-1654.628,2320.209-1655.814Z" transform="translate(-2309.131 1672.435)" fill="#3acce1"/><path d="M2303.832-1716.313a2.739,2.739,0,0,1,2.763,2.733,2.766,2.766,0,0,1-2.721,2.735,2.756,2.756,0,0,1-2.76-2.747A2.734,2.734,0,0,1,2303.832-1716.313Z" transform="translate(-2296.225 1716.313)" fill="#3acce1"/></g></g></g></svg>