<svg xmlns="http://www.w3.org/2000/svg" width="57.229" height="35.488" viewBox="0 0 57.229 35.488"><g transform="translate(-1130.771 -6292.582)"><g transform="translate(1130.771 6292.583)"><g transform="translate(0 0)"><path d="M2806.443-1771.479c0,1.3.011,2.6-.012,3.892a1.43,1.43,0,0,1-.249.641q-3.147,5.313-6.308,10.617c-.447.749-1.1.98-1.686.637a1.176,1.176,0,0,1-.319-1.765q4.116-6.918,8.247-13.828c.051-.085.116-.161.175-.241Z" transform="translate(-2781.99 1786.227)"/><path d="M2966.725-1771.4q1.314,2.211,2.627,4.421,2.833,4.779,5.664,9.559c.508.857.429,1.4-.253,1.808-.6.359-1.21.147-1.677-.634q-3.172-5.307-6.32-10.627a1.252,1.252,0,0,1-.2-.577c-.018-1.3-.009-2.606-.009-3.909Z" transform="translate(-2918.115 1786.123)"/><path d="M2900.055-1711.431a7.236,7.236,0,0,1-.007.935,1.018,1.018,0,0,1-1,.925.937.937,0,0,1-1.091-.794,9.624,9.624,0,0,1-.024-2.166.966.966,0,0,1,1.132-.846,1.012,1.012,0,0,1,1,1.01c.02.311,0,.624,0,.936Z" transform="translate(-2861.297 1740.235)"/><path d="M2900.146-1739.456c-.019.337.073.742-.083.994a1.949,1.949,0,0,1-.957.851.851.851,0,0,1-1.1-.733,9.741,9.741,0,0,1-.014-2.236.936.936,0,0,1,1.085-.795,1,1,0,0,1,1.01.908,6.872,6.872,0,0,1,.009,1.011Z" transform="translate(-2861.344 1762.379)"/><path d="M2743.615-1783.359c-2.784,3.032-15.8,17.043-18.6,20.067-.592.64-1.274.733-1.781.275a1.176,1.176,0,0,1,.053-1.793q5.456-5.92,10.924-11.828c.067-.073.147-.133.221-.2.046.026,9.908-9.875,9.954-9.849" transform="translate(-2722.848 1798.219)"/><path d="M2843.309-1827.251c-1.176-.274-1.386-.541-1.305-1.824a1.182,1.182,0,0,1,1.2-1.187c1.464-.1,1.463-.1,1.906-1.474.171-.531.329-1.067.523-1.589a3.6,3.6,0,0,1,3.457-2.474q4.294-.041,8.588,0a3.616,3.616,0,0,1,3.45,2.49c.31.852.586,1.717.833,2.589.1.366.278.5.638.457.137-.017.279,0,.418,0,1.831-.094,1.8.856,1.647,2.056-.1.774-.727.938-1.395.934.088,1.264.216,2.482.247,3.7.042,1.651.013,3.3.009,4.957,0,1.024-.4,1.458-1.407,1.506a12.273,12.273,0,0,1-1.6-.015,1.19,1.19,0,0,1-1.261-1.352c-.012-.465-.011-.93-.019-1.4a.955.955,0,0,0-.061-.192h-11.7c0,.487,0,.988,0,1.489-.011.969-.42,1.413-1.385,1.467a14.35,14.35,0,0,1-1.466,0c-1.038-.048-1.424-.446-1.415-1.48C2843.236-1821.463,2843.275-1824.338,2843.309-1827.251Zm10.069-1.476c2.045,0,4.09-.01,6.135.007.511,0,.686-.155.515-.661-.341-1.012-.66-2.032-.994-3.047a1.434,1.434,0,0,0-1.471-1.058c-2.766-.009-5.531,0-8.3,0a1.408,1.408,0,0,0-1.467,1.047c-.334,1.012-.659,2.028-1.015,3.033-.193.543-.021.7.528.691C2849.335-1828.74,2851.357-1828.727,2853.379-1828.727Zm-5.429,5.429c.3,0,.6,0,.9,0,.5-.006,1.006-.089.986-.71-.028-.849-.211-1.416-.82-1.5-.687-.1-1.367-.249-2.054-.35a.688.688,0,0,0-.863.682c-.076,1.566-.143,1.97,1.567,1.882C2847.763-1823.3,2847.857-1823.3,2847.949-1823.3Zm10.875-.08v.005h.556c1.26,0,1.333-.072,1.329-1.341,0-.046,0-.093,0-.139-.01-.933-.293-1.166-1.191-1-.409.078-.819.148-1.231.207-1.018.145-1.265.407-1.338,1.424-.036.505.176.808.694.835C2858.036-1823.362,2858.431-1823.378,2858.824-1823.378Z" transform="translate(-2821.867 1835.82)"/></g><g transform="translate(4.223 14.554)"><path d="M2751.068-1747.11c0,2.3.007,4.552-.01,6.8a1.588,1.588,0,0,1-.221.787,1,1,0,0,1-1.157.374,1.032,1.032,0,0,1-.723-1.015c0-1.889,0-3.778,0-5.667v-.394h-.384v.42c0,1.83,0,3.66,0,5.491a1.06,1.06,0,0,1-1.181,1.2c-.583-.039-.954-.5-.955-1.219q-.005-3.132,0-6.265v-.5c-.12.083-.208.148-.3.206a.811.811,0,0,1-1.177-.3c-.6-1.154-1.189-2.315-1.785-3.472a.862.862,0,0,1,.113-1.013c.648-.8,1.291-1.611,1.942-2.412a2.207,2.207,0,0,1,1.785-.837c1.243,0,2.487,0,3.73.021a1.922,1.922,0,0,1,1.468.731c.693.826,1.363,1.673,2.041,2.512a.848.848,0,0,1,.095.986c-.579,1.139-1.153,2.281-1.745,3.414C2752.275-1746.637,2751.738-1746.582,2751.068-1747.11Zm.02-5.653v4.711c.5-1,.96-1.9,1.405-2.811a.317.317,0,0,0-.06-.266C2752.008-1751.656,2751.572-1752.176,2751.088-1752.762Zm-6.129,1.785,1.395,2.8.054-.026v-4.541Z" transform="translate(-2743.053 1759.956)" fill="#3acce1"/><path d="M2761.5-1774.366a2.323,2.323,0,0,1-2.333-2.314,2.357,2.357,0,0,1,2.32-2.34,2.316,2.316,0,0,1,2.334,2.346A2.279,2.279,0,0,1,2761.5-1774.366Z" transform="translate(-2755.802 1779.021)" fill="#3acce1"/></g></g></g></svg>