<svg xmlns="http://www.w3.org/2000/svg" width="53.801" height="28.999" viewBox="0 0 53.801 28.999"><g transform="translate(0 0)"><path d="M2225.557-1495.187v-5.366h6.71v-12.209c-.412.776-.689,1.274-.943,1.784a1.27,1.27,0,0,1-1.78.76,1.225,1.225,0,0,1-.5-1.854c.73-1.45,1.489-2.885,2.233-4.328a1.772,1.772,0,0,1,1.77-1.015c1.521.028,3.043.022,4.566,0a1.764,1.764,0,0,1,1.746,1.052c.6,1.2,1.188,2.42,1.873,3.577a1.547,1.547,0,0,0,1.078.672c1.8.07,3.6.055,5.394.022a1.437,1.437,0,0,1,1.487.878c.465.964.965,1.911,1.454,2.864.295.574.426,1.159-.239,1.535-.689.39-1.088-.075-1.4-.631-.168-.3-.33-.6-.609-1.119v7.967h3.81v2.91h3.155c0-.488-.005-.925,0-1.361.008-.581.08-1.148-.538-1.553a1.217,1.217,0,0,1-.312-.841c-.117-1.687-.236-3.376-.277-5.067a2.89,2.89,0,0,1,1.181-2.525c-.3-.379-.762-.7-.817-1.071-.173-1.186-.033-1.287,1.181-1.28.467,0,.935.043,1.518.072.24-.671.508-1.446.793-2.214a2.638,2.638,0,0,1,2.565-1.915q5.135-.046,10.271,0a2.646,2.646,0,0,1,2.613,1.988c.248.715.511,1.426.763,2.13h2.616v1.868l-.854.182c.03.072.041.189.1.239a3.215,3.215,0,0,1,1.226,2.835c-.06,1.553-.162,3.105-.253,4.657-.01.17-.016.4-.121.494-1.009.906-.609,2.166-.874,3.412h3.209v2.45Zm48-14.627c-.393-1.119-.782-2.181-1.135-3.254a1.592,1.592,0,0,0-1.609-1.213c-3.348-.016-6.7-.04-10.044.033a1.879,1.879,0,0,0-1.388.847,34.41,34.41,0,0,0-1.344,3.587Zm-30.143,9.179c0-2.933-.008-5.76.007-8.586,0-.7-.506-.7-.921-.671-1.936.13-3.361-.5-3.965-2.479-.014-.046-.1-.068-.208-.131v11.868Zm29.066,2.959c-.306-1.607-.272-1.7.833-2.422h-15.048c1.609.318.905,1.479.9,2.422Zm-14.5-10.379-.01.067c-.276,0-.552-.013-.828,0-.893.051-1.25.53-.979,1.374.376,1.17,1.39.759,2.193.816a1.09,1.09,0,0,0,1.321-1c.032-.335-.08-.875-.306-1A4.246,4.246,0,0,0,2257.983-1508.054Zm15.756.066c-.207,0-.413,0-.62,0-.613.015-1.192.036-1.189.906,0,.8.328,1.249,1.138,1.281a3.553,3.553,0,0,0,1.429-.048,1.75,1.75,0,0,0,.957-.988C2275.684-1507.761,2275.29-1507.988,2273.739-1507.988Zm-9.893,6.763h3.923v-1.173h-3.923Zm5.352-6.481c-.755.843-.631,3.483,0,3.806Zm-6.47,3.853v-4.044C2262.063-1507.038,2262.1-1504.426,2262.729-1503.853Zm1.888-3.956v4.131C2265.257-1504.627,2265.217-1507.182,2264.617-1507.808Zm1.021-.086v4.152A4.758,4.758,0,0,0,2265.638-1507.895Zm1.257,3.989c.521-1.527.351-3.543-.337-3.885C2266.692-1506.432,2266.349-1505.139,2266.895-1503.905Zm1.243.228v-4.113C2267.511-1507.211,2267.462-1504.622,2268.138-1503.677Zm-32.754-4.356h-.167v7.32h.167Zm28.13,4.108.425-.014c-.04-1.258.254-2.534-.425-3.755Z" transform="translate(-2225.557 1524.185)"/><path d="M2254.1-1536.68a2.628,2.628,0,0,1-2.593-2.671,2.621,2.621,0,0,1,2.631-2.523,2.564,2.564,0,0,1,2.569,2.663A2.585,2.585,0,0,1,2254.1-1536.68Z" transform="translate(-2244.324 1541.874)"/><path d="M2295.047-1514.5a1.984,1.984,0,0,1-1.94,1.906,1.931,1.931,0,0,1-1.915-2.011,1.913,1.913,0,0,1,1.97-1.852A1.962,1.962,0,0,1,2295.047-1514.5Z" transform="translate(-2273.025 1523.495)"/></g></svg>