<svg id="Accident_Scene" data-name="Accident Scene" xmlns="http://www.w3.org/2000/svg" width="41.697" height="23.833" viewBox="0 0 41.697 23.833">
  <g id="Group_2192" data-name="Group 2192" transform="translate(18.845)">
    <path id="Path_3506" data-name="Path 3506" d="M-439.76,218.357l.5-.35c-.14-.4-.345-.542-.706-.387-.3.131-.437.025-.553-.222a8.233,8.233,0,0,1-.384-.822,1.256,1.256,0,0,1,.623-1.613c.3-.17.611-.313.906-.487.229-.135.336-.087.442.159a2.724,2.724,0,0,0,1.892,1.6A2.821,2.821,0,0,0-433.4,213.3a5.171,5.171,0,0,0-.479-1.519c-.087-.217-.15-.326.1-.466,1.992-1.108,3.976-2.23,5.964-3.346.02-.011.051,0,.149,0a2.873,2.873,0,0,0,2.376,1.959,2.713,2.713,0,0,0,1.968-.425,2.835,2.835,0,0,0,1.305-2.033,3.079,3.079,0,0,0-.68-2.37c.558-.3,1.06-.61,1.6-.832a.874.874,0,0,1,.667.158,3.724,3.724,0,0,1,1.725,3.2,1.552,1.552,0,0,0,.072.576,4.182,4.182,0,0,1,.294,2.324,14.355,14.355,0,0,1-.4,2.173,2.411,2.411,0,0,1-.751,1.169,27.186,27.186,0,0,1-6.918,4.014,13.3,13.3,0,0,1-6.5.749,6.508,6.508,0,0,0-2.126.36,6.483,6.483,0,0,1-3.815-.1A8,8,0,0,1-439.76,218.357Zm6.846-1.487-.014.138a4.749,4.749,0,0,0,.513.223,8.548,8.548,0,0,0,4.3.114,13.837,13.837,0,0,0,3.72-1.294c.437-.233.487-.409.222-.815q-.5-.762-1.025-1.5c-.342-.479-.537-.52-1.07-.251q-3.159,1.593-6.314,3.192C-432.7,216.732-432.8,216.8-432.914,216.871Zm13.17-6.24c.031-.465-.15-.605-.481-.428-1.419.758-2.829,1.532-4.238,2.307a.34.34,0,0,0-.129.558c.4.587.785,1.186,1.187,1.773.224.327.408.343.71.061.539-.5,1.09-1,1.594-1.539A4.752,4.752,0,0,0-419.744,210.631Zm-6.265,1.585c0-.453-.326-.646-.68-.46-.616.323-1.217.677-1.82,1.025a.427.427,0,0,0-.165.644.43.43,0,0,0,.627.118c.586-.326,1.176-.647,1.749-.994A1.234,1.234,0,0,0-426.009,212.215Z" transform="translate(441.144 -196.5)" fill="#4a4a4a"/>
    <path id="Path_3507" data-name="Path 3507" d="M-437.272,130.946c-.092.445-.176.8-.238,1.159a3.583,3.583,0,0,0,1.249,3.327.863.863,0,0,0,.673.164c.29-.059.341-.354.349-.638a4.646,4.646,0,0,1,.09-.979,1.007,1.007,0,0,1,1.257-.752,3.42,3.42,0,0,1-.1.33,1.234,1.234,0,0,0,.106,1.208,4.524,4.524,0,0,1,.606,1.821c.1.632.331,1.241.448,1.872a4.677,4.677,0,0,1-.492,3.767,3.444,3.444,0,0,1-1.589,1.227c.043-.16.072-.278.107-.394a2.541,2.541,0,0,0-.409-2.288c-.3-.43-.576-.39-.813.07a3.72,3.72,0,0,1-.52.732.37.37,0,0,1-.347.071.377.377,0,0,1-.143-.324,8.07,8.07,0,0,1,.249-.911c.186-.6.4-1.2.563-1.81a2.584,2.584,0,0,0-.32-1.951,4.2,4.2,0,0,1-1.749,2.4,3.818,3.818,0,0,0-1.425,2.389,3.71,3.71,0,0,0,.161,2.208,3,3,0,0,1-2.093-2.012c-.267-.99-.493-1.993-.7-3a2.82,2.82,0,0,1,.361-2.057,10.36,10.36,0,0,1,.62-.918,3.67,3.67,0,0,0,.923-2.184,2.143,2.143,0,0,1,.61,1.463c-.034.776-.14,1.548-.176,2.324a3.048,3.048,0,0,0,.158.756,2.6,2.6,0,0,0,.5-.6,4.023,4.023,0,0,0,.02-2.568A3.6,3.6,0,0,1-437.6,131.1,2.849,2.849,0,0,1-437.272,130.946Z" transform="translate(442.421 -130.946)" fill="#4a4a4a"/>
    <path id="Path_3508" data-name="Path 3508" d="M-414.142,276.8a1.99,1.99,0,0,1-1.98-1.912,2.119,2.119,0,0,1,1.949-2.105,2.053,2.053,0,0,1,2.055,2.027A1.978,1.978,0,0,1-414.142,276.8Zm.053-1.113a.882.882,0,0,0,.86-.892.876.876,0,0,0-.872-.881.872.872,0,0,0-.875.912A.871.871,0,0,0-414.09,275.689Z" transform="translate(418.902 -257.795)" fill="#4a4a4a"/>
    <path id="Path_3509" data-name="Path 3509" d="M-307.746,214.1a2.053,2.053,0,0,1,1.962-2.066,2.05,2.05,0,0,1,2.043,1.994,2.016,2.016,0,0,1-1.991,2A2.015,2.015,0,0,1-307.746,214.1Zm2.006-.955a.875.875,0,0,0-.877.834.936.936,0,0,0,.884.932.9.9,0,0,0,.875-.849A.888.888,0,0,0-305.741,213.142Z" transform="translate(321.979 -203.462)" fill="#4a4a4a"/>
  </g>
  <g id="Group_2193" data-name="Group 2193" transform="translate(0.311 5.831)">
    <path id="Path_3510" data-name="Path 3510" d="M-600.461,207.086c.876-.123,1.177-.412,1.324-1.252l.041-.229c.05-.267.1-.535.142-.8.02-.124.036-.247.05-.372.1-.985.526-1.948.2-3,.364-.082.7-.178,1.052-.235.379-.062.524-.261.449-.633-.025-.129-.033-.262-.063-.39a1.066,1.066,0,0,0-1.336-.9c-.3.043-.593.072-.925.111,0-.617-.025-1.2.006-1.769a2.947,2.947,0,0,0-.637-2.293,6.505,6.505,0,0,0-2.036-1.48,15.932,15.932,0,0,0-6.972-1.539,8.635,8.635,0,0,0-3.634.643,2.61,2.61,0,0,0-1.572,1.717c-.2.706-.461,1.4-.7,2.12-.337-.167-.642-.322-.948-.471a1.035,1.035,0,0,0-1.393.351,4.758,4.758,0,0,0-.309.552.39.39,0,0,0,.184.591c.339.2.665.416.945.594a7.146,7.146,0,0,0-.418,1.1c-.211,1.074-.384,2.156-.557,3.237a1.252,1.252,0,0,0,.847,1.6c-.08.515-.171,1.007-.233,1.5a.755.755,0,0,0,.591.894,8.3,8.3,0,0,0,1.054.174.758.758,0,0,0,.916-.706c.092-.475.173-.95.263-1.449l11.034,1.856c.1.8-.533,1.557.107,2.357h5.8v-.022h-3.607C-600.688,208.3-600.573,207.689-600.461,207.086ZM-614.141,202a1.882,1.882,0,0,1-2.356-.458c-.476-.636-.081-1.434.8-1.6a3.193,3.193,0,0,1,.4-.03,1.773,1.773,0,0,1,1.429.634A.924.924,0,0,1-614.141,202Zm9.178,1.528-6.362-1.066c.011-.064.02-.128.031-.191,2.127.3,4.239.709,6.361,1.045C-604.943,203.391-604.954,203.462-604.963,203.533Zm.2-1.216-6.344-1.073c.012-.068.024-.135.036-.2,2.115.358,4.236.687,6.344,1.078C-604.738,202.185-604.75,202.25-604.762,202.317Zm-9.9-4.674c.364-1.09.687-2.147,1.075-3.181a1.618,1.618,0,0,1,1.127-.933,11.866,11.866,0,0,1,2.384-.512,14.369,14.369,0,0,1,8.264,1.8,6.038,6.038,0,0,1,.913.688,2.119,2.119,0,0,1,.718,1.876c-.056.88-.013,1.766-.013,2.691Zm12.8,4.884a1.912,1.912,0,0,1,2.219.35.943.943,0,0,1-.322,1.588,4.847,4.847,0,0,1-.75.208,2.047,2.047,0,0,1-1.365-.587A.94.94,0,0,1-601.865,202.526Z" transform="translate(617.798 -191.65)" fill="#4a4a4a"/>
    <path id="Path_3511" data-name="Path 3511" d="M-482.326,192.557c-.418-.821-.233-1.466.611-2.249a2.292,2.292,0,0,1-.926-2.238c-1.17.254-1.244.225-1.841-.7-1.51.8-1.933.711-2.465-.551a1.939,1.939,0,0,1-.374.252,1.081,1.081,0,0,1-.418.028c.483-.191.483-.191.889-.985.085.283.142.552.245.8a.8.8,0,0,0,1.269.468,13.208,13.208,0,0,0,1.132-.779,6.416,6.416,0,0,0,.221.682.64.64,0,0,0,1.026.341,5.153,5.153,0,0,0,.612-.433c.186-.143.362-.3.585-.45-.539,1.346-.891,2.648.7,3.555C-482.3,191.1-482.5,191.433-482.326,192.557Z" transform="translate(501.484 -186.118)" fill="#4a4a4a"/>
    <path id="Path_3512" data-name="Path 3512" d="M-510.027,225.388a1.106,1.106,0,0,0,1.269.4.617.617,0,0,1,.406.072,2.722,2.722,0,0,0,1.309.383,1.192,1.192,0,0,1,.332.088,2.391,2.391,0,0,1-1.657-.112,1.7,1.7,0,0,0-.875-.024c-.963.141-.973.152-1.348-.086l.963-.126.06-.092c-.818-.21-.934-.934-1.233-1.529a.548.548,0,0,0-.315-.235c-.29-.084-.591-.128-.887-.193-.552-.12-.551-.122-.707-.734.368.742,1.105.474,1.685.618a.588.588,0,0,1,.505.406c.119.347.271.682.389.97a7.5,7.5,0,0,0,.539-.535,2.07,2.07,0,0,0,.254-.46,1.492,1.492,0,0,1,.3-.5l-.159.885c.467.207.9.384,1.338-.038.152-.147.35-.251.521-.089a3.671,3.671,0,0,0-.571.369.712.712,0,0,1-.882.142C-509.359,224.716-509.687,224.846-510.027,225.388Z" transform="translate(523.816 -219.282)" fill="#4a4a4a"/>
  </g>
  <rect id="Rectangle_1414" data-name="Rectangle 1414" width="41.189" height="0.678" transform="translate(0 23.154)" fill="#4a4a4a"/>
</svg>
