<svg xmlns="http://www.w3.org/2000/svg" width="20.009" height="13.149" viewBox="0 0 20.009 13.149"><defs><style>.a{fill:#fff;}</style></defs><g transform="translate(0 -60.039)"><g transform="translate(0 60.039)"><path class="a" d="M44.2,224.219a1.953,1.953,0,1,0,1.954,1.953A1.953,1.953,0,0,0,44.2,224.219Zm0,2.8a.849.849,0,1,1,.849-.849A.849.849,0,0,1,44.2,227.022Z" transform="translate(-39.748 -214.977)"/><path class="a" d="M17.932,66.4c-.691-.179-1.087-.291-1.358-.812l-.908-1.827a1.944,1.944,0,0,0-1.567-.948H12.692v-1.7a1.086,1.086,0,0,0-1.086-1.08H1.086A1.086,1.086,0,0,0,0,61.119v9.154a1.086,1.086,0,0,0,1.086,1.08h.759c0-.038,0-.075,0-.113a2.456,2.456,0,0,1,4.913,0c0,.038,0,.076,0,.113h4.853a1.092,1.092,0,0,0,.179-.015c0-.032,0-.065,0-.1a2.456,2.456,0,0,1,4.913,0c0,.038,0,.076,0,.113h2.243a1.073,1.073,0,0,0,1.073-1.067V68.258C20.009,66.55,18.506,66.55,17.932,66.4Zm-8.8-.891a.562.562,0,0,1-.562.559H7.4v1.16a.562.562,0,0,1-.562.559H5.854a.562.562,0,0,1-.562-.559V66.07H4.125a.562.562,0,0,1-.562-.559v-.978a.562.562,0,0,1,.562-.559H5.292v-1.16a.562.562,0,0,1,.562-.559h.984a.562.562,0,0,1,.562.559v1.16H8.567a.562.562,0,0,1,.562.559Zm3.563.8v-2.75h1.027a1.73,1.73,0,0,1,1.394.843l.808,1.626a1.16,1.16,0,0,0,.2.281Z" transform="translate(0 -60.039)"/><path class="a" d="M218.2,224.219a1.953,1.953,0,1,0,1.954,1.953A1.953,1.953,0,0,0,218.2,224.219Zm0,2.8a.849.849,0,1,1,.849-.849A.849.849,0,0,1,218.2,227.022Z" transform="translate(-203.996 -214.977)"/></g></g></svg>