<svg xmlns="http://www.w3.org/2000/svg" width="10.528" height="16.544" viewBox="0 0 10.528 16.544"><defs><style>.a{fill:#3ACCE1;}</style></defs><path class="a" d="M10.968,2.488A1.2,1.2,0,0,0,10.034,2H5.316A1.519,1.519,0,0,0,4,3.654V16.889a1.514,1.514,0,0,0,1.309,1.654h7.9a1.519,1.519,0,0,0,1.316-1.654V7.65a1.856,1.856,0,0,0-.388-1.166Zm.27,11.093H9.922v1.654a.76.76,0,0,1-.658.827.76.76,0,0,1-.658-.827V13.581H7.29a.76.76,0,0,1-.658-.827.76.76,0,0,1,.658-.827H8.606V10.272a.76.76,0,0,1,.658-.827.76.76,0,0,1,.658.827v1.654h1.316a.76.76,0,0,1,.658.827A.76.76,0,0,1,11.238,13.581ZM9.922,6.963V3.241l3.619,4.55H10.58A.76.76,0,0,1,9.922,6.963Z" transform="translate(-4 -2)"/></svg>