<svg xmlns="http://www.w3.org/2000/svg" width="24" height="20.5" viewBox="0 0 24 20.5"><defs><style>.a{fill:#3ACCE1;}</style></defs><path class="a" d="M15.5,5.5a2,2,0,1,0-2-2A2.006,2.006,0,0,0,15.5,5.5ZM5,12A5,5,0,0,0,5,22,5,5,0,0,0,5,12Zm0,8.5a3.5,3.5,0,0,1,0-7,3.5,3.5,0,0,1,0,7Zm5.8-10,2.4-2.4.8.8a6.994,6.994,0,0,0,3.96,2.02,1,1,0,0,0,1.14-1,1.017,1.017,0,0,0-.85-.99A5.014,5.014,0,0,1,15.5,7.5L13.6,5.6A2.452,2.452,0,0,0,12,5a1.678,1.678,0,0,0-1.4.6L7.8,8.4a1.974,1.974,0,0,0-.6,1.4,1.678,1.678,0,0,0,.6,1.4L11,14v4a1,1,0,0,0,2,0V13.6a2,2,0,0,0-.55-1.38ZM19,12a5,5,0,1,0,5,5A4.951,4.951,0,0,0,19,12Zm0,8.5A3.5,3.5,0,1,1,22.5,17,3.543,3.543,0,0,1,19,20.5Z" transform="translate(0 -1.5)"/></svg>