<svg xmlns="http://www.w3.org/2000/svg" width="207.464" height="170.824" viewBox="0 0 207.464 170.824"><defs><style>.a{fill:#fff;}</style></defs><path class="a" d="M200.037,116.548l-.489-.454c-.3-.275-.6-.551-.886-.839l-46.6-46.591c-.1-.1-.208-.2-.319-.292a20.873,20.873,0,0,0-7.9-4.138V52.82a5,5,0,0,0-5-5H116.174a5,5,0,0,0-5,5V63.486h-96.4A14.791,14.791,0,0,0,0,78.26v88.515a5,5,0,0,0,5,5H18.06a22.364,22.364,0,0,0,43.6,0h85.7a22.363,22.363,0,0,0,43.6-.03,17.11,17.11,0,0,0,16.506-17.072V133.707A23.622,23.622,0,0,0,200.037,116.548ZM121.175,57.82h12.667v5.666H121.175V57.82ZM39.858,179.144a12.369,12.369,0,1,1,12.369-12.369A12.383,12.383,0,0,1,39.858,179.144ZM65.58,107.433a5,5,0,0,1-5,5H52.466v8.114a5,5,0,0,1-5,5H37.8a5,5,0,0,1-5-5v-8.114H24.686a5,5,0,0,1-5-5V97.767a5,5,0,0,1,5-5H32.8V84.653a5,5,0,0,1,5-5h9.667a5,5,0,0,1,5,5v8.114h8.114a5,5,0,0,1,5,5v9.666Zm60.93,4.864a4.409,4.409,0,0,1-4.4-4.4v-23.6a2.454,2.454,0,0,1,2.453-2.452H140.3a5.784,5.784,0,0,1,4.117,1.705L168.477,107.6a2.749,2.749,0,0,1-1.945,4.693Zm42.642,66.847a12.369,12.369,0,1,1,12.369-12.369A12.383,12.383,0,0,1,169.152,179.144ZM127.508,42.32a5,5,0,0,1-5-5v-14a5,5,0,1,1,10,0v14A5,5,0,0,1,127.508,42.32Zm24.275,4.25a5,5,0,0,1-3.536-8.535l8.821-8.821a5,5,0,0,1,7.071,7.07L155.318,45.1A4.978,4.978,0,0,1,151.783,46.57Zm-46.2,0a4.984,4.984,0,0,1-3.536-1.465l-8.821-8.821a5,5,0,1,1,7.071-7.07l8.821,8.821a5,5,0,0,1-3.535,8.535Z" transform="translate(0 -18.32)"/></svg>