<svg id="emoji_people-24px" xmlns="http://www.w3.org/2000/svg" width="24" height="24" viewBox="0 0 24 24">
  <g id="Group_1369" data-name="Group 1369">
    <rect id="Rectangle_1211" data-name="Rectangle 1211" width="24" height="24" fill="none"/>
    <rect id="Rectangle_1212" data-name="Rectangle 1212" width="24" height="24" fill="none"/>
  </g>
  <g id="Group_1371" data-name="Group 1371">
    <g id="Group_1370" data-name="Group 1370">
      <circle id="Ellipse_139" data-name="Ellipse 139" cx="2" cy="2" r="2" transform="translate(10 2)" fill="#4a4a4a"/>
      <path id="Path_1243" data-name="Path 1243" d="M15.89,8.11A3.1,3.1,0,0,0,13.53,7H10.99A5.023,5.023,0,0,1,6.07,2.85,1,1,0,0,0,5.09,2h0a1,1,0,0,0-1,1.14A7.037,7.037,0,0,0,9,8.71V21a1,1,0,0,0,1,1h0a1,1,0,0,0,1-1V16h2v5a1,1,0,0,0,1,1h0a1,1,0,0,0,1-1V10.05l3.24,3.24a1,1,0,0,0,1.41,0h0a1,1,0,0,0,0-1.41Z" fill="#4a4a4a"/>
    </g>
  </g>
</svg>
