<svg xmlns="http://www.w3.org/2000/svg" width="16.198" height="14.847" viewBox="0 0 16.198 14.847"><defs><style>.a{fill:#4a4a4a;}</style></defs><path class="a" d="M185.111,80h-6.749A2.365,2.365,0,0,0,176,82.362v4.387h6.469l-2.222-2.222a.675.675,0,0,1,.954-.954l3.374,3.374a.675.675,0,0,1,0,.954L181.2,91.275a.675.675,0,0,1-.954-.954l2.222-2.222H176v4.387a2.658,2.658,0,0,0,2.7,2.362h6.411a2.365,2.365,0,0,0,2.362-2.362V82.362A2.365,2.365,0,0,0,185.111,80Z" transform="translate(-171.275 -80)"/><path class="a" d="M64.675,240a.675.675,0,1,0,0,1.35h4.049V240Z" transform="translate(-64 -233.251)"/></svg>