<svg xmlns="http://www.w3.org/2000/svg" width="17.546" height="14.847" viewBox="0 0 17.546 14.847"><defs><style>.a{fill:#4a4a4a;}</style></defs><path class="a" d="M52.724,87.424a.675.675,0,0,1,.675-.675h6.074V82.362A2.66,2.66,0,0,0,56.774,80H50.362A2.365,2.365,0,0,0,48,82.362V92.485a2.365,2.365,0,0,0,2.362,2.362h6.749a2.365,2.365,0,0,0,2.362-2.362V88.1H53.4A.675.675,0,0,1,52.724,87.424Z" transform="translate(-48 -80)"/><path class="a" d="M325.876,163.85l-3.374-3.374a.675.675,0,0,0-.954.954l2.222,2.222H320V165h3.77l-2.222,2.222a.675.675,0,1,0,.954.954l3.374-3.374A.675.675,0,0,0,325.876,163.85Z" transform="translate(-308.527 -156.903)"/></svg>