<svg xmlns="http://www.w3.org/2000/svg" width="19.248" height="18.999" viewBox="0 0 19.248 18.999"><defs><style>.a{fill:#3ACCE1;}</style></defs><path class="a" d="M5.35,5.64a2,2,0,1,1,2.79-.49,2.013,2.013,0,0,1-2.79.49ZM16,20a1,1,0,0,0-1-1H8.93a2.991,2.991,0,0,1-2.96-2.54L4.16,7.78a.981.981,0,0,0-1.92.4l1.75,8.58A5.01,5.01,0,0,0,8.94,21H15A1,1,0,0,0,16,20Zm-.46-5H11.35l-1.03-4.1a8.645,8.645,0,0,0,4.1,1.3,1.061,1.061,0,0,0,1.05-1.07,1.084,1.084,0,0,0-1.08-1.06,6.323,6.323,0,0,1-3.61-1.33L9.14,7.47a2.262,2.262,0,0,0-.76-.38,2.209,2.209,0,0,0-.99-.06H7.37A2.268,2.268,0,0,0,5.53,9.64l1.35,5.92A3.008,3.008,0,0,0,9.83,18h6.85l3.09,2.42a1.047,1.047,0,1,0,1.29-1.65l-4.29-3.35A2.01,2.01,0,0,0,15.54,15Z" transform="translate(-2.221 -2.001)"/></svg>