<svg xmlns="http://www.w3.org/2000/svg" width="13.683" height="20.582" viewBox="0 0 13.683 20.582"><defs><style>.a{fill:#fff;}</style></defs><g transform="translate(-12.22)"><path class="a" d="M-1130.48-492.789c.1,1.76-.512,3.5.408,5.236,1.1,2.077,2.106,4.21,3.1,6.341a1.935,1.935,0,0,1,.1,1.236.913.913,0,0,1-.783.455,1.639,1.639,0,0,1-.995-.681c-1-1.9-1.935-3.831-2.891-5.752l-.714-1.438a28.063,28.063,0,0,0-2.374,2.912,5.375,5.375,0,0,0-.362,2.042c-.079.589-.121,1.184-.19,1.775-.092.786-.557,1.243-1.173,1.168-.6-.073-.917-.532-.835-1.343.138-1.364.3-2.725.509-4.081a2.12,2.12,0,0,1,.458-.877,6.61,6.61,0,0,1,1.114-1.292c1.744-1.354,1.221-3.07.9-4.659-1.479.7-2.952,1.413-4.433,2.1-.776.362-1.357.228-1.617-.33-.279-.6,0-1.128.8-1.508a2.7,2.7,0,0,1,.28-.134,11.381,11.381,0,0,0,5.3-3.76,1.4,1.4,0,0,1,1.919-.393c1.267.585,2.56,1.113,3.849,1.652a1.344,1.344,0,0,1,.926,1.128c.127.894.337,1.777.49,2.668a1,1,0,0,1-.818,1.273.984.984,0,0,1-1.157-.888,9.171,9.171,0,0,1-.26-1.369C-1128.965-492.238-1129.443-492.684-1130.48-492.789Z" transform="translate(1152.578 500.069)"/><path class="a" d="M-1100.037-520.493a1.856,1.856,0,0,1-1.833,1.83,1.867,1.867,0,0,1-1.788-1.8,1.811,1.811,0,0,1,1.839-1.8A1.787,1.787,0,0,1-1100.037-520.493Z" transform="translate(1121.587 522.266)"/></g></svg>