<svg id="assignment_late-24px" xmlns="http://www.w3.org/2000/svg" width="23.896" height="23.896" viewBox="0 0 23.896 23.896">
  <path id="Path_1352" data-name="Path 1352" d="M0,0H23.9V23.9H0Z" fill="none"/>
  <path id="Path_1353" data-name="Path 1353" d="M15.745,2.752h-3.33A2.426,2.426,0,0,0,10.169,1,2.426,2.426,0,0,0,7.923,2.752H4.593A1.683,1.683,0,0,0,3,4.5V16.772a1.683,1.683,0,0,0,1.593,1.752H15.745a1.683,1.683,0,0,0,1.593-1.752V4.5A1.683,1.683,0,0,0,15.745,2.752ZM10.965,15.9H9.372V14.143h1.593Zm0-4.381a.8.8,0,1,1-1.593,0V8.01a.8.8,0,1,1,1.593,0Zm-.8-7.01a.842.842,0,0,1-.8-.876.8.8,0,1,1,1.593,0A.842.842,0,0,1,10.169,4.5Z" transform="translate(1.779 0.593)" fill="#4a4a4a"/>
</svg>
