<svg xmlns="http://www.w3.org/2000/svg" width="19.351" height="14.954" viewBox="0 0 19.351 14.954"><defs><style>.a{fill:#fff;}</style></defs><path class="a" d="M104.7,113.753a2.78,2.78,0,0,0-1.906.638v.313h3.813v-.317A2.806,2.806,0,0,0,104.7,113.753ZM115.48,115h-4.838a.66.66,0,0,0,0,1.32h4.838a.66.66,0,0,0,0-1.32Zm0-2.2h-4.838a.66.66,0,0,0,0,1.32h4.838a.66.66,0,0,0,0-1.32Zm0-2.2h-4.838a.66.66,0,0,0,0,1.32h4.838a.66.66,0,0,0,0-1.32Zm-4.838,1.32h4.838a.66.66,0,0,0,0-1.32h-4.838a.66.66,0,0,0,0,1.32Zm4.838.879h-4.838a.66.66,0,0,0,0,1.32h4.838a.66.66,0,0,0,0-1.32Zm0,2.2h-4.838a.66.66,0,0,0,0,1.32h4.838a.66.66,0,0,0,0-1.32ZM104.7,113.753a2.78,2.78,0,0,0-1.906.638v.313h3.813v-.317A2.806,2.806,0,0,0,104.7,113.753Zm12.314-7.992H101.187a1.765,1.765,0,0,0-1.76,1.76v11.434a1.765,1.765,0,0,0,1.76,1.76h15.832a1.766,1.766,0,0,0,1.76-1.76V107.521A1.765,1.765,0,0,0,117.019,105.761Zm-9.773,9.26a.318.318,0,0,1-.317.317h-4.447a.319.319,0,0,1-.318-.317v-.635c0-.845,1.694-1.271,2.541-1.271s2.541.426,2.541,1.271Zm-3.812-3.495A1.27,1.27,0,1,1,104.7,112.8h0A1.271,1.271,0,0,1,103.434,111.526Zm13.585,6.549a.879.879,0,0,1-.879.879H109.1V107.521h7.037a.879.879,0,0,1,.879.879ZM115.48,110.6h-4.838a.66.66,0,0,0,0,1.32h4.838a.66.66,0,0,0,0-1.32Zm0,2.2h-4.838a.66.66,0,0,0,0,1.32h4.838a.66.66,0,0,0,0-1.32Zm0,2.2h-4.838a.66.66,0,0,0,0,1.32h4.838a.66.66,0,0,0,0-1.32ZM104.7,113.753a2.78,2.78,0,0,0-1.906.638v.313h3.813v-.317A2.806,2.806,0,0,0,104.7,113.753Zm.635-2.226a.635.635,0,1,0-.635.635A.634.634,0,0,0,105.34,111.526ZM115.48,115h-4.838a.66.66,0,0,0,0,1.32h4.838a.66.66,0,0,0,0-1.32Zm0-2.2h-4.838a.66.66,0,0,0,0,1.32h4.838a.66.66,0,0,0,0-1.32Zm0-2.2h-4.838a.66.66,0,0,0,0,1.32h4.838a.66.66,0,0,0,0-1.32Zm0,0h-4.838a.66.66,0,0,0,0,1.32h4.838a.66.66,0,0,0,0-1.32Zm0,2.2h-4.838a.66.66,0,0,0,0,1.32h4.838a.66.66,0,0,0,0-1.32Zm0,2.2h-4.838a.66.66,0,0,0,0,1.32h4.838a.66.66,0,0,0,0-1.32Z" transform="translate(-99.427 -105.761)"/></svg>