<svg xmlns="http://www.w3.org/2000/svg" width="16.785" height="20.015" viewBox="0 0 16.785 20.015"><defs><style>.a{fill:#fff;}</style></defs><g transform="translate(-34.893)"><g transform="translate(34.893)"><path class="a" d="M237.156,274.178c-1.894-.728-2.441-.947-2.623-.983a.218.218,0,0,0-.146.037l-1.712,1.165a.19.19,0,0,0-.072.146.22.22,0,0,0,.036.146l.874.874-.983.983a.176.176,0,0,0,0,.255l.874,1.129-1.2,2.4a.166.166,0,0,0,0,.182.277.277,0,0,0,.146.073h7.285a.172.172,0,0,0,.182-.182C239.888,279.569,240.143,275.344,237.156,274.178Z" transform="translate(-223.068 -260.574)"/><path class="a" d="M41.342,277.143l.874-1.129c.073-.072.036-.182,0-.255l-.983-.983.874-.874c.036-.036.073-.109.036-.145a.275.275,0,0,0-.073-.146l-1.712-1.166a.219.219,0,0,0-.146-.036c-.146.036-.692.255-2.622.984-2.987,1.2-2.732,5.427-2.659,6.265a.172.172,0,0,0,.182.182H42.4a.19.19,0,0,0,.146-.072.163.163,0,0,0,0-.182Z" transform="translate(-34.893 -259.824)"/><path class="a" d="M192.063,299.939l-.983-1.238.947-.947c.036-.036.036-.073.036-.145s-.036-.109-.036-.146l-1.056-1.056a.176.176,0,0,0-.255,0l-1.057,1.056a.176.176,0,0,0,0,.255l.947.947-.983,1.239a.272.272,0,0,0-.036.182l1.093,2.4a.206.206,0,0,0,.364,0l1.092-2.4A.226.226,0,0,0,192.063,299.939Z" transform="translate(-182.432 -282.657)"/><path class="a" d="M140.711,124.055a9.355,9.355,0,0,0-7.576,0c-.037.036-.073.073-.073.109a.219.219,0,0,0,.036.146c.8,1.238,2.95,1.275,3.387,1.275h.947c.437,0,2.586-.073,3.388-1.275a.22.22,0,0,0,.036-.146C140.784,124.128,140.748,124.055,140.711,124.055Z" transform="translate(-128.53 -117.553)"/><path class="a" d="M127.829,160.793h0a4.442,4.442,0,0,0,4.384-4.444v-.291c0-.073-.036-.146-.109-.146a.158.158,0,0,0-.181.036,5.471,5.471,0,0,1-3.551,1.166h-.978a5.268,5.268,0,0,1-3.551-1.166.158.158,0,0,0-.181-.036c-.073.036-.109.073-.109.146v.291A4.282,4.282,0,0,0,127.829,160.793Z" transform="translate(-119.436 -148.69)"/><path class="a" d="M94.685,5.027a.239.239,0,0,0,.218.036,10.7,10.7,0,0,1,8.96,0,.127.127,0,0,1,.073.036.133.133,0,0,0,.109-.036c.435-.4.762-.692.871-.8a.225.225,0,0,0,.036-.255.506.506,0,0,1-.109-.146,1.91,1.91,0,0,1-.544-.947l-.073-.255c-.073-.656-.109-.911-.762-.983h-.181a4.526,4.526,0,0,1-2.648-.947C99.908.073,99.619,0,99.4,0s-.508.073-1.233.728a4.526,4.526,0,0,1-2.648.947h-.181c-.653.073-.726.328-.834.947l-.073.255a2.1,2.1,0,0,1-.544.947c-.036.036-.072.109-.109.146a.18.18,0,0,0,.036.255C93.96,4.334,94.25,4.626,94.685,5.027Z" transform="translate(-91.008 0)"/><path class="a" d="M131.37,98.91a.5.5,0,0,0,.109-.146l.073-.364c0-.073-.036-.182-.109-.182a11.938,11.938,0,0,0-4.239-.874,11.734,11.734,0,0,0-4.239.874.2.2,0,0,0-.109.182l.072.364c0,.073.036.109.109.146.036,0,.036.036.072.036s.072,0,.072-.036a9.474,9.474,0,0,1,4.058-.8,9.589,9.589,0,0,1,4.058.8Z" transform="translate(-118.775 -92.841)"/></g></g></svg>