<svg xmlns="http://www.w3.org/2000/svg" width="15" height="15" viewBox="0 0 15 15"><defs><style>.a{fill:#4a4a4a;}</style></defs><g transform="translate(0)"><path class="a" d="M46.976,34.657a.536.536,0,0,0-.44-.494,23.443,23.443,0,0,1-6.808-2.116.536.536,0,0,0-.441,0,23.443,23.443,0,0,1-6.808,2.116.536.536,0,0,0-.44.494,13.152,13.152,0,0,0,.818,5.666,11.7,11.7,0,0,0,2.4,3.767,12.244,12.244,0,0,0,4.054,2.87.536.536,0,0,0,.4,0,12.244,12.244,0,0,0,4.054-2.87,11.7,11.7,0,0,0,2.394-3.767A13.152,13.152,0,0,0,46.976,34.657ZM42.59,37.172l-3.71,4.286a.536.536,0,0,1-.382.185h-.022a.536.536,0,0,1-.375-.153l-1.647-1.614a.536.536,0,1,1,.75-.765l1.239,1.215,3.338-3.855a.536.536,0,0,1,.81.7Z" transform="translate(-32.008 -32)"/></g></svg>