<svg xmlns="http://www.w3.org/2000/svg" width="16" height="20.59" viewBox="0 0 16 20.59"><defs><style>.a{fill:#3acce1;}</style></defs><path class="a" d="M12,6V7.79a.5.5,0,0,0,.85.35l2.79-2.79a.5.5,0,0,0,0-.71L12.85,1.85a.5.5,0,0,0-.85.36V4a8,8,0,0,0-8,8,7.828,7.828,0,0,0,.57,2.95,1,1,0,0,0,1.64.34.961.961,0,0,0,.23-1.04A5.823,5.823,0,0,1,6,12,6,6,0,0,1,12,6Zm5.79,2.71a.965.965,0,0,0-.23,1.04A6,6,0,0,1,12,18V16.21a.5.5,0,0,0-.85-.35L8.36,18.65a.5.5,0,0,0,0,.71l2.79,2.79A.5.5,0,0,0,12,21.8V20a8,8,0,0,0,8-8,7.828,7.828,0,0,0-.57-2.95,1,1,0,0,0-1.64-.34Z" transform="translate(-4 -1.705)"/></svg>