<svg xmlns="http://www.w3.org/2000/svg" width="22.972" height="15.902" viewBox="0 0 22.972 15.902"><defs><style>.a{fill:#665eff;}</style></defs><path class="a" d="M333.837,222.636q4.067,0,8.134,0a3.091,3.091,0,0,1,3.328,3.253q.039,4.691,0,9.382a3.05,3.05,0,0,1-2.382,3.161,4.055,4.055,0,0,1-.98.1q-8.113.008-16.226,0a3.107,3.107,0,0,1-3.231-2.253,3.947,3.947,0,0,1-.129-1.1q-.014-4.605,0-9.21a3.137,3.137,0,0,1,3.353-3.329Q329.77,222.63,333.837,222.636Zm-.067,14.649q4.13,0,8.261,0a1.864,1.864,0,0,0,2.026-2.033c0-3.112-.028-6.224.015-9.336a1.966,1.966,0,0,0-2.046-2.046q-8.217.007-16.435.006a1.884,1.884,0,0,0-2,2c-.011,3.126,0,6.253-.007,9.379a1.978,1.978,0,0,0,2.057,2.042C328.35,237.257,331.06,237.284,333.771,237.284Z" transform="translate(-322.347 -222.634)"/><path class="a" d="M349.349,296.148c-.8,0-1.6-.007-2.407,0-.345,0-.5-.129-.486-.483.016-.487-.007-.974.008-1.461a1.836,1.836,0,0,1,1.865-1.845q1.053-.019,2.106,0a1.847,1.847,0,0,1,1.857,1.768c.032.514,0,1.031.012,1.547.009.362-.174.476-.505.473C350.982,296.143,350.166,296.148,349.349,296.148Zm-2.237-.654h4.539a12.669,12.669,0,0,0-.01-1.424,1.164,1.164,0,0,0-1.18-1.092c-.73-.031-1.464-.03-2.194,0a1.126,1.126,0,0,0-1.14.986A10.189,10.189,0,0,0,347.112,295.494Z" transform="translate(-343.688 -284.351)"/><path class="a" d="M357.968,262.1a1.786,1.786,0,0,1-1.811-1.794,1.811,1.811,0,0,1,1.8-1.8,1.841,1.841,0,0,1,1.819,1.8A1.819,1.819,0,0,1,357.968,262.1Zm.016-2.974a1.165,1.165,0,0,0-1.211,1.172,1.195,1.195,0,0,0,2.389,0A1.191,1.191,0,0,0,357.983,259.126Z" transform="translate(-352.276 -254.384)"/><path class="a" d="M436.588,258.295h3.178a.813.813,0,0,1,.339.011,2.792,2.792,0,0,1,.421.322c-.136.1-.265.269-.409.284a11.942,11.942,0,0,1-1.2.016h-5.5c-.114,0-.251.038-.338-.011a2.14,2.14,0,0,1-.368-.325c.118-.1.223-.243.358-.283a2.038,2.038,0,0,1,.555-.016h2.963Z" transform="translate(-420.044 -254.19)"/><path class="a" d="M436.779,244.727h-3.307c-.114,0-.253.033-.337-.019a.559.559,0,0,1-.262-.321c-.012-.079.147-.214.256-.271a.794.794,0,0,1,.338-.021h6.7c.242,0,.519.025.477.33-.017.12-.3.285-.472.289C439.042,244.739,437.91,244.727,436.779,244.727Z" transform="translate(-420.186 -241.625)"/><path class="a" d="M435.243,273.269h-2.02c-.226,0-.46-.014-.471-.309s.224-.324.451-.324q2.041,0,4.082,0c.23,0,.463.033.452.326s-.247.308-.475.308h-2.02Z" transform="translate(-420.079 -266.896)"/></svg>