<svg xmlns="http://www.w3.org/2000/svg" width="19.478" height="15.15" viewBox="0 0 19.478 15.15"><defs><style>.a{fill:#3ACCE1;}</style></defs><path class="a" d="M20.227,4.956A1.616,1.616,0,0,0,18.691,4H6.787a1.627,1.627,0,0,0-1.537.956L3.119,10.325A1.745,1.745,0,0,0,3,10.95v6.78a1.53,1.53,0,0,0,1.623,1.42,1.53,1.53,0,0,0,1.623-1.42v-.473H19.232v.473a1.638,1.638,0,0,0,3.246,0V10.95a1.785,1.785,0,0,0-.119-.625ZM6.787,14.415A1.53,1.53,0,0,1,5.164,13a1.53,1.53,0,0,1,1.623-1.42A1.53,1.53,0,0,1,8.411,13,1.53,1.53,0,0,1,6.787,14.415Zm11.9,0A1.53,1.53,0,0,1,17.068,13a1.53,1.53,0,0,1,1.623-1.42A1.53,1.53,0,0,1,20.314,13,1.53,1.53,0,0,1,18.691,14.415ZM5.164,9.681,6.539,6.064A1.1,1.1,0,0,1,7.567,5.42H17.912a1.1,1.1,0,0,1,1.028.644l1.374,3.617Z" transform="translate(-3 -4)"/></svg>