<svg id="road-conditions" xmlns="http://www.w3.org/2000/svg" width="24" height="29" viewBox="0 0 24 29">
  <g id="traffic-24px">
    <path id="Path_3520" data-name="Path 3520" d="M0,0H24V24H0Z" fill="none"/>
    <path id="Path_3521" data-name="Path 3521" d="M19.96,10.59a.514.514,0,0,0-.5-.59H17V8.86a4.01,4.01,0,0,0,2.96-3.27.514.514,0,0,0-.5-.59H17V4a1,1,0,0,0-1-1H8A1,1,0,0,0,7,4V5H4.54a.514.514,0,0,0-.5.59A4.01,4.01,0,0,0,7,8.86V10H4.54a.514.514,0,0,0-.5.59A4.01,4.01,0,0,0,7,13.86V15H4.54a.514.514,0,0,0-.5.59A4.01,4.01,0,0,0,7,18.86V20a1,1,0,0,0,1,1h8a1,1,0,0,0,1-1V18.86a4.01,4.01,0,0,0,2.96-3.27.514.514,0,0,0-.5-.59H17V13.86A4.01,4.01,0,0,0,19.96,10.59ZM12,19a2,2,0,1,1,2-2A2,2,0,0,1,12,19Zm0-5a2,2,0,1,1,2-2A2,2,0,0,1,12,14Zm0-5a2,2,0,1,1,2-2A2,2,0,0,1,12,9Z" fill="#4a4a4a"/>
  </g>
  <rect id="Rectangle_1415" data-name="Rectangle 1415" width="4" height="10" transform="translate(10 19)" fill="#4a4a4a"/>
</svg>
