<svg xmlns="http://www.w3.org/2000/svg" width="15.929" height="26" viewBox="0 0 15.929 26"><defs><style>.a{fill:#3ACCE1;}</style></defs><g transform="translate(-4.035 -3)"><path class="a" d="M19.96,10.59a.514.514,0,0,0-.5-.59H17V8.86a4.01,4.01,0,0,0,2.96-3.27.514.514,0,0,0-.5-.59H17V4a1,1,0,0,0-1-1H8A1,1,0,0,0,7,4V5H4.54a.514.514,0,0,0-.5.59A4.01,4.01,0,0,0,7,8.86V10H4.54a.514.514,0,0,0-.5.59A4.01,4.01,0,0,0,7,13.86V15H4.54a.514.514,0,0,0-.5.59A4.01,4.01,0,0,0,7,18.86V20a1,1,0,0,0,1,1h8a1,1,0,0,0,1-1V18.86a4.01,4.01,0,0,0,2.96-3.27.514.514,0,0,0-.5-.59H17V13.86A4.01,4.01,0,0,0,19.96,10.59ZM12,19a2,2,0,1,1,2-2A2,2,0,0,1,12,19Zm0-5a2,2,0,1,1,2-2A2,2,0,0,1,12,14Zm0-5a2,2,0,1,1,2-2A2,2,0,0,1,12,9Z"/><rect class="a" width="4" height="10" transform="translate(10 19)"/></g></svg>