<svg xmlns="http://www.w3.org/2000/svg" width="19.286" height="15" viewBox="0 0 19.286 15"><defs><style>.a{fill:#fff;}</style></defs><path class="a" d="M20.057,4.947A1.6,1.6,0,0,0,18.536,4H6.75a1.611,1.611,0,0,0-1.521.947L3.118,10.262A1.728,1.728,0,0,0,3,10.881v6.712A1.515,1.515,0,0,0,4.607,19a1.515,1.515,0,0,0,1.607-1.406v-.469H19.071v.469a1.621,1.621,0,0,0,3.214,0V10.881a1.767,1.767,0,0,0-.118-.619ZM6.75,14.313a1.515,1.515,0,0,1-1.607-1.406A1.515,1.515,0,0,1,6.75,11.5a1.515,1.515,0,0,1,1.607,1.406A1.515,1.515,0,0,1,6.75,14.313Zm11.786,0a1.515,1.515,0,0,1-1.607-1.406A1.515,1.515,0,0,1,18.536,11.5a1.515,1.515,0,0,1,1.607,1.406A1.515,1.515,0,0,1,18.536,14.313ZM5.143,9.625,6.5,6.044a1.085,1.085,0,0,1,1.018-.638H17.764a1.085,1.085,0,0,1,1.018.638l1.361,3.581Z" transform="translate(-3 -4)"/></svg>