<svg xmlns="http://www.w3.org/2000/svg" width="13" height="13" viewBox="0 0 13 13"><path d="M3,4.444V6.611a.722.722,0,0,0,1.444,0V5.167a.724.724,0,0,1,.722-.722H6.611A.722.722,0,0,0,6.611,3H4.444A1.449,1.449,0,0,0,3,4.444Zm.722,7.222A.724.724,0,0,0,3,12.389v2.167A1.449,1.449,0,0,0,4.444,16H6.611a.722.722,0,0,0,0-1.444H5.167a.724.724,0,0,1-.722-.722V12.389A.724.724,0,0,0,3.722,11.667Zm10.833,2.167a.724.724,0,0,1-.722.722H12.389a.722.722,0,1,0,0,1.444h2.167A1.449,1.449,0,0,0,16,14.556V12.389a.722.722,0,1,0-1.444,0ZM14.556,3H12.389a.722.722,0,0,0,0,1.444h1.444a.724.724,0,0,1,.722.722V6.611a.722.722,0,0,0,1.444,0V4.444A1.449,1.449,0,0,0,14.556,3Z" transform="translate(-3 -3)" fill="#4a4a4a"/></svg>