<svg xmlns="http://www.w3.org/2000/svg" width="18" height="18" viewBox="0 0 18 18"><defs><style>.a{fill:#fff;}</style></defs><path class="a" d="M3,5V8A1,1,0,0,0,5,8V6A1,1,0,0,1,6,5H8A1,1,0,0,0,8,3H5A2.006,2.006,0,0,0,3,5ZM4,15a1,1,0,0,0-1,1v3a2.006,2.006,0,0,0,2,2H8a1,1,0,0,0,0-2H6a1,1,0,0,1-1-1V16A1,1,0,0,0,4,15Zm15,3a1,1,0,0,1-1,1H16a1,1,0,0,0,0,2h3a2.006,2.006,0,0,0,2-2V16a1,1,0,0,0-2,0ZM19,3H16a1,1,0,0,0,0,2h2a1,1,0,0,1,1,1V8a1,1,0,0,0,2,0V5A2.006,2.006,0,0,0,19,3Z" transform="translate(-3 -3)"/></svg>