<svg xmlns="http://www.w3.org/2000/svg" width="36" height="64" viewBox="0 0 36 64">
  <g id="Group_3048" data-name="Group 3048" transform="translate(-0.052 0.12)">
    <rect id="Rectangle_1688" data-name="Rectangle 1688" width="36" height="64" rx="5" transform="translate(0.052 -0.12)" fill="#4d4d4d"/>
    <rect id="Rectangle_1691" data-name="Rectangle 1691" width="34" height="62" rx="6" transform="translate(1.052 0.88)" fill="#c5cfd6"/>
    <g id="Group_3047" data-name="Group 3047" transform="translate(4.195 21.812)">
      <g id="Group_3043" data-name="Group 3043" transform="translate(0 0)">
        <rect id="Rectangle_1689" data-name="Rectangle 1689" width="1" height="8" transform="translate(-0.143 0.067)" fill="#2b44ff"/>
        <rect id="Rectangle_1690" data-name="Rectangle 1690" width="9" height="1" transform="translate(-0.143 0.067)" fill="#2b44ff"/>
      </g>
      <g id="Group_3046" data-name="Group 3046" transform="translate(27.685 25.168) rotate(180)">
        <rect id="Rectangle_1689-2" data-name="Rectangle 1689" width="1" height="8" transform="translate(-0.172 0.101)" fill="#2b44ff"/>
        <rect id="Rectangle_1690-2" data-name="Rectangle 1690" width="8" height="1" transform="translate(0.828 0.101)" fill="#2b44ff"/>
      </g>
      <g id="Group_3044" data-name="Group 3044" transform="translate(19.296 0)">
        <rect id="Rectangle_1689-3" data-name="Rectangle 1689" width="1" height="8" transform="translate(7.561 0.067)" fill="#2b44ff"/>
        <rect id="Rectangle_1690-3" data-name="Rectangle 1690" width="9" height="1" transform="translate(-0.439 0.067)" fill="#2b44ff"/>
      </g>
      <g id="Group_3045" data-name="Group 3045" transform="translate(8.389 25.168) rotate(180)">
        <rect id="Rectangle_1689-4" data-name="Rectangle 1689" width="1" height="8" transform="translate(7.532 0.101)" fill="#2b44ff"/>
        <rect id="Rectangle_1690-4" data-name="Rectangle 1690" width="9" height="1" transform="translate(-0.468 0.101)" fill="#2b44ff"/>
      </g>
    </g>
    <g id="smart-id" transform="translate(7.239 25.421)">
      <path id="Path_3523" data-name="Path 3523" d="M105.374,114.706a3.146,3.146,0,0,0-2.148.715v.35h4.3v-.355A3.176,3.176,0,0,0,105.374,114.706Zm12.142,1.393h-5.452a.739.739,0,1,0,0,1.477h5.452a.739.739,0,1,0,0-1.477Zm0-2.461h-5.452a.739.739,0,1,0,0,1.477h5.452a.739.739,0,1,0,0-1.477Zm0-2.461h-5.452a.739.739,0,1,0,0,1.477h5.452a.739.739,0,1,0,0-1.477Zm-5.452,1.477h5.452a.739.739,0,1,0,0-1.477h-5.452a.739.739,0,1,0,0,1.477Zm5.452.984h-5.452a.739.739,0,1,0,0,1.477h5.452a.739.739,0,1,0,0-1.477Zm0,2.461h-5.452a.739.739,0,1,0,0,1.477h5.452a.739.739,0,1,0,0-1.477Zm-12.142-1.393a3.146,3.146,0,0,0-2.148.715v.35h4.3v-.355A3.176,3.176,0,0,0,105.374,114.706Zm13.876-8.945H101.41a1.982,1.982,0,0,0-1.983,1.97v12.8a1.983,1.983,0,0,0,1.983,1.97h17.84a1.984,1.984,0,0,0,1.983-1.97v-12.8A1.983,1.983,0,0,0,119.249,105.761Zm-11.013,10.365a.357.357,0,0,1-.357.355h-5.011a.359.359,0,0,1-.359-.355v-.711c0-.946,1.909-1.422,2.863-1.422s2.863.476,2.863,1.422Zm-4.3-3.912a1.431,1.431,0,1,1,1.432,1.423h0A1.427,1.427,0,0,1,103.942,112.215Zm15.308,7.331a.987.987,0,0,1-.991.984h-7.929v-12.8h7.929a.987.987,0,0,1,.991.984Zm-1.734-8.369h-5.452a.739.739,0,1,0,0,1.477h5.452a.739.739,0,1,0,0-1.477Zm0,2.461h-5.452a.739.739,0,1,0,0,1.477h5.452a.739.739,0,1,0,0-1.477Zm0,2.461h-5.452a.739.739,0,1,0,0,1.477h5.452a.739.739,0,1,0,0-1.477Zm-12.142-1.393a3.146,3.146,0,0,0-2.148.715v.35h4.3v-.355A3.176,3.176,0,0,0,105.374,114.706Zm.716-2.492a.715.715,0,1,0-.716.711A.712.712,0,0,0,106.089,112.215Zm11.426,3.885h-5.452a.739.739,0,1,0,0,1.477h5.452a.739.739,0,1,0,0-1.477Zm0-2.461h-5.452a.739.739,0,1,0,0,1.477h5.452a.739.739,0,1,0,0-1.477Zm0-2.461h-5.452a.739.739,0,1,0,0,1.477h5.452a.739.739,0,1,0,0-1.477Zm0,0h-5.452a.739.739,0,1,0,0,1.477h5.452a.739.739,0,1,0,0-1.477Zm0,2.461h-5.452a.739.739,0,1,0,0,1.477h5.452a.739.739,0,1,0,0-1.477Zm0,2.461h-5.452a.739.739,0,1,0,0,1.477h5.452a.739.739,0,1,0,0-1.477Z" transform="translate(-99.427 -105.761)"/>
    </g>
  </g>
</svg>
