<svg xmlns="http://www.w3.org/2000/svg" width="23" height="21" viewBox="0 0 23 21"><defs><style>.a{fill:#fff;}</style></defs><g transform="translate(0 -1)"><path class="a" d="M3,8A1,1,0,0,0,5,8V6H7A1,1,0,0,0,7,4H5V2A1,1,0,0,0,3,2V4H1A1,1,0,0,0,1,6H3Z"/><path class="a" d="M21,6H17.83L16.59,4.65A1.991,1.991,0,0,0,15.12,4H8.72A1.984,1.984,0,0,1,7,7H6V8A1.984,1.984,0,0,1,3,9.72V20a2.006,2.006,0,0,0,2,2H21a2.006,2.006,0,0,0,2-2V8A2.006,2.006,0,0,0,21,6ZM13,19a5,5,0,1,1,5-5A5,5,0,0,1,13,19Z"/></g></svg>