<svg xmlns="http://www.w3.org/2000/svg" width="15" height="15" viewBox="0 0 15 15"><path d="M0,0H15V15H0Z" fill="none"/><ellipse cx="1.667" cy="2.083" rx="1.667" ry="2.083" transform="translate(6.667 6.667)" fill="#4a4a4a"/><path d="M1.875,5.375a.625.625,0,0,0,1.25,0V4.125h1.25a.625.625,0,0,0,0-1.25H3.125V1.625a.625.625,0,0,0-1.25,0v1.25H.625a.625.625,0,0,0,0,1.25h1.25Z" transform="translate(0 -0.375)" fill="#4a4a4a"/><path d="M14.25,5.25H12.269l-.775-.844A1.244,1.244,0,0,0,10.575,4h-4A1.24,1.24,0,0,1,5.5,5.875H4.875V6.5A1.24,1.24,0,0,1,3,7.575V14a1.254,1.254,0,0,0,1.25,1.25h10A1.254,1.254,0,0,0,15.5,14V6.5A1.254,1.254,0,0,0,14.25,5.25Zm-5,8.125a3.125,3.125,0,1,1,3.125-3.125A3.126,3.126,0,0,1,9.25,13.375Z" transform="translate(-1.125 -1.5)" fill="#4a4a4a"/></svg>