<svg id="task_alt_black_48dp" xmlns="http://www.w3.org/2000/svg" width="139" height="139" viewBox="0 0 139 139">
  <rect id="Rectangle_1697" data-name="Rectangle 1697" width="139" height="139" fill="none"/>
  <path id="Path_4467" data-name="Path 4467" d="M113.711,24.512,55.794,82.429a5.768,5.768,0,0,1-8.166,0l-16.39-16.39a5.768,5.768,0,0,1,0-8.166h0a5.768,5.768,0,0,1,8.166,0L51.682,70.15l53.8-53.8a5.768,5.768,0,0,1,8.166,0h0A5.717,5.717,0,0,1,113.711,24.512ZM81.741,6.268A57.918,57.918,0,1,0,67.667,117.294c22.935-2.954,42.163-20.039,48.187-42.337a56.013,56.013,0,0,0,1.216-24.441,5.826,5.826,0,0,0-9.846-3.128h0a5.829,5.829,0,0,0-1.564,5.155,43.547,43.547,0,0,1-3.012,24.672C95.93,92.911,81.335,104.437,64.366,106a46.349,46.349,0,1,1,16.68-87.338,5.8,5.8,0,0,0,6.776-1.042h0a5.809,5.809,0,0,0-1.39-9.267C84.868,7.658,83.3,6.905,81.741,6.268Z" transform="translate(9.594 9.601)" fill="#4a4a4a"/>
</svg>
