<svg xmlns="http://www.w3.org/2000/svg" width="25.174" height="25.034" viewBox="0 0 25.174 25.034"><defs><style>.a{fill:#fff;}</style></defs><path class="a" d="M-852.634-217.071l.549-.386c-.155-.443-.38-.6-.777-.426-.335.144-.482.028-.609-.245a9.055,9.055,0,0,1-.423-.906,1.384,1.384,0,0,1,.686-1.777c.328-.188.673-.345,1-.536.252-.148.37-.1.487.176a3,3,0,0,0,2.085,1.761,3.108,3.108,0,0,0,4.007-3.226,5.694,5.694,0,0,0-.527-1.674c-.1-.239-.165-.359.112-.514,2.194-1.221,4.38-2.457,6.569-3.686.022-.012.056,0,.164,0a3.164,3.164,0,0,0,2.618,2.157,2.988,2.988,0,0,0,2.167-.468,3.123,3.123,0,0,0,1.438-2.24,3.392,3.392,0,0,0-.749-2.61c.615-.329,1.168-.672,1.761-.917a.963.963,0,0,1,.734.173,4.1,4.1,0,0,1,1.9,3.522,1.713,1.713,0,0,0,.079.635,4.606,4.606,0,0,1,.324,2.56,15.82,15.82,0,0,1-.441,2.394,2.657,2.657,0,0,1-.828,1.287,29.946,29.946,0,0,1-7.621,4.421,14.649,14.649,0,0,1-7.157.825,7.168,7.168,0,0,0-2.342.4,7.142,7.142,0,0,1-4.2-.111A8.822,8.822,0,0,1-852.634-217.071Zm7.541-1.638-.016.152a5.257,5.257,0,0,0,.566.246,9.419,9.419,0,0,0,4.734.126,15.245,15.245,0,0,0,4.1-1.425c.482-.256.536-.45.244-.9q-.547-.839-1.129-1.656c-.377-.527-.591-.572-1.178-.276q-3.48,1.755-6.956,3.516C-844.855-218.861-844.972-218.781-845.093-218.709Zm14.508-6.874c.034-.512-.165-.667-.53-.472-1.563.835-3.116,1.688-4.669,2.542a.374.374,0,0,0-.142.615c.443.646.865,1.307,1.308,1.953.247.36.45.378.782.067.594-.556,1.2-1.1,1.756-1.7A5.235,5.235,0,0,0-830.585-225.583Zm-6.9,1.746c0-.5-.359-.711-.749-.507-.679.356-1.341.745-2.005,1.129a.47.47,0,0,0-.182.709.474.474,0,0,0,.691.131c.646-.359,1.295-.713,1.927-1.094A1.36,1.36,0,0,0-837.486-223.837Z" transform="translate(854.159 241.149)"/><path class="a" d="M-849.749-305.916c-.1.49-.193.881-.262,1.277a3.947,3.947,0,0,0,1.376,3.665.95.95,0,0,0,.742.181c.319-.065.376-.39.385-.7a5.123,5.123,0,0,1,.1-1.078,1.11,1.11,0,0,1,1.384-.829,3.775,3.775,0,0,1-.113.364,1.359,1.359,0,0,0,.116,1.331,4.983,4.983,0,0,1,.668,2.006c.106.7.365,1.368.494,2.062a5.152,5.152,0,0,1-.542,4.15,3.8,3.8,0,0,1-1.75,1.352c.048-.176.08-.306.118-.434a2.8,2.8,0,0,0-.45-2.521c-.332-.473-.634-.43-.9.077a4.1,4.1,0,0,1-.573.807.409.409,0,0,1-.383.078.415.415,0,0,1-.158-.357,8.9,8.9,0,0,1,.274-1c.205-.665.443-1.321.62-1.994a2.846,2.846,0,0,0-.353-2.149,4.623,4.623,0,0,1-1.927,2.646,4.206,4.206,0,0,0-1.569,2.632,4.087,4.087,0,0,0,.177,2.433,3.31,3.31,0,0,1-2.306-2.216c-.294-1.091-.543-2.2-.776-3.3a3.106,3.106,0,0,1,.4-2.266,11.456,11.456,0,0,1,.683-1.011,4.042,4.042,0,0,0,1.017-2.405,2.36,2.36,0,0,1,.672,1.612c-.037.855-.154,1.706-.193,2.56a3.356,3.356,0,0,0,.174.833,2.867,2.867,0,0,0,.553-.656,4.431,4.431,0,0,0,.022-2.829,3.965,3.965,0,0,1,1.92-4.144A3.116,3.116,0,0,1-849.749-305.916Z" transform="translate(855.421 305.916)"/></svg>