<svg id="vehicle-disk" xmlns="http://www.w3.org/2000/svg" width="24.213" height="24.213" viewBox="0 0 24.213 24.213">
  <path id="Path_3522" data-name="Path 3522" d="M93.971,620.782a12.107,12.107,0,1,0,12.107,12.107A12.107,12.107,0,0,0,93.971,620.782Zm0,23.423a11.318,11.318,0,0,1-2.535-22.347.18.18,0,0,0-.039.105c0,.338,1.152.61,2.574.61s2.575-.273,2.575-.61a.18.18,0,0,0-.039-.105,11.318,11.318,0,0,1-2.537,22.347Z" transform="translate(-81.865 -620.782)" fill="#4a4a4a"/>
  <path id="Path_3523" data-name="Path 3523" d="M151.3,667.091a.111.111,0,0,1,.029.082.11.11,0,0,1-.029.085.133.133,0,0,1-.088.026h-.164v-.223h.164A.132.132,0,0,1,151.3,667.091Z" transform="translate(-140.331 -659.895)" fill="#4a4a4a"/>
  <path id="Path_3524" data-name="Path 3524" d="M113.354,646.218l-.119.367h.238Zm0,0-.119.367h.238Zm0,0-.119.367h.238Zm0,0-.119.367h.238Zm0,0-.119.367h.238Zm0,0-.119.367h.238Zm0,0-.119.367h.238Zm0,0-.119.367h.238Zm0,0-.119.367h.238Zm0,0-.119.367h.238Zm0,0-.119.367h.238Zm0,0-.119.367h.238Zm0,0-.119.367h.238Zm0,0-.119.367h.238Zm0,0-.119.367h.238Zm0,0-.119.367h.238Zm-6.472,2.51a.248.248,0,0,0-.094-.1.262.262,0,0,0-.138-.036.258.258,0,0,0-.138.036.251.251,0,0,0-.1.1.369.369,0,0,0,0,.31.246.246,0,0,0,.1.1.273.273,0,0,0,.138.036.277.277,0,0,0,.138-.036.261.261,0,0,0,.094-.1.369.369,0,0,0,0-.31Zm6.472-2.51-.119.367h.238Zm0,0-.119.367h.238Zm-6.472,2.51a.248.248,0,0,0-.094-.1.262.262,0,0,0-.138-.036.258.258,0,0,0-.138.036.251.251,0,0,0-.1.1.369.369,0,0,0,0,.31.246.246,0,0,0,.1.1.273.273,0,0,0,.138.036.277.277,0,0,0,.138-.036.261.261,0,0,0,.094-.1.369.369,0,0,0,0-.31Zm0,0a.248.248,0,0,0-.094-.1.262.262,0,0,0-.138-.036.258.258,0,0,0-.138.036.251.251,0,0,0-.1.1.369.369,0,0,0,0,.31.246.246,0,0,0,.1.1.273.273,0,0,0,.138.036.277.277,0,0,0,.138-.036.261.261,0,0,0,.094-.1.369.369,0,0,0,0-.31Zm1.194-.1a.171.171,0,0,0-.136-.054.161.161,0,0,0-.118.045.169.169,0,0,0-.045.124.177.177,0,0,0,.045.13.159.159,0,0,0,.121.046.207.207,0,0,0,.087-.019.161.161,0,0,0,.065-.056.149.149,0,0,0,.026-.088A.191.191,0,0,0,108.077,648.629Zm.643,0a.165.165,0,0,0-.135-.054.159.159,0,0,0-.118.045.163.163,0,0,0-.045.124.171.171,0,0,0,.045.13.159.159,0,0,0,.121.046.2.2,0,0,0,.085-.019.155.155,0,0,0,.067-.056.148.148,0,0,0,.025-.088A.184.184,0,0,0,108.719,648.629Zm4.635-2.411-.119.367h.238Zm0,0-.119.367h.238Zm-4.635,2.411a.165.165,0,0,0-.135-.054.159.159,0,0,0-.118.045.163.163,0,0,0-.045.124.171.171,0,0,0,.045.13.159.159,0,0,0,.121.046.2.2,0,0,0,.085-.019.155.155,0,0,0,.067-.056.148.148,0,0,0,.025-.088A.184.184,0,0,0,108.719,648.629Zm-.643,0a.171.171,0,0,0-.136-.054.161.161,0,0,0-.118.045.169.169,0,0,0-.045.124.177.177,0,0,0,.045.13.159.159,0,0,0,.121.046.207.207,0,0,0,.087-.019.161.161,0,0,0,.065-.056.149.149,0,0,0,.026-.088A.191.191,0,0,0,108.077,648.629Zm-1.194.1a.248.248,0,0,0-.094-.1.262.262,0,0,0-.138-.036.258.258,0,0,0-.138.036.251.251,0,0,0-.1.1.369.369,0,0,0,0,.31.246.246,0,0,0,.1.1.273.273,0,0,0,.138.036.277.277,0,0,0,.138-.036.261.261,0,0,0,.094-.1.369.369,0,0,0,0-.31Zm0,0a.248.248,0,0,0-.094-.1.262.262,0,0,0-.138-.036.258.258,0,0,0-.138.036.251.251,0,0,0-.1.1.369.369,0,0,0,0,.31.246.246,0,0,0,.1.1.273.273,0,0,0,.138.036.277.277,0,0,0,.138-.036.261.261,0,0,0,.094-.1.369.369,0,0,0,0-.31Zm1.194-.1a.171.171,0,0,0-.136-.054.161.161,0,0,0-.118.045.169.169,0,0,0-.045.124.177.177,0,0,0,.045.13.159.159,0,0,0,.121.046.207.207,0,0,0,.087-.019.161.161,0,0,0,.065-.056.149.149,0,0,0,.026-.088A.191.191,0,0,0,108.077,648.629Zm.643,0a.165.165,0,0,0-.135-.054.159.159,0,0,0-.118.045.163.163,0,0,0-.045.124.171.171,0,0,0,.045.13.159.159,0,0,0,.121.046.2.2,0,0,0,.085-.019.155.155,0,0,0,.067-.056.148.148,0,0,0,.025-.088A.184.184,0,0,0,108.719,648.629Zm4.635-2.411-.119.367h.238Zm0,0-.119.367h.238Zm-4.635,2.411a.165.165,0,0,0-.135-.054.159.159,0,0,0-.118.045.163.163,0,0,0-.045.124.171.171,0,0,0,.045.13.159.159,0,0,0,.121.046.2.2,0,0,0,.085-.019.155.155,0,0,0,.067-.056.148.148,0,0,0,.025-.088A.184.184,0,0,0,108.719,648.629Zm-.643,0a.171.171,0,0,0-.136-.054.161.161,0,0,0-.118.045.169.169,0,0,0-.045.124.177.177,0,0,0,.045.13.159.159,0,0,0,.121.046.207.207,0,0,0,.087-.019.161.161,0,0,0,.065-.056.149.149,0,0,0,.026-.088A.191.191,0,0,0,108.077,648.629Zm-1.194.1a.248.248,0,0,0-.094-.1.262.262,0,0,0-.138-.036.258.258,0,0,0-.138.036.251.251,0,0,0-.1.1.369.369,0,0,0,0,.31.246.246,0,0,0,.1.1.273.273,0,0,0,.138.036.277.277,0,0,0,.138-.036.261.261,0,0,0,.094-.1.369.369,0,0,0,0-.31Zm0,0a.248.248,0,0,0-.094-.1.262.262,0,0,0-.138-.036.258.258,0,0,0-.138.036.251.251,0,0,0-.1.1.369.369,0,0,0,0,.31.246.246,0,0,0,.1.1.273.273,0,0,0,.138.036.277.277,0,0,0,.138-.036.261.261,0,0,0,.094-.1.369.369,0,0,0,0-.31Zm1.194-.1a.171.171,0,0,0-.136-.054.161.161,0,0,0-.118.045.169.169,0,0,0-.045.124.177.177,0,0,0,.045.13.159.159,0,0,0,.121.046.207.207,0,0,0,.087-.019.161.161,0,0,0,.065-.056.149.149,0,0,0,.026-.088A.191.191,0,0,0,108.077,648.629Zm.643,0a.165.165,0,0,0-.135-.054.159.159,0,0,0-.118.045.163.163,0,0,0-.045.124.171.171,0,0,0,.045.13.159.159,0,0,0,.121.046.2.2,0,0,0,.085-.019.155.155,0,0,0,.067-.056.148.148,0,0,0,.025-.088A.184.184,0,0,0,108.719,648.629Zm4.635-2.411-.119.367h.238Zm0,0-.119.367h.238Zm-4.635,2.411a.165.165,0,0,0-.135-.054.159.159,0,0,0-.118.045.163.163,0,0,0-.045.124.171.171,0,0,0,.045.13.159.159,0,0,0,.121.046.2.2,0,0,0,.085-.019.155.155,0,0,0,.067-.056.148.148,0,0,0,.025-.088A.184.184,0,0,0,108.719,648.629Zm-.643,0a.171.171,0,0,0-.136-.054.161.161,0,0,0-.118.045.169.169,0,0,0-.045.124.177.177,0,0,0,.045.13.159.159,0,0,0,.121.046.207.207,0,0,0,.087-.019.161.161,0,0,0,.065-.056.149.149,0,0,0,.026-.088A.191.191,0,0,0,108.077,648.629Zm-1.194.1a.248.248,0,0,0-.094-.1.262.262,0,0,0-.138-.036.258.258,0,0,0-.138.036.251.251,0,0,0-.1.1.369.369,0,0,0,0,.31.246.246,0,0,0,.1.1.273.273,0,0,0,.138.036.277.277,0,0,0,.138-.036.261.261,0,0,0,.094-.1.369.369,0,0,0,0-.31Zm0,0a.248.248,0,0,0-.094-.1.262.262,0,0,0-.138-.036.258.258,0,0,0-.138.036.251.251,0,0,0-.1.1.369.369,0,0,0,0,.31.246.246,0,0,0,.1.1.273.273,0,0,0,.138.036.277.277,0,0,0,.138-.036.261.261,0,0,0,.094-.1.369.369,0,0,0,0-.31Zm1.194-.1a.171.171,0,0,0-.136-.054.161.161,0,0,0-.118.045.169.169,0,0,0-.045.124.177.177,0,0,0,.045.13.159.159,0,0,0,.121.046.207.207,0,0,0,.087-.019.161.161,0,0,0,.065-.056.149.149,0,0,0,.026-.088A.191.191,0,0,0,108.077,648.629Zm.643,0a.165.165,0,0,0-.135-.054.159.159,0,0,0-.118.045.163.163,0,0,0-.045.124.171.171,0,0,0,.045.13.159.159,0,0,0,.121.046.2.2,0,0,0,.085-.019.155.155,0,0,0,.067-.056.148.148,0,0,0,.025-.088A.184.184,0,0,0,108.719,648.629Zm2.825,0a.169.169,0,0,0-.135-.054.162.162,0,0,0-.119.045.169.169,0,0,0-.045.124.177.177,0,0,0,.045.13.16.16,0,0,0,.122.046.205.205,0,0,0,.085-.019.161.161,0,0,0,.065-.056.149.149,0,0,0,.026-.088A.191.191,0,0,0,111.544,648.629Zm.643,0a.165.165,0,0,0-.135-.054.159.159,0,0,0-.118.045.163.163,0,0,0-.045.124.171.171,0,0,0,.045.13.159.159,0,0,0,.121.046.2.2,0,0,0,.085-.019.155.155,0,0,0,.067-.056.148.148,0,0,0,.025-.088A.184.184,0,0,0,112.187,648.629Zm1.168-2.411-.119.367h.238Zm0,0-.119.367h.238Zm-1.81,2.411a.169.169,0,0,0-.135-.054.162.162,0,0,0-.119.045.169.169,0,0,0-.045.124.177.177,0,0,0,.045.13.16.16,0,0,0,.122.046.205.205,0,0,0,.085-.019.161.161,0,0,0,.065-.056.149.149,0,0,0,.026-.088A.191.191,0,0,0,111.544,648.629Zm-2.825,0a.165.165,0,0,0-.135-.054.159.159,0,0,0-.118.045.163.163,0,0,0-.045.124.171.171,0,0,0,.045.13.159.159,0,0,0,.121.046.2.2,0,0,0,.085-.019.155.155,0,0,0,.067-.056.148.148,0,0,0,.025-.088A.184.184,0,0,0,108.719,648.629Zm-.643,0a.171.171,0,0,0-.136-.054.161.161,0,0,0-.118.045.169.169,0,0,0-.045.124.177.177,0,0,0,.045.13.159.159,0,0,0,.121.046.207.207,0,0,0,.087-.019.161.161,0,0,0,.065-.056.149.149,0,0,0,.026-.088A.191.191,0,0,0,108.077,648.629Zm-1.194.1a.248.248,0,0,0-.094-.1.262.262,0,0,0-.138-.036.258.258,0,0,0-.138.036.251.251,0,0,0-.1.1.369.369,0,0,0,0,.31.246.246,0,0,0,.1.1.273.273,0,0,0,.138.036.277.277,0,0,0,.138-.036.261.261,0,0,0,.094-.1.369.369,0,0,0,0-.31Zm5.3-.1a.165.165,0,0,0-.135-.054.159.159,0,0,0-.118.045.163.163,0,0,0-.045.124.171.171,0,0,0,.045.13.159.159,0,0,0,.121.046.2.2,0,0,0,.085-.019.155.155,0,0,0,.067-.056.148.148,0,0,0,.025-.088A.184.184,0,0,0,112.187,648.629Zm-5.3.1a.248.248,0,0,0-.094-.1.262.262,0,0,0-.138-.036.258.258,0,0,0-.138.036.251.251,0,0,0-.1.1.369.369,0,0,0,0,.31.246.246,0,0,0,.1.1.273.273,0,0,0,.138.036.277.277,0,0,0,.138-.036.261.261,0,0,0,.094-.1.369.369,0,0,0,0-.31Zm1.194-.1a.171.171,0,0,0-.136-.054.161.161,0,0,0-.118.045.169.169,0,0,0-.045.124.177.177,0,0,0,.045.13.159.159,0,0,0,.121.046.207.207,0,0,0,.087-.019.161.161,0,0,0,.065-.056.149.149,0,0,0,.026-.088A.191.191,0,0,0,108.077,648.629Zm.643,0a.165.165,0,0,0-.135-.054.159.159,0,0,0-.118.045.163.163,0,0,0-.045.124.171.171,0,0,0,.045.13.159.159,0,0,0,.121.046.2.2,0,0,0,.085-.019.155.155,0,0,0,.067-.056.148.148,0,0,0,.025-.088A.184.184,0,0,0,108.719,648.629Zm2.825,0a.169.169,0,0,0-.135-.054.162.162,0,0,0-.119.045.169.169,0,0,0-.045.124.177.177,0,0,0,.045.13.16.16,0,0,0,.122.046.205.205,0,0,0,.085-.019.161.161,0,0,0,.065-.056.149.149,0,0,0,.026-.088A.191.191,0,0,0,111.544,648.629Zm.643,0a.165.165,0,0,0-.135-.054.159.159,0,0,0-.118.045.163.163,0,0,0-.045.124.171.171,0,0,0,.045.13.159.159,0,0,0,.121.046.2.2,0,0,0,.085-.019.155.155,0,0,0,.067-.056.148.148,0,0,0,.025-.088A.184.184,0,0,0,112.187,648.629Zm.666.254a.165.165,0,0,0-.122-.045.2.2,0,0,0-.085.019.147.147,0,0,0-.065.054.152.152,0,0,0-.026.088.2.2,0,0,0,.045.13.174.174,0,0,0,.136.051.16.16,0,0,0,.118-.043.166.166,0,0,0,.045-.124A.179.179,0,0,0,112.853,648.883Zm.5-2.665-.119.367h.238Zm.175,2.509a.2.2,0,0,0-.051-.1.145.145,0,0,0-.107-.037.141.141,0,0,0-.105.037.2.2,0,0,0-.051.1.838.838,0,0,0-.012.153.85.85,0,0,0,.012.153.2.2,0,0,0,.051.1.141.141,0,0,0,.105.037.144.144,0,0,0,.107-.037.2.2,0,0,0,.051-.1.851.851,0,0,0,.012-.153A.839.839,0,0,0,113.529,648.727Zm0,0a.2.2,0,0,0-.051-.1.145.145,0,0,0-.107-.037.141.141,0,0,0-.105.037.2.2,0,0,0-.051.1.838.838,0,0,0-.012.153.85.85,0,0,0,.012.153.2.2,0,0,0,.051.1.141.141,0,0,0,.105.037.144.144,0,0,0,.107-.037.2.2,0,0,0,.051-.1.851.851,0,0,0,.012-.153A.839.839,0,0,0,113.529,648.727Zm-.175-2.509-.119.367h.238Zm-.5,2.665a.165.165,0,0,0-.122-.045.2.2,0,0,0-.085.019.147.147,0,0,0-.065.054.152.152,0,0,0-.026.088.2.2,0,0,0,.045.13.174.174,0,0,0,.136.051.16.16,0,0,0,.118-.043.166.166,0,0,0,.045-.124A.179.179,0,0,0,112.853,648.883Zm-1.309-.254a.169.169,0,0,0-.135-.054.162.162,0,0,0-.119.045.169.169,0,0,0-.045.124.177.177,0,0,0,.045.13.16.16,0,0,0,.122.046.205.205,0,0,0,.085-.019.161.161,0,0,0,.065-.056.149.149,0,0,0,.026-.088A.191.191,0,0,0,111.544,648.629Zm-2.825,0a.165.165,0,0,0-.135-.054.159.159,0,0,0-.118.045.163.163,0,0,0-.045.124.171.171,0,0,0,.045.13.159.159,0,0,0,.121.046.2.2,0,0,0,.085-.019.155.155,0,0,0,.067-.056.148.148,0,0,0,.025-.088A.184.184,0,0,0,108.719,648.629Zm-.643,0a.171.171,0,0,0-.136-.054.161.161,0,0,0-.118.045.169.169,0,0,0-.045.124.177.177,0,0,0,.045.13.159.159,0,0,0,.121.046.207.207,0,0,0,.087-.019.161.161,0,0,0,.065-.056.149.149,0,0,0,.026-.088A.191.191,0,0,0,108.077,648.629Zm-1.194.1a.248.248,0,0,0-.094-.1.262.262,0,0,0-.138-.036.258.258,0,0,0-.138.036.251.251,0,0,0-.1.1.369.369,0,0,0,0,.31.246.246,0,0,0,.1.1.273.273,0,0,0,.138.036.277.277,0,0,0,.138-.036.261.261,0,0,0,.094-.1.369.369,0,0,0,0-.31Zm5.3-.1a.165.165,0,0,0-.135-.054.159.159,0,0,0-.118.045.163.163,0,0,0-.045.124.171.171,0,0,0,.045.13.159.159,0,0,0,.121.046.2.2,0,0,0,.085-.019.155.155,0,0,0,.067-.056.148.148,0,0,0,.025-.088A.184.184,0,0,0,112.187,648.629Zm-5.3.1a.248.248,0,0,0-.094-.1.262.262,0,0,0-.138-.036.258.258,0,0,0-.138.036.251.251,0,0,0-.1.1.369.369,0,0,0,0,.31.246.246,0,0,0,.1.1.273.273,0,0,0,.138.036.277.277,0,0,0,.138-.036.261.261,0,0,0,.094-.1.369.369,0,0,0,0-.31Zm1.194-.1a.171.171,0,0,0-.136-.054.161.161,0,0,0-.118.045.169.169,0,0,0-.045.124.177.177,0,0,0,.045.13.159.159,0,0,0,.121.046.207.207,0,0,0,.087-.019.161.161,0,0,0,.065-.056.149.149,0,0,0,.026-.088A.191.191,0,0,0,108.077,648.629Zm.643,0a.165.165,0,0,0-.135-.054.159.159,0,0,0-.118.045.163.163,0,0,0-.045.124.171.171,0,0,0,.045.13.159.159,0,0,0,.121.046.2.2,0,0,0,.085-.019.155.155,0,0,0,.067-.056.148.148,0,0,0,.025-.088A.184.184,0,0,0,108.719,648.629Zm2.825,0a.169.169,0,0,0-.135-.054.162.162,0,0,0-.119.045.169.169,0,0,0-.045.124.177.177,0,0,0,.045.13.16.16,0,0,0,.122.046.205.205,0,0,0,.085-.019.161.161,0,0,0,.065-.056.149.149,0,0,0,.026-.088A.191.191,0,0,0,111.544,648.629Zm.643,0a.165.165,0,0,0-.135-.054.159.159,0,0,0-.118.045.163.163,0,0,0-.045.124.171.171,0,0,0,.045.13.159.159,0,0,0,.121.046.2.2,0,0,0,.085-.019.155.155,0,0,0,.067-.056.148.148,0,0,0,.025-.088A.184.184,0,0,0,112.187,648.629Zm.666.254a.165.165,0,0,0-.122-.045.2.2,0,0,0-.085.019.147.147,0,0,0-.065.054.152.152,0,0,0-.026.088.2.2,0,0,0,.045.13.174.174,0,0,0,.136.051.16.16,0,0,0,.118-.043.166.166,0,0,0,.045-.124A.179.179,0,0,0,112.853,648.883Zm.5-2.665-.119.367h.238Zm.175,2.509a.2.2,0,0,0-.051-.1.145.145,0,0,0-.107-.037.141.141,0,0,0-.105.037.2.2,0,0,0-.051.1.838.838,0,0,0-.012.153.85.85,0,0,0,.012.153.2.2,0,0,0,.051.1.141.141,0,0,0,.105.037.144.144,0,0,0,.107-.037.2.2,0,0,0,.051-.1.851.851,0,0,0,.012-.153A.839.839,0,0,0,113.529,648.727Zm0,0a.2.2,0,0,0-.051-.1.145.145,0,0,0-.107-.037.141.141,0,0,0-.105.037.2.2,0,0,0-.051.1.838.838,0,0,0-.012.153.85.85,0,0,0,.012.153.2.2,0,0,0,.051.1.141.141,0,0,0,.105.037.144.144,0,0,0,.107-.037.2.2,0,0,0,.051-.1.851.851,0,0,0,.012-.153A.839.839,0,0,0,113.529,648.727Zm-.175-2.509-.119.367h.238Zm-.5,2.665a.165.165,0,0,0-.122-.045.2.2,0,0,0-.085.019.147.147,0,0,0-.065.054.152.152,0,0,0-.026.088.2.2,0,0,0,.045.13.174.174,0,0,0,.136.051.16.16,0,0,0,.118-.043.166.166,0,0,0,.045-.124A.179.179,0,0,0,112.853,648.883Zm-1.309-.254a.169.169,0,0,0-.135-.054.162.162,0,0,0-.119.045.169.169,0,0,0-.045.124.177.177,0,0,0,.045.13.16.16,0,0,0,.122.046.205.205,0,0,0,.085-.019.161.161,0,0,0,.065-.056.149.149,0,0,0,.026-.088A.191.191,0,0,0,111.544,648.629Zm-2.825,0a.165.165,0,0,0-.135-.054.159.159,0,0,0-.118.045.163.163,0,0,0-.045.124.171.171,0,0,0,.045.13.159.159,0,0,0,.121.046.2.2,0,0,0,.085-.019.155.155,0,0,0,.067-.056.148.148,0,0,0,.025-.088A.184.184,0,0,0,108.719,648.629Zm-.643,0a.171.171,0,0,0-.136-.054.161.161,0,0,0-.118.045.169.169,0,0,0-.045.124.177.177,0,0,0,.045.13.159.159,0,0,0,.121.046.207.207,0,0,0,.087-.019.161.161,0,0,0,.065-.056.149.149,0,0,0,.026-.088A.191.191,0,0,0,108.077,648.629Zm-1.194.1a.248.248,0,0,0-.094-.1.262.262,0,0,0-.138-.036.258.258,0,0,0-.138.036.251.251,0,0,0-.1.1.369.369,0,0,0,0,.31.246.246,0,0,0,.1.1.273.273,0,0,0,.138.036.277.277,0,0,0,.138-.036.261.261,0,0,0,.094-.1.369.369,0,0,0,0-.31Zm5.3-.1a.165.165,0,0,0-.135-.054.159.159,0,0,0-.118.045.163.163,0,0,0-.045.124.171.171,0,0,0,.045.13.159.159,0,0,0,.121.046.2.2,0,0,0,.085-.019.155.155,0,0,0,.067-.056.148.148,0,0,0,.025-.088A.184.184,0,0,0,112.187,648.629Zm-5.3.1a.248.248,0,0,0-.094-.1.262.262,0,0,0-.138-.036.258.258,0,0,0-.138.036.251.251,0,0,0-.1.1.369.369,0,0,0,0,.31.246.246,0,0,0,.1.1.273.273,0,0,0,.138.036.277.277,0,0,0,.138-.036.261.261,0,0,0,.094-.1.369.369,0,0,0,0-.31Zm1.194-.1a.171.171,0,0,0-.136-.054.161.161,0,0,0-.118.045.169.169,0,0,0-.045.124.177.177,0,0,0,.045.13.159.159,0,0,0,.121.046.207.207,0,0,0,.087-.019.161.161,0,0,0,.065-.056.149.149,0,0,0,.026-.088A.191.191,0,0,0,108.077,648.629Zm.643,0a.165.165,0,0,0-.135-.054.159.159,0,0,0-.118.045.163.163,0,0,0-.045.124.171.171,0,0,0,.045.13.159.159,0,0,0,.121.046.2.2,0,0,0,.085-.019.155.155,0,0,0,.067-.056.148.148,0,0,0,.025-.088A.184.184,0,0,0,108.719,648.629Zm2.825,0a.169.169,0,0,0-.135-.054.162.162,0,0,0-.119.045.169.169,0,0,0-.045.124.177.177,0,0,0,.045.13.16.16,0,0,0,.122.046.205.205,0,0,0,.085-.019.161.161,0,0,0,.065-.056.149.149,0,0,0,.026-.088A.191.191,0,0,0,111.544,648.629Zm.643,0a.165.165,0,0,0-.135-.054.159.159,0,0,0-.118.045.163.163,0,0,0-.045.124.171.171,0,0,0,.045.13.159.159,0,0,0,.121.046.2.2,0,0,0,.085-.019.155.155,0,0,0,.067-.056.148.148,0,0,0,.025-.088A.184.184,0,0,0,112.187,648.629Zm.666.254a.165.165,0,0,0-.122-.045.2.2,0,0,0-.085.019.147.147,0,0,0-.065.054.152.152,0,0,0-.026.088.2.2,0,0,0,.045.13.174.174,0,0,0,.136.051.16.16,0,0,0,.118-.043.166.166,0,0,0,.045-.124A.179.179,0,0,0,112.853,648.883Zm.5-2.665-.119.367h.238Zm.175,2.509a.2.2,0,0,0-.051-.1.145.145,0,0,0-.107-.037.141.141,0,0,0-.105.037.2.2,0,0,0-.051.1.838.838,0,0,0-.012.153.85.85,0,0,0,.012.153.2.2,0,0,0,.051.1.141.141,0,0,0,.105.037.144.144,0,0,0,.107-.037.2.2,0,0,0,.051-.1.851.851,0,0,0,.012-.153A.839.839,0,0,0,113.529,648.727Zm1.3,0a.2.2,0,0,0-.051-.1.145.145,0,0,0-.107-.037.141.141,0,0,0-.105.037.2.2,0,0,0-.051.1.838.838,0,0,0-.012.153.85.85,0,0,0,.012.153.2.2,0,0,0,.051.1.141.141,0,0,0,.105.037.144.144,0,0,0,.107-.037.2.2,0,0,0,.051-.1.851.851,0,0,0,.012-.153A.839.839,0,0,0,114.832,648.727Zm0,0a.2.2,0,0,0-.051-.1.145.145,0,0,0-.107-.037.141.141,0,0,0-.105.037.2.2,0,0,0-.051.1.838.838,0,0,0-.012.153.85.85,0,0,0,.012.153.2.2,0,0,0,.051.1.141.141,0,0,0,.105.037.144.144,0,0,0,.107-.037.2.2,0,0,0,.051-.1.851.851,0,0,0,.012-.153A.839.839,0,0,0,114.832,648.727Zm-1.3,0a.2.2,0,0,0-.051-.1.145.145,0,0,0-.107-.037.141.141,0,0,0-.105.037.2.2,0,0,0-.051.1.838.838,0,0,0-.012.153.85.85,0,0,0,.012.153.2.2,0,0,0,.051.1.141.141,0,0,0,.105.037.144.144,0,0,0,.107-.037.2.2,0,0,0,.051-.1.851.851,0,0,0,.012-.153A.839.839,0,0,0,113.529,648.727Zm-.175-2.509-.119.367h.238Zm-.5,2.665a.165.165,0,0,0-.122-.045.2.2,0,0,0-.085.019.147.147,0,0,0-.065.054.152.152,0,0,0-.026.088.2.2,0,0,0,.045.13.174.174,0,0,0,.136.051.16.16,0,0,0,.118-.043.166.166,0,0,0,.045-.124A.179.179,0,0,0,112.853,648.883Zm-1.309-.254a.169.169,0,0,0-.135-.054.162.162,0,0,0-.119.045.169.169,0,0,0-.045.124.177.177,0,0,0,.045.13.16.16,0,0,0,.122.046.205.205,0,0,0,.085-.019.161.161,0,0,0,.065-.056.149.149,0,0,0,.026-.088A.191.191,0,0,0,111.544,648.629Zm-2.825,0a.165.165,0,0,0-.135-.054.159.159,0,0,0-.118.045.163.163,0,0,0-.045.124.171.171,0,0,0,.045.13.159.159,0,0,0,.121.046.2.2,0,0,0,.085-.019.155.155,0,0,0,.067-.056.148.148,0,0,0,.025-.088A.184.184,0,0,0,108.719,648.629Zm-.643,0a.171.171,0,0,0-.136-.054.161.161,0,0,0-.118.045.169.169,0,0,0-.045.124.177.177,0,0,0,.045.13.159.159,0,0,0,.121.046.207.207,0,0,0,.087-.019.161.161,0,0,0,.065-.056.149.149,0,0,0,.026-.088A.191.191,0,0,0,108.077,648.629Zm-1.194.1a.248.248,0,0,0-.094-.1.262.262,0,0,0-.138-.036.258.258,0,0,0-.138.036.251.251,0,0,0-.1.1.369.369,0,0,0,0,.31.246.246,0,0,0,.1.1.273.273,0,0,0,.138.036.277.277,0,0,0,.138-.036.261.261,0,0,0,.094-.1.369.369,0,0,0,0-.31Zm5.3-.1a.165.165,0,0,0-.135-.054.159.159,0,0,0-.118.045.163.163,0,0,0-.045.124.171.171,0,0,0,.045.13.159.159,0,0,0,.121.046.2.2,0,0,0,.085-.019.155.155,0,0,0,.067-.056.148.148,0,0,0,.025-.088A.184.184,0,0,0,112.187,648.629Zm-5.3.1a.248.248,0,0,0-.094-.1.262.262,0,0,0-.138-.036.258.258,0,0,0-.138.036.251.251,0,0,0-.1.1.369.369,0,0,0,0,.31.246.246,0,0,0,.1.1.273.273,0,0,0,.138.036.277.277,0,0,0,.138-.036.261.261,0,0,0,.094-.1.369.369,0,0,0,0-.31Zm1.194-.1a.171.171,0,0,0-.136-.054.161.161,0,0,0-.118.045.169.169,0,0,0-.045.124.177.177,0,0,0,.045.13.159.159,0,0,0,.121.046.207.207,0,0,0,.087-.019.161.161,0,0,0,.065-.056.149.149,0,0,0,.026-.088A.191.191,0,0,0,108.077,648.629Zm.643,0a.165.165,0,0,0-.135-.054.159.159,0,0,0-.118.045.163.163,0,0,0-.045.124.171.171,0,0,0,.045.13.159.159,0,0,0,.121.046.2.2,0,0,0,.085-.019.155.155,0,0,0,.067-.056.148.148,0,0,0,.025-.088A.184.184,0,0,0,108.719,648.629Zm2.825,0a.169.169,0,0,0-.135-.054.162.162,0,0,0-.119.045.169.169,0,0,0-.045.124.177.177,0,0,0,.045.13.16.16,0,0,0,.122.046.205.205,0,0,0,.085-.019.161.161,0,0,0,.065-.056.149.149,0,0,0,.026-.088A.191.191,0,0,0,111.544,648.629Zm.643,0a.165.165,0,0,0-.135-.054.159.159,0,0,0-.118.045.163.163,0,0,0-.045.124.171.171,0,0,0,.045.13.159.159,0,0,0,.121.046.2.2,0,0,0,.085-.019.155.155,0,0,0,.067-.056.148.148,0,0,0,.025-.088A.184.184,0,0,0,112.187,648.629Zm.666.254a.165.165,0,0,0-.122-.045.2.2,0,0,0-.085.019.147.147,0,0,0-.065.054.152.152,0,0,0-.026.088.2.2,0,0,0,.045.13.174.174,0,0,0,.136.051.16.16,0,0,0,.118-.043.166.166,0,0,0,.045-.124A.179.179,0,0,0,112.853,648.883Zm.5-2.665-.119.367h.238Zm.175,2.509a.2.2,0,0,0-.051-.1.145.145,0,0,0-.107-.037.141.141,0,0,0-.105.037.2.2,0,0,0-.051.1.838.838,0,0,0-.012.153.85.85,0,0,0,.012.153.2.2,0,0,0,.051.1.141.141,0,0,0,.105.037.144.144,0,0,0,.107-.037.2.2,0,0,0,.051-.1.851.851,0,0,0,.012-.153A.839.839,0,0,0,113.529,648.727Zm1.3,0a.2.2,0,0,0-.051-.1.145.145,0,0,0-.107-.037.141.141,0,0,0-.105.037.2.2,0,0,0-.051.1.838.838,0,0,0-.012.153.85.85,0,0,0,.012.153.2.2,0,0,0,.051.1.141.141,0,0,0,.105.037.144.144,0,0,0,.107-.037.2.2,0,0,0,.051-.1.851.851,0,0,0,.012-.153A.839.839,0,0,0,114.832,648.727Zm0,0a.2.2,0,0,0-.051-.1.145.145,0,0,0-.107-.037.141.141,0,0,0-.105.037.2.2,0,0,0-.051.1.838.838,0,0,0-.012.153.85.85,0,0,0,.012.153.2.2,0,0,0,.051.1.141.141,0,0,0,.105.037.144.144,0,0,0,.107-.037.2.2,0,0,0,.051-.1.851.851,0,0,0,.012-.153A.839.839,0,0,0,114.832,648.727Zm-1.3,0a.2.2,0,0,0-.051-.1.145.145,0,0,0-.107-.037.141.141,0,0,0-.105.037.2.2,0,0,0-.051.1.838.838,0,0,0-.012.153.85.85,0,0,0,.012.153.2.2,0,0,0,.051.1.141.141,0,0,0,.105.037.144.144,0,0,0,.107-.037.2.2,0,0,0,.051-.1.851.851,0,0,0,.012-.153A.839.839,0,0,0,113.529,648.727Zm-.175-2.509-.119.367h.238Zm-.5,2.665a.165.165,0,0,0-.122-.045.2.2,0,0,0-.085.019.147.147,0,0,0-.065.054.152.152,0,0,0-.026.088.2.2,0,0,0,.045.13.174.174,0,0,0,.136.051.16.16,0,0,0,.118-.043.166.166,0,0,0,.045-.124A.179.179,0,0,0,112.853,648.883Zm-1.309-.254a.169.169,0,0,0-.135-.054.162.162,0,0,0-.119.045.169.169,0,0,0-.045.124.177.177,0,0,0,.045.13.16.16,0,0,0,.122.046.205.205,0,0,0,.085-.019.161.161,0,0,0,.065-.056.149.149,0,0,0,.026-.088A.191.191,0,0,0,111.544,648.629Zm-2.825,0a.165.165,0,0,0-.135-.054.159.159,0,0,0-.118.045.163.163,0,0,0-.045.124.171.171,0,0,0,.045.13.159.159,0,0,0,.121.046.2.2,0,0,0,.085-.019.155.155,0,0,0,.067-.056.148.148,0,0,0,.025-.088A.184.184,0,0,0,108.719,648.629Zm-.643,0a.171.171,0,0,0-.136-.054.161.161,0,0,0-.118.045.169.169,0,0,0-.045.124.177.177,0,0,0,.045.13.159.159,0,0,0,.121.046.207.207,0,0,0,.087-.019.161.161,0,0,0,.065-.056.149.149,0,0,0,.026-.088A.191.191,0,0,0,108.077,648.629Zm-1.194.1a.248.248,0,0,0-.094-.1.262.262,0,0,0-.138-.036.258.258,0,0,0-.138.036.251.251,0,0,0-.1.1.369.369,0,0,0,0,.31.246.246,0,0,0,.1.1.273.273,0,0,0,.138.036.277.277,0,0,0,.138-.036.261.261,0,0,0,.094-.1.369.369,0,0,0,0-.31Zm5.3-.1a.165.165,0,0,0-.135-.054.159.159,0,0,0-.118.045.163.163,0,0,0-.045.124.171.171,0,0,0,.045.13.159.159,0,0,0,.121.046.2.2,0,0,0,.085-.019.155.155,0,0,0,.067-.056.148.148,0,0,0,.025-.088A.184.184,0,0,0,112.187,648.629Zm-5.3.1a.248.248,0,0,0-.094-.1.262.262,0,0,0-.138-.036.258.258,0,0,0-.138.036.251.251,0,0,0-.1.1.369.369,0,0,0,0,.31.246.246,0,0,0,.1.1.273.273,0,0,0,.138.036.277.277,0,0,0,.138-.036.261.261,0,0,0,.094-.1.369.369,0,0,0,0-.31Zm1.194-.1a.171.171,0,0,0-.136-.054.161.161,0,0,0-.118.045.169.169,0,0,0-.045.124.177.177,0,0,0,.045.13.159.159,0,0,0,.121.046.207.207,0,0,0,.087-.019.161.161,0,0,0,.065-.056.149.149,0,0,0,.026-.088A.191.191,0,0,0,108.077,648.629Zm.643,0a.165.165,0,0,0-.135-.054.159.159,0,0,0-.118.045.163.163,0,0,0-.045.124.171.171,0,0,0,.045.13.159.159,0,0,0,.121.046.2.2,0,0,0,.085-.019.155.155,0,0,0,.067-.056.148.148,0,0,0,.025-.088A.184.184,0,0,0,108.719,648.629Zm2.825,0a.169.169,0,0,0-.135-.054.162.162,0,0,0-.119.045.169.169,0,0,0-.045.124.177.177,0,0,0,.045.13.16.16,0,0,0,.122.046.205.205,0,0,0,.085-.019.161.161,0,0,0,.065-.056.149.149,0,0,0,.026-.088A.191.191,0,0,0,111.544,648.629Zm.643,0a.165.165,0,0,0-.135-.054.159.159,0,0,0-.118.045.163.163,0,0,0-.045.124.171.171,0,0,0,.045.13.159.159,0,0,0,.121.046.2.2,0,0,0,.085-.019.155.155,0,0,0,.067-.056.148.148,0,0,0,.025-.088A.184.184,0,0,0,112.187,648.629Zm.666.254a.165.165,0,0,0-.122-.045.2.2,0,0,0-.085.019.147.147,0,0,0-.065.054.152.152,0,0,0-.026.088.2.2,0,0,0,.045.13.174.174,0,0,0,.136.051.16.16,0,0,0,.118-.043.166.166,0,0,0,.045-.124A.179.179,0,0,0,112.853,648.883Zm.5-2.665-.119.367h.238Zm.175,2.509a.2.2,0,0,0-.051-.1.145.145,0,0,0-.107-.037.141.141,0,0,0-.105.037.2.2,0,0,0-.051.1.838.838,0,0,0-.012.153.85.85,0,0,0,.012.153.2.2,0,0,0,.051.1.141.141,0,0,0,.105.037.144.144,0,0,0,.107-.037.2.2,0,0,0,.051-.1.851.851,0,0,0,.012-.153A.839.839,0,0,0,113.529,648.727Zm1.3,0a.2.2,0,0,0-.051-.1.145.145,0,0,0-.107-.037.141.141,0,0,0-.105.037.2.2,0,0,0-.051.1.838.838,0,0,0-.012.153.85.85,0,0,0,.012.153.2.2,0,0,0,.051.1.141.141,0,0,0,.105.037.144.144,0,0,0,.107-.037.2.2,0,0,0,.051-.1.851.851,0,0,0,.012-.153A.839.839,0,0,0,114.832,648.727Zm1.25,0a.2.2,0,0,0-.05-.1.172.172,0,0,0-.214,0,.184.184,0,0,0-.05.1.709.709,0,0,0-.014.153.719.719,0,0,0,.014.153.183.183,0,0,0,.05.1.172.172,0,0,0,.214,0,.194.194,0,0,0,.05-.1.719.719,0,0,0,.014-.153A.709.709,0,0,0,116.082,648.727Zm.65,0a.2.2,0,0,0-.051-.1.17.17,0,0,0-.212,0,.2.2,0,0,0-.051.1.838.838,0,0,0-.012.153.85.85,0,0,0,.012.153.2.2,0,0,0,.051.1.17.17,0,0,0,.212,0,.2.2,0,0,0,.051-.1.729.729,0,0,0,.012-.153A.72.72,0,0,0,116.732,648.727Zm0,0a.2.2,0,0,0-.051-.1.17.17,0,0,0-.212,0,.2.2,0,0,0-.051.1.838.838,0,0,0-.012.153.85.85,0,0,0,.012.153.2.2,0,0,0,.051.1.17.17,0,0,0,.212,0,.2.2,0,0,0,.051-.1.729.729,0,0,0,.012-.153A.72.72,0,0,0,116.732,648.727Zm-.65,0a.2.2,0,0,0-.05-.1.172.172,0,0,0-.214,0,.184.184,0,0,0-.05.1.709.709,0,0,0-.014.153.719.719,0,0,0,.014.153.183.183,0,0,0,.05.1.172.172,0,0,0,.214,0,.194.194,0,0,0,.05-.1.719.719,0,0,0,.014-.153A.709.709,0,0,0,116.082,648.727Zm-1.25,0a.2.2,0,0,0-.051-.1.145.145,0,0,0-.107-.037.141.141,0,0,0-.105.037.2.2,0,0,0-.051.1.838.838,0,0,0-.012.153.85.85,0,0,0,.012.153.2.2,0,0,0,.051.1.141.141,0,0,0,.105.037.144.144,0,0,0,.107-.037.2.2,0,0,0,.051-.1.851.851,0,0,0,.012-.153A.839.839,0,0,0,114.832,648.727Zm-1.3,0a.2.2,0,0,0-.051-.1.145.145,0,0,0-.107-.037.141.141,0,0,0-.105.037.2.2,0,0,0-.051.1.838.838,0,0,0-.012.153.85.85,0,0,0,.012.153.2.2,0,0,0,.051.1.141.141,0,0,0,.105.037.144.144,0,0,0,.107-.037.2.2,0,0,0,.051-.1.851.851,0,0,0,.012-.153A.839.839,0,0,0,113.529,648.727Zm-.175-2.509-.119.367h.238Zm-.5,2.665a.165.165,0,0,0-.122-.045.2.2,0,0,0-.085.019.147.147,0,0,0-.065.054.152.152,0,0,0-.026.088.2.2,0,0,0,.045.13.174.174,0,0,0,.136.051.16.16,0,0,0,.118-.043.166.166,0,0,0,.045-.124A.179.179,0,0,0,112.853,648.883Zm-1.309-.254a.169.169,0,0,0-.135-.054.162.162,0,0,0-.119.045.169.169,0,0,0-.045.124.177.177,0,0,0,.045.13.16.16,0,0,0,.122.046.205.205,0,0,0,.085-.019.161.161,0,0,0,.065-.056.149.149,0,0,0,.026-.088A.191.191,0,0,0,111.544,648.629Zm-2.825,0a.165.165,0,0,0-.135-.054.159.159,0,0,0-.118.045.163.163,0,0,0-.045.124.171.171,0,0,0,.045.13.159.159,0,0,0,.121.046.2.2,0,0,0,.085-.019.155.155,0,0,0,.067-.056.148.148,0,0,0,.025-.088A.184.184,0,0,0,108.719,648.629Zm-.643,0a.171.171,0,0,0-.136-.054.161.161,0,0,0-.118.045.169.169,0,0,0-.045.124.177.177,0,0,0,.045.13.159.159,0,0,0,.121.046.207.207,0,0,0,.087-.019.161.161,0,0,0,.065-.056.149.149,0,0,0,.026-.088A.191.191,0,0,0,108.077,648.629Zm-1.194.1a.248.248,0,0,0-.094-.1.262.262,0,0,0-.138-.036.258.258,0,0,0-.138.036.251.251,0,0,0-.1.1.369.369,0,0,0,0,.31.246.246,0,0,0,.1.1.273.273,0,0,0,.138.036.277.277,0,0,0,.138-.036.261.261,0,0,0,.094-.1.369.369,0,0,0,0-.31Zm5.3-.1a.165.165,0,0,0-.135-.054.159.159,0,0,0-.118.045.163.163,0,0,0-.045.124.171.171,0,0,0,.045.13.159.159,0,0,0,.121.046.2.2,0,0,0,.085-.019.155.155,0,0,0,.067-.056.148.148,0,0,0,.025-.088A.184.184,0,0,0,112.187,648.629Zm-5.3.1a.248.248,0,0,0-.094-.1.262.262,0,0,0-.138-.036.258.258,0,0,0-.138.036.251.251,0,0,0-.1.1.369.369,0,0,0,0,.31.246.246,0,0,0,.1.1.273.273,0,0,0,.138.036.277.277,0,0,0,.138-.036.261.261,0,0,0,.094-.1.369.369,0,0,0,0-.31Zm1.194-.1a.171.171,0,0,0-.136-.054.161.161,0,0,0-.118.045.169.169,0,0,0-.045.124.177.177,0,0,0,.045.13.159.159,0,0,0,.121.046.207.207,0,0,0,.087-.019.161.161,0,0,0,.065-.056.149.149,0,0,0,.026-.088A.191.191,0,0,0,108.077,648.629Zm.643,0a.165.165,0,0,0-.135-.054.159.159,0,0,0-.118.045.163.163,0,0,0-.045.124.171.171,0,0,0,.045.13.159.159,0,0,0,.121.046.2.2,0,0,0,.085-.019.155.155,0,0,0,.067-.056.148.148,0,0,0,.025-.088A.184.184,0,0,0,108.719,648.629Zm2.825,0a.169.169,0,0,0-.135-.054.162.162,0,0,0-.119.045.169.169,0,0,0-.045.124.177.177,0,0,0,.045.13.16.16,0,0,0,.122.046.205.205,0,0,0,.085-.019.161.161,0,0,0,.065-.056.149.149,0,0,0,.026-.088A.191.191,0,0,0,111.544,648.629Zm.643,0a.165.165,0,0,0-.135-.054.159.159,0,0,0-.118.045.163.163,0,0,0-.045.124.171.171,0,0,0,.045.13.159.159,0,0,0,.121.046.2.2,0,0,0,.085-.019.155.155,0,0,0,.067-.056.148.148,0,0,0,.025-.088A.184.184,0,0,0,112.187,648.629Zm.666.254a.165.165,0,0,0-.122-.045.2.2,0,0,0-.085.019.147.147,0,0,0-.065.054.152.152,0,0,0-.026.088.2.2,0,0,0,.045.13.174.174,0,0,0,.136.051.16.16,0,0,0,.118-.043.166.166,0,0,0,.045-.124A.179.179,0,0,0,112.853,648.883Zm.5-2.665-.119.367h.238Zm.175,2.509a.2.2,0,0,0-.051-.1.145.145,0,0,0-.107-.037.141.141,0,0,0-.105.037.2.2,0,0,0-.051.1.838.838,0,0,0-.012.153.85.85,0,0,0,.012.153.2.2,0,0,0,.051.1.141.141,0,0,0,.105.037.144.144,0,0,0,.107-.037.2.2,0,0,0,.051-.1.851.851,0,0,0,.012-.153A.839.839,0,0,0,113.529,648.727Zm1.3,0a.2.2,0,0,0-.051-.1.145.145,0,0,0-.107-.037.141.141,0,0,0-.105.037.2.2,0,0,0-.051.1.838.838,0,0,0-.012.153.85.85,0,0,0,.012.153.2.2,0,0,0,.051.1.141.141,0,0,0,.105.037.144.144,0,0,0,.107-.037.2.2,0,0,0,.051-.1.851.851,0,0,0,.012-.153A.839.839,0,0,0,114.832,648.727Zm1.25,0a.2.2,0,0,0-.05-.1.172.172,0,0,0-.214,0,.184.184,0,0,0-.05.1.709.709,0,0,0-.014.153.719.719,0,0,0,.014.153.183.183,0,0,0,.05.1.172.172,0,0,0,.214,0,.194.194,0,0,0,.05-.1.719.719,0,0,0,.014-.153A.709.709,0,0,0,116.082,648.727Zm.65,0a.2.2,0,0,0-.051-.1.17.17,0,0,0-.212,0,.2.2,0,0,0-.051.1.838.838,0,0,0-.012.153.85.85,0,0,0,.012.153.2.2,0,0,0,.051.1.17.17,0,0,0,.212,0,.2.2,0,0,0,.051-.1.729.729,0,0,0,.012-.153A.72.72,0,0,0,116.732,648.727Zm0,0a.2.2,0,0,0-.051-.1.17.17,0,0,0-.212,0,.2.2,0,0,0-.051.1.838.838,0,0,0-.012.153.85.85,0,0,0,.012.153.2.2,0,0,0,.051.1.17.17,0,0,0,.212,0,.2.2,0,0,0,.051-.1.729.729,0,0,0,.012-.153A.72.72,0,0,0,116.732,648.727Zm-.65,0a.2.2,0,0,0-.05-.1.172.172,0,0,0-.214,0,.184.184,0,0,0-.05.1.709.709,0,0,0-.014.153.719.719,0,0,0,.014.153.183.183,0,0,0,.05.1.172.172,0,0,0,.214,0,.194.194,0,0,0,.05-.1.719.719,0,0,0,.014-.153A.709.709,0,0,0,116.082,648.727Zm-1.25,0a.2.2,0,0,0-.051-.1.145.145,0,0,0-.107-.037.141.141,0,0,0-.105.037.2.2,0,0,0-.051.1.838.838,0,0,0-.012.153.85.85,0,0,0,.012.153.2.2,0,0,0,.051.1.141.141,0,0,0,.105.037.144.144,0,0,0,.107-.037.2.2,0,0,0,.051-.1.851.851,0,0,0,.012-.153A.839.839,0,0,0,114.832,648.727Zm-1.3,0a.2.2,0,0,0-.051-.1.145.145,0,0,0-.107-.037.141.141,0,0,0-.105.037.2.2,0,0,0-.051.1.838.838,0,0,0-.012.153.85.85,0,0,0,.012.153.2.2,0,0,0,.051.1.141.141,0,0,0,.105.037.144.144,0,0,0,.107-.037.2.2,0,0,0,.051-.1.851.851,0,0,0,.012-.153A.839.839,0,0,0,113.529,648.727Zm-.175-2.509-.119.367h.238Zm-.5,2.665a.165.165,0,0,0-.122-.045.2.2,0,0,0-.085.019.147.147,0,0,0-.065.054.152.152,0,0,0-.026.088.2.2,0,0,0,.045.13.174.174,0,0,0,.136.051.16.16,0,0,0,.118-.043.166.166,0,0,0,.045-.124A.179.179,0,0,0,112.853,648.883Zm-1.309-.254a.169.169,0,0,0-.135-.054.162.162,0,0,0-.119.045.169.169,0,0,0-.045.124.177.177,0,0,0,.045.13.16.16,0,0,0,.122.046.205.205,0,0,0,.085-.019.161.161,0,0,0,.065-.056.149.149,0,0,0,.026-.088A.191.191,0,0,0,111.544,648.629Zm-2.825,0a.165.165,0,0,0-.135-.054.159.159,0,0,0-.118.045.163.163,0,0,0-.045.124.171.171,0,0,0,.045.13.159.159,0,0,0,.121.046.2.2,0,0,0,.085-.019.155.155,0,0,0,.067-.056.148.148,0,0,0,.025-.088A.184.184,0,0,0,108.719,648.629Zm-.643,0a.171.171,0,0,0-.136-.054.161.161,0,0,0-.118.045.169.169,0,0,0-.045.124.177.177,0,0,0,.045.13.159.159,0,0,0,.121.046.207.207,0,0,0,.087-.019.161.161,0,0,0,.065-.056.149.149,0,0,0,.026-.088A.191.191,0,0,0,108.077,648.629Zm-1.194.1a.248.248,0,0,0-.094-.1.262.262,0,0,0-.138-.036.258.258,0,0,0-.138.036.251.251,0,0,0-.1.1.369.369,0,0,0,0,.31.246.246,0,0,0,.1.1.273.273,0,0,0,.138.036.277.277,0,0,0,.138-.036.261.261,0,0,0,.094-.1.369.369,0,0,0,0-.31Zm5.3-.1a.165.165,0,0,0-.135-.054.159.159,0,0,0-.118.045.163.163,0,0,0-.045.124.171.171,0,0,0,.045.13.159.159,0,0,0,.121.046.2.2,0,0,0,.085-.019.155.155,0,0,0,.067-.056.148.148,0,0,0,.025-.088A.184.184,0,0,0,112.187,648.629Zm6.281,0a.172.172,0,0,0-.214,0,.2.2,0,0,0-.05.1.709.709,0,0,0-.014.153.719.719,0,0,0,.014.153.194.194,0,0,0,.05.1.172.172,0,0,0,.214,0,.183.183,0,0,0,.05-.1.719.719,0,0,0,.014-.153.709.709,0,0,0-.014-.153A.184.184,0,0,0,118.468,648.629Zm-6.34-6.343a8.778,8.778,0,1,0,8.778,8.778A8.778,8.778,0,0,0,112.128,642.286Zm-.531,3.653a.405.405,0,0,1,.181-.136.673.673,0,0,1,.257-.046.592.592,0,0,1,.375.108.42.42,0,0,1,.153.316h-.444c-.006-.068-.036-.1-.085-.1a.057.057,0,0,0-.06.063.08.08,0,0,0,.048.07.869.869,0,0,0,.147.062,1.421,1.421,0,0,1,.209.088.44.44,0,0,1,.146.129.353.353,0,0,1,.062.217.371.371,0,0,1-.059.2.4.4,0,0,1-.17.144.607.607,0,0,1-.265.053.657.657,0,0,1-.39-.11.411.411,0,0,1-.166-.325h.438c.006.076.04.113.1.113a.075.075,0,0,0,.051-.016.067.067,0,0,0,.02-.05.083.083,0,0,0-.048-.073.812.812,0,0,0-.153-.062,1.6,1.6,0,0,1-.208-.084.444.444,0,0,1-.144-.127.409.409,0,0,1,0-.435Zm.573,3.018a.23.23,0,0,1-.135.039.236.236,0,0,1-.175-.067.264.264,0,0,1-.063-.187.288.288,0,0,1,.028-.127.208.208,0,0,1,.085-.09.274.274,0,0,1,.139-.034.241.241,0,0,1,.221.1.54.54,0,0,1,.059.273.609.609,0,0,1-.06.3.222.222,0,0,1-.206.1.226.226,0,0,1-.167-.06.243.243,0,0,1-.071-.158h.09a.175.175,0,0,0,.046.1.144.144,0,0,0,.1.036.152.152,0,0,0,.135-.07.408.408,0,0,0,.045-.217v-.043A.164.164,0,0,1,112.17,648.958Zm-1.846-3.179h.613a.594.594,0,0,1,.273.057.392.392,0,0,1,.17.153.438.438,0,0,1,.056.22.39.39,0,0,1-.073.235.4.4,0,0,1-.211.146l.287.5h-.454l-.249-.472v.472h-.412Zm-4.171,3.48h-.1l-.387-.59v.59h-.1v-.746h.1l.387.59v-.59h.1Zm.178-.177a.4.4,0,0,1-.048-.2.394.394,0,0,1,.048-.2.328.328,0,0,1,.132-.136.39.39,0,0,1,.375,0,.345.345,0,0,1,.13.136.394.394,0,0,1,.048.2.4.4,0,0,1-.048.2.355.355,0,0,1-.13.136.39.39,0,0,1-.375,0A.338.338,0,0,1,106.331,649.082Zm.894,4.534h-.8v-2.594h.8Zm.333-4.358h-.1V648.6h-.111v-.09h.214Zm.393.008a.226.226,0,0,1-.167-.06.25.25,0,0,1-.071-.158h.091a.175.175,0,0,0,.046.1.14.14,0,0,0,.1.036.15.15,0,0,0,.135-.07.392.392,0,0,0,.046-.217c0-.02,0-.034,0-.043a.164.164,0,0,1-.073.1.225.225,0,0,1-.133.039.233.233,0,0,1-.175-.067.257.257,0,0,1-.063-.187.311.311,0,0,1,.026-.127.208.208,0,0,1,.085-.09.274.274,0,0,1,.139-.034.239.239,0,0,1,.221.1.523.523,0,0,1,.06.273.608.608,0,0,1-.062.3A.222.222,0,0,1,107.951,649.266Zm.474,4.35h-.271v-2.594h.271Zm.376-4.452a.222.222,0,0,1-.206.1.226.226,0,0,1-.167-.06.252.252,0,0,1-.073-.158h.091a.175.175,0,0,0,.046.1.144.144,0,0,0,.1.036.152.152,0,0,0,.135-.07.408.408,0,0,0,.045-.217v-.043a.164.164,0,0,1-.073.1.233.233,0,0,1-.135.039.236.236,0,0,1-.175-.067.264.264,0,0,1-.063-.187.288.288,0,0,1,.028-.127.213.213,0,0,1,.084-.09.284.284,0,0,1,.141-.034.241.241,0,0,1,.221.1.54.54,0,0,1,.059.273A.609.609,0,0,1,108.8,649.164Zm.359,4.452h-.271v-2.594h.271Zm-.077-4.414a.237.237,0,0,1-.079-.164h.094a.167.167,0,0,0,.056.1.156.156,0,0,0,.108.037.152.152,0,0,0,.122-.05.187.187,0,0,0,.042-.127.15.15,0,0,0-.163-.164.191.191,0,0,0-.1.023.152.152,0,0,0-.062.063h-.094V648.5h.472v.085H109.1v.249a.182.182,0,0,1,.076-.057.276.276,0,0,1,.108-.02.25.25,0,0,1,.133.033.208.208,0,0,1,.076.088.282.282,0,0,1,.026.121.275.275,0,0,1-.065.189.244.244,0,0,1-.19.073A.274.274,0,0,1,109.083,649.2Zm1.045,4.414h-.736v-2.594h.736Zm0-4.363h-.514v-.07a1.532,1.532,0,0,0,.288-.24.341.341,0,0,0,.108-.221.15.15,0,0,0-.033-.1.126.126,0,0,0-.1-.039.14.14,0,0,0-.113.046.228.228,0,0,0-.042.13h-.094a.276.276,0,0,1,.076-.192.252.252,0,0,1,.181-.067.236.236,0,0,1,.166.056.205.205,0,0,1,.062.158.314.314,0,0,1-.056.172.705.705,0,0,1-.136.163,1.071,1.071,0,0,1-.169.127h.379Zm.091-.223h.1a.174.174,0,0,0,.054.11.161.161,0,0,0,.118.042.159.159,0,0,0,.11-.036.131.131,0,0,0,.037-.1.115.115,0,0,0-.054-.105.272.272,0,0,0-.155-.037H110.4v-.081h.025q.2,0,.2-.13a.122.122,0,0,0-.036-.091.146.146,0,0,0-.1-.034.161.161,0,0,0-.107.037.159.159,0,0,0-.05.107h-.094a.239.239,0,0,1,.073-.166.268.268,0,0,1,.181-.059.282.282,0,0,1,.124.025.18.18,0,0,1,.077.07.185.185,0,0,1,.026.1.166.166,0,0,1-.16.175v.006a.288.288,0,0,1,.129.065.171.171,0,0,1,.045.124.2.2,0,0,1-.06.15.25.25,0,0,1-.177.057.28.28,0,0,1-.187-.059A.259.259,0,0,1,110.223,649.03Zm.757,4.586h-.619v-2.594h.619Zm.045-4.358h-.1V648.6h-.111v-.09h.214Zm.369,4.358h-.181v-2.594h.181Zm.025-4.35a.226.226,0,0,1-.167-.06.25.25,0,0,1-.071-.158h.091a.175.175,0,0,0,.046.1.143.143,0,0,0,.1.036.149.149,0,0,0,.135-.07.392.392,0,0,0,.046-.217c0-.02,0-.034,0-.043a.158.158,0,0,1-.073.1.225.225,0,0,1-.133.039.233.233,0,0,1-.175-.067.257.257,0,0,1-.063-.187.288.288,0,0,1,.028-.127.2.2,0,0,1,.084-.09.274.274,0,0,1,.139-.034.239.239,0,0,1,.221.1.523.523,0,0,1,.06.273.608.608,0,0,1-.062.3A.221.221,0,0,1,111.419,649.266Zm1.536,4.35h-1.319v-2.594h1.319Zm.006-4.474a.207.207,0,0,1-.085.09.273.273,0,0,1-.139.033.235.235,0,0,1-.22-.1.537.537,0,0,1-.06-.274.552.552,0,0,1,.065-.3.228.228,0,0,1,.209-.1.216.216,0,0,1,.164.06.256.256,0,0,1,.068.158h-.091a.179.179,0,0,0-.045-.1.138.138,0,0,0-.1-.037.15.15,0,0,0-.135.07.41.41,0,0,0-.046.221v.039a.166.166,0,0,1,.074-.1.236.236,0,0,1,.133-.037.228.228,0,0,1,.175.067.26.26,0,0,1,.063.186A.289.289,0,0,1,112.961,649.142Zm-.324-2.047.48-1.316h.477l.479,1.316h-.435l-.065-.2h-.438l-.065.2Zm.469,1.786a.567.567,0,0,1,.059-.28.262.262,0,0,1,.412,0,.54.54,0,0,1,.06.279.55.55,0,0,1-.06.28.261.261,0,0,1-.412,0A.568.568,0,0,1,113.107,648.88Zm.816,4.736h-.736v-2.594h.736Zm-.063-4.414a.233.233,0,0,1-.081-.164h.1a.173.173,0,0,0,.054.1.162.162,0,0,0,.108.037.15.15,0,0,0,.122-.05A.187.187,0,0,0,114.2,649a.164.164,0,0,0-.042-.121.157.157,0,0,0-.119-.043.2.2,0,0,0-.1.023.162.162,0,0,0-.062.063h-.093V648.5h.472v.085h-.384v.249a.193.193,0,0,1,.076-.057.284.284,0,0,1,.11-.02.248.248,0,0,1,.132.033.212.212,0,0,1,.077.088.281.281,0,0,1,.025.121.275.275,0,0,1-.065.189.241.241,0,0,1-.189.073A.271.271,0,0,1,113.859,649.2Zm.838,4.414h-.542v-2.594h.542Zm-.023-4.355a.221.221,0,0,1-.206-.1.7.7,0,0,1,0-.561.262.262,0,0,1,.412,0,.54.54,0,0,1,.06.279.55.55,0,0,1-.06.28A.221.221,0,0,1,114.674,649.261Zm.681,4.355h-.426v-2.594h.426Zm.2-4.363h-.513v-.07a1.639,1.639,0,0,0,.288-.24.345.345,0,0,0,.107-.221.158.158,0,0,0-.031-.1.129.129,0,0,0-.105-.039.134.134,0,0,0-.112.046.218.218,0,0,0-.043.13h-.094a.277.277,0,0,1,.077-.192.248.248,0,0,1,.18-.067.236.236,0,0,1,.166.056.2.2,0,0,1,.062.158.325.325,0,0,1-.054.172.792.792,0,0,1-.136.163,1.236,1.236,0,0,1-.169.127h.378Zm.573-.093a.26.26,0,0,1-.41,0,.7.7,0,0,1,0-.561.219.219,0,0,1,.206-.1.216.216,0,0,1,.2.1.54.54,0,0,1,.06.279A.55.55,0,0,1,116.13,649.161Zm.387,4.456h-.194v-2.594h.194Zm.057-4.355a.217.217,0,0,1-.2-.1.681.681,0,0,1,0-.561.261.261,0,0,1,.41,0,.54.54,0,0,1,.06.279.55.55,0,0,1-.06.28A.22.22,0,0,1,116.574,649.261Zm.562,4.355h-.387v-2.594h.387Zm.268-5.035-.283.677h-.1l.288-.667h-.392v-.084h.489Zm.544,5.035h-.328v-2.594h.328Zm.045-4.363h-.513v-.07a1.64,1.64,0,0,0,.288-.24.348.348,0,0,0,.108-.221.15.15,0,0,0-.033-.1.129.129,0,0,0-.105-.039.134.134,0,0,0-.111.046.207.207,0,0,0-.042.13h-.1a.277.277,0,0,1,.077-.192.248.248,0,0,1,.18-.067.236.236,0,0,1,.166.056.2.2,0,0,1,.062.158.325.325,0,0,1-.054.172.792.792,0,0,1-.136.163,1.235,1.235,0,0,1-.169.127h.378Zm.369.008a.221.221,0,0,1-.206-.1.7.7,0,0,1,0-.561.262.262,0,0,1,.412,0,.557.557,0,0,1,.059.279.567.567,0,0,1-.059.28A.221.221,0,0,1,118.361,649.261Zm-1.68-.632a.17.17,0,0,0-.212,0,.2.2,0,0,0-.051.1.838.838,0,0,0-.012.153.85.85,0,0,0,.012.153.2.2,0,0,0,.051.1.17.17,0,0,0,.212,0,.2.2,0,0,0,.051-.1.729.729,0,0,0,.012-.153.72.72,0,0,0-.012-.153A.2.2,0,0,0,116.681,648.629Zm-.649,0a.172.172,0,0,0-.214,0,.184.184,0,0,0-.05.1.709.709,0,0,0-.014.153.719.719,0,0,0,.014.153.183.183,0,0,0,.05.1.172.172,0,0,0,.214,0,.194.194,0,0,0,.05-.1.719.719,0,0,0,.014-.153.709.709,0,0,0-.014-.153A.2.2,0,0,0,116.032,648.629Zm-1.251,0a.145.145,0,0,0-.107-.037.141.141,0,0,0-.105.037.2.2,0,0,0-.051.1.838.838,0,0,0-.012.153.85.85,0,0,0,.012.153.2.2,0,0,0,.051.1.141.141,0,0,0,.105.037.144.144,0,0,0,.107-.037.2.2,0,0,0,.051-.1.851.851,0,0,0,.012-.153.839.839,0,0,0-.012-.153A.2.2,0,0,0,114.781,648.629Zm-1.515.5a.141.141,0,0,0,.105.037.144.144,0,0,0,.107-.037.2.2,0,0,0,.051-.1.851.851,0,0,0,.012-.153.839.839,0,0,0-.012-.153.2.2,0,0,0-.051-.1.145.145,0,0,0-.107-.037.141.141,0,0,0-.105.037.2.2,0,0,0-.051.1.838.838,0,0,0-.012.153.85.85,0,0,0,.012.153A.2.2,0,0,0,113.266,649.133Zm.088-2.915-.119.367h.238Zm-.624,2.62a.2.2,0,0,0-.085.019.147.147,0,0,0-.065.054.152.152,0,0,0-.026.088.2.2,0,0,0,.045.13.174.174,0,0,0,.136.051.16.16,0,0,0,.118-.043.166.166,0,0,0,.045-.124.179.179,0,0,0-.045-.13A.165.165,0,0,0,112.73,648.838Zm-.678-.263a.159.159,0,0,0-.118.045.163.163,0,0,0-.045.124.171.171,0,0,0,.045.13.159.159,0,0,0,.121.046.2.2,0,0,0,.085-.019.155.155,0,0,0,.067-.056.148.148,0,0,0,.025-.088.184.184,0,0,0-.045-.129A.165.165,0,0,0,112.052,648.575Zm-.643,0a.162.162,0,0,0-.119.045.169.169,0,0,0-.045.124.177.177,0,0,0,.045.13.16.16,0,0,0,.122.046.205.205,0,0,0,.085-.019.161.161,0,0,0,.065-.056.149.149,0,0,0,.026-.088.191.191,0,0,0-.045-.129A.169.169,0,0,0,111.409,648.575Zm-2.825,0a.159.159,0,0,0-.118.045.163.163,0,0,0-.045.124.171.171,0,0,0,.045.13.159.159,0,0,0,.121.046.2.2,0,0,0,.085-.019.155.155,0,0,0,.067-.056.148.148,0,0,0,.025-.088.184.184,0,0,0-.045-.129A.165.165,0,0,0,108.584,648.575Zm-.644,0a.161.161,0,0,0-.118.045.169.169,0,0,0-.045.124.177.177,0,0,0,.045.13.159.159,0,0,0,.121.046.207.207,0,0,0,.087-.019.161.161,0,0,0,.065-.056.149.149,0,0,0,.026-.088.191.191,0,0,0-.045-.129A.171.171,0,0,0,107.94,648.575Zm-1.29.6a.277.277,0,0,0,.138-.036.261.261,0,0,0,.094-.1.369.369,0,0,0,0-.31.248.248,0,0,0-.094-.1.262.262,0,0,0-.138-.036.258.258,0,0,0-.138.036.251.251,0,0,0-.1.1.369.369,0,0,0,0,.31.246.246,0,0,0,.1.1A.273.273,0,0,0,106.65,649.176Zm5.536-.547a.165.165,0,0,0-.135-.054.159.159,0,0,0-.118.045.163.163,0,0,0-.045.124.171.171,0,0,0,.045.13.159.159,0,0,0,.121.046.2.2,0,0,0,.085-.019.155.155,0,0,0,.067-.056.148.148,0,0,0,.025-.088A.184.184,0,0,0,112.187,648.629Zm-5.3.1a.248.248,0,0,0-.094-.1.262.262,0,0,0-.138-.036.258.258,0,0,0-.138.036.251.251,0,0,0-.1.1.369.369,0,0,0,0,.31.246.246,0,0,0,.1.1.273.273,0,0,0,.138.036.277.277,0,0,0,.138-.036.261.261,0,0,0,.094-.1.369.369,0,0,0,0-.31Zm1.194-.1a.171.171,0,0,0-.136-.054.161.161,0,0,0-.118.045.169.169,0,0,0-.045.124.177.177,0,0,0,.045.13.159.159,0,0,0,.121.046.207.207,0,0,0,.087-.019.161.161,0,0,0,.065-.056.149.149,0,0,0,.026-.088A.191.191,0,0,0,108.077,648.629Zm.643,0a.165.165,0,0,0-.135-.054.159.159,0,0,0-.118.045.163.163,0,0,0-.045.124.171.171,0,0,0,.045.13.159.159,0,0,0,.121.046.2.2,0,0,0,.085-.019.155.155,0,0,0,.067-.056.148.148,0,0,0,.025-.088A.184.184,0,0,0,108.719,648.629Zm2.825,0a.169.169,0,0,0-.135-.054.162.162,0,0,0-.119.045.169.169,0,0,0-.045.124.177.177,0,0,0,.045.13.16.16,0,0,0,.122.046.205.205,0,0,0,.085-.019.161.161,0,0,0,.065-.056.149.149,0,0,0,.026-.088A.191.191,0,0,0,111.544,648.629Zm1.309.254a.165.165,0,0,0-.122-.045.2.2,0,0,0-.085.019.147.147,0,0,0-.065.054.152.152,0,0,0-.026.088.2.2,0,0,0,.045.13.174.174,0,0,0,.136.051.16.16,0,0,0,.118-.043.166.166,0,0,0,.045-.124A.179.179,0,0,0,112.853,648.883Zm.5-2.665-.119.367h.238Zm.175,2.509a.2.2,0,0,0-.051-.1.145.145,0,0,0-.107-.037.141.141,0,0,0-.105.037.2.2,0,0,0-.051.1.838.838,0,0,0-.012.153.85.85,0,0,0,.012.153.2.2,0,0,0,.051.1.141.141,0,0,0,.105.037.144.144,0,0,0,.107-.037.2.2,0,0,0,.051-.1.851.851,0,0,0,.012-.153A.839.839,0,0,0,113.529,648.727Zm1.3,0a.2.2,0,0,0-.051-.1.145.145,0,0,0-.107-.037.141.141,0,0,0-.105.037.2.2,0,0,0-.051.1.838.838,0,0,0-.012.153.85.85,0,0,0,.012.153.2.2,0,0,0,.051.1.141.141,0,0,0,.105.037.144.144,0,0,0,.107-.037.2.2,0,0,0,.051-.1.851.851,0,0,0,.012-.153A.839.839,0,0,0,114.832,648.727Zm1.25,0a.2.2,0,0,0-.05-.1.172.172,0,0,0-.214,0,.184.184,0,0,0-.05.1.709.709,0,0,0-.014.153.719.719,0,0,0,.014.153.183.183,0,0,0,.05.1.172.172,0,0,0,.214,0,.194.194,0,0,0,.05-.1.719.719,0,0,0,.014-.153A.709.709,0,0,0,116.082,648.727Zm.65,0a.2.2,0,0,0-.051-.1.17.17,0,0,0-.212,0,.2.2,0,0,0-.051.1.838.838,0,0,0-.012.153.85.85,0,0,0,.012.153.2.2,0,0,0,.051.1.17.17,0,0,0,.212,0,.2.2,0,0,0,.051-.1.729.729,0,0,0,.012-.153A.72.72,0,0,0,116.732,648.727Zm0,0a.2.2,0,0,0-.051-.1.17.17,0,0,0-.212,0,.2.2,0,0,0-.051.1.838.838,0,0,0-.012.153.85.85,0,0,0,.012.153.2.2,0,0,0,.051.1.17.17,0,0,0,.212,0,.2.2,0,0,0,.051-.1.729.729,0,0,0,.012-.153A.72.72,0,0,0,116.732,648.727Zm-.65,0a.2.2,0,0,0-.05-.1.172.172,0,0,0-.214,0,.184.184,0,0,0-.05.1.709.709,0,0,0-.014.153.719.719,0,0,0,.014.153.183.183,0,0,0,.05.1.172.172,0,0,0,.214,0,.194.194,0,0,0,.05-.1.719.719,0,0,0,.014-.153A.709.709,0,0,0,116.082,648.727Zm-1.25,0a.2.2,0,0,0-.051-.1.145.145,0,0,0-.107-.037.141.141,0,0,0-.105.037.2.2,0,0,0-.051.1.838.838,0,0,0-.012.153.85.85,0,0,0,.012.153.2.2,0,0,0,.051.1.141.141,0,0,0,.105.037.144.144,0,0,0,.107-.037.2.2,0,0,0,.051-.1.851.851,0,0,0,.012-.153A.839.839,0,0,0,114.832,648.727Zm-1.3,0a.2.2,0,0,0-.051-.1.145.145,0,0,0-.107-.037.141.141,0,0,0-.105.037.2.2,0,0,0-.051.1.838.838,0,0,0-.012.153.85.85,0,0,0,.012.153.2.2,0,0,0,.051.1.141.141,0,0,0,.105.037.144.144,0,0,0,.107-.037.2.2,0,0,0,.051-.1.851.851,0,0,0,.012-.153A.839.839,0,0,0,113.529,648.727Zm-.175-2.509-.119.367h.238Zm-.5,2.665a.165.165,0,0,0-.122-.045.2.2,0,0,0-.085.019.147.147,0,0,0-.065.054.152.152,0,0,0-.026.088.2.2,0,0,0,.045.13.174.174,0,0,0,.136.051.16.16,0,0,0,.118-.043.166.166,0,0,0,.045-.124A.179.179,0,0,0,112.853,648.883Zm-.666-.254a.165.165,0,0,0-.135-.054.159.159,0,0,0-.118.045.163.163,0,0,0-.045.124.171.171,0,0,0,.045.13.159.159,0,0,0,.121.046.2.2,0,0,0,.085-.019.155.155,0,0,0,.067-.056.148.148,0,0,0,.025-.088A.184.184,0,0,0,112.187,648.629Zm-.643,0a.169.169,0,0,0-.135-.054.162.162,0,0,0-.119.045.169.169,0,0,0-.045.124.177.177,0,0,0,.045.13.16.16,0,0,0,.122.046.205.205,0,0,0,.085-.019.161.161,0,0,0,.065-.056.149.149,0,0,0,.026-.088A.191.191,0,0,0,111.544,648.629Zm-2.825,0a.165.165,0,0,0-.135-.054.159.159,0,0,0-.118.045.163.163,0,0,0-.045.124.171.171,0,0,0,.045.13.159.159,0,0,0,.121.046.2.2,0,0,0,.085-.019.155.155,0,0,0,.067-.056.148.148,0,0,0,.025-.088A.184.184,0,0,0,108.719,648.629Zm-.643,0a.171.171,0,0,0-.136-.054.161.161,0,0,0-.118.045.169.169,0,0,0-.045.124.177.177,0,0,0,.045.13.159.159,0,0,0,.121.046.207.207,0,0,0,.087-.019.161.161,0,0,0,.065-.056.149.149,0,0,0,.026-.088A.191.191,0,0,0,108.077,648.629Zm-1.194.1a.248.248,0,0,0-.094-.1.262.262,0,0,0-.138-.036.258.258,0,0,0-.138.036.251.251,0,0,0-.1.1.369.369,0,0,0,0,.31.246.246,0,0,0,.1.1.273.273,0,0,0,.138.036.277.277,0,0,0,.138-.036.261.261,0,0,0,.094-.1.369.369,0,0,0,0-.31Zm5.3-.1a.165.165,0,0,0-.135-.054.159.159,0,0,0-.118.045.163.163,0,0,0-.045.124.171.171,0,0,0,.045.13.159.159,0,0,0,.121.046.2.2,0,0,0,.085-.019.155.155,0,0,0,.067-.056.148.148,0,0,0,.025-.088A.184.184,0,0,0,112.187,648.629Zm-5.3.1a.248.248,0,0,0-.094-.1.262.262,0,0,0-.138-.036.258.258,0,0,0-.138.036.251.251,0,0,0-.1.1.369.369,0,0,0,0,.31.246.246,0,0,0,.1.1.273.273,0,0,0,.138.036.277.277,0,0,0,.138-.036.261.261,0,0,0,.094-.1.369.369,0,0,0,0-.31Zm1.194-.1a.171.171,0,0,0-.136-.054.161.161,0,0,0-.118.045.169.169,0,0,0-.045.124.177.177,0,0,0,.045.13.159.159,0,0,0,.121.046.207.207,0,0,0,.087-.019.161.161,0,0,0,.065-.056.149.149,0,0,0,.026-.088A.191.191,0,0,0,108.077,648.629Zm.643,0a.165.165,0,0,0-.135-.054.159.159,0,0,0-.118.045.163.163,0,0,0-.045.124.171.171,0,0,0,.045.13.159.159,0,0,0,.121.046.2.2,0,0,0,.085-.019.155.155,0,0,0,.067-.056.148.148,0,0,0,.025-.088A.184.184,0,0,0,108.719,648.629Zm2.825,0a.169.169,0,0,0-.135-.054.162.162,0,0,0-.119.045.169.169,0,0,0-.045.124.177.177,0,0,0,.045.13.16.16,0,0,0,.122.046.205.205,0,0,0,.085-.019.161.161,0,0,0,.065-.056.149.149,0,0,0,.026-.088A.191.191,0,0,0,111.544,648.629Zm1.309.254a.165.165,0,0,0-.122-.045.2.2,0,0,0-.085.019.147.147,0,0,0-.065.054.152.152,0,0,0-.026.088.2.2,0,0,0,.045.13.174.174,0,0,0,.136.051.16.16,0,0,0,.118-.043.166.166,0,0,0,.045-.124A.179.179,0,0,0,112.853,648.883Zm.5-2.665-.119.367h.238Zm.175,2.509a.2.2,0,0,0-.051-.1.145.145,0,0,0-.107-.037.141.141,0,0,0-.105.037.2.2,0,0,0-.051.1.838.838,0,0,0-.012.153.85.85,0,0,0,.012.153.2.2,0,0,0,.051.1.141.141,0,0,0,.105.037.144.144,0,0,0,.107-.037.2.2,0,0,0,.051-.1.851.851,0,0,0,.012-.153A.839.839,0,0,0,113.529,648.727Zm1.3,0a.2.2,0,0,0-.051-.1.145.145,0,0,0-.107-.037.141.141,0,0,0-.105.037.2.2,0,0,0-.051.1.838.838,0,0,0-.012.153.85.85,0,0,0,.012.153.2.2,0,0,0,.051.1.141.141,0,0,0,.105.037.144.144,0,0,0,.107-.037.2.2,0,0,0,.051-.1.851.851,0,0,0,.012-.153A.839.839,0,0,0,114.832,648.727Zm1.25,0a.2.2,0,0,0-.05-.1.172.172,0,0,0-.214,0,.184.184,0,0,0-.05.1.709.709,0,0,0-.014.153.719.719,0,0,0,.014.153.183.183,0,0,0,.05.1.172.172,0,0,0,.214,0,.194.194,0,0,0,.05-.1.719.719,0,0,0,.014-.153A.709.709,0,0,0,116.082,648.727Zm0,0a.2.2,0,0,0-.05-.1.172.172,0,0,0-.214,0,.184.184,0,0,0-.05.1.709.709,0,0,0-.014.153.719.719,0,0,0,.014.153.183.183,0,0,0,.05.1.172.172,0,0,0,.214,0,.194.194,0,0,0,.05-.1.719.719,0,0,0,.014-.153A.709.709,0,0,0,116.082,648.727Zm-1.25,0a.2.2,0,0,0-.051-.1.145.145,0,0,0-.107-.037.141.141,0,0,0-.105.037.2.2,0,0,0-.051.1.838.838,0,0,0-.012.153.85.85,0,0,0,.012.153.2.2,0,0,0,.051.1.141.141,0,0,0,.105.037.144.144,0,0,0,.107-.037.2.2,0,0,0,.051-.1.851.851,0,0,0,.012-.153A.839.839,0,0,0,114.832,648.727Zm-1.3,0a.2.2,0,0,0-.051-.1.145.145,0,0,0-.107-.037.141.141,0,0,0-.105.037.2.2,0,0,0-.051.1.838.838,0,0,0-.012.153.85.85,0,0,0,.012.153.2.2,0,0,0,.051.1.141.141,0,0,0,.105.037.144.144,0,0,0,.107-.037.2.2,0,0,0,.051-.1.851.851,0,0,0,.012-.153A.839.839,0,0,0,113.529,648.727Zm-.175-2.509-.119.367h.238Zm-.5,2.665a.165.165,0,0,0-.122-.045.2.2,0,0,0-.085.019.147.147,0,0,0-.065.054.152.152,0,0,0-.026.088.2.2,0,0,0,.045.13.174.174,0,0,0,.136.051.16.16,0,0,0,.118-.043.166.166,0,0,0,.045-.124A.179.179,0,0,0,112.853,648.883Zm-.666-.254a.165.165,0,0,0-.135-.054.159.159,0,0,0-.118.045.163.163,0,0,0-.045.124.171.171,0,0,0,.045.13.159.159,0,0,0,.121.046.2.2,0,0,0,.085-.019.155.155,0,0,0,.067-.056.148.148,0,0,0,.025-.088A.184.184,0,0,0,112.187,648.629Zm-.643,0a.169.169,0,0,0-.135-.054.162.162,0,0,0-.119.045.169.169,0,0,0-.045.124.177.177,0,0,0,.045.13.16.16,0,0,0,.122.046.205.205,0,0,0,.085-.019.161.161,0,0,0,.065-.056.149.149,0,0,0,.026-.088A.191.191,0,0,0,111.544,648.629Zm-2.825,0a.165.165,0,0,0-.135-.054.159.159,0,0,0-.118.045.163.163,0,0,0-.045.124.171.171,0,0,0,.045.13.159.159,0,0,0,.121.046.2.2,0,0,0,.085-.019.155.155,0,0,0,.067-.056.148.148,0,0,0,.025-.088A.184.184,0,0,0,108.719,648.629Zm-.643,0a.171.171,0,0,0-.136-.054.161.161,0,0,0-.118.045.169.169,0,0,0-.045.124.177.177,0,0,0,.045.13.159.159,0,0,0,.121.046.207.207,0,0,0,.087-.019.161.161,0,0,0,.065-.056.149.149,0,0,0,.026-.088A.191.191,0,0,0,108.077,648.629Zm-1.194.1a.248.248,0,0,0-.094-.1.262.262,0,0,0-.138-.036.258.258,0,0,0-.138.036.251.251,0,0,0-.1.1.369.369,0,0,0,0,.31.246.246,0,0,0,.1.1.273.273,0,0,0,.138.036.277.277,0,0,0,.138-.036.261.261,0,0,0,.094-.1.369.369,0,0,0,0-.31Zm5.3-.1a.165.165,0,0,0-.135-.054.159.159,0,0,0-.118.045.163.163,0,0,0-.045.124.171.171,0,0,0,.045.13.159.159,0,0,0,.121.046.2.2,0,0,0,.085-.019.155.155,0,0,0,.067-.056.148.148,0,0,0,.025-.088A.184.184,0,0,0,112.187,648.629Zm-5.3.1a.248.248,0,0,0-.094-.1.262.262,0,0,0-.138-.036.258.258,0,0,0-.138.036.251.251,0,0,0-.1.1.369.369,0,0,0,0,.31.246.246,0,0,0,.1.1.273.273,0,0,0,.138.036.277.277,0,0,0,.138-.036.261.261,0,0,0,.094-.1.369.369,0,0,0,0-.31Zm1.194-.1a.171.171,0,0,0-.136-.054.161.161,0,0,0-.118.045.169.169,0,0,0-.045.124.177.177,0,0,0,.045.13.159.159,0,0,0,.121.046.207.207,0,0,0,.087-.019.161.161,0,0,0,.065-.056.149.149,0,0,0,.026-.088A.191.191,0,0,0,108.077,648.629Zm.643,0a.165.165,0,0,0-.135-.054.159.159,0,0,0-.118.045.163.163,0,0,0-.045.124.171.171,0,0,0,.045.13.159.159,0,0,0,.121.046.2.2,0,0,0,.085-.019.155.155,0,0,0,.067-.056.148.148,0,0,0,.025-.088A.184.184,0,0,0,108.719,648.629Zm2.825,0a.169.169,0,0,0-.135-.054.162.162,0,0,0-.119.045.169.169,0,0,0-.045.124.177.177,0,0,0,.045.13.16.16,0,0,0,.122.046.205.205,0,0,0,.085-.019.161.161,0,0,0,.065-.056.149.149,0,0,0,.026-.088A.191.191,0,0,0,111.544,648.629Zm1.309.254a.165.165,0,0,0-.122-.045.2.2,0,0,0-.085.019.147.147,0,0,0-.065.054.152.152,0,0,0-.026.088.2.2,0,0,0,.045.13.174.174,0,0,0,.136.051.16.16,0,0,0,.118-.043.166.166,0,0,0,.045-.124A.179.179,0,0,0,112.853,648.883Zm.5-2.665-.119.367h.238Zm.175,2.509a.2.2,0,0,0-.051-.1.145.145,0,0,0-.107-.037.141.141,0,0,0-.105.037.2.2,0,0,0-.051.1.838.838,0,0,0-.012.153.85.85,0,0,0,.012.153.2.2,0,0,0,.051.1.141.141,0,0,0,.105.037.144.144,0,0,0,.107-.037.2.2,0,0,0,.051-.1.851.851,0,0,0,.012-.153A.839.839,0,0,0,113.529,648.727Zm1.3,0a.2.2,0,0,0-.051-.1.145.145,0,0,0-.107-.037.141.141,0,0,0-.105.037.2.2,0,0,0-.051.1.838.838,0,0,0-.012.153.85.85,0,0,0,.012.153.2.2,0,0,0,.051.1.141.141,0,0,0,.105.037.144.144,0,0,0,.107-.037.2.2,0,0,0,.051-.1.851.851,0,0,0,.012-.153A.839.839,0,0,0,114.832,648.727Zm0,0a.2.2,0,0,0-.051-.1.145.145,0,0,0-.107-.037.141.141,0,0,0-.105.037.2.2,0,0,0-.051.1.838.838,0,0,0-.012.153.85.85,0,0,0,.012.153.2.2,0,0,0,.051.1.141.141,0,0,0,.105.037.144.144,0,0,0,.107-.037.2.2,0,0,0,.051-.1.851.851,0,0,0,.012-.153A.839.839,0,0,0,114.832,648.727Zm-1.3,0a.2.2,0,0,0-.051-.1.145.145,0,0,0-.107-.037.141.141,0,0,0-.105.037.2.2,0,0,0-.051.1.838.838,0,0,0-.012.153.85.85,0,0,0,.012.153.2.2,0,0,0,.051.1.141.141,0,0,0,.105.037.144.144,0,0,0,.107-.037.2.2,0,0,0,.051-.1.851.851,0,0,0,.012-.153A.839.839,0,0,0,113.529,648.727Zm-.175-2.509-.119.367h.238Zm-.5,2.665a.165.165,0,0,0-.122-.045.2.2,0,0,0-.085.019.147.147,0,0,0-.065.054.152.152,0,0,0-.026.088.2.2,0,0,0,.045.13.174.174,0,0,0,.136.051.16.16,0,0,0,.118-.043.166.166,0,0,0,.045-.124A.179.179,0,0,0,112.853,648.883Zm-.666-.254a.165.165,0,0,0-.135-.054.159.159,0,0,0-.118.045.163.163,0,0,0-.045.124.171.171,0,0,0,.045.13.159.159,0,0,0,.121.046.2.2,0,0,0,.085-.019.155.155,0,0,0,.067-.056.148.148,0,0,0,.025-.088A.184.184,0,0,0,112.187,648.629Zm-.643,0a.169.169,0,0,0-.135-.054.162.162,0,0,0-.119.045.169.169,0,0,0-.045.124.177.177,0,0,0,.045.13.16.16,0,0,0,.122.046.205.205,0,0,0,.085-.019.161.161,0,0,0,.065-.056.149.149,0,0,0,.026-.088A.191.191,0,0,0,111.544,648.629Zm-2.825,0a.165.165,0,0,0-.135-.054.159.159,0,0,0-.118.045.163.163,0,0,0-.045.124.171.171,0,0,0,.045.13.159.159,0,0,0,.121.046.2.2,0,0,0,.085-.019.155.155,0,0,0,.067-.056.148.148,0,0,0,.025-.088A.184.184,0,0,0,108.719,648.629Zm-.643,0a.171.171,0,0,0-.136-.054.161.161,0,0,0-.118.045.169.169,0,0,0-.045.124.177.177,0,0,0,.045.13.159.159,0,0,0,.121.046.207.207,0,0,0,.087-.019.161.161,0,0,0,.065-.056.149.149,0,0,0,.026-.088A.191.191,0,0,0,108.077,648.629Zm-1.194.1a.248.248,0,0,0-.094-.1.262.262,0,0,0-.138-.036.258.258,0,0,0-.138.036.251.251,0,0,0-.1.1.369.369,0,0,0,0,.31.246.246,0,0,0,.1.1.273.273,0,0,0,.138.036.277.277,0,0,0,.138-.036.261.261,0,0,0,.094-.1.369.369,0,0,0,0-.31Zm5.3-.1a.165.165,0,0,0-.135-.054.159.159,0,0,0-.118.045.163.163,0,0,0-.045.124.171.171,0,0,0,.045.13.159.159,0,0,0,.121.046.2.2,0,0,0,.085-.019.155.155,0,0,0,.067-.056.148.148,0,0,0,.025-.088A.184.184,0,0,0,112.187,648.629Zm-5.3.1a.248.248,0,0,0-.094-.1.262.262,0,0,0-.138-.036.258.258,0,0,0-.138.036.251.251,0,0,0-.1.1.369.369,0,0,0,0,.31.246.246,0,0,0,.1.1.273.273,0,0,0,.138.036.277.277,0,0,0,.138-.036.261.261,0,0,0,.094-.1.369.369,0,0,0,0-.31Zm1.194-.1a.171.171,0,0,0-.136-.054.161.161,0,0,0-.118.045.169.169,0,0,0-.045.124.177.177,0,0,0,.045.13.159.159,0,0,0,.121.046.207.207,0,0,0,.087-.019.161.161,0,0,0,.065-.056.149.149,0,0,0,.026-.088A.191.191,0,0,0,108.077,648.629Zm.643,0a.165.165,0,0,0-.135-.054.159.159,0,0,0-.118.045.163.163,0,0,0-.045.124.171.171,0,0,0,.045.13.159.159,0,0,0,.121.046.2.2,0,0,0,.085-.019.155.155,0,0,0,.067-.056.148.148,0,0,0,.025-.088A.184.184,0,0,0,108.719,648.629Zm2.825,0a.169.169,0,0,0-.135-.054.162.162,0,0,0-.119.045.169.169,0,0,0-.045.124.177.177,0,0,0,.045.13.16.16,0,0,0,.122.046.205.205,0,0,0,.085-.019.161.161,0,0,0,.065-.056.149.149,0,0,0,.026-.088A.191.191,0,0,0,111.544,648.629Zm1.309.254a.165.165,0,0,0-.122-.045.2.2,0,0,0-.085.019.147.147,0,0,0-.065.054.152.152,0,0,0-.026.088.2.2,0,0,0,.045.13.174.174,0,0,0,.136.051.16.16,0,0,0,.118-.043.166.166,0,0,0,.045-.124A.179.179,0,0,0,112.853,648.883Zm.5-2.665-.119.367h.238Zm.175,2.509a.2.2,0,0,0-.051-.1.145.145,0,0,0-.107-.037.141.141,0,0,0-.105.037.2.2,0,0,0-.051.1.838.838,0,0,0-.012.153.85.85,0,0,0,.012.153.2.2,0,0,0,.051.1.141.141,0,0,0,.105.037.144.144,0,0,0,.107-.037.2.2,0,0,0,.051-.1.851.851,0,0,0,.012-.153A.839.839,0,0,0,113.529,648.727Zm0,0a.2.2,0,0,0-.051-.1.145.145,0,0,0-.107-.037.141.141,0,0,0-.105.037.2.2,0,0,0-.051.1.838.838,0,0,0-.012.153.85.85,0,0,0,.012.153.2.2,0,0,0,.051.1.141.141,0,0,0,.105.037.144.144,0,0,0,.107-.037.2.2,0,0,0,.051-.1.851.851,0,0,0,.012-.153A.839.839,0,0,0,113.529,648.727Zm-.175-2.509-.119.367h.238Zm-.5,2.665a.165.165,0,0,0-.122-.045.2.2,0,0,0-.085.019.147.147,0,0,0-.065.054.152.152,0,0,0-.026.088.2.2,0,0,0,.045.13.174.174,0,0,0,.136.051.16.16,0,0,0,.118-.043.166.166,0,0,0,.045-.124A.179.179,0,0,0,112.853,648.883Zm-.666-.254a.165.165,0,0,0-.135-.054.159.159,0,0,0-.118.045.163.163,0,0,0-.045.124.171.171,0,0,0,.045.13.159.159,0,0,0,.121.046.2.2,0,0,0,.085-.019.155.155,0,0,0,.067-.056.148.148,0,0,0,.025-.088A.184.184,0,0,0,112.187,648.629Zm-.643,0a.169.169,0,0,0-.135-.054.162.162,0,0,0-.119.045.169.169,0,0,0-.045.124.177.177,0,0,0,.045.13.16.16,0,0,0,.122.046.205.205,0,0,0,.085-.019.161.161,0,0,0,.065-.056.149.149,0,0,0,.026-.088A.191.191,0,0,0,111.544,648.629Zm-2.825,0a.165.165,0,0,0-.135-.054.159.159,0,0,0-.118.045.163.163,0,0,0-.045.124.171.171,0,0,0,.045.13.159.159,0,0,0,.121.046.2.2,0,0,0,.085-.019.155.155,0,0,0,.067-.056.148.148,0,0,0,.025-.088A.184.184,0,0,0,108.719,648.629Zm-.643,0a.171.171,0,0,0-.136-.054.161.161,0,0,0-.118.045.169.169,0,0,0-.045.124.177.177,0,0,0,.045.13.159.159,0,0,0,.121.046.207.207,0,0,0,.087-.019.161.161,0,0,0,.065-.056.149.149,0,0,0,.026-.088A.191.191,0,0,0,108.077,648.629Zm-1.194.1a.248.248,0,0,0-.094-.1.262.262,0,0,0-.138-.036.258.258,0,0,0-.138.036.251.251,0,0,0-.1.1.369.369,0,0,0,0,.31.246.246,0,0,0,.1.1.273.273,0,0,0,.138.036.277.277,0,0,0,.138-.036.261.261,0,0,0,.094-.1.369.369,0,0,0,0-.31Zm5.3-.1a.165.165,0,0,0-.135-.054.159.159,0,0,0-.118.045.163.163,0,0,0-.045.124.171.171,0,0,0,.045.13.159.159,0,0,0,.121.046.2.2,0,0,0,.085-.019.155.155,0,0,0,.067-.056.148.148,0,0,0,.025-.088A.184.184,0,0,0,112.187,648.629Zm-5.3.1a.248.248,0,0,0-.094-.1.262.262,0,0,0-.138-.036.258.258,0,0,0-.138.036.251.251,0,0,0-.1.1.369.369,0,0,0,0,.31.246.246,0,0,0,.1.1.273.273,0,0,0,.138.036.277.277,0,0,0,.138-.036.261.261,0,0,0,.094-.1.369.369,0,0,0,0-.31Zm1.194-.1a.171.171,0,0,0-.136-.054.161.161,0,0,0-.118.045.169.169,0,0,0-.045.124.177.177,0,0,0,.045.13.159.159,0,0,0,.121.046.207.207,0,0,0,.087-.019.161.161,0,0,0,.065-.056.149.149,0,0,0,.026-.088A.191.191,0,0,0,108.077,648.629Zm.643,0a.165.165,0,0,0-.135-.054.159.159,0,0,0-.118.045.163.163,0,0,0-.045.124.171.171,0,0,0,.045.13.159.159,0,0,0,.121.046.2.2,0,0,0,.085-.019.155.155,0,0,0,.067-.056.148.148,0,0,0,.025-.088A.184.184,0,0,0,108.719,648.629Zm2.825,0a.169.169,0,0,0-.135-.054.162.162,0,0,0-.119.045.169.169,0,0,0-.045.124.177.177,0,0,0,.045.13.16.16,0,0,0,.122.046.205.205,0,0,0,.085-.019.161.161,0,0,0,.065-.056.149.149,0,0,0,.026-.088A.191.191,0,0,0,111.544,648.629Zm1.309.254a.165.165,0,0,0-.122-.045.2.2,0,0,0-.085.019.147.147,0,0,0-.065.054.152.152,0,0,0-.026.088.2.2,0,0,0,.045.13.174.174,0,0,0,.136.051.16.16,0,0,0,.118-.043.166.166,0,0,0,.045-.124A.179.179,0,0,0,112.853,648.883Zm.5-2.665-.119.367h.238Zm.175,2.509a.2.2,0,0,0-.051-.1.145.145,0,0,0-.107-.037.141.141,0,0,0-.105.037.2.2,0,0,0-.051.1.838.838,0,0,0-.012.153.85.85,0,0,0,.012.153.2.2,0,0,0,.051.1.141.141,0,0,0,.105.037.144.144,0,0,0,.107-.037.2.2,0,0,0,.051-.1.851.851,0,0,0,.012-.153A.839.839,0,0,0,113.529,648.727Zm0,0a.2.2,0,0,0-.051-.1.145.145,0,0,0-.107-.037.141.141,0,0,0-.105.037.2.2,0,0,0-.051.1.838.838,0,0,0-.012.153.85.85,0,0,0,.012.153.2.2,0,0,0,.051.1.141.141,0,0,0,.105.037.144.144,0,0,0,.107-.037.2.2,0,0,0,.051-.1.851.851,0,0,0,.012-.153A.839.839,0,0,0,113.529,648.727Zm-.175-2.509-.119.367h.238Zm-.5,2.665a.165.165,0,0,0-.122-.045.2.2,0,0,0-.085.019.147.147,0,0,0-.065.054.152.152,0,0,0-.026.088.2.2,0,0,0,.045.13.174.174,0,0,0,.136.051.16.16,0,0,0,.118-.043.166.166,0,0,0,.045-.124A.179.179,0,0,0,112.853,648.883Zm-.666-.254a.165.165,0,0,0-.135-.054.159.159,0,0,0-.118.045.163.163,0,0,0-.045.124.171.171,0,0,0,.045.13.159.159,0,0,0,.121.046.2.2,0,0,0,.085-.019.155.155,0,0,0,.067-.056.148.148,0,0,0,.025-.088A.184.184,0,0,0,112.187,648.629Zm-.643,0a.169.169,0,0,0-.135-.054.162.162,0,0,0-.119.045.169.169,0,0,0-.045.124.177.177,0,0,0,.045.13.16.16,0,0,0,.122.046.205.205,0,0,0,.085-.019.161.161,0,0,0,.065-.056.149.149,0,0,0,.026-.088A.191.191,0,0,0,111.544,648.629Zm-2.825,0a.165.165,0,0,0-.135-.054.159.159,0,0,0-.118.045.163.163,0,0,0-.045.124.171.171,0,0,0,.045.13.159.159,0,0,0,.121.046.2.2,0,0,0,.085-.019.155.155,0,0,0,.067-.056.148.148,0,0,0,.025-.088A.184.184,0,0,0,108.719,648.629Zm-.643,0a.171.171,0,0,0-.136-.054.161.161,0,0,0-.118.045.169.169,0,0,0-.045.124.177.177,0,0,0,.045.13.159.159,0,0,0,.121.046.207.207,0,0,0,.087-.019.161.161,0,0,0,.065-.056.149.149,0,0,0,.026-.088A.191.191,0,0,0,108.077,648.629Zm-1.194.1a.248.248,0,0,0-.094-.1.262.262,0,0,0-.138-.036.258.258,0,0,0-.138.036.251.251,0,0,0-.1.1.369.369,0,0,0,0,.31.246.246,0,0,0,.1.1.273.273,0,0,0,.138.036.277.277,0,0,0,.138-.036.261.261,0,0,0,.094-.1.369.369,0,0,0,0-.31Zm5.3-.1a.165.165,0,0,0-.135-.054.159.159,0,0,0-.118.045.163.163,0,0,0-.045.124.171.171,0,0,0,.045.13.159.159,0,0,0,.121.046.2.2,0,0,0,.085-.019.155.155,0,0,0,.067-.056.148.148,0,0,0,.025-.088A.184.184,0,0,0,112.187,648.629Zm-5.3.1a.248.248,0,0,0-.094-.1.262.262,0,0,0-.138-.036.258.258,0,0,0-.138.036.251.251,0,0,0-.1.1.369.369,0,0,0,0,.31.246.246,0,0,0,.1.1.273.273,0,0,0,.138.036.277.277,0,0,0,.138-.036.261.261,0,0,0,.094-.1.369.369,0,0,0,0-.31Zm1.194-.1a.171.171,0,0,0-.136-.054.161.161,0,0,0-.118.045.169.169,0,0,0-.045.124.177.177,0,0,0,.045.13.159.159,0,0,0,.121.046.207.207,0,0,0,.087-.019.161.161,0,0,0,.065-.056.149.149,0,0,0,.026-.088A.191.191,0,0,0,108.077,648.629Zm.643,0a.165.165,0,0,0-.135-.054.159.159,0,0,0-.118.045.163.163,0,0,0-.045.124.171.171,0,0,0,.045.13.159.159,0,0,0,.121.046.2.2,0,0,0,.085-.019.155.155,0,0,0,.067-.056.148.148,0,0,0,.025-.088A.184.184,0,0,0,108.719,648.629Zm2.825,0a.169.169,0,0,0-.135-.054.162.162,0,0,0-.119.045.169.169,0,0,0-.045.124.177.177,0,0,0,.045.13.16.16,0,0,0,.122.046.205.205,0,0,0,.085-.019.161.161,0,0,0,.065-.056.149.149,0,0,0,.026-.088A.191.191,0,0,0,111.544,648.629Zm1.309.254a.165.165,0,0,0-.122-.045.2.2,0,0,0-.085.019.147.147,0,0,0-.065.054.152.152,0,0,0-.026.088.2.2,0,0,0,.045.13.174.174,0,0,0,.136.051.16.16,0,0,0,.118-.043.166.166,0,0,0,.045-.124A.179.179,0,0,0,112.853,648.883Zm.5-2.665-.119.367h.238Zm0,0-.119.367h.238Zm-.5,2.665a.165.165,0,0,0-.122-.045.2.2,0,0,0-.085.019.147.147,0,0,0-.065.054.152.152,0,0,0-.026.088.2.2,0,0,0,.045.13.174.174,0,0,0,.136.051.16.16,0,0,0,.118-.043.166.166,0,0,0,.045-.124A.179.179,0,0,0,112.853,648.883Zm-.666-.254a.165.165,0,0,0-.135-.054.159.159,0,0,0-.118.045.163.163,0,0,0-.045.124.171.171,0,0,0,.045.13.159.159,0,0,0,.121.046.2.2,0,0,0,.085-.019.155.155,0,0,0,.067-.056.148.148,0,0,0,.025-.088A.184.184,0,0,0,112.187,648.629Zm-.643,0a.169.169,0,0,0-.135-.054.162.162,0,0,0-.119.045.169.169,0,0,0-.045.124.177.177,0,0,0,.045.13.16.16,0,0,0,.122.046.205.205,0,0,0,.085-.019.161.161,0,0,0,.065-.056.149.149,0,0,0,.026-.088A.191.191,0,0,0,111.544,648.629Zm-2.825,0a.165.165,0,0,0-.135-.054.159.159,0,0,0-.118.045.163.163,0,0,0-.045.124.171.171,0,0,0,.045.13.159.159,0,0,0,.121.046.2.2,0,0,0,.085-.019.155.155,0,0,0,.067-.056.148.148,0,0,0,.025-.088A.184.184,0,0,0,108.719,648.629Zm-.643,0a.171.171,0,0,0-.136-.054.161.161,0,0,0-.118.045.169.169,0,0,0-.045.124.177.177,0,0,0,.045.13.159.159,0,0,0,.121.046.207.207,0,0,0,.087-.019.161.161,0,0,0,.065-.056.149.149,0,0,0,.026-.088A.191.191,0,0,0,108.077,648.629Zm-1.194.1a.248.248,0,0,0-.094-.1.262.262,0,0,0-.138-.036.258.258,0,0,0-.138.036.251.251,0,0,0-.1.1.369.369,0,0,0,0,.31.246.246,0,0,0,.1.1.273.273,0,0,0,.138.036.277.277,0,0,0,.138-.036.261.261,0,0,0,.094-.1.369.369,0,0,0,0-.31Zm0,0a.248.248,0,0,0-.094-.1.262.262,0,0,0-.138-.036.258.258,0,0,0-.138.036.251.251,0,0,0-.1.1.369.369,0,0,0,0,.31.246.246,0,0,0,.1.1.273.273,0,0,0,.138.036.277.277,0,0,0,.138-.036.261.261,0,0,0,.094-.1.369.369,0,0,0,0-.31Zm1.194-.1a.171.171,0,0,0-.136-.054.161.161,0,0,0-.118.045.169.169,0,0,0-.045.124.177.177,0,0,0,.045.13.159.159,0,0,0,.121.046.207.207,0,0,0,.087-.019.161.161,0,0,0,.065-.056.149.149,0,0,0,.026-.088A.191.191,0,0,0,108.077,648.629Zm.643,0a.165.165,0,0,0-.135-.054.159.159,0,0,0-.118.045.163.163,0,0,0-.045.124.171.171,0,0,0,.045.13.159.159,0,0,0,.121.046.2.2,0,0,0,.085-.019.155.155,0,0,0,.067-.056.148.148,0,0,0,.025-.088A.184.184,0,0,0,108.719,648.629Zm2.825,0a.169.169,0,0,0-.135-.054.162.162,0,0,0-.119.045.169.169,0,0,0-.045.124.177.177,0,0,0,.045.13.16.16,0,0,0,.122.046.205.205,0,0,0,.085-.019.161.161,0,0,0,.065-.056.149.149,0,0,0,.026-.088A.191.191,0,0,0,111.544,648.629Zm1.81-2.411-.119.367h.238Zm0,0-.119.367h.238Zm-1.81,2.411a.169.169,0,0,0-.135-.054.162.162,0,0,0-.119.045.169.169,0,0,0-.045.124.177.177,0,0,0,.045.13.16.16,0,0,0,.122.046.205.205,0,0,0,.085-.019.161.161,0,0,0,.065-.056.149.149,0,0,0,.026-.088A.191.191,0,0,0,111.544,648.629Zm-2.825,0a.165.165,0,0,0-.135-.054.159.159,0,0,0-.118.045.163.163,0,0,0-.045.124.171.171,0,0,0,.045.13.159.159,0,0,0,.121.046.2.2,0,0,0,.085-.019.155.155,0,0,0,.067-.056.148.148,0,0,0,.025-.088A.184.184,0,0,0,108.719,648.629Zm-.643,0a.171.171,0,0,0-.136-.054.161.161,0,0,0-.118.045.169.169,0,0,0-.045.124.177.177,0,0,0,.045.13.159.159,0,0,0,.121.046.207.207,0,0,0,.087-.019.161.161,0,0,0,.065-.056.149.149,0,0,0,.026-.088A.191.191,0,0,0,108.077,648.629Zm-1.194.1a.248.248,0,0,0-.094-.1.262.262,0,0,0-.138-.036.258.258,0,0,0-.138.036.251.251,0,0,0-.1.1.369.369,0,0,0,0,.31.246.246,0,0,0,.1.1.273.273,0,0,0,.138.036.277.277,0,0,0,.138-.036.261.261,0,0,0,.094-.1.369.369,0,0,0,0-.31Zm0,0a.248.248,0,0,0-.094-.1.262.262,0,0,0-.138-.036.258.258,0,0,0-.138.036.251.251,0,0,0-.1.1.369.369,0,0,0,0,.31.246.246,0,0,0,.1.1.273.273,0,0,0,.138.036.277.277,0,0,0,.138-.036.261.261,0,0,0,.094-.1.369.369,0,0,0,0-.31Zm1.194-.1a.171.171,0,0,0-.136-.054.161.161,0,0,0-.118.045.169.169,0,0,0-.045.124.177.177,0,0,0,.045.13.159.159,0,0,0,.121.046.207.207,0,0,0,.087-.019.161.161,0,0,0,.065-.056.149.149,0,0,0,.026-.088A.191.191,0,0,0,108.077,648.629Zm.643,0a.165.165,0,0,0-.135-.054.159.159,0,0,0-.118.045.163.163,0,0,0-.045.124.171.171,0,0,0,.045.13.159.159,0,0,0,.121.046.2.2,0,0,0,.085-.019.155.155,0,0,0,.067-.056.148.148,0,0,0,.025-.088A.184.184,0,0,0,108.719,648.629Zm4.635-2.411-.119.367h.238Zm0,0-.119.367h.238Zm-4.635,2.411a.165.165,0,0,0-.135-.054.159.159,0,0,0-.118.045.163.163,0,0,0-.045.124.171.171,0,0,0,.045.13.159.159,0,0,0,.121.046.2.2,0,0,0,.085-.019.155.155,0,0,0,.067-.056.148.148,0,0,0,.025-.088A.184.184,0,0,0,108.719,648.629Zm-.643,0a.171.171,0,0,0-.136-.054.161.161,0,0,0-.118.045.169.169,0,0,0-.045.124.177.177,0,0,0,.045.13.159.159,0,0,0,.121.046.207.207,0,0,0,.087-.019.161.161,0,0,0,.065-.056.149.149,0,0,0,.026-.088A.191.191,0,0,0,108.077,648.629Zm-1.194.1a.248.248,0,0,0-.094-.1.262.262,0,0,0-.138-.036.258.258,0,0,0-.138.036.251.251,0,0,0-.1.1.369.369,0,0,0,0,.31.246.246,0,0,0,.1.1.273.273,0,0,0,.138.036.277.277,0,0,0,.138-.036.261.261,0,0,0,.094-.1.369.369,0,0,0,0-.31Zm0,0a.248.248,0,0,0-.094-.1.262.262,0,0,0-.138-.036.258.258,0,0,0-.138.036.251.251,0,0,0-.1.1.369.369,0,0,0,0,.31.246.246,0,0,0,.1.1.273.273,0,0,0,.138.036.277.277,0,0,0,.138-.036.261.261,0,0,0,.094-.1.369.369,0,0,0,0-.31Zm1.194-.1a.171.171,0,0,0-.136-.054.161.161,0,0,0-.118.045.169.169,0,0,0-.045.124.177.177,0,0,0,.045.13.159.159,0,0,0,.121.046.207.207,0,0,0,.087-.019.161.161,0,0,0,.065-.056.149.149,0,0,0,.026-.088A.191.191,0,0,0,108.077,648.629Zm.643,0a.165.165,0,0,0-.135-.054.159.159,0,0,0-.118.045.163.163,0,0,0-.045.124.171.171,0,0,0,.045.13.159.159,0,0,0,.121.046.2.2,0,0,0,.085-.019.155.155,0,0,0,.067-.056.148.148,0,0,0,.025-.088A.184.184,0,0,0,108.719,648.629Zm4.635-2.411-.119.367h.238Zm0,0-.119.367h.238Zm-4.635,2.411a.165.165,0,0,0-.135-.054.159.159,0,0,0-.118.045.163.163,0,0,0-.045.124.171.171,0,0,0,.045.13.159.159,0,0,0,.121.046.2.2,0,0,0,.085-.019.155.155,0,0,0,.067-.056.148.148,0,0,0,.025-.088A.184.184,0,0,0,108.719,648.629Zm-.643,0a.171.171,0,0,0-.136-.054.161.161,0,0,0-.118.045.169.169,0,0,0-.045.124.177.177,0,0,0,.045.13.159.159,0,0,0,.121.046.207.207,0,0,0,.087-.019.161.161,0,0,0,.065-.056.149.149,0,0,0,.026-.088A.191.191,0,0,0,108.077,648.629Zm-1.194.1a.248.248,0,0,0-.094-.1.262.262,0,0,0-.138-.036.258.258,0,0,0-.138.036.251.251,0,0,0-.1.1.369.369,0,0,0,0,.31.246.246,0,0,0,.1.1.273.273,0,0,0,.138.036.277.277,0,0,0,.138-.036.261.261,0,0,0,.094-.1.369.369,0,0,0,0-.31Zm0,0a.248.248,0,0,0-.094-.1.262.262,0,0,0-.138-.036.258.258,0,0,0-.138.036.251.251,0,0,0-.1.1.369.369,0,0,0,0,.31.246.246,0,0,0,.1.1.273.273,0,0,0,.138.036.277.277,0,0,0,.138-.036.261.261,0,0,0,.094-.1.369.369,0,0,0,0-.31Zm1.194-.1a.171.171,0,0,0-.136-.054.161.161,0,0,0-.118.045.169.169,0,0,0-.045.124.177.177,0,0,0,.045.13.159.159,0,0,0,.121.046.207.207,0,0,0,.087-.019.161.161,0,0,0,.065-.056.149.149,0,0,0,.026-.088A.191.191,0,0,0,108.077,648.629Zm5.278-2.411-.119.367h.238Zm0,0-.119.367h.238Zm-5.278,2.411a.171.171,0,0,0-.136-.054.161.161,0,0,0-.118.045.169.169,0,0,0-.045.124.177.177,0,0,0,.045.13.159.159,0,0,0,.121.046.207.207,0,0,0,.087-.019.161.161,0,0,0,.065-.056.149.149,0,0,0,.026-.088A.191.191,0,0,0,108.077,648.629Zm-1.194.1a.248.248,0,0,0-.094-.1.262.262,0,0,0-.138-.036.258.258,0,0,0-.138.036.251.251,0,0,0-.1.1.369.369,0,0,0,0,.31.246.246,0,0,0,.1.1.273.273,0,0,0,.138.036.277.277,0,0,0,.138-.036.261.261,0,0,0,.094-.1.369.369,0,0,0,0-.31Zm0,0a.248.248,0,0,0-.094-.1.262.262,0,0,0-.138-.036.258.258,0,0,0-.138.036.251.251,0,0,0-.1.1.369.369,0,0,0,0,.31.246.246,0,0,0,.1.1.273.273,0,0,0,.138.036.277.277,0,0,0,.138-.036.261.261,0,0,0,.094-.1.369.369,0,0,0,0-.31Zm6.472-2.51-.119.367h.238Zm0,0-.119.367h.238Zm-6.472,2.51a.248.248,0,0,0-.094-.1.262.262,0,0,0-.138-.036.258.258,0,0,0-.138.036.251.251,0,0,0-.1.1.369.369,0,0,0,0,.31.246.246,0,0,0,.1.1.273.273,0,0,0,.138.036.277.277,0,0,0,.138-.036.261.261,0,0,0,.094-.1.369.369,0,0,0,0-.31Zm6.472-2.51-.119.367h.238Zm0,0-.119.367h.238Zm0,0-.119.367h.238Zm0,0-.119.367h.238Zm0,0-.119.367h.238Zm0,0-.119.367h.238Zm0,0-.119.367h.238Zm0,0-.119.367h.238Zm0,0-.119.367h.238Zm0,0-.119.367h.238Zm0,0-.119.367h.238Zm0,0-.119.367h.238Zm0,0-.119.367h.238Zm0,0-.119.367h.238Z" transform="translate(-100.023 -638.956)" fill="#4a4a4a"/>
</svg>
