<svg xmlns="http://www.w3.org/2000/svg" width="200" height="200" viewBox="0 0 200 200"><defs><style>.a{fill:rgba(74,74,74,0.5);}.b{fill:none;}</style></defs><g transform="translate(18379 3368)"><g transform="translate(-69.068 -84.068)"><path class="a" d="M152.608,667.244a.689.689,0,0,1,.182.508.68.68,0,0,1-.182.528.827.827,0,0,1-.547.163h-1.017v-1.381h1.017A.815.815,0,0,1,152.608,667.244Z" transform="translate(-18369.637 -3881.612)"/><path class="a" d="M156.827,620.782A74.966,74.966,0,1,0,231.8,695.753,74.966,74.966,0,0,0,156.827,620.782Zm0,145.042a70.08,70.08,0,0,1-15.7-138.378,1.118,1.118,0,0,0-.24.652c0,2.09,7.135,3.778,15.938,3.778s15.947-1.688,15.947-3.778a1.118,1.118,0,0,0-.24-.652,70.082,70.082,0,0,1-15.708,138.378Z" transform="translate(-18366.797 -3879.714)"/><path class="a" d="M165.3,666.634l-.738,2.273h1.477Zm0,0-.738,2.273h1.477Zm0,0-.738,2.273h1.477Zm0,0-.738,2.273h1.477Zm0,0-.738,2.273h1.477Zm0,0-.738,2.273h1.477Zm0,0-.738,2.273h1.477Zm0,0-.738,2.273h1.477Zm0,0-.738,2.273h1.477Zm0,0-.738,2.273h1.477Zm0,0-.738,2.273h1.477Zm0,0-.738,2.273h1.477Zm0,0-.738,2.273h1.477Zm0,0-.738,2.273h1.477Zm0,0-.738,2.273h1.477Zm0,0-.738,2.273h1.477Zm-40.075,15.545a1.532,1.532,0,0,0-.585-.623,1.623,1.623,0,0,0-.853-.22,1.6,1.6,0,0,0-.853.22,1.554,1.554,0,0,0-.595.623,2.285,2.285,0,0,0,0,1.918,1.521,1.521,0,0,0,.595.633,1.69,1.69,0,0,0,.853.221,1.716,1.716,0,0,0,.853-.221,1.621,1.621,0,0,0,.585-.633,2.285,2.285,0,0,0,0-1.918ZM165.3,666.634l-.738,2.273h1.477Zm0,0-.738,2.273h1.477Zm-40.075,15.545a1.532,1.532,0,0,0-.585-.623,1.623,1.623,0,0,0-.853-.22,1.6,1.6,0,0,0-.853.22,1.554,1.554,0,0,0-.595.623,2.285,2.285,0,0,0,0,1.918,1.521,1.521,0,0,0,.595.633,1.69,1.69,0,0,0,.853.221,1.716,1.716,0,0,0,.853-.221,1.621,1.621,0,0,0,.585-.633,2.285,2.285,0,0,0,0-1.918Zm0,0a1.532,1.532,0,0,0-.585-.623,1.623,1.623,0,0,0-.853-.22,1.6,1.6,0,0,0-.853.22,1.554,1.554,0,0,0-.595.623,2.285,2.285,0,0,0,0,1.918,1.521,1.521,0,0,0,.595.633,1.69,1.69,0,0,0,.853.221,1.716,1.716,0,0,0,.853-.221,1.621,1.621,0,0,0,.585-.633,2.285,2.285,0,0,0,0-1.918Zm7.394-.614a1.057,1.057,0,0,0-.844-.336,1,1,0,0,0-.729.278,1.046,1.046,0,0,0-.278.767,1.093,1.093,0,0,0,.278.805.981.981,0,0,0,.748.288,1.284,1.284,0,0,0,.537-.115,1,1,0,0,0,.4-.345.922.922,0,0,0,.163-.547A1.184,1.184,0,0,0,132.617,681.565Zm3.98,0a1.024,1.024,0,0,0-.834-.336.984.984,0,0,0-.729.278,1.008,1.008,0,0,0-.278.767,1.055,1.055,0,0,0,.278.805.981.981,0,0,0,.748.288,1.24,1.24,0,0,0,.527-.115.963.963,0,0,0,.412-.345.919.919,0,0,0,.153-.547A1.138,1.138,0,0,0,136.6,681.565Zm28.7-14.931-.738,2.273h1.477Zm0,0-.738,2.273h1.477Zm-28.7,14.931a1.024,1.024,0,0,0-.834-.336.984.984,0,0,0-.729.278,1.008,1.008,0,0,0-.278.767,1.055,1.055,0,0,0,.278.805.981.981,0,0,0,.748.288,1.24,1.24,0,0,0,.527-.115.963.963,0,0,0,.412-.345.919.919,0,0,0,.153-.547A1.138,1.138,0,0,0,136.6,681.565Zm-3.98,0a1.057,1.057,0,0,0-.844-.336,1,1,0,0,0-.729.278,1.046,1.046,0,0,0-.278.767,1.093,1.093,0,0,0,.278.805.981.981,0,0,0,.748.288,1.284,1.284,0,0,0,.537-.115,1,1,0,0,0,.4-.345.922.922,0,0,0,.163-.547A1.184,1.184,0,0,0,132.617,681.565Zm-7.394.614a1.532,1.532,0,0,0-.585-.623,1.623,1.623,0,0,0-.853-.22,1.6,1.6,0,0,0-.853.22,1.554,1.554,0,0,0-.595.623,2.285,2.285,0,0,0,0,1.918,1.521,1.521,0,0,0,.595.633,1.69,1.69,0,0,0,.853.221,1.716,1.716,0,0,0,.853-.221,1.621,1.621,0,0,0,.585-.633,2.285,2.285,0,0,0,0-1.918Zm0,0a1.532,1.532,0,0,0-.585-.623,1.623,1.623,0,0,0-.853-.22,1.6,1.6,0,0,0-.853.22,1.554,1.554,0,0,0-.595.623,2.285,2.285,0,0,0,0,1.918,1.521,1.521,0,0,0,.595.633,1.69,1.69,0,0,0,.853.221,1.716,1.716,0,0,0,.853-.221,1.621,1.621,0,0,0,.585-.633,2.285,2.285,0,0,0,0-1.918Zm7.394-.614a1.057,1.057,0,0,0-.844-.336,1,1,0,0,0-.729.278,1.046,1.046,0,0,0-.278.767,1.093,1.093,0,0,0,.278.805.981.981,0,0,0,.748.288,1.284,1.284,0,0,0,.537-.115,1,1,0,0,0,.4-.345.922.922,0,0,0,.163-.547A1.184,1.184,0,0,0,132.617,681.565Zm3.98,0a1.024,1.024,0,0,0-.834-.336.984.984,0,0,0-.729.278,1.008,1.008,0,0,0-.278.767,1.055,1.055,0,0,0,.278.805.981.981,0,0,0,.748.288,1.24,1.24,0,0,0,.527-.115.963.963,0,0,0,.412-.345.919.919,0,0,0,.153-.547A1.138,1.138,0,0,0,136.6,681.565Zm28.7-14.931-.738,2.273h1.477Zm0,0-.738,2.273h1.477Zm-28.7,14.931a1.024,1.024,0,0,0-.834-.336.984.984,0,0,0-.729.278,1.008,1.008,0,0,0-.278.767,1.055,1.055,0,0,0,.278.805.981.981,0,0,0,.748.288,1.24,1.24,0,0,0,.527-.115.963.963,0,0,0,.412-.345.919.919,0,0,0,.153-.547A1.138,1.138,0,0,0,136.6,681.565Zm-3.98,0a1.057,1.057,0,0,0-.844-.336,1,1,0,0,0-.729.278,1.046,1.046,0,0,0-.278.767,1.093,1.093,0,0,0,.278.805.981.981,0,0,0,.748.288,1.284,1.284,0,0,0,.537-.115,1,1,0,0,0,.4-.345.922.922,0,0,0,.163-.547A1.184,1.184,0,0,0,132.617,681.565Zm-7.394.614a1.532,1.532,0,0,0-.585-.623,1.623,1.623,0,0,0-.853-.22,1.6,1.6,0,0,0-.853.22,1.554,1.554,0,0,0-.595.623,2.285,2.285,0,0,0,0,1.918,1.521,1.521,0,0,0,.595.633,1.69,1.69,0,0,0,.853.221,1.716,1.716,0,0,0,.853-.221,1.621,1.621,0,0,0,.585-.633,2.285,2.285,0,0,0,0-1.918Zm0,0a1.532,1.532,0,0,0-.585-.623,1.623,1.623,0,0,0-.853-.22,1.6,1.6,0,0,0-.853.22,1.554,1.554,0,0,0-.595.623,2.285,2.285,0,0,0,0,1.918,1.521,1.521,0,0,0,.595.633,1.69,1.69,0,0,0,.853.221,1.716,1.716,0,0,0,.853-.221,1.621,1.621,0,0,0,.585-.633,2.285,2.285,0,0,0,0-1.918Zm7.394-.614a1.057,1.057,0,0,0-.844-.336,1,1,0,0,0-.729.278,1.046,1.046,0,0,0-.278.767,1.093,1.093,0,0,0,.278.805.981.981,0,0,0,.748.288,1.284,1.284,0,0,0,.537-.115,1,1,0,0,0,.4-.345.922.922,0,0,0,.163-.547A1.184,1.184,0,0,0,132.617,681.565Zm3.98,0a1.024,1.024,0,0,0-.834-.336.984.984,0,0,0-.729.278,1.008,1.008,0,0,0-.278.767,1.055,1.055,0,0,0,.278.805.981.981,0,0,0,.748.288,1.24,1.24,0,0,0,.527-.115.963.963,0,0,0,.412-.345.919.919,0,0,0,.153-.547A1.138,1.138,0,0,0,136.6,681.565Zm28.7-14.931-.738,2.273h1.477Zm0,0-.738,2.273h1.477Zm-28.7,14.931a1.024,1.024,0,0,0-.834-.336.984.984,0,0,0-.729.278,1.008,1.008,0,0,0-.278.767,1.055,1.055,0,0,0,.278.805.981.981,0,0,0,.748.288,1.24,1.24,0,0,0,.527-.115.963.963,0,0,0,.412-.345.919.919,0,0,0,.153-.547A1.138,1.138,0,0,0,136.6,681.565Zm-3.98,0a1.057,1.057,0,0,0-.844-.336,1,1,0,0,0-.729.278,1.046,1.046,0,0,0-.278.767,1.093,1.093,0,0,0,.278.805.981.981,0,0,0,.748.288,1.284,1.284,0,0,0,.537-.115,1,1,0,0,0,.4-.345.922.922,0,0,0,.163-.547A1.184,1.184,0,0,0,132.617,681.565Zm-7.394.614a1.532,1.532,0,0,0-.585-.623,1.623,1.623,0,0,0-.853-.22,1.6,1.6,0,0,0-.853.22,1.554,1.554,0,0,0-.595.623,2.285,2.285,0,0,0,0,1.918,1.521,1.521,0,0,0,.595.633,1.69,1.69,0,0,0,.853.221,1.716,1.716,0,0,0,.853-.221,1.621,1.621,0,0,0,.585-.633,2.285,2.285,0,0,0,0-1.918Zm0,0a1.532,1.532,0,0,0-.585-.623,1.623,1.623,0,0,0-.853-.22,1.6,1.6,0,0,0-.853.22,1.554,1.554,0,0,0-.595.623,2.285,2.285,0,0,0,0,1.918,1.521,1.521,0,0,0,.595.633,1.69,1.69,0,0,0,.853.221,1.716,1.716,0,0,0,.853-.221,1.621,1.621,0,0,0,.585-.633,2.285,2.285,0,0,0,0-1.918Zm7.394-.614a1.057,1.057,0,0,0-.844-.336,1,1,0,0,0-.729.278,1.046,1.046,0,0,0-.278.767,1.093,1.093,0,0,0,.278.805.981.981,0,0,0,.748.288,1.284,1.284,0,0,0,.537-.115,1,1,0,0,0,.4-.345.922.922,0,0,0,.163-.547A1.184,1.184,0,0,0,132.617,681.565Zm3.98,0a1.024,1.024,0,0,0-.834-.336.984.984,0,0,0-.729.278,1.008,1.008,0,0,0-.278.767,1.055,1.055,0,0,0,.278.805.981.981,0,0,0,.748.288,1.24,1.24,0,0,0,.527-.115.963.963,0,0,0,.412-.345.919.919,0,0,0,.153-.547A1.138,1.138,0,0,0,136.6,681.565Zm17.491,0a1.05,1.05,0,0,0-.834-.336,1.007,1.007,0,0,0-.738.278,1.046,1.046,0,0,0-.278.767,1.093,1.093,0,0,0,.278.805.989.989,0,0,0,.758.288,1.272,1.272,0,0,0,.527-.115,1,1,0,0,0,.4-.345.923.923,0,0,0,.163-.547A1.184,1.184,0,0,0,154.089,681.565Zm3.98,0a1.024,1.024,0,0,0-.834-.336.984.984,0,0,0-.729.278,1.008,1.008,0,0,0-.278.767,1.055,1.055,0,0,0,.278.805.981.981,0,0,0,.748.288,1.24,1.24,0,0,0,.527-.115.963.963,0,0,0,.412-.345.919.919,0,0,0,.153-.547A1.138,1.138,0,0,0,158.068,681.565Zm7.23-14.931-.738,2.273h1.477Zm0,0-.738,2.273h1.477Zm-11.21,14.931a1.05,1.05,0,0,0-.834-.336,1.007,1.007,0,0,0-.738.278,1.046,1.046,0,0,0-.278.767,1.093,1.093,0,0,0,.278.805.989.989,0,0,0,.758.288,1.272,1.272,0,0,0,.527-.115,1,1,0,0,0,.4-.345.923.923,0,0,0,.163-.547A1.184,1.184,0,0,0,154.089,681.565Zm-17.491,0a1.024,1.024,0,0,0-.834-.336.984.984,0,0,0-.729.278,1.008,1.008,0,0,0-.278.767,1.055,1.055,0,0,0,.278.805.981.981,0,0,0,.748.288,1.24,1.24,0,0,0,.527-.115.963.963,0,0,0,.412-.345.919.919,0,0,0,.153-.547A1.138,1.138,0,0,0,136.6,681.565Zm-3.98,0a1.057,1.057,0,0,0-.844-.336,1,1,0,0,0-.729.278,1.046,1.046,0,0,0-.278.767,1.093,1.093,0,0,0,.278.805.981.981,0,0,0,.748.288,1.284,1.284,0,0,0,.537-.115,1,1,0,0,0,.4-.345.922.922,0,0,0,.163-.547A1.184,1.184,0,0,0,132.617,681.565Zm-7.394.614a1.532,1.532,0,0,0-.585-.623,1.623,1.623,0,0,0-.853-.22,1.6,1.6,0,0,0-.853.22,1.554,1.554,0,0,0-.595.623,2.285,2.285,0,0,0,0,1.918,1.521,1.521,0,0,0,.595.633,1.69,1.69,0,0,0,.853.221,1.716,1.716,0,0,0,.853-.221,1.621,1.621,0,0,0,.585-.633,2.285,2.285,0,0,0,0-1.918Zm32.844-.614a1.024,1.024,0,0,0-.834-.336.984.984,0,0,0-.729.278,1.008,1.008,0,0,0-.278.767,1.055,1.055,0,0,0,.278.805.981.981,0,0,0,.748.288,1.24,1.24,0,0,0,.527-.115.963.963,0,0,0,.412-.345.919.919,0,0,0,.153-.547A1.138,1.138,0,0,0,158.068,681.565Zm-32.844.614a1.532,1.532,0,0,0-.585-.623,1.623,1.623,0,0,0-.853-.22,1.6,1.6,0,0,0-.853.22,1.554,1.554,0,0,0-.595.623,2.285,2.285,0,0,0,0,1.918,1.521,1.521,0,0,0,.595.633,1.69,1.69,0,0,0,.853.221,1.716,1.716,0,0,0,.853-.221,1.621,1.621,0,0,0,.585-.633,2.285,2.285,0,0,0,0-1.918Zm7.394-.614a1.057,1.057,0,0,0-.844-.336,1,1,0,0,0-.729.278,1.046,1.046,0,0,0-.278.767,1.093,1.093,0,0,0,.278.805.981.981,0,0,0,.748.288,1.284,1.284,0,0,0,.537-.115,1,1,0,0,0,.4-.345.922.922,0,0,0,.163-.547A1.184,1.184,0,0,0,132.617,681.565Zm3.98,0a1.024,1.024,0,0,0-.834-.336.984.984,0,0,0-.729.278,1.008,1.008,0,0,0-.278.767,1.055,1.055,0,0,0,.278.805.981.981,0,0,0,.748.288,1.24,1.24,0,0,0,.527-.115.963.963,0,0,0,.412-.345.919.919,0,0,0,.153-.547A1.138,1.138,0,0,0,136.6,681.565Zm17.491,0a1.05,1.05,0,0,0-.834-.336,1.007,1.007,0,0,0-.738.278,1.046,1.046,0,0,0-.278.767,1.093,1.093,0,0,0,.278.805.989.989,0,0,0,.758.288,1.272,1.272,0,0,0,.527-.115,1,1,0,0,0,.4-.345.923.923,0,0,0,.163-.547A1.184,1.184,0,0,0,154.089,681.565Zm3.98,0a1.024,1.024,0,0,0-.834-.336.984.984,0,0,0-.729.278,1.008,1.008,0,0,0-.278.767,1.055,1.055,0,0,0,.278.805.981.981,0,0,0,.748.288,1.24,1.24,0,0,0,.527-.115.963.963,0,0,0,.412-.345.919.919,0,0,0,.153-.547A1.138,1.138,0,0,0,158.068,681.565Zm4.124,1.573a1.022,1.022,0,0,0-.758-.278,1.251,1.251,0,0,0-.527.115.908.908,0,0,0-.4.336.943.943,0,0,0-.163.547,1.227,1.227,0,0,0,.278.806,1.079,1.079,0,0,0,.844.316.993.993,0,0,0,.729-.268,1.03,1.03,0,0,0,.278-.767A1.11,1.11,0,0,0,162.192,683.138Zm3.107-16.5-.738,2.273h1.477Zm1.084,15.535a1.223,1.223,0,0,0-.316-.6.9.9,0,0,0-.662-.23.874.874,0,0,0-.652.23,1.224,1.224,0,0,0-.316.6,5.191,5.191,0,0,0-.077.949,5.263,5.263,0,0,0,.077.949,1.212,1.212,0,0,0,.316.614.872.872,0,0,0,.652.23.9.9,0,0,0,.662-.23,1.212,1.212,0,0,0,.316-.614,5.268,5.268,0,0,0,.077-.949A5.2,5.2,0,0,0,166.382,682.17Zm0,0a1.223,1.223,0,0,0-.316-.6.9.9,0,0,0-.662-.23.874.874,0,0,0-.652.23,1.224,1.224,0,0,0-.316.6,5.191,5.191,0,0,0-.077.949,5.263,5.263,0,0,0,.077.949,1.212,1.212,0,0,0,.316.614.872.872,0,0,0,.652.23.9.9,0,0,0,.662-.23,1.212,1.212,0,0,0,.316-.614,5.268,5.268,0,0,0,.077-.949A5.2,5.2,0,0,0,166.382,682.17ZM165.3,666.634l-.738,2.273h1.477Zm-3.107,16.5a1.022,1.022,0,0,0-.758-.278,1.251,1.251,0,0,0-.527.115.908.908,0,0,0-.4.336.943.943,0,0,0-.163.547,1.227,1.227,0,0,0,.278.806,1.079,1.079,0,0,0,.844.316.993.993,0,0,0,.729-.268,1.03,1.03,0,0,0,.278-.767A1.11,1.11,0,0,0,162.192,683.138Zm-8.1-1.573a1.05,1.05,0,0,0-.834-.336,1.007,1.007,0,0,0-.738.278,1.046,1.046,0,0,0-.278.767,1.093,1.093,0,0,0,.278.805.989.989,0,0,0,.758.288,1.272,1.272,0,0,0,.527-.115,1,1,0,0,0,.4-.345.923.923,0,0,0,.163-.547A1.184,1.184,0,0,0,154.089,681.565Zm-17.491,0a1.024,1.024,0,0,0-.834-.336.984.984,0,0,0-.729.278,1.008,1.008,0,0,0-.278.767,1.055,1.055,0,0,0,.278.805.981.981,0,0,0,.748.288,1.24,1.24,0,0,0,.527-.115.963.963,0,0,0,.412-.345.919.919,0,0,0,.153-.547A1.138,1.138,0,0,0,136.6,681.565Zm-3.98,0a1.057,1.057,0,0,0-.844-.336,1,1,0,0,0-.729.278,1.046,1.046,0,0,0-.278.767,1.093,1.093,0,0,0,.278.805.981.981,0,0,0,.748.288,1.284,1.284,0,0,0,.537-.115,1,1,0,0,0,.4-.345.922.922,0,0,0,.163-.547A1.184,1.184,0,0,0,132.617,681.565Zm-7.394.614a1.532,1.532,0,0,0-.585-.623,1.623,1.623,0,0,0-.853-.22,1.6,1.6,0,0,0-.853.22,1.554,1.554,0,0,0-.595.623,2.285,2.285,0,0,0,0,1.918,1.521,1.521,0,0,0,.595.633,1.69,1.69,0,0,0,.853.221,1.716,1.716,0,0,0,.853-.221,1.621,1.621,0,0,0,.585-.633,2.285,2.285,0,0,0,0-1.918Zm32.844-.614a1.024,1.024,0,0,0-.834-.336.984.984,0,0,0-.729.278,1.008,1.008,0,0,0-.278.767,1.055,1.055,0,0,0,.278.805.981.981,0,0,0,.748.288,1.24,1.24,0,0,0,.527-.115.963.963,0,0,0,.412-.345.919.919,0,0,0,.153-.547A1.138,1.138,0,0,0,158.068,681.565Zm-32.844.614a1.532,1.532,0,0,0-.585-.623,1.623,1.623,0,0,0-.853-.22,1.6,1.6,0,0,0-.853.22,1.554,1.554,0,0,0-.595.623,2.285,2.285,0,0,0,0,1.918,1.521,1.521,0,0,0,.595.633,1.69,1.69,0,0,0,.853.221,1.716,1.716,0,0,0,.853-.221,1.621,1.621,0,0,0,.585-.633,2.285,2.285,0,0,0,0-1.918Zm7.394-.614a1.057,1.057,0,0,0-.844-.336,1,1,0,0,0-.729.278,1.046,1.046,0,0,0-.278.767,1.093,1.093,0,0,0,.278.805.981.981,0,0,0,.748.288,1.284,1.284,0,0,0,.537-.115,1,1,0,0,0,.4-.345.922.922,0,0,0,.163-.547A1.184,1.184,0,0,0,132.617,681.565Zm3.98,0a1.024,1.024,0,0,0-.834-.336.984.984,0,0,0-.729.278,1.008,1.008,0,0,0-.278.767,1.055,1.055,0,0,0,.278.805.981.981,0,0,0,.748.288,1.24,1.24,0,0,0,.527-.115.963.963,0,0,0,.412-.345.919.919,0,0,0,.153-.547A1.138,1.138,0,0,0,136.6,681.565Zm17.491,0a1.05,1.05,0,0,0-.834-.336,1.007,1.007,0,0,0-.738.278,1.046,1.046,0,0,0-.278.767,1.093,1.093,0,0,0,.278.805.989.989,0,0,0,.758.288,1.272,1.272,0,0,0,.527-.115,1,1,0,0,0,.4-.345.923.923,0,0,0,.163-.547A1.184,1.184,0,0,0,154.089,681.565Zm3.98,0a1.024,1.024,0,0,0-.834-.336.984.984,0,0,0-.729.278,1.008,1.008,0,0,0-.278.767,1.055,1.055,0,0,0,.278.805.981.981,0,0,0,.748.288,1.24,1.24,0,0,0,.527-.115.963.963,0,0,0,.412-.345.919.919,0,0,0,.153-.547A1.138,1.138,0,0,0,158.068,681.565Zm4.124,1.573a1.022,1.022,0,0,0-.758-.278,1.251,1.251,0,0,0-.527.115.908.908,0,0,0-.4.336.943.943,0,0,0-.163.547,1.227,1.227,0,0,0,.278.806,1.079,1.079,0,0,0,.844.316.993.993,0,0,0,.729-.268,1.03,1.03,0,0,0,.278-.767A1.11,1.11,0,0,0,162.192,683.138Zm3.107-16.5-.738,2.273h1.477Zm1.084,15.535a1.223,1.223,0,0,0-.316-.6.9.9,0,0,0-.662-.23.874.874,0,0,0-.652.23,1.224,1.224,0,0,0-.316.6,5.191,5.191,0,0,0-.077.949,5.263,5.263,0,0,0,.077.949,1.212,1.212,0,0,0,.316.614.872.872,0,0,0,.652.23.9.9,0,0,0,.662-.23,1.212,1.212,0,0,0,.316-.614,5.268,5.268,0,0,0,.077-.949A5.2,5.2,0,0,0,166.382,682.17Zm0,0a1.223,1.223,0,0,0-.316-.6.9.9,0,0,0-.662-.23.874.874,0,0,0-.652.23,1.224,1.224,0,0,0-.316.6,5.191,5.191,0,0,0-.077.949,5.263,5.263,0,0,0,.077.949,1.212,1.212,0,0,0,.316.614.872.872,0,0,0,.652.23.9.9,0,0,0,.662-.23,1.212,1.212,0,0,0,.316-.614,5.268,5.268,0,0,0,.077-.949A5.2,5.2,0,0,0,166.382,682.17ZM165.3,666.634l-.738,2.273h1.477Zm-3.107,16.5a1.022,1.022,0,0,0-.758-.278,1.251,1.251,0,0,0-.527.115.908.908,0,0,0-.4.336.943.943,0,0,0-.163.547,1.227,1.227,0,0,0,.278.806,1.079,1.079,0,0,0,.844.316.993.993,0,0,0,.729-.268,1.03,1.03,0,0,0,.278-.767A1.11,1.11,0,0,0,162.192,683.138Zm-8.1-1.573a1.05,1.05,0,0,0-.834-.336,1.007,1.007,0,0,0-.738.278,1.046,1.046,0,0,0-.278.767,1.093,1.093,0,0,0,.278.805.989.989,0,0,0,.758.288,1.272,1.272,0,0,0,.527-.115,1,1,0,0,0,.4-.345.923.923,0,0,0,.163-.547A1.184,1.184,0,0,0,154.089,681.565Zm-17.491,0a1.024,1.024,0,0,0-.834-.336.984.984,0,0,0-.729.278,1.008,1.008,0,0,0-.278.767,1.055,1.055,0,0,0,.278.805.981.981,0,0,0,.748.288,1.24,1.24,0,0,0,.527-.115.963.963,0,0,0,.412-.345.919.919,0,0,0,.153-.547A1.138,1.138,0,0,0,136.6,681.565Zm-3.98,0a1.057,1.057,0,0,0-.844-.336,1,1,0,0,0-.729.278,1.046,1.046,0,0,0-.278.767,1.093,1.093,0,0,0,.278.805.981.981,0,0,0,.748.288,1.284,1.284,0,0,0,.537-.115,1,1,0,0,0,.4-.345.922.922,0,0,0,.163-.547A1.184,1.184,0,0,0,132.617,681.565Zm-7.394.614a1.532,1.532,0,0,0-.585-.623,1.623,1.623,0,0,0-.853-.22,1.6,1.6,0,0,0-.853.22,1.554,1.554,0,0,0-.595.623,2.285,2.285,0,0,0,0,1.918,1.521,1.521,0,0,0,.595.633,1.69,1.69,0,0,0,.853.221,1.716,1.716,0,0,0,.853-.221,1.621,1.621,0,0,0,.585-.633,2.285,2.285,0,0,0,0-1.918Zm32.844-.614a1.024,1.024,0,0,0-.834-.336.984.984,0,0,0-.729.278,1.008,1.008,0,0,0-.278.767,1.055,1.055,0,0,0,.278.805.981.981,0,0,0,.748.288,1.24,1.24,0,0,0,.527-.115.963.963,0,0,0,.412-.345.919.919,0,0,0,.153-.547A1.138,1.138,0,0,0,158.068,681.565Zm-32.844.614a1.532,1.532,0,0,0-.585-.623,1.623,1.623,0,0,0-.853-.22,1.6,1.6,0,0,0-.853.22,1.554,1.554,0,0,0-.595.623,2.285,2.285,0,0,0,0,1.918,1.521,1.521,0,0,0,.595.633,1.69,1.69,0,0,0,.853.221,1.716,1.716,0,0,0,.853-.221,1.621,1.621,0,0,0,.585-.633,2.285,2.285,0,0,0,0-1.918Zm7.394-.614a1.057,1.057,0,0,0-.844-.336,1,1,0,0,0-.729.278,1.046,1.046,0,0,0-.278.767,1.093,1.093,0,0,0,.278.805.981.981,0,0,0,.748.288,1.284,1.284,0,0,0,.537-.115,1,1,0,0,0,.4-.345.922.922,0,0,0,.163-.547A1.184,1.184,0,0,0,132.617,681.565Zm3.98,0a1.024,1.024,0,0,0-.834-.336.984.984,0,0,0-.729.278,1.008,1.008,0,0,0-.278.767,1.055,1.055,0,0,0,.278.805.981.981,0,0,0,.748.288,1.24,1.24,0,0,0,.527-.115.963.963,0,0,0,.412-.345.919.919,0,0,0,.153-.547A1.138,1.138,0,0,0,136.6,681.565Zm17.491,0a1.05,1.05,0,0,0-.834-.336,1.007,1.007,0,0,0-.738.278,1.046,1.046,0,0,0-.278.767,1.093,1.093,0,0,0,.278.805.989.989,0,0,0,.758.288,1.272,1.272,0,0,0,.527-.115,1,1,0,0,0,.4-.345.923.923,0,0,0,.163-.547A1.184,1.184,0,0,0,154.089,681.565Zm3.98,0a1.024,1.024,0,0,0-.834-.336.984.984,0,0,0-.729.278,1.008,1.008,0,0,0-.278.767,1.055,1.055,0,0,0,.278.805.981.981,0,0,0,.748.288,1.24,1.24,0,0,0,.527-.115.963.963,0,0,0,.412-.345.919.919,0,0,0,.153-.547A1.138,1.138,0,0,0,158.068,681.565Zm4.124,1.573a1.022,1.022,0,0,0-.758-.278,1.251,1.251,0,0,0-.527.115.908.908,0,0,0-.4.336.943.943,0,0,0-.163.547,1.227,1.227,0,0,0,.278.806,1.079,1.079,0,0,0,.844.316.993.993,0,0,0,.729-.268,1.03,1.03,0,0,0,.278-.767A1.11,1.11,0,0,0,162.192,683.138Zm3.107-16.5-.738,2.273h1.477Zm1.084,15.535a1.223,1.223,0,0,0-.316-.6.9.9,0,0,0-.662-.23.874.874,0,0,0-.652.23,1.224,1.224,0,0,0-.316.6,5.191,5.191,0,0,0-.077.949,5.263,5.263,0,0,0,.077.949,1.212,1.212,0,0,0,.316.614.872.872,0,0,0,.652.23.9.9,0,0,0,.662-.23,1.212,1.212,0,0,0,.316-.614,5.268,5.268,0,0,0,.077-.949A5.2,5.2,0,0,0,166.382,682.17Zm8.065,0a1.224,1.224,0,0,0-.316-.6.9.9,0,0,0-.662-.23.874.874,0,0,0-.652.23,1.224,1.224,0,0,0-.316.6,5.188,5.188,0,0,0-.077.949,5.26,5.26,0,0,0,.077.949,1.212,1.212,0,0,0,.316.614.872.872,0,0,0,.652.23.9.9,0,0,0,.662-.23,1.213,1.213,0,0,0,.316-.614,5.274,5.274,0,0,0,.077-.949A5.2,5.2,0,0,0,174.447,682.17Zm0,0a1.224,1.224,0,0,0-.316-.6.9.9,0,0,0-.662-.23.874.874,0,0,0-.652.23,1.224,1.224,0,0,0-.316.6,5.188,5.188,0,0,0-.077.949,5.26,5.26,0,0,0,.077.949,1.212,1.212,0,0,0,.316.614.872.872,0,0,0,.652.23.9.9,0,0,0,.662-.23,1.213,1.213,0,0,0,.316-.614,5.274,5.274,0,0,0,.077-.949A5.2,5.2,0,0,0,174.447,682.17Zm-8.065,0a1.223,1.223,0,0,0-.316-.6.9.9,0,0,0-.662-.23.874.874,0,0,0-.652.23,1.224,1.224,0,0,0-.316.6,5.191,5.191,0,0,0-.077.949,5.263,5.263,0,0,0,.077.949,1.212,1.212,0,0,0,.316.614.872.872,0,0,0,.652.23.9.9,0,0,0,.662-.23,1.212,1.212,0,0,0,.316-.614,5.268,5.268,0,0,0,.077-.949A5.2,5.2,0,0,0,166.382,682.17ZM165.3,666.634l-.738,2.273h1.477Zm-3.107,16.5a1.022,1.022,0,0,0-.758-.278,1.251,1.251,0,0,0-.527.115.908.908,0,0,0-.4.336.943.943,0,0,0-.163.547,1.227,1.227,0,0,0,.278.806,1.079,1.079,0,0,0,.844.316.993.993,0,0,0,.729-.268,1.03,1.03,0,0,0,.278-.767A1.11,1.11,0,0,0,162.192,683.138Zm-8.1-1.573a1.05,1.05,0,0,0-.834-.336,1.007,1.007,0,0,0-.738.278,1.046,1.046,0,0,0-.278.767,1.093,1.093,0,0,0,.278.805.989.989,0,0,0,.758.288,1.272,1.272,0,0,0,.527-.115,1,1,0,0,0,.4-.345.923.923,0,0,0,.163-.547A1.184,1.184,0,0,0,154.089,681.565Zm-17.491,0a1.024,1.024,0,0,0-.834-.336.984.984,0,0,0-.729.278,1.008,1.008,0,0,0-.278.767,1.055,1.055,0,0,0,.278.805.981.981,0,0,0,.748.288,1.24,1.24,0,0,0,.527-.115.963.963,0,0,0,.412-.345.919.919,0,0,0,.153-.547A1.138,1.138,0,0,0,136.6,681.565Zm-3.98,0a1.057,1.057,0,0,0-.844-.336,1,1,0,0,0-.729.278,1.046,1.046,0,0,0-.278.767,1.093,1.093,0,0,0,.278.805.981.981,0,0,0,.748.288,1.284,1.284,0,0,0,.537-.115,1,1,0,0,0,.4-.345.922.922,0,0,0,.163-.547A1.184,1.184,0,0,0,132.617,681.565Zm-7.394.614a1.532,1.532,0,0,0-.585-.623,1.623,1.623,0,0,0-.853-.22,1.6,1.6,0,0,0-.853.22,1.554,1.554,0,0,0-.595.623,2.285,2.285,0,0,0,0,1.918,1.521,1.521,0,0,0,.595.633,1.69,1.69,0,0,0,.853.221,1.716,1.716,0,0,0,.853-.221,1.621,1.621,0,0,0,.585-.633,2.285,2.285,0,0,0,0-1.918Zm32.844-.614a1.024,1.024,0,0,0-.834-.336.984.984,0,0,0-.729.278,1.008,1.008,0,0,0-.278.767,1.055,1.055,0,0,0,.278.805.981.981,0,0,0,.748.288,1.24,1.24,0,0,0,.527-.115.963.963,0,0,0,.412-.345.919.919,0,0,0,.153-.547A1.138,1.138,0,0,0,158.068,681.565Zm-32.844.614a1.532,1.532,0,0,0-.585-.623,1.623,1.623,0,0,0-.853-.22,1.6,1.6,0,0,0-.853.22,1.554,1.554,0,0,0-.595.623,2.285,2.285,0,0,0,0,1.918,1.521,1.521,0,0,0,.595.633,1.69,1.69,0,0,0,.853.221,1.716,1.716,0,0,0,.853-.221,1.621,1.621,0,0,0,.585-.633,2.285,2.285,0,0,0,0-1.918Zm7.394-.614a1.057,1.057,0,0,0-.844-.336,1,1,0,0,0-.729.278,1.046,1.046,0,0,0-.278.767,1.093,1.093,0,0,0,.278.805.981.981,0,0,0,.748.288,1.284,1.284,0,0,0,.537-.115,1,1,0,0,0,.4-.345.922.922,0,0,0,.163-.547A1.184,1.184,0,0,0,132.617,681.565Zm3.98,0a1.024,1.024,0,0,0-.834-.336.984.984,0,0,0-.729.278,1.008,1.008,0,0,0-.278.767,1.055,1.055,0,0,0,.278.805.981.981,0,0,0,.748.288,1.24,1.24,0,0,0,.527-.115.963.963,0,0,0,.412-.345.919.919,0,0,0,.153-.547A1.138,1.138,0,0,0,136.6,681.565Zm17.491,0a1.05,1.05,0,0,0-.834-.336,1.007,1.007,0,0,0-.738.278,1.046,1.046,0,0,0-.278.767,1.093,1.093,0,0,0,.278.805.989.989,0,0,0,.758.288,1.272,1.272,0,0,0,.527-.115,1,1,0,0,0,.4-.345.923.923,0,0,0,.163-.547A1.184,1.184,0,0,0,154.089,681.565Zm3.98,0a1.024,1.024,0,0,0-.834-.336.984.984,0,0,0-.729.278,1.008,1.008,0,0,0-.278.767,1.055,1.055,0,0,0,.278.805.981.981,0,0,0,.748.288,1.24,1.24,0,0,0,.527-.115.963.963,0,0,0,.412-.345.919.919,0,0,0,.153-.547A1.138,1.138,0,0,0,158.068,681.565Zm4.124,1.573a1.022,1.022,0,0,0-.758-.278,1.251,1.251,0,0,0-.527.115.908.908,0,0,0-.4.336.943.943,0,0,0-.163.547,1.227,1.227,0,0,0,.278.806,1.079,1.079,0,0,0,.844.316.993.993,0,0,0,.729-.268,1.03,1.03,0,0,0,.278-.767A1.11,1.11,0,0,0,162.192,683.138Zm3.107-16.5-.738,2.273h1.477Zm1.084,15.535a1.223,1.223,0,0,0-.316-.6.9.9,0,0,0-.662-.23.874.874,0,0,0-.652.23,1.224,1.224,0,0,0-.316.6,5.191,5.191,0,0,0-.077.949,5.263,5.263,0,0,0,.077.949,1.212,1.212,0,0,0,.316.614.872.872,0,0,0,.652.23.9.9,0,0,0,.662-.23,1.212,1.212,0,0,0,.316-.614,5.268,5.268,0,0,0,.077-.949A5.2,5.2,0,0,0,166.382,682.17Zm8.065,0a1.224,1.224,0,0,0-.316-.6.9.9,0,0,0-.662-.23.874.874,0,0,0-.652.23,1.224,1.224,0,0,0-.316.6,5.188,5.188,0,0,0-.077.949,5.26,5.26,0,0,0,.077.949,1.212,1.212,0,0,0,.316.614.872.872,0,0,0,.652.23.9.9,0,0,0,.662-.23,1.213,1.213,0,0,0,.316-.614,5.274,5.274,0,0,0,.077-.949A5.2,5.2,0,0,0,174.447,682.17Zm0,0a1.224,1.224,0,0,0-.316-.6.9.9,0,0,0-.662-.23.874.874,0,0,0-.652.23,1.224,1.224,0,0,0-.316.6,5.188,5.188,0,0,0-.077.949,5.26,5.26,0,0,0,.077.949,1.212,1.212,0,0,0,.316.614.872.872,0,0,0,.652.23.9.9,0,0,0,.662-.23,1.213,1.213,0,0,0,.316-.614,5.274,5.274,0,0,0,.077-.949A5.2,5.2,0,0,0,174.447,682.17Zm-8.065,0a1.223,1.223,0,0,0-.316-.6.9.9,0,0,0-.662-.23.874.874,0,0,0-.652.23,1.224,1.224,0,0,0-.316.6,5.191,5.191,0,0,0-.077.949,5.263,5.263,0,0,0,.077.949,1.212,1.212,0,0,0,.316.614.872.872,0,0,0,.652.23.9.9,0,0,0,.662-.23,1.212,1.212,0,0,0,.316-.614,5.268,5.268,0,0,0,.077-.949A5.2,5.2,0,0,0,166.382,682.17ZM165.3,666.634l-.738,2.273h1.477Zm-3.107,16.5a1.022,1.022,0,0,0-.758-.278,1.251,1.251,0,0,0-.527.115.908.908,0,0,0-.4.336.943.943,0,0,0-.163.547,1.227,1.227,0,0,0,.278.806,1.079,1.079,0,0,0,.844.316.993.993,0,0,0,.729-.268,1.03,1.03,0,0,0,.278-.767A1.11,1.11,0,0,0,162.192,683.138Zm-8.1-1.573a1.05,1.05,0,0,0-.834-.336,1.007,1.007,0,0,0-.738.278,1.046,1.046,0,0,0-.278.767,1.093,1.093,0,0,0,.278.805.989.989,0,0,0,.758.288,1.272,1.272,0,0,0,.527-.115,1,1,0,0,0,.4-.345.923.923,0,0,0,.163-.547A1.184,1.184,0,0,0,154.089,681.565Zm-17.491,0a1.024,1.024,0,0,0-.834-.336.984.984,0,0,0-.729.278,1.008,1.008,0,0,0-.278.767,1.055,1.055,0,0,0,.278.805.981.981,0,0,0,.748.288,1.24,1.24,0,0,0,.527-.115.963.963,0,0,0,.412-.345.919.919,0,0,0,.153-.547A1.138,1.138,0,0,0,136.6,681.565Zm-3.98,0a1.057,1.057,0,0,0-.844-.336,1,1,0,0,0-.729.278,1.046,1.046,0,0,0-.278.767,1.093,1.093,0,0,0,.278.805.981.981,0,0,0,.748.288,1.284,1.284,0,0,0,.537-.115,1,1,0,0,0,.4-.345.922.922,0,0,0,.163-.547A1.184,1.184,0,0,0,132.617,681.565Zm-7.394.614a1.532,1.532,0,0,0-.585-.623,1.623,1.623,0,0,0-.853-.22,1.6,1.6,0,0,0-.853.22,1.554,1.554,0,0,0-.595.623,2.285,2.285,0,0,0,0,1.918,1.521,1.521,0,0,0,.595.633,1.69,1.69,0,0,0,.853.221,1.716,1.716,0,0,0,.853-.221,1.621,1.621,0,0,0,.585-.633,2.285,2.285,0,0,0,0-1.918Zm32.844-.614a1.024,1.024,0,0,0-.834-.336.984.984,0,0,0-.729.278,1.008,1.008,0,0,0-.278.767,1.055,1.055,0,0,0,.278.805.981.981,0,0,0,.748.288,1.24,1.24,0,0,0,.527-.115.963.963,0,0,0,.412-.345.919.919,0,0,0,.153-.547A1.138,1.138,0,0,0,158.068,681.565Zm-32.844.614a1.532,1.532,0,0,0-.585-.623,1.623,1.623,0,0,0-.853-.22,1.6,1.6,0,0,0-.853.22,1.554,1.554,0,0,0-.595.623,2.285,2.285,0,0,0,0,1.918,1.521,1.521,0,0,0,.595.633,1.69,1.69,0,0,0,.853.221,1.716,1.716,0,0,0,.853-.221,1.621,1.621,0,0,0,.585-.633,2.285,2.285,0,0,0,0-1.918Zm7.394-.614a1.057,1.057,0,0,0-.844-.336,1,1,0,0,0-.729.278,1.046,1.046,0,0,0-.278.767,1.093,1.093,0,0,0,.278.805.981.981,0,0,0,.748.288,1.284,1.284,0,0,0,.537-.115,1,1,0,0,0,.4-.345.922.922,0,0,0,.163-.547A1.184,1.184,0,0,0,132.617,681.565Zm3.98,0a1.024,1.024,0,0,0-.834-.336.984.984,0,0,0-.729.278,1.008,1.008,0,0,0-.278.767,1.055,1.055,0,0,0,.278.805.981.981,0,0,0,.748.288,1.24,1.24,0,0,0,.527-.115.963.963,0,0,0,.412-.345.919.919,0,0,0,.153-.547A1.138,1.138,0,0,0,136.6,681.565Zm17.491,0a1.05,1.05,0,0,0-.834-.336,1.007,1.007,0,0,0-.738.278,1.046,1.046,0,0,0-.278.767,1.093,1.093,0,0,0,.278.805.989.989,0,0,0,.758.288,1.272,1.272,0,0,0,.527-.115,1,1,0,0,0,.4-.345.923.923,0,0,0,.163-.547A1.184,1.184,0,0,0,154.089,681.565Zm3.98,0a1.024,1.024,0,0,0-.834-.336.984.984,0,0,0-.729.278,1.008,1.008,0,0,0-.278.767,1.055,1.055,0,0,0,.278.805.981.981,0,0,0,.748.288,1.24,1.24,0,0,0,.527-.115.963.963,0,0,0,.412-.345.919.919,0,0,0,.153-.547A1.138,1.138,0,0,0,158.068,681.565Zm4.124,1.573a1.022,1.022,0,0,0-.758-.278,1.251,1.251,0,0,0-.527.115.908.908,0,0,0-.4.336.943.943,0,0,0-.163.547,1.227,1.227,0,0,0,.278.806,1.079,1.079,0,0,0,.844.316.993.993,0,0,0,.729-.268,1.03,1.03,0,0,0,.278-.767A1.11,1.11,0,0,0,162.192,683.138Zm3.107-16.5-.738,2.273h1.477Zm1.084,15.535a1.223,1.223,0,0,0-.316-.6.9.9,0,0,0-.662-.23.874.874,0,0,0-.652.23,1.224,1.224,0,0,0-.316.6,5.191,5.191,0,0,0-.077.949,5.263,5.263,0,0,0,.077.949,1.212,1.212,0,0,0,.316.614.872.872,0,0,0,.652.23.9.9,0,0,0,.662-.23,1.212,1.212,0,0,0,.316-.614,5.268,5.268,0,0,0,.077-.949A5.2,5.2,0,0,0,166.382,682.17Zm8.065,0a1.224,1.224,0,0,0-.316-.6.9.9,0,0,0-.662-.23.874.874,0,0,0-.652.23,1.224,1.224,0,0,0-.316.6,5.188,5.188,0,0,0-.077.949,5.26,5.26,0,0,0,.077.949,1.212,1.212,0,0,0,.316.614.872.872,0,0,0,.652.23.9.9,0,0,0,.662-.23,1.213,1.213,0,0,0,.316-.614,5.274,5.274,0,0,0,.077-.949A5.2,5.2,0,0,0,174.447,682.17Zm7.739,0a1.213,1.213,0,0,0-.307-.6,1.068,1.068,0,0,0-1.323,0,1.141,1.141,0,0,0-.307.6,4.392,4.392,0,0,0-.086.949,4.45,4.45,0,0,0,.086.949,1.134,1.134,0,0,0,.307.614,1.067,1.067,0,0,0,1.323,0,1.2,1.2,0,0,0,.307-.614,4.452,4.452,0,0,0,.086-.949A4.395,4.395,0,0,0,182.186,682.17Zm4.028,0a1.224,1.224,0,0,0-.317-.6,1.054,1.054,0,0,0-1.314,0,1.223,1.223,0,0,0-.316.6,5.188,5.188,0,0,0-.077.949,5.26,5.26,0,0,0,.077.949,1.211,1.211,0,0,0,.316.614,1.053,1.053,0,0,0,1.314,0,1.213,1.213,0,0,0,.317-.614,4.519,4.519,0,0,0,.077-.949A4.465,4.465,0,0,0,186.214,682.17Zm0,0a1.224,1.224,0,0,0-.317-.6,1.054,1.054,0,0,0-1.314,0,1.223,1.223,0,0,0-.316.6,5.188,5.188,0,0,0-.077.949,5.26,5.26,0,0,0,.077.949,1.211,1.211,0,0,0,.316.614,1.053,1.053,0,0,0,1.314,0,1.213,1.213,0,0,0,.317-.614,4.519,4.519,0,0,0,.077-.949A4.465,4.465,0,0,0,186.214,682.17Zm-4.028,0a1.213,1.213,0,0,0-.307-.6,1.068,1.068,0,0,0-1.323,0,1.141,1.141,0,0,0-.307.6,4.392,4.392,0,0,0-.086.949,4.45,4.45,0,0,0,.086.949,1.134,1.134,0,0,0,.307.614,1.067,1.067,0,0,0,1.323,0,1.2,1.2,0,0,0,.307-.614,4.452,4.452,0,0,0,.086-.949A4.395,4.395,0,0,0,182.186,682.17Zm-7.739,0a1.224,1.224,0,0,0-.316-.6.9.9,0,0,0-.662-.23.874.874,0,0,0-.652.23,1.224,1.224,0,0,0-.316.6,5.188,5.188,0,0,0-.077.949,5.26,5.26,0,0,0,.077.949,1.212,1.212,0,0,0,.316.614.872.872,0,0,0,.652.23.9.9,0,0,0,.662-.23,1.213,1.213,0,0,0,.316-.614,5.274,5.274,0,0,0,.077-.949A5.2,5.2,0,0,0,174.447,682.17Zm-8.065,0a1.223,1.223,0,0,0-.316-.6.9.9,0,0,0-.662-.23.874.874,0,0,0-.652.23,1.224,1.224,0,0,0-.316.6,5.191,5.191,0,0,0-.077.949,5.263,5.263,0,0,0,.077.949,1.212,1.212,0,0,0,.316.614.872.872,0,0,0,.652.23.9.9,0,0,0,.662-.23,1.212,1.212,0,0,0,.316-.614,5.268,5.268,0,0,0,.077-.949A5.2,5.2,0,0,0,166.382,682.17ZM165.3,666.634l-.738,2.273h1.477Zm-3.107,16.5a1.022,1.022,0,0,0-.758-.278,1.251,1.251,0,0,0-.527.115.908.908,0,0,0-.4.336.943.943,0,0,0-.163.547,1.227,1.227,0,0,0,.278.806,1.079,1.079,0,0,0,.844.316.993.993,0,0,0,.729-.268,1.03,1.03,0,0,0,.278-.767A1.11,1.11,0,0,0,162.192,683.138Zm-8.1-1.573a1.05,1.05,0,0,0-.834-.336,1.007,1.007,0,0,0-.738.278,1.046,1.046,0,0,0-.278.767,1.093,1.093,0,0,0,.278.805.989.989,0,0,0,.758.288,1.272,1.272,0,0,0,.527-.115,1,1,0,0,0,.4-.345.923.923,0,0,0,.163-.547A1.184,1.184,0,0,0,154.089,681.565Zm-17.491,0a1.024,1.024,0,0,0-.834-.336.984.984,0,0,0-.729.278,1.008,1.008,0,0,0-.278.767,1.055,1.055,0,0,0,.278.805.981.981,0,0,0,.748.288,1.24,1.24,0,0,0,.527-.115.963.963,0,0,0,.412-.345.919.919,0,0,0,.153-.547A1.138,1.138,0,0,0,136.6,681.565Zm-3.98,0a1.057,1.057,0,0,0-.844-.336,1,1,0,0,0-.729.278,1.046,1.046,0,0,0-.278.767,1.093,1.093,0,0,0,.278.805.981.981,0,0,0,.748.288,1.284,1.284,0,0,0,.537-.115,1,1,0,0,0,.4-.345.922.922,0,0,0,.163-.547A1.184,1.184,0,0,0,132.617,681.565Zm-7.394.614a1.532,1.532,0,0,0-.585-.623,1.623,1.623,0,0,0-.853-.22,1.6,1.6,0,0,0-.853.22,1.554,1.554,0,0,0-.595.623,2.285,2.285,0,0,0,0,1.918,1.521,1.521,0,0,0,.595.633,1.69,1.69,0,0,0,.853.221,1.716,1.716,0,0,0,.853-.221,1.621,1.621,0,0,0,.585-.633,2.285,2.285,0,0,0,0-1.918Zm32.844-.614a1.024,1.024,0,0,0-.834-.336.984.984,0,0,0-.729.278,1.008,1.008,0,0,0-.278.767,1.055,1.055,0,0,0,.278.805.981.981,0,0,0,.748.288,1.24,1.24,0,0,0,.527-.115.963.963,0,0,0,.412-.345.919.919,0,0,0,.153-.547A1.138,1.138,0,0,0,158.068,681.565Zm-32.844.614a1.532,1.532,0,0,0-.585-.623,1.623,1.623,0,0,0-.853-.22,1.6,1.6,0,0,0-.853.22,1.554,1.554,0,0,0-.595.623,2.285,2.285,0,0,0,0,1.918,1.521,1.521,0,0,0,.595.633,1.69,1.69,0,0,0,.853.221,1.716,1.716,0,0,0,.853-.221,1.621,1.621,0,0,0,.585-.633,2.285,2.285,0,0,0,0-1.918Zm7.394-.614a1.057,1.057,0,0,0-.844-.336,1,1,0,0,0-.729.278,1.046,1.046,0,0,0-.278.767,1.093,1.093,0,0,0,.278.805.981.981,0,0,0,.748.288,1.284,1.284,0,0,0,.537-.115,1,1,0,0,0,.4-.345.922.922,0,0,0,.163-.547A1.184,1.184,0,0,0,132.617,681.565Zm3.98,0a1.024,1.024,0,0,0-.834-.336.984.984,0,0,0-.729.278,1.008,1.008,0,0,0-.278.767,1.055,1.055,0,0,0,.278.805.981.981,0,0,0,.748.288,1.24,1.24,0,0,0,.527-.115.963.963,0,0,0,.412-.345.919.919,0,0,0,.153-.547A1.138,1.138,0,0,0,136.6,681.565Zm17.491,0a1.05,1.05,0,0,0-.834-.336,1.007,1.007,0,0,0-.738.278,1.046,1.046,0,0,0-.278.767,1.093,1.093,0,0,0,.278.805.989.989,0,0,0,.758.288,1.272,1.272,0,0,0,.527-.115,1,1,0,0,0,.4-.345.923.923,0,0,0,.163-.547A1.184,1.184,0,0,0,154.089,681.565Zm3.98,0a1.024,1.024,0,0,0-.834-.336.984.984,0,0,0-.729.278,1.008,1.008,0,0,0-.278.767,1.055,1.055,0,0,0,.278.805.981.981,0,0,0,.748.288,1.24,1.24,0,0,0,.527-.115.963.963,0,0,0,.412-.345.919.919,0,0,0,.153-.547A1.138,1.138,0,0,0,158.068,681.565Zm4.124,1.573a1.022,1.022,0,0,0-.758-.278,1.251,1.251,0,0,0-.527.115.908.908,0,0,0-.4.336.943.943,0,0,0-.163.547,1.227,1.227,0,0,0,.278.806,1.079,1.079,0,0,0,.844.316.993.993,0,0,0,.729-.268,1.03,1.03,0,0,0,.278-.767A1.11,1.11,0,0,0,162.192,683.138Zm3.107-16.5-.738,2.273h1.477Zm1.084,15.535a1.223,1.223,0,0,0-.316-.6.9.9,0,0,0-.662-.23.874.874,0,0,0-.652.23,1.224,1.224,0,0,0-.316.6,5.191,5.191,0,0,0-.077.949,5.263,5.263,0,0,0,.077.949,1.212,1.212,0,0,0,.316.614.872.872,0,0,0,.652.23.9.9,0,0,0,.662-.23,1.212,1.212,0,0,0,.316-.614,5.268,5.268,0,0,0,.077-.949A5.2,5.2,0,0,0,166.382,682.17Zm8.065,0a1.224,1.224,0,0,0-.316-.6.9.9,0,0,0-.662-.23.874.874,0,0,0-.652.23,1.224,1.224,0,0,0-.316.6,5.188,5.188,0,0,0-.077.949,5.26,5.26,0,0,0,.077.949,1.212,1.212,0,0,0,.316.614.872.872,0,0,0,.652.23.9.9,0,0,0,.662-.23,1.213,1.213,0,0,0,.316-.614,5.274,5.274,0,0,0,.077-.949A5.2,5.2,0,0,0,174.447,682.17Zm7.739,0a1.213,1.213,0,0,0-.307-.6,1.068,1.068,0,0,0-1.323,0,1.141,1.141,0,0,0-.307.6,4.392,4.392,0,0,0-.086.949,4.45,4.45,0,0,0,.086.949,1.134,1.134,0,0,0,.307.614,1.067,1.067,0,0,0,1.323,0,1.2,1.2,0,0,0,.307-.614,4.452,4.452,0,0,0,.086-.949A4.395,4.395,0,0,0,182.186,682.17Zm4.028,0a1.224,1.224,0,0,0-.317-.6,1.054,1.054,0,0,0-1.314,0,1.223,1.223,0,0,0-.316.6,5.188,5.188,0,0,0-.077.949,5.26,5.26,0,0,0,.077.949,1.211,1.211,0,0,0,.316.614,1.053,1.053,0,0,0,1.314,0,1.213,1.213,0,0,0,.317-.614,4.519,4.519,0,0,0,.077-.949A4.465,4.465,0,0,0,186.214,682.17Zm0,0a1.224,1.224,0,0,0-.317-.6,1.054,1.054,0,0,0-1.314,0,1.223,1.223,0,0,0-.316.6,5.188,5.188,0,0,0-.077.949,5.26,5.26,0,0,0,.077.949,1.211,1.211,0,0,0,.316.614,1.053,1.053,0,0,0,1.314,0,1.213,1.213,0,0,0,.317-.614,4.519,4.519,0,0,0,.077-.949A4.465,4.465,0,0,0,186.214,682.17Zm-4.028,0a1.213,1.213,0,0,0-.307-.6,1.068,1.068,0,0,0-1.323,0,1.141,1.141,0,0,0-.307.6,4.392,4.392,0,0,0-.086.949,4.45,4.45,0,0,0,.086.949,1.134,1.134,0,0,0,.307.614,1.067,1.067,0,0,0,1.323,0,1.2,1.2,0,0,0,.307-.614,4.452,4.452,0,0,0,.086-.949A4.395,4.395,0,0,0,182.186,682.17Zm-7.739,0a1.224,1.224,0,0,0-.316-.6.9.9,0,0,0-.662-.23.874.874,0,0,0-.652.23,1.224,1.224,0,0,0-.316.6,5.188,5.188,0,0,0-.077.949,5.26,5.26,0,0,0,.077.949,1.212,1.212,0,0,0,.316.614.872.872,0,0,0,.652.23.9.9,0,0,0,.662-.23,1.213,1.213,0,0,0,.316-.614,5.274,5.274,0,0,0,.077-.949A5.2,5.2,0,0,0,174.447,682.17Zm-8.065,0a1.223,1.223,0,0,0-.316-.6.9.9,0,0,0-.662-.23.874.874,0,0,0-.652.23,1.224,1.224,0,0,0-.316.6,5.191,5.191,0,0,0-.077.949,5.263,5.263,0,0,0,.077.949,1.212,1.212,0,0,0,.316.614.872.872,0,0,0,.652.23.9.9,0,0,0,.662-.23,1.212,1.212,0,0,0,.316-.614,5.268,5.268,0,0,0,.077-.949A5.2,5.2,0,0,0,166.382,682.17ZM165.3,666.634l-.738,2.273h1.477Zm-3.107,16.5a1.022,1.022,0,0,0-.758-.278,1.251,1.251,0,0,0-.527.115.908.908,0,0,0-.4.336.943.943,0,0,0-.163.547,1.227,1.227,0,0,0,.278.806,1.079,1.079,0,0,0,.844.316.993.993,0,0,0,.729-.268,1.03,1.03,0,0,0,.278-.767A1.11,1.11,0,0,0,162.192,683.138Zm-8.1-1.573a1.05,1.05,0,0,0-.834-.336,1.007,1.007,0,0,0-.738.278,1.046,1.046,0,0,0-.278.767,1.093,1.093,0,0,0,.278.805.989.989,0,0,0,.758.288,1.272,1.272,0,0,0,.527-.115,1,1,0,0,0,.4-.345.923.923,0,0,0,.163-.547A1.184,1.184,0,0,0,154.089,681.565Zm-17.491,0a1.024,1.024,0,0,0-.834-.336.984.984,0,0,0-.729.278,1.008,1.008,0,0,0-.278.767,1.055,1.055,0,0,0,.278.805.981.981,0,0,0,.748.288,1.24,1.24,0,0,0,.527-.115.963.963,0,0,0,.412-.345.919.919,0,0,0,.153-.547A1.138,1.138,0,0,0,136.6,681.565Zm-3.98,0a1.057,1.057,0,0,0-.844-.336,1,1,0,0,0-.729.278,1.046,1.046,0,0,0-.278.767,1.093,1.093,0,0,0,.278.805.981.981,0,0,0,.748.288,1.284,1.284,0,0,0,.537-.115,1,1,0,0,0,.4-.345.922.922,0,0,0,.163-.547A1.184,1.184,0,0,0,132.617,681.565Zm-7.394.614a1.532,1.532,0,0,0-.585-.623,1.623,1.623,0,0,0-.853-.22,1.6,1.6,0,0,0-.853.22,1.554,1.554,0,0,0-.595.623,2.285,2.285,0,0,0,0,1.918,1.521,1.521,0,0,0,.595.633,1.69,1.69,0,0,0,.853.221,1.716,1.716,0,0,0,.853-.221,1.621,1.621,0,0,0,.585-.633,2.285,2.285,0,0,0,0-1.918Zm32.844-.614a1.024,1.024,0,0,0-.834-.336.984.984,0,0,0-.729.278,1.008,1.008,0,0,0-.278.767,1.055,1.055,0,0,0,.278.805.981.981,0,0,0,.748.288,1.24,1.24,0,0,0,.527-.115.963.963,0,0,0,.412-.345.919.919,0,0,0,.153-.547A1.138,1.138,0,0,0,158.068,681.565Zm38.9,0a1.068,1.068,0,0,0-1.323,0,1.212,1.212,0,0,0-.307.6,4.4,4.4,0,0,0-.086.949,4.454,4.454,0,0,0,.086.949,1.2,1.2,0,0,0,.307.614,1.067,1.067,0,0,0,1.323,0,1.132,1.132,0,0,0,.307-.614,4.454,4.454,0,0,0,.086-.949,4.4,4.4,0,0,0-.086-.949A1.139,1.139,0,0,0,196.963,681.565Zm-39.26-39.28a54.355,54.355,0,1,0,54.354,54.355A54.353,54.353,0,0,0,157.7,642.286Zm-3.289,22.623a2.509,2.509,0,0,1,1.122-.844,4.163,4.163,0,0,1,1.592-.288,3.668,3.668,0,0,1,2.321.672,2.6,2.6,0,0,1,.949,1.956h-2.752c-.038-.422-.221-.643-.527-.643a.35.35,0,0,0-.374.393.5.5,0,0,0,.3.432,5.379,5.379,0,0,0,.911.383,8.794,8.794,0,0,1,1.295.547,2.728,2.728,0,0,1,.9.8,2.184,2.184,0,0,1,.384,1.342,2.3,2.3,0,0,1-.364,1.266,2.492,2.492,0,0,1-1.055.892,3.757,3.757,0,0,1-1.64.326,4.069,4.069,0,0,1-2.417-.681,2.548,2.548,0,0,1-1.026-2.014h2.714c.038.47.249.7.623.7a.463.463,0,0,0,.316-.1.413.413,0,0,0,.125-.307.515.515,0,0,0-.3-.451,5.028,5.028,0,0,0-.949-.384,9.927,9.927,0,0,1-1.285-.518,2.75,2.75,0,0,1-.892-.787,2.531,2.531,0,0,1,.029-2.694Zm3.548,18.69a1.421,1.421,0,0,1-.834.24,1.459,1.459,0,0,1-1.084-.412,1.633,1.633,0,0,1-.393-1.16,1.784,1.784,0,0,1,.173-.787,1.282,1.282,0,0,1,.527-.556,1.692,1.692,0,0,1,.863-.211,1.49,1.49,0,0,1,1.371.614,3.342,3.342,0,0,1,.364,1.688,3.774,3.774,0,0,1-.374,1.86,1.376,1.376,0,0,1-1.275.633,1.4,1.4,0,0,1-1.036-.374,1.5,1.5,0,0,1-.441-.978h.556a1.083,1.083,0,0,0,.288.642.892.892,0,0,0,.633.22.941.941,0,0,0,.834-.432,2.523,2.523,0,0,0,.278-1.342v-.269A1.014,1.014,0,0,1,157.963,683.6Zm-11.431-19.688h3.8a3.682,3.682,0,0,1,1.688.355,2.429,2.429,0,0,1,1.055.949,2.713,2.713,0,0,1,.345,1.362,2.414,2.414,0,0,1-.451,1.458,2.493,2.493,0,0,1-1.3.9l1.774,3.126h-2.81l-1.544-2.925v2.925h-2.551Zm-25.825,21.548h-.595l-2.4-3.654v3.654h-.595v-4.622h.595l2.4,3.654v-3.654h.595Zm1.1-1.093a2.476,2.476,0,0,1-.3-1.228,2.438,2.438,0,0,1,.3-1.218,2.034,2.034,0,0,1,.815-.844,2.412,2.412,0,0,1,2.321,0,2.135,2.135,0,0,1,.805.844,2.438,2.438,0,0,1,.3,1.218,2.476,2.476,0,0,1-.3,1.228,2.2,2.2,0,0,1-.805.844,2.413,2.413,0,0,1-2.321,0A2.093,2.093,0,0,1,121.81,684.366Zm5.533,28.079h-4.948V696.382h4.948Zm2.062-26.986h-.633v-4.066h-.69v-.557H129.4Zm2.436.048a1.4,1.4,0,0,1-1.036-.374,1.551,1.551,0,0,1-.441-.978h.566a1.083,1.083,0,0,0,.288.642.868.868,0,0,0,.623.22.93.93,0,0,0,.834-.432,2.425,2.425,0,0,0,.288-1.342c0-.125-.01-.211-.01-.269a1.014,1.014,0,0,1-.451.624,1.391,1.391,0,0,1-.825.24,1.444,1.444,0,0,1-1.084-.412,1.591,1.591,0,0,1-.393-1.16,1.925,1.925,0,0,1,.163-.787,1.282,1.282,0,0,1,.527-.556,1.692,1.692,0,0,1,.863-.211,1.48,1.48,0,0,1,1.371.614,3.239,3.239,0,0,1,.374,1.688,3.764,3.764,0,0,1-.384,1.86A1.377,1.377,0,0,1,131.841,685.507Zm2.934,26.938H133.1V696.382h1.678Zm2.33-27.571a1.376,1.376,0,0,1-1.275.633,1.4,1.4,0,0,1-1.036-.374,1.56,1.56,0,0,1-.451-.978h.566a1.083,1.083,0,0,0,.288.642.892.892,0,0,0,.633.22.941.941,0,0,0,.834-.432,2.523,2.523,0,0,0,.278-1.342v-.269a1.014,1.014,0,0,1-.451.624,1.442,1.442,0,0,1-.834.24,1.459,1.459,0,0,1-1.084-.412,1.632,1.632,0,0,1-.393-1.16,1.784,1.784,0,0,1,.173-.787,1.316,1.316,0,0,1,.518-.556,1.754,1.754,0,0,1,.873-.211,1.49,1.49,0,0,1,1.371.614,3.341,3.341,0,0,1,.364,1.688A3.772,3.772,0,0,1,137.105,684.874Zm2.225,27.571h-1.678V696.382h1.678Zm-.479-27.331a1.471,1.471,0,0,1-.489-1.017h.585a1.033,1.033,0,0,0,.345.633.967.967,0,0,0,.671.23.941.941,0,0,0,.758-.307,1.16,1.16,0,0,0,.259-.787.93.93,0,0,0-1.007-1.016,1.187,1.187,0,0,0-.595.144.943.943,0,0,0-.384.393h-.585v-2.609h2.925v.528h-2.369v1.544a1.128,1.128,0,0,1,.47-.355,1.711,1.711,0,0,1,.671-.125,1.547,1.547,0,0,1,.825.2,1.292,1.292,0,0,1,.47.546,1.746,1.746,0,0,1,.163.748,1.7,1.7,0,0,1-.4,1.17,1.511,1.511,0,0,1-1.18.451A1.7,1.7,0,0,1,138.851,685.114Zm6.473,27.331h-4.555V696.382h4.555Zm.019-27.015h-3.184V685a9.492,9.492,0,0,0,1.784-1.486,2.109,2.109,0,0,0,.671-1.372.928.928,0,0,0-.2-.633.781.781,0,0,0-.643-.24.865.865,0,0,0-.7.288,1.412,1.412,0,0,0-.259.806h-.585a1.711,1.711,0,0,1,.47-1.189,1.559,1.559,0,0,1,1.122-.412,1.46,1.46,0,0,1,1.026.345,1.27,1.27,0,0,1,.384.978,1.946,1.946,0,0,1-.345,1.065,4.378,4.378,0,0,1-.844,1.007,6.632,6.632,0,0,1-1.045.786h2.349Zm.566-1.381h.594a1.076,1.076,0,0,0,.336.681,1,1,0,0,0,.729.259.986.986,0,0,0,.681-.22.81.81,0,0,0,.23-.595.713.713,0,0,0-.336-.652,1.687,1.687,0,0,0-.959-.23h-.153v-.5h.153q1.208,0,1.208-.806a.757.757,0,0,0-.221-.566.905.905,0,0,0-.623-.211.994.994,0,0,0-.662.23.982.982,0,0,0-.307.662h-.585a1.482,1.482,0,0,1,.451-1.026,1.66,1.66,0,0,1,1.122-.365,1.741,1.741,0,0,1,.767.154,1.112,1.112,0,0,1,.479.431,1.145,1.145,0,0,1,.163.624,1.028,1.028,0,0,1-.988,1.083v.039a1.782,1.782,0,0,1,.8.4,1.06,1.06,0,0,1,.278.767,1.243,1.243,0,0,1-.374.93,1.546,1.546,0,0,1-1.093.355,1.735,1.735,0,0,1-1.16-.364A1.606,1.606,0,0,1,145.909,684.049Zm4.689,28.4h-3.836V696.382H150.6Zm.278-26.986h-.633v-4.066h-.69v-.557h1.323Zm2.282,26.986h-1.122V696.382h1.122Zm.153-26.938a1.4,1.4,0,0,1-1.036-.374,1.551,1.551,0,0,1-.441-.978h.566a1.083,1.083,0,0,0,.288.642.884.884,0,0,0,.623.22.919.919,0,0,0,.834-.432,2.425,2.425,0,0,0,.288-1.342c0-.125-.01-.211-.01-.269a.979.979,0,0,1-.451.624,1.391,1.391,0,0,1-.825.24,1.444,1.444,0,0,1-1.084-.412,1.591,1.591,0,0,1-.393-1.16,1.784,1.784,0,0,1,.173-.787,1.207,1.207,0,0,1,.518-.556,1.692,1.692,0,0,1,.863-.211,1.48,1.48,0,0,1,1.371.614,3.239,3.239,0,0,1,.374,1.688,3.764,3.764,0,0,1-.383,1.86A1.366,1.366,0,0,1,153.312,685.507Zm9.513,26.938h-8.17V696.382h8.17Zm.038-27.7a1.284,1.284,0,0,1-.527.556,1.693,1.693,0,0,1-.863.2,1.453,1.453,0,0,1-1.362-.614,3.323,3.323,0,0,1-.374-1.7,3.418,3.418,0,0,1,.4-1.851,1.412,1.412,0,0,1,1.295-.624,1.339,1.339,0,0,1,1.016.374,1.583,1.583,0,0,1,.422.978h-.566a1.105,1.105,0,0,0-.278-.633.855.855,0,0,0-.633-.231.931.931,0,0,0-.834.432,2.541,2.541,0,0,0-.288,1.371v.24a1.031,1.031,0,0,1,.46-.623,1.459,1.459,0,0,1,.825-.23,1.409,1.409,0,0,1,1.084.413,1.607,1.607,0,0,1,.393,1.15A1.787,1.787,0,0,1,162.863,684.74Zm-2-12.678,2.973-8.152h2.954l2.963,8.152h-2.695l-.4-1.237h-2.714l-.4,1.237Zm2.906,11.057a3.512,3.512,0,0,1,.364-1.735,1.624,1.624,0,0,1,2.551.009,3.342,3.342,0,0,1,.374,1.726,3.407,3.407,0,0,1-.374,1.736,1.617,1.617,0,0,1-2.551,0A3.515,3.515,0,0,1,163.764,683.119Zm5.054,29.326h-4.555V696.382h4.555Zm-.393-27.331a1.442,1.442,0,0,1-.5-1.017h.595a1.072,1.072,0,0,0,.336.633,1,1,0,0,0,.671.23.928.928,0,0,0,.758-.307,1.16,1.16,0,0,0,.259-.787,1.014,1.014,0,0,0-.259-.748.972.972,0,0,0-.738-.268,1.225,1.225,0,0,0-.6.144,1,1,0,0,0-.384.393h-.575v-2.609h2.925v.528H168.53v1.544a1.193,1.193,0,0,1,.47-.355,1.759,1.759,0,0,1,.681-.125,1.535,1.535,0,0,1,.815.2,1.315,1.315,0,0,1,.479.546,1.74,1.74,0,0,1,.153.748,1.7,1.7,0,0,1-.4,1.17,1.489,1.489,0,0,1-1.17.451A1.678,1.678,0,0,1,168.425,685.114Zm5.188,27.331h-3.356V696.382h3.356Zm-.144-26.967a1.369,1.369,0,0,1-1.275-.623,4.316,4.316,0,0,1,0-3.471,1.624,1.624,0,0,1,2.551.009,3.341,3.341,0,0,1,.374,1.726,3.406,3.406,0,0,1-.374,1.736A1.369,1.369,0,0,1,173.469,685.478Zm4.219,26.967h-2.637V696.382h2.637Zm1.247-27.015h-3.174V685a10.151,10.151,0,0,0,1.784-1.486,2.137,2.137,0,0,0,.662-1.372.977.977,0,0,0-.192-.633.8.8,0,0,0-.652-.24.832.832,0,0,0-.69.288,1.348,1.348,0,0,0-.269.806h-.585a1.716,1.716,0,0,1,.479-1.189,1.536,1.536,0,0,1,1.112-.412,1.461,1.461,0,0,1,1.026.345,1.237,1.237,0,0,1,.384.978,2.011,2.011,0,0,1-.336,1.065,4.916,4.916,0,0,1-.844,1.007,7.656,7.656,0,0,1-1.045.786h2.34Zm3.548-.575a1.607,1.607,0,0,1-2.541,0,4.316,4.316,0,0,1,0-3.471,1.354,1.354,0,0,1,1.276-.614,1.335,1.335,0,0,1,1.266.624,3.341,3.341,0,0,1,.374,1.726A3.406,3.406,0,0,1,182.483,684.855Zm2.4,27.59h-1.2V696.382h1.2Zm.355-26.967a1.343,1.343,0,0,1-1.266-.623,4.214,4.214,0,0,1,0-3.471,1.614,1.614,0,0,1,2.541.009,3.341,3.341,0,0,1,.374,1.726,3.406,3.406,0,0,1-.374,1.736A1.359,1.359,0,0,1,185.235,685.478Zm3.481,26.967h-2.4V696.382h2.4Zm1.659-31.177-1.755,4.191h-.633l1.784-4.133h-2.426v-.518h3.03Zm3.366,31.177h-2.033V696.382h2.033Zm.278-27.015h-3.174V685a10.159,10.159,0,0,0,1.784-1.486,2.157,2.157,0,0,0,.671-1.372.928.928,0,0,0-.2-.633.8.8,0,0,0-.652-.24.832.832,0,0,0-.69.288,1.283,1.283,0,0,0-.259.806H190.9a1.716,1.716,0,0,1,.479-1.189,1.536,1.536,0,0,1,1.113-.412,1.461,1.461,0,0,1,1.026.345,1.237,1.237,0,0,1,.383.978,2.012,2.012,0,0,1-.336,1.065,4.914,4.914,0,0,1-.844,1.007,7.645,7.645,0,0,1-1.045.786h2.34Zm2.282.048a1.369,1.369,0,0,1-1.275-.623,4.315,4.315,0,0,1,0-3.471,1.624,1.624,0,0,1,2.551.009,3.446,3.446,0,0,1,.365,1.726,3.513,3.513,0,0,1-.365,1.736A1.369,1.369,0,0,1,196.3,685.478Zm-10.4-3.913a1.054,1.054,0,0,0-1.314,0,1.223,1.223,0,0,0-.316.6,5.188,5.188,0,0,0-.077.949,5.26,5.26,0,0,0,.077.949,1.211,1.211,0,0,0,.316.614,1.053,1.053,0,0,0,1.314,0,1.213,1.213,0,0,0,.317-.614,4.519,4.519,0,0,0,.077-.949,4.465,4.465,0,0,0-.077-.949A1.224,1.224,0,0,0,185.9,681.565Zm-4.018,0a1.068,1.068,0,0,0-1.323,0,1.141,1.141,0,0,0-.307.6,4.392,4.392,0,0,0-.086.949,4.45,4.45,0,0,0,.086.949,1.134,1.134,0,0,0,.307.614,1.067,1.067,0,0,0,1.323,0,1.2,1.2,0,0,0,.307-.614,4.452,4.452,0,0,0,.086-.949,4.395,4.395,0,0,0-.086-.949A1.213,1.213,0,0,0,181.879,681.565Zm-7.748,0a.9.9,0,0,0-.662-.23.874.874,0,0,0-.652.23,1.224,1.224,0,0,0-.316.6,5.188,5.188,0,0,0-.077.949,5.26,5.26,0,0,0,.077.949,1.212,1.212,0,0,0,.316.614.872.872,0,0,0,.652.23.9.9,0,0,0,.662-.23,1.213,1.213,0,0,0,.316-.614,5.274,5.274,0,0,0,.077-.949,5.2,5.2,0,0,0-.077-.949A1.224,1.224,0,0,0,174.131,681.565Zm-9.379,3.117a.872.872,0,0,0,.652.23.9.9,0,0,0,.662-.23,1.212,1.212,0,0,0,.316-.614,5.268,5.268,0,0,0,.077-.949,5.2,5.2,0,0,0-.077-.949,1.223,1.223,0,0,0-.316-.6.9.9,0,0,0-.662-.23.874.874,0,0,0-.652.23,1.224,1.224,0,0,0-.316.6,5.191,5.191,0,0,0-.077.949,5.263,5.263,0,0,0,.077.949A1.212,1.212,0,0,0,164.752,684.683Zm.547-18.048-.738,2.273h1.477Zm-3.865,16.226a1.251,1.251,0,0,0-.527.115.908.908,0,0,0-.4.336.943.943,0,0,0-.163.547,1.227,1.227,0,0,0,.278.806,1.079,1.079,0,0,0,.844.316.993.993,0,0,0,.729-.268,1.03,1.03,0,0,0,.278-.767,1.11,1.11,0,0,0-.278-.805A1.022,1.022,0,0,0,161.434,682.86Zm-4.2-1.631a.984.984,0,0,0-.729.278,1.008,1.008,0,0,0-.278.767,1.055,1.055,0,0,0,.278.805.981.981,0,0,0,.748.288,1.24,1.24,0,0,0,.527-.115.963.963,0,0,0,.412-.345.919.919,0,0,0,.153-.547,1.138,1.138,0,0,0-.278-.8A1.024,1.024,0,0,0,157.234,681.23Zm-3.98,0a1.007,1.007,0,0,0-.738.278,1.046,1.046,0,0,0-.278.767,1.093,1.093,0,0,0,.278.805.989.989,0,0,0,.758.288,1.272,1.272,0,0,0,.527-.115,1,1,0,0,0,.4-.345.923.923,0,0,0,.163-.547,1.184,1.184,0,0,0-.278-.8A1.05,1.05,0,0,0,153.254,681.23Zm-17.491,0a.984.984,0,0,0-.729.278,1.008,1.008,0,0,0-.278.767,1.055,1.055,0,0,0,.278.805.981.981,0,0,0,.748.288,1.24,1.24,0,0,0,.527-.115.963.963,0,0,0,.412-.345.919.919,0,0,0,.153-.547,1.138,1.138,0,0,0-.278-.8A1.024,1.024,0,0,0,135.763,681.23Zm-3.989,0a1,1,0,0,0-.729.278,1.046,1.046,0,0,0-.278.767,1.093,1.093,0,0,0,.278.805.981.981,0,0,0,.748.288,1.284,1.284,0,0,0,.537-.115,1,1,0,0,0,.4-.345.922.922,0,0,0,.163-.547,1.184,1.184,0,0,0-.278-.8A1.057,1.057,0,0,0,131.774,681.23Zm-7.988,3.721a1.716,1.716,0,0,0,.853-.221,1.621,1.621,0,0,0,.585-.633,2.285,2.285,0,0,0,0-1.918,1.532,1.532,0,0,0-.585-.623,1.623,1.623,0,0,0-.853-.22,1.6,1.6,0,0,0-.853.22,1.554,1.554,0,0,0-.595.623,2.285,2.285,0,0,0,0,1.918,1.521,1.521,0,0,0,.595.633A1.69,1.69,0,0,0,123.785,684.951Zm34.283-3.386a1.024,1.024,0,0,0-.834-.336.984.984,0,0,0-.729.278,1.008,1.008,0,0,0-.278.767,1.055,1.055,0,0,0,.278.805.981.981,0,0,0,.748.288,1.24,1.24,0,0,0,.527-.115.963.963,0,0,0,.412-.345.919.919,0,0,0,.153-.547A1.138,1.138,0,0,0,158.068,681.565Zm-32.844.614a1.532,1.532,0,0,0-.585-.623,1.623,1.623,0,0,0-.853-.22,1.6,1.6,0,0,0-.853.22,1.554,1.554,0,0,0-.595.623,2.285,2.285,0,0,0,0,1.918,1.521,1.521,0,0,0,.595.633,1.69,1.69,0,0,0,.853.221,1.716,1.716,0,0,0,.853-.221,1.621,1.621,0,0,0,.585-.633,2.285,2.285,0,0,0,0-1.918Zm7.394-.614a1.057,1.057,0,0,0-.844-.336,1,1,0,0,0-.729.278,1.046,1.046,0,0,0-.278.767,1.093,1.093,0,0,0,.278.805.981.981,0,0,0,.748.288,1.284,1.284,0,0,0,.537-.115,1,1,0,0,0,.4-.345.922.922,0,0,0,.163-.547A1.184,1.184,0,0,0,132.617,681.565Zm3.98,0a1.024,1.024,0,0,0-.834-.336.984.984,0,0,0-.729.278,1.008,1.008,0,0,0-.278.767,1.055,1.055,0,0,0,.278.805.981.981,0,0,0,.748.288,1.24,1.24,0,0,0,.527-.115.963.963,0,0,0,.412-.345.919.919,0,0,0,.153-.547A1.138,1.138,0,0,0,136.6,681.565Zm17.491,0a1.05,1.05,0,0,0-.834-.336,1.007,1.007,0,0,0-.738.278,1.046,1.046,0,0,0-.278.767,1.093,1.093,0,0,0,.278.805.989.989,0,0,0,.758.288,1.272,1.272,0,0,0,.527-.115,1,1,0,0,0,.4-.345.923.923,0,0,0,.163-.547A1.184,1.184,0,0,0,154.089,681.565Zm8.1,1.573a1.022,1.022,0,0,0-.758-.278,1.251,1.251,0,0,0-.527.115.908.908,0,0,0-.4.336.943.943,0,0,0-.163.547,1.227,1.227,0,0,0,.278.806,1.079,1.079,0,0,0,.844.316.993.993,0,0,0,.729-.268,1.03,1.03,0,0,0,.278-.767A1.11,1.11,0,0,0,162.192,683.138Zm3.107-16.5-.738,2.273h1.477Zm1.084,15.535a1.223,1.223,0,0,0-.316-.6.9.9,0,0,0-.662-.23.874.874,0,0,0-.652.23,1.224,1.224,0,0,0-.316.6,5.191,5.191,0,0,0-.077.949,5.263,5.263,0,0,0,.077.949,1.212,1.212,0,0,0,.316.614.872.872,0,0,0,.652.23.9.9,0,0,0,.662-.23,1.212,1.212,0,0,0,.316-.614,5.268,5.268,0,0,0,.077-.949A5.2,5.2,0,0,0,166.382,682.17Zm8.065,0a1.224,1.224,0,0,0-.316-.6.9.9,0,0,0-.662-.23.874.874,0,0,0-.652.23,1.224,1.224,0,0,0-.316.6,5.188,5.188,0,0,0-.077.949,5.26,5.26,0,0,0,.077.949,1.212,1.212,0,0,0,.316.614.872.872,0,0,0,.652.23.9.9,0,0,0,.662-.23,1.213,1.213,0,0,0,.316-.614,5.274,5.274,0,0,0,.077-.949A5.2,5.2,0,0,0,174.447,682.17Zm7.739,0a1.213,1.213,0,0,0-.307-.6,1.068,1.068,0,0,0-1.323,0,1.141,1.141,0,0,0-.307.6,4.392,4.392,0,0,0-.086.949,4.45,4.45,0,0,0,.086.949,1.134,1.134,0,0,0,.307.614,1.067,1.067,0,0,0,1.323,0,1.2,1.2,0,0,0,.307-.614,4.452,4.452,0,0,0,.086-.949A4.395,4.395,0,0,0,182.186,682.17Zm4.028,0a1.224,1.224,0,0,0-.317-.6,1.054,1.054,0,0,0-1.314,0,1.223,1.223,0,0,0-.316.6,5.188,5.188,0,0,0-.077.949,5.26,5.26,0,0,0,.077.949,1.211,1.211,0,0,0,.316.614,1.053,1.053,0,0,0,1.314,0,1.213,1.213,0,0,0,.317-.614,4.519,4.519,0,0,0,.077-.949A4.465,4.465,0,0,0,186.214,682.17Zm0,0a1.224,1.224,0,0,0-.317-.6,1.054,1.054,0,0,0-1.314,0,1.223,1.223,0,0,0-.316.6,5.188,5.188,0,0,0-.077.949,5.26,5.26,0,0,0,.077.949,1.211,1.211,0,0,0,.316.614,1.053,1.053,0,0,0,1.314,0,1.213,1.213,0,0,0,.317-.614,4.519,4.519,0,0,0,.077-.949A4.465,4.465,0,0,0,186.214,682.17Zm-4.028,0a1.213,1.213,0,0,0-.307-.6,1.068,1.068,0,0,0-1.323,0,1.141,1.141,0,0,0-.307.6,4.392,4.392,0,0,0-.086.949,4.45,4.45,0,0,0,.086.949,1.134,1.134,0,0,0,.307.614,1.067,1.067,0,0,0,1.323,0,1.2,1.2,0,0,0,.307-.614,4.452,4.452,0,0,0,.086-.949A4.395,4.395,0,0,0,182.186,682.17Zm-7.739,0a1.224,1.224,0,0,0-.316-.6.9.9,0,0,0-.662-.23.874.874,0,0,0-.652.23,1.224,1.224,0,0,0-.316.6,5.188,5.188,0,0,0-.077.949,5.26,5.26,0,0,0,.077.949,1.212,1.212,0,0,0,.316.614.872.872,0,0,0,.652.23.9.9,0,0,0,.662-.23,1.213,1.213,0,0,0,.316-.614,5.274,5.274,0,0,0,.077-.949A5.2,5.2,0,0,0,174.447,682.17Zm-8.065,0a1.223,1.223,0,0,0-.316-.6.9.9,0,0,0-.662-.23.874.874,0,0,0-.652.23,1.224,1.224,0,0,0-.316.6,5.191,5.191,0,0,0-.077.949,5.263,5.263,0,0,0,.077.949,1.212,1.212,0,0,0,.316.614.872.872,0,0,0,.652.23.9.9,0,0,0,.662-.23,1.212,1.212,0,0,0,.316-.614,5.268,5.268,0,0,0,.077-.949A5.2,5.2,0,0,0,166.382,682.17ZM165.3,666.634l-.738,2.273h1.477Zm-3.107,16.5a1.022,1.022,0,0,0-.758-.278,1.251,1.251,0,0,0-.527.115.908.908,0,0,0-.4.336.943.943,0,0,0-.163.547,1.227,1.227,0,0,0,.278.806,1.079,1.079,0,0,0,.844.316.993.993,0,0,0,.729-.268,1.03,1.03,0,0,0,.278-.767A1.11,1.11,0,0,0,162.192,683.138Zm-4.124-1.573a1.024,1.024,0,0,0-.834-.336.984.984,0,0,0-.729.278,1.008,1.008,0,0,0-.278.767,1.055,1.055,0,0,0,.278.805.981.981,0,0,0,.748.288,1.24,1.24,0,0,0,.527-.115.963.963,0,0,0,.412-.345.919.919,0,0,0,.153-.547A1.138,1.138,0,0,0,158.068,681.565Zm-3.98,0a1.05,1.05,0,0,0-.834-.336,1.007,1.007,0,0,0-.738.278,1.046,1.046,0,0,0-.278.767,1.093,1.093,0,0,0,.278.805.989.989,0,0,0,.758.288,1.272,1.272,0,0,0,.527-.115,1,1,0,0,0,.4-.345.923.923,0,0,0,.163-.547A1.184,1.184,0,0,0,154.089,681.565Zm-17.491,0a1.024,1.024,0,0,0-.834-.336.984.984,0,0,0-.729.278,1.008,1.008,0,0,0-.278.767,1.055,1.055,0,0,0,.278.805.981.981,0,0,0,.748.288,1.24,1.24,0,0,0,.527-.115.963.963,0,0,0,.412-.345.919.919,0,0,0,.153-.547A1.138,1.138,0,0,0,136.6,681.565Zm-3.98,0a1.057,1.057,0,0,0-.844-.336,1,1,0,0,0-.729.278,1.046,1.046,0,0,0-.278.767,1.093,1.093,0,0,0,.278.805.981.981,0,0,0,.748.288,1.284,1.284,0,0,0,.537-.115,1,1,0,0,0,.4-.345.922.922,0,0,0,.163-.547A1.184,1.184,0,0,0,132.617,681.565Zm-7.394.614a1.532,1.532,0,0,0-.585-.623,1.623,1.623,0,0,0-.853-.22,1.6,1.6,0,0,0-.853.22,1.554,1.554,0,0,0-.595.623,2.285,2.285,0,0,0,0,1.918,1.521,1.521,0,0,0,.595.633,1.69,1.69,0,0,0,.853.221,1.716,1.716,0,0,0,.853-.221,1.621,1.621,0,0,0,.585-.633,2.285,2.285,0,0,0,0-1.918Zm32.844-.614a1.024,1.024,0,0,0-.834-.336.984.984,0,0,0-.729.278,1.008,1.008,0,0,0-.278.767,1.055,1.055,0,0,0,.278.805.981.981,0,0,0,.748.288,1.24,1.24,0,0,0,.527-.115.963.963,0,0,0,.412-.345.919.919,0,0,0,.153-.547A1.138,1.138,0,0,0,158.068,681.565Zm-32.844.614a1.532,1.532,0,0,0-.585-.623,1.623,1.623,0,0,0-.853-.22,1.6,1.6,0,0,0-.853.22,1.554,1.554,0,0,0-.595.623,2.285,2.285,0,0,0,0,1.918,1.521,1.521,0,0,0,.595.633,1.69,1.69,0,0,0,.853.221,1.716,1.716,0,0,0,.853-.221,1.621,1.621,0,0,0,.585-.633,2.285,2.285,0,0,0,0-1.918Zm7.394-.614a1.057,1.057,0,0,0-.844-.336,1,1,0,0,0-.729.278,1.046,1.046,0,0,0-.278.767,1.093,1.093,0,0,0,.278.805.981.981,0,0,0,.748.288,1.284,1.284,0,0,0,.537-.115,1,1,0,0,0,.4-.345.922.922,0,0,0,.163-.547A1.184,1.184,0,0,0,132.617,681.565Zm3.98,0a1.024,1.024,0,0,0-.834-.336.984.984,0,0,0-.729.278,1.008,1.008,0,0,0-.278.767,1.055,1.055,0,0,0,.278.805.981.981,0,0,0,.748.288,1.24,1.24,0,0,0,.527-.115.963.963,0,0,0,.412-.345.919.919,0,0,0,.153-.547A1.138,1.138,0,0,0,136.6,681.565Zm17.491,0a1.05,1.05,0,0,0-.834-.336,1.007,1.007,0,0,0-.738.278,1.046,1.046,0,0,0-.278.767,1.093,1.093,0,0,0,.278.805.989.989,0,0,0,.758.288,1.272,1.272,0,0,0,.527-.115,1,1,0,0,0,.4-.345.923.923,0,0,0,.163-.547A1.184,1.184,0,0,0,154.089,681.565Zm8.1,1.573a1.022,1.022,0,0,0-.758-.278,1.251,1.251,0,0,0-.527.115.908.908,0,0,0-.4.336.943.943,0,0,0-.163.547,1.227,1.227,0,0,0,.278.806,1.079,1.079,0,0,0,.844.316.993.993,0,0,0,.729-.268,1.03,1.03,0,0,0,.278-.767A1.11,1.11,0,0,0,162.192,683.138Zm3.107-16.5-.738,2.273h1.477Zm1.084,15.535a1.223,1.223,0,0,0-.316-.6.9.9,0,0,0-.662-.23.874.874,0,0,0-.652.23,1.224,1.224,0,0,0-.316.6,5.191,5.191,0,0,0-.077.949,5.263,5.263,0,0,0,.077.949,1.212,1.212,0,0,0,.316.614.872.872,0,0,0,.652.23.9.9,0,0,0,.662-.23,1.212,1.212,0,0,0,.316-.614,5.268,5.268,0,0,0,.077-.949A5.2,5.2,0,0,0,166.382,682.17Zm8.065,0a1.224,1.224,0,0,0-.316-.6.9.9,0,0,0-.662-.23.874.874,0,0,0-.652.23,1.224,1.224,0,0,0-.316.6,5.188,5.188,0,0,0-.077.949,5.26,5.26,0,0,0,.077.949,1.212,1.212,0,0,0,.316.614.872.872,0,0,0,.652.23.9.9,0,0,0,.662-.23,1.213,1.213,0,0,0,.316-.614,5.274,5.274,0,0,0,.077-.949A5.2,5.2,0,0,0,174.447,682.17Zm7.739,0a1.213,1.213,0,0,0-.307-.6,1.068,1.068,0,0,0-1.323,0,1.141,1.141,0,0,0-.307.6,4.392,4.392,0,0,0-.086.949,4.45,4.45,0,0,0,.086.949,1.134,1.134,0,0,0,.307.614,1.067,1.067,0,0,0,1.323,0,1.2,1.2,0,0,0,.307-.614,4.452,4.452,0,0,0,.086-.949A4.395,4.395,0,0,0,182.186,682.17Zm0,0a1.213,1.213,0,0,0-.307-.6,1.068,1.068,0,0,0-1.323,0,1.141,1.141,0,0,0-.307.6,4.392,4.392,0,0,0-.086.949,4.45,4.45,0,0,0,.086.949,1.134,1.134,0,0,0,.307.614,1.067,1.067,0,0,0,1.323,0,1.2,1.2,0,0,0,.307-.614,4.452,4.452,0,0,0,.086-.949A4.395,4.395,0,0,0,182.186,682.17Zm-7.739,0a1.224,1.224,0,0,0-.316-.6.9.9,0,0,0-.662-.23.874.874,0,0,0-.652.23,1.224,1.224,0,0,0-.316.6,5.188,5.188,0,0,0-.077.949,5.26,5.26,0,0,0,.077.949,1.212,1.212,0,0,0,.316.614.872.872,0,0,0,.652.23.9.9,0,0,0,.662-.23,1.213,1.213,0,0,0,.316-.614,5.274,5.274,0,0,0,.077-.949A5.2,5.2,0,0,0,174.447,682.17Zm-8.065,0a1.223,1.223,0,0,0-.316-.6.9.9,0,0,0-.662-.23.874.874,0,0,0-.652.23,1.224,1.224,0,0,0-.316.6,5.191,5.191,0,0,0-.077.949,5.263,5.263,0,0,0,.077.949,1.212,1.212,0,0,0,.316.614.872.872,0,0,0,.652.23.9.9,0,0,0,.662-.23,1.212,1.212,0,0,0,.316-.614,5.268,5.268,0,0,0,.077-.949A5.2,5.2,0,0,0,166.382,682.17ZM165.3,666.634l-.738,2.273h1.477Zm-3.107,16.5a1.022,1.022,0,0,0-.758-.278,1.251,1.251,0,0,0-.527.115.908.908,0,0,0-.4.336.943.943,0,0,0-.163.547,1.227,1.227,0,0,0,.278.806,1.079,1.079,0,0,0,.844.316.993.993,0,0,0,.729-.268,1.03,1.03,0,0,0,.278-.767A1.11,1.11,0,0,0,162.192,683.138Zm-4.124-1.573a1.024,1.024,0,0,0-.834-.336.984.984,0,0,0-.729.278,1.008,1.008,0,0,0-.278.767,1.055,1.055,0,0,0,.278.805.981.981,0,0,0,.748.288,1.24,1.24,0,0,0,.527-.115.963.963,0,0,0,.412-.345.919.919,0,0,0,.153-.547A1.138,1.138,0,0,0,158.068,681.565Zm-3.98,0a1.05,1.05,0,0,0-.834-.336,1.007,1.007,0,0,0-.738.278,1.046,1.046,0,0,0-.278.767,1.093,1.093,0,0,0,.278.805.989.989,0,0,0,.758.288,1.272,1.272,0,0,0,.527-.115,1,1,0,0,0,.4-.345.923.923,0,0,0,.163-.547A1.184,1.184,0,0,0,154.089,681.565Zm-17.491,0a1.024,1.024,0,0,0-.834-.336.984.984,0,0,0-.729.278,1.008,1.008,0,0,0-.278.767,1.055,1.055,0,0,0,.278.805.981.981,0,0,0,.748.288,1.24,1.24,0,0,0,.527-.115.963.963,0,0,0,.412-.345.919.919,0,0,0,.153-.547A1.138,1.138,0,0,0,136.6,681.565Zm-3.98,0a1.057,1.057,0,0,0-.844-.336,1,1,0,0,0-.729.278,1.046,1.046,0,0,0-.278.767,1.093,1.093,0,0,0,.278.805.981.981,0,0,0,.748.288,1.284,1.284,0,0,0,.537-.115,1,1,0,0,0,.4-.345.922.922,0,0,0,.163-.547A1.184,1.184,0,0,0,132.617,681.565Zm-7.394.614a1.532,1.532,0,0,0-.585-.623,1.623,1.623,0,0,0-.853-.22,1.6,1.6,0,0,0-.853.22,1.554,1.554,0,0,0-.595.623,2.285,2.285,0,0,0,0,1.918,1.521,1.521,0,0,0,.595.633,1.69,1.69,0,0,0,.853.221,1.716,1.716,0,0,0,.853-.221,1.621,1.621,0,0,0,.585-.633,2.285,2.285,0,0,0,0-1.918Zm32.844-.614a1.024,1.024,0,0,0-.834-.336.984.984,0,0,0-.729.278,1.008,1.008,0,0,0-.278.767,1.055,1.055,0,0,0,.278.805.981.981,0,0,0,.748.288,1.24,1.24,0,0,0,.527-.115.963.963,0,0,0,.412-.345.919.919,0,0,0,.153-.547A1.138,1.138,0,0,0,158.068,681.565Zm-32.844.614a1.532,1.532,0,0,0-.585-.623,1.623,1.623,0,0,0-.853-.22,1.6,1.6,0,0,0-.853.22,1.554,1.554,0,0,0-.595.623,2.285,2.285,0,0,0,0,1.918,1.521,1.521,0,0,0,.595.633,1.69,1.69,0,0,0,.853.221,1.716,1.716,0,0,0,.853-.221,1.621,1.621,0,0,0,.585-.633,2.285,2.285,0,0,0,0-1.918Zm7.394-.614a1.057,1.057,0,0,0-.844-.336,1,1,0,0,0-.729.278,1.046,1.046,0,0,0-.278.767,1.093,1.093,0,0,0,.278.805.981.981,0,0,0,.748.288,1.284,1.284,0,0,0,.537-.115,1,1,0,0,0,.4-.345.922.922,0,0,0,.163-.547A1.184,1.184,0,0,0,132.617,681.565Zm3.98,0a1.024,1.024,0,0,0-.834-.336.984.984,0,0,0-.729.278,1.008,1.008,0,0,0-.278.767,1.055,1.055,0,0,0,.278.805.981.981,0,0,0,.748.288,1.24,1.24,0,0,0,.527-.115.963.963,0,0,0,.412-.345.919.919,0,0,0,.153-.547A1.138,1.138,0,0,0,136.6,681.565Zm17.491,0a1.05,1.05,0,0,0-.834-.336,1.007,1.007,0,0,0-.738.278,1.046,1.046,0,0,0-.278.767,1.093,1.093,0,0,0,.278.805.989.989,0,0,0,.758.288,1.272,1.272,0,0,0,.527-.115,1,1,0,0,0,.4-.345.923.923,0,0,0,.163-.547A1.184,1.184,0,0,0,154.089,681.565Zm8.1,1.573a1.022,1.022,0,0,0-.758-.278,1.251,1.251,0,0,0-.527.115.908.908,0,0,0-.4.336.943.943,0,0,0-.163.547,1.227,1.227,0,0,0,.278.806,1.079,1.079,0,0,0,.844.316.993.993,0,0,0,.729-.268,1.03,1.03,0,0,0,.278-.767A1.11,1.11,0,0,0,162.192,683.138Zm3.107-16.5-.738,2.273h1.477Zm1.084,15.535a1.223,1.223,0,0,0-.316-.6.9.9,0,0,0-.662-.23.874.874,0,0,0-.652.23,1.224,1.224,0,0,0-.316.6,5.191,5.191,0,0,0-.077.949,5.263,5.263,0,0,0,.077.949,1.212,1.212,0,0,0,.316.614.872.872,0,0,0,.652.23.9.9,0,0,0,.662-.23,1.212,1.212,0,0,0,.316-.614,5.268,5.268,0,0,0,.077-.949A5.2,5.2,0,0,0,166.382,682.17Zm8.065,0a1.224,1.224,0,0,0-.316-.6.9.9,0,0,0-.662-.23.874.874,0,0,0-.652.23,1.224,1.224,0,0,0-.316.6,5.188,5.188,0,0,0-.077.949,5.26,5.26,0,0,0,.077.949,1.212,1.212,0,0,0,.316.614.872.872,0,0,0,.652.23.9.9,0,0,0,.662-.23,1.213,1.213,0,0,0,.316-.614,5.274,5.274,0,0,0,.077-.949A5.2,5.2,0,0,0,174.447,682.17Zm0,0a1.224,1.224,0,0,0-.316-.6.9.9,0,0,0-.662-.23.874.874,0,0,0-.652.23,1.224,1.224,0,0,0-.316.6,5.188,5.188,0,0,0-.077.949,5.26,5.26,0,0,0,.077.949,1.212,1.212,0,0,0,.316.614.872.872,0,0,0,.652.23.9.9,0,0,0,.662-.23,1.213,1.213,0,0,0,.316-.614,5.274,5.274,0,0,0,.077-.949A5.2,5.2,0,0,0,174.447,682.17Zm-8.065,0a1.223,1.223,0,0,0-.316-.6.9.9,0,0,0-.662-.23.874.874,0,0,0-.652.23,1.224,1.224,0,0,0-.316.6,5.191,5.191,0,0,0-.077.949,5.263,5.263,0,0,0,.077.949,1.212,1.212,0,0,0,.316.614.872.872,0,0,0,.652.23.9.9,0,0,0,.662-.23,1.212,1.212,0,0,0,.316-.614,5.268,5.268,0,0,0,.077-.949A5.2,5.2,0,0,0,166.382,682.17ZM165.3,666.634l-.738,2.273h1.477Zm-3.107,16.5a1.022,1.022,0,0,0-.758-.278,1.251,1.251,0,0,0-.527.115.908.908,0,0,0-.4.336.943.943,0,0,0-.163.547,1.227,1.227,0,0,0,.278.806,1.079,1.079,0,0,0,.844.316.993.993,0,0,0,.729-.268,1.03,1.03,0,0,0,.278-.767A1.11,1.11,0,0,0,162.192,683.138Zm-4.124-1.573a1.024,1.024,0,0,0-.834-.336.984.984,0,0,0-.729.278,1.008,1.008,0,0,0-.278.767,1.055,1.055,0,0,0,.278.805.981.981,0,0,0,.748.288,1.24,1.24,0,0,0,.527-.115.963.963,0,0,0,.412-.345.919.919,0,0,0,.153-.547A1.138,1.138,0,0,0,158.068,681.565Zm-3.98,0a1.05,1.05,0,0,0-.834-.336,1.007,1.007,0,0,0-.738.278,1.046,1.046,0,0,0-.278.767,1.093,1.093,0,0,0,.278.805.989.989,0,0,0,.758.288,1.272,1.272,0,0,0,.527-.115,1,1,0,0,0,.4-.345.923.923,0,0,0,.163-.547A1.184,1.184,0,0,0,154.089,681.565Zm-17.491,0a1.024,1.024,0,0,0-.834-.336.984.984,0,0,0-.729.278,1.008,1.008,0,0,0-.278.767,1.055,1.055,0,0,0,.278.805.981.981,0,0,0,.748.288,1.24,1.24,0,0,0,.527-.115.963.963,0,0,0,.412-.345.919.919,0,0,0,.153-.547A1.138,1.138,0,0,0,136.6,681.565Zm-3.98,0a1.057,1.057,0,0,0-.844-.336,1,1,0,0,0-.729.278,1.046,1.046,0,0,0-.278.767,1.093,1.093,0,0,0,.278.805.981.981,0,0,0,.748.288,1.284,1.284,0,0,0,.537-.115,1,1,0,0,0,.4-.345.922.922,0,0,0,.163-.547A1.184,1.184,0,0,0,132.617,681.565Zm-7.394.614a1.532,1.532,0,0,0-.585-.623,1.623,1.623,0,0,0-.853-.22,1.6,1.6,0,0,0-.853.22,1.554,1.554,0,0,0-.595.623,2.285,2.285,0,0,0,0,1.918,1.521,1.521,0,0,0,.595.633,1.69,1.69,0,0,0,.853.221,1.716,1.716,0,0,0,.853-.221,1.621,1.621,0,0,0,.585-.633,2.285,2.285,0,0,0,0-1.918Zm32.844-.614a1.024,1.024,0,0,0-.834-.336.984.984,0,0,0-.729.278,1.008,1.008,0,0,0-.278.767,1.055,1.055,0,0,0,.278.805.981.981,0,0,0,.748.288,1.24,1.24,0,0,0,.527-.115.963.963,0,0,0,.412-.345.919.919,0,0,0,.153-.547A1.138,1.138,0,0,0,158.068,681.565Zm-32.844.614a1.532,1.532,0,0,0-.585-.623,1.623,1.623,0,0,0-.853-.22,1.6,1.6,0,0,0-.853.22,1.554,1.554,0,0,0-.595.623,2.285,2.285,0,0,0,0,1.918,1.521,1.521,0,0,0,.595.633,1.69,1.69,0,0,0,.853.221,1.716,1.716,0,0,0,.853-.221,1.621,1.621,0,0,0,.585-.633,2.285,2.285,0,0,0,0-1.918Zm7.394-.614a1.057,1.057,0,0,0-.844-.336,1,1,0,0,0-.729.278,1.046,1.046,0,0,0-.278.767,1.093,1.093,0,0,0,.278.805.981.981,0,0,0,.748.288,1.284,1.284,0,0,0,.537-.115,1,1,0,0,0,.4-.345.922.922,0,0,0,.163-.547A1.184,1.184,0,0,0,132.617,681.565Zm3.98,0a1.024,1.024,0,0,0-.834-.336.984.984,0,0,0-.729.278,1.008,1.008,0,0,0-.278.767,1.055,1.055,0,0,0,.278.805.981.981,0,0,0,.748.288,1.24,1.24,0,0,0,.527-.115.963.963,0,0,0,.412-.345.919.919,0,0,0,.153-.547A1.138,1.138,0,0,0,136.6,681.565Zm17.491,0a1.05,1.05,0,0,0-.834-.336,1.007,1.007,0,0,0-.738.278,1.046,1.046,0,0,0-.278.767,1.093,1.093,0,0,0,.278.805.989.989,0,0,0,.758.288,1.272,1.272,0,0,0,.527-.115,1,1,0,0,0,.4-.345.923.923,0,0,0,.163-.547A1.184,1.184,0,0,0,154.089,681.565Zm8.1,1.573a1.022,1.022,0,0,0-.758-.278,1.251,1.251,0,0,0-.527.115.908.908,0,0,0-.4.336.943.943,0,0,0-.163.547,1.227,1.227,0,0,0,.278.806,1.079,1.079,0,0,0,.844.316.993.993,0,0,0,.729-.268,1.03,1.03,0,0,0,.278-.767A1.11,1.11,0,0,0,162.192,683.138Zm3.107-16.5-.738,2.273h1.477Zm1.084,15.535a1.223,1.223,0,0,0-.316-.6.9.9,0,0,0-.662-.23.874.874,0,0,0-.652.23,1.224,1.224,0,0,0-.316.6,5.191,5.191,0,0,0-.077.949,5.263,5.263,0,0,0,.077.949,1.212,1.212,0,0,0,.316.614.872.872,0,0,0,.652.23.9.9,0,0,0,.662-.23,1.212,1.212,0,0,0,.316-.614,5.268,5.268,0,0,0,.077-.949A5.2,5.2,0,0,0,166.382,682.17Zm0,0a1.223,1.223,0,0,0-.316-.6.9.9,0,0,0-.662-.23.874.874,0,0,0-.652.23,1.224,1.224,0,0,0-.316.6,5.191,5.191,0,0,0-.077.949,5.263,5.263,0,0,0,.077.949,1.212,1.212,0,0,0,.316.614.872.872,0,0,0,.652.23.9.9,0,0,0,.662-.23,1.212,1.212,0,0,0,.316-.614,5.268,5.268,0,0,0,.077-.949A5.2,5.2,0,0,0,166.382,682.17ZM165.3,666.634l-.738,2.273h1.477Zm-3.107,16.5a1.022,1.022,0,0,0-.758-.278,1.251,1.251,0,0,0-.527.115.908.908,0,0,0-.4.336.943.943,0,0,0-.163.547,1.227,1.227,0,0,0,.278.806,1.079,1.079,0,0,0,.844.316.993.993,0,0,0,.729-.268,1.03,1.03,0,0,0,.278-.767A1.11,1.11,0,0,0,162.192,683.138Zm-4.124-1.573a1.024,1.024,0,0,0-.834-.336.984.984,0,0,0-.729.278,1.008,1.008,0,0,0-.278.767,1.055,1.055,0,0,0,.278.805.981.981,0,0,0,.748.288,1.24,1.24,0,0,0,.527-.115.963.963,0,0,0,.412-.345.919.919,0,0,0,.153-.547A1.138,1.138,0,0,0,158.068,681.565Zm-3.98,0a1.05,1.05,0,0,0-.834-.336,1.007,1.007,0,0,0-.738.278,1.046,1.046,0,0,0-.278.767,1.093,1.093,0,0,0,.278.805.989.989,0,0,0,.758.288,1.272,1.272,0,0,0,.527-.115,1,1,0,0,0,.4-.345.923.923,0,0,0,.163-.547A1.184,1.184,0,0,0,154.089,681.565Zm-17.491,0a1.024,1.024,0,0,0-.834-.336.984.984,0,0,0-.729.278,1.008,1.008,0,0,0-.278.767,1.055,1.055,0,0,0,.278.805.981.981,0,0,0,.748.288,1.24,1.24,0,0,0,.527-.115.963.963,0,0,0,.412-.345.919.919,0,0,0,.153-.547A1.138,1.138,0,0,0,136.6,681.565Zm-3.98,0a1.057,1.057,0,0,0-.844-.336,1,1,0,0,0-.729.278,1.046,1.046,0,0,0-.278.767,1.093,1.093,0,0,0,.278.805.981.981,0,0,0,.748.288,1.284,1.284,0,0,0,.537-.115,1,1,0,0,0,.4-.345.922.922,0,0,0,.163-.547A1.184,1.184,0,0,0,132.617,681.565Zm-7.394.614a1.532,1.532,0,0,0-.585-.623,1.623,1.623,0,0,0-.853-.22,1.6,1.6,0,0,0-.853.22,1.554,1.554,0,0,0-.595.623,2.285,2.285,0,0,0,0,1.918,1.521,1.521,0,0,0,.595.633,1.69,1.69,0,0,0,.853.221,1.716,1.716,0,0,0,.853-.221,1.621,1.621,0,0,0,.585-.633,2.285,2.285,0,0,0,0-1.918Zm32.844-.614a1.024,1.024,0,0,0-.834-.336.984.984,0,0,0-.729.278,1.008,1.008,0,0,0-.278.767,1.055,1.055,0,0,0,.278.805.981.981,0,0,0,.748.288,1.24,1.24,0,0,0,.527-.115.963.963,0,0,0,.412-.345.919.919,0,0,0,.153-.547A1.138,1.138,0,0,0,158.068,681.565Zm-32.844.614a1.532,1.532,0,0,0-.585-.623,1.623,1.623,0,0,0-.853-.22,1.6,1.6,0,0,0-.853.22,1.554,1.554,0,0,0-.595.623,2.285,2.285,0,0,0,0,1.918,1.521,1.521,0,0,0,.595.633,1.69,1.69,0,0,0,.853.221,1.716,1.716,0,0,0,.853-.221,1.621,1.621,0,0,0,.585-.633,2.285,2.285,0,0,0,0-1.918Zm7.394-.614a1.057,1.057,0,0,0-.844-.336,1,1,0,0,0-.729.278,1.046,1.046,0,0,0-.278.767,1.093,1.093,0,0,0,.278.805.981.981,0,0,0,.748.288,1.284,1.284,0,0,0,.537-.115,1,1,0,0,0,.4-.345.922.922,0,0,0,.163-.547A1.184,1.184,0,0,0,132.617,681.565Zm3.98,0a1.024,1.024,0,0,0-.834-.336.984.984,0,0,0-.729.278,1.008,1.008,0,0,0-.278.767,1.055,1.055,0,0,0,.278.805.981.981,0,0,0,.748.288,1.24,1.24,0,0,0,.527-.115.963.963,0,0,0,.412-.345.919.919,0,0,0,.153-.547A1.138,1.138,0,0,0,136.6,681.565Zm17.491,0a1.05,1.05,0,0,0-.834-.336,1.007,1.007,0,0,0-.738.278,1.046,1.046,0,0,0-.278.767,1.093,1.093,0,0,0,.278.805.989.989,0,0,0,.758.288,1.272,1.272,0,0,0,.527-.115,1,1,0,0,0,.4-.345.923.923,0,0,0,.163-.547A1.184,1.184,0,0,0,154.089,681.565Zm8.1,1.573a1.022,1.022,0,0,0-.758-.278,1.251,1.251,0,0,0-.527.115.908.908,0,0,0-.4.336.943.943,0,0,0-.163.547,1.227,1.227,0,0,0,.278.806,1.079,1.079,0,0,0,.844.316.993.993,0,0,0,.729-.268,1.03,1.03,0,0,0,.278-.767A1.11,1.11,0,0,0,162.192,683.138Zm3.107-16.5-.738,2.273h1.477Zm1.084,15.535a1.223,1.223,0,0,0-.316-.6.9.9,0,0,0-.662-.23.874.874,0,0,0-.652.23,1.224,1.224,0,0,0-.316.6,5.191,5.191,0,0,0-.077.949,5.263,5.263,0,0,0,.077.949,1.212,1.212,0,0,0,.316.614.872.872,0,0,0,.652.23.9.9,0,0,0,.662-.23,1.212,1.212,0,0,0,.316-.614,5.268,5.268,0,0,0,.077-.949A5.2,5.2,0,0,0,166.382,682.17Zm0,0a1.223,1.223,0,0,0-.316-.6.9.9,0,0,0-.662-.23.874.874,0,0,0-.652.23,1.224,1.224,0,0,0-.316.6,5.191,5.191,0,0,0-.077.949,5.263,5.263,0,0,0,.077.949,1.212,1.212,0,0,0,.316.614.872.872,0,0,0,.652.23.9.9,0,0,0,.662-.23,1.212,1.212,0,0,0,.316-.614,5.268,5.268,0,0,0,.077-.949A5.2,5.2,0,0,0,166.382,682.17ZM165.3,666.634l-.738,2.273h1.477Zm-3.107,16.5a1.022,1.022,0,0,0-.758-.278,1.251,1.251,0,0,0-.527.115.908.908,0,0,0-.4.336.943.943,0,0,0-.163.547,1.227,1.227,0,0,0,.278.806,1.079,1.079,0,0,0,.844.316.993.993,0,0,0,.729-.268,1.03,1.03,0,0,0,.278-.767A1.11,1.11,0,0,0,162.192,683.138Zm-4.124-1.573a1.024,1.024,0,0,0-.834-.336.984.984,0,0,0-.729.278,1.008,1.008,0,0,0-.278.767,1.055,1.055,0,0,0,.278.805.981.981,0,0,0,.748.288,1.24,1.24,0,0,0,.527-.115.963.963,0,0,0,.412-.345.919.919,0,0,0,.153-.547A1.138,1.138,0,0,0,158.068,681.565Zm-3.98,0a1.05,1.05,0,0,0-.834-.336,1.007,1.007,0,0,0-.738.278,1.046,1.046,0,0,0-.278.767,1.093,1.093,0,0,0,.278.805.989.989,0,0,0,.758.288,1.272,1.272,0,0,0,.527-.115,1,1,0,0,0,.4-.345.923.923,0,0,0,.163-.547A1.184,1.184,0,0,0,154.089,681.565Zm-17.491,0a1.024,1.024,0,0,0-.834-.336.984.984,0,0,0-.729.278,1.008,1.008,0,0,0-.278.767,1.055,1.055,0,0,0,.278.805.981.981,0,0,0,.748.288,1.24,1.24,0,0,0,.527-.115.963.963,0,0,0,.412-.345.919.919,0,0,0,.153-.547A1.138,1.138,0,0,0,136.6,681.565Zm-3.98,0a1.057,1.057,0,0,0-.844-.336,1,1,0,0,0-.729.278,1.046,1.046,0,0,0-.278.767,1.093,1.093,0,0,0,.278.805.981.981,0,0,0,.748.288,1.284,1.284,0,0,0,.537-.115,1,1,0,0,0,.4-.345.922.922,0,0,0,.163-.547A1.184,1.184,0,0,0,132.617,681.565Zm-7.394.614a1.532,1.532,0,0,0-.585-.623,1.623,1.623,0,0,0-.853-.22,1.6,1.6,0,0,0-.853.22,1.554,1.554,0,0,0-.595.623,2.285,2.285,0,0,0,0,1.918,1.521,1.521,0,0,0,.595.633,1.69,1.69,0,0,0,.853.221,1.716,1.716,0,0,0,.853-.221,1.621,1.621,0,0,0,.585-.633,2.285,2.285,0,0,0,0-1.918Zm32.844-.614a1.024,1.024,0,0,0-.834-.336.984.984,0,0,0-.729.278,1.008,1.008,0,0,0-.278.767,1.055,1.055,0,0,0,.278.805.981.981,0,0,0,.748.288,1.24,1.24,0,0,0,.527-.115.963.963,0,0,0,.412-.345.919.919,0,0,0,.153-.547A1.138,1.138,0,0,0,158.068,681.565Zm-32.844.614a1.532,1.532,0,0,0-.585-.623,1.623,1.623,0,0,0-.853-.22,1.6,1.6,0,0,0-.853.22,1.554,1.554,0,0,0-.595.623,2.285,2.285,0,0,0,0,1.918,1.521,1.521,0,0,0,.595.633,1.69,1.69,0,0,0,.853.221,1.716,1.716,0,0,0,.853-.221,1.621,1.621,0,0,0,.585-.633,2.285,2.285,0,0,0,0-1.918Zm7.394-.614a1.057,1.057,0,0,0-.844-.336,1,1,0,0,0-.729.278,1.046,1.046,0,0,0-.278.767,1.093,1.093,0,0,0,.278.805.981.981,0,0,0,.748.288,1.284,1.284,0,0,0,.537-.115,1,1,0,0,0,.4-.345.922.922,0,0,0,.163-.547A1.184,1.184,0,0,0,132.617,681.565Zm3.98,0a1.024,1.024,0,0,0-.834-.336.984.984,0,0,0-.729.278,1.008,1.008,0,0,0-.278.767,1.055,1.055,0,0,0,.278.805.981.981,0,0,0,.748.288,1.24,1.24,0,0,0,.527-.115.963.963,0,0,0,.412-.345.919.919,0,0,0,.153-.547A1.138,1.138,0,0,0,136.6,681.565Zm17.491,0a1.05,1.05,0,0,0-.834-.336,1.007,1.007,0,0,0-.738.278,1.046,1.046,0,0,0-.278.767,1.093,1.093,0,0,0,.278.805.989.989,0,0,0,.758.288,1.272,1.272,0,0,0,.527-.115,1,1,0,0,0,.4-.345.923.923,0,0,0,.163-.547A1.184,1.184,0,0,0,154.089,681.565Zm8.1,1.573a1.022,1.022,0,0,0-.758-.278,1.251,1.251,0,0,0-.527.115.908.908,0,0,0-.4.336.943.943,0,0,0-.163.547,1.227,1.227,0,0,0,.278.806,1.079,1.079,0,0,0,.844.316.993.993,0,0,0,.729-.268,1.03,1.03,0,0,0,.278-.767A1.11,1.11,0,0,0,162.192,683.138Zm3.107-16.5-.738,2.273h1.477Zm0,0-.738,2.273h1.477Zm-3.107,16.5a1.022,1.022,0,0,0-.758-.278,1.251,1.251,0,0,0-.527.115.908.908,0,0,0-.4.336.943.943,0,0,0-.163.547,1.227,1.227,0,0,0,.278.806,1.079,1.079,0,0,0,.844.316.993.993,0,0,0,.729-.268,1.03,1.03,0,0,0,.278-.767A1.11,1.11,0,0,0,162.192,683.138Zm-4.124-1.573a1.024,1.024,0,0,0-.834-.336.984.984,0,0,0-.729.278,1.008,1.008,0,0,0-.278.767,1.055,1.055,0,0,0,.278.805.981.981,0,0,0,.748.288,1.24,1.24,0,0,0,.527-.115.963.963,0,0,0,.412-.345.919.919,0,0,0,.153-.547A1.138,1.138,0,0,0,158.068,681.565Zm-3.98,0a1.05,1.05,0,0,0-.834-.336,1.007,1.007,0,0,0-.738.278,1.046,1.046,0,0,0-.278.767,1.093,1.093,0,0,0,.278.805.989.989,0,0,0,.758.288,1.272,1.272,0,0,0,.527-.115,1,1,0,0,0,.4-.345.923.923,0,0,0,.163-.547A1.184,1.184,0,0,0,154.089,681.565Zm-17.491,0a1.024,1.024,0,0,0-.834-.336.984.984,0,0,0-.729.278,1.008,1.008,0,0,0-.278.767,1.055,1.055,0,0,0,.278.805.981.981,0,0,0,.748.288,1.24,1.24,0,0,0,.527-.115.963.963,0,0,0,.412-.345.919.919,0,0,0,.153-.547A1.138,1.138,0,0,0,136.6,681.565Zm-3.98,0a1.057,1.057,0,0,0-.844-.336,1,1,0,0,0-.729.278,1.046,1.046,0,0,0-.278.767,1.093,1.093,0,0,0,.278.805.981.981,0,0,0,.748.288,1.284,1.284,0,0,0,.537-.115,1,1,0,0,0,.4-.345.922.922,0,0,0,.163-.547A1.184,1.184,0,0,0,132.617,681.565Zm-7.394.614a1.532,1.532,0,0,0-.585-.623,1.623,1.623,0,0,0-.853-.22,1.6,1.6,0,0,0-.853.22,1.554,1.554,0,0,0-.595.623,2.285,2.285,0,0,0,0,1.918,1.521,1.521,0,0,0,.595.633,1.69,1.69,0,0,0,.853.221,1.716,1.716,0,0,0,.853-.221,1.621,1.621,0,0,0,.585-.633,2.285,2.285,0,0,0,0-1.918Zm0,0a1.532,1.532,0,0,0-.585-.623,1.623,1.623,0,0,0-.853-.22,1.6,1.6,0,0,0-.853.22,1.554,1.554,0,0,0-.595.623,2.285,2.285,0,0,0,0,1.918,1.521,1.521,0,0,0,.595.633,1.69,1.69,0,0,0,.853.221,1.716,1.716,0,0,0,.853-.221,1.621,1.621,0,0,0,.585-.633,2.285,2.285,0,0,0,0-1.918Zm7.394-.614a1.057,1.057,0,0,0-.844-.336,1,1,0,0,0-.729.278,1.046,1.046,0,0,0-.278.767,1.093,1.093,0,0,0,.278.805.981.981,0,0,0,.748.288,1.284,1.284,0,0,0,.537-.115,1,1,0,0,0,.4-.345.922.922,0,0,0,.163-.547A1.184,1.184,0,0,0,132.617,681.565Zm3.98,0a1.024,1.024,0,0,0-.834-.336.984.984,0,0,0-.729.278,1.008,1.008,0,0,0-.278.767,1.055,1.055,0,0,0,.278.805.981.981,0,0,0,.748.288,1.24,1.24,0,0,0,.527-.115.963.963,0,0,0,.412-.345.919.919,0,0,0,.153-.547A1.138,1.138,0,0,0,136.6,681.565Zm17.491,0a1.05,1.05,0,0,0-.834-.336,1.007,1.007,0,0,0-.738.278,1.046,1.046,0,0,0-.278.767,1.093,1.093,0,0,0,.278.805.989.989,0,0,0,.758.288,1.272,1.272,0,0,0,.527-.115,1,1,0,0,0,.4-.345.923.923,0,0,0,.163-.547A1.184,1.184,0,0,0,154.089,681.565Zm11.21-14.931-.738,2.273h1.477Zm0,0-.738,2.273h1.477Zm-11.21,14.931a1.05,1.05,0,0,0-.834-.336,1.007,1.007,0,0,0-.738.278,1.046,1.046,0,0,0-.278.767,1.093,1.093,0,0,0,.278.805.989.989,0,0,0,.758.288,1.272,1.272,0,0,0,.527-.115,1,1,0,0,0,.4-.345.923.923,0,0,0,.163-.547A1.184,1.184,0,0,0,154.089,681.565Zm-17.491,0a1.024,1.024,0,0,0-.834-.336.984.984,0,0,0-.729.278,1.008,1.008,0,0,0-.278.767,1.055,1.055,0,0,0,.278.805.981.981,0,0,0,.748.288,1.24,1.24,0,0,0,.527-.115.963.963,0,0,0,.412-.345.919.919,0,0,0,.153-.547A1.138,1.138,0,0,0,136.6,681.565Zm-3.98,0a1.057,1.057,0,0,0-.844-.336,1,1,0,0,0-.729.278,1.046,1.046,0,0,0-.278.767,1.093,1.093,0,0,0,.278.805.981.981,0,0,0,.748.288,1.284,1.284,0,0,0,.537-.115,1,1,0,0,0,.4-.345.922.922,0,0,0,.163-.547A1.184,1.184,0,0,0,132.617,681.565Zm-7.394.614a1.532,1.532,0,0,0-.585-.623,1.623,1.623,0,0,0-.853-.22,1.6,1.6,0,0,0-.853.22,1.554,1.554,0,0,0-.595.623,2.285,2.285,0,0,0,0,1.918,1.521,1.521,0,0,0,.595.633,1.69,1.69,0,0,0,.853.221,1.716,1.716,0,0,0,.853-.221,1.621,1.621,0,0,0,.585-.633,2.285,2.285,0,0,0,0-1.918Zm0,0a1.532,1.532,0,0,0-.585-.623,1.623,1.623,0,0,0-.853-.22,1.6,1.6,0,0,0-.853.22,1.554,1.554,0,0,0-.595.623,2.285,2.285,0,0,0,0,1.918,1.521,1.521,0,0,0,.595.633,1.69,1.69,0,0,0,.853.221,1.716,1.716,0,0,0,.853-.221,1.621,1.621,0,0,0,.585-.633,2.285,2.285,0,0,0,0-1.918Zm7.394-.614a1.057,1.057,0,0,0-.844-.336,1,1,0,0,0-.729.278,1.046,1.046,0,0,0-.278.767,1.093,1.093,0,0,0,.278.805.981.981,0,0,0,.748.288,1.284,1.284,0,0,0,.537-.115,1,1,0,0,0,.4-.345.922.922,0,0,0,.163-.547A1.184,1.184,0,0,0,132.617,681.565Zm3.98,0a1.024,1.024,0,0,0-.834-.336.984.984,0,0,0-.729.278,1.008,1.008,0,0,0-.278.767,1.055,1.055,0,0,0,.278.805.981.981,0,0,0,.748.288,1.24,1.24,0,0,0,.527-.115.963.963,0,0,0,.412-.345.919.919,0,0,0,.153-.547A1.138,1.138,0,0,0,136.6,681.565Zm28.7-14.931-.738,2.273h1.477Zm0,0-.738,2.273h1.477Zm-28.7,14.931a1.024,1.024,0,0,0-.834-.336.984.984,0,0,0-.729.278,1.008,1.008,0,0,0-.278.767,1.055,1.055,0,0,0,.278.805.981.981,0,0,0,.748.288,1.24,1.24,0,0,0,.527-.115.963.963,0,0,0,.412-.345.919.919,0,0,0,.153-.547A1.138,1.138,0,0,0,136.6,681.565Zm-3.98,0a1.057,1.057,0,0,0-.844-.336,1,1,0,0,0-.729.278,1.046,1.046,0,0,0-.278.767,1.093,1.093,0,0,0,.278.805.981.981,0,0,0,.748.288,1.284,1.284,0,0,0,.537-.115,1,1,0,0,0,.4-.345.922.922,0,0,0,.163-.547A1.184,1.184,0,0,0,132.617,681.565Zm-7.394.614a1.532,1.532,0,0,0-.585-.623,1.623,1.623,0,0,0-.853-.22,1.6,1.6,0,0,0-.853.22,1.554,1.554,0,0,0-.595.623,2.285,2.285,0,0,0,0,1.918,1.521,1.521,0,0,0,.595.633,1.69,1.69,0,0,0,.853.221,1.716,1.716,0,0,0,.853-.221,1.621,1.621,0,0,0,.585-.633,2.285,2.285,0,0,0,0-1.918Zm0,0a1.532,1.532,0,0,0-.585-.623,1.623,1.623,0,0,0-.853-.22,1.6,1.6,0,0,0-.853.22,1.554,1.554,0,0,0-.595.623,2.285,2.285,0,0,0,0,1.918,1.521,1.521,0,0,0,.595.633,1.69,1.69,0,0,0,.853.221,1.716,1.716,0,0,0,.853-.221,1.621,1.621,0,0,0,.585-.633,2.285,2.285,0,0,0,0-1.918Zm7.394-.614a1.057,1.057,0,0,0-.844-.336,1,1,0,0,0-.729.278,1.046,1.046,0,0,0-.278.767,1.093,1.093,0,0,0,.278.805.981.981,0,0,0,.748.288,1.284,1.284,0,0,0,.537-.115,1,1,0,0,0,.4-.345.922.922,0,0,0,.163-.547A1.184,1.184,0,0,0,132.617,681.565Zm3.98,0a1.024,1.024,0,0,0-.834-.336.984.984,0,0,0-.729.278,1.008,1.008,0,0,0-.278.767,1.055,1.055,0,0,0,.278.805.981.981,0,0,0,.748.288,1.24,1.24,0,0,0,.527-.115.963.963,0,0,0,.412-.345.919.919,0,0,0,.153-.547A1.138,1.138,0,0,0,136.6,681.565Zm28.7-14.931-.738,2.273h1.477Zm0,0-.738,2.273h1.477Zm-28.7,14.931a1.024,1.024,0,0,0-.834-.336.984.984,0,0,0-.729.278,1.008,1.008,0,0,0-.278.767,1.055,1.055,0,0,0,.278.805.981.981,0,0,0,.748.288,1.24,1.24,0,0,0,.527-.115.963.963,0,0,0,.412-.345.919.919,0,0,0,.153-.547A1.138,1.138,0,0,0,136.6,681.565Zm-3.98,0a1.057,1.057,0,0,0-.844-.336,1,1,0,0,0-.729.278,1.046,1.046,0,0,0-.278.767,1.093,1.093,0,0,0,.278.805.981.981,0,0,0,.748.288,1.284,1.284,0,0,0,.537-.115,1,1,0,0,0,.4-.345.922.922,0,0,0,.163-.547A1.184,1.184,0,0,0,132.617,681.565Zm-7.394.614a1.532,1.532,0,0,0-.585-.623,1.623,1.623,0,0,0-.853-.22,1.6,1.6,0,0,0-.853.22,1.554,1.554,0,0,0-.595.623,2.285,2.285,0,0,0,0,1.918,1.521,1.521,0,0,0,.595.633,1.69,1.69,0,0,0,.853.221,1.716,1.716,0,0,0,.853-.221,1.621,1.621,0,0,0,.585-.633,2.285,2.285,0,0,0,0-1.918Zm0,0a1.532,1.532,0,0,0-.585-.623,1.623,1.623,0,0,0-.853-.22,1.6,1.6,0,0,0-.853.22,1.554,1.554,0,0,0-.595.623,2.285,2.285,0,0,0,0,1.918,1.521,1.521,0,0,0,.595.633,1.69,1.69,0,0,0,.853.221,1.716,1.716,0,0,0,.853-.221,1.621,1.621,0,0,0,.585-.633,2.285,2.285,0,0,0,0-1.918Zm7.394-.614a1.057,1.057,0,0,0-.844-.336,1,1,0,0,0-.729.278,1.046,1.046,0,0,0-.278.767,1.093,1.093,0,0,0,.278.805.981.981,0,0,0,.748.288,1.284,1.284,0,0,0,.537-.115,1,1,0,0,0,.4-.345.922.922,0,0,0,.163-.547A1.184,1.184,0,0,0,132.617,681.565ZM165.3,666.634l-.738,2.273h1.477Zm0,0-.738,2.273h1.477Zm-32.681,14.931a1.057,1.057,0,0,0-.844-.336,1,1,0,0,0-.729.278,1.046,1.046,0,0,0-.278.767,1.093,1.093,0,0,0,.278.805.981.981,0,0,0,.748.288,1.284,1.284,0,0,0,.537-.115,1,1,0,0,0,.4-.345.922.922,0,0,0,.163-.547A1.184,1.184,0,0,0,132.617,681.565Zm-7.394.614a1.532,1.532,0,0,0-.585-.623,1.623,1.623,0,0,0-.853-.22,1.6,1.6,0,0,0-.853.22,1.554,1.554,0,0,0-.595.623,2.285,2.285,0,0,0,0,1.918,1.521,1.521,0,0,0,.595.633,1.69,1.69,0,0,0,.853.221,1.716,1.716,0,0,0,.853-.221,1.621,1.621,0,0,0,.585-.633,2.285,2.285,0,0,0,0-1.918Zm0,0a1.532,1.532,0,0,0-.585-.623,1.623,1.623,0,0,0-.853-.22,1.6,1.6,0,0,0-.853.22,1.554,1.554,0,0,0-.595.623,2.285,2.285,0,0,0,0,1.918,1.521,1.521,0,0,0,.595.633,1.69,1.69,0,0,0,.853.221,1.716,1.716,0,0,0,.853-.221,1.621,1.621,0,0,0,.585-.633,2.285,2.285,0,0,0,0-1.918ZM165.3,666.634l-.738,2.273h1.477Zm0,0-.738,2.273h1.477Zm-40.075,15.545a1.532,1.532,0,0,0-.585-.623,1.623,1.623,0,0,0-.853-.22,1.6,1.6,0,0,0-.853.22,1.554,1.554,0,0,0-.595.623,2.285,2.285,0,0,0,0,1.918,1.521,1.521,0,0,0,.595.633,1.69,1.69,0,0,0,.853.221,1.716,1.716,0,0,0,.853-.221,1.621,1.621,0,0,0,.585-.633,2.285,2.285,0,0,0,0-1.918ZM165.3,666.634l-.738,2.273h1.477Zm0,0-.738,2.273h1.477Zm0,0-.738,2.273h1.477Zm0,0-.738,2.273h1.477Zm0,0-.738,2.273h1.477Zm0,0-.738,2.273h1.477Zm0,0-.738,2.273h1.477Zm0,0-.738,2.273h1.477Zm0,0-.738,2.273h1.477Zm0,0-.738,2.273h1.477Zm0,0-.738,2.273h1.477Zm0,0-.738,2.273h1.477Zm0,0-.738,2.273h1.477Zm0,0-.738,2.273h1.477Z" transform="translate(-18367.682 -3880.596)"/></g><rect class="b" width="200" height="200" transform="translate(-18379 -3368)"/></g></svg>