<svg xmlns="http://www.w3.org/2000/svg" width="15.863" height="20" viewBox="0 0 15.863 20"><defs><style>.a{fill:#3ACCE1;}</style></defs><g transform="translate(-4.079 -2)"><circle class="a" cx="2" cy="2" r="2" transform="translate(10 2)"/><path class="a" d="M15.89,8.11A3.1,3.1,0,0,0,13.53,7H10.99A5.023,5.023,0,0,1,6.07,2.85,1,1,0,0,0,5.09,2h0a1,1,0,0,0-1,1.14A7.037,7.037,0,0,0,9,8.71V21a1,1,0,0,0,1,1h0a1,1,0,0,0,1-1V16h2v5a1,1,0,0,0,1,1h0a1,1,0,0,0,1-1V10.05l3.24,3.24a1,1,0,0,0,1.41,0h0a1,1,0,0,0,0-1.41Z"/></g></svg>