<svg id="your-vehicle-white" xmlns="http://www.w3.org/2000/svg" width="22.705" height="19.083" viewBox="0 0 22.705 19.083">
  <path id="Path_3513" data-name="Path 3513" d="M-367.726-257.09c.965-.135,1.3-.454,1.459-1.38l.045-.253c.055-.295.112-.589.156-.885.022-.136.04-.272.055-.41.115-1.085.58-2.146.218-3.3.4-.091.775-.2,1.158-.258.418-.069.577-.288.495-.7-.028-.142-.036-.289-.07-.43a1.174,1.174,0,0,0-1.472-.99c-.326.048-.653.079-1.019.122,0-.68-.028-1.317.007-1.949a3.246,3.246,0,0,0-.7-2.526,7.168,7.168,0,0,0-2.243-1.63,17.551,17.551,0,0,0-7.68-1.7,9.512,9.512,0,0,0-4,.708,2.876,2.876,0,0,0-1.731,1.892c-.22.778-.508,1.537-.775,2.335-.371-.184-.707-.355-1.044-.519a1.141,1.141,0,0,0-1.534.386,5.238,5.238,0,0,0-.34.608.43.43,0,0,0,.2.651c.374.217.732.459,1.041.654a7.868,7.868,0,0,0-.461,1.217c-.233,1.183-.423,2.375-.614,3.566a1.379,1.379,0,0,0,.933,1.766c-.089.567-.189,1.109-.256,1.655a.832.832,0,0,0,.651.985,9.136,9.136,0,0,0,1.161.192.835.835,0,0,0,1.009-.778c.1-.523.191-1.047.29-1.6l12.155,2.044c.115.884-.587,1.715.118,2.6h6.385v-.024h-3.973C-367.976-255.748-367.849-256.426-367.726-257.09Zm-15.069-5.6a2.073,2.073,0,0,1-2.6-.5c-.524-.7-.09-1.58.877-1.76a3.518,3.518,0,0,1,.438-.033,1.953,1.953,0,0,1,1.574.7A1.018,1.018,0,0,1-382.8-262.688Zm10.11,1.683-7.008-1.175c.012-.071.022-.141.034-.211,2.344.334,4.67.781,7.007,1.151C-372.663-261.16-372.675-261.082-372.685-261Zm.221-1.34-6.989-1.182c.013-.074.027-.149.04-.225,2.33.395,4.666.757,6.989,1.188C-372.437-262.49-372.45-262.417-372.464-262.344Zm-10.909-5.149c.4-1.2.757-2.366,1.184-3.5a1.782,1.782,0,0,1,1.241-1.028,13.068,13.068,0,0,1,2.626-.563,15.828,15.828,0,0,1,9.1,1.987,6.656,6.656,0,0,1,1.006.758,2.335,2.335,0,0,1,.79,2.066c-.062.97-.014,1.945-.014,2.964Zm14.1,5.38a2.107,2.107,0,0,1,2.445.385,1.038,1.038,0,0,1-.355,1.75,5.343,5.343,0,0,1-.827.229,2.255,2.255,0,0,1-1.5-.646A1.035,1.035,0,0,1-369.272-262.114Z" transform="translate(386.824 274.094)" fill="#fff"/>
  <path id="Path_3514" data-name="Path 3514" d="M-250.8-272.467c-.461-.9-.257-1.615.673-2.477a2.525,2.525,0,0,1-1.02-2.465c-1.289.28-1.37.248-2.028-.767-1.663.885-2.129.784-2.716-.607a2.131,2.131,0,0,1-.412.277,1.191,1.191,0,0,1-.46.031c.532-.211.532-.211.979-1.085.093.312.157.608.27.884a.884.884,0,0,0,1.4.516,14.553,14.553,0,0,0,1.247-.858,7.052,7.052,0,0,0,.243.751.7.7,0,0,0,1.13.376,5.679,5.679,0,0,0,.675-.477c.205-.158.4-.331.645-.5-.594,1.483-.982,2.917.768,3.916C-250.774-274.073-250.989-273.706-250.8-272.467Z" transform="translate(271.907 279.56)" fill="#fff"/>
  <path id="Path_3515" data-name="Path 3515" d="M-278.781-240.068a1.218,1.218,0,0,0,1.4.441.68.68,0,0,1,.448.079,3,3,0,0,0,1.442.422,1.313,1.313,0,0,1,.365.1,2.633,2.633,0,0,1-1.825-.123,1.871,1.871,0,0,0-.964-.027c-1.061.155-1.072.168-1.485-.095l1.061-.138.066-.1c-.9-.232-1.029-1.029-1.358-1.684a.6.6,0,0,0-.347-.258c-.319-.093-.651-.141-.977-.212-.608-.132-.607-.134-.779-.808.406.817,1.218.522,1.856.681a.648.648,0,0,1,.556.447c.131.382.3.751.428,1.069a8.258,8.258,0,0,0,.594-.589,2.283,2.283,0,0,0,.28-.507,1.644,1.644,0,0,1,.331-.552l-.176.975c.515.228.991.424,1.474-.042.168-.162.385-.276.573-.1a4.05,4.05,0,0,0-.629.407.785.785,0,0,1-.972.157C-278.046-240.808-278.406-240.665-278.781-240.068Z" transform="translate(293.971 246.794)" fill="#fff"/>
</svg>
