<svg xmlns="http://www.w3.org/2000/svg" width="22.705" height="18.363" viewBox="0 0 22.705 18.363"><defs><style>.a{fill:#3ACCE1;}</style></defs><path class="a" d="M-367.726-257.09c.965-.135,1.3-.454,1.459-1.38l.045-.253c.055-.295.112-.589.156-.885.022-.136.04-.272.055-.41.115-1.085.58-2.146.218-3.3.4-.091.775-.2,1.158-.258.418-.069.577-.288.495-.7-.028-.142-.036-.289-.07-.43a1.174,1.174,0,0,0-1.472-.99c-.326.048-.653.079-1.019.122,0-.68-.028-1.317.007-1.949a3.246,3.246,0,0,0-.7-2.526,7.168,7.168,0,0,0-2.243-1.63,17.551,17.551,0,0,0-7.68-1.7,9.512,9.512,0,0,0-4,.708,2.876,2.876,0,0,0-1.731,1.892c-.22.778-.508,1.537-.775,2.335-.371-.184-.707-.355-1.044-.519a1.141,1.141,0,0,0-1.534.386,5.238,5.238,0,0,0-.34.608.43.43,0,0,0,.2.651c.374.217.732.459,1.041.654a7.868,7.868,0,0,0-.461,1.217c-.233,1.183-.423,2.375-.614,3.566a1.379,1.379,0,0,0,.933,1.766c-.089.567-.189,1.109-.256,1.655a.832.832,0,0,0,.651.985,9.136,9.136,0,0,0,1.161.192.835.835,0,0,0,1.009-.778c.1-.523.191-1.047.29-1.6l12.155,2.044c.115.884-.587,1.715.118,2.6h6.385v-.024h-3.973C-367.976-255.748-367.849-256.426-367.726-257.09Zm-15.069-5.6a2.073,2.073,0,0,1-2.6-.5c-.524-.7-.09-1.58.877-1.76a3.518,3.518,0,0,1,.438-.033,1.953,1.953,0,0,1,1.574.7A1.018,1.018,0,0,1-382.8-262.688Zm10.11,1.683-7.008-1.175c.012-.071.022-.141.034-.211,2.344.334,4.67.781,7.007,1.151C-372.663-261.16-372.675-261.082-372.685-261Zm.221-1.34-6.989-1.182c.013-.074.027-.149.04-.225,2.33.395,4.666.757,6.989,1.188C-372.437-262.49-372.45-262.417-372.464-262.344Zm-10.909-5.149c.4-1.2.757-2.366,1.184-3.5a1.782,1.782,0,0,1,1.241-1.028,13.068,13.068,0,0,1,2.626-.563,15.828,15.828,0,0,1,9.1,1.987,6.656,6.656,0,0,1,1.006.758,2.335,2.335,0,0,1,.79,2.066c-.062.97-.014,1.945-.014,2.964Zm14.1,5.38a2.107,2.107,0,0,1,2.445.385,1.038,1.038,0,0,1-.355,1.75,5.343,5.343,0,0,1-.827.229,2.255,2.255,0,0,1-1.5-.646A1.035,1.035,0,0,1-369.272-262.114Z" transform="translate(386.824 273.374)"/></svg>