<svg xmlns="http://www.w3.org/2000/svg" width="43.93" height="47.46" viewBox="0 0 43.93 47.46"><g id="curving" transform="translate(-164.43 -462.16)"><g id="Group_263" data-name="Group 263"><g id="Path_2329" data-name="Path 2329"><path id="Path_2353" data-name="Path 2353" d="M182.74,467.46l-10.44-.71a12.769,12.769,0,0,1,3.97,2.4c3.92,3.49,5.81,9.34,5.61,17.38-.48,19.17-.06,22.06-.04,22.18l-1.29.2-2.61.66c-.14-.55-.54-3.83-.06-23.14.17-6.78-1.25-11.58-4.22-14.26a8.871,8.871,0,0,0-4.45-2.16l-.7,9.82-4.08-.28,1.21-17.39,17.39,1.21Z"/></g></g><g id="Group_264" data-name="Group 264"><g id="Path_2329-2" data-name="Path 2329-2"><path id="Path_2354" data-name="Path 2354" d="M208.36,479.55l-4.55.28-.78-9.82a10.822,10.822,0,0,0-5.64,2.62c-2.99,2.74-4.42,7.38-4.24,13.8.54,19.33.08,22.63-.07,23.19l-1.93-.54-1.96-.41c.02-.11.49-3.05-.04-22.13-.21-7.67,1.67-13.35,5.59-16.91a14.192,14.192,0,0,1,4.92-2.89l-11.7.72-.32-4.08,19.37-1.22Z"/></g></g></g></svg>