<svg xmlns="http://www.w3.org/2000/svg" width="57.45" height="39.997" viewBox="0 0 57.45 39.997">
  <g id="busy-parking" transform="translate(0 0)">
    <g id="Group_411" data-name="Group 411" transform="translate(5.857)">
      <g id="Group_184" data-name="Group 184">
        <path id="Path_2242" data-name="Path 2242" d="M-400.6,748.4h-5.416l-23.089,40h51.593Z" transform="translate(429.107 -748.403)" fill="#262626"/>
      </g>
      <g id="Group_188" data-name="Group 188" transform="translate(23.241)">
        <g id="Group_185" data-name="Group 185" transform="translate(0 37.138)">
          <path id="Path_2243" data-name="Path 2243" d="M-317,922.24h-5.111q.082-1.429.163-2.859h4.784Q-317.078,920.811-317,922.24Z" transform="translate(322.107 -919.381)" fill="#eee"/>
        </g>
        <g id="Group_186" data-name="Group 186" transform="translate(0.444 7.755)">
          <path id="Path_2244" data-name="Path 2244" d="M-315.841,808.594h-4.224q.14-2.449.28-4.9h3.664Q-315.981,806.145-315.841,808.594Zm-.56-9.794h-3.1q.14-2.448.28-4.9h2.543Q-316.541,796.351-316.4,798.8Zm-.56-9.794h-1.984q.14-2.449.28-4.9h1.424Q-317.1,786.556-316.961,789.005Z" transform="translate(320.065 -784.108)" fill="#eee"/>
        </g>
        <g id="Group_187" data-name="Group 187" transform="translate(2.123)">
          <path id="Path_2245" data-name="Path 2245" d="M-311.468,751.262h-.863q.082-1.43.164-2.859h.536Q-311.549,749.832-311.468,751.262Z" transform="translate(312.331 -748.403)" fill="#eee"/>
        </g>
      </g>
      <g id="Group_191" data-name="Group 191" transform="translate(1.605)">
        <g id="Group_189" data-name="Group 189">
          <path id="Path_2246" data-name="Path 2246" d="M-420.144,788.4h-1.573l21.652-40h.165Z" transform="translate(421.717 -748.403)" fill="#eee"/>
        </g>
        <g id="Group_190" data-name="Group 190" transform="translate(26.566)">
          <path id="Path_2247" data-name="Path 2247" d="M-277.595,788.4h-1.573l-20.245-40h.165Z" transform="translate(299.412 -748.403)" fill="#eee"/>
        </g>
      </g>
    </g>
    <g id="Group_412" data-name="Group 412" transform="translate(0 4.705)">
      <path id="Path_2289" data-name="Path 2289" d="M55-913.877v-.991c.018-.132.033-.265.054-.4a5.849,5.849,0,0,1,1.633-3.278,5.866,5.866,0,0,1,5.477-1.744,5.839,5.839,0,0,1,3.7,2.326A5.868,5.868,0,0,1,67-915.206a6.438,6.438,0,0,1-.183,2.652c-.015.053-.022.108-.036.176.076,0,.133.008.19.008H69.2q2.043,0,4.085,0A2.3,2.3,0,0,1,74.6-912a2.848,2.848,0,0,1,1.113,1.577,2.729,2.729,0,0,0,.1.319c.407.884.818,1.765,1.226,2.649a.167.167,0,0,0,.175.111c.254,0,.509.005.763,0a.454.454,0,0,1,.371.149,2.828,2.828,0,0,1,.748,1.75c.008.1-.027.135-.128.133-.232,0-.464,0-.7,0-.162,0-.17.008-.17.164q0,1.5,0,3c0,1.594,0,3.188,0,4.782a.891.891,0,0,1-.537.866,1.637,1.637,0,0,1-.273.11,2.928,2.928,0,0,1-1.522.028.827.827,0,0,1-.709-.877c-.008-.281,0-.563,0-.844,0-.2,0-.2-.2-.2H64.24c-.18,0-.186.008-.189.189,0,.33,0,.661-.015.991a.693.693,0,0,1-.659.759,7.923,7.923,0,0,1-1.2.045,1.562,1.562,0,0,1-.777-.227.734.734,0,0,1-.384-.674c0-.21,0-.42,0-.629q0-1.353,0-2.706,0-1.319,0-2.638c0-.67,0-1.339,0-2.009,0-.1-.03-.136-.131-.134-.245,0-.491,0-.737,0-.1,0-.147-.029-.14-.138a6.277,6.277,0,0,1,.035-.641,3.557,3.557,0,0,1,.2-.758.771.771,0,0,1,.747-.494c.3,0,.607,0,.911,0a.154.154,0,0,0,.163-.086c.167-.341.339-.679.508-1.018a.262.262,0,0,0,.01-.062c-.2.035-.4.066-.587.1a5.655,5.655,0,0,1-3.327-.4,5.943,5.943,0,0,1-3.427-3.853A11.615,11.615,0,0,1,55-913.877Zm14.563,7.526h2.679c.643,0,1.286,0,1.929-.007a.889.889,0,0,0,.859-.714c.038-.174.079-.346.111-.521a.412.412,0,0,0-.013-.17c-.163-.635-.33-1.269-.493-1.9a1.363,1.363,0,0,0-.241-.56c-.32-.384-.641-.767-.969-1.144a.256.256,0,0,0-.177-.064q-3.422,0-6.845,0a.224.224,0,0,0-.229.136,4.858,4.858,0,0,1-1.617,1.789.338.338,0,0,0-.148.21c-.124.461-.248.922-.384,1.38a.694.694,0,0,0,0,.53.652.652,0,0,1,.033.211.888.888,0,0,0,.672.8,1.538,1.538,0,0,0,.371.037Q67.333-906.349,69.563-906.351Zm-10.534-8.02h0q0,1.42,0,2.84c0,.156.006.162.156.163q.321,0,.643,0c.175,0,.175,0,.175-.183,0-.563,0-1.125,0-1.688,0-.093.017-.139.128-.127a6.849,6.849,0,0,0,1.722-.011,3.351,3.351,0,0,0,1.338-.44,1.763,1.763,0,0,0,.612-2.358,2.017,2.017,0,0,0-.968-.773,5.811,5.811,0,0,0-1.74-.406,11.321,11.321,0,0,0-1.9-.027c-.162.011-.169.015-.169.183Q59.029-915.784,59.029-914.37Zm5.505,10.053a1.527,1.527,0,0,0-1.488,1.519,1.535,1.535,0,0,0,1.486,1.469,1.541,1.541,0,0,0,1.5-1.5A1.538,1.538,0,0,0,64.534-904.317Zm11.529,1.507a1.524,1.524,0,0,0-1.483-1.508,1.533,1.533,0,0,0-1.5,1.481,1.53,1.53,0,0,0,1.486,1.507A1.524,1.524,0,0,0,76.063-902.81Z" transform="translate(-55 920.398)" fill="#2e3094"/>
      <path id="Path_2290" data-name="Path 2290" d="M241.763-770.844c0-.3,0-.6,0-.9,0-.081.024-.124.111-.13a6,6,0,0,1,1.992.134,2.228,2.228,0,0,1,.572.251.715.715,0,0,1,.346.778.686.686,0,0,1-.319.413,2.347,2.347,0,0,1-1.056.355c-.495.057-.994.08-1.491.111-.151.009-.153,0-.154-.158,0-.285,0-.571,0-.856Z" transform="translate(-236.758 775.873)" fill="#2e3094"/>
    </g>
  </g>
</svg>
