<svg xmlns="http://www.w3.org/2000/svg" width="30.192" height="47.43" viewBox="0 0 30.192 47.43"><g id="changing-lanes" transform="translate(-182 -230)"><g id="Group_419" data-name="Group 419" transform="translate(182 230)"><g id="Group_405" data-name="Group 405" transform="translate(0 1.247)"><g id="Group_210" data-name="Group 210"><g id="keyboard_arrow_left-24px-2" data-name="keyboard arrow left-24px-2"><g id="Path_2268-2" data-name="Path 2268-2"><path id="Path_2391" data-name="Path 2391" d="M595.307,75.607c-2.414,5.639-5.207,7.009-7.051,7.916-1.36.675-1.834.9-1.771,3.91h-4.216c-.032-5.228,1.708-6.5,4.132-7.694,1.518-.748,3.225-1.592,5.028-5.8.938-2.161.864-8.032-2.024-10.751-.6-.6-1.191-1.18-1.8-1.771-2.214-2.161-4.3-4.205-5.1-5.871l-.169-.348-.032-.4c-.105-1.349-.169-2.719-.179-4.079l-6.176,6.166-2.593-2.593L584.4,43.238l11.046,11.057-2.593,2.593-6.514-6.493c0,1.212.042,2.414.126,3.615a35.946,35.946,0,0,0,4.09,4.4c.622.611,1.233,1.2,1.792,1.771C596.877,64.424,596.7,72.371,595.307,75.607Z" transform="translate(-565.984 -43.238)"/><path id="Path_2392" data-name="Path 2392" d="M588.454,68.264l-2.593,2.593-6.345-6.324V84.464H575.3V64.533l-6.345,6.324-2.593-2.593,11.046-11.046Z" transform="translate(-566.362 -42.483)"/></g></g></g></g><g id="Line_11" data-name="Line 11" transform="translate(16.332 0)"><path id="Path_2402" data-name="Path 2402" d="M582.911,89.485h-1.054V86.323h1.054Zm0-6.324h-1.054V80h1.054Zm0-6.324h-1.054V73.675h1.054Zm0-6.324h-1.054V67.351h1.054Zm0-6.324h-1.054V61.027h1.054Zm0-6.324h-1.054V54.7h1.054Zm0-6.324h-1.054V48.379h1.054Zm0-6.324h-1.054V42.055h1.054Z" transform="translate(-581.857 -42.055)"/></g></g></g></svg>