<svg xmlns="http://www.w3.org/2000/svg" width="46.94" height="54.874" viewBox="0 0 46.94 54.874"><g id="diverging" transform="translate(-258.59 -146.71)"><g id="Group_201" data-name="Group 201" transform="translate(258.59 146.71)"><g id="keyboard_arrow_left-24px-2" data-name="keyboard arrow left-24px-2"><g id="Path_2268-2" data-name="Path 2268-2"><path id="Path_2389" data-name="Path 2389" d="M282.622,158.726l-2.82,2.821-6.9-6.879v46.917h-4.586V154.667l-6.9,6.879-2.82-2.821,12.016-12.016Z" transform="translate(-258.59 -146.71)"/><path id="Path_2390" data-name="Path 2390" d="M287.944,179.041c-3.52,14.183,7.934,17.7,8.427,17.852l-1.284,4.4c-.172-.046-15.777-4.827-11.752-22.679.057-.252.115-.5.183-.768.034-.161.08-.332.126-.493l5.859-21.842-6.788,4.3-.608-1.169-1.158-2.224,2.11-1.341,10.308-6.57,1.341-.848,7.544,14.47-3.233,2.052-4.689-8.966-.963,3.589-5.3,19.744c-.011.023-.011.046-.023.069C288.013,178.766,287.978,178.9,287.944,179.041Z" transform="translate(-255.313 -146.571)"/></g></g></g></g></svg>