<svg xmlns="http://www.w3.org/2000/svg" width="47.16" height="48.91" viewBox="0 0 47.16 48.91"><g id="enter-traffic-flow" transform="translate(-322.34 -302.54)"><g id="keyboard_arrow_left-24px" data-name="keyboard arrow left-24px"><g id="Path_2263" data-name="Path 2263"><path id="Path_2385" data-name="Path 2385" d="M369.5,313.02l-2.09,2.09-8.39,8.39-2.46-2.46,6-6.02H329.28l6,6.02-2.46,2.46-10.48-10.48,3.14-3.14,7.34-7.34,2.46,2.46-.68.68-5.32,5.34h33.28l-5.32-5.34-.68-.68,2.46-2.46,3.14,3.14Z"/></g></g><g id="keyboard_arrow_right-24px" data-name="keyboard arrow right-24px"><g id="Path_2265" data-name="Path 2265"><path id="Path_2386" data-name="Path 2386" d="M356.93,330.14l-2.47,2.46-4.17-4.16-1.84-1.84v24.85h-4V326.6l-2.9,2.89-3.12,3.11-2.47-2.46,5.59-5.59,4.89-4.89,3.85,3.85Z"/></g></g></g></svg>