<svg xmlns="http://www.w3.org/2000/svg" width="34.76" height="54.497" viewBox="0 0 34.76 54.497"><g id="merging" transform="translate(-301.66 -208.89)"><g id="Group_197" data-name="Group 197" transform="translate(301.66 208.89)"><g id="keyboard_arrow_left-24px" data-name="keyboard arrow left-24px" transform="translate(0.012)"><g id="Path_2267" data-name="Path 2267"><path id="Path_2387" data-name="Path 2387" d="M336.418,258.552l-.109,4.834c-5.04-.1-13.319-2.514-17.573-9.971-4.121,7.457-12.1,9.862-16.969,9.971l-.048-2.417-.048-2.417c.7-.012,12.618-.58,14.588-12.8a26.415,26.415,0,0,1-.242-3.614V217.713l-6.829,6.817-2.973-2.973,12.666-12.666,12.666,12.666-2.985,2.973-7.191-7.179v24.789a25.747,25.747,0,0,1-.23,3.565C323.184,258.057,335.826,258.54,336.418,258.552Z" transform="translate(-301.67 -208.89)"/></g></g><g id="Path_2269" data-name="Path 2269" transform="translate(0 49.662)"><path id="Path_2388" data-name="Path 2388" d="M301.72,252.4l-.06-2.417h.012Z" transform="translate(-301.66 -249.98)"/></g></g></g></svg>