<svg xmlns="http://www.w3.org/2000/svg" width="36.556" height="53.51" viewBox="0 0 36.556 53.51"><g id="overtaking-pass-left" transform="translate(-329.59 -105.03)"><g id="Group_210" data-name="Group 210" transform="translate(329.59 105.03)"><g id="keyboard_arrow_left-24px-2" data-name="keyboard arrow left-24px-2"><g id="Path_2268-2" data-name="Path 2268-2"><path id="Path_2393" data-name="Path 2393" d="M330.643,144.222c2.922,6.828,6.3,8.487,8.538,9.584,1.646.817,2.221,1.085,2.144,4.735h5.1c.038-6.33-2.067-7.874-5-9.316-1.838-.906-3.905-1.927-6.087-7.019-1.136-2.616-1.047-9.725,2.45-13.017.727-.727,1.442-1.429,2.182-2.144,2.68-2.616,5.207-5.092,6.177-7.108l.2-.421.038-.485c.128-1.634.2-3.293.217-4.939l7.478,7.466,3.139-3.139L343.851,105.03l-13.374,13.387,3.139,3.139L341.5,113.7c0,1.468-.051,2.922-.153,4.377a43.372,43.372,0,0,1-4.952,5.322c-.753.74-1.493,1.455-2.169,2.144C328.741,130.681,328.958,140.3,330.643,144.222Z" transform="translate(-329.59 -105.03)"/><path id="Path_2394" data-name="Path 2394" d="M337.275,132.384l3.139,3.139,7.683-7.657V152h5.1V127.867l7.683,7.657,3.139-3.139L350.649,119.01Z" transform="translate(-327.468 -101.169)"/></g></g></g></g></svg>