<svg id="parked" xmlns="http://www.w3.org/2000/svg" width="60.361" height="38.938" viewBox="0 0 60.361 38.938">
  <g id="Group_410" data-name="Group 410" transform="translate(-466.901 -48.18)">
    <path id="Path_2224" data-name="Path 2224" d="M527.153,63.158a10,10,0,0,0-1.024-3.656c-1.147-2.413-3.358-3.425-5.861-3.661-2.193-.206-4.41-.131-6.616-.15a27.86,27.86,0,0,0-2.874.113c-.87.081-1.733.255-2.6.413-.648.119-.994-.04-1.139-.766a1.332,1.332,0,0,0-1.426-1.231,1.4,1.4,0,0,0-.2.031c.158.6.317,1.189.486,1.823a2.746,2.746,0,0,1-.432.083c-1.533.034-3.068.111-4.6.075-1.26-.029-2.518-.217-3.777-.288a17.173,17.173,0,0,0-2.176.021c-.663.048-1.318.217-1.981.259a16.938,16.938,0,0,1-2.253.006c-1.835-.131-3.667-.415-5.5-.44-3.98-.056-7.966-.3-11.935.315a4.46,4.46,0,0,0-3.859,2.864,17.422,17.422,0,0,0-.676,2.077,30.348,30.348,0,0,0-.584,9.555,17.572,17.572,0,0,0,1.383,6.063,4,4,0,0,0,3.109,2.463,22.029,22.029,0,0,0,3.323.461c3.875.032,7.766.361,11.62-.348a6.84,6.84,0,0,1,1.4-.1c2.59.063,5.181.165,7.771.211.643.01,1.285-.188,1.929-.2,2.188-.027,4.378-.015,6.568-.008q.357.02.709.073c-.167.69-.313,1.306-.465,1.933,1.035.129,1.343-.534,1.533-1.222a.933.933,0,0,1,1.033-.821,1,1,0,0,1,.152.03c1.228.167,2.455.415,3.69.463,2.082.083,4.172.088,6.254.025a21.717,21.717,0,0,0,3.621-.428,5.978,5.978,0,0,0,4.626-3.9,10.313,10.313,0,0,0,.8-3.241C527.284,69.094,527.3,66.117,527.153,63.158Zm-54.93-5.692c-1.581,1.072-2.134,2.784-2.86,4.641.115-2.193,1.484-4.362,2.86-4.642Zm-2.891,15.788c.715,1.792,1.293,3.669,3.093,4.764-1.61-.406-2.943-2.481-3.093-4.765Zm11.751-15.512a5.306,5.306,0,0,1,.9-.177q3.588-.1,7.177-.173c1.08-.021,2.163,0,3.31,0a11.069,11.069,0,0,1-.57,1.6,1.042,1.042,0,0,1-.745.528c-3.022-.2-6.109.148-9.027-.978-.369-.142-.717-.34-1.076-.513.013-.1.023-.194.032-.288Zm-5.921,17.665a30.194,30.194,0,0,1-1.022-4.545,26.73,26.73,0,0,1,.509-9.549c.62-2.284.866-2.415,3.183-2.027,1.491.25,2.977.519,4.467.759.393.065.614.167.553.64a58.608,58.608,0,0,0,.009,14.267,1.489,1.489,0,0,1-.058.29c-2.107.333-4.211.676-6.318,1a1.079,1.079,0,0,1-1.311-.78l-.012-.052Zm5.947,2.276-.057-.331a14.059,14.059,0,0,1,1.36-.613c2.918-.968,5.945-.876,8.958-.863a.766.766,0,0,1,.567.392c.226.544.363,1.125.582,1.85-3.9-.1-7.666-.078-11.41-.441ZM496.627,57.27c1.577.065,3.16-.036,4.739-.048,1.493-.01,2.987,0,4.48,0,.039.154.079.309.121.461a4.152,4.152,0,0,1-1.056.561c-1.4.279-2.805.523-4.218.709-1.387.184-2.784.307-4.18.4-.838.057-1.683.01-2.526.01.243-1.579,1.074-2.16,2.64-2.1Zm9.326,20.877h-4.019c-1.952,0-3.9-.044-5.853.023a1.461,1.461,0,0,1-1.631-.982c-.15-.376-.355-.73-.534-1.093.05-.1.1-.19.153-.286,2.349.219,4.7.4,7.042.674,1.366.161,2.72.448,4.067.739a3.1,3.1,0,0,1,.9.577c-.044.111-.086.228-.125.345Zm6.034-4.078.82-1.873.267.1c-.444,1.224-.822,2.478-1.356,3.66a2.132,2.132,0,0,1-2.657,1.081q-2.953-.579-5.907-1.149c-.686-.133-1.375-.263-2.159-.413a38.859,38.859,0,0,0-.015-15.545c1.37-.288,2.707-.586,4.053-.849,1.3-.252,2.611-.427,3.9-.709,1.65-.359,2.732.19,3.151,1.829a13.593,13.593,0,0,1,.424,5.486c-.069.448-.069.909-.1,1.362.106.008.211.017.317.023v-3.8l.24-.006c.469,1.815.2,3.692.374,5.53.181,1.965-1.087,3.454-1.542,5.2Zm9.1,4.244a7.219,7.219,0,0,0,3.65-2.541c-.974,1.984-2.333,2.935-3.652,2.539Zm-.15-21.21c1.442-.488,3.087.64,3.9,2.661-1.174-1.226-2.156-2.42-3.9-2.664Z" fill="#2e3094"/>
  </g>
  <g id="Path_2382" data-name="Path 2382" transform="translate(-466.901 -48.18)">
    <rect id="Rectangle_150" data-name="Rectangle 150" width="59.615" height="4" transform="translate(466.901 48.18)"/>
  </g>
  <g id="Path_2383" data-name="Path 2383" transform="translate(-466.901 -48.18)">
    <rect id="Rectangle_151" data-name="Rectangle 151" width="59.615" height="4" transform="translate(466.901 83.118)"/>
  </g>
</svg>
