<svg xmlns="http://www.w3.org/2000/svg" width="22.97" height="47.912" viewBox="0 0 22.97 47.912"><g id="reversing" transform="translate(-408.36 -98.06)"><g id="Path_2372" data-name="Path 2372" transform="translate(417.649 143.77)"><path id="Path_2396" data-name="Path 2396" d="M417.059,140h-.219v-.208Z" transform="translate(-416.84 -139.79)"/><path id="Path_2397" data-name="Path 2397" d="M420.855,139.82V140h-.175Z" transform="translate(-416.474 -139.787)"/></g><g id="Path_2374" data-name="Path 2374" transform="translate(408.36 98.06)"><path id="Path_2398" data-name="Path 2398" d="M422.03,105.662v23.726l3.812-3.943,1.906,1.84L422.03,133.2v1.49l3.812-3.943,1.906,1.84L422.03,138.5v1.49l3.812-3.943,1.906,1.84L422.03,143.8l-.175.175-1.928,1.994-2.059-1.994-.219-.208-5.806-5.608,1.84-1.906,3.965,3.823v-1.61l-5.806-5.608,1.84-1.906,3.965,3.823v-1.61l-5.806-5.608,1.84-1.906,3.965,3.823V105.662l-6.583,6.572-2.706-2.695L419.84,98.06l11.49,11.479-2.706,2.695Z" transform="translate(-408.36 -98.06)"/></g></g></svg>