<svg xmlns="http://www.w3.org/2000/svg" width="52.827" height="45.05" viewBox="0 0 52.827 45.05"><g id="slowing-down" transform="translate(0)"><path id="Path_2285" data-name="Path 2285" d="M-443.235-505.891l-3.887-3.922a20.9,20.9,0,0,0,6.066-14.06h-2.236c-.335,0-.67.006-1,0a1.054,1.054,0,0,1-1.119-1.075,1.031,1.031,0,0,1,1.109-1.023c1.022-.011,2.045-.009,3.067-.015.032,0,.063-.026.135-.058a20.813,20.813,0,0,0-4.944-12.044c-.657.662-1.262,1.325-1.931,1.916a1.339,1.339,0,0,1-.97.358,1.482,1.482,0,0,1-.831-.686.89.89,0,0,1,.271-1.1c.659-.658,1.323-1.311,2.026-2.006a20.915,20.915,0,0,0-13.345-5.764c0,.541,0,1.029,0,1.516,0,.3,0,.6-.005.9-.005.921-.373,1.41-1.059,1.407s-1.063-.507-1.066-1.411q0-1.11-.01-2.221a1.022,1.022,0,0,0-.051-.176,20.9,20.9,0,0,0-13.152,5.626c.7.678,1.381,1.327,2.045,2a1.62,1.62,0,0,1,.43.643.964.964,0,0,1-.477,1.176.987.987,0,0,1-1.262-.157c-.56-.536-1.1-1.089-1.648-1.643-.158-.161-.289-.35-.472-.575a20.908,20.908,0,0,0-5.125,12.312c.966,0,1.878,0,2.79,0,.774,0,1.243.41,1.232,1.064a1.075,1.075,0,0,1-1.213,1.036c-.915,0-1.829,0-2.844,0a20.829,20.829,0,0,0,6.067,14.075l-3.893,3.9c-9.111-8.624-11.14-24.895-.992-36.307a26.453,26.453,0,0,1,38.654-.667A26.351,26.351,0,0,1-443.235-505.891Z" transform="translate(488.303 550.941)"/><path id="Path_2286" data-name="Path 2286" d="M-366.746-334.727a2.844,2.844,0,0,1,1.447,3.135,1.612,1.612,0,0,1-1.1,1.117q-7.17,2.308-14.337,4.627a5.976,5.976,0,0,1-1.237.248.862.862,0,0,1-.953-.594.763.763,0,0,1,.366-.951,11.056,11.056,0,0,1,1.259-.769q6.535-3.354,13.077-6.694A1.536,1.536,0,0,1-366.746-334.727Z" transform="translate(394.122 357.726)"/></g></svg>