<svg id="stationery" xmlns="http://www.w3.org/2000/svg" width="59.267" height="26.949" viewBox="0 0 59.267 26.949">
  <path id="Path_2224" data-name="Path 2224" d="M-1051.462,756.581a10,10,0,0,0-1.024-3.656c-1.147-2.413-3.358-3.425-5.861-3.661-2.193-.206-4.41-.131-6.616-.15a27.635,27.635,0,0,0-2.874.113c-.87.081-1.733.255-2.6.413-.648.119-.994-.04-1.139-.766a1.332,1.332,0,0,0-1.629-1.2c.158.6.317,1.189.486,1.823a2.843,2.843,0,0,1-.432.083c-1.533.034-3.068.111-4.6.075-1.26-.029-2.518-.217-3.777-.288a17.174,17.174,0,0,0-2.176.021c-.663.048-1.318.217-1.981.259a16.9,16.9,0,0,1-2.253.006c-1.835-.131-3.667-.415-5.5-.44-3.98-.056-7.966-.3-11.935.315a4.46,4.46,0,0,0-3.859,2.864,17.384,17.384,0,0,0-.676,2.077,30.343,30.343,0,0,0-.584,9.555,17.554,17.554,0,0,0,1.383,6.063A4,4,0,0,0-1106,772.55a22.034,22.034,0,0,0,3.323.461c3.875.032,7.766.361,11.62-.348a6.846,6.846,0,0,1,1.4-.1c2.59.063,5.181.165,7.771.211.643.01,1.285-.188,1.929-.2,2.188-.027,4.378-.015,6.568-.008a7.073,7.073,0,0,1,.709.073c-.167.69-.313,1.306-.465,1.933,1.035.129,1.343-.534,1.533-1.222a.933.933,0,0,1,1.185-.791c1.228.167,2.455.415,3.69.463,2.082.083,4.172.088,6.254.025a21.822,21.822,0,0,0,3.621-.428,5.979,5.979,0,0,0,4.626-3.9,10.343,10.343,0,0,0,.8-3.241C-1051.331,762.517-1051.31,759.54-1051.462,756.581Zm-54.93-5.692c-1.581,1.072-2.134,2.784-2.86,4.641C-1109.137,753.337-1107.768,751.168-1106.392,750.888Zm-2.891,15.788c.715,1.792,1.293,3.669,3.093,4.764C-1107.8,771.035-1109.133,768.96-1109.283,766.676Zm11.751-15.512a5.277,5.277,0,0,1,.9-.177q3.588-.1,7.177-.173c1.08-.021,2.163,0,3.31,0a11.192,11.192,0,0,1-.57,1.6,1.042,1.042,0,0,1-.745.528c-3.022-.2-6.109.148-9.027-.978-.369-.142-.717-.34-1.076-.513C-1097.55,751.351-1097.54,751.258-1097.531,751.164Zm-5.921,17.665a30.094,30.094,0,0,1-1.022-4.545,26.726,26.726,0,0,1,.509-9.549c.62-2.284.866-2.415,3.183-2.027,1.491.25,2.977.519,4.467.759.393.065.614.167.553.64a58.584,58.584,0,0,0,.009,14.267,1.534,1.534,0,0,1-.058.29c-2.107.333-4.211.676-6.318.995A1.079,1.079,0,0,1-1103.453,768.828Zm5.947,2.276q-.028-.165-.057-.331a14.071,14.071,0,0,1,1.36-.613c2.918-.968,5.945-.876,8.958-.863a.767.767,0,0,1,.567.392c.226.544.363,1.125.582,1.85C-1090,771.444-1093.762,771.463-1097.506,771.1Zm15.518-20.413c1.577.065,3.16-.036,4.739-.048,1.493-.01,2.987,0,4.48,0,.039.154.079.309.121.461a4.148,4.148,0,0,1-1.056.561c-1.4.279-2.805.523-4.218.709-1.387.184-2.784.307-4.18.4-.838.057-1.683.01-2.526.01C-1084.385,751.207-1083.554,750.626-1081.988,750.69Zm9.326,20.877h-4.019c-1.952,0-3.9-.044-5.853.023a1.461,1.461,0,0,1-1.631-.982c-.15-.376-.355-.73-.534-1.093.05-.1.1-.19.153-.286,2.349.219,4.7.4,7.042.674,1.366.161,2.72.448,4.067.739a3.112,3.112,0,0,1,.9.577C-1072.581,771.333-1072.623,771.45-1072.662,771.567Zm6.034-4.078q.41-.939.82-1.873l.267.1c-.444,1.224-.822,2.478-1.356,3.66a2.132,2.132,0,0,1-2.657,1.081q-2.953-.579-5.907-1.149c-.686-.133-1.375-.263-2.159-.413a38.856,38.856,0,0,0-.015-15.545c1.37-.288,2.707-.586,4.053-.849,1.3-.252,2.611-.427,3.9-.709,1.65-.359,2.732.19,3.151,1.829a13.6,13.6,0,0,1,.424,5.486c-.069.448-.069.909-.1,1.362.106.008.211.017.317.023v-3.8l.24-.006c.469,1.815.2,3.692.374,5.53.181,1.965-1.087,3.454-1.542,5.2Zm9.1,4.244a7.225,7.225,0,0,0,3.65-2.541C-1054.852,771.179-1056.211,772.13-1057.53,771.734Zm-.15-21.21c1.442-.488,3.087.64,3.9,2.661C-1054.952,751.961-1055.934,750.767-1057.68,750.523Z" transform="translate(1110.62 -747.646)" fill="#2e3094"/>
</svg>
