<svg xmlns="http://www.w3.org/2000/svg" width="30.145" height="41.93" viewBox="0 0 30.145 41.93"><g id="sudden_start" data-name="sudden start" transform="translate(-441.509 -95.49)"><g id="Path_2378" data-name="Path 2378" transform="translate(446.46 95.49)"><path id="Path_2399" data-name="Path 2399" d="M467.42,105.97l-2.47,2.47-6.01-6v34.98h-4V102.44l-6.02,6-2.46-2.47,10.48-10.48Z" transform="translate(-446.46 -95.49)"/></g><g id="Path_2379" data-name="Path 2379" transform="translate(462.61 126.501)"><path id="Path_2400" data-name="Path 2400" d="M470.1,135.323a7.574,7.574,0,0,1-4.961-1.693c-1.8-1.546-2.65-3.944-2.511-7.129l4,.174c-.082,1.893.294,3.212,1.117,3.917a4.3,4.3,0,0,0,3.131.673l.785,3.922A8.374,8.374,0,0,1,470.1,135.323Z" transform="translate(-462.61 -126.501)"/></g><g id="Path_2380" data-name="Path 2380" transform="translate(441.509 126.501)"><path id="Path_2401" data-name="Path 2401" d="M443.066,135.323a8.374,8.374,0,0,1-1.557-.136l.77-3.925a4.228,4.228,0,0,0,3.159-.682c.814-.708,1.185-2.022,1.1-3.9l4-.174c.139,3.185-.706,5.583-2.511,7.129A7.57,7.57,0,0,1,443.066,135.323Z" transform="translate(-441.509 -126.501)"/></g></g></svg>