<svg xmlns="http://www.w3.org/2000/svg" width="20.418" height="51.483" viewBox="0 0 20.418 51.483"><g id="swerving" transform="translate(-611.358 -34.057)"><path id="Path_2403" data-name="Path 2403" d="M611.41,82.99c.02-.13.08-1,.04-5.99-.02-2.24-.05-4.35-.09-6.97-.05-3.29.77-5.41,2.5-6.5,2.74-1.74,6.39.07,9.62,1.67a25.975,25.975,0,0,0,3.32,1.47,6.634,6.634,0,0,0-.12-1.13c-.9-5.23-5.24-7.61-8.72-9.52-2.46-1.34-4.58-2.51-4.93-4.62a4.1,4.1,0,0,1,1.25-3.49c2.36-2.6,5.56-3.4,8.38-4.1,3.49-.88,4.84-1.38,5.1-3.15a.7.7,0,0,0-.2-.66c-1.61-1.74-8.43-2.13-12.53-1.85l-.28-3.99c2.02-.14,12.25-.65,15.74,3.13a4.653,4.653,0,0,1,1.23,3.96c-.68,4.58-4.79,5.61-8.09,6.44-2.38.59-4.84,1.21-6.39,2.91-.06.07-.11.14-.15.19a17.77,17.77,0,0,0,2.79,1.72c3.79,2.08,9.51,5.22,10.74,12.35.28,1.64.47,3.98-1.23,5.24-2,1.5-4.64.19-7.69-1.32-1.7-.84-4.86-2.4-5.71-1.87-.25.16-.66.98-.63,3.06.04,2.63.07,4.74.09,6.99.02,2.54.02,4.38-.01,5.46-.02,1-.07,2.67-1.82,2.89l-1.76.23-.44-1.74"/></g></svg>