<svg xmlns="http://www.w3.org/2000/svg" width="33.6" height="54.616" viewBox="0 0 33.6 54.616"><g id="u-turn" transform="translate(-285.34 -338.248)"><path id="Path_2384" data-name="Path 2384" d="M318.94,367.309l-13.755,13.768L291.43,367.309l3.229-3.229,7.875,7.862c.039-2.743.052-6.746-.053-10.553-.039-1.68,0-3.255.039-4.778.092-4.029.184-7.206-1.326-9.818-1.168-2.034-2.467-3.1-3.951-3.268-2.415-.262-5.184,1.719-6.654,3.058v46.279h-5.25V344.459l.7-.748c.564-.63,5.749-6.064,11.773-5.408,2.218.249,5.394,1.47,7.928,5.867,2.244,3.885,2.139,8.111,2.021,12.574-.026,1.457-.066,2.966-.026,4.5.105,3.872.092,7.941.053,10.736l7.928-7.9Z"/></g></svg>