<svg id="fallen-out" xmlns="http://www.w3.org/2000/svg" width="60.936" height="50.224" viewBox="0 0 60.936 50.224">
  <path id="Path_2574" data-name="Path 2574" d="M2026.624-938.422l-6.12-2.5,12.865-30.978c1.9.792,3.765,1.549,5.6,2.362a.889.889,0,0,1,.382.764,1.323,1.323,0,0,0,.57,1.4q3.738,3.455,7.426,6.965a1.4,1.4,0,0,1,.39,1.1c-.634,2.661-1.335,5.307-2.029,7.954-.974,3.714-3.344,6.722-5.061,10.062a3.339,3.339,0,0,1-3.9,2.121c-2.54-.318-5.132-.212-7.7-.318C2028.065-939.524,2027.1-939.6,2026.624-938.422Zm2.8-3.642c2.89.112,5.452.223,8.015.29a.97.97,0,0,0,.706-.423,48.179,48.179,0,0,0,3.707-6.509c1.272-3.195,2.1-6.567,3.069-9.879.073-.253-.19-.7-.421-.928-.995-.992-2.036-1.937-3.06-2.9-.812-.764-1.623-1.531-2.608-2.46A60.5,60.5,0,0,1,2029.42-942.064Zm7.542-23.908a2.2,2.2,0,0,0-2.159-2.139,2.18,2.18,0,0,0-2.149,2.254,2.2,2.2,0,0,0,2.221,2.083A2.17,2.17,0,0,0,2036.962-965.972Zm-11.226,19.7a2.169,2.169,0,0,0-2.137,2.168,2.181,2.181,0,0,0,2.17,2.144,2.153,2.153,0,0,0,2.135-2.174A2.158,2.158,0,0,0,2025.736-946.269Zm4.97-4.037.382.136c.173-.343.527-.706.492-1.026-.31-2.839-.69-5.671-1.048-8.5l-.323.023Zm2.96-4.571c-.284-1.345-.49-2.517-.8-3.66-.085-.315-.482-.546-.735-.815C2032.334-956.883,2032.906-955.31,2033.666-954.877Zm-5.088.377c-.428,2.765-.347,4,.363,4.7C2028.671-951.527,2029.684-953.063,2028.578-954.5Z" transform="translate(-2009.806 985.403)"/>
  <path id="Path_2575" data-name="Path 2575" d="M1986.081-1001.946l-.33-1.284c1.054-.56,2.012-1.178,2.094-2.519-.836,1.535-2.016,2.458-3.835,2.064a3,3,0,0,1-2.427-2.51,3,3,0,0,1,1.61-3.346l1.261,1.061c-.928-1.2-1.5-2.4-.863-3.892a3.069,3.069,0,0,1,5.224-.827,1.06,1.06,0,0,0,1.275.406,4.106,4.106,0,0,1,4.418,1.422l-.714.774a7.658,7.658,0,0,1,2.165-.473,2.1,2.1,0,0,1,1.8,2.165,2.418,2.418,0,0,1-1.964,2.211,3.84,3.84,0,0,0-1.215.711c-.812.589-1.6,1.211-2.527,1.917-.1,2.176-.594,2.831-2.932,3.63a3.509,3.509,0,0,1-.911,3.264l1.237-.725a1.659,1.659,0,0,1,.721,2.059,1.7,1.7,0,0,1-1.827,1.2c-1.043-.023-1.523-.692-1.769-2.3a2.475,2.475,0,0,1-2.353-2.284A2.551,2.551,0,0,1,1986.081-1001.946Z" transform="translate(-1981.514 1016.185)"/>
  <path id="Path_2576" data-name="Path 2576" d="M2113.535-891.058l.548,1.19c.334-1.871,1.9-1.1,2.621-1.456l.857-1.6c-.737-.07-.966-.716-1.066-1.5-.13-1.016-.408-2.021-.451-3.038a2.968,2.968,0,0,1,2.812-3.3c.2-.03.41-.036.613-.064,1.959-.268,1.959-.269,3.008,1.164.8-1.4.82-1.464,2.484-1.082a12.278,12.278,0,0,1,3.453,1.192,2.43,2.43,0,0,1,.476,4.086c-.169-.612-.317-1.182-.486-1.746-.3-1-.946-1.478-1.769-1.32a1.514,1.514,0,0,0-1.133,1.983c.248,1.239.668,2.447.871,3.691a5.324,5.324,0,0,1-.133,2.149,17.307,17.307,0,0,1-1.01,2.577,1.911,1.911,0,0,1-2.5,1.176,1.951,1.951,0,0,1-1.024-2.581c.187-.55.436-1.079.655-1.618s.436-1.078.689-1.7c-.392-.2-.772-.4-1.161-.578s-.809-.35-1.39-.6c.2,1.09.367,2.047.561,3,.458,2.241-.046,2.95-2.285,3.254-1.8.243-3.588.536-5.385.782a1.862,1.862,0,0,1-2.143-1.038,1.642,1.642,0,0,1,.326-2.076A9.422,9.422,0,0,1,2113.535-891.058Z" transform="translate(-2075.486 933.935)" fill="#2e3094"/>
  <path id="Path_2577" data-name="Path 2577" d="M2011.695-976.227l.571-1.168,2.314.99-12.8,30.9-2.389-.939.427-1.208c-1.026-.434-2.058-.856-3.079-1.3-1.247-.547-1.457-1.082-.952-2.348.216-.541.42-1.088.667-1.614a1.425,1.425,0,0,1,2.158-.859c1.043.411,2.069.865,3.2,1.34l7.915-19.012c-1.141-.488-2.243-.943-3.331-1.43-1-.445-1.2-.931-.828-1.959.232-.644.485-1.282.769-1.9a1.381,1.381,0,0,1,2.07-.837C2009.486-977.157,2010.553-976.7,2011.695-976.227Z" transform="translate(-1991.684 989.657)"/>
  <path id="Path_2578" data-name="Path 2578" d="M2172.321-879.679a11.845,11.845,0,0,1-1.063-.56c-1.5-1.019-3.012-2.018-4.461-3.1a2.8,2.8,0,0,1-.949-1.368c-.446-1.54-.74-3.124-1.15-4.676-.227-.857.037-1.478.833-1.7.859-.244,1.332.323,1.532,1.111a32.056,32.056,0,0,1,.779,3.29,2.968,2.968,0,0,0,1.543,2.235,33.106,33.106,0,0,1,3.439,2.414,1.711,1.711,0,0,1,.493,1.386C2173.25-880.284,2172.676-880,2172.321-879.679Z" transform="translate(-2114.377 926.81)" fill="#2e3094"/>
  <path id="Path_2579" data-name="Path 2579" d="M2184.152-884.212l-.355,1.145c.1.032.189.1.265.082,1.4-.292,1.7-.035,1.788,1.415a3.333,3.333,0,0,1-.878,2.641c-1.046,1.094-1.681,1.161-2.918.3a22.459,22.459,0,0,1-2.333-1.673,1.847,1.847,0,0,1-.563-1.357C2179.441-884.091,2181.771-885.3,2184.152-884.212Z" transform="translate(-2124.922 922.068)" fill="#2e3094"/>
  <path id="Path_2580" data-name="Path 2580" d="M2002.5-938.876a1.86,1.86,0,0,1,1.933-1.731,1.885,1.885,0,0,1,1.7,1.872,1.873,1.873,0,0,1-1.9,1.777A1.829,1.829,0,0,1,2002.5-938.876Z" transform="translate(-1996.739 962.701)"/>
  <path id="Path_2581" data-name="Path 2581" d="M2029.422-1019.338a1.779,1.779,0,0,1-1.738,1.783,1.8,1.8,0,0,1-1.865-1.762,1.791,1.791,0,0,1,1.843-1.781A1.777,1.777,0,0,1,2029.422-1019.338Z" transform="translate(-2013.663 1021.104)"/>
  <path id="Path_2582" data-name="Path 2582" d="M2018.367-931.315a1.261,1.261,0,0,1,1.311,1.261,1.294,1.294,0,0,1-1.294,1.4,1.331,1.331,0,0,1-1.347-1.364A1.31,1.31,0,0,1,2018.367-931.315Z" transform="translate(-2007.287 955.955)"/>
  <path id="Path_2583" data-name="Path 2583" d="M2000.291-859.64c.314,1.872.314,1.872-1.453,2.848-.2-.38-.406-.755-.594-1.14s-.364-.791-.575-1.255Z" transform="translate(-1993.235 903.947)"/>
  <path id="Path_2584" data-name="Path 2584" d="M1988.819-846.472l-2.5-.739,1.428-2.26C1989.391-848.41,1989.419-848.336,1988.819-846.472Z" transform="translate(-1984.998 896.568)"/>
  <path id="Path_2585" data-name="Path 2585" d="M2011.039-1021.116a1.206,1.206,0,0,1,1.21,1.17,1.238,1.238,0,0,1-1.254,1.324,1.173,1.173,0,0,1-1.241-1.219A1.227,1.227,0,0,1,2011.039-1021.116Z" transform="translate(-2002.004 1021.116)"/>
  <path id="Path_2586" data-name="Path 2586" d="M2014.523-854.848l-1.671-.679,1.146-1.441Z" transform="translate(-2004.253 902.009)"/>
  <path id="Path_2587" data-name="Path 2587" d="M1988.717-868.066l.411,1.824-1.644-.657.862-1.127Z" transform="translate(-1985.846 910.062)"/>
  <path id="Path_2588" data-name="Path 2588" d="M2035.261-843.194c.71-1.146,1.132-1.139,1.9,0Z" transform="translate(-2020.513 892.636)"/>
  <path id="Path_2589" data-name="Path 2589" d="M2058.054-845.312h-1.838C2056.824-846.469,2057.271-846.483,2058.054-845.312Z" transform="translate(-2035.719 894.185)"/>
  <path id="Path_2590" data-name="Path 2590" d="M2079.715-846.77c.654-1.11.98-1.119,1.729,0Z" transform="translate(-2052.77 895.215)"/>
  <path id="Path_2591" data-name="Path 2591" d="M2095.715-840.173h-1.4l-.132-.254c.211-.191.421-.537.634-.538a2.973,2.973,0,0,1,.994.361Z" transform="translate(-2063.269 890.396)"/>
  <path id="Path_2592" data-name="Path 2592" d="M2090.292-922.311l-2.512-1.607a2.574,2.574,0,0,0,1.227-2.553,1.693,1.693,0,0,0,2.243,1.236C2089.869-924.478,2090.467-923.2,2090.292-922.311Z" transform="translate(-2058.622 952.44)"/>
  <path id="Path_2593" data-name="Path 2593" d="M2083.022-904.856c.384,1.9.34,1.985-1.45,2.8l-1.129-2.352Z" transform="translate(-2053.298 936.757)"/>
  <path id="Path_2594" data-name="Path 2594" d="M2094.892-905.774c.111.495.222.989.393,1.751l-1.649-.623.844-1.1Z" transform="translate(-2062.871 937.423)"/>
</svg>
