<svg id="trapped" xmlns="http://www.w3.org/2000/svg" width="60.969" height="49.498" viewBox="0 0 60.969 49.498">
  <path id="Path_2558" data-name="Path 2558" d="M1958.638-644.013l40.686-11.2a4.838,4.838,0,0,1,.281.647c.59,2.194,1.146,4.4,1.772,6.583.163.569.128.933-.437,1.156-.755.3-.894.889-.956,1.641-.364,4.371-.774,8.738-1.2,13.1a1.182,1.182,0,0,1-.536.839c-3.31,1.474-6.638,2.908-9.966,4.34-3.282,1.412-6.8,1.737-10.287,2.213-1.914.262-3.841.432-5.752.715a1.288,1.288,0,0,1-1.443-.626c-2.481-3.49-5.026-6.935-7.5-10.429a1.864,1.864,0,0,0-1.767-.961,1.006,1.006,0,0,1-.814-.48C1959.994-638.946,1959.337-641.436,1958.638-644.013Zm37.96-.109c-.389.154-.612.232-.826.329a107.733,107.733,0,0,1-15,5.688,1.4,1.4,0,0,0-.682.925,5.178,5.178,0,0,1-4.31,4.221,5.116,5.116,0,0,1-5.414-2.228c-.253-.353-.447-.749-.662-1.115l-3.023.393c2.029,2.812,3.977,5.527,5.956,8.22a.979.979,0,0,0,.777.3c3.011-.387,6.027-.749,9.023-1.238,4.6-.751,8.62-3.082,12.852-4.834a.847.847,0,0,0,.422-.593C1996.022-637.354,1996.3-640.654,1996.6-644.122Zm-33.447,2.782a2.717,2.717,0,0,0,2.56,2.827,2.83,2.83,0,0,0,2.858-2.674,2.733,2.733,0,0,0-2.694-2.808A2.671,2.671,0,0,0,1963.151-641.341Zm31.544-10.545a2.739,2.739,0,0,0-2.824,2.569,2.772,2.772,0,0,0,2.633,2.88,2.74,2.74,0,0,0,2.808-2.588A2.681,2.681,0,0,0,1994.7-651.885Zm-23.4,15.415a3.706,3.706,0,0,0,4.211,2.2,3.639,3.639,0,0,0,3.161-3.415Z" transform="translate(-1945.196 664.663)"/>
  <path id="Path_2559" data-name="Path 2559" d="M1954.571-669.608l-1.256-4.455,1.514-.5c-.279-1.077-.566-2.131-.822-3.193a1.582,1.582,0,0,1,1.209-2.142c.922-.288,1.859-.532,2.8-.756a1.7,1.7,0,0,1,2.288,1.333c.3.986.544,1.985.833,3.055l25.069-6.9c-.286-1.09-.567-2.111-.818-3.138a1.654,1.654,0,0,1,1.3-2.281q1.339-.4,2.7-.72a1.708,1.708,0,0,1,2.281,1.349c.293.985.543,1.983.822,3.012l1.577-.375,1.272,4.531Z" transform="translate(-1941.345 689.38)"/>
  <path id="Path_2560" data-name="Path 2560" d="M2084.068-569.446l1.493,3.911c.4-1.138.731-2.09,1.125-3.215l2.9,2.536-.419-3.507,3.782.719L2090.371-572l2.9-1.054-2.438-1.19,2.642-2.159-2.8-.08-.019-.4c1.344-.226,2.717-.169,4.074-.269l.176.325-2.9,2.445,2.583,1.255-.006.318-3.167,1.071,2.83,3.274-.131.323-4.241-.829.492,3.841-.338.144-3.075-2.718-1.166,3.526-.35.018-1.674-4.339-2.336,1.528a4.552,4.552,0,0,1,.755-3.644c-.015.53,0,.907-.043,1.278s-.144.725-.272,1.338Z" transform="translate(-2033.939 608.176)"/>
  <path id="Path_2561" data-name="Path 2561" d="M2012.192-524.432c-.541-.544-1.057-.867-1.279-1.331a1.6,1.6,0,0,1,.5-2.122c.58-.431,1.418-.619,1.376-1.609,0-.108.384-.348.548-.316s.39.4.342.524a6.33,6.33,0,0,1-.769,1.482c-.189.258-.723.313-.828.571a4.468,4.468,0,0,0-.122,1.353,10.279,10.279,0,0,0,1.218-.153c.114-.026.139-.339.267-.411a2.456,2.456,0,0,1,.655-.166c.025.248.163.63.055.723C2013.586-525.4,2012.954-524.984,2012.192-524.432Z" transform="translate(-1982.871 573.93)"/>
  <path id="Path_2562" data-name="Path 2562" d="M1939.9-646.169l-4.03,8.465-.337.016c-.055-.322-.262-.723-.141-.954,1.321-2.53,2.692-5.034,4.055-7.541.025-.046.114-.058.174-.086Z" transform="translate(-1928.352 658.189)"/>
  <path id="Path_2563" data-name="Path 2563" d="M1917.944-646.846l-.368-.855,7.651-5.3.248.317Z" transform="translate(-1915.487 663.061)"/>
  <path id="Path_2564" data-name="Path 2564" d="M1919.515-658.8l-9.281,1.059-.213-.238c.245-.236.475-.66.736-.68,2.782-.21,5.569-.359,8.355-.514a1.318,1.318,0,0,1,.422.128Z" transform="translate(-1910.021 667.524)"/>
  <path id="Path_2565" data-name="Path 2565" d="M2029.965-530.546c.162.262.439.512.466.787a18.913,18.913,0,0,1,.1,2.777c-.013.278-.4.537-.609.806-.14-.262-.4-.523-.4-.787-.014-1.156.046-2.312.079-3.469Z" transform="translate(-1996.486 574.459)"/>
  <path id="Path_2566" data-name="Path 2566" d="M1958.551-583.375a2.147,2.147,0,0,0,2.681,1.339C1960.014-581.147,1958.7-581.811,1958.551-583.375Z" transform="translate(-1945.134 612.683)"/>
  <path id="Path_2567" data-name="Path 2567" d="M2120.652-627.424c.792,1.235.2,2.362-1.437,2.654A2.267,2.267,0,0,0,2120.652-627.424Z" transform="translate(-2061.378 644.553)"/>
  <path id="Path_2568" data-name="Path 2568" d="M2054.559-543.887a2.173,2.173,0,0,0,2.834-.979C2057.093-543.375,2055.928-542.971,2054.559-543.887Z" transform="translate(-2014.598 584.821)"/>
  <path id="Path_2569" data-name="Path 2569" d="M1994.68-541.838a2.163,2.163,0,0,0,2.145,2.244C1995.2-539.2,1994.314-540.248,1994.68-541.838Z" transform="translate(-1971.215 582.629)"/>
  <path id="Path_2570" data-name="Path 2570" d="M2016.008-535.739a5.094,5.094,0,0,1,1.125-.72c.144-.039.384.276.581.431-.22.224-.4.544-.671.641C2016.85-535.317,2016.549-535.541,2016.008-535.739Z" transform="translate(-1986.705 578.741)"/>
  <path id="Path_2571" data-name="Path 2571" d="M2065.13-595.813a3.679,3.679,0,0,1-3.836,3.52,3.717,3.717,0,0,1-3.494-3.869,3.717,3.717,0,0,1,3.846-3.518A3.672,3.672,0,0,1,2065.13-595.813Z" transform="translate(-2016.939 624.484)" fill="#2e3094"/>
  <path id="Path_2572" data-name="Path 2572" d="M2009.912-578.184a6.211,6.211,0,0,0,6.628-1.883,3.412,3.412,0,0,1-.094,4.169,3.722,3.722,0,0,1-3.984,1.281A3.6,3.6,0,0,1,2009.912-578.184Z" transform="translate(-1982.295 610.29)" fill="#2e3094"/>
  <path id="Path_2573" data-name="Path 2573" d="M2017.1-586.095a3.005,3.005,0,0,1-3.635,1.047A3.526,3.526,0,0,1,2017.1-586.095Z" transform="translate(-1984.867 614.72)" fill="#2e3094"/>
</svg>
