<svg xmlns="http://www.w3.org/2000/svg" width="52.656" height="51.797" viewBox="0 0 52.656 51.797"><g transform="translate(-279.827 361.774)"><path d="M303.725-315.6c-1.059,1.508-2.1,2.889-3.025,4.344a2.152,2.152,0,0,1-2.2,1.193,4.482,4.482,0,0,0-1.1.213c.709,1.124,1.337,2.089,1.932,3.075.337.559.485,1.119-.608,1.546l-3.078-4.595c-1.216.093-2.371.187-3.527.266-.624.042-1.3.169-1.584-.91a3.613,3.613,0,0,1,1.1-.5c2.05-.181,4.1-.327,6.16-.419a2.255,2.255,0,0,0,2.056-1.119c.758-1.239,1.627-2.411,2.49-3.671-.331-.315-.575-.579-.851-.8-1.213-.984-2.478-1.909-3.638-2.951a3.529,3.529,0,0,0-2.715-.939c-1.355.067-2.716.016-4.219.016-.1.922-.2,1.765-.283,2.61-.138,1.454-.241,2.911-.408,4.361a4.069,4.069,0,0,1-.431,1.027c-1.5-.471-.542-1.641-1.074-2.467l-3.919,1.859c-.823-.715-.82-1.064-.032-1.492a24.671,24.671,0,0,1,2.946-1.459,2.1,2.1,0,0,0,1.542-2.154c0-.69,0-1.381,0-2.18-.405-.036-.788-.1-1.17-.1-1.961-.009-3.922,0-5.883,0-.3,0-.6.01-.9-.008-.934-.058-1.538-.553-1.479-1.279.073-.892.649-1.243,1.5-1.242q3.54.007,7.08,0c.389,0,.777-.042,1.262-.069v-14.915c-1.666-.558-3.287-1.037-4.857-1.648a29.5,29.5,0,0,1-3.307-1.614,2.491,2.491,0,0,1-1.336-2.389c.021-2.293,0-4.587.011-6.88.007-1.138.5-1.762,1.321-1.767s1.319.629,1.329,1.76c.016,1.928.005,3.856.006,5.783v1.269a23.4,23.4,0,0,0,6.79,2.6c.059-.566.138-.977.139-1.388.01-3.457,0-6.914.013-10.371a3.1,3.1,0,0,1,.193-1.458c.227-.395.786-.873,1.156-.839.435.04.9.535,1.2.944.182.247.094.706.094,1.07q0,7.928,0,15.855c0,.388.044.776.076,1.3a16.714,16.714,0,0,0,5.9-1.632c.032-.488.083-.911.083-1.335.007-3.257-.014-6.515.025-9.772a1.954,1.954,0,0,1,.487-1.312,1.3,1.3,0,0,1,1.248-.151,2.012,2.012,0,0,1,.733,1.364c.063,3.189.035,6.381.035,9.572s-.385,3.767-3.476,4.776c-1.321.431-2.7.684-4.051,1.021-.315.078-.626.169-.985.267v9.879c.519.029.972.076,1.423.076q18.049.006,36.1,0c.366,0,.732-.006,1.1.009.812.032,1.368.418,1.362,1.264s-.587,1.219-1.387,1.245c-.664.022-1.329.007-1.994.008h-6.255l-.226,1.992c1.429.573,2.839,1.136,4.246,1.7.555.224,1.118.432,1.65.7a4.844,4.844,0,0,1,.78.607c-.223.925-.752.89-1.337.66-1.422-.56-2.839-1.136-4.259-1.7-.3-.121-.616-.219-.983-.349l-.808,1.785h-.457a3.981,3.981,0,0,1-.4-1.215c.019-1.318.135-2.635.221-4.073h-22.2c1.59,1.26,3,2.505,4.552,3.539a5.2,5.2,0,0,0,2.227.361c2.972.3,5.947.576,8.919.873.485.049.965.16,1.524.256v1.228l-4.129-.187,2.3,3.868c2.25,0,4.508,0,6.765.023.064,0,.124.34.25.711-1.952.734-3.979.412-6.009.654l.452,1.3c-.594.81-.963.828-1.483-.005-1.2-1.916-2.381-3.842-3.506-5.8a2.135,2.135,0,0,0-1.9-1.181C307.287-315.211,305.542-315.422,303.725-315.6Z" transform="translate(0 -4.75)"/><path d="M379.5-349.456l1.771-4.145c-.368-.393-.808-.836-1.216-1.307-.422-.487-.695-1.044-.116-1.579.563-.52,1.118-.292,1.563.21.418.47.789.981,1.057,1.319l4.247-1.825c0-.6,0-1.347,0-2.1,0-.5-.007-1,.006-1.5.019-.719.194-1.408,1.063-1.4.9.011.983.748.99,1.444.012,1.221,0,2.442,0,3.549l4.141,1.774c.325-.309.776-.731,1.218-1.161.5-.485,1.051-.821,1.636-.214.569.591.252,1.157-.225,1.657-.406.426-.811.854-1.156,1.218l1.656,4.051c.931,0,1.984,0,3.037,0a2.614,2.614,0,0,1,1.082.047c.389.2.914.576.939.91a1.309,1.309,0,0,1-.832.967,13.4,13.4,0,0,1-2.476.133c-.593.014-1.187,0-1.73,0l-1.73,4.055c.333.349.768.795,1.191,1.25.455.488.669,1.049.155,1.591-.537.566-1.1.331-1.556-.158-.4-.438-.749-.932-1.055-1.319l-4.291,1.858c0,.986,0,2.042,0,3.1a2.7,2.7,0,0,1-.043,1.083c-.2.423-.538.985-.917,1.077-.663.162-1-.424-1.05-1.041-.062-.793-.044-1.593-.052-2.39-.007-.624,0-1.249,0-1.817l-4.1-1.789c-.356.338-.8.768-1.252,1.186-.482.444-1.035.715-1.577.163a1.021,1.021,0,0,1,.157-1.58,16.124,16.124,0,0,1,1.294-1.019l-1.78-4.249c-.958,0-2.042.005-3.126,0-1.343-.007-1.982-.359-1.877-1.1.163-1.149,1.1-.945,1.874-.959C377.51-349.471,378.594-349.456,379.5-349.456Zm8.376-4.5a5.47,5.47,0,0,0-5.57,5.434,5.611,5.611,0,0,0,5.551,5.63,5.572,5.572,0,0,0,5.508-5.45A5.446,5.446,0,0,0,387.88-353.96Z" transform="translate(-69.526)"/></g></svg>