<svg id="loose-gravel-or-sand" xmlns="http://www.w3.org/2000/svg" width="50.483" height="50.483" viewBox="0 0 50.483 50.483"><path id="Path_34" data-name="Path 34" d="M0,0H50.483V50.483H0Z" fill="none"/><path id="Path_35" data-name="Path 35" d="M3,7.207H7.207V3A4.219,4.219,0,0,0,3,7.207ZM3,24.034H7.207V19.828H3Zm8.414,16.828h4.207V36.655H11.414ZM3,15.621H7.207V11.414H3ZM24.034,3H19.828V7.207h4.207ZM36.655,3V7.207h4.207A4.219,4.219,0,0,0,36.655,3ZM7.207,40.862V36.655H3A4.219,4.219,0,0,0,7.207,40.862ZM3,32.448H7.207V28.241H3ZM15.621,3H11.414V7.207h4.207Zm4.207,37.862h4.207V36.655H19.828ZM36.655,24.034h4.207V19.828H36.655Zm0,16.828a4.219,4.219,0,0,0,4.207-4.207H36.655Zm0-25.241h4.207V11.414H36.655Zm0,16.828h4.207V28.241H36.655Zm-8.414,8.414h4.207V36.655H28.241Zm0-33.655h4.207V3H28.241ZM11.414,32.448H32.448V11.414H11.414Zm4.207-16.828H28.241V28.241H15.621Z" transform="translate(3.31 3.31)"/></svg>