<svg id="slippery" xmlns="http://www.w3.org/2000/svg" width="50.483" height="50.483" viewBox="0 0 50.483 50.483"><path id="Path_11" data-name="Path 11" d="M6.521,11.182c1.472-1.493,2.945-2.84,3.6-2.566,1.052.421,0,2.167-.631,3.2C8.961,12.7,3.471,20,3.471,25.086A7.546,7.546,0,0,0,6.29,31.354a6.3,6.3,0,0,0,5.553.968c2.251-.652,4.1-2.945,6.437-5.827,2.545-3.134,5.953-7.236,8.582-7.236,3.429,0,3.471,2.124,3.7,3.765-7.951,1.346-11.317,7.72-11.317,11.3A6.642,6.642,0,0,0,26,40.82c3.429,0,9.024-2.8,9.865-12.831h5.174V22.73h-5.2C35.528,19.26,33.55,13.9,27.366,13.9c-4.733,0-8.792,4.018-10.391,5.974-1.22,1.536-4.333,5.217-4.817,5.721-.526.631-1.43,1.767-2.335,1.767-.947,0-1.514-1.746-.757-4.039a38.384,38.384,0,0,1,3.891-7.4c1.641-2.4,2.734-4.039,2.734-6.9,0-4.564-3.45-6.016-5.28-6.016-2.777,0-5.2,2.1-5.721,2.629C3.934,6.387,3.3,7.018,2.84,7.586ZM26.062,35.709a1.579,1.579,0,0,1-1.557-1.514c0-1.262,1.536-4.628,6.037-5.806C29.911,34.047,27.534,35.709,26.062,35.709Z" transform="translate(3.134 3.31)"/><path id="Path_12" data-name="Path 12" d="M0,0H50.483V50.483H0Z" fill="none"/></svg>