<svg id="snow" xmlns="http://www.w3.org/2000/svg" width="50.483" height="50.483" viewBox="0 0 50.483 50.483"><path id="Path_23" data-name="Path 23" d="M44.069,20.931H35.3l6.815-6.815-2.966-2.987-9.8,9.8H25.138V16.724l9.8-9.8L31.953,3.956l-6.815,6.815V2H20.931v8.771L14.116,3.956,11.129,6.922l9.8,9.8v4.207H16.724l-9.8-9.8L3.956,14.116l6.815,6.815H2v4.207h8.771L3.956,31.953,6.922,34.94l9.8-9.8h4.207v4.207l-9.8,9.8,2.987,2.966L20.931,35.3v8.771h4.207V35.3l6.815,6.815,2.987-2.966-9.8-9.8V25.138h4.207l9.8,9.8,2.966-2.987L35.3,25.138h8.771Z" transform="translate(2.207 2.207)"/><path id="Path_24" data-name="Path 24" d="M0,0H50.483V50.483H0Z" fill="none"/></svg>