<svg xmlns="http://www.w3.org/2000/svg" width="36.079" height="36.126" viewBox="0 0 36.079 36.126"><g id="water_standing-or-moving" transform="translate(-634.853 -69.496)"><path id="Path_2404" data-name="Path 2404" d="M655.783,115.241A14.977,14.977,0,0,1,654,114.2c-.916-.715-1.287-.758-2.2-.035-1.515,1.2-2.293,1.188-3.817-.067a1.286,1.286,0,0,0-2.009.033c-1.454,1.239-2.347,1.238-3.81,0-.785-.666-1.257-.663-2.076.013-1.468,1.215-2.315,1.208-3.764.035a11.521,11.521,0,0,0-1.046-.547,2.221,2.221,0,0,1-.429-.514c.193-.115.436-.371.568-.322a6.031,6.031,0,0,1,1.606.773c.973.742,1.4.782,2.332-.006a2.339,2.339,0,0,1,3.521-.033c1,.83,1.386.831,2.37,0a2.342,2.342,0,0,1,3.467-.024c1.026.86,1.418.86,2.44,0a2.337,2.337,0,0,1,3.358-.077c1.267.976,1.393.975,2.6-.006a2.359,2.359,0,0,1,3.3.023c1.127.951,1.358.953,2.543.012a2.358,2.358,0,0,1,3.419.063c1,.84,1.355.813,2.381.035a5.532,5.532,0,0,1,1.532-.754c.155-.053.422.217.638.338a2.838,2.838,0,0,1-.469.5c-.391.257-.853.418-1.213.709a2.355,2.355,0,0,1-3.3.028c-1.266-1.017-1.366-1.017-2.652.026a2.337,2.337,0,0,1-3.244-.025c-1.231-1.01-1.291-.987-2.592-.028A13.1,13.1,0,0,1,655.783,115.241Z" transform="translate(-0.001 -13.197)"/><path id="Path_2405" data-name="Path 2405" d="M661.651,99a16.219,16.219,0,0,1-1.765-1.015c-.973-.733-1.3-.762-2.256.021-1.352,1.106-2.328,1.1-3.652-.039a1.37,1.37,0,0,0-2.146-.049c-1.558,1.22-2.3,1.215-3.818-.028a1.329,1.329,0,0,0-2.023.008c-1.475,1.245-2.337,1.248-3.813.012a1.362,1.362,0,0,0-2.09.01c-1.456,1.207-2.292,1.2-3.761.023-.284-.229-.676-.318-.983-.525a2.806,2.806,0,0,1-.482-.544c.221-.108.491-.354.655-.3a4.826,4.826,0,0,1,1.459.734c1,.81,1.5.842,2.454-.008a2.25,2.25,0,0,1,3.378-.035c1.022.893,1.493.9,2.5.019a2.267,2.267,0,0,1,3.388-.013c1.031.894,1.487.894,2.5-.007a2.268,2.268,0,0,1,3.278-.082c1.273,1.035,1.454,1.033,2.717-.04a2.307,2.307,0,0,1,3.174.04c1.133,1.012,1.458,1.019,2.6.058a2.294,2.294,0,0,1,3.34.011c1.062.925,1.475.892,2.57.008a4.687,4.687,0,0,1,1.47-.694c.14-.047.381.207.577.323a2.278,2.278,0,0,1-.432.517c-.392.258-.865.407-1.225.7a2.357,2.357,0,0,1-3.3.053c-1.248-1-1.393-.976-2.676,0A10.6,10.6,0,0,1,661.651,99Z" transform="translate(-0.002 -8.247)"/><path id="Path_2406" data-name="Path 2406" d="M667.518,77.384a10.591,10.591,0,0,1-1.553-.885c-1.14-.939-1.551-.958-2.658.054a2.359,2.359,0,0,1-3.236-.017c-1.117-1-1.472-1.01-2.588-.054a2.3,2.3,0,0,1-3.335,0c-1.052-.928-1.523-.93-2.544-.006a2.264,2.264,0,0,1-3.323,0c-1.022-.912-1.554-.911-2.539.006a2.28,2.28,0,0,1-3.273.05c-1.138-1-1.542-1-2.648,0a2.332,2.332,0,0,1-3.229.012,12.377,12.377,0,0,0-1.347-.773,2,2,0,0,1-.39-.466c.177-.138.406-.427.523-.387a4.852,4.852,0,0,1,1.546.712c1.01.83,1.561.881,2.506.036a2.285,2.285,0,0,1,3.487.054,1.435,1.435,0,0,0,2.258.037c1.373-1.174,2.316-1.169,3.663.017.759.668,1.463.741,2.142.015a2.5,2.5,0,0,1,3.761-.04c.762.773,1.356.712,2.183,0,1.352-1.17,2.378-1.149,3.724.078a1.371,1.371,0,0,0,2.031.025c1.543-1.3,2.361-1.294,3.9.025a1.44,1.44,0,0,0,1.986,0,7.821,7.821,0,0,1,1.615-.916c.174-.072.486.186.735.293a4.414,4.414,0,0,1-.553.552,12.03,12.03,0,0,1-1.143.7C668.687,76.787,668.138,77.06,667.518,77.384Z" transform="translate(0 -1.641)"/><path id="Path_2407" data-name="Path 2407" d="M667.539,93.614a12.314,12.314,0,0,1-1.6-.914c-1.129-.893-1.484-.921-2.563-.008a2.305,2.305,0,0,1-3.4-.018c-1.038-.88-1.387-.885-2.428-.035-1.308,1.067-2.229,1.06-3.5-.026-.926-.791-1.371-.8-2.325-.027-1.416,1.142-2.247,1.136-3.615-.026a1.406,1.406,0,0,0-2.2-.018c-1.394,1.2-2.255,1.2-3.663.007-.839-.709-1.411-.768-2.194.013a2.454,2.454,0,0,1-3.7,0c-.264-.267-.709-.345-1.044-.555a2.565,2.565,0,0,1-.454-.484c.207-.13.469-.413.612-.362a5.044,5.044,0,0,1,1.52.761,1.537,1.537,0,0,0,2.4.01,2.3,2.3,0,0,1,3.545.027,1.424,1.424,0,0,0,2.2.063c1.441-1.217,2.312-1.219,3.721-.008a1.425,1.425,0,0,0,2.157,0c1.413-1.21,2.31-1.213,3.734-.015a1.4,1.4,0,0,0,2.2-.045,2.363,2.363,0,0,1,3.67.054,1.375,1.375,0,0,0,2.087.041c1.5-1.264,2.386-1.261,3.851.013a1.44,1.44,0,0,0,2.043.01,8.3,8.3,0,0,1,1.7-.916c.142-.059.424.217.641.34a3.546,3.546,0,0,1-.514.518c-.412.276-.846.52-1.281.76C668.639,93.048,668.133,93.3,667.539,93.614Z" transform="translate(0 -6.593)"/><path id="Path_2408" data-name="Path 2408" d="M667.51,71.945a9.547,9.547,0,0,1-1.516-.827c-1.191-.957-1.559-.983-2.682.008a2.312,2.312,0,0,1-3.233.011c-1.132-1-1.447-1.01-2.606-.06a2.29,2.29,0,0,1-3.39-.066c-.935-.814-1.456-.819-2.392-.024a2.306,2.306,0,0,1-3.5.006c-.917-.8-1.46-.8-2.394.008a2.277,2.277,0,0,1-3.438.025c-.978-.854-1.487-.855-2.443,0a2.314,2.314,0,0,1-3.4.048,11.279,11.279,0,0,0-1.229-.695,2.4,2.4,0,0,1-.44-.5c.188-.113.426-.363.557-.317a5.93,5.93,0,0,1,1.606.755c.99.749,1.39.791,2.327.009a2.364,2.364,0,0,1,3.585,0c.937.789,1.376.786,2.312-.018a2.316,2.316,0,0,1,3.462-.051c1.08.883,1.406.88,2.494-.026a2.339,2.339,0,0,1,3.364-.015c1.185.943,1.4.942,2.532-.015a2.343,2.343,0,0,1,3.306-.013c1.195.974,1.345.977,2.538.049a2.362,2.362,0,0,1,3.479.078c.928.8,1.344.756,2.323.022a6.449,6.449,0,0,1,1.677-.773c.117-.043.338.195.511.3-.116.167-.2.387-.356.491-.5.327-1.012.627-1.539.9C668.567,71.492,668.08,71.686,667.51,71.945Z"/><path id="Path_2409" data-name="Path 2409" d="M667.478,82.777a15.612,15.612,0,0,1-1.642-.971c-1.035-.794-1.383-.816-2.388.017a2.373,2.373,0,0,1-3.532-.019c-.974-.809-1.316-.81-2.311-.008-1.369,1.1-2.3,1.085-3.643-.074a1.358,1.358,0,0,0-2.093-.057c-1.642,1.264-2.3,1.261-3.873-.017a1.345,1.345,0,0,0-2.029.042c-1.48,1.241-2.3,1.236-3.806-.023a1.345,1.345,0,0,0-2.033,0c-.118.1-.229.2-.347.3A2.288,2.288,0,0,1,636.66,82c-.43-.322-.961-.507-1.413-.8-.174-.114-.258-.366-.382-.555.173-.108.395-.347.511-.3a5.437,5.437,0,0,1,1.6.764c.922.767,1.486.826,2.391.037,1.312-1.143,2.288-1.13,3.606.049a1.414,1.414,0,0,0,2.207,0c1.4-1.2,2.292-1.2,3.657.008a1.431,1.431,0,0,0,2.215-.008c1.383-1.192,2.251-1.2,3.676-.011.889.739,1.365.729,2.254-.048a2.338,2.338,0,0,1,3.613.054,1.375,1.375,0,0,0,2.14.048c1.468-1.254,2.359-1.252,3.788.008a1.436,1.436,0,0,0,2.1.016,8.726,8.726,0,0,1,1.777-.91c.107-.044.352.24.532.374a1.987,1.987,0,0,1-.395.484c-.458.29-.939.545-1.422.792C668.61,82.249,668.09,82.484,667.478,82.777Z" transform="translate(-0.003 -3.291)"/><path id="Path_2410" data-name="Path 2410" d="M667.568,109.837a12.444,12.444,0,0,1-1.622-.908c-1.15-.894-1.465-.923-2.562-.017a2.3,2.3,0,0,1-3.407-.019c-1.046-.876-1.365-.879-2.427-.026-1.331,1.068-2.211,1.057-3.511-.046-.9-.765-1.352-.774-2.267-.043-1.506,1.2-2.24,1.188-3.741-.072a1.371,1.371,0,0,0-2.035-.017c-1.582,1.3-2.249,1.3-3.847,0a1.368,1.368,0,0,0-2.033.022c-1.574,1.289-2.267,1.272-3.861-.023a10.509,10.509,0,0,0-1-.471c-.174-.11-.259-.359-.384-.546.174-.108.393-.345.514-.3a5.021,5.021,0,0,1,1.545.713c1.011.832,1.555.884,2.505.035a2.289,2.289,0,0,1,3.489.055,1.435,1.435,0,0,0,2.259.037c1.368-1.172,2.3-1.167,3.664.019a1.422,1.422,0,0,0,2.156.026c1.437-1.211,2.33-1.22,3.734-.034a1.4,1.4,0,0,0,2.2-.024c1.368-1.169,2.351-1.148,3.725.081a1.373,1.373,0,0,0,2.032.018c1.534-1.3,2.343-1.289,3.907.034a1.442,1.442,0,0,0,1.985-.013,8.71,8.71,0,0,1,1.691-.93c.147-.063.432.2.654.31a2.907,2.907,0,0,1-.489.542c-.389.263-.812.475-1.224.7C668.693,109.224,668.173,109.506,667.568,109.837Z" transform="translate(-0.004 -11.543)"/><path id="Path_2411" data-name="Path 2411" d="M667.568,88.19a11.169,11.169,0,0,1-1.6-.9c-1.126-.905-1.575-.929-2.612.031a2.321,2.321,0,0,1-3.233.051c-1.167-1.024-1.485-1.031-2.65-.064a2.28,2.28,0,0,1-3.333-.047c-1.01-.9-1.531-.889-2.542.051a2.272,2.272,0,0,1-3.22.048c-1.16-1.023-1.538-1.022-2.709,0a2.251,2.251,0,0,1-3.162,0c-1.148-1.018-1.559-1.016-2.7.014a2.346,2.346,0,0,1-3.067.1c-.464-.357-1.03-.581-1.525-.9-.156-.1-.343-.352-.313-.491s.349-.381.462-.342a5.346,5.346,0,0,1,1.554.7c1.138.874,1.464.911,2.568.006a2.254,2.254,0,0,1,3.39.038c1.008.844,1.438.843,2.434-.007a2.252,2.252,0,0,1,3.389-.022c1.083.889,1.425.89,2.5,0a2.275,2.275,0,0,1,3.4,0c1.108.884,1.42.881,2.486-.02a2.284,2.284,0,0,1,3.344-.016c1.152.942,1.356.943,2.548.013,1.3-1.01,2.183-.985,3.457.1.908.774,1.373.741,2.329,0a5.6,5.6,0,0,1,1.52-.773c.159-.058.433.2.655.316a3.145,3.145,0,0,1-.5.532c-.388.261-.8.48-1.215.705C668.7,87.59,668.178,87.864,667.568,88.19Z" transform="translate(-0.013 -4.938)"/><path id="Path_2412" data-name="Path 2412" d="M667.555,104.4a8.93,8.93,0,0,1-1.5-.79c-1.281-1.029-1.579-1.054-2.78,0a2.314,2.314,0,0,1-3.175-.023c-1.162-1.021-1.465-1.026-2.655-.042a2.278,2.278,0,0,1-3.331-.071c-.98-.871-1.545-.867-2.492.018a2.268,2.268,0,0,1-3.326.03c-1.028-.922-1.538-.926-2.541-.024a2.269,2.269,0,0,1-3.33.02c-1.05-.935-1.554-.927-2.594.038a2.325,2.325,0,0,1-3.176.073c-.414-.338-.948-.524-1.4-.823a2.017,2.017,0,0,1-.4-.531c.172-.113.386-.356.509-.317a4.869,4.869,0,0,1,1.493.655c1.2.925,1.5.962,2.625.034a2.244,2.244,0,0,1,3.334.01c1.1.9,1.458.9,2.549-.028a2.22,2.22,0,0,1,3.216-.049c1.234,1.007,1.478,1.01,2.675.033a2.262,2.262,0,0,1,3.284.017c1.2.946,1.409.942,2.6-.042a2.271,2.271,0,0,1,3.229.006c1.2.99,1.379.992,2.607.042,1.3-1,2.183-.971,3.456.121.878.753,1.357.72,2.272.035a6.846,6.846,0,0,1,1.658-.826c.127-.049.375.219.568.34a2.53,2.53,0,0,1-.442.5c-.432.285-.886.538-1.342.782C668.643,103.862,668.129,104.109,667.555,104.4Z" transform="translate(-0.001 -9.89)"/><path id="Path_2413" data-name="Path 2413" d="M647.006,118.915a8.445,8.445,0,0,0-1.129.7,2.318,2.318,0,0,1-3.552.026c-.913-.8-1.527-.786-2.434.074a2.3,2.3,0,0,1-3.281.092,14.732,14.732,0,0,0-1.341-.777,2.078,2.078,0,0,1-.409-.532c.2-.11.437-.354.58-.306a4.968,4.968,0,0,1,1.476.693c1.12.871,1.456.9,2.566-.016a2.249,2.249,0,0,1,3.335.01c1.1.9,1.455.9,2.548-.028a2.23,2.23,0,0,1,3.271,0c1.133.93,1.48.934,2.56.034a2.282,2.282,0,0,1,3.344-.036c1.2.946,1.418.943,2.6-.035a2.267,2.267,0,0,1,3.228,0c1.227.992,1.38.994,2.605.05,1.3-1.006,2.192-.977,3.454.115.869.751,1.366.719,2.272.04a6.834,6.834,0,0,1,1.657-.828c.13-.05.38.211.575.33a2.474,2.474,0,0,1-.443.516c-.429.286-.935.47-1.327.794a2.3,2.3,0,0,1-3.114.015c-1.253-1.065-1.572-1.067-2.768-.017a2.32,2.32,0,0,1-3.178-.015c-.114-.1-.228-.2-.344-.3a1.334,1.334,0,0,0-2.017,0c-1.494,1.249-2.351,1.257-3.792.035a1.433,1.433,0,0,0-2.213.048,2.322,2.322,0,0,1-3.55.056A9.977,9.977,0,0,0,647.006,118.915Z" transform="translate(-0.002 -14.841)"/></g></svg>