<svg xmlns="http://www.w3.org/2000/svg" width="115.484" height="28.563" viewBox="0 0 115.484 28.563"><defs><style>.a{fill:#fff;}</style></defs><g transform="translate(-4.001 -29)"><g transform="translate(4 29)"><path class="a" d="M-270.022,304.11s-.349,3.34-.435,4.112-3.419-1.011-4.026-1.189-4.081,5.876-4.081,5.876a16.962,16.962,0,0,1-3.529-1.342c-.876-.613-2.77-1.985-5.662-4.124-4.05-2.99-20.914-3.315-26.367-2.157s-5.9.723-8.3.582-3.143,4.865-2.329,5.644c-2.059-.147-2.108,1.624-2.629,3.254s1.483,2.659,2.427,3.3a33.4,33.4,0,0,0,5.067,1.844h.006a5.679,5.679,0,0,1-.135-1.991,5.807,5.807,0,0,1,2.123-3.912,5.807,5.807,0,0,1,4.268-1.26,5.807,5.807,0,0,1,3.912,2.123,5.807,5.807,0,0,1,1.26,4.268,5.767,5.767,0,0,1-1.422,3.235l1.262.312,20.54,4.246,4.461-.257,2.525.993s1.458-4.626,4.528-4.859,2.586,6.992,2.586,6.992,2.463.956,2.935.306,1.275-6.716.809-7.666-1.949-1.8-1.673-2.39-.625-2.635-.233-3.113-4.02-.594-4.02-.594-1.348-2.739-1.109-3.3,2.518-4.9,2.99-4.737,4.393,2.083,4.681,1.6a47.491,47.491,0,0,0,.668-5.68Zm-26.434,8.37L-310,309.533s2.947-4.761,15.184-2.764a15.427,15.427,0,0,1-1.641,5.711Zm12.451,2.764c-3.389-1.293-10.258-1.918-10.258-1.918s1.06-4.155,1.244-5.882c3.879,1.146,8.628,4.087,11.054,5.521s2.892,1.207,3.683,2.359C-278.736,316.972-280.617,316.543-284.005,315.244Z" transform="translate(327.466 -302.498)"/><path class="a" d="M-309.6,329.478a5.027,5.027,0,0,1-3.4-1.849,5.028,5.028,0,0,1-1.1-3.714,5.047,5.047,0,0,1,5.028-4.531,5.2,5.2,0,0,1,.534.028,5.029,5.029,0,0,1,3.4,1.849,5.025,5.025,0,0,1,1.1,3.714,5.048,5.048,0,0,1-5.028,4.531,5.2,5.2,0,0,1-.534-.028Zm-2.174-5.318a2.7,2.7,0,0,0,.591,2,2.7,2.7,0,0,0,1.828.993,2.866,2.866,0,0,0,.289.015,2.71,2.71,0,0,0,2.7-2.435,2.7,2.7,0,0,0-.591-2,2.7,2.7,0,0,0-1.828-.993,2.866,2.866,0,0,0-.289-.015,2.71,2.71,0,0,0-2.7,2.436Z" transform="translate(322.304 -308.414)"/><path class="a" d="M-253.987,338.583c-.686-2.265.887-3.074,1.928-3.609a8.5,8.5,0,0,0,1.775-1.124,3.97,3.97,0,0,1,2.584-1.05,3.628,3.628,0,0,1,3.4,2.845,5.029,5.029,0,0,1-.382,3.855,5.026,5.026,0,0,1-3,2.455,5.067,5.067,0,0,1-1.468.218,5.031,5.031,0,0,1-4.837-3.59Zm5.232-2.958a10.6,10.6,0,0,1-2.234,1.433,4.559,4.559,0,0,0-.825.486,1.194,1.194,0,0,0,.068.361,2.736,2.736,0,0,0,2.6,1.931,2.717,2.717,0,0,0,.79-.118,2.7,2.7,0,0,0,1.609-1.319,2.7,2.7,0,0,0,.2-2.071c-.108-.355-.436-1.183-1.158-1.183a1.689,1.689,0,0,0-1.05.48Z" transform="translate(299.077 -313.61)"/><g transform="translate(57.133)"><path class="a" d="M-231.456,301.48a47.56,47.56,0,0,0-.376,5.707c.2.528,4.4-.652,4.9-.722s1.947,4.6,2.079,5.2-1.691,3.046-1.691,3.046-4.366-.689-4.061-.146-.952,2.385-.795,3.018-1.449,1.2-2.079,2.046-.945,6.966-.6,7.685,2.942.232,2.942.232.837-7.192,3.814-6.4,3.569,5.6,3.569,5.6l2.663-.517,4.34,1.064,20.969-.442,1.3-.078a5.769,5.769,0,0,1-.81-3.44,5.807,5.807,0,0,1,2.015-3.969,5.807,5.807,0,0,1,4.233-1.376A5.807,5.807,0,0,1-185.081,320a5.807,5.807,0,0,1,1.376,4.233,5.692,5.692,0,0,1-.5,1.933h.006a33.417,33.417,0,0,0,5.319-.892c1.045-.461,3.195-1.1,2.987-2.807s.058-3.447-1.994-3.677c.943-.617,1.13-5.673-1.264-5.973s-2.907.048-8.059-2.082-21.793-4.876-26.32-2.672c-3.232,1.577-5.344,2.582-6.317,3.026a16.962,16.962,0,0,1-3.715.678s-2.316-6.585-2.945-6.52-4.237,1.211-4.175.438.32-4.123.32-4.123Zm25,7.207c12.4.26,14.429,5.478,14.429,5.478l-13.852.436a15.429,15.429,0,0,1-.582-5.914Zm-17.812,5.406c.987-.989,1.4-.683,4.05-1.65s7.851-3,11.873-3.42c-.133,1.733.154,6.011.154,6.011s-6.868-.634-10.435.021-5.5.745-5.647-.962Z" transform="translate(234.226 -301.48)"/><path class="a" d="M-165.358,339.654a5.047,5.047,0,0,1-4.121-5.37,5.029,5.029,0,0,1,1.756-3.452,5.032,5.032,0,0,1,3.683-1.2,5.147,5.147,0,0,1,.531.07,5.047,5.047,0,0,1,4.12,5.37,5.028,5.028,0,0,1-1.756,3.452,5.026,5.026,0,0,1-3.683,1.2,5.135,5.135,0,0,1-.53-.07Zm1.423-7.648a2.8,2.8,0,0,0-.287-.037,2.7,2.7,0,0,0-1.979.644,2.7,2.7,0,0,0-.944,1.854,2.711,2.711,0,0,0,2.211,2.885,2.819,2.819,0,0,0,.287.037,2.7,2.7,0,0,0,1.979-.644,2.7,2.7,0,0,0,.944-1.855,2.71,2.71,0,0,0-2.211-2.884Z" transform="translate(209.16 -312.376)"/><path class="a" d="M-226.472,341.08a5.039,5.039,0,0,1-1.4-.482,5.027,5.027,0,0,1-2.5-2.959,5.025,5.025,0,0,1,.326-3.859,3.628,3.628,0,0,1,3.86-2.18,3.968,3.968,0,0,1,2.35,1.5,8.494,8.494,0,0,0,1.541,1.428c.927.715,2.327,1.8,1.24,3.9a5.031,5.031,0,0,1-5.417,2.652Zm-.143-7.177c-.71-.131-1.183.622-1.354.952a2.7,2.7,0,0,0-.175,2.073,2.7,2.7,0,0,0,1.343,1.59,2.716,2.716,0,0,0,.754.259,2.737,2.737,0,0,0,2.908-1.427,1.186,1.186,0,0,0,.132-.343,4.536,4.536,0,0,0-.722-.627,10.6,10.6,0,0,1-1.936-1.815,1.687,1.687,0,0,0-.95-.665Z" transform="translate(232.829 -313.122)"/></g></g></g></svg>