<svg xmlns="http://www.w3.org/2000/svg" width="114.855" height="29.768" viewBox="0 0 114.855 29.768">
    <g transform="translate(0 0)">
        <path d="M-94.024,397.043c-4.047-.227-6.638,2.667-6.848,7.683-.057.031-.114.085-.172.086q-1.187.016-2.374.018c-1.581,0-1.921-.228-2.006-1.85-.067-1.269.162-2.55.171-3.827a4.013,4.013,0,0,1,2.472-3.917A27.862,27.862,0,0,1-94.5,393.1a7.059,7.059,0,0,0,3.621-1.38c5.278-4.2,11.395-6.024,18.047-6.428,5.748-.349,11.012.755,15.536,4.544a11.041,11.041,0,0,0,4.656,2.065,33.927,33.927,0,0,1,3.762,1.173c.068.026,1.379.662,1.294.928s-1.326-.253-1.8.247c-.619.652.416,2.654,1.181,4.133,1.381,2.671,2.248,4.167,1.771,4.7-.328.367-.977-.1-1.476.319-.876.737.215,2.943-.3,3.248-.24.143-.834-.132-2.327-1.777a6.522,6.522,0,0,0-5.366-7.757,5.93,5.93,0,0,0-4.663,1.148,6.469,6.469,0,0,0-2.612,6.529H-88.1A6.6,6.6,0,0,0-94.024,397.043Zm5.907-4.079a6.8,6.8,0,0,0,.948.1c3.817-.141,7.634-.284,11.449-.466a.97.97,0,0,0,.734-.538c.26-1.486.435-2.986.637-4.471C-77.581,386.739-87.054,390.394-88.117,392.964Zm28.849-.68c-1.375-3.057-8.542-5.441-12.684-4.9l-.668,4.9Z" transform="translate(105.436 -378.686)" fill="#ffffff"/>
        <path d="M-89.724,417.79a4.8,4.8,0,0,0,4.815-5.033,4.859,4.859,0,0,0-4.733-4.728,4.883,4.883,0,0,0-5.034,5.143A4.845,4.845,0,0,0-89.724,417.79Z" transform="translate(101.031 -388.024)" fill="#ffffff"/>
        <path d="M-31.432,412.5a4.807,4.807,0,0,0,4.956,4.792,4.786,4.786,0,0,0,4.815-4.935,4.7,4.7,0,0,0-4.7-4.847A4.841,4.841,0,0,0-31.432,412.5Z" transform="translate(75.129 -387.812)" fill="#ffffff"/>
        <g transform="translate(58.627)">
            <path d="M-3.476,374.149a45.731,45.731,0,0,0-.362,5.5c.188.509,4.235-.628,4.716-.7s1.876,4.436,2,5.012S1.252,386.9,1.252,386.9s-4.207-.664-3.913-.141-.918,2.3-.766,2.909-1.4,1.153-2,1.972-.91,6.713-.576,7.406,2.835.224,2.835.224.807-6.93,3.675-6.172,3.439,5.4,3.439,5.4l2.566-.5,4.182,1.026L30.9,398.6l1.251-.075a5.6,5.6,0,1,1,10.39-2.445,5.488,5.488,0,0,1-.477,1.864h.006a32.142,32.142,0,0,0,5.125-.86c1.007-.444,3.079-1.064,2.878-2.7s.056-3.323-1.921-3.543c.908-.595,1.088-5.467-1.218-5.756s-2.8.047-7.765-2.006-21-4.7-25.362-2.575c-3.115,1.52-5.15,2.489-6.088,2.916a16.351,16.351,0,0,1-3.579.654S1.9,377.72,1.3,377.782s-4.082,1.167-4.023.421.308-3.972.308-3.972Zm24.086,6.945c11.945.25,13.9,5.278,13.9,5.278l-13.348.42A14.856,14.856,0,0,1,20.61,381.094ZM3.446,386.3c.951-.953,1.346-.658,3.9-1.59s7.566-2.889,11.442-3.295c-.129,1.669.148,5.792.148,5.792s-6.618-.611-10.056.02S3.587,387.945,3.446,386.3Z" transform="translate(6.145 -374.149)" fill="#ffffff"/>
            <path d="M62.572,411.958a4.876,4.876,0,0,1,1.271-9.656,5.1,5.1,0,0,1,.511.067,4.877,4.877,0,0,1-1.271,9.656A4.935,4.935,0,0,1,62.572,411.958Zm1.372-7.37a2.725,2.725,0,0,0-.277-.037,2.62,2.62,0,0,0-.684,5.187,2.684,2.684,0,0,0,.276.037,2.62,2.62,0,0,0,.685-5.187Z" transform="translate(-20.365 -385.673)" fill="#ffffff"/>
            <path d="M1.458,413.4a4.876,4.876,0,0,1-1.353-.464,4.877,4.877,0,0,1-2.094-6.571,3.5,3.5,0,0,1,3.72-2.1A3.828,3.828,0,0,1,4,405.712a8.228,8.228,0,0,0,1.485,1.376c.893.689,2.242,1.731,1.2,3.757A4.848,4.848,0,0,1,1.458,413.4Zm-.138-6.917c-.684-.126-1.14.6-1.3.918a2.624,2.624,0,0,0,1.853,3.78,2.638,2.638,0,0,0,2.8-1.375,1.157,1.157,0,0,0,.127-.33,4.345,4.345,0,0,0-.7-.605,10.174,10.174,0,0,1-1.865-1.749A1.632,1.632,0,0,0,1.321,406.486Z" transform="translate(4.667 -386.462)" fill="#ffffff"/>
        </g>
        <path d="M-24.49,411.4a2.717,2.717,0,0,0-.277-.037,2.6,2.6,0,0,0-1.907.621,2.6,2.6,0,0,0-.909,1.787,2.611,2.611,0,0,0,2.131,2.779,2.683,2.683,0,0,0,.276.037,2.6,2.6,0,0,0,1.907-.621,2.6,2.6,0,0,0,.909-1.787A2.611,2.611,0,0,0-24.49,411.4Z" transform="translate(73.555 -389.388)" fill="#fff"/>
        <path d="M-87.74,411.9a2.717,2.717,0,0,0-.277-.037,2.6,2.6,0,0,0-1.907.621,2.6,2.6,0,0,0-.909,1.787,2.611,2.611,0,0,0,2.131,2.779,2.683,2.683,0,0,0,.276.037,2.6,2.6,0,0,0,1.907-.621,2.6,2.6,0,0,0,.909-1.787A2.611,2.611,0,0,0-87.74,411.9Z" transform="translate(99.459 -389.593)" fill="#fff"/>
    </g>
</svg>