<svg xmlns="http://www.w3.org/2000/svg" width="75.596" height="63.259" viewBox="0 0 75.596 63.259">
    <g transform="translate(0 0)">
        <path d="M-1047.811,757.132a10.629,10.629,0,0,0-1.087-3.882c-1.218-2.562-3.565-3.636-6.223-3.886-2.328-.219-4.682-.14-7.025-.16a29.287,29.287,0,0,0-3.052.12c-.923.086-1.84.27-2.757.439-.689.126-1.056-.042-1.209-.813a1.414,1.414,0,0,0-1.729-1.273c.168.633.337,1.262.516,1.936a3.068,3.068,0,0,1-.458.089c-1.628.035-3.257.117-4.883.08-1.338-.031-2.673-.23-4.01-.306a18.273,18.273,0,0,0-2.31.022c-.7.051-1.4.23-2.1.275a17.932,17.932,0,0,1-2.392.007c-1.949-.14-3.893-.441-5.844-.467-4.225-.06-8.457-.319-12.672.334a4.736,4.736,0,0,0-4.1,3.041,18.417,18.417,0,0,0-.718,2.206,32.211,32.211,0,0,0-.62,10.145,18.634,18.634,0,0,0,1.468,6.438,4.242,4.242,0,0,0,3.3,2.613,23.414,23.414,0,0,0,3.528.489c4.115.033,8.245.383,12.337-.37a7.258,7.258,0,0,1,1.486-.1c2.75.066,5.5.175,8.251.224.682.011,1.364-.2,2.048-.208,2.323-.029,4.648-.015,6.974-.009a7.481,7.481,0,0,1,.753.078c-.177.733-.332,1.386-.494,2.053,1.1.137,1.426-.567,1.628-1.3a.99.99,0,0,1,1.258-.839c1.3.177,2.606.441,3.917.492,2.21.089,4.429.093,6.639.027a23.138,23.138,0,0,0,3.844-.454,6.347,6.347,0,0,0,4.912-4.146,10.971,10.971,0,0,0,.853-3.441C-1047.672,763.435-1047.65,760.274-1047.811,757.132Zm-58.32-6.043c-1.679,1.138-2.266,2.956-3.036,4.927C-1109.045,753.688-1107.593,751.385-1106.131,751.089Zm-3.069,16.762c.76,1.9,1.373,3.9,3.284,5.058C-1107.626,772.479-1109.041,770.275-1109.2,767.85Zm12.477-16.469a5.592,5.592,0,0,1,.957-.188q3.81-.11,7.62-.184c1.147-.022,2.3,0,3.514,0a11.85,11.85,0,0,1-.6,1.7,1.106,1.106,0,0,1-.791.56c-3.209-.208-6.486.157-9.584-1.039-.392-.151-.762-.361-1.143-.545C-1096.744,751.58-1096.732,751.48-1096.724,751.381Zm-6.287,18.755a32.01,32.01,0,0,1-1.085-4.826,28.358,28.358,0,0,1,.54-10.138c.658-2.425.919-2.564,3.379-2.153,1.583.266,3.16.551,4.743.806.416.069.651.177.587.68a62.228,62.228,0,0,0,.009,15.147,1.573,1.573,0,0,1-.062.308c-2.237.354-4.471.718-6.708,1.056A1.146,1.146,0,0,1-1103.011,770.136Zm6.314,2.416-.06-.352a15.016,15.016,0,0,1,1.444-.651c3.1-1.028,6.312-.93,9.511-.917a.816.816,0,0,1,.6.416c.239.578.385,1.194.618,1.964C-1088.729,772.913-1092.722,772.933-1096.7,772.552Zm16.476-21.674c1.674.069,3.355-.038,5.031-.051,1.586-.011,3.171,0,4.757,0,.042.164.084.328.129.49a4.391,4.391,0,0,1-1.121.6c-1.484.3-2.978.556-4.478.753-1.473.195-2.956.326-4.438.427-.89.06-1.787.011-2.682.011C-1082.766,751.427-1081.884,750.809-1080.221,750.878Zm9.9,22.165h-4.267c-2.073,0-4.146-.047-6.214.024a1.551,1.551,0,0,1-1.732-1.043c-.159-.4-.376-.775-.567-1.16.053-.1.109-.2.162-.3,2.494.233,4.992.423,7.476.715,1.451.171,2.888.476,4.318.784a3.3,3.3,0,0,1,.954.613C-1070.233,772.8-1070.278,772.919-1070.32,773.043Zm6.406-4.329q.435-1,.87-1.989l.283.106c-.472,1.3-.873,2.631-1.439,3.886-.54,1.194-1.625,1.382-2.821,1.147q-3.136-.614-6.272-1.22c-.729-.142-1.459-.279-2.292-.439a41.255,41.255,0,0,0-.016-16.5c1.455-.306,2.875-.622,4.3-.9,1.377-.268,2.773-.454,4.146-.753,1.752-.381,2.9.2,3.346,1.942a14.437,14.437,0,0,1,.45,5.824c-.073.476-.073.966-.109,1.446.113.009.224.018.337.024v-4.033l.255-.007c.5,1.927.217,3.92.4,5.871.193,2.086-1.154,3.667-1.636,5.521Zm9.66,4.507a7.67,7.67,0,0,0,3.875-2.7C-1051.41,772.631-1052.854,773.641-1054.253,773.221Zm-.159-22.52c1.53-.518,3.277.68,4.137,2.826C-1051.516,752.227-1052.559,750.96-1054.413,750.7Z" transform="translate(1110.62 -747.646)" fill="#ffffff"/>
        <path d="M-991.612,887.871a10.627,10.627,0,0,0-.044-4.031c-.512-2.79-2.5-4.436-5-5.367-2.191-.815-4.485-1.349-6.743-1.975a29.291,29.291,0,0,0-2.978-.676c-.914-.156-1.847-.216-2.776-.291-.7-.056-1.009-.314-.957-1.1a1.415,1.415,0,0,0-1.34-1.678c0,.655,0,1.306,0,2a3.037,3.037,0,0,1-.466-.033c-1.581-.388-3.177-.731-4.737-1.189-1.284-.377-2.522-.916-3.794-1.335a18.249,18.249,0,0,0-2.237-.578c-.693-.133-1.411-.14-2.1-.28a17.972,17.972,0,0,1-2.312-.614c-1.846-.64-3.646-1.435-5.523-1.966-4.065-1.153-8.085-2.5-12.325-2.962a4.736,4.736,0,0,0-4.745,1.875,18.457,18.457,0,0,0-1.265,1.944,32.214,32.214,0,0,0-3.229,9.637,18.627,18.627,0,0,0-.251,6.6,4.242,4.242,0,0,0,2.509,3.379,23.435,23.435,0,0,0,3.28,1.387c3.965,1.1,7.863,2.508,12.011,2.841a7.243,7.243,0,0,1,1.461.287c2.639.777,5.267,1.6,7.911,2.355.656.188,1.369.161,2.032.33,2.251.574,4.493,1.19,6.737,1.8a7.534,7.534,0,0,1,.707.27c-.361.662-.68,1.253-1.009,1.855,1.025.417,1.524-.178,1.909-.831a.991.991,0,0,1,1.433-.484c1.214.509,2.4,1.1,3.656,1.49,2.112.659,4.253,1.238,6.405,1.747a23.155,23.155,0,0,0,3.831.558,6.348,6.348,0,0,0,5.819-2.73,10.981,10.981,0,0,0,1.716-3.1C-993.112,893.994-992.271,890.948-991.612,887.871Zm-54.759-20.957c-1.916.664-2.954,2.268-4.21,3.972C-1049.859,868.669-1047.859,866.821-1046.371,866.914Zm-7.31,15.393c.241,2.034.316,4.118,1.86,5.736C-1053.361,887.185-1054.156,884.69-1053.681,882.307Zm16.32-12.672a5.565,5.565,0,0,1,.973.066q3.709.882,7.408,1.8c1.114.276,2.219.591,3.4.907a11.847,11.847,0,0,1-1.024,1.484,1.106,1.106,0,0,1-.909.336c-3.045-1.033-6.305-1.53-8.987-3.488-.339-.247-.642-.546-.963-.823C-1037.432,869.823-1037.4,869.729-1037.361,869.635Zm-10.935,16.483a31.988,31.988,0,0,1,.2-4.942,28.357,28.357,0,0,1,3.15-9.651c1.264-2.171,1.552-2.238,3.822-1.2,1.46.667,2.909,1.352,4.372,2.008.384.174.583.34.39.809a62.231,62.231,0,0,0-3.919,14.632,1.568,1.568,0,0,1-.14.281c-2.252-.238-4.5-.466-6.752-.719A1.146,1.146,0,0,1-1048.3,886.119Zm5.471,3.97c.011-.118.022-.237.034-.356a15.038,15.038,0,0,1,1.563-.255c3.259-.189,6.337.738,9.424,1.581a.815.815,0,0,1,.474.558c.082.62.063,1.253.088,2.057C-1035.223,892.5-1039.084,891.487-1042.824,890.089Zm21.532-16.661c1.6.5,3.25.833,4.873,1.255,1.534.4,3.063.82,4.595,1.231,0,.169,0,.338,0,.506a4.389,4.389,0,0,1-1.237.285c-1.51-.1-3.021-.235-4.52-.434-1.473-.194-2.94-.452-4.4-.738-.875-.173-1.729-.453-2.593-.685C-1023.892,873.3-1022.881,872.931-1021.292,873.428Zm3.816,23.974-4.122-1.107c-2-.537-3.992-1.12-6.008-1.587a1.551,1.551,0,0,1-1.4-1.456c-.051-.426-.163-.846-.247-1.268.078-.085.157-.167.235-.251,2.348.871,4.711,1.7,7.035,2.629,1.357.541,2.665,1.209,3.967,1.877.314.162.512.552.763.84C-1017.329,897.186-1017.4,897.294-1017.476,897.4Zm7.31-2.52,1.356-1.7.246.176c-.792,1.133-1.525,2.315-2.4,3.38-.831,1.013-1.928.913-3.022.376q-2.869-1.407-5.741-2.8c-.667-.326-1.337-.648-2.1-1.018a41.259,41.259,0,0,0,4.264-15.945c1.484.082,2.937.144,4.389.245,1.4.1,2.8.28,4.2.348,1.79.086,2.75.947,2.728,2.743a14.439,14.439,0,0,1-1.076,5.742c-.194.441-.321.914-.48,1.369.107.038.212.075.319.111l1.046-3.895.248.06c-.018,1.99-.807,3.842-1.139,5.773-.355,2.065-2.065,3.243-3.012,4.908C-1010.282,894.8-1010.224,894.839-1010.167,894.882Zm8.161,6.857a7.669,7.669,0,0,0,4.442-1.6C-999.107,901.908-1000.763,902.509-1002.005,901.739Zm5.685-21.791c1.612-.1,2.989,1.506,3.263,3.8C-993.919,882.173-994.6,880.679-996.321,879.948Z" transform="translate(1067.034 -839.596)" fill="#ffffff"/>
    </g>
</svg>