<svg xmlns="http://www.w3.org/2000/svg" xmlns:xlink="http://www.w3.org/1999/xlink" width="79.139" height="49.342" viewBox="0 0 79.139 49.342">
  <defs>
    <clipPath id="clip-path">
      <path id="Path_2697" data-name="Path 2697" d="M148.3,214.186c-3.277,2.04-34.853.063-34.853.063a3.648,3.648,0,0,0-.99-.285,12.8,12.8,0,0,0-3.009-.011l-2.128.24s1.536-10.016,7.731-10.058c0,0,16.7-.575,23.511.259a.086.086,0,0,1,.032,0,10.563,10.563,0,0,1,2.188.437l0,0c.063.069.834.875,1.863,2.015C144.628,209.036,147.557,212.438,148.3,214.186Z" transform="translate(-107.323 -203.941)" fill="none"/>
    </clipPath>
    <clipPath id="clip-path-2">
      <path id="Path_2701" data-name="Path 2701" d="M83.23,219.63s2.986-9.531,4.825-10.731c0,0,5.672-.515,6.388.423,0,0-3.969,6.486-3.8,8.211,0,0-7.418,2.1-7.42,2.229" transform="translate(-83.228 -208.759)" fill="none"/>
    </clipPath>
    <clipPath id="clip-path-3">
      <path id="Path_2702" data-name="Path 2702" d="M63.008,221.8s4.894-1.653,5.649-1.178c0,0,3.011-8.934,5.378-11.136,0,0-3.434.364-8.679,5.722C64.14,216.448,63.181,221.3,63.008,221.8Z" transform="translate(-63.008 -209.484)" fill="none"/>
    </clipPath>
  </defs>
  <g id="Group_1832" data-name="Group 1832" transform="translate(-34.282 -191.224)">
    <g id="Group_1831" data-name="Group 1831" transform="translate(34.282 191.224)">
      <path id="Path_2642" data-name="Path 2642" d="M150.36,201.494c0,.175-.293.313-.649.308s-.642-.151-.639-.327.293-.313.649-.308S150.362,201.319,150.36,201.494Z" transform="translate(-102.487 -197.132)" fill="#111"/>
      <g id="Group_1810" data-name="Group 1810" transform="translate(0 29.558)">
        <g id="Group_1800" data-name="Group 1800" transform="translate(24.427 0)">
          <ellipse id="Ellipse_236" data-name="Ellipse 236" cx="9.806" cy="6.045" rx="9.806" ry="6.045" transform="matrix(0.014, -1, 1, 0.014, 0, 19.61)" fill="#3d4039"/>
          <path id="Path_2643" data-name="Path 2643" d="M102.365,279.64c-.052,3.633-1.344,6.56-2.884,6.538s-2.747-2.985-2.694-6.617S98.13,273,99.67,273.023,102.417,276.008,102.365,279.64Z" transform="translate(-95.846 -269.384)" fill="#d6e3dd"/>
          <path id="Path_2644" data-name="Path 2644" d="M103.386,281.662c-.041,2.871-1.062,5.184-2.28,5.167s-2.171-2.359-2.129-5.23,1.062-5.184,2.279-5.167S103.427,278.791,103.386,281.662Z" transform="translate(-97.148 -271.41)" fill="#3d4039"/>
          <path id="Path_2645" data-name="Path 2645" d="M102.058,282.846l.307-2.259-1.542-.409c-.008-.128-.022-.251-.039-.371l1.451-1.31-.568-1.861-1.2,2.156a1.529,1.529,0,0,0-.285-.384l.168-3.963L99,274.563l.276,3.773a1.171,1.171,0,0,0-.207.2L98,276.3l-.435,1.617,1.074,1.52c-.024.086-.045.173-.063.265l-1.533-.59-.084,1.577,1.548.24c.009.107.026.207.042.308l-1.5.706.375,1.439,1.355-1.331a1.788,1.788,0,0,0,.286.454L97.8,284.9l.85,1.293,1.179-3.42a.788.788,0,0,0,.262-.141l.356,3.609,1.2-1.522-1.1-2.748a3.124,3.124,0,0,0,.168-.493Z" transform="translate(-95.947 -270.229)" fill="#d6e3dd"/>
        </g>
        <g id="Group_1801" data-name="Group 1801" transform="translate(34.142 1.525)">
          <ellipse id="Ellipse_237" data-name="Ellipse 237" cx="6.907" cy="5.966" rx="6.907" ry="5.966" transform="translate(0 13.812) rotate(-89.175)" fill="#3d4039"/>
          <path id="Path_2646" data-name="Path 2646" d="M127.065,277.785c-.041,2.864-1.341,5.168-2.9,5.146s-2.794-2.363-2.753-5.227,1.341-5.169,2.9-5.146S127.107,274.921,127.065,277.785Z" transform="translate(-120.192 -270.633)" fill="#d6e3dd"/>
        </g>
        <g id="Group_1808" data-name="Group 1808" transform="translate(0 0.665)">
          <path id="Path_2647" data-name="Path 2647" d="M47.654,274.2c-.061,4.262-2.53,7.02-6.792,6.958s-6.64-3.618-6.579-7.88,2.605-7.648,6.867-7.587S47.715,269.942,47.654,274.2Z" transform="translate(-34.282 -265.695)" fill="#3d4039"/>
          <path id="Path_2648" data-name="Path 2648" d="M45.459,277.98c-.045,3.108-1.583,5.123-4.23,5.085s-4.12-2.628-4.075-5.736,1.631-5.581,4.278-5.543S45.5,274.872,45.459,277.98Z" transform="translate(-35.988 -269.313)" fill="#d6e3dd"/>
          <path id="Path_2649" data-name="Path 2649" d="M46.191,279.618c-.036,2.474-1.273,4.078-3.406,4.047s-3.317-2.092-3.282-4.567,1.312-4.443,3.444-4.413S46.227,277.143,46.191,279.618Z" transform="translate(-37.384 -271.037)" fill="#3d4039"/>
          <path id="Path_2650" data-name="Path 2650" d="M46.287,281.274c-.022,1.569-1,2.826-2.177,2.809s-2.118-1.3-2.1-2.871,1-2.826,2.177-2.809S46.31,279.706,46.287,281.274Z" transform="translate(-38.876 -273.246)" fill="#d6e3dd"/>
          <g id="Group_1802" data-name="Group 1802" transform="translate(4.054 6.803)">
            <path id="Path_2651" data-name="Path 2651" d="M45.731,282.81a.348.348,0,1,1-.343-.353A.348.348,0,0,1,45.731,282.81Z" transform="translate(-44.725 -282.457)" fill="#3d4039"/>
            <path id="Path_2652" data-name="Path 2652" d="M49.153,283.288a.348.348,0,1,1-.343-.353A.348.348,0,0,1,49.153,283.288Z" transform="translate(-46.759 -282.741)" fill="#3d4039"/>
            <path id="Path_2653" data-name="Path 2653" d="M48.728,287.322a.348.348,0,1,1-.343-.353A.348.348,0,0,1,48.728,287.322Z" transform="translate(-46.506 -285.138)" fill="#3d4039"/>
            <path id="Path_2654" data-name="Path 2654" d="M44.967,286.962a.348.348,0,1,1-.343-.353A.348.348,0,0,1,44.967,286.962Z" transform="translate(-44.272 -284.924)" fill="#3d4039"/>
          </g>
          <g id="Group_1807" data-name="Group 1807" transform="translate(1.469 3.051)">
            <g id="Group_1803" data-name="Group 1803" transform="translate(3.193)">
              <path id="Path_2655" data-name="Path 2655" d="M48.144,275.644l-.84-.063-.029-2.367,1,.027Z" transform="translate(-46.665 -273.214)" fill="#d6e3dd"/>
              <path id="Path_2656" data-name="Path 2656" d="M46.694,291.108l-.808-.082-.114,2.5,1.148.087Z" transform="translate(-45.771 -283.797)" fill="#d6e3dd"/>
            </g>
            <g id="Group_1804" data-name="Group 1804" transform="translate(1.671 0.257)">
              <path id="Path_2657" data-name="Path 2657" d="M50.2,290.022l-.745.488.756,2.172.9-.537Z" transform="translate(-46.436 -283.458)" fill="#d6e3dd"/>
              <path id="Path_2658" data-name="Path 2658" d="M43.662,276.249l-.709.49-.931-2.224,1.017-.668Z" transform="translate(-42.021 -273.847)" fill="#d6e3dd"/>
            </g>
            <g id="Group_1805" data-name="Group 1805" transform="translate(0 3.262)">
              <path id="Path_2659" data-name="Path 2659" d="M39.985,281.729l-.172,1.015-1.91-.28.167-1.213Z" transform="translate(-37.903 -281.25)" fill="#d6e3dd"/>
              <path id="Path_2660" data-name="Path 2660" d="M52.248,285.7l-.184.974,2,.473.236-1.387Z" transform="translate(-46.317 -283.896)" fill="#d6e3dd"/>
            </g>
            <g id="Group_1806" data-name="Group 1806" transform="translate(0.719 0.975)">
              <path id="Path_2661" data-name="Path 2661" d="M50.491,277.293l.466.839,1.61-1.6-.663-.915Z" transform="translate(-46.101 -275.617)" fill="#d6e3dd"/>
              <path id="Path_2662" data-name="Path 2662" d="M41.383,288.809l.574.7-1.487,1.727-.8-1.015Z" transform="translate(-39.674 -283.455)" fill="#d6e3dd"/>
            </g>
          </g>
        </g>
        <g id="Group_1809" data-name="Group 1809" transform="translate(63.973 1.762)">
          <ellipse id="Ellipse_238" data-name="Ellipse 238" cx="8.251" cy="6.745" rx="8.251" ry="6.745" transform="matrix(0.014, -1, 1, 0.014, 0, 16.499)" fill="#3d4039"/>
          <path id="Path_2663" data-name="Path 2663" d="M202.192,279.034c-.056,3.857-2.2,6.953-4.779,6.916s-4.633-3.194-4.578-7.051,2.2-6.953,4.779-6.916S202.247,275.177,202.192,279.034Z" transform="translate(-192.462 -270.529)" fill="#d6e3dd"/>
          <path id="Path_2664" data-name="Path 2664" d="M202.342,281.118c-.039,2.713-1.438,4.892-3.124,4.868s-3.022-2.243-2.983-4.956,1.438-4.892,3.124-4.868S202.381,278.405,202.342,281.118Z" transform="translate(-194.482 -273.011)" fill="#3d4039"/>
        </g>
      </g>
      <path id="Path_2665" data-name="Path 2665" d="M122.745,290.216s25.819,1.315,30.694.938,4.287-4.411,4.287-4.411l-34.755.533S122.756,289.471,122.745,290.216Z" transform="translate(-86.844 -247.979)" fill="#2a2b2a"/>
      <path id="Path_2666" data-name="Path 2666" d="M115.253,237.131s-1.3.255-1.377-1.014l-12.658.283-.676.849-9.675.194-.718-.941-16.137.332-.15.382a2.135,2.135,0,0,1-1.776,1.348c-.3.03-.621.059-.943.083a2.284,2.284,0,0,1-2.415-1.864c-.521-2.8-1.774-8.139-4.018-9.934a2.547,2.547,0,0,0-1.446-.605s-5.682.768-2.084,13.211l-12.079-.3s-4.548-1.656-5.132-2.527-2.212-13.433-5.008-8.9A4.262,4.262,0,0,0,38.6,229.6l-.707.785a18.781,18.781,0,0,1,1.332-6.127c.062-.15.127-.3.2-.454a11.771,11.771,0,0,1,3.734-4.8s8.879-13.917,16.45-15.136c0,0,22.686-3.979,39.923-.153,0,0,6.364,6.651,7.518,9.351.292.68,1.715,1.277,2.765,1.773.616.291,1.105.548,1.173.768a23.957,23.957,0,0,1,1.1,5.7,1.014,1.014,0,0,0,.031.311,1.132,1.132,0,0,0,.377.621C113.7,223.274,116.51,226.861,115.253,237.131Z" transform="translate(-36.431 -197.655)" fill="#278a9c"/>
      <g id="Group_1820" data-name="Group 1820" transform="translate(1.467)">
        <path id="Path_2667" data-name="Path 2667" d="M177.819,284.911l-11.8.228.972,1.538,9.676-.192Z" transform="translate(-114.025 -246.89)" fill="none" stroke="#111" stroke-miterlimit="10" stroke-width="1"/>
        <path id="Path_2668" data-name="Path 2668" d="M110.687,202.932a16.2,16.2,0,0,0-3.937.924c.528-1.054-5.8-.721-7.926-.564,6.238-.852,21.94-2.7,34.634-.124C133.536,203.3,117.473,202.141,110.687,202.932Z" transform="translate(-74.098 -197.538)" fill="#fff"/>
        <path id="Path_2669" data-name="Path 2669" d="M57.789,239.425" transform="translate(-49.717 -219.863)" fill="none" stroke="#111" stroke-miterlimit="10" stroke-width="1"/>
        <path id="Path_2670" data-name="Path 2670" d="M117.972,246.3c2.151,8.626,1.283,10.383,21.929,10.259,0,0,13.989-.136,16.521-.436.976-.116.969-3.616-.139-7.88,0,0-2.646,5.271-10.112,5.921S117.556,244.631,117.972,246.3Z" transform="translate(-85.472 -223.838)" fill="#fff"/>
        <path id="Path_2671" data-name="Path 2671" d="M128.873,234.9s31.318,1.679,33.654.453c0,0,.642,11.088-2.22,11.429-5.2.62-20.257,1.793-26.433-.748C131.171,244.92,129.263,235.4,128.873,234.9Z" transform="translate(-91.953 -217.174)" fill="#fff"/>
        <path id="Path_2672" data-name="Path 2672" d="M151.952,242.169s.177,6.1,2.826,6.2l13.051.122s2.508.7,1.941-6Z" transform="translate(-105.665 -221.494)" fill="#fff"/>
        <g id="Group_1815" data-name="Group 1815" transform="translate(46.999 20.997)" style="mix-blend-mode: multiply;isolation: isolate">
          <g id="Group_1814" data-name="Group 1814">
            <g id="Group_1811" data-name="Group 1811" transform="translate(17.081)">
              <path id="Path_2673" data-name="Path 2673" d="M195.855,243.426c-.01-.151-.02-.3-.034-.463H195.8C195.819,243.123,195.838,243.276,195.855,243.426Z" transform="translate(-195.797 -242.963)" fill="#eebb2d"/>
            </g>
            <g id="Group_1812" data-name="Group 1812" transform="translate(6.045 3.478)">
              <path id="Path_2674" data-name="Path 2674" d="M178.137,253.068l-9.535.9,9.12.085s1.509.418,1.921-2.524C179.236,253.254,178.137,253.068,178.137,253.068Z" transform="translate(-168.602 -251.532)" fill="#fff"/>
            </g>
            <g id="Group_1813" data-name="Group 1813" transform="translate(0 3.719)">
              <path id="Path_2675" data-name="Path 2675" d="M153.707,252.127a5.323,5.323,0,0,0,.583,1.188A7.581,7.581,0,0,1,153.707,252.127Z" transform="translate(-153.707 -252.127)" fill="#eebb2d"/>
            </g>
          </g>
        </g>
        <rect id="Rectangle_1319" data-name="Rectangle 1319" width="8.745" height="4.676" rx="1.625" transform="translate(51.368 21.469) rotate(0.825)" fill="#d6e3dd"/>
        <path id="Path_2676" data-name="Path 2676" d="M214.4,240.338a15.539,15.539,0,0,1-3.584,1.036.654.654,0,0,1-.789-.674c.023-.551.1-1.293.187-2.08.215-1.918.534-4.067.534-4.067-.064-.466,1.3-.972,1.3-.972l.041-.025c.617.292,1.1.547,1.172.765a35.442,35.442,0,0,1,.908,3.653v.005a9.222,9.222,0,0,1,.2,2.05A.908.908,0,0,0,214.4,240.338Z" transform="translate(-140.17 -216.376)" fill="#d6e3dd"/>
        <path id="Path_2677" data-name="Path 2677" d="M63.979,234.161s-4.143,9.45-4.359,10.639-.414,8.044-.414,8.044l-15.237-.088c-.584-.867-2.212-13.433-5.008-8.9a4.262,4.262,0,0,0-.357,1.867l-.707.785a18.781,18.781,0,0,1,1.332-6.127.8.8,0,0,1,.2-.454s1.289-3.09,6.354-4.516a17.362,17.362,0,0,1,1.779-.4s4.353-1.615,8.867-3.148l.04-.011c4.207-1.426,8.539-2.771,9.607-2.66C66.074,229.191,63.741,232.5,63.979,234.161Z" transform="translate(-37.898 -213.779)" fill="#eebb2d"/>
        <path id="Path_2678" data-name="Path 2678" d="M63.979,234.161s-4.143,9.45-4.359,10.639-.414,8.044-.414,8.044l-15.237-.088c-.584-.867-2.212-13.433-5.008-8.9a4.262,4.262,0,0,0-.357,1.867l-.707.785a18.781,18.781,0,0,1,1.332-6.127.8.8,0,0,1,.2-.454s1.289-3.09,6.354-4.516a17.362,17.362,0,0,1,1.779-.4s4.353-1.615,8.867-3.148l.04-.011c4.207-1.426,8.539-2.771,9.607-2.66C66.074,229.191,63.741,232.5,63.979,234.161Z" transform="translate(-37.898 -213.779)" fill="#278a9c"/>
        <g id="Group_1819" data-name="Group 1819" transform="translate(0.032 15.411)">
          <g id="Group_1818" data-name="Group 1818">
            <g id="Group_1816" data-name="Group 1816" transform="translate(0.634 16.398)">
              <path id="Path_2679" data-name="Path 2679" d="M39.538,269.784l.041-.046c0-.045,0-.09,0-.135C39.562,269.661,39.55,269.721,39.538,269.784Z" transform="translate(-39.538 -269.603)" fill="#fff"/>
            </g>
            <g id="Group_1817" data-name="Group 1817">
              <path id="Path_2680" data-name="Path 2680" d="M66.121,229.2a27.94,27.94,0,0,0-4.257,1.032s-2.324.69-5.35,1.629l-.04.011c-3.446,1.075-7.792,2.468-10.646,3.548a28.507,28.507,0,0,0-3.068,1.147,32.484,32.484,0,0,0-3.286,3.369.8.8,0,0,0-.2.454,19.1,19.1,0,0,0-1.3,5.548c.834-10.143,26.516-15.852,27.584-15.741C65.561,230.194,66.5,229.155,66.121,229.2Z" transform="translate(-37.977 -229.197)" fill="#fff"/>
            </g>
          </g>
        </g>
        <path id="Path_2681" data-name="Path 2681" d="M46.117,257.174s.712-2.059,8.413-3.053c2.323-.3,9.065-2.142,9.33.863.035.394.573,1.6.842,1.337,0,0,3.058-5.323-.256-5.238C64.446,251.083,42.965,250.57,46.117,257.174Z" transform="translate(-42.594 -226.785)" fill="#fff"/>
        <path id="Path_2682" data-name="Path 2682" d="M145.772,235.879s-1.633,2.958,5.625,2.765l14.608.111a3.04,3.04,0,0,0,3.116-2.44Z" transform="translate(-101.9 -217.756)" fill="#fff" style="mix-blend-mode: multiply;isolation: isolate"/>
        <rect id="Rectangle_1320" data-name="Rectangle 1320" width="7.453" height="1.143" transform="translate(46.391 5.388) rotate(0.825)" fill="#fff"/>
        <path id="Path_2683" data-name="Path 2683" d="M150.148,195.435l.381.114,2.761-4.211-.381-.114Z" transform="translate(-104.593 -191.224)" fill="#111"/>
        <path id="Path_2684" data-name="Path 2684" d="M174,233.831c-.147.621-1.084.93-2.092.691s-1.706-.936-1.558-1.557,1.084-.93,2.092-.692S174.151,233.21,174,233.831Z" transform="translate(-116.587 -215.567)" fill="#d6e3dd"/>
        <path id="Path_2685" data-name="Path 2685" d="M166.74,283.812l-12.657.283-.676.849-9.675.195-.718-.941-16.137.332s.308-2.533,5.435-2.537c7.72-.006,30.88-.22,30.88-.22S167.813,281.593,166.74,283.812Z" transform="translate(-90.766 -245.023)" fill="#3d4039"/>
        <path id="Path_2686" data-name="Path 2686" d="M162.815,281.937l2.112,3.292,9.856-.215,2.165-3.188S167.228,281.875,162.815,281.937Z" transform="translate(-112.12 -245.057)" fill="#d6e3dd"/>
        <path id="Path_2687" data-name="Path 2687" d="M92.653,274.382s-1.368-8.572,4.4-11.677c0,0-1.942-3.461-4.308-.981C92.743,261.724,88.583,263.258,92.653,274.382Z" transform="translate(-69.371 -232.581)" fill="#2a2b2a"/>
        <path id="Path_2688" data-name="Path 2688" d="M121.416,241.269l-4.773-.65a1.434,1.434,0,0,1-.987-.59c-.278-.388-.694-.961-1.135-1.6-.569-.838-1.193-1.792-1.636-2.6a1.082,1.082,0,0,1,.913-1.6l4.835-.133a1.207,1.207,0,0,1,1.137.729l1.716,4.039.631,1.485A.667.667,0,0,1,121.416,241.269Z" transform="translate(-82.374 -216.696)" fill="#d6e3dd"/>
        <path id="Path_2689" data-name="Path 2689" d="M124.005,246.853l-4.773-.65a1.434,1.434,0,0,1-.987-.59c-.278-.388-.694-.961-1.135-1.6l1.383-.516a21.888,21.888,0,0,0,5.583.955l.631,1.485A.667.667,0,0,1,124.005,246.853Z" transform="translate(-84.963 -222.28)" fill="#fff" opacity="0.57"/>
        <path id="Path_2690" data-name="Path 2690" d="M74.7,238.159a13.87,13.87,0,0,0-1.927,7.986c.006.089.012.179.019.269.394,4.842.362,11.666.362,11.666" transform="translate(-58.606 -219.111)" fill="none" stroke="#707070" stroke-linecap="round" stroke-miterlimit="10" stroke-width="0.2"/>
      </g>
      <g id="Group_1830" data-name="Group 1830" transform="translate(2.8 4.395)">
        <path id="Path_2691" data-name="Path 2691" d="M109,213.063c-3.277,2.04-34.853.063-34.853.063a8.581,8.581,0,0,0-4-.3,38.975,38.975,0,0,0-4.886.828c-6.251,1.5-19.244,6.166-20.306,6.863a49.315,49.315,0,0,0-3.771,3.989l-.008-.251A12.049,12.049,0,0,1,45.113,219s8.879-13.917,16.45-15.136c0,0,1.092-.191,2.984-.45.012,0,.02,0,.028,0,6.238-.852,21.061-2.424,33.882-.283l.809.143a.086.086,0,0,1,.032,0q1.107.195,2.188.437l0,0C101.681,203.918,107.869,210.407,109,213.063Z" transform="translate(-41.181 -202.052)" fill="#278a9c"/>
        <path id="Path_2692" data-name="Path 2692" d="M148.3,214.186c-3.277,2.04-34.853.063-34.853.063a3.648,3.648,0,0,0-.99-.285,12.8,12.8,0,0,0-3.009-.011l-2.128.24s1.536-10.016,7.731-10.058c0,0,16.7-.575,23.511.259a.086.086,0,0,1,.032,0,10.563,10.563,0,0,1,2.188.437l0,0c.063.069.834.875,1.863,2.015C144.628,209.036,147.557,212.438,148.3,214.186Z" transform="translate(-80.481 -203.175)" fill="#d6e3dd"/>
        <path id="Path_2693" data-name="Path 2693" d="M83.23,219.63s2.986-9.531,4.825-10.731c0,0,5.672-.515,6.388.423,0,0-3.969,6.486-3.8,8.211,0,0-7.418,2.1-7.42,2.229" transform="translate(-66.164 -206.037)" fill="#d6e3dd"/>
        <path id="Path_2694" data-name="Path 2694" d="M63.008,221.8s4.894-1.653,5.649-1.178c0,0,3.011-8.934,5.378-11.136,0,0-3.434.364-8.679,5.722C64.14,216.448,63.181,221.3,63.008,221.8Z" transform="translate(-54.15 -206.468)" fill="#d6e3dd"/>
        <path id="Path_2695" data-name="Path 2695" d="M60.714,227.935c.089-.148.433-.714.246.153l-1.234,4.6s-1.322.353-1.681-.571C58.045,232.12,60.178,228.824,60.714,227.935Z" transform="translate(-51.201 -217.242)" fill="#d6e3dd"/>
        <path id="Path_2696" data-name="Path 2696" d="M52.937,234.865s-1.163-.3-1.459,1.236c0,0-.467,1.557-1.271.922-.615-.484.043-2.871.043-2.871s-4.118-1.435-4.4,1.417c-.118,1.215.8,2.056,4.142,2.246a12.933,12.933,0,0,0,2.287-.067S52.822,235.43,52.937,234.865Z" transform="translate(-43.952 -220.91)" fill="#2a2b2a"/>
        <g id="Group_1823" data-name="Group 1823" transform="translate(26.842 0.767)">
          <g id="Group_1822" data-name="Group 1822" clip-path="url(#clip-path)">
            <g id="Group_1821" data-name="Group 1821" transform="translate(-0.966 -17.269)" opacity="0.51">
              <rect id="Rectangle_1321" data-name="Rectangle 1321" width="8.663" height="50.292" transform="matrix(0.77, 0.638, -0.638, 0.77, 32.097, 0)" fill="#fff"/>
              <rect id="Rectangle_1322" data-name="Rectangle 1322" width="4.332" height="50.292" transform="matrix(0.77, 0.638, -0.638, 0.77, 41.527, 7.322)" fill="#fff"/>
            </g>
          </g>
        </g>
        <path id="Path_2698" data-name="Path 2698" d="M142.6,206.506a1.767,1.767,0,0,1-.4-.209c-3.15-2.1-18.822-.976-25.093-1.355-8.014-.485-4.56,8.549-4.56,8.549l-5.313.482s1.717-10.643,7.77-10.186c0,0,15.811-1.122,23.511.259a.085.085,0,0,1,.032,0,10.562,10.562,0,0,1,2.188.437l0,0C140.794,204.561,141.566,205.367,142.6,206.506Z" transform="translate(-80.424 -202.828)" fill="#fff"/>
        <path id="Path_2699" data-name="Path 2699" d="M127.712,207.063s-5.066.192-5.435,3.052c-.164,1.272-1.209,4.256,2.632,4.411,0,0,10.671,1.165,11.207,2.067,0,0-15.9.134-17.149-.819-.956-.727-2.082-8.078,2.425-8.772A17.542,17.542,0,0,1,127.712,207.063Z" transform="translate(-86.885 -204.839)" fill="#fff"/>
        <path id="Path_2700" data-name="Path 2700" d="M150.149,207.665c-1.029-1.14-1.8-1.946-1.863-2.015l0,0a8.215,8.215,0,0,0-1.473-.339c.335.358.82.88,1.39,1.512,1.976,2.183,4.9,5.585,5.651,7.333-3.277,2.04-34.742.488-33.893.623.381.061.562.44.99.285,0,0,31.576,1.977,34.853-.062C155.053,213.25,152.125,209.848,150.149,207.665Z" transform="translate(-87.977 -203.987)" fill="#fff"/>
        <g id="Group_1826" data-name="Group 1826" transform="translate(17.064 2.722)">
          <g id="Group_1825" data-name="Group 1825" clip-path="url(#clip-path-2)">
            <g id="Group_1824" data-name="Group 1824" transform="translate(-3.728 -1.858)" opacity="0.51">
              <rect id="Rectangle_1323" data-name="Rectangle 1323" width="2.87" height="16.661" transform="translate(14.907 0) rotate(63.469)" fill="#fff"/>
              <rect id="Rectangle_1324" data-name="Rectangle 1324" width="1.435" height="16.661" transform="translate(16.785 3.48) rotate(63.468)" fill="#fff"/>
            </g>
          </g>
        </g>
        <g id="Group_1829" data-name="Group 1829" transform="translate(8.858 3.016)">
          <g id="Group_1828" data-name="Group 1828" clip-path="url(#clip-path-3)">
            <g id="Group_1827" data-name="Group 1827" transform="translate(-3.836 0.42)" opacity="0.51">
              <rect id="Rectangle_1325" data-name="Rectangle 1325" width="2.87" height="16.661" transform="translate(15.347 0) rotate(67.087)" fill="#fff"/>
              <rect id="Rectangle_1326" data-name="Rectangle 1326" width="1.435" height="16.661" transform="translate(17.002 3.592) rotate(67.087)" fill="#fff"/>
            </g>
          </g>
        </g>
      </g>
    </g>
    <path id="Path_2703" data-name="Path 2703" d="M152.477,207.771c-2.342-.235-4.8-.418-7.354-.532-4.237-.187-8.222-.158-11.919.012a5.5,5.5,0,0,0-4.768,1.075c-1.3,1.181-2.151,3.332-1.372,4.821a3.443,3.443,0,0,0,1.579,1.347c2.175,1.148,3.969.747,6.9.986a23.9,23.9,0,0,1,4.375.771c3.381-.049,6.055-.028,7.849,0a34.277,34.277,0,0,0,8.368-.515c.856-.183,1.558-.373,2.029-.511Q155.322,211.5,152.477,207.771Zm1.928,7.256a33.2,33.2,0,0,1-7.532.43c-1.615-.02-4.022-.041-7.066,0a23.061,23.061,0,0,0-3.937-.637c-2.63-.2-4.245.134-6.2-.82a2.977,2.977,0,0,1-1.424-1.116c-.7-1.234.069-3.011,1.234-3.989a5.279,5.279,0,0,1,4.29-.893c3.332-.142,6.919-.166,10.73-.008,2.3.093,4.513.243,6.619.438q2.557,3.086,5.117,6.177C155.8,214.723,155.176,214.881,154.4,215.027Z" transform="translate(-54.951 -9.435)" fill="#434443"/>
    <path id="Path_2704" data-name="Path 2704" d="M91.609,208.453a14.546,14.546,0,0,0-4.058.3c-.272.4-.67,1.015-1.1,1.79a37.042,37.042,0,0,0-2.313,5.483c-.236.629-.461,1.234-.541,1.45-.332.9-.6,1.639-.788,2.15q1.857-.609,3.805-1.2,1.924-.582,3.786-1.1c.414-1.173.9-2.415,1.485-3.705a49.139,49.139,0,0,1,2.435-4.736A14.735,14.735,0,0,0,91.609,208.453Zm-.085,5.02c-.515,1.148-.95,2.248-1.319,3.291l-6.725,1.948c.544-1.437.95-2.524,1.169-3.1a32.579,32.579,0,0,1,2.054-4.87c.381-.686.735-1.234.978-1.587a12.842,12.842,0,0,1,6.006.118A44.252,44.252,0,0,0,91.524,213.473Z" transform="translate(-28.83 -10.218)" fill="#434443"/>
    <path id="Path_2705" data-name="Path 2705" d="M72.713,209.225c-1.429.726-7,3.673-8.084,6.558-.049.134-.373,1.027-.739,2.224-.418,1.38-.7,2.545-.881,3.356a19.148,19.148,0,0,1,1.98-.613,19.669,19.669,0,0,1,3.669-.564c.674-1.822,1.5-3.79,2.5-5.856s2.037-3.924,3.044-5.58Zm-2.248,5.5c-.868,1.794-1.583,3.5-2.171,5.081a17.15,17.15,0,0,0-4.9,1.023c.158-.7.4-1.713.767-2.91.317-1.039.6-1.818.641-1.932.933-2.508,5.779-5.065,7.017-5.7.43-.138.86-.272,1.291-.41C72.23,211.315,71.334,212.93,70.465,214.724Z" transform="translate(-17.069 -10.414)" fill="#434443"/>
    <path id="Path_2706" data-name="Path 2706" d="M58.04,231.556a1.117,1.117,0,0,0,.576.593,1.184,1.184,0,0,0,1.323-.422q.615-2.532,1.23-5.057Q59.6,229.111,58.04,231.556Zm1.741-.028a.9.9,0,0,1-1,.321.856.856,0,0,1-.438-.446q1.187-1.857,2.37-3.705C60.4,228.971,60.089,230.249,59.781,231.528Z" transform="translate(-14.116 -21.061)" fill="#434443"/>
  </g>
</svg>
