<svg xmlns="http://www.w3.org/2000/svg" xmlns:xlink="http://www.w3.org/1999/xlink" width="80.995" height="50.499" viewBox="0 0 80.995 50.499">
  <defs>
    <clipPath id="clip-path">
      <path id="Path_2762" data-name="Path 2762" d="M-205.659,217.06c3.354,2.088,35.67.064,35.67.064a3.723,3.723,0,0,1,1.013-.291,13.1,13.1,0,0,1,3.08-.012l2.178.245s-1.572-10.251-7.912-10.294c0,0-17.089-.588-24.062.265a.1.1,0,0,0-.032,0,10.81,10.81,0,0,0-2.24.447l0,0c-.064.07-.854.9-1.907,2.062C-201.9,211.79-204.9,215.271-205.659,217.06Z" transform="translate(205.659 -206.575)" fill="none"/>
    </clipPath>
    <clipPath id="clip-path-2">
      <path id="Path_2766" data-name="Path 2766" d="M-96.745,222.519s-3.057-9.755-4.939-10.982c0,0-5.805-.527-6.538.433,0,0,4.063,6.638,3.885,8.4,0,0,7.592,2.146,7.594,2.281" transform="translate(108.221 -211.393)" fill="none"/>
    </clipPath>
    <clipPath id="clip-path-3">
      <path id="Path_2767" data-name="Path 2767" d="M-76.252,224.721s-5.008-1.691-5.781-1.205c0,0-3.081-9.144-5.5-11.4,0,0,3.515.373,8.883,5.856C-77.41,219.245-76.428,224.215-76.252,224.721Z" transform="translate(87.537 -212.118)" fill="none"/>
    </clipPath>
  </defs>
  <g id="Group_1865" data-name="Group 1865" transform="translate(226.646 -193.858)">
    <g id="Group_1864" data-name="Group 1864" transform="translate(-226.646 193.858)">
      <path id="Path_2707" data-name="Path 2707" d="M-149.6,204.136c0,.179.3.321.664.315s.657-.155.655-.334-.3-.321-.664-.315S-149.605,203.957-149.6,204.136Z" transform="translate(181.602 -199.672)" fill="#111"/>
      <g id="Group_1843" data-name="Group 1843" transform="translate(1.474 30.251)">
        <g id="Group_1833" data-name="Group 1833" transform="translate(41.86 0)">
          <ellipse id="Ellipse_239" data-name="Ellipse 239" cx="6.187" cy="10.036" rx="6.187" ry="10.036" transform="matrix(1, -0.014, 0.014, 1, 0, 0.178)" fill="#3d4039"/>
          <path id="Path_2708" data-name="Path 2708" d="M-107.894,282.43c.054,3.718,1.375,6.713,2.951,6.69s2.811-3.055,2.757-6.773-1.375-6.713-2.951-6.691S-107.948,278.712-107.894,282.43Z" transform="translate(113.884 -271.933)" fill="#d6e3dd"/>
          <path id="Path_2709" data-name="Path 2709" d="M-107.2,284.419c.042,2.938,1.087,5.306,2.333,5.288s2.222-2.414,2.18-5.353-1.087-5.306-2.333-5.288S-107.244,281.48-107.2,284.419Z" transform="translate(113.479 -273.926)" fill="#3d4039"/>
          <path id="Path_2710" data-name="Path 2710" d="M-107.328,285.677l-.314-2.313,1.578-.419c.008-.131.022-.256.04-.38l-1.485-1.341.581-1.9,1.229,2.206a1.553,1.553,0,0,1,.292-.393l-.173-4.056,1.383.12-.283,3.861a1.183,1.183,0,0,1,.211.2l1.1-2.285.445,1.655-1.1,1.555c.024.088.046.177.064.271l1.568-.6.086,1.614-1.585.245c-.009.109-.026.212-.043.316l1.533.723-.385,1.472-1.386-1.362a1.854,1.854,0,0,1-.293.465l1.3,2.455-.87,1.323-1.207-3.5a.822.822,0,0,1-.268-.145l-.365,3.694L-106.9,287.6l1.125-2.813a3.2,3.2,0,0,1-.172-.505Z" transform="translate(113.736 -272.765)" fill="#d6e3dd"/>
        </g>
        <g id="Group_1834" data-name="Group 1834" transform="translate(32.164 1.561)">
          <ellipse id="Ellipse_240" data-name="Ellipse 240" cx="6.106" cy="7.068" rx="6.106" ry="7.068" transform="translate(0 0.176) rotate(-0.825)" fill="#3d4039"/>
          <path id="Path_2711" data-name="Path 2711" d="M-132.706,280.542c.042,2.932,1.372,5.29,2.971,5.267s2.86-2.418,2.818-5.35-1.372-5.29-2.971-5.267S-132.748,277.61-132.706,280.542Z" transform="translate(138.086 -273.222)" fill="#d6e3dd"/>
        </g>
        <g id="Group_1841" data-name="Group 1841" transform="translate(65.834 0.68)">
          <path id="Path_2712" data-name="Path 2712" d="M-64.591,277.038c.063,4.362,2.589,7.185,6.951,7.122s6.8-3.7,6.733-8.064-2.667-7.828-7.028-7.765S-64.653,272.676-64.591,277.038Z" transform="translate(64.592 -268.329)" fill="#3d4039"/>
          <path id="Path_2713" data-name="Path 2713" d="M-54.978,280.76c.046,3.181,1.62,5.243,4.33,5.2s4.216-2.689,4.17-5.87-1.669-5.712-4.379-5.673S-55.025,277.579-54.978,280.76Z" transform="translate(58.972 -271.89)" fill="#d6e3dd"/>
          <path id="Path_2714" data-name="Path 2714" d="M-53.342,282.368c.037,2.532,1.3,4.174,3.486,4.142s3.4-2.142,3.358-4.674-1.343-4.547-3.525-4.516S-53.378,279.835-53.342,282.368Z" transform="translate(58.015 -273.586)" fill="#3d4039"/>
          <path id="Path_2715" data-name="Path 2715" d="M-49.9,283.975c.023,1.605,1.021,2.892,2.228,2.875s2.168-1.333,2.145-2.938-1.021-2.892-2.229-2.875S-49.925,282.37-49.9,283.975Z" transform="translate(56.003 -275.759)" fill="#d6e3dd"/>
          <g id="Group_1835" data-name="Group 1835" transform="translate(7.087 6.962)">
            <path id="Path_2716" data-name="Path 2716" d="M-44.107,285.452a.356.356,0,0,0,.361.351.356.356,0,0,0,.351-.361.356.356,0,0,0-.361-.351A.356.356,0,0,0-44.107,285.452Z" transform="translate(45.528 -285.091)" fill="#3d4039"/>
            <path id="Path_2717" data-name="Path 2717" d="M-47.529,285.93a.356.356,0,0,0,.361.351.356.356,0,0,0,.351-.361.356.356,0,0,0-.361-.351A.356.356,0,0,0-47.529,285.93Z" transform="translate(47.529 -285.37)" fill="#3d4039"/>
            <path id="Path_2718" data-name="Path 2718" d="M-47.1,289.965a.356.356,0,0,0,.361.351.356.356,0,0,0,.351-.361.356.356,0,0,0-.361-.351A.355.355,0,0,0-47.1,289.965Z" transform="translate(47.28 -287.729)" fill="#3d4039"/>
            <path id="Path_2719" data-name="Path 2719" d="M-43.343,289.6a.356.356,0,0,0,.361.351.356.356,0,0,0,.351-.361.356.356,0,0,0-.361-.351A.356.356,0,0,0-43.343,289.6Z" transform="translate(45.082 -287.518)" fill="#3d4039"/>
          </g>
          <g id="Group_1840" data-name="Group 1840" transform="translate(4.013 3.123)">
            <g id="Group_1836" data-name="Group 1836" transform="translate(3.255)">
              <path id="Path_2720" data-name="Path 2720" d="M-46.961,278.335l.86-.064.029-2.423-1.022.028Z" transform="translate(47.094 -275.848)" fill="#d6e3dd"/>
              <path id="Path_2721" data-name="Path 2721" d="M-45.727,293.744l.827-.084.117,2.563-1.175.089Z" transform="translate(46.43 -286.262)" fill="#d6e3dd"/>
            </g>
            <g id="Group_1837" data-name="Group 1837" transform="translate(1.678 0.263)">
              <path id="Path_2722" data-name="Path 2722" d="M-49.957,292.657l.762.5-.773,2.223-.922-.55Z" transform="translate(50.891 -285.938)" fill="#d6e3dd"/>
              <path id="Path_2723" data-name="Path 2723" d="M-43.421,278.939l.726.5.953-2.276-1.041-.684Z" transform="translate(46.524 -276.481)" fill="#d6e3dd"/>
            </g>
            <g id="Group_1838" data-name="Group 1838" transform="translate(0 3.338)">
              <path id="Path_2724" data-name="Path 2724" d="M-40.391,284.374l.176,1.039,1.955-.287-.171-1.241Z" transform="translate(46.43 -283.885)" fill="#d6e3dd"/>
              <path id="Path_2725" data-name="Path 2725" d="M-52.831,288.337l.188,1-2.047.484-.242-1.419Z" transform="translate(54.931 -286.488)" fill="#d6e3dd"/>
            </g>
            <g id="Group_1839" data-name="Group 1839" transform="translate(0.817 0.998)">
              <path id="Path_2726" data-name="Path 2726" d="M-50.839,279.966l-.477.858-1.647-1.638.679-.936Z" transform="translate(52.963 -278.251)" fill="#d6e3dd"/>
              <path id="Path_2727" data-name="Path 2727" d="M-42.07,291.443l-.588.717,1.522,1.768.815-1.039Z" transform="translate(46.938 -285.964)" fill="#d6e3dd"/>
            </g>
          </g>
        </g>
        <g id="Group_1842" data-name="Group 1842" transform="translate(0 1.803)">
          <ellipse id="Ellipse_241" data-name="Ellipse 241" cx="6.903" cy="8.444" rx="6.903" ry="8.444" transform="matrix(1, -0.014, 0.014, 1, 0, 0.199)" fill="#3d4039"/>
          <path id="Path_2728" data-name="Path 2728" d="M-213.251,281.834c.057,3.947,2.246,7.116,4.891,7.078s4.742-3.269,4.685-7.216-2.247-7.116-4.891-7.078S-213.307,277.886-213.251,281.834Z" transform="translate(217.341 -273.129)" fill="#d6e3dd"/>
          <path id="Path_2729" data-name="Path 2729" d="M-208.643,283.868c.04,2.777,1.472,5.007,3.2,4.982s3.093-2.3,3.052-5.072-1.472-5.007-3.2-4.982S-208.683,281.092-208.643,283.868Z" transform="translate(214.647 -275.572)" fill="#3d4039"/>
        </g>
      </g>
      <path id="Path_2730" data-name="Path 2730" d="M-170.53,292.932s-26.423,1.346-31.413.96-4.388-4.514-4.388-4.514l35.57.545S-170.541,292.169-170.53,292.932Z" transform="translate(214.782 -249.704)" fill="#2a2b2a"/>
      <path id="Path_2731" data-name="Path 2731" d="M-226.321,240.587s1.331.261,1.409-1.038l12.955.29.692.869,9.9.2.735-.962,16.515.34.153.391a2.186,2.186,0,0,0,1.818,1.38c.3.031.636.061.966.085a2.338,2.338,0,0,0,2.471-1.908c.533-2.87,1.816-8.33,4.112-10.166a2.608,2.608,0,0,1,1.48-.619s5.815.786,2.133,13.521l12.363-.3s4.654-1.695,5.252-2.586,2.264-13.748,5.126-9.11a4.369,4.369,0,0,1,.365,1.911l.724.8a19.236,19.236,0,0,0-1.364-6.27c-.064-.154-.131-.307-.2-.465a12.049,12.049,0,0,0-3.822-4.917s-9.087-14.243-16.835-15.491c0,0-23.217-4.072-40.859-.156,0,0-6.513,6.807-7.694,9.57-.3.7-1.755,1.307-2.83,1.815-.63.3-1.131.562-1.2.786,0,0-1.233,3.968-1.128,5.839a1.025,1.025,0,0,1-.032.318,1.157,1.157,0,0,1-.385.636C-224.731,226.406-227.608,230.076-226.321,240.587Z" transform="translate(226.646 -200.186)" fill="#278a9c"/>
      <g id="Group_1853" data-name="Group 1853" transform="translate(1.573)">
        <path id="Path_2732" data-name="Path 2732" d="M-192.448,287.546l12.074.233-.994,1.574-9.9-.2Z" transform="translate(205.079 -248.633)" fill="none" stroke="#111" stroke-miterlimit="10" stroke-width="1"/>
        <path id="Path_2733" data-name="Path 2733" d="M-158.218,205.592a16.565,16.565,0,0,1,4.029.946c-.54-1.079,5.933-.738,8.112-.578-6.384-.872-22.455-2.761-35.446-.127C-181.6,205.973-165.163,204.782-158.218,205.592Z" transform="translate(198.692 -200.071)" fill="#fff"/>
        <path id="Path_2734" data-name="Path 2734" d="M-55.147,242.059" transform="translate(124.806 -222.039)" fill="none" stroke="#111" stroke-miterlimit="10" stroke-width="1"/>
        <path id="Path_2735" data-name="Path 2735" d="M-171.758,248.938c-2.2,8.828-1.313,10.626-22.443,10.5,0,0-14.317-.139-16.909-.447-1-.119-.992-3.7.142-8.065,0,0,2.708,5.394,10.35,6.06S-171.333,247.231-171.758,248.938Z" transform="translate(216.417 -225.95)" fill="#fff"/>
        <path id="Path_2736" data-name="Path 2736" d="M-174.8,237.532s-32.052,1.719-34.442.464c0,0-.657,11.348,2.272,11.7,5.322.635,20.732,1.835,27.052-.765C-177.153,247.789-175.2,238.046-174.8,237.532Z" transform="translate(214.936 -219.392)" fill="#fff"/>
        <path id="Path_2737" data-name="Path 2737" d="M-175.1,244.8s-.181,6.241-2.892,6.348l-13.357.125s-2.566.715-1.987-6.142Z" transform="translate(205.648 -223.643)" fill="#fff"/>
        <g id="Group_1848" data-name="Group 1848" transform="translate(12.278 21.49)" style="mix-blend-mode: multiply;isolation: isolate">
          <g id="Group_1847" data-name="Group 1847">
            <g id="Group_1844" data-name="Group 1844">
              <path id="Path_2738" data-name="Path 2738" d="M-193.3,246.071c.01-.155.021-.31.034-.473h.025C-193.262,245.761-193.281,245.917-193.3,246.071Z" transform="translate(193.299 -245.597)" fill="#eebb2d"/>
            </g>
            <g id="Group_1845" data-name="Group 1845" transform="translate(0.055 3.559)">
              <path id="Path_2739" data-name="Path 2739" d="M-191.624,255.738l9.758.924-9.333.087s-1.545.429-1.967-2.583C-192.749,255.928-191.624,255.738-191.624,255.738Z" transform="translate(193.166 -254.166)" fill="#fff"/>
            </g>
            <g id="Group_1846" data-name="Group 1846" transform="translate(16.945 3.806)">
              <path id="Path_2740" data-name="Path 2740" d="M-151.905,254.761a5.449,5.449,0,0,1-.6,1.216A7.758,7.758,0,0,0-151.905,254.761Z" transform="translate(152.502 -254.761)" fill="#eebb2d"/>
            </g>
          </g>
        </g>
        <rect id="Rectangle_1327" data-name="Rectangle 1327" width="8.95" height="4.786" rx="1.625" transform="translate(25.417 26.758) rotate(179.175)" fill="#d6e3dd"/>
        <path id="Path_2741" data-name="Path 2741" d="M-218.16,243.132a15.921,15.921,0,0,0,3.668,1.06.669.669,0,0,0,.808-.689c-.024-.564-.1-1.323-.191-2.129-.22-1.963-.547-4.163-.547-4.163.066-.477-1.334-.995-1.334-.995l-.042-.025c-.632.3-1.131.559-1.2.783a36.27,36.27,0,0,0-.93,3.739v0a9.423,9.423,0,0,0-.2,2.1A.931.931,0,0,1-218.16,243.132Z" transform="translate(220.112 -218.608)" fill="#d6e3dd"/>
        <path id="Path_2742" data-name="Path 2742" d="M-102.54,236.912s4.24,9.671,4.461,10.888.424,8.233.424,8.233l15.593-.091c.6-.888,2.264-13.748,5.126-9.11a4.369,4.369,0,0,1,.365,1.911l.724.8a19.236,19.236,0,0,0-1.364-6.27.828.828,0,0,0-.2-.465s-1.319-3.163-6.5-4.622a17.749,17.749,0,0,0-1.82-.409s-4.455-1.653-9.074-3.222l-.041-.012c-4.305-1.46-8.739-2.836-9.832-2.723C-104.684,231.825-102.3,235.216-102.54,236.912Z" transform="translate(153.768 -216.052)" fill="#eebb2d"/>
        <path id="Path_2743" data-name="Path 2743" d="M-102.54,236.912s4.24,9.671,4.461,10.888.424,8.233.424,8.233l15.593-.091c.6-.888,2.264-13.748,5.126-9.11a4.369,4.369,0,0,1,.365,1.911l.724.8a19.236,19.236,0,0,0-1.364-6.27.828.828,0,0,0-.2-.465s-1.319-3.163-6.5-4.622a17.749,17.749,0,0,0-1.82-.409s-4.455-1.653-9.074-3.222l-.041-.012c-4.305-1.46-8.739-2.836-9.832-2.723C-104.684,231.825-102.3,235.216-102.54,236.912Z" transform="translate(153.768 -216.052)" fill="#278a9c"/>
        <g id="Group_1852" data-name="Group 1852" transform="translate(48.991 15.772)">
          <g id="Group_1851" data-name="Group 1851">
            <g id="Group_1849" data-name="Group 1849" transform="translate(28.207 16.783)">
              <path id="Path_2744" data-name="Path 2744" d="M-36.955,272.422l-.042-.047c0-.046,0-.092,0-.138C-36.979,272.3-36.967,272.358-36.955,272.422Z" transform="translate(36.997 -272.237)" fill="#fff"/>
            </g>
            <g id="Group_1850" data-name="Group 1850">
              <path id="Path_2745" data-name="Path 2745" d="M-104.815,231.832a28.662,28.662,0,0,1,4.356,1.056s2.378.706,5.476,1.666l.041.012c3.527,1.1,7.974,2.526,10.895,3.631a29.149,29.149,0,0,1,3.14,1.175,33.186,33.186,0,0,1,3.363,3.447.823.823,0,0,1,.2.465,19.563,19.563,0,0,1,1.331,5.678c-.854-10.382-27.138-16.224-28.231-16.11C-104.241,232.852-105.205,231.788-104.815,231.832Z" transform="translate(104.908 -231.831)" fill="#fff"/>
            </g>
          </g>
        </g>
        <path id="Path_2746" data-name="Path 2746" d="M-72.564,259.952s-.729-2.107-8.611-3.125c-2.377-.307-9.278-2.193-9.548.883-.036.4-.587,1.636-.862,1.369,0,0-3.13-5.447.262-5.361C-91.323,253.718-69.339,253.192-72.564,259.952Z" transform="translate(146.879 -228.85)" fill="#fff"/>
        <path id="Path_2747" data-name="Path 2747" d="M-177,238.513s1.671,3.027-5.757,2.829l-14.95.113a3.112,3.112,0,0,1-3.189-2.5Z" transform="translate(210.017 -219.966)" fill="#fff" style="mix-blend-mode: multiply;isolation: isolate"/>
        <rect id="Rectangle_1328" data-name="Rectangle 1328" width="7.628" height="1.17" transform="matrix(-1, 0.014, -0.014, -1, 30.459, 6.684)" fill="#fff"/>
        <path id="Path_2748" data-name="Path 2748" d="M-152.032,198.168l-.39.117-2.826-4.31.39-.117Z" transform="translate(183.33 -193.858)" fill="#111"/>
        <path id="Path_2749" data-name="Path 2749" d="M-176.762,236.5c.151.635,1.109.952,2.141.707s1.746-.958,1.6-1.593-1.109-.952-2.141-.707S-176.912,235.868-176.762,236.5Z" transform="translate(195.92 -217.811)" fill="#d6e3dd"/>
        <path id="Path_2750" data-name="Path 2750" d="M-222.694,286.495l12.955.289.692.869,9.9.2.735-.963,16.515.34s-.314-2.593-5.562-2.6c-7.9-.006-31.6-.224-31.6-.224S-223.793,284.224-222.694,286.495Z" transform="translate(222.859 -246.796)" fill="#3d4039"/>
        <path id="Path_2751" data-name="Path 2751" d="M-180.531,284.574l-2.162,3.369-10.087-.22-2.215-3.263S-185.048,284.51-180.531,284.574Z" transform="translate(206.568 -246.829)" fill="#d6e3dd"/>
        <path id="Path_2752" data-name="Path 2752" d="M-98.962,277.334s1.4-8.773-4.5-11.95c0,0,1.988-3.542,4.409-1C-99.054,264.379-94.8,265.949-98.962,277.334Z" transform="translate(153.054 -234.553)" fill="#2a2b2a"/>
        <path id="Path_2753" data-name="Path 2753" d="M-132.545,244.072l4.885-.665a1.465,1.465,0,0,0,1.011-.6c.284-.4.71-.983,1.161-1.641.583-.857,1.221-1.834,1.675-2.658a1.107,1.107,0,0,0-.935-1.637l-4.948-.135a1.234,1.234,0,0,0-1.164.746l-1.757,4.134-.645,1.52A.682.682,0,0,0-132.545,244.072Z" transform="translate(170.508 -218.923)" fill="#d6e3dd"/>
        <path id="Path_2754" data-name="Path 2754" d="M-132.545,249.565l4.885-.665a1.465,1.465,0,0,0,1.011-.6c.284-.4.71-.983,1.161-1.641l-1.415-.528a22.4,22.4,0,0,1-5.714.978l-.645,1.52A.682.682,0,0,0-132.545,249.565Z" transform="translate(170.508 -224.417)" fill="#fff" opacity="0.57"/>
        <path id="Path_2755" data-name="Path 2755" d="M-74.92,240.793a14.2,14.2,0,0,1,1.972,8.173c-.005.091-.012.183-.02.275-.4,4.956-.37,11.94-.37,11.94" transform="translate(136.366 -221.299)" fill="none" stroke="#707070" stroke-linecap="round" stroke-miterlimit="10" stroke-width="0.2"/>
      </g>
      <g id="Group_1863" data-name="Group 1863" transform="translate(8.717 4.497)">
        <path id="Path_2756" data-name="Path 2756" d="M-205.659,215.956c3.354,2.088,35.67.064,35.67.064a8.789,8.789,0,0,1,4.093-.3,39.962,39.962,0,0,1,5,.848c6.4,1.535,19.7,6.311,20.782,7.024a50.4,50.4,0,0,1,3.859,4.082l.009-.257a12.331,12.331,0,0,0-4.024-5.382s-9.087-14.243-16.835-15.491c0,0-1.118-.2-3.054-.461-.012,0-.02,0-.029,0-6.384-.872-21.554-2.48-34.676-.29l-.828.146a.1.1,0,0,0-.032,0q-1.132.2-2.24.447l0,0C-198.165,206.6-204.5,213.237-205.659,215.956Z" transform="translate(205.659 -204.686)" fill="#278a9c"/>
        <path id="Path_2757" data-name="Path 2757" d="M-205.659,217.06c3.354,2.088,35.67.064,35.67.064a3.723,3.723,0,0,1,1.013-.291,13.1,13.1,0,0,1,3.08-.012l2.178.245s-1.572-10.251-7.912-10.294c0,0-17.089-.588-24.062.265a.1.1,0,0,0-.032,0,10.81,10.81,0,0,0-2.24.447l0,0c-.064.07-.854.9-1.907,2.062C-201.9,211.79-204.9,215.271-205.659,217.06Z" transform="translate(205.659 -205.791)" fill="#d6e3dd"/>
        <path id="Path_2758" data-name="Path 2758" d="M-96.745,222.519s-3.057-9.755-4.939-10.982c0,0-5.805-.527-6.538.433,0,0,4.063,6.638,3.885,8.4,0,0,7.592,2.146,7.594,2.281" transform="translate(148.691 -208.607)" fill="#d6e3dd"/>
        <path id="Path_2759" data-name="Path 2759" d="M-76.252,224.721s-5.008-1.691-5.781-1.205c0,0-3.081-9.144-5.5-11.4,0,0,3.515.373,8.883,5.856C-77.41,219.245-76.428,224.215-76.252,224.721Z" transform="translate(136.598 -209.031)" fill="#d6e3dd"/>
        <path id="Path_2760" data-name="Path 2760" d="M-62.412,230.576c-.091-.151-.443-.731-.252.156l1.263,4.712s1.353.362,1.721-.584C-59.681,234.86-61.864,231.486-62.412,230.576Z" transform="translate(122.089 -219.632)" fill="#d6e3dd"/>
        <path id="Path_2761" data-name="Path 2761" d="M-60.678,237.524s1.19-.307,1.493,1.265c0,0,.478,1.593,1.3.944.629-.5-.044-2.939-.044-2.939s4.215-1.469,4.5,1.45c.121,1.244-.824,2.1-4.239,2.3a13.268,13.268,0,0,1-2.34-.068S-60.56,238.1-60.678,237.524Z" transform="translate(120.895 -223.242)" fill="#2a2b2a"/>
        <g id="Group_1856" data-name="Group 1856" transform="translate(0 0.785)">
          <g id="Group_1855" data-name="Group 1855" clip-path="url(#clip-path)">
            <g id="Group_1854" data-name="Group 1854" transform="translate(-2.983 -17.674)" opacity="0.51">
              <rect id="Rectangle_1329" data-name="Rectangle 1329" width="8.867" height="51.471" transform="matrix(-0.77, 0.638, -0.638, -0.77, 45.913, 39.626)" fill="#fff"/>
              <rect id="Rectangle_1330" data-name="Rectangle 1330" width="4.433" height="51.471" transform="matrix(-0.77, 0.638, -0.638, -0.77, 36.262, 47.12)" fill="#fff"/>
            </g>
          </g>
        </g>
        <path id="Path_2763" data-name="Path 2763" d="M-191.735,209.215a1.784,1.784,0,0,0,.412-.213c3.224-2.15,19.263-1,25.681-1.387,8.2-.5,4.667,8.749,4.667,8.749l5.437.493s-1.757-10.892-7.952-10.425c0,0-16.181-1.148-24.062.265a.1.1,0,0,0-.032,0,10.811,10.811,0,0,0-2.24.447l0,0C-189.892,207.223-190.682,208.048-191.735,209.215Z" transform="translate(197.518 -205.449)" fill="#fff"/>
        <path id="Path_2764" data-name="Path 2764" d="M-151.249,209.705s5.185.2,5.563,3.124c.168,1.3,1.238,4.356-2.694,4.514,0,0-10.921,1.193-11.47,2.116,0,0,16.27.136,17.551-.839.978-.744,2.13-8.267-2.483-8.978A17.963,17.963,0,0,0-151.249,209.705Z" transform="translate(178.877 -207.429)" fill="#fff"/>
        <path id="Path_2765" data-name="Path 2765" d="M-199.876,210.355c1.053-1.167,1.843-1.992,1.907-2.062l0,0a8.409,8.409,0,0,1,1.507-.347c-.343.366-.839.9-1.423,1.548-2.022,2.234-5.019,5.715-5.783,7.5,3.354,2.088,35.557.5,34.688.638-.39.062-.576.449-1.013.291,0,0-32.316,2.024-35.67-.064C-204.9,216.07-201.9,212.589-199.876,210.355Z" transform="translate(205.659 -206.59)" fill="#fff"/>
        <g id="Group_1859" data-name="Group 1859" transform="translate(40.47 2.786)">
          <g id="Group_1858" data-name="Group 1858" clip-path="url(#clip-path-2)">
            <g id="Group_1857" data-name="Group 1857" transform="translate(-2.541 -1.902)" opacity="0.51">
              <rect id="Rectangle_1331" data-name="Rectangle 1331" width="2.937" height="17.052" transform="translate(17.835 7.617) rotate(116.531)" fill="#fff"/>
              <rect id="Rectangle_1332" data-name="Rectangle 1332" width="1.469" height="17.052" transform="translate(15.912 11.179) rotate(116.532)" fill="#fff"/>
            </g>
          </g>
        </g>
        <g id="Group_1862" data-name="Group 1862" transform="translate(49.061 3.087)">
          <g id="Group_1861" data-name="Group 1861" clip-path="url(#clip-path-3)">
            <g id="Group_1860" data-name="Group 1860" transform="translate(-2.761 0.43)" opacity="0.51">
              <rect id="Rectangle_1333" data-name="Rectangle 1333" width="2.937" height="17.052" transform="translate(17.972 6.639) rotate(112.913)" fill="#fff"/>
              <rect id="Rectangle_1334" data-name="Rectangle 1334" width="1.469" height="17.052" transform="translate(16.278 10.315) rotate(112.913)" fill="#fff"/>
            </g>
          </g>
        </g>
      </g>
    </g>
    <path id="Path_2768" data-name="Path 2768" d="M-201.478,218.051c.482.141,1.2.336,2.077.523a35.08,35.08,0,0,0,8.564.527c1.836-.029,4.573-.05,8.033,0a24.462,24.462,0,0,1,4.477-.789c2.995-.245,4.83.166,7.057-1.009a3.524,3.524,0,0,0,1.616-1.379c.8-1.524-.075-3.726-1.4-4.934a5.627,5.627,0,0,0-4.88-1.1c-3.784-.174-7.862-.2-12.2-.012-2.617.116-5.13.3-7.526.544Q-198.573,214.24-201.478,218.051Zm1.969-.631q2.623-3.159,5.238-6.322c2.156-.2,4.419-.353,6.774-.449,3.9-.162,7.572-.137,10.982.008a5.4,5.4,0,0,1,4.39.914c1.192,1,1.981,2.82,1.263,4.083a3.047,3.047,0,0,1-1.458,1.142c-2,.976-3.655.635-6.346.839a23.6,23.6,0,0,0-4.029.652c-3.115-.042-5.578-.021-7.231,0a33.981,33.981,0,0,1-7.709-.44C-198.425,217.7-199.069,217.536-199.509,217.419Z" transform="translate(-14.714 -9.283)" fill="#434443"/>
    <path id="Path_2769" data-name="Path 2769" d="M-108.528,211.537a50.292,50.292,0,0,1,2.492,4.847c.594,1.321,1.1,2.592,1.52,3.792q1.906.529,3.875,1.124,1.993.6,3.894,1.227c-.189-.523-.466-1.282-.807-2.2-.082-.221-.312-.839-.554-1.484a37.909,37.909,0,0,0-2.367-5.611c-.444-.793-.851-1.42-1.13-1.832a14.888,14.888,0,0,0-4.153-.312A15.082,15.082,0,0,0-108.528,211.537Zm.644.386a13.218,13.218,0,0,1,2.459-.4,13.347,13.347,0,0,1,3.688.278c.249.361.611.922,1,1.624a33.344,33.344,0,0,1,2.1,4.984c.224.594.64,1.707,1.2,3.177l-6.882-1.994c-.378-1.067-.822-2.193-1.35-3.368A45.29,45.29,0,0,0-107.884,211.923Z" transform="translate(-69.058 -10.055)" fill="#434443"/>
    <path id="Path_2770" data-name="Path 2770" d="M-87.938,211.384c1.03,1.695,2.089,3.6,3.115,5.711s1.865,4.129,2.554,5.993a20.129,20.129,0,0,1,3.755.577,19.6,19.6,0,0,1,2.027.627c-.183-.831-.473-2.023-.9-3.435-.374-1.225-.706-2.139-.756-2.276-1.1-2.953-6.812-5.969-8.274-6.712Zm1.117,1.155c.44.141.881.278,1.321.419,1.267.648,6.226,3.265,7.181,5.831.046.116.332.914.656,1.977.374,1.225.623,2.259.785,2.978a17.78,17.78,0,0,0-1.761-.544,17.793,17.793,0,0,0-3.256-.5c-.6-1.616-1.333-3.364-2.222-5.2S-85.924,214.009-86.821,212.539Z" transform="translate(-81.096 -10.247)" fill="#434443"/>
    <path id="Path_2771" data-name="Path 2771" d="M-63.108,229.3q.629,2.586,1.258,5.175a1.212,1.212,0,0,0,1.354.432,1.143,1.143,0,0,0,.59-.606Q-61.507,231.806-63.108,229.3Zm.469,1.051q1.209,1.894,2.426,3.792a.877.877,0,0,1-.449.457.921.921,0,0,1-1.026-.328C-62,232.967-62.323,231.659-62.639,230.355Z" transform="translate(-95.613 -20.724)" fill="#434443"/>
  </g>
</svg>
