<svg xmlns="http://www.w3.org/2000/svg" xmlns:xlink="http://www.w3.org/1999/xlink" width="64.527" height="52.06" viewBox="0 0 64.527 52.06">
  <defs>
    <clipPath id="clip-path">
      <path id="Path_2794" data-name="Path 2794" d="M323.464,71.156s1.274-1.32,6.353-1.558c0,0,20.444-.65,23.242.135,0,0,3.7.809,5.6,3.159,0,0,5.447,5.736.355,7.235,0,0-12.87,3.281-36.287.3,0,0-5.338-.693-2.758-4.759C319.973,75.664,322.7,71.671,323.464,71.156Z" transform="translate(-319.268 -69.346)" fill="none"/>
    </clipPath>
  </defs>
  <g id="Group_2155" data-name="Group 2155" transform="translate(-295.21 -63.127)">
    <g id="Group_1877" data-name="Group 1877" transform="translate(295.21 63.127)">
      <g id="Group_1867" data-name="Group 1867" transform="translate(3.232 36.382)">
        <rect id="Rectangle_1335" data-name="Rectangle 1335" width="13.783" height="15.467" rx="6.892" transform="translate(0 0.211) rotate(-0.208)" fill="#595958"/>
        <rect id="Rectangle_1336" data-name="Rectangle 1336" width="13.783" height="15.467" rx="6.892" transform="translate(44.295 0.05) rotate(-0.208)" fill="#595958"/>
      </g>
      <g id="Group_1876" data-name="Group 1876">
        <path id="Path_2772" data-name="Path 2772" d="M357.011,109.759a4.791,4.791,0,0,1-1.354.294,4.341,4.341,0,0,1-1.5-.139c-30.161,6.179-53.647-.682-53.647-.682a2.782,2.782,0,0,1-1.741.05,8.05,8.05,0,0,1-1.3-.4c-2.852-7.743-2.539-13.173-1.621-16.553a11.9,11.9,0,0,1,1.949-4.221c.07-.088.109-.132.109-.132a34.16,34.16,0,0,1-.025-6.942c-.278-.341.918-.933,1.29-1.1a.739.739,0,0,1,.07-.031.187.187,0,0,1,.04-.022c.6-.607,2.931-3.028,2.931-3.028,6.53-13.179,8.362-12.309,8.362-12.309,19.722-3.216,34.24.06,34.24.06,3.262,2.141,7.9,12.1,7.9,12.1.246.306.493.612.74.909a18.613,18.613,0,0,0,2.289,2.443,14.558,14.558,0,0,1,1.573.981c.686,5.286.008,6.942.008,6.942s0,0,0,.009a19.268,19.268,0,0,1,2.092,6.1C360.821,102.308,357.011,109.759,357.011,109.759Z" transform="translate(-295.21 -63.127)" fill="#278a9c"/>
        <path id="Path_2773" data-name="Path 2773" d="M358.032,77.61c-1.057.044-2.048.012-1.47-.319,1.094-.626-5.333-9.887-5.333-9.887a4.373,4.373,0,0,0-3.237-1.448c-3.9-.459-7.848-.682-11.6-.756-3.258-.063-6.363-.012-9.156.095-7.379.277-12.574.949-12.574.949-3.014.94-6.785,9.286-6.785,9.286a2.821,2.821,0,0,0-.541,1.94c-.693.112-2.436,3.188-2.436,3.188-.193.032-.672-.322-1.156-.728.07-.035.109-.053.109-.053.6-.607,2.931-3.028,2.931-3.028,6.53-13.179,8.362-12.309,8.362-12.309,19.722-3.216,34.24.06,34.24.06,3.262,2.141,7.9,12.1,7.9,12.1C357.538,77.007,357.785,77.313,358.032,77.61Z" transform="translate(-299.777 -63.127)" fill="#fff"/>
        <g id="Group_1868" data-name="Group 1868" transform="translate(0 13.572)">
          <path id="Path_2774" data-name="Path 2774" d="M357.011,138.8a4.81,4.81,0,0,1-1.354.294,4.347,4.347,0,0,1-1.5-.14c-30.161,6.179-53.647-.682-53.647-.682a2.779,2.779,0,0,1-1.741.05,8.047,8.047,0,0,1-1.3-.4c-2.852-7.743-2.539-13.173-1.621-16.553a11.906,11.906,0,0,1,1.949-4.221s-.683,3.783,7.689,4.007c0,0,2.249,5.767,6.251,5.314,0,0,5.686,1.878,30.313.622a7.352,7.352,0,0,0,6.63-5.872s9.5-.619,8.485-4.22l.167.03a19.268,19.268,0,0,1,2.092,6.1C360.821,131.348,357.011,138.8,357.011,138.8Z" transform="translate(-295.21 -105.515)" fill="#278a9c" opacity="0.5" style="mix-blend-mode: overlay;isolation: isolate"/>
          <path id="Path_2775" data-name="Path 2775" d="M357.011,143.346a4.792,4.792,0,0,1-1.354.294,4.341,4.341,0,0,1-1.5-.139c-30.161,6.179-53.647-.682-53.647-.682a2.782,2.782,0,0,1-1.741.05,8.049,8.049,0,0,1-1.3-.4c-2.852-7.743-2.539-13.173-1.621-16.553.089.456,1.342,6.1,6.887,7.688,0,0,11.342,3.177,31.363,2.517,0,0,24.258.859,25.325-8.446C360.821,135.894,357.011,143.346,357.011,143.346Z" transform="translate(-295.21 -110.285)" fill="#fff"/>
          <path id="Path_2776" data-name="Path 2776" d="M306.053,96.633a3.842,3.842,0,0,1,1.252,2.7s3.49,15.043,8.673,13.563c0,0,19.267,2.433,32.525.357,0,0,2.85-.12,3.554-2.535,0,0,4.209-9.108,5.831-13.314.318-.825,1.918-1.3,2.465-1.7a20.345,20.345,0,0,0-2.935-3.389s.94,2.209-20.6,3.548a19.311,19.311,0,0,0-8.552-.188s-17.617-.886-20.62-2.629a2.613,2.613,0,0,1-.735-.582l-2.931,3.028S304.224,96.16,306.053,96.633Z" transform="translate(-299.902 -92.313)" fill="#fff"/>
          <path id="Path_2777" data-name="Path 2777" d="M300.96,96.379s24.831,5.318,34.4,3.846c0,0,23.681-2,24.914-3.445,0,0,.726-.294-1.543-1.3,0,0-2.167-2.836-2.935-3.175,0,0,.446,2.157-20.6,3.328a11.719,11.719,0,0,0-8.552-.174s-19.447-.717-21.354-3l-2.971,2.858S300.812,95.49,300.96,96.379Z" transform="translate(-298.28 -92.31)" fill="#fff"/>
        </g>
        <path id="Path_2778" data-name="Path 2778" d="M323.464,71.156s1.274-1.32,6.353-1.558c0,0,20.444-.65,23.242.135,0,0,3.7.809,5.6,3.159,0,0,5.447,5.736.355,7.235,0,0-12.87,3.281-36.287.3,0,0-5.338-.693-2.758-4.759C319.973,75.664,322.7,71.671,323.464,71.156Z" transform="translate(-308.08 -66.454)" fill="#d6e3dd"/>
        <g id="Group_1869" data-name="Group 1869" transform="translate(27.461 0.573)">
          <path id="Path_2779" data-name="Path 2779" d="M363.423,65.834a.06.06,0,0,1-.009.026c-3.258-.063-6.363-.012-9.156.095,0-.211.073-1.562,1.038-1.53l6.99-.065A1.1,1.1,0,0,1,363.423,65.834Z" transform="translate(-354.258 -64.36)" fill="#d6e3dd"/>
        </g>
        <g id="Group_1870" data-name="Group 1870" transform="translate(9.99 21.59)">
          <path id="Path_2780" data-name="Path 2780" d="M361.554,110.662s.259,1.06-1.569,1.4a98.684,98.684,0,0,1-32.083-.177,6.076,6.076,0,0,1-1.58-1.56,1.644,1.644,0,0,1-.257-.771s32.895,1.415,35.522.309Z" transform="translate(-321.705 -109.55)" fill="#278a9c"/>
          <path id="Path_2781" data-name="Path 2781" d="M361.587,109.859l-.033.8a111.451,111.451,0,0,1-35.214-.346s-.013,0-.018,0a1.644,1.644,0,0,1-.257-.771S357.257,110.039,361.587,109.859Z" transform="translate(-321.705 -109.55)" fill="#278a9c"/>
          <path id="Path_2782" data-name="Path 2782" d="M362.282,114.591l-2.274,7.776a.348.348,0,0,1-.1.277c-1.786,2-27.362.424-27.362.424a.941.941,0,0,1-.5-.38c-1.3-1.679-2.033-8.127-2.033-8.127C344.313,117.215,362.282,114.591,362.282,114.591Z" transform="translate(-323.819 -112.231)" fill="#278a9c"/>
          <path id="Path_2783" data-name="Path 2783" d="M316.831,124.434s-.519,8.14,4.673,8.668c0,0,23.033,3,34.316.617,0,0,5.538.507,5.942-8.984l-1.371-.021-1.524,3.048s-.348,2.331-3.389,2.678c0,0-12.856,2.038-32.525-.389C322.955,130.051,319.6,130.837,316.831,124.434Z" transform="translate(-316.758 -117.512)" fill="#fff"/>
          <path id="Path_2784" data-name="Path 2784" d="M334.652,115.34s1.086,7.341,3.645,7.442l20.1.11s2.084.358,2.513-2.275l1.077-5.339S354.5,116.693,334.652,115.34Z" transform="translate(-326.299 -112.614)" fill="#fff"/>
          <path id="Path_2785" data-name="Path 2785" d="M362.252,131.194c-1.786,1.915-27.362.411-27.362.411a.937.937,0,0,1-.5-.364h0a9.811,9.811,0,0,0,2.822-.64s14.428.873,22.208.319A5.2,5.2,0,0,0,362.252,131.194Z" transform="translate(-326.157 -120.81)" fill="#36b0c1"/>
          <path id="Path_2786" data-name="Path 2786" d="M316.69,124.317s4.21,2.086,6.087,5.7C322.777,130.014,319.511,131.268,316.69,124.317Z" transform="translate(-316.69 -117.449)" fill="#fff"/>
          <path id="Path_2787" data-name="Path 2787" d="M403.4,125.037s-4.195,2.117-6.045,5.741C397.357,130.778,401.61,131.978,403.4,125.037Z" transform="translate(-359.842 -117.835)" fill="#fff"/>
          <path id="Rectangle_1337" data-name="Rectangle 1337" d="M3.4,0H9.976a3.4,3.4,0,0,1,3.4,3.4v0a3.4,3.4,0,0,1-3.4,3.4H3.4A3.4,3.4,0,0,1,0,3.4v0A3.4,3.4,0,0,1,3.4,0Z" transform="translate(15.281 3.523) rotate(-0.208)" fill="#d6e3dd"/>
        </g>
        <g id="Group_1871" data-name="Group 1871" transform="translate(2.495 16.58)">
          <path id="Path_2788" data-name="Path 2788" d="M308.331,111.216a12.22,12.22,0,0,1-1.567-.136c-6.863-.468-6.1-3.85-6.1-3.85l.007-.054c.07-.088.109-.132.109-.132a15.37,15.37,0,0,1-.192-2.148c-.07-2.289.075-4.793.075-4.793a1.382,1.382,0,0,1,.012-.276c.137-1,1.421-1.045,1.439-1.049.437.757,2.11,1.312,2.11,1.312a2.7,2.7,0,0,1,.581.559h0a4.349,4.349,0,0,1,.788,2.12C305.294,103.607,308.331,111.216,308.331,111.216Z" transform="translate(-300.574 -98.777)" fill="#d6e3dd"/>
          <path id="Path_2789" data-name="Path 2789" d="M306.736,118.109c-6.888-.475-6.038-3.9-6.038-3.9.07-.088.109-.132.109-.132a15.365,15.365,0,0,1-.192-2.148.228.228,0,0,1,.11.083S306.526,114.643,306.736,118.109Z" transform="translate(-300.596 -105.815)" fill="#c6c6c6" opacity="0.76"/>
          <path id="Path_2790" data-name="Path 2790" d="M418.771,108.062l-.092.053s1.044,2.517-8.634,3.649c0,0,2.912-7.263,3.7-8.235a5.2,5.2,0,0,1,.652-1.744,4.569,4.569,0,0,1,.707-.919s1.959-1.419,2.482-1.241,1.441.8,1.166,1.145c0,0,.009.044.022.132.134.741.727,4.47-.11,7.03C418.66,107.931,418.7,107.975,418.771,108.062Z" transform="translate(-359.133 -99.222)" fill="#d6e3dd"/>
          <path id="Path_2791" data-name="Path 2791" d="M421.751,115.1c-.005-.026.1-.055.1-.055-.07-.087-.121-.144-.121-.144a6.686,6.686,0,0,0,.384-2.247c-.044.018-6.035,2.284-6.356,5.684C415.754,118.379,422.228,117.4,421.751,115.1Z" transform="translate(-362.19 -106.199)" fill="#c6c6c6" opacity="0.76"/>
          <path id="Path_2792" data-name="Path 2792" d="M304.931,100.648a17.867,17.867,0,0,1-4.129-.822c.137-1,1.421-1.045,1.439-1.049.437.757,2.11,1.312,2.11,1.312A2.7,2.7,0,0,1,304.931,100.648Z" transform="translate(-300.696 -98.777)" fill="#fcfcfc" opacity="0.48"/>
          <path id="Path_2793" data-name="Path 2793" d="M423.751,100.77s.009.044.022.132c-1.516.422-4.377.889-4.377.889v0a4.57,4.57,0,0,1,.707-.919s1.959-1.419,2.482-1.241S424.026,100.427,423.751,100.77Z" transform="translate(-364.136 -99.222)" fill="#fcfcfc" opacity="0.48"/>
        </g>
        <g id="Group_1874" data-name="Group 1874" transform="translate(11.189 2.892)">
          <g id="Group_1873" data-name="Group 1873" clip-path="url(#clip-path)">
            <g id="Group_1872" data-name="Group 1872" transform="translate(1.394 -13.762)" opacity="0.52">
              <rect id="Rectangle_1338" data-name="Rectangle 1338" width="9.063" height="38.903" transform="matrix(0.683, 0.73, -0.73, 0.683, 28.413, 0)" fill="#fffefd"/>
              <rect id="Rectangle_1339" data-name="Rectangle 1339" width="4.768" height="38.903" transform="translate(35.926 8.809) rotate(46.915)" fill="#fffefd"/>
            </g>
          </g>
        </g>
        <g id="Group_1875" data-name="Group 1875" transform="translate(3.564 44.317)">
          <path id="Path_2795" data-name="Path 2795" d="M359.762,161.141a.113.113,0,0,1,0,.037,4.139,4.139,0,0,1-1.5-.147,121.087,121.087,0,0,1-18.768,2.521,123.023,123.023,0,0,1-16.2-.163,94.342,94.342,0,0,1-18.675-3.087,2.647,2.647,0,0,1-1.741.053l.057-.047s-.08-2.845,4.016-1.552c0,0,5.858,1.055,14.4,1.758a167.6,167.6,0,0,0,19.793.524,107.943,107.943,0,0,0,14.628-1.457S359.93,157.949,359.762,161.141Z" transform="translate(-302.874 -158.419)" fill="#278a9c"/>
          <path id="Path_2796" data-name="Path 2796" d="M362.392,163.183a9.923,9.923,0,0,1-1.649,2.387c-.918.924-1.536.9-1.536.9l-13.158-.209a2.169,2.169,0,0,1-1.51-.838,13.423,13.423,0,0,1-1.939-2.729A176.579,176.579,0,0,0,362.392,163.183Z" transform="translate(-324.125 -160.703)" fill="#8696a9"/>
        </g>
      </g>
    </g>
    <path id="Path_2797" data-name="Path 2797" d="M358.26,72.331a11.456,11.456,0,0,0-4.06-2.423c-3.567-1.316-5.776-.953-14.254-.893-5.06.042-5.753-.074-8.776.121-2.879.181-5.3.484-7.092.753a22.718,22.718,0,0,0-4.288,5.548c-.935,1.721-.9,2.228-.828,2.535.5,2,4.59,2.576,7.962,3.023,4.265.558,5.818.144,13.738.456,2.153.084,1.9.107,3.59.158,7.2.223,10.129-.284,11.971-.735,2.781-.67,4.353-1.074,4.883-2.381C362.11,76.028,358.506,72.564,358.26,72.331Zm1.4,5.8c-.488,1.158-1.949,1.521-4.52,2.116-1.711.4-4.418.846-11.1.651-1.563-.047-1.325-.07-3.325-.144-7.334-.274-8.776.093-12.724-.4-3.125-.391-6.916-.9-7.376-2.683-.07-.27-.1-.716.767-2.242a20.109,20.109,0,0,1,3.972-4.925c1.66-.237,3.9-.5,6.571-.67,2.8-.172,3.441-.07,8.129-.1,7.855-.056,9.9-.377,13.2.786a10.8,10.8,0,0,1,3.762,2.153C357.255,72.871,360.594,75.945,359.664,78.13Z" transform="translate(-12.688 -3.101)" fill="#434443"/>
  </g>
</svg>
