<svg xmlns="http://www.w3.org/2000/svg" xmlns:xlink="http://www.w3.org/1999/xlink" width="92.663" height="57.177" viewBox="0 0 92.663 57.177">
  <defs>
    <clipPath id="clip-path">
      <path id="Path_2891" data-name="Path 2891" d="M156.665,566.344c.347,1.782,1.395,7.2,1.386,7.562l-13.175-.3s-2.622-3.344-2.064-5.667c.068-.284,8.707-2.045,13.155-2.156A.692.692,0,0,1,156.665,566.344Z" transform="translate(-142.734 -565.785)" fill="none"/>
    </clipPath>
    <clipPath id="clip-path-2">
      <path id="Path_2893" data-name="Path 2893" d="M232.056,567.14c-1.927-.672-10.1-3.355-15.483-2.5a.3.3,0,0,0-.246.372c.288,1.211,1.338,5.574,1.937,7.43a.845.845,0,0,0,.759.584l13.834.748.809-2.19-1.045-3.877A.925.925,0,0,0,232.056,567.14Z" transform="translate(-216.319 -564.471)" fill="none"/>
    </clipPath>
    <clipPath id="clip-path-3">
      <rect id="Rectangle_1410" data-name="Rectangle 1410" width="78.664" height="16.909" fill="none"/>
    </clipPath>
    <linearGradient id="linear-gradient" x1="5.129" y1="0.18" x2="5.194" y2="-1.222" gradientUnits="objectBoundingBox">
      <stop offset="0" stop-color="#e61a00"/>
      <stop offset="1" stop-color="#ffad00" stop-opacity="0"/>
    </linearGradient>
    <linearGradient id="linear-gradient-2" x1="-4.257" y1="0.151" x2="-4.202" y2="-0.858" xlink:href="#linear-gradient"/>
    <linearGradient id="linear-gradient-3" x1="4.753" y1="0.326" x2="4.822" y2="-0.88" xlink:href="#linear-gradient"/>
    <linearGradient id="linear-gradient-4" x1="5.64" y1="0.19" x2="5.692" y2="-0.952" gradientUnits="objectBoundingBox">
      <stop offset="0" stop-color="#ff3600"/>
      <stop offset="0.094" stop-color="#ff4e00" stop-opacity="0.831"/>
      <stop offset="0.229" stop-color="#ff6e00" stop-opacity="0.612"/>
      <stop offset="0.366" stop-color="#ff8900" stop-opacity="0.427"/>
      <stop offset="0.5" stop-color="#ff9f00" stop-opacity="0.271"/>
      <stop offset="0.632" stop-color="#ffb000" stop-opacity="0.153"/>
      <stop offset="0.761" stop-color="#ffbd00" stop-opacity="0.067"/>
      <stop offset="0.885" stop-color="#ffc400" stop-opacity="0.016"/>
      <stop offset="1" stop-color="#ffc700" stop-opacity="0"/>
    </linearGradient>
    <linearGradient id="linear-gradient-5" x1="-4.933" y1="0.237" x2="-4.888" y2="-1.007" gradientUnits="objectBoundingBox">
      <stop offset="0" stop-color="#ff3600"/>
      <stop offset="0.093" stop-color="#ff4e00" stop-opacity="0.831"/>
      <stop offset="0.228" stop-color="#ff6e00" stop-opacity="0.612"/>
      <stop offset="0.364" stop-color="#ff8900" stop-opacity="0.427"/>
      <stop offset="0.498" stop-color="#ff9f00" stop-opacity="0.271"/>
      <stop offset="0.629" stop-color="#ffb000" stop-opacity="0.153"/>
      <stop offset="0.757" stop-color="#ffbd00" stop-opacity="0.067"/>
      <stop offset="0.881" stop-color="#ffc400" stop-opacity="0.016"/>
      <stop offset="0.995" stop-color="#ffc700" stop-opacity="0"/>
    </linearGradient>
    <linearGradient id="linear-gradient-6" x1="5.195" y1="0.364" x2="5.25" y2="-0.716" xlink:href="#linear-gradient-4"/>
    <linearGradient id="linear-gradient-7" x1="-4.105" y1="0.329" x2="-4.099" y2="-1.132" gradientUnits="objectBoundingBox">
      <stop offset="0" stop-color="#ff3600"/>
      <stop offset="0.142" stop-color="#ff3800" stop-opacity="0.984"/>
      <stop offset="0.269" stop-color="#ff3e00" stop-opacity="0.941"/>
      <stop offset="0.392" stop-color="#ff4800" stop-opacity="0.871"/>
      <stop offset="0.511" stop-color="#ff5700" stop-opacity="0.769"/>
      <stop offset="0.628" stop-color="#ff6a00" stop-opacity="0.639"/>
      <stop offset="0.743" stop-color="#ff8100" stop-opacity="0.478"/>
      <stop offset="0.856" stop-color="#ff9d00" stop-opacity="0.286"/>
      <stop offset="0.966" stop-color="#ffbc00" stop-opacity="0.071"/>
      <stop offset="1" stop-color="#ffc700" stop-opacity="0"/>
    </linearGradient>
    <linearGradient id="linear-gradient-8" x1="-4.008" y1="0.309" x2="-4.008" y2="-1.003" gradientUnits="objectBoundingBox">
      <stop offset="0" stop-color="#e61a00"/>
      <stop offset="0.771" stop-color="#ffad00" stop-opacity="0"/>
    </linearGradient>
    <linearGradient id="linear-gradient-9" x1="20.675" y1="0.232" x2="20.714" y2="-1.087" xlink:href="#linear-gradient"/>
    <linearGradient id="linear-gradient-10" x1="22.207" y1="0.207" x2="22.238" y2="-0.802" xlink:href="#linear-gradient-4"/>
    <linearGradient id="linear-gradient-11" x1="0.499" y1="0.208" x2="0.503" y2="-1.018" xlink:href="#linear-gradient"/>
    <linearGradient id="linear-gradient-12" x1="0.5" y1="0.298" x2="0.5" y2="-1.29" xlink:href="#linear-gradient-4"/>
    <linearGradient id="linear-gradient-13" x1="5.129" y1="1.025" x2="5.194" y2="-0.377" gradientUnits="objectBoundingBox">
      <stop offset="0" stop-color="#e61a00"/>
      <stop offset="1" stop-color="#ffad00"/>
    </linearGradient>
    <linearGradient id="linear-gradient-14" x1="-4.257" y1="1.005" x2="-4.202" y2="-0.004" xlink:href="#linear-gradient-13"/>
    <linearGradient id="linear-gradient-15" x1="4.845" y1="1.187" x2="4.914" y2="-0.019" xlink:href="#linear-gradient-13"/>
    <linearGradient id="linear-gradient-16" x1="-10.339" y1="1.006" x2="-10.237" y2="-0.016" gradientUnits="objectBoundingBox">
      <stop offset="0" stop-color="#ff3600"/>
      <stop offset="0.146" stop-color="#ff5b00"/>
      <stop offset="0.325" stop-color="#ff8100"/>
      <stop offset="0.503" stop-color="#ff9f00"/>
      <stop offset="0.677" stop-color="#ffb500"/>
      <stop offset="0.845" stop-color="#ffc200"/>
      <stop offset="1" stop-color="#ffc700"/>
    </linearGradient>
    <linearGradient id="linear-gradient-17" x1="5.64" y1="1.025" x2="5.692" y2="-0.117" xlink:href="#linear-gradient-16"/>
    <linearGradient id="linear-gradient-18" x1="-4.933" y1="1.005" x2="-4.888" y2="-0.239" xlink:href="#linear-gradient-16"/>
    <linearGradient id="linear-gradient-19" x1="5.297" y1="1.233" x2="5.352" y2="0.153" xlink:href="#linear-gradient-16"/>
    <linearGradient id="linear-gradient-20" x1="-4.105" y1="1.028" x2="-4.099" y2="-0.433" xlink:href="#linear-gradient-16"/>
    <linearGradient id="linear-gradient-21" x1="-4.008" y1="0.997" x2="-4.008" y2="-0.315" xlink:href="#linear-gradient-13"/>
    <linearGradient id="linear-gradient-22" x1="20.675" y1="1.005" x2="20.714" y2="-0.314" xlink:href="#linear-gradient-13"/>
    <linearGradient id="linear-gradient-23" x1="22.207" y1="1.005" x2="22.238" y2="-0.004" xlink:href="#linear-gradient-16"/>
    <linearGradient id="linear-gradient-24" x1="0.499" y1="1.017" x2="0.503" y2="-0.209" xlink:href="#linear-gradient-13"/>
    <linearGradient id="linear-gradient-25" x1="0.5" y1="1.072" x2="0.5" y2="-0.516" xlink:href="#linear-gradient-16"/>
  </defs>
  <g id="Group_3516" data-name="Group 3516" transform="translate(-58 -3842.162)">
    <g id="Group_2061" data-name="Group 2061" transform="translate(-22.246 3301.142)">
      <path id="Path_2846" data-name="Path 2846" d="M80.339,581.1s.023.4.092.967c.162,1.336.565,3.6,1.477,3.823a6.668,6.668,0,0,0,2.244.186S84,579.733,89.2,578.1c3.079-.963,9.06-1,9.944,8.229,0,0,35.161-.848,37.539-.462,0,0,.923-.167.732-1.606a7.4,7.4,0,0,1,.017-.81c.119-1.928.945-6.7,6.082-7.792,0,0,7.364-1.693,8.926,6.583.073.389.134.8.176,1.231s.081.883.1,1.359c0,0,2.824.656,3.989-.3a19.236,19.236,0,0,0,2.973-.138l.119-.815s-.029-.033-.076-.093c-.261-.318-1.046-1.354-.367-1.436a15.774,15.774,0,0,0,.185-5c-.391-2.813-1.848-5.827-6.23-6.174,0,0-10.561-2.134-13.454-3.616-5.258-2.7-14.169-8.323-27.235-7.591-5.642.317-14.953.2-22.495,2.226a3.2,3.2,0,0,0-.509,1.079s-5.221,5.522-5.524,5.8c-.252.233-.5.463-.728.694a8.939,8.939,0,0,0-.962,1.1c-.873,1.208-1.2,2.6-.285,4.714C82.117,575.289,79.754,579.206,80.339,581.1Z" transform="translate(0 -3.784)" fill="#278a9c"/>
      <g id="Group_1903" data-name="Group 1903" transform="translate(84.099 571.677)">
        <g id="Group_1897" data-name="Group 1897" transform="translate(0 0)">
          <g id="Group_1896" data-name="Group 1896">
            <path id="Path_2847" data-name="Path 2847" d="M332.325,635.561l1.806-.333s.689-9.219-7.6-9.372c-3.152-.058-8.472,2.05-7.732,9.962a3.172,3.172,0,0,0,2.142,1.556s-4.1-7.094,3.806-9.821C327.539,626.59,333.039,628.657,332.325,635.561Z" transform="translate(-265.515 -625.854)" fill="#2a2b2a"/>
            <path id="Path_2848" data-name="Path 2848" d="M110.272,642.877l1.162.06s.63-8.253-7.282-8.86a7.538,7.538,0,0,0-7.751,8.638s.115-.626,1.06-.329a7.041,7.041,0,0,1,4.634-6.269C104.828,635.012,110.152,636.074,110.272,642.877Z" transform="translate(-96.347 -632.098)" fill="#2a2b2a"/>
          </g>
        </g>
        <g id="Group_1902" data-name="Group 1902" transform="translate(0.873 1.047)">
          <g id="Group_1899" data-name="Group 1899" transform="translate(52.933 0)">
            <ellipse id="Ellipse_245" data-name="Ellipse 245" cx="6.58" cy="6.374" rx="6.58" ry="6.374" transform="translate(0 0.612) rotate(-2.664)" fill="#3d4039"/>
            <ellipse id="Ellipse_246" data-name="Ellipse 246" cx="4.751" cy="4.69" rx="4.751" ry="4.69" transform="matrix(0.999, -0.046, 0.046, 0.999, 2.133, 2.334)" fill="#d6e3dd"/>
            <path id="Path_2849" data-name="Path 2849" d="M336.893,647.8a3.267,3.267,0,1,0,3.11-3.443A3.281,3.281,0,0,0,336.893,647.8Z" transform="translate(-333.132 -640.972)" fill="#3d4039"/>
            <path id="Path_2850" data-name="Path 2850" d="M333.376,646.067l-.134-1.245,2.564-.134c.014-.047.029-.093.048-.138l-2.009-1.494.78-.98,1.9,1.693c.042-.025.085-.048.13-.069l-.4-2.532,1.246-.127.174,2.521a1.617,1.617,0,0,1,.19.045l1.569-2.033.947.819-1.669,1.809a1.556,1.556,0,0,1,.194.351l2.526-.22.04,1.252-2.531,0c-.013.04-.026.079-.042.117l2,1.66-.852.918-1.823-1.8a1.657,1.657,0,0,1-.214.105l.534,2.5-1.233.221-.344-2.647c-.048-.012-.1-.026-.142-.042l.029.022-1.477,2.139-1.007-.745,1.661-2a1.569,1.569,0,0,1-.175-.313Z" transform="translate(-330.357 -638.454)" fill="#d6e3dd"/>
            <g id="Group_1898" data-name="Group 1898" transform="translate(5.796 5.457)">
              <path id="Path_2851" data-name="Path 2851" d="M351.783,653.406a.357.357,0,1,0,.34-.373A.357.357,0,0,0,351.783,653.406Z" transform="translate(-350.257 -653.032)" fill="#c6c6c6" stroke="#3d4039" stroke-miterlimit="10" stroke-width="0.1"/>
              <path id="Path_2852" data-name="Path 2852" d="M345.409,654.416a.357.357,0,1,0,.34-.373A.357.357,0,0,0,345.409,654.416Z" transform="translate(-345.408 -653.801)" fill="#c6c6c6" stroke="#3d4039" stroke-miterlimit="10" stroke-width="0.1"/>
              <path id="Path_2853" data-name="Path 2853" d="M346.545,660.719a.357.357,0,1,0,.34-.373A.357.357,0,0,0,346.545,660.719Z" transform="translate(-346.272 -658.595)" fill="#c6c6c6" stroke="#3d4039" stroke-miterlimit="10" stroke-width="0.1"/>
              <path id="Path_2854" data-name="Path 2854" d="M352.984,659.706a.357.357,0,1,0,.34-.373A.357.357,0,0,0,352.984,659.706Z" transform="translate(-351.171 -657.825)" fill="#c6c6c6" stroke="#3d4039" stroke-miterlimit="10" stroke-width="0.1"/>
            </g>
          </g>
          <g id="Group_1901" data-name="Group 1901" transform="translate(0 2.153)">
            <path id="Path_2855" data-name="Path 2855" d="M100,645.9a6.584,6.584,0,1,0,6.277-6.673A6.48,6.48,0,0,0,100,645.9Z" transform="translate(-99.995 -639.224)" fill="#3d4039"/>
            <ellipse id="Ellipse_247" data-name="Ellipse 247" cx="4.751" cy="4.69" rx="4.751" ry="4.69" transform="translate(1.843 2.036) rotate(-2.669)" fill="#d6e3dd"/>
            <path id="Path_2856" data-name="Path 2856" d="M114.49,655.545a3.267,3.267,0,1,0,3.11-3.443A3.281,3.281,0,0,0,114.49,655.545Z" transform="translate(-111.019 -649.018)" fill="#3d4039"/>
            <path id="Path_2857" data-name="Path 2857" d="M110.973,653.815l-.134-1.245,2.564-.134c.014-.047.029-.093.048-.138l-2.009-1.494.78-.98,1.9,1.693c.042-.025.085-.048.13-.069l-.4-2.532,1.246-.127.174,2.521a1.681,1.681,0,0,1,.19.045l1.569-2.033.947.819-1.669,1.809a1.553,1.553,0,0,1,.194.351l2.526-.22.039,1.252-2.531,0c-.012.04-.026.079-.042.118l2,1.66-.852.919-1.823-1.8a1.642,1.642,0,0,1-.214.1l.533,2.505-1.233.221-.344-2.647c-.048-.012-.1-.026-.142-.042l.029.022-1.477,2.139-1.007-.745,1.661-2a1.563,1.563,0,0,1-.175-.314Z" transform="translate(-108.244 -646.501)" fill="#d6e3dd"/>
            <g id="Group_1900" data-name="Group 1900" transform="translate(5.507 5.159)">
              <path id="Path_2858" data-name="Path 2858" d="M129.38,661.154a.357.357,0,1,0,.34-.373A.357.357,0,0,0,129.38,661.154Z" transform="translate(-127.854 -660.78)" fill="#c6c6c6" stroke="#3d4039" stroke-miterlimit="10" stroke-width="0.1"/>
              <path id="Path_2859" data-name="Path 2859" d="M123.006,662.164a.357.357,0,1,0,.34-.373A.357.357,0,0,0,123.006,662.164Z" transform="translate(-123.005 -661.549)" fill="#c6c6c6" stroke="#3d4039" stroke-miterlimit="10" stroke-width="0.1"/>
              <path id="Path_2860" data-name="Path 2860" d="M124.143,668.467a.357.357,0,1,0,.34-.373A.357.357,0,0,0,124.143,668.467Z" transform="translate(-123.87 -666.343)" fill="#c6c6c6" stroke="#3d4039" stroke-miterlimit="10" stroke-width="0.1"/>
              <path id="Path_2861" data-name="Path 2861" d="M130.581,667.454a.357.357,0,1,0,.34-.373A.357.357,0,0,0,130.581,667.454Z" transform="translate(-128.768 -665.573)" fill="#c6c6c6" stroke="#3d4039" stroke-miterlimit="10" stroke-width="0.1"/>
            </g>
          </g>
        </g>
      </g>
      <g id="Group_1904" data-name="Group 1904" transform="translate(80.431 554.633)">
        <path id="Path_2862" data-name="Path 2862" d="M93.277,569.475l.015,0a20.462,20.462,0,0,0,3.654-.624c1.607-.05,3.523-.062,5.667-.045,11.984.1,31.112,1.141,43.521,1.887,7.175.436,12.1.771,12.1.771,3.6,2.564,11.187,5.6,11.187,5.6l.024-.013c-.391-2.813-1.848-5.827-6.23-6.174,0,0-1.837-.371-4.192-.913-3.286-.754-7.575-1.84-9.262-2.7-5.258-2.7-14.17-8.323-27.235-7.591-5.642.317-14.953.2-22.495,2.226a3.2,3.2,0,0,0-.509,1.079l0,0c-.13.138-4.575,4.839-5.4,5.68-.059.062-.1.1-.118.12C93.752,569.013,93.507,569.243,93.277,569.475Z" transform="translate(-90.344 -558.418)" fill="#fff"/>
        <path id="Path_2863" data-name="Path 2863" d="M221.821,608.162c.025.53,1.154.909,2.522.845s2.458-.545,2.433-1.075-1.154-.909-2.523-.845S221.8,607.632,221.821,608.162Z" transform="translate(-188.126 -594.529)" fill="#fff"/>
        <path id="Path_2864" data-name="Path 2864" d="M139.665,604.373c.025.53,1.154.909,2.523.845s2.458-.545,2.433-1.075-1.154-.909-2.523-.845S139.64,603.843,139.665,604.373Z" transform="translate(-125.63 -591.647)" fill="#fff"/>
        <path id="Path_2865" data-name="Path 2865" d="M108.533,613.781a1.592,1.592,0,1,0,1.516-1.664A1.592,1.592,0,0,0,108.533,613.781Z" transform="translate(-101.948 -598.36)" fill="#fff"/>
        <path id="Path_2866" data-name="Path 2866" d="M312.063,588.425s7.632,3.908,4.452,4.056l-3.951.134A11.986,11.986,0,0,0,312.063,588.425Z" transform="translate(-256.773 -580.338)" fill="#fff"/>
        <path id="Path_2867" data-name="Path 2867" d="M86.327,608.935c1.329.1,5.449-3.9,5.449-3.9,1.558-2.059-5.006-.843-5.006-.843l-.158.025C85.739,605.429,85.412,606.825,86.327,608.935Z" transform="translate(-84.641 -592.064)" fill="#d6e3dd"/>
        <path id="Path_2868" data-name="Path 2868" d="M232.056,567.14c-1.927-.672-10.1-3.355-15.483-2.5a.3.3,0,0,0-.246.372c.288,1.211,1.338,5.574,1.937,7.43a.845.845,0,0,0,.759.584l13.834.748.809-2.19-1.045-3.877A.925.925,0,0,0,232.056,567.14Z" transform="translate(-183.941 -562.117)" fill="#d6e3dd"/>
        <path id="Path_2869" data-name="Path 2869" d="M232.056,567.14c-1.927-.672-10.1-3.355-15.483-2.5a.3.3,0,0,0-.246.372c.288,1.211,1.338,5.574,1.937,7.43a.845.845,0,0,0,.759.584l13.834.748.809-2.19-1.045-3.877A.925.925,0,0,0,232.056,567.14Z" transform="translate(-183.941 -562.117)" fill="#d6e3dd"/>
        <path id="Path_2870" data-name="Path 2870" d="M232.056,567.14c-1.927-.672-10.1-3.355-15.483-2.5a.3.3,0,0,0-.246.372c.288,1.211,1.338,5.574,1.937,7.43a.845.845,0,0,0,.759.584l13.834.748.809-2.19-1.045-3.877A.925.925,0,0,0,232.056,567.14Z" transform="translate(-183.941 -562.117)" fill="#d6e3dd"/>
        <path id="Path_2871" data-name="Path 2871" d="M232.056,567.14c-1.927-.672-10.1-3.355-15.483-2.5a.3.3,0,0,0-.246.372c.288,1.211,1.338,5.574,1.937,7.43a.845.845,0,0,0,.759.584l13.834.748.809-2.19-1.045-3.877A.925.925,0,0,0,232.056,567.14Z" transform="translate(-183.941 -562.117)" fill="#d6e3dd"/>
        <path id="Path_2872" data-name="Path 2872" d="M382.667,659.331c.05.43.081.883.1,1.359,0,0,2.824.656,3.989-.3a19.244,19.244,0,0,0,2.973-.138l.119-.815s-6.047.1-7.05-.1A.331.331,0,0,0,382.667,659.331Z" transform="translate(-310.481 -634.273)" fill="#fff"/>
        <path id="Path_2873" data-name="Path 2873" d="M398.215,639.077a7.861,7.861,0,0,0,2.815.671c-.261-.318-1.046-1.354-.367-1.436,0,0-.828-4.464-2.7-4.749C397.959,633.564,396.7,639.024,398.215,639.077Z" transform="translate(-321.741 -614.676)" fill="#fff"/>
        <path id="Path_2874" data-name="Path 2874" d="M398.215,639.077c.359-1.2-.256-5.513-.256-5.513S396.7,639.024,398.215,639.077Z" transform="translate(-321.741 -614.676)" fill="#fff"/>
        <path id="Path_2875" data-name="Path 2875" d="M156.314,626.416c.828-.039,1.242-1.8,1.242-1.8-.165-1.731,1.579-1.415,2.243-1.594,10.709-2.9,29.76-.18,33.792-.116a22.634,22.634,0,0,1,3.16,1.146,8.137,8.137,0,0,1,6.513-2.636c7.789.517,7.027,7.786,7.027,7.786l-.07.048c-1.562-8.276-8.926-6.583-8.926-6.583a7.529,7.529,0,0,0-6.082,7.793c-.016-.126-3.67.6-4.066.522l-19.59.509-10.732.28s-1.739.364-2.708-2c-.047-.11-.09-.227-.133-.352a22.265,22.265,0,0,0-1.781-2.671C156.2,626.537,156.235,626.419,156.314,626.416Z" transform="translate(-138.213 -605.426)" fill="#fff"/>
        <path id="Path_2876" data-name="Path 2876" d="M213.155,651.7s-15.545-3.188-27.8-1Z" transform="translate(-160.389 -627.122)" fill="#fff"/>
        <path id="Path_2877" data-name="Path 2877" d="M344.753,608.4s-5.708,3.132-14.6-4.815l8.277,1.334S341.961,607.1,344.753,608.4Z" transform="translate(-270.531 -591.868)" fill="#fff"/>
        <path id="Path_2878" data-name="Path 2878" d="M96.813,579.381c.073-.028.151-.064.231-.1a10.143,10.143,0,0,0,5.172-5.577C102.086,573.839,97.641,578.54,96.813,579.381Z" transform="translate(-93.034 -569.138)" fill="#fff"/>
        <path id="Path_2879" data-name="Path 2879" d="M146.1,562.856s-1.14-.919-1.334.248Z" transform="translate(-129.51 -560.627)" fill="#111"/>
        <rect id="Rectangle_1345" data-name="Rectangle 1345" width="0.116" height="2.584" transform="translate(15.586 2.059) rotate(142.828)" fill="#111"/>
        <path id="Path_2880" data-name="Path 2880" d="M81.02,636.527c.162,1.336.565,3.6,1.477,3.823a6.667,6.667,0,0,0,2.244.186s-.149-6.345,5.05-7.975c3.079-.963,9.06-1,9.944,8.229,0,0,35.161-.848,37.539-.462,0,0,.923-.167.732-1.606,0,0-.014-.412.02-.912,0,0-31.678-3.109-37.1-.587,0,0-3.074-7.521-10.69-5.758a8.4,8.4,0,0,0-5,3.336s-2.622,2.357-4.141,1.745A.239.239,0,0,0,81.02,636.527Z" transform="translate(-81.02 -612.875)" fill="#fff"/>
        <path id="Path_2881" data-name="Path 2881" d="M187.154,595.947s-7.972-1.59-10.091-3.106c0,0,5.106,3,2.5,2.821-14.534-.991-47.557-1.683-47.56-1.606-.081,1.728,55.826,2.7,55.826,2.7S186.957,596.509,187.154,595.947Z" transform="translate(-119.799 -583.698)" fill="#fff"/>
        <path id="Path_2882" data-name="Path 2882" d="M121.525,565.864a10.04,10.04,0,0,1,2.683.753.555.555,0,0,0,.5.088,55.032,55.032,0,0,1,9.022-1.884A90.813,90.813,0,0,0,121.525,565.864Z" transform="translate(-111.832 -562.383)" fill="#fff"/>
        <path id="Path_2883" data-name="Path 2883" d="M362.842,604.394l.078.078a1.215,1.215,0,0,0,.091.091c3.434,3.372,8.462,3.021,8.462,3.021a3.763,3.763,0,0,0-1.457-2.829,5.185,5.185,0,0,0-1.7-.891c-.13-.046-.267-.085-.407-.12,0,0-1.928-.3-4.283-.846l-.029.013S361.144,603.565,362.842,604.394Z" transform="translate(-294.945 -591.348)" fill="#e0e9ef"/>
        <path id="Path_2884" data-name="Path 2884" d="M164.2,652.99c.969,2.364,2.708,2,2.708,2l10.732-.28,19.59-.509a3.676,3.676,0,0,0,1.009.075l1.065-.87s-28.092-2.993-34.932-.471C164.318,652.956,164.258,652.972,164.2,652.99Z" transform="translate(-144.298 -628.642)" fill="#fff"/>
        <path id="Path_2885" data-name="Path 2885" d="M135.111,606.644a7.613,7.613,0,0,1,2.291,2.106,22.271,22.271,0,0,1,1.781,2.671c.043.125.086.242.133.352.969,2.364,2.708,2,2.708,2l10.732-.28,19.59-.509a3.678,3.678,0,0,0,1.009.075,1.521,1.521,0,0,0,1.391-1.863,15.742,15.742,0,0,0,1.031-5.861,27.084,27.084,0,0,0-.573-5.645c-2.424-.441-13.185-.927-23.4-1.3-10.353-.38-20.15-.647-20.15-.647A8.91,8.91,0,0,0,135.111,606.644Z" transform="translate(-119.409 -587.425)" fill="none" stroke="#707070" stroke-miterlimit="10" stroke-width="0.2"/>
        <path id="Path_2886" data-name="Path 2886" d="M216.65,600.818s2,12.262.939,14.856" transform="translate(-184.193 -589.766)" fill="none" stroke="#707070" stroke-miterlimit="10" stroke-width="0.2"/>
      </g>
      <g id="Group_1911" data-name="Group 1911" transform="translate(92.677 556.385)">
        <path id="Path_2887" data-name="Path 2887" d="M132.192,570.518a.153.153,0,0,0,.023.074c5.592.048,12.741.3,20.037.628,8.337.38,16.865.862,23.483,1.26l0-.013s.134-4.444-1.45-5.18a47.443,47.443,0,0,0-24.054-5.244c-4.342.294-16.729.716-17.11,3.2A50.922,50.922,0,0,0,132.192,570.518Z" transform="translate(-132.191 -561.954)" fill="#434443"/>
        <path id="Path_2888" data-name="Path 2888" d="M156.665,566.344c.347,1.782,1.395,7.2,1.386,7.562l-13.175-.3s-2.622-3.344-2.064-5.667c.068-.284,8.707-2.045,13.155-2.156A.692.692,0,0,1,156.665,566.344Z" transform="translate(-140.211 -564.868)" fill="#d6e3dd"/>
        <path id="Path_2889" data-name="Path 2889" d="M292.023,580.844a17.131,17.131,0,0,0-3.914-1.87.222.222,0,0,0-.3.25,17.566,17.566,0,0,0,.907,3.595s2.64.705,3.646.079C292.366,582.9,292.618,581.331,292.023,580.844Z" transform="translate(-250.569 -574.89)" fill="#d6e3dd"/>
        <path id="Path_2890" data-name="Path 2890" d="M289.182,589.135s-1.025,1.993-.035,2.816c0,0,2.873.363,2.906-1.584C292.053,590.368,291.849,588.639,289.182,589.135Z" transform="translate(-251.259 -582.563)" fill="#2a2b2a"/>
        <g id="Group_1907" data-name="Group 1907" transform="translate(2.523 0.917)">
          <g id="Group_1906" data-name="Group 1906" clip-path="url(#clip-path)">
            <g id="Group_1905" data-name="Group 1905" transform="translate(0.18 -1.812)" opacity="0.57">
              <rect id="Rectangle_1346" data-name="Rectangle 1346" width="1.274" height="13.695" transform="translate(13.799 10.213) rotate(138.227)" fill="#fff"/>
              <rect id="Rectangle_1347" data-name="Rectangle 1347" width="2.842" height="13.695" transform="matrix(-0.746, 0.666, -0.666, -0.746, 11.243, 11.014)" fill="#fff"/>
            </g>
          </g>
        </g>
        <path id="Path_2892" data-name="Path 2892" d="M232.056,567.14c-1.927-.672-10.1-3.355-15.483-2.5a.3.3,0,0,0-.246.372c.288,1.211,1.338,5.574,1.937,7.43a.845.845,0,0,0,.759.584l13.834.748.809-2.19-1.045-3.877A.925.925,0,0,0,232.056,567.14Z" transform="translate(-196.187 -563.868)" fill="#d6e3dd"/>
        <g id="Group_1910" data-name="Group 1910" transform="translate(20.132 0.602)">
          <g id="Group_1909" data-name="Group 1909" clip-path="url(#clip-path-2)">
            <g id="Group_1908" data-name="Group 1908" transform="translate(-1.144 -2.188)" opacity="0.56">
              <rect id="Rectangle_1348" data-name="Rectangle 1348" width="1.144" height="16.636" transform="matrix(-0.78, 0.626, -0.626, -0.78, 16.808, 13.075)" fill="#fff"/>
              <rect id="Rectangle_1349" data-name="Rectangle 1349" width="4.457" height="16.636" transform="translate(13.888 12.975) rotate(141.257)" fill="#fff"/>
            </g>
          </g>
        </g>
      </g>
    </g>
    <g id="Group_2185" data-name="Group 2185" transform="translate(-86.431 3387.664)">
      <g id="Group_2180" data-name="Group 2180" transform="translate(158.43 494.766)">
        <g id="Group_2179" data-name="Group 2179" clip-path="url(#clip-path-3)">
          <g id="Group_2178" data-name="Group 2178" transform="translate(5.872 0)" opacity="0.1">
            <path id="Path_3471" data-name="Path 3471" d="M201.794,705.407a7.269,7.269,0,0,0-1.233,3.1,7.8,7.8,0,0,0,.348,3.7c.788,2.836,3.451,4.427,2.709,7.9a4.2,4.2,0,0,1-2.346,3.271,3.808,3.808,0,0,0,1.191-3.762c-.325-1.389-1.69-2.952-2.831-1.487-1.786,2.291,1.742,5.645,2.159,8.018a4.457,4.457,0,0,1-1.739,4.7,3.976,3.976,0,0,0,.881-3.82c-.51-1.447-1.994-2.025-2.458-3.588-.092,1.053.789,1.911,1.113,2.663a4.621,4.621,0,0,1,.51,2.372c-.046,1.794-1.252,3.241-.927,4.977a5.517,5.517,0,0,0,.389,1.59,4.556,4.556,0,0,0,1.142,1.447,4.949,4.949,0,0,1-2.875-3.79,5.547,5.547,0,0,1,.047-2.141c.186-.695.6-1.389.232-2.141a1.975,1.975,0,0,1-1.391,2.2,2.187,2.187,0,0,0,.7-2.431c-.232-.926-.742-1.736-.881-2.662a5.466,5.466,0,0,1,.371-2.72,5.705,5.705,0,0,0,.464-2.546,5.6,5.6,0,0,0-1.033-2.73c.278.695,1.1,3.865-1.332,4.292,1.6-1.154.742-3.183.046-4.919a6.156,6.156,0,0,1-.186-4.63,7.212,7.212,0,0,1,1.391-2.662,2.283,2.283,0,0,0-1.554,1.19c-1.043,1.588.117,4.812-1.785,5.466,1.646-1.621-.278-4.051.464-6.134a6.448,6.448,0,0,1,3.736-4.222,13.111,13.111,0,0,1,5.78-1.389C202.464,704.554,201.858,705.309,201.794,705.407Z" transform="translate(-192.91 -703.411)" fill="url(#linear-gradient)"/>
            <path id="Path_3472" data-name="Path 3472" d="M363.181,701.728a2.512,2.512,0,0,0-.527,2.782,8.634,8.634,0,0,1,.575,4c-.222,2.481-1.045,3.787-.646,5.716a3.584,3.584,0,0,0,1.747,2.536c-2.494-3.17,1.107-4.245.842-7.552a5.382,5.382,0,0,0-.4-1.433,6.088,6.088,0,0,1,1.329,2.993,6.762,6.762,0,0,1-.109,3.126A8.865,8.865,0,0,1,363.975,718a9.6,9.6,0,0,0-2.1,3.526,4.471,4.471,0,0,0,1.041,4,4.786,4.786,0,0,1-.177-3.528c.4-.937,1.462-1.984,2.26-1.1,1.684,1.764-1.51,3.693-1.64,6.037a3.806,3.806,0,0,0,1.33,3.445,3.64,3.64,0,0,1-.665-2.371,4.237,4.237,0,0,1,1.551-2.48,7.261,7.261,0,0,0,1.909-1.93,5.377,5.377,0,0,0,.926-2.315,3.53,3.53,0,0,0-.62-2.591,4.384,4.384,0,0,1,1.329,4.3,19.859,19.859,0,0,1-2.215,4.741,6.191,6.191,0,0,0-.842,5.239c.5,1.91,1.292,3.4,1.374,5.027a6.65,6.65,0,0,1-1.611,5.187c3.874-1.948,4.222-6.232,3.826-8.123-.215-1.026-.67-1.874-.892-2.866a2.925,2.925,0,0,1,.626-2.812c-1.019,2.205-.123,4.906,1.95,5.458-1.162-.772-1.384-2.454-1.162-3.942.266-1.654,1.218-3.1,1.75-4.587,1.152-3.363-.034-5.86-2.36-8.01a3.942,3.942,0,0,1-1.241-4.024c-.141,2.646,1.728,4.686,3.545,4.521-1.861-.638-2.57-3.859-1.773-5.954.753-1.93,1.4-3.86.466-6.23a7.867,7.867,0,0,0-2.371-2.867c2.747,1.643,3.944,3.749,3.5,6.781a4.367,4.367,0,0,1-.842,2.315c.421-.22,3.323-3,1.817-5.954a2.63,2.63,0,0,1,.842,2.371,6.959,6.959,0,0,0-.345-6.158,4.165,4.165,0,0,0-1.286-1.461C370.6,700.648,364.659,700.486,363.181,701.728Z" transform="translate(-333.8 -700.347)" fill="url(#linear-gradient-2)"/>
            <path id="Path_3473" data-name="Path 3473" d="M322.377,716.511a2.243,2.243,0,0,0,.378,2.862c-1.237.068-2.635-2.015-2.021-3.447-1.648,2.583-.7,4.039.129,5.346,1.028,1.613,1.928,3.052,1.5,5.184a4.23,4.23,0,0,1-1.683,2.623,3.442,3.442,0,0,0,.642-3.332c-.6-1.25-2.181-.723-2.181.694,0,1.245.871,2.453,1.333,3.5a4.4,4.4,0,0,1,.252,3.224,4.534,4.534,0,0,1-2.86,2.713,3.255,3.255,0,0,0,1.6-3.486c-.336-1.468-1.593-2.646-2.414-3.749a3.918,3.918,0,0,1-.777-4.141c.49-1.138,2.12-1.974,1.975-3.522a.936.936,0,0,0-1.369-.823c-.756.429-.55,1.4-.232,2.026-1.111-.786-1.623-2.2-.985-4.081.674-1.988,2.946-2.352,3.531-3.567a1.762,1.762,0,0,0-.539-2.315,2.217,2.217,0,0,1-.27,2.423,2.778,2.778,0,0,1-2.228,1.023,2.429,2.429,0,0,0,.8-3.13,2.372,2.372,0,0,1,.058-2.329,2.607,2.607,0,0,0,.315-1.768,1.659,1.659,0,0,0-.771-1.021c.72.309,4.333-.185,6.185,3.908a5.751,5.751,0,0,1-.371,5.179Z" transform="translate(-295.119 -705.836)" fill="url(#linear-gradient-3)"/>
            <path id="Path_3474" data-name="Path 3474" d="M205.833,704.665a6.326,6.326,0,0,0-2.687,4.065,8.329,8.329,0,0,0,1.276,5.589c.747,1.392,2.9,4.092,1.738,6.927.45-3.43-2.015-5.119-3.388-3.829-1.022.96-1.149,2.189-.513,4.169.586,1.824,3,3.681,2.463,6.588.283-2.855-2.6-3.254-3.2-5.886-.72,2.154.629,3.241,1,4.456a5,5,0,0,1,.032,3.7c-.549,1.852-1.133,3.031-.43,4.115-1.182-1.193-1.1-2.9-.556-4.578.4-1.238-.395-2.2-1.089-3.588-1.23-2.46.864-3.486.436-6.454-.217-1.508-3.118-4.894-1.758-8.824a6.208,6.208,0,0,1,.9-1.852c-1.938-.431-3.276,2.29-3.09,4.547a6.229,6.229,0,0,1,1.517-6.091A8.962,8.962,0,0,1,202.3,705.4,35.983,35.983,0,0,1,205.833,704.665Z" transform="translate(-196.098 -703.533)" fill="url(#linear-gradient-4)"/>
            <path id="Path_3475" data-name="Path 3475" d="M365.224,705a8.523,8.523,0,0,1,.31,5.733,7.03,7.03,0,0,0-.068,4.866c-.729-2.009.733-2.987,1.353-4.946a4.081,4.081,0,0,0-.2-3.118c1.445.669,2.154,2.839,2.2,4.989a8.423,8.423,0,0,1-1.766,5.513c-.709,1.047-2.4,2.232-2.643,4.493.572-2.563,2.9-3.2,3.567-1.544,1.306,3.267-2.3,3.916-1.915,6.34.669-2.756,4.153-2.316,3.554-6.561-.125-.884-.487-1.709-.532-2.591a11.5,11.5,0,0,1,.089-2.48,23.211,23.211,0,0,0,.4-5.238,7.8,7.8,0,0,0-2.482-5.182c-1.462-1.378-1.722-2.012-1.178-3.281-.465,2.4,1.493,2.853,2.633,4.329,1.177,1.524,2.2,2.784,2.2,5.485,0,1.55-.128,4.186,1.116,4.962-1.193-1.688.727-4.265.551-6.912a7.171,7.171,0,0,0-2.162-5.356c-.682-.772-.523-1.831.346-1.831.931-.122,1.967.911,2.484,1.7a8.123,8.123,0,0,1,1.239,3.887c.786-1.654,1.315-3.153-.5-5.854-.925-.9-1.907-1.051-3.844-1.158C367.271,701.094,363.928,701.839,365.224,705Z" transform="translate(-336.023 -700.663)" fill="url(#linear-gradient-5)"/>
            <path id="Path_3476" data-name="Path 3476" d="M325.407,717.49c-.349.856-1.2,1.439-.832,2.935a3.328,3.328,0,0,1-.719-2.456,7.287,7.287,0,0,1,.415-1.609,5.925,5.925,0,0,0-2.058,3.746,6.284,6.284,0,0,0,1.1,3.74,3.446,3.446,0,0,1,.492,2.488,1.041,1.041,0,0,0-1.293-1.171c-.81.242-1.069,1.19-1.136,1.941-.141,1.547.807,2.9,1.333,4.355a2.9,2.9,0,0,1,.091,2.565,3.335,3.335,0,0,0-.91-2.682c-.572-.843-1.493-1.393-1.893-2.3a2.767,2.767,0,0,1,.168-2.872,6.359,6.359,0,0,0,1.555-2.865,1.563,1.563,0,0,0-2.831-1.126c-.478-2.489,1.448-3.236,2.683-4.312.936-.816,1.574-1.923.9-3.184A2.154,2.154,0,0,0,321,713.6c.846,1.565.379,2.748-.663,3.218,1.119-1.857-.864-2.764.039-4.617.78-1.6-.089-2.363-.089-2.363C322.177,709.639,327.359,712.707,325.407,717.49Z" transform="translate(-297.98 -707.841)" fill="url(#linear-gradient-6)"/>
            <g id="Group_2175" data-name="Group 2175" transform="translate(54.655)">
              <path id="Path_3477" data-name="Path 3477" d="M530.209,698.929a8.709,8.709,0,0,0-3.241.892c-3,1.546-3.484,4.418-2.026,7.222.364.67.882,1.329,1.336,2.011q.113.17.22.343a4.792,4.792,0,0,1,.5,3.559,2.086,2.086,0,0,1-.216.315,2.664,2.664,0,0,1-.292.3c-.109.1-.226.189-.351.28s-.256.18-.391.268c.146-.04.3-.084.451-.132s.308-.1.463-.161.3-.135.45-.21a2.881,2.881,0,0,0,1.719-2.977,6.055,6.055,0,0,1,1.69,4.919,11.544,11.544,0,0,1-2.658,6.024c.271-.111.547-.218.82-.327.137-.055.273-.11.407-.166,3.978-1.372,5.375-5.653,4.649-8.846a9.261,9.261,0,0,0-1.034-2.865c-.816-1.663-2.141-2.4-3.132-3.42a7.034,7.034,0,0,1-.794-1.186,1.794,1.794,0,0,1,.612-1.928,3.384,3.384,0,0,0,.883,1.618c.09.1.186.2.289.312a5.324,5.324,0,0,0,1.693,1.229c.113.062.229.124.348.186l.376.193c.81.413,1.827,1.229,1.846,2.067.013.577-.132,1.537-.62,1.671.325.134,1.8-.878,1.58-2.566-.253-1.947-4.208-3.562-2.076-5.033,1.01-.735,2.357.138,2.861.919a2.762,2.762,0,0,1-.224,2.941,3.083,3.083,0,0,0,1.318-3.334C537.434,702.019,535.945,698.8,530.209,698.929Z" transform="translate(-523.988 -698.743)" fill="url(#linear-gradient-7)"/>
              <path id="Path_3478" data-name="Path 3478" d="M529.454,697.827c-2.6.152-5.767,1.674-6.214,4.516a6.4,6.4,0,0,0,.894,4.2,24.063,24.063,0,0,1,1.69,2.752,2.906,2.906,0,0,1-.964,3.779c-.12.08-.151.37.056.311,1.614-.456,3.7-1.734,3.27-3.749l-.305.25a6.44,6.44,0,0,1,1.408,6.123,10.862,10.862,0,0,1-1.473,3.375c-.276.43-.656.8-.913,1.238-.085.146.018.271.172.209,1.859-.751,3.475-1.433,4.7-3.1a8.266,8.266,0,0,0,1.5-4.823,10.07,10.07,0,0,0-1.561-5.158,9.394,9.394,0,0,0-2.036-2.135c-1.134-.976-2.27-2.128-1-3.594l-.283,0a5.358,5.358,0,0,0,2.38,2.958c.641.42,1.369.675,2,1.12a3.158,3.158,0,0,1,.947,1.069c.241.439.127,1.622-.369,1.878-.08.042-.251.309-.07.34.565.1,1.175-.562,1.43-.988a2.606,2.606,0,0,0,.055-2.774c-.574-.97-1.574-1.608-2.162-2.568a.85.85,0,0,1,.169-1.176,1.626,1.626,0,0,1,2.1.058,2.436,2.436,0,0,1,.508,3.484c-.11.164.073.3.215.181a3.569,3.569,0,0,0,.73-5.034c-1.51-2.208-4.381-2.765-6.879-2.739-.182,0-.35.372-.118.37,2.25-.023,4.589.4,6.221,2.069a4.752,4.752,0,0,1,.983,1.518,3.016,3.016,0,0,1-1.081,3.552l.215.181a2.779,2.779,0,0,0-.527-3.9,1.951,1.951,0,0,0-2.929.5c-.506.829.472,1.765.98,2.3a7.907,7.907,0,0,1,1.452,1.811,2.168,2.168,0,0,1-.1,1.877c-.143.3-.657.99-1.062.921q-.036.17-.07.34c1.193-.616.822-2.387.1-3.185a9.154,9.154,0,0,0-2.468-1.524,4.976,4.976,0,0,1-2.3-2.82c-.04-.151-.208-.09-.283,0a2.109,2.109,0,0,0-.672,2.112,4.427,4.427,0,0,0,1.218,1.628,15.155,15.155,0,0,1,2.394,2.434,9.092,9.092,0,0,1,1.206,2.8,8.325,8.325,0,0,1-.556,5.917c-1.059,2.115-2.966,2.945-5.035,3.78l.172.209c.326-.556.8-1.042,1.138-1.6a11.624,11.624,0,0,0,1.442-3.819,6.428,6.428,0,0,0-1.621-5.734c-.119-.134-.331.128-.3.25.381,1.765-1.493,2.815-2.9,3.211q.029.156.056.311a2.81,2.81,0,0,0,1.495-2.85c-.086-1.882-1.563-3.183-2.352-4.771a4.961,4.961,0,0,1,.244-5.226,6.861,6.861,0,0,1,4.945-2.293C529.516,698.186,529.683,697.813,529.454,697.827Z" transform="translate(-523.173 -697.826)" fill="url(#linear-gradient-8)"/>
            </g>
            <g id="Group_2176" data-name="Group 2176" transform="translate(8.795 0.986)">
              <path id="Path_3479" data-name="Path 3479" d="M257.457,706.038a7.515,7.515,0,0,1,.572,3.88q-.034.282-.089.559a16.6,16.6,0,0,0-.92,2.446,3.849,3.849,0,0,0-.071.453c.021.216.031.368.037.509-.173.456.183.99.361,1.525-1.068-.89-1.78-4.095-2.67-2.67-.623.935-.035,2.112.387,3.354.06.178.117.356.164.535a1.435,1.435,0,0,1-.373,1.808c0-1.424-1.068-2.314-1.966-3.175-.122-.134-.24-.272-.352-.414a4.935,4.935,0,0,1-.911-2.01,2.656,2.656,0,0,1,.2-1.7,2.744,2.744,0,0,0-.533,2.935,3.024,3.024,0,0,0,.173.411,5.115,5.115,0,0,0,.354.9c.07.141.145.279.219.412a8.2,8.2,0,0,1,.8,5.816c-.047.185-.1.365-.141.547a4.816,4.816,0,0,0,.9,4.644,4.863,4.863,0,0,1-3.315-6.025c.047-.15.1-.3.152-.444.04-.11.081-.22.121-.33s.081-.22.12-.33a2.324,2.324,0,0,0-.461-2.662c.534.534.356,1.246.277,1.985a2.821,2.821,0,0,1-.141.386,2.46,2.46,0,0,1-.407.638,3.57,3.57,0,0,1-.324.346,3.629,3.629,0,0,1-1.186.74,3.8,3.8,0,0,0,.35-.5,3.657,3.657,0,0,0,.253-.531,5.814,5.814,0,0,0-.276-3.82c-.064-.174-.132-.347-.2-.521a13.218,13.218,0,0,0-1.122-2.038c-.105-.169-.211-.338-.314-.509a6.1,6.1,0,0,1,1.334-8.272,5.907,5.907,0,0,1,.513-.36,8.5,8.5,0,0,1,6.187-.319q.244.1.477.215a4.781,4.781,0,0,1,1.542,1.2C257.284,705.772,257.375,705.905,257.457,706.038Z" transform="translate(-246.054 -703.784)" fill="url(#linear-gradient-9)"/>
              <path id="Path_3480" data-name="Path 3480" d="M254.614,727.982a4.362,4.362,0,0,1-1.3-1.419,4.477,4.477,0,0,1-.467-3.529c.045-.144.1-.287.146-.428q.053-.147.107-.292l.013-.035c.041-.112.082-.224.122-.335l.008-.026a2.76,2.76,0,0,0-.6-3.107.422.422,0,0,0-.562.628c.3.3.27.71.191,1.349-.011.084-.021.169-.031.254a2.392,2.392,0,0,1-.11.295,2.047,2.047,0,0,1-.335.528l-.014.016q-.04.049-.083.1a6.41,6.41,0,0,0-.376-3.745c-.062-.17-.131-.345-.209-.536a12.942,12.942,0,0,0-1.095-2.005l-.06-.1c-.106-.171-.21-.336-.311-.5a.414.414,0,0,0-.024-.035,5.673,5.673,0,0,1,1.257-7.686,5.434,5.434,0,0,1,.449-.317,9.109,9.109,0,0,1,3.477-.718,6.4,6.4,0,0,1,2.358.417c.145.057.288.121.426.191l.231.138a3.619,3.619,0,0,1,1.167.924l.013.017c.083.111.162.227.235.343A7.1,7.1,0,0,1,259.76,712c-.02.166-.046.33-.076.487-.095.233-.188.453-.278.663a10.339,10.339,0,0,0-.648,1.814,4.278,4.278,0,0,0-.079.5.432.432,0,0,0,0,.051c-.436-.815-.808-1.43-1.39-1.43a.988.988,0,0,0-.818.558c-.644.967-.236,2.1.159,3.187.063.174.127.35.187.527.067.2.116.358.155.507a.424.424,0,0,0,.047.11.739.739,0,0,1,.073.167,6.95,6.95,0,0,0-1.545-1.854l-.2-.192c-.121-.134-.227-.259-.324-.381a3.511,3.511,0,0,1-.68-1.278c0-.01-.006-.019-.009-.029a3.575,3.575,0,0,1-.138-.518,2.237,2.237,0,0,1,.165-1.434.422.422,0,0,0-.642-.519,3.145,3.145,0,0,0-.669,3.4,3.5,3.5,0,0,0,.178.429,5.587,5.587,0,0,0,.371.934c.066.132.141.273.229.431a7.813,7.813,0,0,1,.762,5.515q-.026.1-.053.2c-.03.113-.059.226-.086.339A5.959,5.959,0,0,0,254.614,727.982Z" transform="translate(-248.205 -705.914)" fill="url(#linear-gradient-10)"/>
            </g>
            <g id="Group_2177" data-name="Group 2177" transform="translate(38.183 0.562)">
              <path id="Path_3481" data-name="Path 3481" d="M440.425,711.641c-.391,2.057-2.1,2.043-2.13,4.086-.557-2.191,1.192-2.526,1.114-4.3-.225-3.468-2.893-2.419-2.669-.179.146,2.715,1.769,4.453.606,8.634-1.046,3.831-5.1,4.181-3.636,9.464-2.063-7.22,2.747-7.434,2.669-13.107-.48-5.31-2.991-2.944-3.3-1.828-1.085,3.777,1.369,5.377-.161,7.677.229-3.025-1.061-2.878-1.256-4.949-.094-1.713.195-2.1.85-3.75,1.867-3.818-.161-5.208-1.095-4.437-3.008,2.38.86,4.222-.459,8.551-1.167,4.152-4.159,3.989-4.921,7.457-.854,3.605.552,3.268.513,7.961-.166-3.441-2-4.848-1.416-8.18.465-3.459,3.567-5.478,3.591-8.373-.258-4.135-2.018-3.838-2.77-3.288-3.079,2.824,1.456,4.195-.028,7.293-.138-2.83-1-2.239-1.824-3.917-1.491-3.685.993-4.71,2.528-7.219.874-1.572-.123-.366.364-3.164a6.386,6.386,0,0,1,6.7-4.83c5.479.372,5.623,5.778,5.623,5.778a5.3,5.3,0,0,0-.07.776C439.477,709.1,440.7,709.761,440.425,711.641Z" transform="translate(-423.639 -701.224)" fill="url(#linear-gradient-11)"/>
              <path id="Path_3482" data-name="Path 3482" d="M428.241,726.648a11.77,11.77,0,0,1,1.734-3.5,8.111,8.111,0,0,0,1.736-4.282v-.035c-.21-3.361-1.4-4.067-2.359-4.067a2.077,2.077,0,0,0-1.2.41l-.022.016-.02.019a2.952,2.952,0,0,0-.763,4.046,3.662,3.662,0,0,1-.3-.507c-.979-2.434-.087-3.495,1.146-4.961a14.588,14.588,0,0,0,1.353-1.8l.011-.018c.45-.809.511-1.064.366-1.514a3.476,3.476,0,0,1,.05-1.789,5.855,5.855,0,0,1,5.661-4.455c.169,0,.344.006.519.018a5.377,5.377,0,0,1,5.16,5.254,5.555,5.555,0,0,0-.069.813v.041l.007.04a4.454,4.454,0,0,0,.621,1.477,3.037,3.037,0,0,1,.56,2.2c-.011.055-.023.109-.035.16a3.006,3.006,0,0,0,0-.315c-.13-2.005-1.039-2.716-1.848-2.716a1.64,1.64,0,0,0-1.211.578,2.621,2.621,0,0,0-.6,2.018,12.525,12.525,0,0,0,.5,2.624,9.688,9.688,0,0,1,.122,5.84,7.775,7.775,0,0,1-1.93,3.135c-.309.353-.62.708-.9,1.091a11.623,11.623,0,0,1,1.127-2.258,9.442,9.442,0,0,0,1.711-5.484v-.019l0-.019c-.226-2.507-.939-3.778-2.119-3.778a2.333,2.333,0,0,0-1.725,1.034c1.145-2.434.713-3.773.346-4.36a1.671,1.671,0,0,0-1.392-.838,1.373,1.373,0,0,0-.884.318c-1.888,1.494-1.414,2.9-.913,4.4a6.558,6.558,0,0,1,.3,4.391,7.489,7.489,0,0,1-2.553,3.838A6.97,6.97,0,0,0,428.241,726.648Zm6.819-5.7a3.292,3.292,0,0,1-.414-1.348,4.693,4.693,0,0,1,.3-2.259A7.83,7.83,0,0,0,435.06,720.948Z" transform="translate(-426.133 -703.722)" fill="url(#linear-gradient-12)"/>
            </g>
          </g>
        </g>
      </g>
      <g id="Group_2184" data-name="Group 2184" transform="translate(163.302 454.498)">
        <path id="Path_3483" data-name="Path 3483" d="M201.794,544.555a7.269,7.269,0,0,1-1.233-3.1,7.8,7.8,0,0,1,.348-3.7c.788-2.836,3.451-4.427,2.709-7.9a4.2,4.2,0,0,0-2.346-3.27,3.808,3.808,0,0,1,1.191,3.762c-.325,1.389-1.69,2.952-2.831,1.487-1.786-2.291,1.742-5.645,2.159-8.018a4.457,4.457,0,0,0-1.739-4.7,3.976,3.976,0,0,1,.881,3.82c-.51,1.447-1.994,2.025-2.458,3.588-.092-1.053.789-1.911,1.113-2.663a4.62,4.62,0,0,0,.51-2.372c-.046-1.794-1.252-3.241-.927-4.977a5.516,5.516,0,0,1,.389-1.59,4.553,4.553,0,0,1,1.142-1.447,4.948,4.948,0,0,0-2.875,3.79,5.547,5.547,0,0,0,.047,2.141c.186.695.6,1.389.232,2.141a1.975,1.975,0,0,0-1.391-2.2,2.187,2.187,0,0,1,.7,2.43c-.232.926-.742,1.736-.881,2.662a5.466,5.466,0,0,0,.371,2.72,5.7,5.7,0,0,1,.464,2.546,5.6,5.6,0,0,1-1.033,2.73c.278-.695,1.1-3.865-1.332-4.292,1.6,1.154.742,3.183.046,4.919a6.156,6.156,0,0,0-.186,4.63,7.212,7.212,0,0,0,1.391,2.662,2.283,2.283,0,0,1-1.554-1.19c-1.043-1.588.117-4.812-1.785-5.466,1.646,1.621-.278,4.051.464,6.135a6.449,6.449,0,0,0,3.736,4.221,13.117,13.117,0,0,0,5.78,1.389C202.464,545.408,201.858,544.654,201.794,544.555Z" transform="translate(-192.91 -503.714)" fill="url(#linear-gradient-13)"/>
        <path id="Path_3484" data-name="Path 3484" d="M363.181,495.954a2.513,2.513,0,0,1-.527-2.782,8.634,8.634,0,0,0,.575-4c-.222-2.481-1.045-3.787-.646-5.716a3.584,3.584,0,0,1,1.747-2.536c-2.494,3.17,1.107,4.245.842,7.552a5.385,5.385,0,0,1-.4,1.433,6.088,6.088,0,0,0,1.329-2.993,6.762,6.762,0,0,0-.109-3.126,8.865,8.865,0,0,0-2.018-4.107,9.606,9.606,0,0,1-2.1-3.526,4.471,4.471,0,0,1,1.041-4,4.786,4.786,0,0,0-.177,3.528c.4.937,1.462,1.985,2.26,1.1,1.684-1.764-1.51-3.693-1.64-6.037a3.806,3.806,0,0,1,1.33-3.445,3.64,3.64,0,0,0-.665,2.371,4.237,4.237,0,0,0,1.551,2.48,7.264,7.264,0,0,1,1.909,1.93,5.379,5.379,0,0,1,.926,2.315,3.531,3.531,0,0,1-.62,2.592,4.384,4.384,0,0,0,1.329-4.3,19.863,19.863,0,0,0-2.215-4.741,6.191,6.191,0,0,1-.842-5.239c.5-1.91,1.292-3.4,1.374-5.027a6.65,6.65,0,0,0-1.611-5.187c3.874,1.948,4.222,6.232,3.826,8.123-.215,1.026-.67,1.874-.892,2.866a2.925,2.925,0,0,0,.626,2.812c-1.019-2.205-.123-4.906,1.95-5.458-1.162.772-1.384,2.453-1.162,3.942.266,1.654,1.218,3.1,1.75,4.587,1.152,3.363-.034,5.86-2.36,8.01a3.942,3.942,0,0,0-1.241,4.024c-.141-2.646,1.728-4.686,3.545-4.521-1.861.638-2.57,3.859-1.773,5.954.753,1.93,1.4,3.86.466,6.23a7.868,7.868,0,0,1-2.371,2.867c2.747-1.643,3.944-3.749,3.5-6.781a4.366,4.366,0,0,0-.842-2.315c.421.22,3.323,3,1.817,5.954a2.631,2.631,0,0,0,.842-2.371,6.959,6.959,0,0,1-.345,6.158,4.164,4.164,0,0,1-1.286,1.461C370.6,497.035,364.659,497.2,363.181,495.954Z" transform="translate(-333.8 -454.498)" fill="url(#linear-gradient-14)"/>
        <path id="Path_3485" data-name="Path 3485" d="M322.377,551.16a2.242,2.242,0,0,1,.378-2.861c-1.237-.068-2.635,2.015-2.021,3.447-1.648-2.583-.7-4.039.129-5.346,1.028-1.613,1.928-3.052,1.5-5.185a4.23,4.23,0,0,0-1.683-2.623,3.442,3.442,0,0,1,.642,3.332c-.6,1.25-2.181.723-2.181-.694,0-1.245.871-2.453,1.333-3.5a4.4,4.4,0,0,0,.252-3.224,4.534,4.534,0,0,0-2.86-2.713,3.255,3.255,0,0,1,1.6,3.486c-.336,1.468-1.593,2.646-2.414,3.749a3.918,3.918,0,0,0-.777,4.141c.49,1.138,2.12,1.974,1.975,3.522a.937.937,0,0,1-1.369.824c-.756-.429-.55-1.4-.232-2.026-1.111.786-1.623,2.2-.985,4.081.674,1.988,2.946,2.352,3.531,3.567a1.762,1.762,0,0,1-.539,2.315,2.217,2.217,0,0,0-.27-2.423A2.777,2.777,0,0,0,316.16,552a2.429,2.429,0,0,1,.8,3.13,2.372,2.372,0,0,0,.058,2.329,2.607,2.607,0,0,1,.315,1.768,1.659,1.659,0,0,1-.771,1.021c.72-.309,4.333.185,6.185-3.908a5.751,5.751,0,0,0-.371-5.179Z" transform="translate(-295.119 -518.998)" fill="url(#linear-gradient-15)"/>
        <path id="Path_3486" data-name="Path 3486" d="M391.189,490.751c0-2.313,1.141-3.415,1.473-4.945a6.81,6.81,0,0,0-.63-4.369c-.812-1.764-1.533-2.787-2.145-4.355-.854-2.187.078-4.177.714-6.182.56-1.764,1.086-4.512-.066-5.811a5.956,5.956,0,0,1,1.873,6.2c-.42,1.846-1.341,3.1-.665,5.017a3.458,3.458,0,0,0,1.424,1.874c-.432-1.2-1.485-3.709.118-5.239-1.384,2.263.94,5.389,1.6,7.456a6.692,6.692,0,0,1-1.645,6.654C392.416,487.977,391.189,488.962,391.189,490.751Z" transform="translate(-357.003 -463.336)" fill="url(#linear-gradient-16)"/>
        <path id="Path_3487" data-name="Path 3487" d="M205.833,555.747a6.326,6.326,0,0,1-2.687-4.065,8.329,8.329,0,0,1,1.276-5.589c.747-1.392,2.9-4.092,1.738-6.927.45,3.43-2.015,5.119-3.388,3.829-1.022-.96-1.149-2.189-.513-4.169.586-1.824,3-3.681,2.463-6.588.283,2.855-2.6,3.254-3.2,5.886-.72-2.154.629-3.241,1-4.456a5,5,0,0,0,.032-3.7c-.549-1.852-1.133-3.031-.43-4.115-1.182,1.193-1.1,2.9-.556,4.578.4,1.238-.395,2.2-1.089,3.588-1.23,2.46.864,3.486.436,6.454-.217,1.508-3.118,4.895-1.758,8.824a6.21,6.21,0,0,0,.9,1.852c-1.938.431-3.276-2.29-3.09-4.547a6.23,6.23,0,0,0,1.517,6.091,8.963,8.963,0,0,0,3.808,2.322A35.969,35.969,0,0,0,205.833,555.747Z" transform="translate(-196.098 -514.041)" fill="url(#linear-gradient-17)"/>
        <path id="Path_3488" data-name="Path 3488" d="M365.224,574.542a8.523,8.523,0,0,0,.31-5.734,7.029,7.029,0,0,1-.068-4.866c-.729,2.009.733,2.987,1.353,4.946a4.081,4.081,0,0,1-.2,3.118c1.445-.669,2.154-2.839,2.2-4.989a8.423,8.423,0,0,0-1.766-5.513c-.709-1.047-2.4-2.232-2.643-4.493.572,2.564,2.9,3.2,3.567,1.544,1.306-3.267-2.3-3.916-1.915-6.34.669,2.756,4.153,2.316,3.554,6.56-.125.884-.487,1.709-.532,2.592a11.5,11.5,0,0,0,.089,2.48,23.21,23.21,0,0,1,.4,5.238,7.8,7.8,0,0,1-2.482,5.182c-1.462,1.378-1.722,2.012-1.178,3.281-.465-2.4,1.493-2.853,2.633-4.329,1.177-1.524,2.2-2.784,2.2-5.485,0-1.55-.128-4.186,1.116-4.962-1.193,1.688.727,4.265.551,6.912a7.172,7.172,0,0,1-2.162,5.356c-.682.772-.523,1.831.346,1.831.931.122,1.967-.911,2.484-1.7a8.123,8.123,0,0,0,1.239-3.887c.786,1.654,1.315,3.153-.5,5.854-.925.9-1.907,1.051-3.844,1.158C367.271,578.449,363.928,577.7,365.224,574.542Z" transform="translate(-336.023 -536.043)" fill="url(#linear-gradient-18)"/>
        <path id="Path_3489" data-name="Path 3489" d="M325.407,571.68c-.349-.856-1.2-1.439-.832-2.935a3.327,3.327,0,0,0-.719,2.456,7.287,7.287,0,0,0,.415,1.609,5.925,5.925,0,0,1-2.058-3.746,6.284,6.284,0,0,1,1.1-3.74,3.446,3.446,0,0,0,.492-2.488,1.041,1.041,0,0,1-1.293,1.171c-.81-.242-1.069-1.189-1.136-1.941-.141-1.547.807-2.9,1.333-4.355a2.9,2.9,0,0,0,.091-2.565,3.334,3.334,0,0,1-.91,2.682c-.572.844-1.493,1.393-1.893,2.3a2.767,2.767,0,0,0,.168,2.871,6.361,6.361,0,0,1,1.555,2.865,1.563,1.563,0,0,1-2.831,1.126c-.478,2.489,1.448,3.236,2.683,4.312.936.816,1.574,1.922.9,3.184A2.154,2.154,0,0,1,321,575.57c.846-1.565.379-2.748-.663-3.218,1.119,1.857-.864,2.764.039,4.617.78,1.6-.089,2.363-.089,2.363C322.177,579.53,327.359,576.462,325.407,571.68Z" transform="translate(-297.98 -538.49)" fill="url(#linear-gradient-19)"/>
        <g id="Group_2181" data-name="Group 2181" transform="translate(54.655 19.82)">
          <path id="Path_3490" data-name="Path 3490" d="M530.209,597.989a8.712,8.712,0,0,1-3.241-.891c-3-1.546-3.484-4.418-2.026-7.222.364-.67.882-1.329,1.336-2.012q.113-.171.22-.343a4.792,4.792,0,0,0,.5-3.56,2.089,2.089,0,0,0-.216-.315,2.648,2.648,0,0,0-.292-.3c-.109-.1-.226-.189-.351-.28s-.256-.18-.391-.268c.146.04.3.084.451.132s.308.1.463.161.3.135.45.21a2.881,2.881,0,0,1,1.719,2.977,6.055,6.055,0,0,0,1.69-4.919,11.545,11.545,0,0,0-2.658-6.024c.271.111.547.218.82.328.137.055.273.11.407.166,3.978,1.372,5.375,5.653,4.649,8.846a9.262,9.262,0,0,1-1.034,2.865c-.816,1.663-2.141,2.4-3.132,3.42a7.031,7.031,0,0,0-.794,1.186,1.794,1.794,0,0,0,.612,1.928,3.384,3.384,0,0,1,.883-1.618c.09-.1.186-.2.289-.312a5.326,5.326,0,0,1,1.693-1.229c.113-.062.229-.124.348-.186l.376-.193c.81-.413,1.827-1.229,1.846-2.067.013-.577-.132-1.537-.62-1.671.325-.134,1.8.878,1.58,2.566-.253,1.947-4.208,3.562-2.076,5.033,1.01.735,2.357-.138,2.861-.919a2.762,2.762,0,0,0-.224-2.941,3.082,3.082,0,0,1,1.318,3.334C537.434,594.9,535.945,598.116,530.209,597.989Z" transform="translate(-523.988 -575.156)" fill="url(#linear-gradient-20)"/>
          <path id="Path_3491" data-name="Path 3491" d="M529.454,597.279c-2.6-.152-5.767-1.674-6.214-4.516a6.4,6.4,0,0,1,.894-4.2,24.058,24.058,0,0,0,1.69-2.752,2.906,2.906,0,0,0-.964-3.779c-.12-.08-.151-.37.056-.311,1.614.456,3.7,1.734,3.27,3.749l-.305-.25a6.44,6.44,0,0,0,1.408-6.123,10.862,10.862,0,0,0-1.473-3.375c-.276-.429-.656-.8-.913-1.238-.085-.146.018-.271.172-.209,1.859.751,3.475,1.433,4.7,3.1a8.266,8.266,0,0,1,1.5,4.823,10.07,10.07,0,0,1-1.561,5.158,9.39,9.39,0,0,1-2.036,2.135c-1.134.976-2.27,2.129-1,3.594l-.283,0a5.358,5.358,0,0,1,2.38-2.958c.641-.42,1.369-.675,2-1.12a3.158,3.158,0,0,0,.947-1.069c.241-.439.127-1.622-.369-1.878-.08-.042-.251-.309-.07-.34.565-.1,1.175.562,1.43.988a2.606,2.606,0,0,1,.055,2.774c-.574.97-1.574,1.608-2.162,2.569a.85.85,0,0,0,.169,1.176,1.626,1.626,0,0,0,2.1-.058,2.436,2.436,0,0,0,.508-3.484c-.11-.164.073-.3.215-.181a3.569,3.569,0,0,1,.73,5.034c-1.51,2.208-4.381,2.765-6.879,2.739-.182,0-.35-.372-.118-.37,2.25.023,4.589-.4,6.221-2.069a4.755,4.755,0,0,0,.983-1.518,3.016,3.016,0,0,0-1.081-3.552l.215-.18a2.779,2.779,0,0,1-.527,3.9,1.951,1.951,0,0,1-2.929-.5c-.506-.829.472-1.765.98-2.3a7.905,7.905,0,0,0,1.452-1.811,2.168,2.168,0,0,0-.1-1.876c-.143-.3-.657-.99-1.062-.921l-.07-.34c1.193.616.822,2.387.1,3.185a9.154,9.154,0,0,1-2.468,1.524,4.976,4.976,0,0,0-2.3,2.82c-.04.151-.208.09-.283,0a2.11,2.11,0,0,1-.672-2.112,4.429,4.429,0,0,1,1.218-1.628A15.145,15.145,0,0,0,531.4,587.1a9.088,9.088,0,0,0,1.206-2.8,8.325,8.325,0,0,0-.556-5.917c-1.059-2.115-2.966-2.945-5.035-3.78l.172-.209c.326.556.8,1.042,1.138,1.6a11.627,11.627,0,0,1,1.442,3.819,6.428,6.428,0,0,1-1.621,5.734c-.119.134-.331-.128-.3-.25.381-1.765-1.493-2.815-2.9-3.211q.029-.156.056-.311a2.81,2.81,0,0,1,1.495,2.85c-.086,1.882-1.563,3.183-2.352,4.771a4.961,4.961,0,0,0,.244,5.226,6.861,6.861,0,0,0,4.945,2.293C529.516,596.92,529.683,597.292,529.454,597.279Z" transform="translate(-523.173 -574.261)" fill="url(#linear-gradient-21)"/>
        </g>
        <g id="Group_2182" data-name="Group 2182" transform="translate(8.795 18.834)">
          <path id="Path_3492" data-name="Path 3492" d="M257.457,589.069a7.515,7.515,0,0,0,.572-3.879q-.034-.282-.089-.559a16.6,16.6,0,0,1-.92-2.446,3.85,3.85,0,0,1-.071-.453c.021-.215.031-.368.037-.509-.173-.456.183-.99.361-1.525-1.068.89-1.78,4.095-2.67,2.671-.623-.935-.035-2.112.387-3.354.06-.178.117-.356.164-.535a1.435,1.435,0,0,0-.373-1.808c0,1.424-1.068,2.314-1.966,3.175-.122.135-.24.272-.352.414a4.935,4.935,0,0,0-.911,2.01,2.656,2.656,0,0,0,.2,1.7,2.744,2.744,0,0,1-.533-2.935,3.032,3.032,0,0,1,.173-.411,5.1,5.1,0,0,1,.354-.9c.07-.142.145-.279.219-.412a8.2,8.2,0,0,0,.8-5.816c-.047-.185-.1-.365-.141-.547a4.816,4.816,0,0,1,.9-4.644,4.863,4.863,0,0,0-3.315,6.025c.047.15.1.3.152.444.04.11.081.22.121.33s.081.22.12.33a2.324,2.324,0,0,1-.461,2.662c.534-.534.356-1.246.277-1.985a2.817,2.817,0,0,0-.141-.386,2.459,2.459,0,0,0-.407-.638,3.549,3.549,0,0,0-.324-.346,3.629,3.629,0,0,0-1.186-.74,3.817,3.817,0,0,1,.35.5,3.67,3.67,0,0,1,.253.531,5.814,5.814,0,0,1-.276,3.82c-.064.174-.132.347-.2.522a13.232,13.232,0,0,1-1.122,2.038c-.105.169-.211.337-.314.509a6.1,6.1,0,0,0,1.334,8.272,5.907,5.907,0,0,0,.513.36,8.5,8.5,0,0,0,6.187.319q.244-.1.477-.215a4.782,4.782,0,0,0,1.542-1.195C257.284,589.336,257.375,589.2,257.457,589.069Z" transform="translate(-246.054 -568.306)" fill="url(#linear-gradient-22)"/>
          <path id="Path_3493" data-name="Path 3493" d="M254.8,595.692a9.11,9.11,0,0,1-3.477-.718,5.463,5.463,0,0,1-.449-.317,5.673,5.673,0,0,1-1.257-7.686c.008-.011.016-.023.024-.035.1-.168.2-.333.308-.5l.063-.1a12.947,12.947,0,0,0,1.1-2.01c.076-.186.145-.362.208-.533a6.41,6.41,0,0,0,.376-3.745q.043.048.083.1l.014.016a2.05,2.05,0,0,1,.335.528,2.4,2.4,0,0,1,.111.3c.009.085.02.17.031.255.079.639.113,1.045-.191,1.349a.422.422,0,0,0,.562.629,2.76,2.76,0,0,0,.6-3.107l-.008-.026c-.04-.112-.081-.223-.122-.334l-.013-.035q-.054-.145-.107-.292c-.051-.142-.1-.284-.146-.428a4.477,4.477,0,0,1,.467-3.53,4.36,4.36,0,0,1,1.3-1.419,5.96,5.96,0,0,0-.168,3.794c.027.112.056.225.086.338q.027.1.053.2a7.808,7.808,0,0,1-.757,5.506c-.093.166-.168.307-.234.439a5.573,5.573,0,0,0-.371.934,3.5,3.5,0,0,0-.178.43,3.144,3.144,0,0,0,.669,3.4.422.422,0,0,0,.642-.519,2.237,2.237,0,0,1-.165-1.434,3.577,3.577,0,0,1,.138-.518c0-.01.006-.019.009-.029a3.513,3.513,0,0,1,.68-1.278c.1-.122.2-.247.324-.381l.2-.192a6.952,6.952,0,0,0,1.545-1.854.737.737,0,0,1-.073.166.421.421,0,0,0-.047.11c-.039.149-.089.31-.155.507-.06.177-.124.353-.187.527-.395,1.092-.8,2.221-.152,3.2a.978.978,0,0,0,.811.548h0c.582,0,.954-.616,1.39-1.43a.432.432,0,0,0,0,.051,4.269,4.269,0,0,0,.079.5,10.339,10.339,0,0,0,.648,1.815c.09.211.183.431.278.663.031.158.056.322.076.488a7.1,7.1,0,0,1-.527,3.632c-.073.116-.152.232-.235.343l-.013.018a3.62,3.62,0,0,1-1.168.924c-.081.048-.159.094-.231.138-.137.07-.28.134-.426.191a6.4,6.4,0,0,1-2.358.417Z" transform="translate(-248.205 -573.096)" fill="url(#linear-gradient-23)"/>
        </g>
        <g id="Group_2183" data-name="Group 2183" transform="translate(38.183 10.578)">
          <path id="Path_3494" data-name="Path 3494" d="M439.243,543.543a5.3,5.3,0,0,0,.07.777s-.145,5.406-5.623,5.778a6.386,6.386,0,0,1-6.7-4.83c-.488-2.8.51-1.592-.364-3.164-1.536-2.509-4.019-3.534-2.528-7.219.825-1.678,1.686-1.087,1.824-3.917,1.484,3.1-3.051,4.469.028,7.293.752.55,2.512.847,2.77-3.288-.024-2.9-3.126-4.914-3.591-8.373-.583-3.332,1.25-4.739,1.416-8.18.039,4.693-1.367,4.356-.513,7.961.762,3.468,3.754,3.305,4.921,7.458,1.319,4.328-2.549,6.171.459,8.551.933.771,2.962-.619,1.095-4.437-.655-1.653-.944-2.036-.85-3.749.2-2.07,1.485-1.923,1.256-4.949,1.529,2.3-.925,3.9.161,7.676.313,1.116,2.824,3.482,3.3-1.828.078-5.673-4.731-5.887-2.669-13.107-1.466,5.283,2.59,5.633,3.636,9.464,1.163,4.181-.46,5.919-.606,8.635-.225,2.24,2.444,3.289,2.669-.179.078-1.775-1.671-2.11-1.114-4.3.029,2.043,1.739,2.03,2.13,4.086C440.7,541.58,439.477,542.239,439.243,543.543Z" transform="translate(-423.639 -518.419)" fill="url(#linear-gradient-24)"/>
          <path id="Path_3495" data-name="Path 3495" d="M435.631,593.88a5.923,5.923,0,0,1-5.661-4.455,3.475,3.475,0,0,1-.05-1.789c.145-.45.084-.7-.366-1.514l-.011-.018a14.59,14.59,0,0,0-1.353-1.8c-1.233-1.466-2.124-2.527-1.146-4.961a3.679,3.679,0,0,1,.3-.508,2.952,2.952,0,0,0,.763,4.046l.02.019.022.016a2.077,2.077,0,0,0,1.2.41c.96,0,2.149-.706,2.359-4.067v-.035a8.11,8.11,0,0,0-1.736-4.282,11.791,11.791,0,0,1-1.732-3.491,6.977,6.977,0,0,0,2.18,2.948,7.48,7.48,0,0,1,2.55,3.827,6.566,6.566,0,0,1-.292,4.4c-.5,1.493-.975,2.9.921,4.4a1.366,1.366,0,0,0,.876.311,1.671,1.671,0,0,0,1.392-.838c.366-.587.8-1.926-.346-4.359a2.332,2.332,0,0,0,1.724,1.033c1.18,0,1.892-1.271,2.119-3.778l0-.019v-.019a9.442,9.442,0,0,0-1.711-5.484,11.619,11.619,0,0,1-1.127-2.258c.283.383.594.738.9,1.091a7.776,7.776,0,0,1,1.929,3.132,9.69,9.69,0,0,1-.121,5.843,12.524,12.524,0,0,0-.5,2.624,2.621,2.621,0,0,0,.6,2.018,1.641,1.641,0,0,0,1.21.578c.808,0,1.718-.711,1.847-2.706a3.063,3.063,0,0,0,0-.329c.013.053.025.108.036.165a3.037,3.037,0,0,1-.56,2.2,4.452,4.452,0,0,0-.621,1.477l-.007.04v.041a5.57,5.57,0,0,0,.069.812,5.4,5.4,0,0,1-5.16,5.255C435.975,593.874,435.8,593.88,435.631,593.88Zm-.68-13.123a4.691,4.691,0,0,1-.305-2.26,3.293,3.293,0,0,1,.414-1.348A7.832,7.832,0,0,0,434.952,580.757Z" transform="translate(-426.133 -562.678)" fill="url(#linear-gradient-25)"/>
        </g>
      </g>
    </g>
  </g>
</svg>
