<svg xmlns="http://www.w3.org/2000/svg" xmlns:xlink="http://www.w3.org/1999/xlink" width="80.138" height="50.328" viewBox="0 0 80.138 50.328">
  <defs>
    <clipPath id="clip-path">
      <path id="Path_2554" data-name="Path 2554" d="M615.265,214.544a.79.79,0,0,0,.558-1.363c-2.918-2.762-6.6-5.878-9.042-6.789a113,113,0,0,0-19.372-1.9,44.713,44.713,0,0,0-12.953,1.576.787.787,0,0,0-.549.744,34.757,34.757,0,0,0,.5,7.055.782.782,0,0,0,.768.595c2.273-.01,9.851-.04,18.1-.04C604.7,214.418,611.355,214.47,615.265,214.544Z" transform="translate(-573.904 -204.488)" fill="none"/>
    </clipPath>
    <clipPath id="clip-path-2">
      <path id="Path_2555" data-name="Path 2555" d="M556.35,209.9s.654-3.867-.817-4.249c0,0-1.165-.224-1.362.054a31.3,31.3,0,0,0-4.739,10.73s3.1,1.961,4.466.926S556.35,209.9,556.35,209.9Z" transform="translate(-549.433 -205.564)" fill="none"/>
    </clipPath>
    <clipPath id="clip-path-3">
      <path id="Path_2556" data-name="Path 2556" d="M548.51,207.8a13.853,13.853,0,0,0-6.173,8.751s2.4.908,2.651.69,2.034-6.5,3.7-8.9C548.691,208.347,549.127,207.694,548.51,207.8Z" transform="translate(-542.337 -207.791)" fill="none"/>
    </clipPath>
    <clipPath id="clip-path-4">
      <path id="Path_2572" data-name="Path 2572" d="M595.835,275.783c12.972.336,35.8.719,45.582-.366l.1-.2a2.027,2.027,0,0,0-.109-1.49,9.067,9.067,0,0,0-.928-1.883l-.052-.022c-.27-.057-.819-9.482-5.394-10.514,0,0-9-3.578-10.218-3.015s-12.419.074-12.419.074-10.606,1.451-13.072,5.665c0,0-2.741,5.229-2.906,8.009Z" transform="translate(-595.835 -258.232)" fill="none"/>
    </clipPath>
  </defs>
  <g id="Group_1788" data-name="Group 1788" transform="translate(-524.558 -198.207)">
    <g id="Group_1761" data-name="Group 1761" transform="translate(525.581 223.813)">
      <g id="Group_1757" data-name="Group 1757" transform="translate(39.946 6.28)">
        <ellipse id="Ellipse_233" data-name="Ellipse 233" cx="5.579" cy="7.656" rx="5.579" ry="7.656" fill="#3d4039"/>
        <path id="Path_2533" data-name="Path 2533" d="M619.694,281.522c0,3.4,1.281,6.151,2.861,6.151s2.86-2.754,2.86-6.151-1.281-6.152-2.86-6.152S619.694,278.124,619.694,281.522Z" transform="translate(-619.527 -273.892)" fill="#d6e3dd"/>
      </g>
      <g id="Group_1758" data-name="Group 1758" transform="translate(0)">
        <path id="Path_2534" data-name="Path 2534" d="M526.923,268.863c0,6.316,1.949,11.436,4.352,11.436s4.352-5.12,4.352-11.436-1.948-11.436-4.352-11.436S526.923,262.547,526.923,268.863Z" transform="translate(-526.923 -257.427)" fill="#3d4039"/>
        <path id="Path_2535" data-name="Path 2535" d="M528.808,274.394c0,4.226.767,7.651,1.714,7.651s1.714-3.425,1.714-7.651-.768-7.651-1.714-7.651S528.808,270.169,528.808,274.394Z" transform="translate(-527.993 -262.715)" fill="#d6e3dd"/>
        <path id="Path_2536" data-name="Path 2536" d="M529.06,278.289c0,2.833.515,5.129,1.149,5.129s1.149-2.3,1.149-5.129-.515-5.129-1.149-5.129S529.06,275.456,529.06,278.289Z" transform="translate(-528.136 -266.357)" fill="#3d4039"/>
        <path id="Path_2537" data-name="Path 2537" d="M530.063,282.168c0,1.549.281,2.8.628,2.8s.628-1.256.628-2.8-.281-2.8-.628-2.8S530.063,280.62,530.063,282.168Z" transform="translate(-528.705 -269.879)" fill="#3d4039"/>
        <path id="Path_2538" data-name="Path 2538" d="M529.11,278.708c0,1.868.542,3.383,1.21,3.383s1.21-1.515,1.21-3.383-.542-3.383-1.21-3.383S529.11,276.839,529.11,278.708Z" transform="translate(-528.164 -267.586)" fill="#3d4039"/>
      </g>
      <g id="Group_1759" data-name="Group 1759" transform="translate(63.011 2.932)">
        <ellipse id="Ellipse_234" data-name="Ellipse 234" cx="7.939" cy="10.895" rx="7.939" ry="10.895" fill="#3d4039"/>
        <path id="Path_2539" data-name="Path 2539" d="M675.578,278.339c0,5.1,2.137,9.229,4.774,9.229s4.774-4.132,4.774-9.229-2.138-9.23-4.774-9.23S675.578,273.241,675.578,278.339Z" transform="translate(-674.312 -266.99)" fill="#d6e3dd"/>
        <path id="Path_2540" data-name="Path 2540" d="M678.19,283.52c0,3.453,1.242,6.253,2.773,6.253s2.773-2.8,2.773-6.253-1.241-6.253-2.773-6.253S678.19,280.067,678.19,283.52Z" transform="translate(-675.795 -271.62)" fill="#3d4039"/>
      </g>
      <g id="Group_1760" data-name="Group 1760" transform="translate(0.861 2.786)">
        <ellipse id="Ellipse_235" data-name="Ellipse 235" cx="7.234" cy="10.895" rx="7.234" ry="10.895" transform="translate(11.292)" fill="#3d4039"/>
        <path id="Path_2541" data-name="Path 2541" d="M557.587,278.776c0,4.277,1.57,7.744,3.507,7.744s3.507-3.467,3.507-7.744-1.57-7.744-3.507-7.744S557.587,274.5,557.587,278.776Z" transform="translate(-545.189 -267.936)" fill="#d6e3dd"/>
        <path id="Path_2542" data-name="Path 2542" d="M558.628,280.808c0,3.4,1.25,6.165,2.791,6.165s2.792-2.76,2.792-6.165-1.25-6.165-2.792-6.165S558.628,277.4,558.628,280.808Z" transform="translate(-545.78 -269.985)" fill="#3d4039"/>
        <path id="Path_2543" data-name="Path 2543" d="M559.32,279.932l-1.326.408.033-2.074,1.084-.177-.917-1.194.4-1.907.939,1.394a3.046,3.046,0,0,1,.786-1.363l.182-2.808,1.672.033-.5,2.842a3.483,3.483,0,0,1,.785,1.541l1.52-1.607.4,2.141-1.672,1.425c0,.008,0,.016,0,.023,0,.122,0,.242-.008.361l1.747-.137v1.773l-1.955-.134c-.009.037-.02.072-.03.109l1.852,1.6-.669,1.706-1.725-2.047a2.083,2.083,0,0,1-.244.295l.537,3.705-2.026.08.061-3.778a2.246,2.246,0,0,1-.34-.444l-1.35,1.621-.468-2.108,1.287-.952C559.359,280.151,559.339,280.043,559.32,279.932Z" transform="translate(-545.42 -268.604)" fill="#d6e3dd"/>
        <path id="Path_2544" data-name="Path 2544" d="M529.52,276.965l-.543.385-.063-2.423.528.429-.48-2.064.2-2.3.466,1.685c.1-.735.333-4.518.333-4.518l.882.048s.147,3.951.237,4.768l.755-1.942.2,2.588s-1.087,2.222-1.09,2.366l1.123-.345v2.143l-.971-.162a14.107,14.107,0,0,0,.76,2.089l-.5,1.824-.894-3.261c-.038.135.345,3.845.345,3.845l-.846-.2-.089-3.482a19.274,19.274,0,0,0-.367,2.164l-.4-2.191S529.529,277.1,529.52,276.965Z" transform="translate(-528.914 -266.303)" fill="#d6e3dd"/>
      </g>
    </g>
    <path id="Path_2545" data-name="Path 2545" d="M525.6,236.491s-.586-11.271.993-10.126c0,0,1.963,1.837,1.854,6.973,0,0-.112,6.155,2.449,6.644l7.168.718a15.732,15.732,0,0,1,1.124-9.792s.183-9.01,2.793-5.359a5.032,5.032,0,0,1,.455,1.024,29.808,29.808,0,0,1,2.112,12.026l.014.048c.026.115.109.418.243.8l.006.017a5.466,5.466,0,0,0,1.119,1.966s3.783.134,9.443.28c12.97.335,35.8.719,45.581-.366.933-.1,1.745-.22,2.421-.349a10.764,10.764,0,0,0,1.153-2.664,4.2,4.2,0,0,0,.152-1.4s-.034-9.914-2.538-13.943c0,0,.217-5.883-5.231-7.517,0,0-1.227-1.164-3.044-2.836-4.464-4.115-12.481-11.3-14.493-11.763a87.283,87.283,0,0,0-34.751-1.634s-5.808-.509-10.532,5.666a22.156,22.156,0,0,0-1.986,3.282,16.425,16.425,0,0,0-1.642,5.107s-.012.015-.037.04a23.17,23.17,0,0,0-2.721,3.411c-.423.976-1.453,5.949-1.925,8.095C525.783,224.84,523.15,233.169,525.6,236.491Z" transform="translate(0 0)" fill="#278a9c"/>
    <path id="Path_2546" data-name="Path 2546" d="M538.279,213.317a41.6,41.6,0,0,0,10.906,3.279.071.071,0,0,1,.025.008c.134.07,4.38.489,6.865-1.247a.074.074,0,0,0,0-.124c-.492-.3-2.7-1.724-2.462-3a.077.077,0,0,1,.076-.061l47.758.464a.072.072,0,0,0,.052-.124c-4.487-4.132-12.363-11.173-14.356-11.635A87.277,87.277,0,0,0,552.4,199.24c-.006,0-5.861-.512-10.54,5.666a20.262,20.262,0,0,0-3.623,8.334A.074.074,0,0,0,538.279,213.317Z" transform="translate(-7.764 -0.001)" fill="#fff"/>
    <g id="Group_1770" data-name="Group 1770" transform="translate(530.508 199.616)">
      <path id="Path_2547" data-name="Path 2547" d="M682.094,228.562l1.346,1.2.872-.292-.218-1.159a3.6,3.6,0,0,0-4.284-1.891Z" transform="translate(-618.632 -215.543)" fill="#111"/>
      <path id="Path_2548" data-name="Path 2548" d="M685.235,231.157l1.285,1.158s.877-.062.872-.292a2.453,2.453,0,0,0-.224-1.148C686.777,230.5,685.235,231.157,685.235,231.157Z" transform="translate(-621.711 -218.093)"/>
      <path id="Path_2549" data-name="Path 2549" d="M545.467,204.3s5.719-4.23,5.61.454c0,0-1.008,12.176-3,14.136,0,0-8.475-1.663-9.718-3.041C537.906,215.353,541.815,206.387,545.467,204.3Z" transform="translate(-538.319 -202.08)" fill="#434443"/>
      <path id="Path_2550" data-name="Path 2550" d="M556.35,209.9s.654-3.867-.817-4.249c0,0-1.165-.224-1.362.054a31.3,31.3,0,0,0-4.739,10.73s3.1,1.961,4.466.926S556.35,209.9,556.35,209.9Z" transform="translate(-544.628 -203.792)" fill="#d6e3dd"/>
      <path id="Path_2551" data-name="Path 2551" d="M548.51,207.8a13.853,13.853,0,0,0-6.173,8.751s2.4.908,2.651.69,2.034-6.5,3.7-8.9C548.691,208.347,549.127,207.694,548.51,207.8Z" transform="translate(-540.6 -205.056)" fill="#d6e3dd"/>
      <path id="Path_2552" data-name="Path 2552" d="M605.347,203.4c-1.434-.281-21.948-4.192-33.828-.019a.915.915,0,0,0-.607.847c-.051,2.37-.09,10.574,1.87,9.827,0,0,34.25-.166,43.712.156a.923.923,0,0,0,.687-1.571c-2.715-2.742-8.124-7.888-11.681-9.2A.994.994,0,0,0,605.347,203.4Z" transform="translate(-556.811 -201.465)" fill="#434443"/>
      <path id="Path_2553" data-name="Path 2553" d="M615.265,214.544a.79.79,0,0,0,.558-1.363c-2.918-2.762-6.6-5.878-9.042-6.789a113,113,0,0,0-19.372-1.9,44.713,44.713,0,0,0-12.953,1.576.787.787,0,0,0-.549.744,34.757,34.757,0,0,0,.5,7.055.782.782,0,0,0,.768.595c2.273-.01,9.851-.04,18.1-.04C604.7,214.418,611.355,214.47,615.265,214.544Z" transform="translate(-558.518 -203.181)" fill="#d6e3dd"/>
      <g id="Group_1764" data-name="Group 1764" transform="translate(15.386 1.307)">
        <g id="Group_1763" data-name="Group 1763" clip-path="url(#clip-path)">
          <g id="Group_1762" data-name="Group 1762" transform="translate(1.858 -4.265)" opacity="0.47">
            <rect id="Rectangle_1308" data-name="Rectangle 1308" width="2.235" height="25.478" transform="translate(26.435 19.134) rotate(138.677)" fill="#fff"/>
            <rect id="Rectangle_1309" data-name="Rectangle 1309" width="5.817" height="25.478" transform="matrix(-0.751, 0.66, -0.66, -0.751, 21.192, 19.406)" fill="#fff"/>
          </g>
        </g>
      </g>
      <g id="Group_1767" data-name="Group 1767" transform="translate(4.805 1.773)">
        <g id="Group_1766" data-name="Group 1766" clip-path="url(#clip-path-2)">
          <g id="Group_1765" data-name="Group 1765" transform="translate(0.142 -0.714)" opacity="0.44">
            <rect id="Rectangle_1310" data-name="Rectangle 1310" width="2.17" height="13.21" transform="translate(9.451 12.254) rotate(158.068)" fill="#fff"/>
            <rect id="Rectangle_1311" data-name="Rectangle 1311" width="1.211" height="13.21" transform="translate(6.057 12.471) rotate(158.068)" fill="#fff"/>
          </g>
        </g>
      </g>
      <g id="Group_1769" data-name="Group 1769" transform="translate(1.737 2.735)">
        <g id="Group_1768" data-name="Group 1768" clip-path="url(#clip-path-3)">
          <rect id="Rectangle_1312" data-name="Rectangle 1312" width="1.03" height="7.436" transform="matrix(-0.939, 0.343, -0.343, -0.939, 5.478, 7.419)" fill="#fff" opacity="0.47"/>
          <rect id="Rectangle_1313" data-name="Rectangle 1313" width="2.185" height="8.287" transform="matrix(-0.954, 0.299, -0.299, -0.954, 4.093, 9.185)" fill="#fff" opacity="0.47"/>
        </g>
      </g>
      <path id="Path_2557" data-name="Path 2557" d="M550.428,229.114l-.458,1.307s-7.462.854-9.4-1.525c0,0-.508-5.41,7.553-3.595.885.2.036,3.631.036,3.631A5.183,5.183,0,0,0,550.428,229.114Z" transform="translate(-539.59 -214.783)" fill="#111"/>
    </g>
    <g id="Group_1774" data-name="Group 1774" transform="translate(524.592 212.169)">
      <path id="Path_2558" data-name="Path 2558" d="M528.091,263.413s-.8-2.565-1.4,1.131-.134,7.481.067,7.481S526.646,267.971,528.091,263.413Z" transform="translate(-525.634 -248.688)" fill="#111"/>
      <path id="Path_2559" data-name="Path 2559" d="M562.045,261.808s-1.831.459-3.662,3.712c0,0-.308-6.333,1.506-6.333C559.89,259.188,561.306,259.1,562.045,261.808Z" transform="translate(-543.781 -246.782)" fill="#111"/>
      <path id="Path_2560" data-name="Path 2560" d="M525.694,272.039s-.56-10.774.947-10.148c0,0,.8.561,1.584,3.406,0,0,.4-2.825-1.181-4.264a.938.938,0,0,0-1.531.479C524.909,263.915,523.8,269.476,525.694,272.039Z" transform="translate(-524.638 -247.694)" fill="#fff"/>
      <path id="Path_2561" data-name="Path 2561" d="M558.137,274.185" transform="translate(-543.652 -255.294)" fill="none" stroke="#e59c0a" stroke-miterlimit="10" stroke-width="1"/>
      <path id="Path_2562" data-name="Path 2562" d="M561.9,240.907" transform="translate(-545.791 -236.405)" fill="none" stroke="#e59c0a" stroke-miterlimit="10" stroke-width="1"/>
      <path id="Path_2563" data-name="Path 2563" d="M595.835,275.783c12.972.336,35.8.719,45.582-.366l.1-.2a2.027,2.027,0,0,0-.109-1.49,9.067,9.067,0,0,0-.928-1.883l-.052-.022c-.27-.057-.819-9.482-5.394-10.514,0,0-9-3.578-10.218-3.015s-12.419.074-12.419.074-10.606,1.451-13.072,5.665c0,0-2.741,5.229-2.906,8.009Z" transform="translate(-565.05 -246.24)" fill="#434443"/>
      <path id="Path_2564" data-name="Path 2564" d="M579.366,266.73s-3.1,8.116,0,10.022c0,0,4.957,2.178,5.229-3.7C584.69,271,582.2,269.563,579.366,266.73Z" transform="translate(-554.919 -251.063)" fill="#3d4039"/>
      <path id="Path_2565" data-name="Path 2565" d="M579.081,266.478s-3.322,7.816.082,10.131c0,0,4.957,2.178,5.229-3.7C584.487,270.857,581.914,269.311,579.081,266.478Z" transform="translate(-554.716 -250.92)" fill="#fff"/>
      <path id="Path_2566" data-name="Path 2566" d="M579.043,266.478s-3.241,7.789-.136,9.7c0,0,4.757,2.451,5.03-3.431C584.031,270.694,581.839,270.036,579.043,266.478Z" transform="translate(-554.678 -250.92)" fill="#3d4039"/>
      <path id="Path_2567" data-name="Path 2567" d="M702.856,267.432c.155,1.252,1.031,8.476.658,9.048,0,0-2.042,1.661-3.3-.218-1.228-1.842.344-6.614,2.484-8.88A.089.089,0,0,1,702.856,267.432Z" transform="translate(-624.055 -251.417)" fill="#fff"/>
      <path id="Path_2568" data-name="Path 2568" d="M702.39,270.338a51.785,51.785,0,0,1,.524,7.465.392.392,0,0,1-.166.242c-.445.313-2.105,1.314-3.182-.3-1.132-1.7.194-5.318,2.087-7.629A.42.42,0,0,1,702.39,270.338Z" transform="translate(-623.692 -252.899)" fill="#3d4039"/>
      <path id="Path_2569" data-name="Path 2569" d="M623.987,235.143s-46.987-3.5-48.658-2.118c0,0-2.083-1.478-1.6-2.529l47.914.416a30.811,30.811,0,0,1,3.141,2.887C624.731,234.017,624.386,235.124,623.987,235.143Z" transform="translate(-552.462 -230.496)" fill="#fff"/>
      <path id="Path_2570" data-name="Path 2570" d="M533.354,277.068s-.113,6.157,2.449,6.645l7.167.72-.336-2.778-6.94-.827s-1.033-.113-2.288-4.959a3.311,3.311,0,0,0-.214-.619A11.121,11.121,0,0,1,533.354,277.068Z" transform="translate(-529.494 -255.9)" fill="#fff"/>
      <path id="Path_2571" data-name="Path 2571" d="M562.569,264.224s-.591-8.138-3.807-6.529c-.672.336-1.411,1.9-.74,6.776,0,0,.313-6.619,1.859-6.115C559.881,258.355,560.777,258.131,562.569,264.224Z" transform="translate(-543.437 -245.815)" fill="#fff" style="mix-blend-mode: multiply;isolation: isolate"/>
      <g id="Group_1773" data-name="Group 1773" transform="translate(30.785 11.993)">
        <g id="Group_1772" data-name="Group 1772" clip-path="url(#clip-path-4)">
          <g id="Group_1771" data-name="Group 1771" transform="translate(-7.501 0.376)">
            <line id="Line_25" data-name="Line 25" x1="56.367" y2="0.532" fill="none" stroke="#4b4c4b" stroke-miterlimit="10" stroke-width="1"/>
            <line id="Line_26" data-name="Line 26" x1="56.367" y2="0.532" transform="translate(0 1.145)" fill="none" stroke="#4b4c4b" stroke-miterlimit="10" stroke-width="1"/>
            <line id="Line_27" data-name="Line 27" x1="56.367" y2="0.532" transform="translate(0 2.289)" fill="none" stroke="#4b4c4b" stroke-miterlimit="10" stroke-width="1"/>
            <line id="Line_28" data-name="Line 28" x1="56.367" y2="0.532" transform="translate(0 3.434)" fill="none" stroke="#4b4c4b" stroke-miterlimit="10" stroke-width="1"/>
            <line id="Line_29" data-name="Line 29" x1="56.367" y2="0.532" transform="translate(0 4.578)" fill="none" stroke="#4b4c4b" stroke-miterlimit="10" stroke-width="1"/>
            <line id="Line_30" data-name="Line 30" x1="56.367" y2="0.532" transform="translate(0 5.723)" fill="none" stroke="#4b4c4b" stroke-miterlimit="10" stroke-width="1"/>
            <line id="Line_31" data-name="Line 31" x1="56.367" y2="0.532" transform="translate(0 6.867)" fill="none" stroke="#4b4c4b" stroke-miterlimit="10" stroke-width="1"/>
            <line id="Line_32" data-name="Line 32" x1="56.367" y2="0.532" transform="translate(0 8.012)" fill="none" stroke="#4b4c4b" stroke-miterlimit="10" stroke-width="1"/>
            <line id="Line_33" data-name="Line 33" x1="56.367" y2="0.532" transform="translate(0 9.156)" fill="none" stroke="#4b4c4b" stroke-miterlimit="10" stroke-width="1"/>
            <line id="Line_34" data-name="Line 34" x1="56.367" y2="0.532" transform="translate(0 10.301)" fill="none" stroke="#4b4c4b" stroke-miterlimit="10" stroke-width="1"/>
            <line id="Line_35" data-name="Line 35" x1="56.367" y2="0.532" transform="translate(0 11.445)" fill="none" stroke="#4b4c4b" stroke-miterlimit="10" stroke-width="1"/>
            <line id="Line_36" data-name="Line 36" x1="56.367" y2="0.532" transform="translate(0 12.59)" fill="none" stroke="#4b4c4b" stroke-miterlimit="10" stroke-width="1"/>
            <line id="Line_37" data-name="Line 37" x1="56.367" y2="0.532" transform="translate(0 13.734)" fill="none" stroke="#4b4c4b" stroke-miterlimit="10" stroke-width="1"/>
          </g>
        </g>
      </g>
      <path id="Path_2573" data-name="Path 2573" d="M595.835,293.623c12.972.336,35.8.719,45.582-.366l.1-.2a2.027,2.027,0,0,0-.109-1.49,9.069,9.069,0,0,0-.928-1.883l-.052-.022-5.774,1.686s-29.195.653-29.957.436-8.279-1.9-8.279-1.9l-.327,2.013Z" transform="translate(-565.05 -264.079)" fill="#fff"/>
      <path id="Path_2574" data-name="Path 2574" d="M570.8,290.294l.013.048.244.8,0,.017a5.48,5.48,0,0,0,1.12,1.965s3.782.135,9.442.279c12.972.336,35.8.719,45.583-.366.933-.1,1.743-.218,2.418-.349a10.74,10.74,0,0,0,1.155-2.663c-1.447.593-9.791,3.725-22.432,2.737,0,0-27.018.162-30.066-1.451-1.048-.554-4.283-2.035-4.283-2.035s-.561,1.216-.946,1.381C572.531,290.885,570.8,290.294,570.8,290.294Z" transform="translate(-550.842 -263.862)" fill="#fff" style="mix-blend-mode: multiply;isolation: isolate"/>
      <path id="Path_2575" data-name="Path 2575" d="M628.343,273.513h16.195a2.615,2.615,0,0,0,2.615-2.615h0a2.615,2.615,0,0,0-2.615-2.614H628.343a2.614,2.614,0,0,0-2.614,2.614h0A2.614,2.614,0,0,0,628.343,273.513Z" transform="translate(-582.018 -251.945)" fill="#bfc4c1"/>
      <path id="Path_2576" data-name="Path 2576" d="M531.843,236.6s2.836,4.879,18.118,1.342a5.951,5.951,0,0,1,.69-1.82s-5.62,1.751-15.972-2.881l-.114-.051A23.167,23.167,0,0,0,531.843,236.6Z" transform="translate(-528.727 -232.026)" fill="#fff"/>
      <path id="Path_2577" data-name="Path 2577" d="M681.88,254.965s.944,4.14-5.592,5.156c0,0-9.441-3.849-11.257-3.849C665.031,256.272,677.74,253.512,681.88,254.965Z" transform="translate(-604.327 -244.145)" fill="#fff"/>
      <path id="Path_2578" data-name="Path 2578" d="M640.336,273.243a9.067,9.067,0,0,0-.928-1.882l-.052-.022c-.27-.057-.819-9.482-5.395-10.515,0,0-9-3.577-10.218-3.015s-12.418.074-12.418.074-10.606,1.451-13.072,5.665c0,0-2.741,5.229-2.906,8.009l-.579,3.458-.814.008.526-3.564c.2-2.941,2.887-8.1,3.022-8.351,2.65-4.528,13.256-6.027,13.706-6.088l.078-.01.078,0c.045,0,4.534.2,8.081.2a18.476,18.476,0,0,0,3.934-.19,1.766,1.766,0,0,1,.749-.141c2.153,0,9.045,2.7,10.1,3.113,4.19,1.014,5.3,7.462,5.773,10.224.036.211.076.44.106.6a4.284,4.284,0,0,1,.673,1.268c.111.267.226.543.341.773a2.084,2.084,0,0,1,.251,1.685l-1,.1A1.587,1.587,0,0,0,640.336,273.243Z" transform="translate(-563.982 -245.471)" fill="#2a2b2a"/>
      <path id="Path_2579" data-name="Path 2579" d="M594.614,257.649s-9.8-.581-14.234-3.05c0,0,10.1-4.576,23.241.653Z" transform="translate(-556.278 -243.125)" fill="#fff"/>
      <path id="Path_2580" data-name="Path 2580" d="M638.413,246.264s-10.322.45-11.138.177c0,0-3.595-3.431-8.606-.054,0,0-13.78-.109-15.005-.327,0,0,3,2.514,3.431,4.112,0,0,8.07-.245,9.741.626s7.153,6.6,12.672.136c0,0,6.573-1.371,7.807-1.225C637.315,249.71,637.685,248.444,638.413,246.264Z" transform="translate(-569.494 -238.672)" fill="#434443"/>
      <path id="Path_2581" data-name="Path 2581" d="M640.092,251.584l-8.805,1.208s-4.866,7.626-11.62.073l-11.129-1.116-.717-.808s12.337,1.053,12.936,1.38c0,0,5.011,6.718,9.151.054l10.512-1.915Z" transform="translate(-571.853 -241.827)" fill="#d6e3dd"/>
      <path id="Path_2582" data-name="Path 2582" d="M642.021,253.462c0,1.183,1.333,2.142,2.977,2.142s2.977-.959,2.977-2.142-1.333-2.142-2.977-2.142S642.021,252.279,642.021,253.462Z" transform="translate(-591.266 -242.316)" fill="#d6e3dd"/>
      <path id="Path_2583" data-name="Path 2583" d="M681.089,246.885s6.9-1.451,8.352-.8c0,0,1.162-.074,1.454-.435a8.657,8.657,0,0,0-1.854-5.362,6.916,6.916,0,0,0-3.376-2.155,21.28,21.28,0,0,1-2.254,3.228h0a2.218,2.218,0,0,1-1.3.876S680.362,246.379,681.089,246.885Z" transform="translate(-613.341 -234.832)" fill="#d6e3dd"/>
      <path id="Path_2584" data-name="Path 2584" d="M573.689,240.51s1.09,6.97,4.9,5.337c0,0,8.169.108,11.766.547a9.857,9.857,0,0,0-5.007-5.377,13.4,13.4,0,0,0-3.382-1.161s-5.3-1.563-5.7-2.143c0,0-2.183.449-2.564,1.926A1.893,1.893,0,0,0,573.689,240.51Z" transform="translate(-552.455 -234.592)" fill="#d6e3dd"/>
      <path id="Path_2585" data-name="Path 2585" d="M686.689,241.363c.143.009,3.9.252,5.631-1.073a6.916,6.916,0,0,0-3.376-2.155A21.283,21.283,0,0,1,686.689,241.363Z" transform="translate(-616.62 -234.832)" fill="#fff" opacity="0.62"/>
      <path id="Path_2586" data-name="Path 2586" d="M573.779,239.638l.031.054s5.508,3.248,11.614,1.325a13.4,13.4,0,0,0-3.382-1.161s-5.3-1.563-5.7-2.143C576.343,237.712,574.16,238.161,573.779,239.638Z" transform="translate(-552.531 -234.592)" fill="#fff" opacity="0.57"/>
      <path id="Path_2587" data-name="Path 2587" d="M543.075,236.876s-4.249,8.442-.545,22.822" transform="translate(-533.933 -234.117)" fill="none" stroke="#707070" stroke-linecap="round" stroke-miterlimit="10" stroke-width="0.2"/>
      <path id="Path_2588" data-name="Path 2588" d="M533.929,283.921c.24,1.774.828,3.9,2.292,4.179l7.167.72a18.311,18.311,0,0,1-.28-3.965l-1.876-1.875s-6.048,3.268-6.754.872C534.356,283.438,534.164,283.512,533.929,283.921Z" transform="translate(-529.911 -260.287)" fill="#fff" style="mix-blend-mode: multiply;isolation: isolate"/>
    </g>
  </g>
</svg>
