<svg xmlns="http://www.w3.org/2000/svg" xmlns:xlink="http://www.w3.org/1999/xlink" width="64.289" height="54.978" viewBox="0 0 64.289 54.978">
  <defs>
    <clipPath id="clip-path">
      <path id="Path_2330" data-name="Path 2330" d="M127.219,79.166c-17.474.063-25.26-.059-28.7-.192a1.085,1.085,0,0,1-.9-1.612c2.212-3.978,4.583-7.811,5.678-8.938a1.066,1.066,0,0,1,.68-.319c1.107-.089,2.518-.136,4.295-.142,3.255-.012,7.429.115,11.848.25,3.547.107,7.208.219,10.992.283a1.084,1.084,0,0,1,.728.3,39.631,39.631,0,0,1,7.066,8.716,1.086,1.086,0,0,1-.948,1.6C135.51,79.125,131.63,79.15,127.219,79.166Z" transform="translate(-97.476 -67.961)" fill="none"/>
    </clipPath>
    <clipPath id="clip-path-2">
      <path id="Path_2335" data-name="Path 2335" d="M139.344,148.217a.4.4,0,0,1-.018.069,8.686,8.686,0,0,1-2.491.826,10.582,10.582,0,0,1-1.331.144s-19.262,4.419-45.825.019a6.592,6.592,0,0,1-1.525-.147,7.793,7.793,0,0,1-1.163-.323,9.2,9.2,0,0,1,.956-3.666s.3-5.386,3.246-8.729a7.386,7.386,0,0,1,3.581-2.306s10.362-3.135,11.072-3.175,12.193-2.8,27.291,3.409a6.953,6.953,0,0,1,2.1,1.41c1.57,1.467,3.428,4.284,3.317,9.354A10.933,10.933,0,0,1,139.344,148.217Z" transform="translate(-86.99 -130.282)" fill="none"/>
    </clipPath>
  </defs>
  <g id="Group_1677" data-name="Group 1677" transform="translate(-74.576 -63.118)">
    <rect id="Rectangle_1279" data-name="Rectangle 1279" width="13.487" height="15.134" rx="6.743" transform="matrix(1, -0.004, 0.004, 1, 78.135, 102.962)" fill="#595958"/>
    <rect id="Rectangle_1280" data-name="Rectangle 1280" width="13.487" height="15.134" rx="6.743" transform="matrix(1, -0.004, 0.004, 1, 121.476, 102.805)" fill="#595958"/>
    <path id="Path_2307" data-name="Path 2307" d="M94.242,98.877s1.844-5.713,5.795-6.324c0,0,12.238-2.021,16.317-1.439a29.41,29.41,0,0,1,18.123,6.349s4.663,3.663,5.188,4.506c0,0,5.78,3.212,6.39,6.889a6.283,6.283,0,0,1,1.311,5.167s.208,2.51-.138,2.934a3.3,3.3,0,0,0,.377,1.167s-.2,1.194-2.831.955c0,0-10.061,2.349-13.644,1.616a18.372,18.372,0,0,1-10.79.238s.226-6.267-2.767-8.742c0,0-5.04-4.855-4.15,7.225,0,0-14.758-3.924-15.32-4.594,0,0,.1-9.175-3.921-8.265,0,0-1.7.155-1.086,5.635,0,0-1.12-.22-.177-7.5a7.815,7.815,0,0,0,.848-2.763A7.84,7.84,0,0,1,94.242,98.877Z" transform="translate(-9.271 -14.393)" fill="none" stroke="#fff" stroke-miterlimit="10" stroke-width="1"/>
    <path id="Path_2308" data-name="Path 2308" d="M137.728,107.046s-1.317,7.226-8.631,7.55c0,0-19.262,4.418-45.825.019,0,0-8.282.478-8.324-10.867a29.476,29.476,0,0,1,1.353-14.6c.007-.02.011-.031.011-.031a11.973,11.973,0,0,1,2.735-6.951s2.487-4.022,2.486-4.19c0,0,5.387-11.718,9.8-13.694a61.687,61.687,0,0,1,11.639-1.161s9.666-.074,15.267,1.064c.059,0,3.592.025,9.362,9.259,0,0,5.032,8.116,5.405,8.639,0,0,4.5,3.835,4.105,8.847,0,.018,0,.038,0,.056s0,.009,0,.014C137.228,91.39,139.728,100.255,137.728,107.046Z" fill="#278a9c"/>
    <path id="Path_2309" data-name="Path 2309" d="M203.791,120.7" transform="translate(-66.681 -29.713)" fill="none" stroke="#000" stroke-miterlimit="10" stroke-width="1"/>
    <path id="Path_2310" data-name="Path 2310" d="M76.19,141.9s-.873-1.462-.867.218c0,0-.964,6.963,2.254,9.191,0,0,2.057,1.3,2.273-.867a6.447,6.447,0,0,0-1.66-5.032S76.256,142.224,76.19,141.9Z" transform="translate(-0.315 -40.35)" fill="#3d4039"/>
    <g id="Group_1665" data-name="Group 1665" transform="translate(77.064 74.02)">
      <path id="Path_2311" data-name="Path 2311" d="M84.157,92.221a3.109,3.109,0,0,1-.581.772,7.558,7.558,0,0,1-3.785-1.3,5.34,5.34,0,0,1-.031-1.343c.111-.056.494-2.1,5.2-1.754A8.516,8.516,0,0,1,84.157,92.221Z" transform="translate(-79.717 -87.146)" fill="#1c1c1c"/>
      <path id="Path_2312" data-name="Path 2312" d="M191.092,88.667a.252.252,0,0,1-.033.027A7.563,7.563,0,0,1,187.32,90a5.968,5.968,0,0,1-.853-1.031,15.285,15.285,0,0,1-1.541-3.185c.056-.007.112-.016.166-.021,4.865-.62,5.914,1.51,6.024,1.566A5.331,5.331,0,0,1,191.092,88.667Z" transform="translate(-134.01 -85.645)" fill="#1c1c1c"/>
      <path id="Path_2313" data-name="Path 2313" d="M191.293,87.324l-4.225.14-1.8-1.673c0-.011,0-.022,0-.033C190.134,85.138,191.183,87.268,191.293,87.324Z" transform="translate(-134.187 -85.645)" fill="#7a7974"/>
      <path id="Path_2314" data-name="Path 2314" d="M192.7,91.945a7.564,7.564,0,0,1-3.739,1.3,5.969,5.969,0,0,1-.853-1.031C188.813,92.237,192.148,92.321,192.7,91.945Z" transform="translate(-135.653 -88.896)" fill="#050505"/>
      <path id="Path_2315" data-name="Path 2315" d="M85,88.594a8.815,8.815,0,0,1-1.569,1.947c-.817.675-3.628-.193-3.628-.193C79.916,90.291,80.3,88.246,85,88.594Z" transform="translate(-79.762 -87.146)" fill="#7a7974"/>
      <path id="Path_2316" data-name="Path 2316" d="M84.236,95.566a3.109,3.109,0,0,1-.581.772,7.558,7.558,0,0,1-3.785-1.3,39.926,39.926,0,0,0,4.256.488A.1.1,0,0,1,84.236,95.566Z" transform="translate(-79.796 -90.491)" fill="#050505"/>
    </g>
    <g id="Group_1666" data-name="Group 1666" transform="translate(74.576 89.146)">
      <path id="Path_2317" data-name="Path 2317" d="M137.728,134.8a10.024,10.024,0,0,1-4.808,6.58,9.144,9.144,0,0,1-3.823.97s-19.262,4.419-45.825.019a7.444,7.444,0,0,1-2.688-.469c-2.421-.88-5.61-3.369-5.636-10.4A29.476,29.476,0,0,1,76.3,116.9c-.142.423-1.7,5.217-.351,7.993,0,0,6.791,4.474,8.837,4.612a.084.084,0,0,0,.025,0s28.264,3.849,44.015-.664c3.641-1.043,6.614-2.534,8.415-4.621a32.293,32.293,0,0,0-.123-5.456C137.283,119.342,139.706,128.085,137.728,134.8Z" transform="translate(-74.576 -116.901)" fill="#fff"/>
      <path id="Path_2318" data-name="Path 2318" d="M77.67,120.841a11.334,11.334,0,0,0-.881,4.052s-1.531-3.065.351-7.993A7.768,7.768,0,0,0,77.67,120.841Z" transform="translate(-75.415 -116.901)" fill="#fff"/>
      <path id="Path_2319" data-name="Path 2319" d="M202.188,123.282a9,9,0,0,1,.907,3.281s.347-4.485-.046-5.127A15.55,15.55,0,0,1,202.188,123.282Z" transform="translate(-140.43 -119.241)" fill="#fff"/>
    </g>
    <g id="Group_1667" data-name="Group 1667" transform="translate(74.897 98.814)">
      <path id="Path_2320" data-name="Path 2320" d="M199.451,137.472s.862-1.468.869.211c0,0,1.014,6.956-2.187,9.207,0,0-2.048,1.313-2.279-.85A6.447,6.447,0,0,1,197.477,141S199.387,137.8,199.451,137.472Z" transform="translate(-137.459 -136.878)" fill="#3d4039"/>
      <path id="Path_2321" data-name="Path 2321" d="M198.544,151.807s-2.048,1.313-2.279-.85a6.224,6.224,0,0,1,.1-2.071,6.529,6.529,0,0,0-.512,3.351c.232,2.163,2.279.85,2.279.85a5.559,5.559,0,0,0,1.982-3.363A4.687,4.687,0,0,1,198.544,151.807Z" transform="translate(-137.46 -143.074)" fill="#fff"/>
      <path id="Path_2322" data-name="Path 2322" d="M199.99,149.16a1.627,1.627,0,1,1,.153-2.644A1.927,1.927,0,0,1,199.99,149.16Z" transform="translate(-138.064 -141.718)" fill="#d6e3dd"/>
      <path id="Path_2323" data-name="Path 2323" d="M79.779,152.816a4.686,4.686,0,0,1-.036.56c-.216,2.165-2.273.867-2.273.867-1.37-.949-1.981-2.756-2.232-4.519.107,2.126.622,4.719,2.365,5.925,0,0,2.057,1.3,2.273-.867A6.228,6.228,0,0,0,79.779,152.816Z" transform="translate(-75.238 -143.507)" fill="#fff"/>
      <path id="Path_2324" data-name="Path 2324" d="M77.262,153.34c.753.922,1.847,1.274,2.443.786s.468-1.629-.285-2.55-1.847-1.274-2.443-.786S76.508,152.418,77.262,153.34Z" transform="translate(-75.942 -143.944)" fill="#d6e3dd"/>
    </g>
    <g id="Group_1668" data-name="Group 1668" transform="translate(76.195 82.077)">
      <path id="Path_2325" data-name="Path 2325" d="M91.121,115.517s-10.4-2.874-12.566-2.212c0,0-.958-2.609-.519-3.976a25.643,25.643,0,0,1,.712-3.475,13.52,13.52,0,0,1,2.025-3.475,16.351,16.351,0,0,1,1.719-.072,17.237,17.237,0,0,0,6.236,6.89S91.119,114.881,91.121,115.517Z" transform="translate(-77.921 -102.294)" fill="#d6e3dd"/>
      <path id="Path_2326" data-name="Path 2326" d="M189.821,113.563c-2.166-.642-11.6,2.36-11.6,2.36,0-.636,2.29-6.374,2.29-6.374,4.634-3.125,5.2-6.829,5.2-6.829a6.032,6.032,0,0,1,.86-.115,9.316,9.316,0,0,1,2.907,3.8,30.158,30.158,0,0,1,1.252,3.912C191.188,111.675,189.821,113.563,189.821,113.563Z" transform="translate(-129.683 -102.455)" fill="#d6e3dd"/>
    </g>
    <g id="Group_1673" data-name="Group 1673" transform="translate(81.693 64.695)">
      <g id="Group_1669" data-name="Group 1669" transform="translate(0)">
        <path id="Path_2327" data-name="Path 2327" d="M101.507,66.558c5.223-.5,16.514.182,28.325.363,0,0,7.469,6.69,8.833,12.115,0,0-44.668.386-45.063-.4C93.6,78.641,99.939,66.709,101.507,66.558Z" transform="translate(-91.511 -66.377)" fill="#3d4039"/>
        <path id="Path_2328" data-name="Path 2328" d="M127.219,79.166c-17.474.063-25.26-.059-28.7-.192a1.085,1.085,0,0,1-.9-1.612c2.212-3.978,4.583-7.811,5.678-8.938a1.066,1.066,0,0,1,.68-.319c1.107-.089,2.518-.136,4.295-.142,3.255-.012,7.429.115,11.848.25,3.547.107,7.208.219,10.992.283a1.084,1.084,0,0,1,.728.3,39.631,39.631,0,0,1,7.066,8.716,1.086,1.086,0,0,1-.948,1.6C135.51,79.125,131.63,79.15,127.219,79.166Z" transform="translate(-93.51 -67.195)" fill="#d6e3dd"/>
        <path id="Path_2329" data-name="Path 2329" d="M91.372,91.718s-2.3,3.255-2.075,4c0,0,27.229-3.532,37.02.164,0,0,12.688.1,13.849,1.219s-2.854-4.991-3.731-4.987S91.975,93.1,91.372,91.718Z" transform="translate(-89.282 -79.454)" fill="#fff"/>
      </g>
      <g id="Group_1672" data-name="Group 1672" transform="translate(3.966 0.767)">
        <g id="Group_1671" data-name="Group 1671" clip-path="url(#clip-path)">
          <g id="Group_1670" data-name="Group 1670" transform="translate(-1.213 -12.561)">
            <rect id="Rectangle_1281" data-name="Rectangle 1281" width="8.566" height="39.899" transform="matrix(0.728, 0.686, -0.686, 0.728, 27.355, 0)" fill="#fff" opacity="0.57"/>
            <rect id="Rectangle_1282" data-name="Rectangle 1282" width="4.091" height="39.899" transform="translate(35.917 8.064) rotate(43.282)" fill="#fff" opacity="0.54"/>
          </g>
        </g>
      </g>
    </g>
    <path id="Path_2331" data-name="Path 2331" d="M89.611,109.2c-6.868.59-9.817-3.123-9.981-3.343a13.52,13.52,0,0,1,2.025-3.475,16.351,16.351,0,0,1,1.719-.072A17.237,17.237,0,0,0,89.611,109.2Z" transform="translate(-2.608 -20.217)" fill="#fff" opacity="0.56"/>
    <path id="Path_2332" data-name="Path 2332" d="M191.924,106.4c-.019.018-.037.033-.056.051-3.61,3.168-8.911,3.094-8.911,3.094,4.634-3.125,5.2-6.829,5.2-6.829a6.032,6.032,0,0,1,.86-.115A9.316,9.316,0,0,1,191.924,106.4Z" transform="translate(-55.929 -20.378)" fill="#fff" opacity="0.49"/>
    <g id="Group_1676" data-name="Group 1676" transform="translate(80.584 88.982)">
      <path id="Path_2333" data-name="Path 2333" d="M139.344,148.217a.4.4,0,0,1-.018.069,8.686,8.686,0,0,1-2.491.826,10.582,10.582,0,0,1-1.331.144s-19.262,4.419-45.825.019a6.592,6.592,0,0,1-1.525-.147,7.793,7.793,0,0,1-1.163-.323,9.2,9.2,0,0,1,.956-3.666s.3-5.386,3.246-8.729a7.386,7.386,0,0,1,3.581-2.306s10.362-3.135,11.072-3.175,12.193-2.8,27.291,3.409a6.953,6.953,0,0,1,2.1,1.41c1.57,1.467,3.428,4.284,3.317,9.354A10.933,10.933,0,0,1,139.344,148.217Z" transform="translate(-86.99 -123.642)" fill="#434443"/>
      <g id="Group_1675" data-name="Group 1675" transform="translate(0 6.64)">
        <g id="Group_1674" data-name="Group 1674" clip-path="url(#clip-path-2)">
          <line id="Line_3" data-name="Line 3" y1="0.233" x2="64.027" transform="translate(-3.49 1.77)" fill="none" stroke="#4b4c4b" stroke-miterlimit="10" stroke-width="1"/>
          <line id="Line_4" data-name="Line 4" y1="0.233" x2="64.027" transform="translate(-3.367 3.639)" fill="none" stroke="#4b4c4b" stroke-miterlimit="10" stroke-width="1"/>
          <line id="Line_5" data-name="Line 5" y1="0.233" x2="64.027" transform="translate(-3.243 5.508)" fill="none" stroke="#4b4c4b" stroke-miterlimit="10" stroke-width="1"/>
          <line id="Line_6" data-name="Line 6" y1="0.233" x2="64.027" transform="translate(-3.119 7.377)" fill="none" stroke="#4b4c4b" stroke-miterlimit="10" stroke-width="1"/>
          <line id="Line_7" data-name="Line 7" y1="0.233" x2="64.027" transform="translate(-2.996 9.246)" fill="none" stroke="#4b4c4b" stroke-miterlimit="10" stroke-width="1"/>
          <line id="Line_8" data-name="Line 8" y1="0.233" x2="64.027" transform="translate(-2.872 11.115)" fill="none" stroke="#4b4c4b" stroke-miterlimit="10" stroke-width="1"/>
          <line id="Line_9" data-name="Line 9" y1="0.233" x2="64.027" transform="translate(-2.748 12.984)" fill="none" stroke="#4b4c4b" stroke-miterlimit="10" stroke-width="1"/>
          <line id="Line_10" data-name="Line 10" y1="0.233" x2="64.027" transform="translate(-2.625 14.853)" fill="none" stroke="#4b4c4b" stroke-miterlimit="10" stroke-width="1"/>
          <line id="Line_11" data-name="Line 11" y1="0.233" x2="64.027" transform="translate(-2.501 16.722)" fill="none" stroke="#4b4c4b" stroke-miterlimit="10" stroke-width="1"/>
          <path id="Path_2334" data-name="Path 2334" d="M138.549,145.1c.111-5.069-1.746-7.887-3.317-9.354a7.976,7.976,0,0,0-1.5-1.116h0a4.539,4.539,0,0,0-.6-.293c-15.1-6.214-26.584-3.45-27.291-3.409a.941.941,0,0,0-.1.014l-.045.009-.113.023-.068.016-.148.035-.075.018-.191.048-.082.021-.236.062-.073.02-.291.079-.058.015-.353.1-.033.009c-3.174.883-9.205,2.707-9.205,2.707a7.386,7.386,0,0,0-3.581,2.306c-2.941,3.343-3.246,8.729-3.246,8.729a9.2,9.2,0,0,0-.956,3.666,7.723,7.723,0,0,0,1.061.3,9.63,9.63,0,0,1,.951-3.49s.3-5.386,3.246-8.729a7.386,7.386,0,0,1,3.581-2.306s10.362-3.134,11.072-3.175a43.346,43.346,0,0,1,10.644-.535,53.522,53.522,0,0,1,14.536,3.76,6.972,6.972,0,0,1,2.1,1.41c1.57,1.468,3.168,4.253,3.057,9.322,0,0,.944.806.953,3.419a4.894,4.894,0,0,0,1.137-.495.4.4,0,0,0,.018-.069A10.933,10.933,0,0,0,138.549,145.1Z" transform="translate(-86.99 -130.282)" fill="#2a2b2a"/>
        </g>
      </g>
      <path id="Rectangle_1283" data-name="Rectangle 1283" d="M2.771,0H21.355a2.771,2.771,0,0,1,2.771,2.771v0a2.771,2.771,0,0,1-2.771,2.771H2.771A2.771,2.771,0,0,1,0,2.771v0A2.771,2.771,0,0,1,2.771,0Z" transform="translate(14.699 13.852) rotate(-0.208)" fill="#bfc4c1"/>
      <path id="Path_2336" data-name="Path 2336" d="M139.32,164.6a9.62,9.62,0,0,1-1.333.4,7.084,7.084,0,0,1-1.334.152s-19.262,4.419-45.825.019a6.592,6.592,0,0,1-1.525-.147c-.009-.038-.016-.076-.025-.109-.341-1.454.883-3.586.883-3.586,1.116-.761,2.3.478,2.3.478,19.021,5.757,38.85,1.326,44.42-.148,1-.261,1.534-.431,1.534-.431C139.293,162.08,139.35,164.175,139.32,164.6Z" transform="translate(-88.14 -139.533)" fill="#fff"/>
      <path id="Path_2337" data-name="Path 2337" d="M92.333,161.769s-1.344.127-1.621,3.392a9.058,9.058,0,0,1-1.619-.182c-.435-1.475.943-3.687.943-3.687C91.153,160.531,92.333,161.769,92.333,161.769Z" transform="translate(-88.031 -139.517)" fill="#2a2b2a"/>
      <path id="Path_2338" data-name="Path 2338" d="M190.159,164.828a8.4,8.4,0,0,1-1.352.323c.507-1.484-.882-3.091-1.109-3.341,1-.261,1.534-.431,1.534-.431C190.113,162.236,190.188,164.4,190.159,164.828Z" transform="translate(-138.96 -139.689)" fill="#2a2b2a"/>
      <path id="Path_2339" data-name="Path 2339" d="M140.332,162.269c-4.928,6.227-35.563,3.661-35.563,3.661-6.328-.649-8.857-3.513-8.857-3.513C114.933,168.174,134.762,163.743,140.332,162.269Z" transform="translate(-91.594 -140.148)" fill="#fff"/>
      <path id="Path_2340" data-name="Path 2340" d="M100.255,116.561s10.532,2.257,14.281,2.02a22.731,22.731,0,0,1,12.763.065s10.632-.878,12.98-1.894l-.481,1.14s-15.251,3.19-15.288,3.3-2.753-2.7-7.5-.159l-16.3-3.356Z" transform="translate(-93.835 -116.561)" fill="#fff"/>
      <path id="Path_2341" data-name="Path 2341" d="M100.852,118.5l16.25,3.712s3.888-3.082,7.671.036l15.52-3.508-1.9,4.1-9.837,1.954s-6.031,11.4-16.173-.133l-9.659-1.946Z" transform="translate(-94.143 -117.561)" fill="#2e302a"/>
      <path id="Path_2342" data-name="Path 2342" d="M102.448,121.532l13.115,2.956s1.664.633,1.6,1.72c0,0,4.3,5.8,9.14-.1,0,0,.185-1.726,2.614-1.735l11.3-2.662-.317.7-10.6,2.723a10.737,10.737,0,0,0-1.911,1.8s-5.857,6.478-11.251-.182a7.722,7.722,0,0,0-1.988-1.591c-.672-.189-11.34-2.867-11.34-2.867Z" transform="translate(-94.967 -119.126)" fill="#d6e3dd"/>
      <ellipse id="Ellipse_223" data-name="Ellipse 223" cx="3.5" cy="2.349" rx="3.5" ry="2.349" transform="matrix(1, -0.004, 0.004, 1, 23.357, 4.234)" fill="#d6e3dd"/>
    </g>
  </g>
</svg>
