<svg xmlns="http://www.w3.org/2000/svg" xmlns:xlink="http://www.w3.org/1999/xlink" width="78.78" height="49.475" viewBox="0 0 78.78 49.475">
  <defs>
    <clipPath id="clip-path">
      <path id="Path_2364" data-name="Path 2364" d="M319.64,212.364a.776.776,0,0,1-.548-1.34c2.868-2.714,6.485-5.778,8.889-6.674a111.151,111.151,0,0,1,19.044-1.872,43.975,43.975,0,0,1,12.734,1.549.774.774,0,0,1,.539.732,34.183,34.183,0,0,1-.488,6.935.769.769,0,0,1-.756.585c-2.235-.01-9.684-.04-17.8-.04C330.027,212.24,323.485,212.291,319.64,212.364Z" transform="translate(-318.848 -202.478)" fill="none"/>
    </clipPath>
    <clipPath id="clip-path-2">
      <path id="Path_2365" data-name="Path 2365" d="M424.652,207.814s-.642-3.8.8-4.176c0,0,1.145-.22,1.339.054a30.776,30.776,0,0,1,4.659,10.548s-3.052,1.928-4.391.91S424.652,207.814,424.652,207.814Z" transform="translate(-424.51 -203.554)" fill="none"/>
    </clipPath>
    <clipPath id="clip-path-3">
      <path id="Path_2366" data-name="Path 2366" d="M433.222,205.792a13.62,13.62,0,0,1,6.069,8.6s-2.356.893-2.606.678-2-6.39-3.641-8.746C433.044,206.327,432.616,205.685,433.222,205.792Z" transform="translate(-432.897 -205.78)" fill="none"/>
    </clipPath>
    <clipPath id="clip-path-4">
      <path id="Path_2382" data-name="Path 2382" d="M333.578,273.475c-12.752.33-35.2.707-44.811-.36l-.094-.2a2,2,0,0,1,.107-1.465,8.91,8.91,0,0,1,.913-1.85l.051-.022c.266-.056.805-9.321,5.3-10.336,0,0,8.85-3.517,10.045-2.964s12.208.073,12.208.073,10.426,1.427,12.85,5.569c0,0,2.695,5.14,2.857,7.873Z" transform="translate(-288.582 -256.222)" fill="none"/>
    </clipPath>
  </defs>
  <g id="Group_1785" data-name="Group 1785" transform="translate(-280.379 -196.197)">
    <g id="Group_1682" data-name="Group 1682" transform="translate(280.601 221.369)">
      <g id="Group_1678" data-name="Group 1678" transform="translate(27.316 6.174)">
        <ellipse id="Ellipse_224" data-name="Ellipse 224" cx="5.484" cy="7.526" rx="5.484" ry="7.526" fill="#3d4039"/>
        <path id="Path_2343" data-name="Path 2343" d="M362.974,279.407c0,3.34-1.259,6.047-2.812,6.047s-2.812-2.708-2.812-6.047,1.259-6.047,2.812-6.047S362.974,276.067,362.974,279.407Z" transform="translate(-352.17 -271.907)" fill="#d6e3dd"/>
      </g>
      <g id="Group_1679" data-name="Group 1679" transform="translate(68.996 0)">
        <path id="Path_2344" data-name="Path 2344" d="M451.778,266.659c0,6.209-1.916,11.242-4.279,11.242s-4.279-5.034-4.279-11.242,1.916-11.243,4.279-11.243S451.778,260.45,451.778,266.659Z" transform="translate(-443.221 -255.416)" fill="#3d4039"/>
        <path id="Path_2345" data-name="Path 2345" d="M456.91,272.254c0,4.154-.755,7.522-1.685,7.522s-1.685-3.367-1.685-7.522.755-7.521,1.685-7.521S456.91,268.1,456.91,272.254Z" transform="translate(-449.154 -260.773)" fill="#d6e3dd"/>
        <path id="Path_2346" data-name="Path 2346" d="M458.16,276.193c0,2.785-.506,5.043-1.13,5.043s-1.129-2.258-1.129-5.043.505-5.043,1.129-5.043S458.16,273.408,458.16,276.193Z" transform="translate(-450.511 -264.462)" fill="#3d4039"/>
        <path id="Path_2347" data-name="Path 2347" d="M458.542,280.111c0,1.523-.276,2.757-.618,2.757s-.618-1.234-.618-2.757.277-2.757.618-2.757S458.542,278.588,458.542,280.111Z" transform="translate(-451.32 -268.029)" fill="#3d4039"/>
        <path id="Path_2348" data-name="Path 2348" d="M457.949,276.64c0,1.837-.533,3.325-1.189,3.325s-1.189-1.489-1.189-3.325.533-3.325,1.189-3.325S457.949,274.8,457.949,276.64Z" transform="translate(-450.321 -265.707)" fill="#3d4039"/>
      </g>
      <g id="Group_1680" data-name="Group 1680" transform="translate(0 2.882)">
        <ellipse id="Ellipse_225" data-name="Ellipse 225" cx="7.805" cy="10.711" rx="7.805" ry="10.711" fill="#3d4039"/>
        <path id="Path_2349" data-name="Path 2349" d="M302,276.172c0,5.011-2.1,9.073-4.694,9.073s-4.694-4.062-4.694-9.073,2.1-9.073,4.694-9.073S302,271.161,302,276.172Z" transform="translate(-287.635 -265.015)" fill="#d6e3dd"/>
        <path id="Path_2350" data-name="Path 2350" d="M304.71,281.4c0,3.4-1.22,6.147-2.726,6.147s-2.726-2.752-2.726-6.147,1.221-6.147,2.726-6.147S304.71,278.009,304.71,281.4Z" transform="translate(-291.455 -269.706)" fill="#3d4039"/>
      </g>
      <g id="Group_1681" data-name="Group 1681" transform="translate(51.382 2.74)">
        <ellipse id="Ellipse_226" data-name="Ellipse 226" cx="7.112" cy="10.711" rx="7.112" ry="10.711" fill="#3d4039"/>
        <path id="Path_2351" data-name="Path 2351" d="M423.362,276.635c0,4.2-1.544,7.613-3.448,7.613s-3.448-3.409-3.448-7.613,1.544-7.614,3.448-7.614S423.362,272.43,423.362,276.635Z" transform="translate(-410.225 -265.978)" fill="#d6e3dd"/>
        <path id="Path_2352" data-name="Path 2352" d="M424.224,278.694c0,3.347-1.229,6.061-2.745,6.061s-2.744-2.714-2.744-6.061,1.229-6.061,2.744-6.061S424.224,275.346,424.224,278.694Z" transform="translate(-411.529 -268.054)" fill="#3d4039"/>
        <path id="Path_2353" data-name="Path 2353" d="M422.392,277.791l1.3.4-.033-2.039-1.066-.174.9-1.174-.394-1.875-.923,1.37a3.007,3.007,0,0,0-.773-1.34l-.179-2.76-1.645.033.49,2.794a3.422,3.422,0,0,0-.771,1.515l-1.495-1.58-.394,2.1,1.644,1.4c0,.008,0,.015,0,.023,0,.119,0,.238.008.354l-1.717-.134v1.743l1.922-.132c.009.037.02.071.029.107L417.481,280l.658,1.677,1.7-2.013a1.994,1.994,0,0,0,.24.289l-.528,3.643,1.991.078-.06-3.714a2.207,2.207,0,0,0,.334-.436l1.327,1.594.46-2.072-1.265-.936C422.355,278.006,422.375,277.9,422.392,277.791Z" transform="translate(-410.732 -266.655)" fill="#d6e3dd"/>
        <path id="Path_2354" data-name="Path 2354" d="M456.573,274.806l.535.379.061-2.382-.519.422.472-2.029-.2-2.266-.458,1.657c-.1-.723-.328-4.441-.328-4.441l-.868.047s-.144,3.884-.233,4.687l-.742-1.909-.2,2.544s1.069,2.185,1.071,2.326l-1.1-.339v2.107l.954-.159a13.834,13.834,0,0,1-.746,2.053l.492,1.793.879-3.205c.037.133-.34,3.78-.34,3.78l.832-.2.088-3.423a18.916,18.916,0,0,1,.36,2.127l.4-2.154S456.564,274.937,456.573,274.806Z" transform="translate(-431.845 -264.324)" fill="#d6e3dd"/>
      </g>
    </g>
    <path id="Path_2355" data-name="Path 2355" d="M358.131,233.833s.577-11.08-.976-9.955c0,0-1.93,1.806-1.823,6.855,0,0,.11,6.051-2.408,6.532l-7.046.706a15.462,15.462,0,0,0-1.106-9.626s-.18-8.858-2.745-5.269a4.994,4.994,0,0,0-.447,1.007,29.314,29.314,0,0,0-2.076,11.823l-.014.048c-.025.112-.107.411-.239.788l-.006.017a5.368,5.368,0,0,1-1.1,1.933s-3.718.132-9.283.275c-12.751.329-35.2.706-44.809-.36-.917-.1-1.716-.216-2.38-.343a10.6,10.6,0,0,1-1.134-2.619,4.133,4.133,0,0,1-.149-1.378s.034-9.747,2.495-13.707c0,0-.214-5.783,5.142-7.39,0,0,1.207-1.145,2.993-2.788,4.388-4.045,12.269-11.105,14.247-11.564a85.807,85.807,0,0,1,34.162-1.606s5.71-.5,10.355,5.57a21.786,21.786,0,0,1,1.952,3.227,16.144,16.144,0,0,1,1.615,5.021.512.512,0,0,0,.037.04,22.779,22.779,0,0,1,2.675,3.353c.417.959,1.429,5.848,1.893,7.958C357.956,222.378,360.544,230.567,358.131,233.833Z" fill="#278a9c"/>
    <path id="Path_2356" data-name="Path 2356" d="M367.849,211.051a40.879,40.879,0,0,1-10.721,3.223.071.071,0,0,0-.024.008c-.132.068-4.305.481-6.75-1.226a.074.074,0,0,1,0-.122c.484-.295,2.654-1.694,2.421-2.95a.076.076,0,0,0-.075-.06l-46.95.456a.071.071,0,0,1-.051-.122c4.411-4.062,12.154-10.984,14.113-11.438a85.8,85.8,0,0,1,34.154-1.608c.005,0,5.762-.5,10.361,5.57a19.923,19.923,0,0,1,3.562,8.193A.073.073,0,0,1,367.849,211.051Z" transform="translate(-14.545 -0.002)" fill="#fff"/>
    <g id="Group_1691" data-name="Group 1691" transform="translate(288.742 197.582)">
      <path id="Path_2357" data-name="Path 2357" d="M302.234,226.513l-1.323,1.182-.857-.287.214-1.14a3.537,3.537,0,0,1,4.211-1.859Z" transform="translate(-300.054 -213.714)" fill="#111"/>
      <path id="Path_2358" data-name="Path 2358" d="M302.173,229.139l-1.262,1.139s-.862-.061-.857-.287a2.411,2.411,0,0,1,.219-1.129C300.657,228.5,302.173,229.139,302.173,229.139Z" transform="translate(-300.054 -216.297)"/>
      <path id="Path_2359" data-name="Path 2359" d="M427.964,202.26s-5.622-4.159-5.515.446c0,0,.99,11.97,2.953,13.9,0,0,8.332-1.635,9.554-2.989C435.4,213.126,431.554,204.312,427.964,202.26Z" transform="translate(-370.422 -200.077)" fill="#434443"/>
      <path id="Path_2360" data-name="Path 2360" d="M424.652,207.814s-.642-3.8.8-4.176c0,0,1.145-.22,1.339.054a30.776,30.776,0,0,1,4.659,10.548s-3.052,1.928-4.391.91S424.652,207.814,424.652,207.814Z" transform="translate(-371.608 -201.812)" fill="#d6e3dd"/>
      <path id="Path_2361" data-name="Path 2361" d="M433.222,205.792a13.62,13.62,0,0,1,6.069,8.6s-2.356.893-2.606.678-2-6.39-3.641-8.746C433.044,206.327,432.616,205.685,433.222,205.792Z" transform="translate(-376.43 -203.091)" fill="#d6e3dd"/>
      <path id="Path_2362" data-name="Path 2362" d="M323.611,201.355c1.409-.276,21.576-4.121,33.255-.018a.9.9,0,0,1,.6.832c.051,2.33.088,10.395-1.838,9.661,0,0-33.671-.164-42.972.153a.907.907,0,0,1-.676-1.544c2.669-2.7,7.987-7.754,11.483-9.042A.993.993,0,0,1,323.611,201.355Z" transform="translate(-306.756 -199.455)" fill="#434443"/>
      <path id="Path_2363" data-name="Path 2363" d="M319.64,212.364a.776.776,0,0,1-.548-1.34c2.868-2.714,6.485-5.778,8.889-6.674a111.151,111.151,0,0,1,19.044-1.872,43.975,43.975,0,0,1,12.734,1.549.774.774,0,0,1,.539.732,34.183,34.183,0,0,1-.488,6.935.769.769,0,0,1-.756.585c-2.235-.01-9.684-.04-17.8-.04C330.027,212.24,323.485,212.291,319.64,212.364Z" transform="translate(-310.859 -201.193)" fill="#d6e3dd"/>
      <g id="Group_1685" data-name="Group 1685" transform="translate(7.988 1.285)">
        <g id="Group_1684" data-name="Group 1684" clip-path="url(#clip-path)">
          <g id="Group_1683" data-name="Group 1683" transform="translate(13.639 -4.193)" opacity="0.47">
            <rect id="Rectangle_1284" data-name="Rectangle 1284" width="2.197" height="25.046" transform="translate(16.538 0) rotate(41.323)" fill="#fff"/>
            <rect id="Rectangle_1285" data-name="Rectangle 1285" width="5.719" height="25.046" transform="matrix(0.751, 0.66, -0.66, 0.751, 21.693, 0.268)" fill="#fff"/>
          </g>
        </g>
      </g>
      <g id="Group_1688" data-name="Group 1688" transform="translate(52.902 1.743)">
        <g id="Group_1687" data-name="Group 1687" clip-path="url(#clip-path-2)">
          <g id="Group_1686" data-name="Group 1686" transform="translate(-2.488 -0.702)" opacity="0.44">
            <rect id="Rectangle_1286" data-name="Rectangle 1286" width="2.133" height="12.986" transform="translate(4.851 0) rotate(21.932)" fill="#fff"/>
            <rect id="Rectangle_1287" data-name="Rectangle 1287" width="1.19" height="12.986" transform="translate(8.187 0.213) rotate(21.932)" fill="#fff"/>
          </g>
        </g>
      </g>
      <g id="Group_1690" data-name="Group 1690" transform="translate(56.467 2.688)">
        <g id="Group_1689" data-name="Group 1689" clip-path="url(#clip-path-3)">
          <rect id="Rectangle_1288" data-name="Rectangle 1288" width="1.013" height="7.31" transform="matrix(0.939, 0.343, -0.343, 0.939, 3.516, 0.427)" fill="#fff" opacity="0.47"/>
          <rect id="Rectangle_1289" data-name="Rectangle 1289" width="2.148" height="8.147" transform="matrix(0.954, 0.299, -0.299, 0.954, 4.804, 1.254)" fill="#fff" opacity="0.47"/>
        </g>
      </g>
      <path id="Path_2367" data-name="Path 2367" d="M426.891,227.033l.451,1.285s7.335.839,9.245-1.5c0,0,.5-5.319-7.425-3.534-.871.2-.036,3.57-.036,3.57A5.1,5.1,0,0,1,426.891,227.033Z" transform="translate(-372.977 -212.945)" fill="#111"/>
    </g>
    <g id="Group_1695" data-name="Group 1695" transform="translate(280.539 209.922)">
      <path id="Path_2368" data-name="Path 2368" d="M459.956,261.388s.782-2.521,1.376,1.112.132,7.354-.066,7.354S461.376,265.868,459.956,261.388Z" transform="translate(-383.785 -246.913)" fill="#111"/>
      <path id="Path_2369" data-name="Path 2369" d="M423.4,259.754s1.8.451,3.6,3.65c0,0,.3-6.226-1.481-6.226C425.516,257.178,424.123,257.09,423.4,259.754Z" transform="translate(-362.766 -244.982)" fill="#111"/>
      <path id="Path_2370" data-name="Path 2370" d="M459.767,269.838s.55-10.591-.931-9.976c0,0-.786.552-1.557,3.348,0,0-.4-2.777,1.161-4.192a.922.922,0,0,1,1.505.471C460.539,261.852,461.629,267.319,459.767,269.838Z" transform="translate(-382.22 -245.906)" fill="#fff"/>
      <path id="Path_2371" data-name="Path 2371" d="M432.138,272.175" transform="translate(-367.791 -253.604)" fill="none" stroke="#e59c0a" stroke-miterlimit="10" stroke-width="1"/>
      <path id="Path_2372" data-name="Path 2372" d="M428.372,238.9" transform="translate(-365.626 -234.471)" fill="none" stroke="#e59c0a" stroke-miterlimit="10" stroke-width="1"/>
      <path id="Path_2373" data-name="Path 2373" d="M333.578,273.475c-12.752.33-35.2.707-44.811-.36l-.094-.2a2,2,0,0,1,.107-1.465,8.91,8.91,0,0,1,.913-1.85l.051-.022c.266-.056.805-9.321,5.3-10.336,0,0,8.85-3.517,10.045-2.964s12.208.073,12.208.073,10.426,1.427,12.85,5.569c0,0,2.695,5.14,2.857,7.873Z" transform="translate(-285.255 -244.433)" fill="#434443"/>
      <path id="Path_2374" data-name="Path 2374" d="M402.142,264.72s3.052,7.978,0,9.852c0,0-4.872,2.142-5.14-3.641C396.908,268.918,399.358,267.5,402.142,264.72Z" transform="translate(-347.588 -249.318)" fill="#3d4039"/>
      <path id="Path_2375" data-name="Path 2375" d="M402.222,264.468s3.266,7.684-.08,9.959c0,0-4.872,2.142-5.14-3.641C396.909,268.773,399.438,267.252,402.222,264.468Z" transform="translate(-347.588 -249.173)" fill="#fff"/>
      <path id="Path_2376" data-name="Path 2376" d="M402.777,264.468s3.186,7.657.134,9.531c0,0-4.676,2.409-4.944-3.373C397.874,268.612,400.029,267.966,402.777,264.468Z" transform="translate(-348.143 -249.173)" fill="#3d4039"/>
      <path id="Path_2377" data-name="Path 2377" d="M282.394,265.42c-.152,1.231-1.013,8.333-.647,8.895,0,0,2.008,1.633,3.239-.214,1.207-1.811-.338-6.5-2.442-8.73A.088.088,0,0,0,282.394,265.42Z" transform="translate(-281.274 -249.677)" fill="#fff"/>
      <path id="Path_2378" data-name="Path 2378" d="M282.872,268.322a50.94,50.94,0,0,0-.516,7.339.386.386,0,0,0,.163.238c.437.307,2.07,1.292,3.129-.3,1.112-1.668-.192-5.228-2.051-7.5A.412.412,0,0,0,282.872,268.322Z" transform="translate(-281.651 -251.178)" fill="#3d4039"/>
      <path id="Path_2379" data-name="Path 2379" d="M299.156,233.054s46.192-3.439,47.834-2.082c0,0,2.048-1.453,1.572-2.485l-47.1.409a30.247,30.247,0,0,0-3.088,2.838C298.424,231.947,298.763,233.036,299.156,233.054Z" transform="translate(-290.883 -228.486)" fill="#fff"/>
      <path id="Path_2380" data-name="Path 2380" d="M443.923,275.027s.111,6.053-2.408,6.532l-7.046.707.33-2.73,6.823-.813s1.015-.111,2.249-4.875a3.22,3.22,0,0,1,.21-.608A10.923,10.923,0,0,0,443.923,275.027Z" transform="translate(-369.132 -254.217)" fill="#fff"/>
      <path id="Path_2381" data-name="Path 2381" d="M421.39,262.1s.58-8,3.743-6.418c.661.33,1.387,1.872.726,6.661,0,0-.308-6.507-1.827-6.011C424.032,256.33,423.151,256.11,421.39,262.1Z" transform="translate(-361.612 -244.002)" fill="#fff" style="mix-blend-mode: multiply;isolation: isolate"/>
      <g id="Group_1694" data-name="Group 1694" transform="translate(3.326 11.79)">
        <g id="Group_1693" data-name="Group 1693" clip-path="url(#clip-path-4)">
          <g id="Group_1692" data-name="Group 1692" transform="translate(-3.042 0.37)">
            <line id="Line_12" data-name="Line 12" x2="55.413" y2="0.523" fill="none" stroke="#4b4c4b" stroke-miterlimit="10" stroke-width="1"/>
            <line id="Line_13" data-name="Line 13" x2="55.413" y2="0.523" transform="translate(0 1.125)" fill="none" stroke="#4b4c4b" stroke-miterlimit="10" stroke-width="1"/>
            <line id="Line_14" data-name="Line 14" x2="55.413" y2="0.523" transform="translate(0 2.25)" fill="none" stroke="#4b4c4b" stroke-miterlimit="10" stroke-width="1"/>
            <line id="Line_15" data-name="Line 15" x2="55.413" y2="0.523" transform="translate(0 3.376)" fill="none" stroke="#4b4c4b" stroke-miterlimit="10" stroke-width="1"/>
            <line id="Line_16" data-name="Line 16" x2="55.413" y2="0.523" transform="translate(0 4.501)" fill="none" stroke="#4b4c4b" stroke-miterlimit="10" stroke-width="1"/>
            <line id="Line_17" data-name="Line 17" x2="55.413" y2="0.523" transform="translate(0 5.626)" fill="none" stroke="#4b4c4b" stroke-miterlimit="10" stroke-width="1"/>
            <line id="Line_18" data-name="Line 18" x2="55.413" y2="0.523" transform="translate(0 6.751)" fill="none" stroke="#4b4c4b" stroke-miterlimit="10" stroke-width="1"/>
            <line id="Line_19" data-name="Line 19" x2="55.413" y2="0.523" transform="translate(0 7.876)" fill="none" stroke="#4b4c4b" stroke-miterlimit="10" stroke-width="1"/>
            <line id="Line_20" data-name="Line 20" x2="55.413" y2="0.523" transform="translate(0 9.001)" fill="none" stroke="#4b4c4b" stroke-miterlimit="10" stroke-width="1"/>
            <line id="Line_21" data-name="Line 21" x2="55.413" y2="0.523" transform="translate(0 10.126)" fill="none" stroke="#4b4c4b" stroke-miterlimit="10" stroke-width="1"/>
            <line id="Line_22" data-name="Line 22" x2="55.413" y2="0.523" transform="translate(0 11.252)" fill="none" stroke="#4b4c4b" stroke-miterlimit="10" stroke-width="1"/>
            <line id="Line_23" data-name="Line 23" x2="55.413" y2="0.523" transform="translate(0 12.377)" fill="none" stroke="#4b4c4b" stroke-miterlimit="10" stroke-width="1"/>
            <line id="Line_24" data-name="Line 24" x2="55.413" y2="0.523" transform="translate(0 13.502)" fill="none" stroke="#4b4c4b" stroke-miterlimit="10" stroke-width="1"/>
          </g>
        </g>
      </g>
      <path id="Path_2383" data-name="Path 2383" d="M333.578,291.545c-12.752.33-35.2.707-44.811-.36l-.094-.2a2,2,0,0,1,.107-1.465,8.909,8.909,0,0,1,.913-1.85l.051-.022,5.676,1.658s28.7.643,29.45.428,8.139-1.872,8.139-1.872l.321,1.979Z" transform="translate(-285.255 -262.502)" fill="#fff"/>
      <path id="Path_2384" data-name="Path 2384" d="M339.72,288.267l-.013.047-.24.788,0,.017a5.374,5.374,0,0,1-1.1,1.932s-3.718.133-9.283.274c-12.752.33-35.2.707-44.811-.36-.917-.1-1.713-.214-2.377-.343a10.567,10.567,0,0,1-1.135-2.617c1.422.582,9.625,3.662,22.052,2.69,0,0,26.56.159,29.557-1.427,1.03-.545,4.211-2,4.211-2s.551,1.2.93,1.358C338.021,288.848,339.72,288.267,339.72,288.267Z" transform="translate(-280.756 -262.283)" fill="#fff" style="mix-blend-mode: multiply;isolation: isolate"/>
      <path id="Path_2385" data-name="Path 2385" d="M333.49,271.414H317.569a2.57,2.57,0,0,1-2.57-2.57h0a2.57,2.57,0,0,1,2.57-2.57H333.49a2.57,2.57,0,0,1,2.57,2.57h0A2.57,2.57,0,0,1,333.49,271.414Z" transform="translate(-300.444 -250.212)" fill="#bfc4c1"/>
      <path id="Path_2386" data-name="Path 2386" d="M433.424,234.535s-2.788,4.8-17.811,1.319a5.86,5.86,0,0,0-.678-1.789s5.525,1.722,15.7-2.833l.113-.051A22.778,22.778,0,0,1,433.424,234.535Z" transform="translate(-357.9 -230.036)" fill="#fff"/>
      <path id="Path_2387" data-name="Path 2387" d="M286.215,252.947s-.928,4.069,5.5,5.069c0,0,9.281-3.784,11.066-3.784C302.778,254.232,290.285,251.52,286.215,252.947Z" transform="translate(-283.868 -242.311)" fill="#fff"/>
      <path id="Path_2388" data-name="Path 2388" d="M287.579,270.956a8.886,8.886,0,0,1,.913-1.85l.051-.022c.266-.056.805-9.321,5.3-10.336,0,0,8.85-3.517,10.045-2.964s12.208.073,12.208.073,10.426,1.427,12.851,5.569c0,0,2.694,5.14,2.857,7.873l.57,3.4.8.008-.518-3.5c-.2-2.892-2.838-7.96-2.97-8.21-2.605-4.45-13.032-5.924-13.474-5.984l-.077-.011-.077,0c-.044,0-4.456.193-7.944.193a18.157,18.157,0,0,1-3.867-.187,1.739,1.739,0,0,0-.736-.138c-2.117,0-8.893,2.651-9.926,3.06-4.12,1-5.209,7.335-5.675,10.05-.036.207-.075.433-.1.589a4.2,4.2,0,0,0-.662,1.247c-.109.262-.222.534-.336.76a2.048,2.048,0,0,0-.247,1.656l.984.1A1.561,1.561,0,0,1,287.579,270.956Z" transform="translate(-284.054 -243.654)" fill="#2a2b2a"/>
      <path id="Path_2389" data-name="Path 2389" d="M365,255.555s9.638-.571,13.993-3c0,0-9.925-4.5-22.847.643Z" transform="translate(-324.1 -241.278)" fill="#fff"/>
      <path id="Path_2390" data-name="Path 2390" d="M306.244,244.231s10.147.442,10.95.174c0,0,3.534-3.373,8.46-.054,0,0,13.547-.107,14.752-.321,0,0-2.945,2.472-3.373,4.042,0,0-7.934-.241-9.576.616s-7.032,6.488-12.458.134c0,0-6.461-1.347-7.675-1.2C307.324,247.618,306.959,246.374,306.244,244.231Z" transform="translate(-295.41 -236.767)" fill="#434443"/>
      <path id="Path_2391" data-name="Path 2391" d="M307.384,249.555l8.656,1.187s4.783,7.5,11.423.071l10.941-1.1.705-.794s-12.128,1.035-12.717,1.356c0,0-4.926,6.6-9,.054l-10.334-1.883Z" transform="translate(-295.881 -239.963)" fill="#d6e3dd"/>
      <path id="Path_2392" data-name="Path 2392" d="M340.336,251.416c0,1.163-1.31,2.106-2.927,2.106s-2.927-.943-2.927-2.106,1.31-2.106,2.927-2.106S340.336,250.253,340.336,251.416Z" transform="translate(-311.645 -240.458)" fill="#d6e3dd"/>
      <path id="Path_2393" data-name="Path 2393" d="M295.913,244.727s-6.782-1.426-8.211-.785c0,0-1.142-.073-1.429-.427a8.509,8.509,0,0,1,1.823-5.272,6.8,6.8,0,0,1,3.319-2.118,20.9,20.9,0,0,0,2.217,3.173h0a2.182,2.182,0,0,0,1.28.861S296.628,244.229,295.913,244.727Z" transform="translate(-283.928 -232.878)" fill="#d6e3dd"/>
      <path id="Path_2394" data-name="Path 2394" d="M394.367,238.453s-1.072,6.852-4.819,5.246c0,0-8.031.107-11.567.538a9.69,9.69,0,0,1,4.923-5.286,13.188,13.188,0,0,1,3.325-1.142s5.21-1.536,5.6-2.107c0,0,2.146.442,2.52,1.893A1.863,1.863,0,0,1,394.367,238.453Z" transform="translate(-336.655 -232.635)" fill="#d6e3dd"/>
      <path id="Path_2395" data-name="Path 2395" d="M296.1,239.3c-.141.008-3.837.247-5.536-1.055a6.8,6.8,0,0,1,3.319-2.118A20.9,20.9,0,0,0,296.1,239.3Z" transform="translate(-286.395 -232.878)" fill="#fff" opacity="0.62"/>
      <path id="Path_2396" data-name="Path 2396" d="M401.011,237.595l-.031.054a15.414,15.414,0,0,1-11.418,1.3,13.189,13.189,0,0,1,3.325-1.142s5.21-1.536,5.6-2.107C398.491,235.7,400.637,236.144,401.011,237.595Z" transform="translate(-343.313 -232.635)" fill="#fff" opacity="0.57"/>
      <path id="Path_2397" data-name="Path 2397" d="M444.5,234.865s4.176,8.3.535,22.435" transform="translate(-374.896 -232.154)" fill="none" stroke="#707070" stroke-linecap="round" stroke-miterlimit="10" stroke-width="0.2"/>
      <path id="Path_2398" data-name="Path 2398" d="M443.769,281.9c-.235,1.743-.814,3.834-2.253,4.108l-7.046.707a17.979,17.979,0,0,0,.275-3.9l1.845-1.844s5.945,3.213,6.639.857C443.349,281.42,443.538,281.493,443.769,281.9Z" transform="translate(-369.132 -258.661)" fill="#fff" style="mix-blend-mode: multiply;isolation: isolate"/>
    </g>
  </g>
</svg>
