<svg xmlns="http://www.w3.org/2000/svg" xmlns:xlink="http://www.w3.org/1999/xlink" width="85.855" height="35.332" viewBox="0 0 85.855 35.332">
  <defs>
    <clipPath id="clip-path">
      <path id="Path_2843" data-name="Path 2843" d="M285.088,341.046c-.37,1.9-1.489,7.684-1.479,8.072l14.063-.318s2.8-3.569,2.2-6.049c-.073-.3-9.293-2.183-14.041-2.3A.739.739,0,0,0,285.088,341.046Z" transform="translate(-283.609 -340.449)" fill="none"/>
    </clipPath>
    <clipPath id="clip-path-2">
      <path id="Path_2845" data-name="Path 2845" d="M203.261,341.983c2.057-.717,10.778-3.581,16.526-2.674a.325.325,0,0,1,.262.4c-.308,1.292-1.428,5.949-2.067,7.93a.9.9,0,0,1-.81.623l-14.766.8-.863-2.337,1.115-4.139A.988.988,0,0,1,203.261,341.983Z" transform="translate(-201.542 -339.134)" fill="none"/>
    </clipPath>
  </defs>
  <g id="Group_1895" data-name="Group 1895" transform="matrix(0.999, -0.035, 0.035, 0.999, -89.171, -323.951)">
    <path id="Path_2798" data-name="Path 2798" d="M162.494,357.215s-.025.426-.1,1.032c-.172,1.426-.6,3.847-1.576,4.08a7.109,7.109,0,0,1-2.395.2s.159-6.773-5.39-8.513c-3.287-1.028-9.67-1.067-10.613,8.784,0,0-37.531-.9-40.068-.493,0,0-.986-.178-.782-1.714a7.82,7.82,0,0,0-.018-.865c-.127-2.057-1.008-7.153-6.492-8.317,0,0-7.86-1.808-9.527,7.026-.077.415-.143.852-.188,1.314s-.086.942-.1,1.45c0,0-3.015.7-4.258-.317a20.541,20.541,0,0,1-3.174-.148l-.127-.87s.031-.036.082-.1c.278-.339,1.117-1.446.392-1.532a16.835,16.835,0,0,1-.2-5.337c.418-3,1.972-6.219,6.649-6.59,0,0,11.273-2.278,14.36-3.86,5.613-2.877,15.124-8.884,29.07-8.1,6.023.338,15.96.212,24.011,2.375a3.418,3.418,0,0,1,.543,1.152s5.573,5.895,5.9,6.193c.269.249.531.494.777.741a9.505,9.505,0,0,1,1.027,1.174c.932,1.289,1.281,2.779.3,5.032C160.6,351.009,163.118,355.19,162.494,357.215Z" transform="translate(0 -3.705)" fill="#278a9c"/>
    <g id="Group_1886" data-name="Group 1886" transform="translate(85.226 347.489)">
      <g id="Group_1880" data-name="Group 1880">
        <g id="Group_1879" data-name="Group 1879">
          <path id="Path_2799" data-name="Path 2799" d="M109.158,410.878l-1.927-.356s-.735-9.841,8.108-10c3.364-.062,9.043,2.188,8.253,10.633a3.385,3.385,0,0,1-2.286,1.661s4.372-7.572-4.063-10.482C114.266,401.3,108.4,403.509,109.158,410.878Z" transform="translate(-107.216 -400.517)" fill="#2a2b2a"/>
          <path id="Path_2800" data-name="Path 2800" d="M332.166,418.134l-1.24.064s-.672-8.809,7.773-9.457a8.046,8.046,0,0,1,8.273,9.22s-.123-.668-1.131-.351a7.515,7.515,0,0,0-4.946-6.691C337.977,409.739,332.294,410.873,332.166,418.134Z" transform="translate(-273.774 -406.628)" fill="#2a2b2a"/>
        </g>
      </g>
      <g id="Group_1885" data-name="Group 1885" transform="translate(1.158 1.117)">
        <g id="Group_1882" data-name="Group 1882" transform="translate(0 0)">
          <ellipse id="Ellipse_242" data-name="Ellipse 242" cx="6.804" cy="7.024" rx="6.804" ry="7.024" transform="translate(0 13.593) rotate(-87.336)" fill="#3d4039"/>
          <ellipse id="Ellipse_243" data-name="Ellipse 243" cx="5.006" cy="5.071" rx="5.006" ry="5.071" transform="matrix(0.046, -0.999, 0.999, 0.046, 1.792, 12.022)" fill="#d6e3dd"/>
          <path id="Path_2801" data-name="Path 2801" d="M133.128,422.693a3.487,3.487,0,1,1-3.32-3.675A3.5,3.5,0,0,1,133.128,422.693Z" transform="translate(-122.478 -415.407)" fill="#3d4039"/>
          <path id="Path_2802" data-name="Path 2802" d="M131.353,421.07l.144-1.329-2.737-.143c-.015-.05-.032-.1-.051-.147l2.145-1.594-.832-1.047-2.032,1.808c-.045-.027-.091-.051-.138-.074l.427-2.7-1.33-.135-.186,2.69a1.793,1.793,0,0,0-.2.049l-1.675-2.17-1.012.874,1.782,1.931a1.664,1.664,0,0,0-.207.374l-2.7-.235-.042,1.336,2.7,0c.014.043.028.085.045.126l-2.137,1.772.909.98,1.945-1.925a1.788,1.788,0,0,0,.228.112l-.57,2.674,1.316.236.368-2.825c.052-.013.1-.028.152-.045l-.031.023,1.577,2.284,1.075-.795-1.773-2.139a1.664,1.664,0,0,0,.186-.334Z" transform="translate(-119.911 -412.944)" fill="#d6e3dd"/>
          <g id="Group_1881" data-name="Group 1881" transform="translate(5.782 5.825)">
            <path id="Path_2803" data-name="Path 2803" d="M136.348,428.094a.381.381,0,1,1-.362-.4A.381.381,0,0,1,136.348,428.094Z" transform="translate(-135.281 -427.695)" fill="#c6c6c6" stroke="#3d4039" stroke-miterlimit="10" stroke-width="0.1"/>
            <path id="Path_2804" data-name="Path 2804" d="M142.722,429.1a.381.381,0,1,1-.362-.4A.381.381,0,0,1,142.722,429.1Z" transform="translate(-140.026 -428.447)" fill="#c6c6c6" stroke="#3d4039" stroke-miterlimit="10" stroke-width="0.1"/>
            <path id="Path_2805" data-name="Path 2805" d="M141.586,435.407a.381.381,0,1,1-.363-.4A.381.381,0,0,1,141.586,435.407Z" transform="translate(-139.181 -433.14)" fill="#c6c6c6" stroke="#3d4039" stroke-miterlimit="10" stroke-width="0.1"/>
            <path id="Path_2806" data-name="Path 2806" d="M135.147,434.394a.381.381,0,1,1-.362-.4A.381.381,0,0,1,135.147,434.394Z" transform="translate(-134.386 -432.386)" fill="#c6c6c6" stroke="#3d4039" stroke-miterlimit="10" stroke-width="0.1"/>
          </g>
        </g>
        <g id="Group_1884" data-name="Group 1884" transform="translate(57.118 2.298)">
          <path id="Path_2807" data-name="Path 2807" d="M349.4,421.018a7.027,7.027,0,1,1-6.7-7.123A6.917,6.917,0,0,1,349.4,421.018Z" transform="translate(-335.363 -413.887)" fill="#3d4039"/>
          <ellipse id="Ellipse_244" data-name="Ellipse 244" cx="5.006" cy="5.071" rx="5.006" ry="5.071" transform="translate(1.482 11.703) rotate(-87.331)" fill="#d6e3dd"/>
          <path id="Path_2808" data-name="Path 2808" d="M355.531,430.441a3.487,3.487,0,1,1-3.32-3.675A3.5,3.5,0,0,1,355.531,430.441Z" transform="translate(-345.19 -423.473)" fill="#3d4039"/>
          <path id="Path_2809" data-name="Path 2809" d="M353.756,428.818l.144-1.329-2.737-.143q-.022-.075-.051-.147l2.145-1.594-.832-1.047-2.031,1.808c-.045-.027-.091-.051-.138-.074l.427-2.7-1.33-.135-.186,2.69a1.767,1.767,0,0,0-.2.049l-1.675-2.17-1.012.874,1.782,1.931a1.66,1.66,0,0,0-.207.374l-2.7-.235-.042,1.336,2.7,0c.014.043.028.085.045.126l-2.137,1.772.909.98,1.945-1.925a1.788,1.788,0,0,0,.228.112l-.57,2.674,1.316.236.368-2.825c.052-.013.1-.028.152-.045l-.031.023,1.577,2.284,1.075-.795-1.773-2.139a1.674,1.674,0,0,0,.186-.335Z" transform="translate(-342.622 -421.01)" fill="#d6e3dd"/>
          <g id="Group_1883" data-name="Group 1883" transform="translate(5.473 5.506)">
            <path id="Path_2810" data-name="Path 2810" d="M358.751,435.842a.381.381,0,1,1-.362-.4A.381.381,0,0,1,358.751,435.842Z" transform="translate(-357.684 -435.443)" fill="#c6c6c6" stroke="#3d4039" stroke-miterlimit="10" stroke-width="0.1"/>
            <path id="Path_2811" data-name="Path 2811" d="M365.125,436.852a.381.381,0,1,1-.362-.4A.381.381,0,0,1,365.125,436.852Z" transform="translate(-362.43 -436.195)" fill="#c6c6c6" stroke="#3d4039" stroke-miterlimit="10" stroke-width="0.1"/>
            <path id="Path_2812" data-name="Path 2812" d="M363.989,443.155a.381.381,0,1,1-.363-.4A.381.381,0,0,1,363.989,443.155Z" transform="translate(-361.584 -440.888)" fill="#c6c6c6" stroke="#3d4039" stroke-miterlimit="10" stroke-width="0.1"/>
            <path id="Path_2813" data-name="Path 2813" d="M357.55,442.142a.381.381,0,1,1-.362-.4A.381.381,0,0,1,357.55,442.142Z" transform="translate(-356.789 -440.135)" fill="#c6c6c6" stroke="#3d4039" stroke-miterlimit="10" stroke-width="0.1"/>
          </g>
        </g>
      </g>
    </g>
    <g id="Group_1887" data-name="Group 1887" transform="translate(77.682 329.297)">
      <path id="Path_2814" data-name="Path 2814" d="M160.071,344.8l-.016,0a21.814,21.814,0,0,1-3.9-.666c-1.715-.053-3.761-.066-6.049-.048-12.792.108-33.208,1.218-46.453,2.015-7.658.466-12.92.822-12.92.822-3.838,2.737-11.941,5.981-11.941,5.981l-.026-.014c.418-3,1.972-6.219,6.649-6.59,0,0,1.961-.4,4.474-.974,3.507-.8,8.086-1.965,9.886-2.885,5.613-2.877,15.124-8.884,29.07-8.1,6.023.338,15.96.212,24.011,2.375a3.418,3.418,0,0,1,.543,1.152l0,0c.139.147,4.884,5.165,5.767,6.063.063.066.106.108.127.128C159.563,344.311,159.825,344.556,160.071,344.8Z" transform="translate(-78.488 -333.001)" fill="#fff"/>
      <path id="Path_2815" data-name="Path 2815" d="M253.108,382.9c-.026.566-1.232.97-2.693.9s-2.624-.582-2.6-1.148,1.232-.97,2.693-.9S253.134,382.332,253.108,382.9Z" transform="translate(-204.359 -368.347)" fill="#fff"/>
      <path id="Path_2816" data-name="Path 2816" d="M335.263,379.109c-.026.566-1.232.97-2.693.9s-2.624-.582-2.6-1.148,1.232-.97,2.693-.9S335.29,378.543,335.263,379.109Z" transform="translate(-265.53 -365.525)" fill="#fff"/>
      <path id="Path_2817" data-name="Path 2817" d="M371.912,388.557a1.7,1.7,0,1,1-1.618-1.776A1.7,1.7,0,0,1,371.912,388.557Z" transform="translate(-294.228 -372.096)" fill="#fff"/>
      <path id="Path_2818" data-name="Path 2818" d="M162.024,363.088s-8.146,4.172-4.752,4.33l4.218.143A12.794,12.794,0,0,1,162.024,363.088Z" transform="translate(-136.327 -354.457)" fill="#fff"/>
      <path id="Path_2819" data-name="Path 2819" d="M384.587,383.942c-1.418.112-5.816-4.159-5.816-4.159-1.663-2.2,5.343-.9,5.343-.9l.168.026C385.215,380.2,385.564,381.69,384.587,383.942Z" transform="translate(-301.674 -365.934)" fill="#d6e3dd"/>
      <path id="Path_2820" data-name="Path 2820" d="M203.261,341.983c2.057-.717,10.778-3.581,16.526-2.674a.325.325,0,0,1,.262.4c-.308,1.292-1.428,5.949-2.067,7.93a.9.9,0,0,1-.81.623l-14.766.8-.863-2.337,1.115-4.139A.988.988,0,0,1,203.261,341.983Z" transform="translate(-169.904 -336.621)" fill="#d6e3dd"/>
      <path id="Path_2821" data-name="Path 2821" d="M203.261,341.983c2.057-.717,10.778-3.581,16.526-2.674a.325.325,0,0,1,.262.4c-.308,1.292-1.428,5.949-2.067,7.93a.9.9,0,0,1-.81.623l-14.766.8-.863-2.337,1.115-4.139A.988.988,0,0,1,203.261,341.983Z" transform="translate(-169.904 -336.621)" fill="#d6e3dd"/>
      <path id="Path_2822" data-name="Path 2822" d="M203.261,341.983c2.057-.717,10.778-3.581,16.526-2.674a.325.325,0,0,1,.262.4c-.308,1.292-1.428,5.949-2.067,7.93a.9.9,0,0,1-.81.623l-14.766.8-.863-2.337,1.115-4.139A.988.988,0,0,1,203.261,341.983Z" transform="translate(-169.904 -336.621)" fill="#d6e3dd"/>
      <path id="Path_2823" data-name="Path 2823" d="M203.261,341.983c2.057-.717,10.778-3.581,16.526-2.674a.325.325,0,0,1,.262.4c-.308,1.292-1.428,5.949-2.067,7.93a.9.9,0,0,1-.81.623l-14.766.8-.863-2.337,1.115-4.139A.988.988,0,0,1,203.261,341.983Z" transform="translate(-169.904 -336.621)" fill="#d6e3dd"/>
      <path id="Path_2824" data-name="Path 2824" d="M85.345,433.995c-.053.459-.086.942-.1,1.45,0,0-3.015.7-4.258-.317a20.545,20.545,0,0,1-3.174-.148l-.127-.87s6.455.1,7.525-.111A.353.353,0,0,1,85.345,433.995Z" transform="translate(-77.682 -407.248)" fill="#fff"/>
      <path id="Path_2825" data-name="Path 2825" d="M81.007,414.112a8.387,8.387,0,0,1-3,.716c.278-.34,1.117-1.446.392-1.532,0,0,.884-4.765,2.886-5.069C81.28,408.227,82.621,414.054,81.007,414.112Z" transform="translate(-77.92 -388.066)" fill="#fff"/>
      <path id="Path_2826" data-name="Path 2826" d="M89.415,414.112c-.383-1.277.274-5.885.274-5.885S91.029,414.054,89.415,414.112Z" transform="translate(-86.328 -388.066)" fill="#fff"/>
      <path id="Path_2827" data-name="Path 2827" d="M165.681,401.416c-.883-.041-1.326-1.917-1.326-1.917.176-1.848-1.685-1.51-2.394-1.7-11.431-3.093-31.766-.192-36.069-.124a24.2,24.2,0,0,0-3.373,1.224,8.686,8.686,0,0,0-6.952-2.814c-8.314.553-7.5,8.311-7.5,8.311l.074.051c1.667-8.834,9.527-7.026,9.527-7.026a8.036,8.036,0,0,1,6.492,8.317c.017-.134,3.917.641,4.34.557l20.91.543,11.456.3s1.856.389,2.89-2.134c.051-.117.1-.242.142-.375a23.787,23.787,0,0,1,1.9-2.851C165.8,401.547,165.765,401.42,165.681,401.416Z" transform="translate(-100.288 -379.012)" fill="#fff"/>
      <path id="Path_2828" data-name="Path 2828" d="M188.833,426.478s16.592-3.4,29.671-1.072Z" transform="translate(-160.442 -400.249)" fill="#fff"/>
      <path id="Path_2829" data-name="Path 2829" d="M99.175,383.386s6.093,3.343,15.588-5.14l-8.835,1.423S102.155,382,99.175,383.386Z" transform="translate(-93.685 -365.743)" fill="#fff"/>
      <path id="Path_2830" data-name="Path 2830" d="M376.727,354.427c-.078-.03-.161-.068-.247-.11a10.829,10.829,0,0,1-5.52-5.953C371.1,348.511,375.844,353.529,376.727,354.427Z" transform="translate(-296.048 -343.494)" fill="#fff"/>
      <path id="Path_2831" data-name="Path 2831" d="M340.012,337.543s1.216-.982,1.424.265Z" transform="translate(-273.005 -335.163)" fill="#111"/>
      <rect id="Rectangle_1340" data-name="Rectangle 1340" width="0.124" height="2.758" transform="translate(69.743 0) rotate(37.172)" fill="#111"/>
      <path id="Path_2832" data-name="Path 2832" d="M231.948,411.549c-.172,1.426-.6,3.847-1.576,4.08a7.11,7.11,0,0,1-2.395.2s.159-6.773-5.39-8.513c-3.287-1.028-9.67-1.067-10.613,8.784,0,0-37.531-.9-40.068-.493,0,0-.986-.178-.782-1.714,0,0,.015-.439-.021-.974,0,0,33.812-3.318,39.6-.626,0,0,3.281-8.027,11.411-6.146a8.97,8.97,0,0,1,5.334,3.561s2.8,2.516,4.42,1.862A.259.259,0,0,1,231.948,411.549Z" transform="translate(-147.235 -386.303)" fill="#fff"/>
      <path id="Path_2833" data-name="Path 2833" d="M125.785,370.819s8.509-1.7,10.771-3.315c0,0-5.45,3.2-2.665,3.012,15.514-1.058,50.761-1.8,50.765-1.714.087,1.844-59.587,2.885-59.587,2.885S125.994,371.419,125.785,370.819Z" transform="translate(-112.965 -357.745)" fill="#fff"/>
      <path id="Path_2834" data-name="Path 2834" d="M330.859,340.6a10.731,10.731,0,0,0-2.864.8.593.593,0,0,1-.531.095,58.751,58.751,0,0,0-9.629-2.012A96.948,96.948,0,0,1,330.859,340.6Z" transform="translate(-256.492 -336.882)" fill="#fff"/>
      <path id="Path_2835" data-name="Path 2835" d="M98.754,379.158l-.084.083a1.282,1.282,0,0,1-.1.1c-3.665,3.6-9.032,3.225-9.032,3.225a4.016,4.016,0,0,1,1.555-3.02,5.54,5.54,0,0,1,1.812-.951c.139-.049.285-.09.434-.128,0,0,2.058-.323,4.571-.9l.031.014S100.566,378.273,98.754,379.158Z" transform="translate(-86.512 -365.233)" fill="#e0e9ef"/>
      <path id="Path_2836" data-name="Path 2836" d="M216.926,427.725c-1.034,2.523-2.89,2.134-2.89,2.134l-11.456-.3-20.91-.543a3.93,3.93,0,0,1-1.077.08l-1.136-.928s29.985-3.195,37.286-.5C216.8,427.688,216.868,427.706,216.926,427.725Z" transform="translate(-153.461 -401.736)" fill="#fff"/>
      <path id="Path_2837" data-name="Path 2837" d="M217.188,381.907a8.129,8.129,0,0,0-2.445,2.248,23.79,23.79,0,0,0-1.9,2.851c-.046.133-.091.258-.142.375-1.034,2.523-2.89,2.134-2.89,2.134l-11.456-.3-20.91-.543a3.931,3.931,0,0,1-1.077.08,1.624,1.624,0,0,1-1.485-1.988,16.81,16.81,0,0,1-1.1-6.256,28.9,28.9,0,0,1,.612-6.026c2.588-.471,14.073-.989,24.975-1.389,11.051-.406,21.508-.691,21.508-.691A9.511,9.511,0,0,1,217.188,381.907Z" transform="translate(-149.235 -361.393)" fill="none" stroke="#707070" stroke-miterlimit="10" stroke-width="0.2"/>
      <path id="Path_2838" data-name="Path 2838" d="M269.815,375.481s-2.133,13.088-1,15.857" transform="translate(-219.746 -363.684)" fill="none" stroke="#707070" stroke-miterlimit="10" stroke-width="0.2"/>
    </g>
    <g id="Group_1894" data-name="Group 1894" transform="translate(102.838 331.166)">
      <path id="Path_2839" data-name="Path 2839" d="M222.653,345.758a.161.161,0,0,1-.025.078c-5.969.051-13.6.319-21.387.67-8.9.405-18,.92-25.066,1.345l0-.014s-.143-4.743,1.548-5.529a50.64,50.64,0,0,1,25.675-5.6c4.635.314,17.856.764,18.263,3.413A54.339,54.339,0,0,1,222.653,345.758Z" transform="translate(-176.167 -336.617)" fill="#434443"/>
      <path id="Path_2840" data-name="Path 2840" d="M285.088,341.046c-.37,1.9-1.489,7.684-1.479,8.072l14.063-.318s2.8-3.569,2.2-6.049c-.073-.3-9.293-2.183-14.041-2.3A.739.739,0,0,0,285.088,341.046Z" transform="translate(-256.165 -339.47)" fill="#d6e3dd"/>
      <path id="Path_2841" data-name="Path 2841" d="M183.7,355.634a18.3,18.3,0,0,1,4.178-2,.237.237,0,0,1,.315.267,18.766,18.766,0,0,1-.969,3.837s-2.818.753-3.891.084C183.333,357.826,183.064,356.154,183.7,355.634Z" transform="translate(-181.461 -349.279)" fill="#d6e3dd"/>
      <path id="Path_2842" data-name="Path 2842" d="M190.752,363.805s1.094,2.127.037,3.006c0,0-3.066.387-3.1-1.69C187.687,365.12,187.905,363.275,190.752,363.805Z" transform="translate(-184.745 -356.789)" fill="#2a2b2a"/>
      <g id="Group_1890" data-name="Group 1890" transform="translate(27.444 0.979)">
        <g id="Group_1889" data-name="Group 1889" clip-path="url(#clip-path)">
          <g id="Group_1888" data-name="Group 1888" transform="translate(1.428 -1.934)" opacity="0.57">
            <rect id="Rectangle_1341" data-name="Rectangle 1341" width="1.36" height="14.618" transform="translate(9.738 0) rotate(41.773)" fill="#fff"/>
            <rect id="Rectangle_1342" data-name="Rectangle 1342" width="3.034" height="14.618" transform="matrix(0.746, 0.666, -0.666, 0.746, 12.467, 0.855)" fill="#fff"/>
          </g>
        </g>
      </g>
      <path id="Path_2844" data-name="Path 2844" d="M203.261,341.983c2.057-.717,10.778-3.581,16.526-2.674a.325.325,0,0,1,.262.4c-.308,1.292-1.428,5.949-2.067,7.93a.9.9,0,0,1-.81.623l-14.766.8-.863-2.337,1.115-4.139A.988.988,0,0,1,203.261,341.983Z" transform="translate(-195.061 -338.491)" fill="#d6e3dd"/>
      <g id="Group_1893" data-name="Group 1893" transform="translate(6.481 0.643)">
        <g id="Group_1892" data-name="Group 1892" clip-path="url(#clip-path-2)">
          <g id="Group_1891" data-name="Group 1891" transform="translate(1.796 -2.336)" opacity="0.56">
            <rect id="Rectangle_1343" data-name="Rectangle 1343" width="1.221" height="17.757" transform="matrix(0.78, 0.626, -0.626, 0.78, 11.113, 0.107)" fill="#fff"/>
            <rect id="Rectangle_1344" data-name="Rectangle 1344" width="4.758" height="17.757" transform="translate(14.23 0) rotate(38.743)" fill="#fff"/>
          </g>
        </g>
      </g>
    </g>
  </g>
</svg>
