<svg xmlns="http://www.w3.org/2000/svg" xmlns:xlink="http://www.w3.org/1999/xlink" width="167.506" height="40.615" viewBox="0 0 167.506 40.615"><defs><style>.a,.b,.o,.y{fill:none;}.b,.o{stroke:#707070;}.c{fill:#278a9c;}.d{fill:#2a2b2a;}.e{fill:#3d4039;}.f{fill:#d6e3dd;}.g{fill:#c6c6c6;stroke:#3d4039;stroke-width:0.1px;}.g,.o{stroke-miterlimit:10;}.h{fill:url(#a);}.i{fill:url(#b);}.j{fill:url(#c);}.k{fill:url(#d);}.l{fill:#111;}.m{fill:#e0e9ef;}.n{fill:url(#p);}.o{stroke-width:0.2px;}.p{fill:#434443;}.q{clip-path:url(#q);}.r{opacity:0.57;}.s{fill:#fff;}.t{clip-path:url(#r);}.u{opacity:0.56;}.v{clip-path:url(#s);}.w{clip-path:url(#aj);}.x{clip-path:url(#ak);}.y{stroke:#665eff;}.z{fill:url(#al);}.aa{fill:url(#am);}.ab{fill:url(#an);}.ac{fill:url(#ao);}.ad{fill:url(#ap);}.ae{fill:url(#aq);}.af{fill:url(#ar);}.ag{fill:url(#as);}.ah{fill:url(#at);}.ai{fill:url(#au);}.aj{fill:url(#av);}.ak{fill:url(#aw);}.al{fill:url(#ax);}.am{fill:url(#ay);}.an{fill:url(#az);}.ao{fill:url(#ba);}.ap{clip-path:url(#bb);}.aq{clip-path:url(#bc);}.ar{clip-path:url(#bu);}.as{clip-path:url(#bv);}.at{stroke:none;}</style><linearGradient id="a" y1="0.5" x2="1" y2="0.5" gradientUnits="objectBoundingBox"><stop offset="0" stop-color="#1a8d9e"/><stop offset="1" stop-color="#3acce1"/></linearGradient><linearGradient id="b" x1="-0.466" y1="2.509" x2="0.645" y2="0.199" xlink:href="#a"/><linearGradient id="c" x1="-0.595" y1="0.5" x2="0.405" y2="0.5" xlink:href="#a"/><linearGradient id="d" x1="-0.551" y1="0.5" x2="0.449" y2="0.5" xlink:href="#a"/><linearGradient id="p" x1="0.5" y1="0" x2="0.5" y2="1" xlink:href="#a"/><clipPath id="q"><path class="a" d="M285.088,341.046c-.37,1.9-1.489,7.684-1.479,8.072l14.063-.318s2.8-3.569,2.2-6.049c-.073-.3-9.293-2.183-14.041-2.3A.739.739,0,0,0,285.088,341.046Z" transform="translate(-283.609 -340.449)"/></clipPath><clipPath id="r"><path class="a" d="M203.261,341.983c2.057-.717,10.778-3.581,16.526-2.674a.325.325,0,0,1,.262.4c-.308,1.292-1.428,5.949-2.067,7.93a.9.9,0,0,1-.81.623l-14.766.8-.863-2.337,1.115-4.139A.988.988,0,0,1,203.261,341.983Z" transform="translate(-201.542 -339.134)"/></clipPath><clipPath id="s"><circle class="b" cx="16" cy="16" r="16" transform="translate(58 1855)"/></clipPath><clipPath id="aj"><path class="a" d="M285.4,341.17c-.447,2.3-1.8,9.288-1.788,9.756l17-.384s3.382-4.314,2.663-7.312c-.088-.366-11.232-2.638-16.971-2.781A.893.893,0,0,0,285.4,341.17Z" transform="translate(-283.609 -340.449)"/></clipPath><clipPath id="ak"><path class="a" d="M203.619,342.578c2.486-.867,13.028-4.328,19.975-3.231a.392.392,0,0,1,.317.48c-.372,1.562-1.726,7.191-2.5,9.585a1.089,1.089,0,0,1-.98.753l-17.848.966-1.043-2.825,1.347-5A1.194,1.194,0,0,1,203.619,342.578Z" transform="translate(-201.542 -339.134)"/></clipPath><linearGradient id="al" x1="-0.038" y1="0.5" x2="0.962" y2="0.5" xlink:href="#a"/><linearGradient id="am" x1="0.913" y1="2.509" x2="2.023" y2="0.199" xlink:href="#a"/><linearGradient id="an" x1="8.716" y1="0.5" x2="9.717" y2="0.5" xlink:href="#a"/><linearGradient id="ao" x1="19.184" y1="0.5" x2="20.184" y2="0.5" xlink:href="#a"/><linearGradient id="ap" x1="-7.007" y1="0.5" x2="-6.007" y2="0.5" xlink:href="#a"/><linearGradient id="aq" x1="-10.08" y1="0.5" x2="-9.08" y2="0.5" xlink:href="#a"/><linearGradient id="ar" x1="-21.298" y1="0.5" x2="-20.298" y2="0.5" xlink:href="#a"/><linearGradient id="as" x1="-85.222" y1="0.5" x2="-84.222" y2="0.5" xlink:href="#a"/><linearGradient id="at" x1="-0.202" y1="0.5" x2="0.798" y2="0.5" xlink:href="#a"/><linearGradient id="au" x1="0.052" y1="0.5" x2="1.052" y2="0.5" xlink:href="#a"/><linearGradient id="av" x1="-3.743" y1="0.5" x2="-2.743" y2="0.5" xlink:href="#a"/><linearGradient id="aw" x1="12.256" y1="0.5" x2="13.256" y2="0.5" xlink:href="#a"/><linearGradient id="ax" x1="0.389" y1="0.5" x2="1.389" y2="0.5" xlink:href="#a"/><linearGradient id="ay" x1="-0.019" y1="0.5" x2="0.981" y2="0.5" xlink:href="#a"/><linearGradient id="az" x1="3.9" y1="0.5" x2="4.9" y2="0.5" xlink:href="#a"/><linearGradient id="ba" x1="0.621" y1="0" x2="0.621" y2="1" xlink:href="#a"/><clipPath id="bb"><path class="a" d="M156.665,566.344c.347,1.782,1.395,7.2,1.386,7.562l-13.175-.3s-2.622-3.344-2.064-5.667c.068-.284,8.707-2.045,13.155-2.156A.692.692,0,0,1,156.665,566.344Z" transform="translate(-142.734 -565.785)"/></clipPath><clipPath id="bc"><path class="a" d="M232.056,567.14c-1.927-.672-10.1-3.355-15.483-2.5a.3.3,0,0,0-.246.372c.288,1.211,1.338,5.574,1.937,7.43a.845.845,0,0,0,.759.584l13.834.748.809-2.19-1.045-3.877A.925.925,0,0,0,232.056,567.14Z" transform="translate(-216.319 -564.471)"/></clipPath><clipPath id="bu"><path class="a" d="M160.326,566.491c.438,2.25,1.761,9.091,1.75,9.549l-16.637-.376s-3.31-4.222-2.606-7.156c.086-.358,10.994-2.582,16.611-2.722A.874.874,0,0,1,160.326,566.491Z" transform="translate(-142.734 -565.785)"/></clipPath><clipPath id="bv"><path class="a" d="M236.19,567.842c-2.433-.849-12.751-4.236-19.55-3.163a.384.384,0,0,0-.31.47c.364,1.529,1.689,7.038,2.445,9.382a1.067,1.067,0,0,0,.959.737l17.468.945,1.021-2.765-1.319-4.9A1.167,1.167,0,0,0,236.19,567.842Z" transform="translate(-216.319 -564.471)"/></clipPath></defs><g transform="translate(-56.045 -3631.385)"><g transform="matrix(0.999, -0.035, 0.035, 0.999, -33.127, 3307.434)"><path class="c" d="M162.494,357.215s-.025.426-.1,1.032c-.172,1.426-.6,3.847-1.576,4.08a7.109,7.109,0,0,1-2.395.2s.159-6.773-5.39-8.513c-3.287-1.028-9.67-1.067-10.613,8.784,0,0-37.531-.9-40.068-.493,0,0-.986-.178-.782-1.714a7.82,7.82,0,0,0-.018-.865c-.127-2.057-1.008-7.153-6.492-8.317,0,0-7.86-1.808-9.527,7.026-.077.415-.143.852-.188,1.314s-.086.942-.1,1.45c0,0-3.015.7-4.258-.317a20.541,20.541,0,0,1-3.174-.148l-.127-.87s.031-.036.082-.1c.278-.339,1.117-1.446.392-1.532a16.835,16.835,0,0,1-.2-5.337c.418-3,1.972-6.219,6.649-6.59,0,0,11.273-2.278,14.36-3.86,5.613-2.877,15.124-8.884,29.07-8.1,6.023.338,15.96.212,24.011,2.375a3.418,3.418,0,0,1,.543,1.152s5.573,5.895,5.9,6.193c.269.249.531.494.777.741a9.505,9.505,0,0,1,1.027,1.174c.932,1.289,1.281,2.779.3,5.032C160.6,351.009,163.118,355.19,162.494,357.215Z" transform="translate(0 -3.705)"/><g transform="translate(85.226 347.489)"><path class="d" d="M109.158,410.878l-1.927-.356s-.735-9.841,8.108-10c3.364-.062,9.043,2.188,8.253,10.633a3.385,3.385,0,0,1-2.286,1.661s4.372-7.572-4.063-10.482C114.266,401.3,108.4,403.509,109.158,410.878Z" transform="translate(-107.216 -400.517)"/><path class="d" d="M332.166,418.134l-1.24.064s-.672-8.809,7.773-9.457a8.046,8.046,0,0,1,8.273,9.22s-.123-.668-1.131-.351a7.515,7.515,0,0,0-4.946-6.691C337.977,409.739,332.294,410.873,332.166,418.134Z" transform="translate(-273.774 -406.628)"/><g transform="translate(1.158 1.117)"><g transform="translate(0 0)"><ellipse class="e" cx="6.804" cy="7.024" rx="6.804" ry="7.024" transform="translate(0 13.593) rotate(-87.336)"/><ellipse class="f" cx="5.006" cy="5.071" rx="5.006" ry="5.071" transform="matrix(0.046, -0.999, 0.999, 0.046, 1.792, 12.022)"/><path class="e" d="M133.128,422.693a3.487,3.487,0,1,1-3.32-3.675A3.5,3.5,0,0,1,133.128,422.693Z" transform="translate(-122.478 -415.407)"/><path class="f" d="M131.353,421.07l.144-1.329-2.737-.143c-.015-.05-.032-.1-.051-.147l2.145-1.594-.832-1.047-2.032,1.808c-.045-.027-.091-.051-.138-.074l.427-2.7-1.33-.135-.186,2.69a1.793,1.793,0,0,0-.2.049l-1.675-2.17-1.012.874,1.782,1.931a1.664,1.664,0,0,0-.207.374l-2.7-.235-.042,1.336,2.7,0c.014.043.028.085.045.126l-2.137,1.772.909.98,1.945-1.925a1.788,1.788,0,0,0,.228.112l-.57,2.674,1.316.236.368-2.825c.052-.013.1-.028.152-.045l-.031.023,1.577,2.284,1.075-.795-1.773-2.139a1.664,1.664,0,0,0,.186-.334Z" transform="translate(-119.911 -412.944)"/><g transform="translate(5.782 5.825)"><path class="g" d="M136.348,428.094a.381.381,0,1,1-.362-.4A.381.381,0,0,1,136.348,428.094Z" transform="translate(-135.281 -427.695)"/><path class="g" d="M142.722,429.1a.381.381,0,1,1-.362-.4A.381.381,0,0,1,142.722,429.1Z" transform="translate(-140.026 -428.447)"/><path class="g" d="M141.586,435.407a.381.381,0,1,1-.363-.4A.381.381,0,0,1,141.586,435.407Z" transform="translate(-139.181 -433.14)"/><path class="g" d="M135.147,434.394a.381.381,0,1,1-.362-.4A.381.381,0,0,1,135.147,434.394Z" transform="translate(-134.386 -432.386)"/></g></g><g transform="translate(57.118 2.298)"><path class="e" d="M349.4,421.018a7.027,7.027,0,1,1-6.7-7.123A6.917,6.917,0,0,1,349.4,421.018Z" transform="translate(-335.363 -413.887)"/><ellipse class="f" cx="5.006" cy="5.071" rx="5.006" ry="5.071" transform="translate(1.482 11.703) rotate(-87.331)"/><path class="e" d="M355.531,430.441a3.487,3.487,0,1,1-3.32-3.675A3.5,3.5,0,0,1,355.531,430.441Z" transform="translate(-345.19 -423.473)"/><path class="f" d="M353.756,428.818l.144-1.329-2.737-.143q-.022-.075-.051-.147l2.145-1.594-.832-1.047-2.031,1.808c-.045-.027-.091-.051-.138-.074l.427-2.7-1.33-.135-.186,2.69a1.767,1.767,0,0,0-.2.049l-1.675-2.17-1.012.874,1.782,1.931a1.66,1.66,0,0,0-.207.374l-2.7-.235-.042,1.336,2.7,0c.014.043.028.085.045.126l-2.137,1.772.909.98,1.945-1.925a1.788,1.788,0,0,0,.228.112l-.57,2.674,1.316.236.368-2.825c.052-.013.1-.028.152-.045l-.031.023,1.577,2.284,1.075-.795-1.773-2.139a1.674,1.674,0,0,0,.186-.335Z" transform="translate(-342.622 -421.01)"/><g transform="translate(5.473 5.506)"><path class="g" d="M358.751,435.842a.381.381,0,1,1-.362-.4A.381.381,0,0,1,358.751,435.842Z" transform="translate(-357.684 -435.443)"/><path class="g" d="M365.125,436.852a.381.381,0,1,1-.362-.4A.381.381,0,0,1,365.125,436.852Z" transform="translate(-362.43 -436.195)"/><path class="g" d="M363.989,443.155a.381.381,0,1,1-.363-.4A.381.381,0,0,1,363.989,443.155Z" transform="translate(-361.584 -440.888)"/><path class="g" d="M357.55,442.142a.381.381,0,1,1-.362-.4A.381.381,0,0,1,357.55,442.142Z" transform="translate(-356.789 -440.135)"/></g></g></g></g><g transform="translate(77.682 329.297)"><path class="h" d="M160.071,344.8l-.016,0a21.814,21.814,0,0,1-3.9-.666c-1.715-.053-3.761-.066-6.049-.048-12.792.108-33.208,1.218-46.453,2.015-7.658.466-12.92.822-12.92.822-3.838,2.737-11.941,5.981-11.941,5.981l-.026-.014c.418-3,1.972-6.219,6.649-6.59,0,0,1.961-.4,4.474-.974,3.507-.8,8.086-1.965,9.886-2.885,5.613-2.877,15.124-8.884,29.07-8.1,6.023.338,15.96.212,24.011,2.375a3.418,3.418,0,0,1,.543,1.152l0,0c.139.147,4.884,5.165,5.767,6.063.063.066.106.108.127.128C159.563,344.311,159.825,344.556,160.071,344.8Z" transform="translate(-78.488 -333.001)"/><path class="i" d="M253.108,382.9c-.026.566-1.232.97-2.693.9s-2.624-.582-2.6-1.148,1.232-.97,2.693-.9S253.134,382.332,253.108,382.9Z" transform="translate(-204.359 -368.347)"/><path class="j" d="M335.263,379.109c-.026.566-1.232.97-2.693.9s-2.624-.582-2.6-1.148,1.232-.97,2.693-.9S335.29,378.543,335.263,379.109Z" transform="translate(-265.53 -365.525)"/><path class="k" d="M371.912,388.557a1.7,1.7,0,1,1-1.618-1.776A1.7,1.7,0,0,1,371.912,388.557Z" transform="translate(-294.228 -372.096)"/><path class="h" d="M162.024,363.088s-8.146,4.172-4.752,4.33l4.218.143A12.794,12.794,0,0,1,162.024,363.088Z" transform="translate(-136.327 -354.457)"/><path class="f" d="M384.587,383.942c-1.418.112-5.816-4.159-5.816-4.159-1.663-2.2,5.343-.9,5.343-.9l.168.026C385.215,380.2,385.564,381.69,384.587,383.942Z" transform="translate(-301.674 -365.934)"/><path class="f" d="M203.261,341.983c2.057-.717,10.778-3.581,16.526-2.674a.325.325,0,0,1,.262.4c-.308,1.292-1.428,5.949-2.067,7.93a.9.9,0,0,1-.81.623l-14.766.8-.863-2.337,1.115-4.139A.988.988,0,0,1,203.261,341.983Z" transform="translate(-169.904 -336.621)"/><path class="f" d="M203.261,341.983c2.057-.717,10.778-3.581,16.526-2.674a.325.325,0,0,1,.262.4c-.308,1.292-1.428,5.949-2.067,7.93a.9.9,0,0,1-.81.623l-14.766.8-.863-2.337,1.115-4.139A.988.988,0,0,1,203.261,341.983Z" transform="translate(-169.904 -336.621)"/><path class="f" d="M203.261,341.983c2.057-.717,10.778-3.581,16.526-2.674a.325.325,0,0,1,.262.4c-.308,1.292-1.428,5.949-2.067,7.93a.9.9,0,0,1-.81.623l-14.766.8-.863-2.337,1.115-4.139A.988.988,0,0,1,203.261,341.983Z" transform="translate(-169.904 -336.621)"/><path class="f" d="M203.261,341.983c2.057-.717,10.778-3.581,16.526-2.674a.325.325,0,0,1,.262.4c-.308,1.292-1.428,5.949-2.067,7.93a.9.9,0,0,1-.81.623l-14.766.8-.863-2.337,1.115-4.139A.988.988,0,0,1,203.261,341.983Z" transform="translate(-169.904 -336.621)"/><path class="h" d="M85.345,433.995c-.053.459-.086.942-.1,1.45,0,0-3.015.7-4.258-.317a20.545,20.545,0,0,1-3.174-.148l-.127-.87s6.455.1,7.525-.111A.353.353,0,0,1,85.345,433.995Z" transform="translate(-77.682 -407.248)"/><path class="h" d="M81.007,414.112a8.387,8.387,0,0,1-3,.716c.278-.34,1.117-1.446.392-1.532,0,0,.884-4.765,2.886-5.069C81.28,408.227,82.621,414.054,81.007,414.112Z" transform="translate(-77.92 -388.066)"/><path class="h" d="M89.415,414.112c-.383-1.277.274-5.885.274-5.885S91.029,414.054,89.415,414.112Z" transform="translate(-86.328 -388.066)"/><path class="h" d="M165.681,401.416c-.883-.041-1.326-1.917-1.326-1.917.176-1.848-1.685-1.51-2.394-1.7-11.431-3.093-31.766-.192-36.069-.124a24.2,24.2,0,0,0-3.373,1.224,8.686,8.686,0,0,0-6.952-2.814c-8.314.553-7.5,8.311-7.5,8.311l.074.051c1.667-8.834,9.527-7.026,9.527-7.026a8.036,8.036,0,0,1,6.492,8.317c.017-.134,3.917.641,4.34.557l20.91.543,11.456.3s1.856.389,2.89-2.134c.051-.117.1-.242.142-.375a23.787,23.787,0,0,1,1.9-2.851C165.8,401.547,165.765,401.42,165.681,401.416Z" transform="translate(-100.288 -379.012)"/><path class="h" d="M188.833,426.478s16.592-3.4,29.671-1.072Z" transform="translate(-160.442 -400.249)"/><path class="h" d="M99.175,383.386s6.093,3.343,15.588-5.14l-8.835,1.423S102.155,382,99.175,383.386Z" transform="translate(-93.685 -365.743)"/><path class="h" d="M376.727,354.427c-.078-.03-.161-.068-.247-.11a10.829,10.829,0,0,1-5.52-5.953C371.1,348.511,375.844,353.529,376.727,354.427Z" transform="translate(-296.048 -343.494)"/><path class="l" d="M340.012,337.543s1.216-.982,1.424.265Z" transform="translate(-273.005 -335.163)"/><rect class="l" width="0.124" height="2.758" transform="translate(69.743 0) rotate(37.172)"/><path class="h" d="M231.948,411.549c-.172,1.426-.6,3.847-1.576,4.08a7.11,7.11,0,0,1-2.395.2s.159-6.773-5.39-8.513c-3.287-1.028-9.67-1.067-10.613,8.784,0,0-37.531-.9-40.068-.493,0,0-.986-.178-.782-1.714,0,0,.015-.439-.021-.974,0,0,33.812-3.318,39.6-.626,0,0,3.281-8.027,11.411-6.146a8.97,8.97,0,0,1,5.334,3.561s2.8,2.516,4.42,1.862A.259.259,0,0,1,231.948,411.549Z" transform="translate(-147.235 -386.303)"/><path class="h" d="M125.785,370.819s8.509-1.7,10.771-3.315c0,0-5.45,3.2-2.665,3.012,15.514-1.058,50.761-1.8,50.765-1.714.087,1.844-59.587,2.885-59.587,2.885S125.994,371.419,125.785,370.819Z" transform="translate(-112.965 -357.745)"/><path class="h" d="M330.859,340.6a10.731,10.731,0,0,0-2.864.8.593.593,0,0,1-.531.095,58.751,58.751,0,0,0-9.629-2.012A96.948,96.948,0,0,1,330.859,340.6Z" transform="translate(-256.492 -336.882)"/><path class="m" d="M98.754,379.158l-.084.083a1.282,1.282,0,0,1-.1.1c-3.665,3.6-9.032,3.225-9.032,3.225a4.016,4.016,0,0,1,1.555-3.02,5.54,5.54,0,0,1,1.812-.951c.139-.049.285-.09.434-.128,0,0,2.058-.323,4.571-.9l.031.014S100.566,378.273,98.754,379.158Z" transform="translate(-86.512 -365.233)"/><path class="n" d="M216.926,427.725c-1.034,2.523-2.89,2.134-2.89,2.134l-11.456-.3-20.91-.543a3.93,3.93,0,0,1-1.077.08l-1.136-.928s29.985-3.195,37.286-.5C216.8,427.688,216.868,427.706,216.926,427.725Z" transform="translate(-153.461 -401.736)"/><path class="o" d="M217.188,381.907a8.129,8.129,0,0,0-2.445,2.248,23.79,23.79,0,0,0-1.9,2.851c-.046.133-.091.258-.142.375-1.034,2.523-2.89,2.134-2.89,2.134l-11.456-.3-20.91-.543a3.931,3.931,0,0,1-1.077.08,1.624,1.624,0,0,1-1.485-1.988,16.81,16.81,0,0,1-1.1-6.256,28.9,28.9,0,0,1,.612-6.026c2.588-.471,14.073-.989,24.975-1.389,11.051-.406,21.508-.691,21.508-.691A9.511,9.511,0,0,1,217.188,381.907Z" transform="translate(-149.235 -361.393)"/><path class="o" d="M269.815,375.481s-2.133,13.088-1,15.857" transform="translate(-219.746 -363.684)"/></g><g transform="translate(102.838 331.166)"><path class="p" d="M222.653,345.758a.161.161,0,0,1-.025.078c-5.969.051-13.6.319-21.387.67-8.9.405-18,.92-25.066,1.345l0-.014s-.143-4.743,1.548-5.529a50.64,50.64,0,0,1,25.675-5.6c4.635.314,17.856.764,18.263,3.413A54.339,54.339,0,0,1,222.653,345.758Z" transform="translate(-176.167 -336.617)"/><path class="f" d="M285.088,341.046c-.37,1.9-1.489,7.684-1.479,8.072l14.063-.318s2.8-3.569,2.2-6.049c-.073-.3-9.293-2.183-14.041-2.3A.739.739,0,0,0,285.088,341.046Z" transform="translate(-256.165 -339.47)"/><path class="f" d="M183.7,355.634a18.3,18.3,0,0,1,4.178-2,.237.237,0,0,1,.315.267,18.766,18.766,0,0,1-.969,3.837s-2.818.753-3.891.084C183.333,357.826,183.064,356.154,183.7,355.634Z" transform="translate(-181.461 -349.279)"/><path class="d" d="M190.752,363.805s1.094,2.127.037,3.006c0,0-3.066.387-3.1-1.69C187.687,365.12,187.905,363.275,190.752,363.805Z" transform="translate(-184.745 -356.789)"/><g transform="translate(27.444 0.979)"><g class="q"><g class="r" transform="translate(1.428 -1.934)"><rect class="s" width="1.36" height="14.618" transform="translate(9.738 0) rotate(41.773)"/><rect class="s" width="3.034" height="14.618" transform="matrix(0.746, 0.666, -0.666, 0.746, 12.467, 0.855)"/></g></g></g><path class="f" d="M203.261,341.983c2.057-.717,10.778-3.581,16.526-2.674a.325.325,0,0,1,.262.4c-.308,1.292-1.428,5.949-2.067,7.93a.9.9,0,0,1-.81.623l-14.766.8-.863-2.337,1.115-4.139A.988.988,0,0,1,203.261,341.983Z" transform="translate(-195.061 -338.491)"/><g transform="translate(6.481 0.643)"><g class="t"><g class="u" transform="translate(1.796 -2.336)"><rect class="s" width="1.221" height="17.757" transform="matrix(0.78, 0.626, -0.626, 0.78, 11.113, 0.107)"/><rect class="s" width="4.758" height="17.757" transform="translate(14.23 0) rotate(38.743)"/></g></g></g></g></g><g class="v" transform="translate(52 1785)"><g transform="matrix(0.999, -0.035, 0.035, 0.999, -103.109, 1518.071)"><path class="c" d="M180.192,362s-.03.515-.119,1.247c-.208,1.724-.729,4.65-1.9,4.932,0,0-2.427.528-2.895.24,0,0,.192-8.186-6.515-10.289-3.973-1.242-11.688-1.29-12.828,10.617,0,0-45.363-1.094-48.429-.6,0,0-1.191-.215-.945-2.072a9.451,9.451,0,0,0-.022-1.045c-.153-2.487-1.219-8.646-7.846-10.053,0,0-9.5-2.185-11.515,8.493-.094.5-.173,1.03-.228,1.588s-.1,1.139-.126,1.753c0,0-3.644.846-5.147-.383a24.83,24.83,0,0,1-3.836-.178l-.153-1.051s.037-.043.1-.12c.336-.41,1.35-1.747.474-1.852a20.348,20.348,0,0,1-.238-6.451c.505-3.629,2.384-7.517,8.037-7.966,0,0,13.625-2.753,17.357-4.665,6.784-3.478,18.28-10.738,35.136-9.794,7.279.409,19.291.256,29.021,2.871a4.131,4.131,0,0,1,.656,1.392s6.736,7.125,7.126,7.486c.325.3.642.6.939.9a11.489,11.489,0,0,1,1.241,1.419c1.126,1.558,1.548,3.359.368,6.082C177.9,354.5,180.946,359.555,180.192,362Z" transform="translate(0 -3.439)"/><g transform="translate(86.8 351.285)"><path class="d" d="M109.563,413.04l-2.329-.43s-.889-11.894,9.8-12.092c4.066-.075,10.93,2.644,9.975,12.852a4.092,4.092,0,0,1-2.763,2.007s5.285-9.152-4.911-12.67C115.737,401.467,108.642,404.133,109.563,413.04Z" transform="translate(-107.216 -400.517)"/><path class="d" d="M332.427,420.1l-1.5.077s-.813-10.647,9.4-11.431a9.725,9.725,0,0,1,10,11.144s-.148-.808-1.367-.424a9.083,9.083,0,0,0-5.978-8.087C339.451,409.951,332.582,411.321,332.427,420.1Z" transform="translate(-261.85 -406.191)"/><g transform="translate(1.4 1.351)"><g transform="translate(0 0)"><ellipse class="e" cx="8.224" cy="8.489" rx="8.224" ry="8.489" transform="translate(0 16.43) rotate(-87.336)"/><ellipse class="f" cx="6.051" cy="6.129" rx="6.051" ry="6.129" transform="matrix(0.046, -0.999, 0.999, 0.046, 2.166, 14.531)"/><path class="e" d="M134.583,423.46a4.214,4.214,0,1,1-4.012-4.442A4.233,4.233,0,0,1,134.583,423.46Z" transform="translate(-121.71 -414.654)"/><path class="f" d="M133.157,422.189l.174-1.606-3.308-.173c-.018-.06-.038-.12-.062-.178l2.592-1.927-1.006-1.265-2.456,2.185c-.054-.032-.11-.061-.167-.089l.516-3.266-1.608-.164-.225,3.252a2.163,2.163,0,0,0-.245.059l-2.024-2.623-1.223,1.057,2.153,2.334a2.012,2.012,0,0,0-.25.452l-3.259-.284-.051,1.615,3.266,0c.016.052.034.1.054.152l-2.583,2.142,1.1,1.185,2.351-2.327a2.159,2.159,0,0,0,.276.136l-.688,3.231,1.591.285.444-3.415c.062-.015.123-.034.184-.055l-.038.028,1.906,2.76,1.3-.961-2.143-2.585a2.011,2.011,0,0,0,.225-.4Z" transform="translate(-119.326 -412.367)"/><g transform="translate(6.989 7.04)"><path class="g" d="M136.507,428.177a.46.46,0,1,1-.438-.481A.46.46,0,0,1,136.507,428.177Z" transform="translate(-135.217 -427.695)"/><path class="g" d="M142.881,429.187a.46.46,0,1,1-.438-.481A.46.46,0,0,1,142.881,429.187Z" transform="translate(-139.623 -428.393)"/><path class="g" d="M141.745,435.49a.46.46,0,1,1-.438-.481A.46.46,0,0,1,141.745,435.49Z" transform="translate(-138.837 -432.751)"/><path class="g" d="M135.306,434.477a.46.46,0,1,1-.438-.481A.46.46,0,0,1,135.306,434.477Z" transform="translate(-134.386 -432.05)"/></g></g><g transform="translate(69.037 2.777)"><path class="e" d="M352.332,422.506a8.494,8.494,0,1,1-8.1-8.609A8.36,8.36,0,0,1,352.332,422.506Z" transform="translate(-335.363 -413.887)"/><ellipse class="f" cx="6.051" cy="6.129" rx="6.051" ry="6.129" transform="translate(1.792 14.145) rotate(-87.331)"/><path class="e" d="M356.985,431.208a4.215,4.215,0,1,1-4.012-4.442A4.233,4.233,0,0,1,356.985,431.208Z" transform="translate(-344.486 -422.787)"/><path class="f" d="M355.56,429.937l.174-1.607-3.308-.173q-.027-.09-.061-.178l2.592-1.927-1.006-1.265-2.455,2.185c-.054-.032-.11-.061-.167-.089l.517-3.266-1.608-.164-.225,3.252a2.133,2.133,0,0,0-.245.059l-2.024-2.623L346.52,425.2l2.154,2.334a2,2,0,0,0-.25.453l-3.259-.284-.051,1.615,3.266,0c.016.052.034.1.054.152l-2.583,2.142,1.1,1.185,2.351-2.327a2.165,2.165,0,0,0,.276.136l-.689,3.231,1.591.285.444-3.415c.062-.015.123-.034.184-.055l-.038.028,1.906,2.76,1.3-.961-2.143-2.585a2.023,2.023,0,0,0,.225-.4Z" transform="translate(-342.103 -420.5)"/><g transform="translate(6.615 6.655)"><path class="g" d="M358.91,435.925a.46.46,0,1,1-.438-.481A.46.46,0,0,1,358.91,435.925Z" transform="translate(-357.62 -435.443)"/><path class="g" d="M365.284,436.935a.46.46,0,1,1-.438-.481A.46.46,0,0,1,365.284,436.935Z" transform="translate(-362.026 -436.142)"/><path class="g" d="M364.148,443.238a.46.46,0,1,1-.438-.481A.46.46,0,0,1,364.148,443.238Z" transform="translate(-361.24 -440.499)"/><path class="g" d="M357.709,442.225a.46.46,0,1,1-.438-.481A.46.46,0,0,1,357.709,442.225Z" transform="translate(-356.789 -439.799)"/></g></g></g></g><g transform="translate(77.682 329.297)"><path class="h" d="M177.037,347c-.006,0-.013,0-.019,0a26.367,26.367,0,0,1-4.714-.805c-2.073-.064-4.546-.08-7.312-.058-15.461.13-40.138,1.472-56.147,2.435-9.256.563-15.617.994-15.617.994C88.59,352.877,78.8,356.8,78.8,356.8l-.031-.017c.505-3.629,2.384-7.517,8.037-7.966,0,0,2.37-.479,5.408-1.178,4.239-.972,9.773-2.374,11.949-3.487,6.784-3.478,18.28-10.738,35.136-9.794,7.279.409,19.291.256,29.021,2.871a4.132,4.132,0,0,1,.656,1.392l0,0c.168.178,5.9,6.243,6.97,7.328.076.08.128.131.153.154C176.424,346.405,176.741,346.7,177.037,347Z" transform="translate(-78.431 -332.736)"/><path class="i" d="M254.212,383.139c-.032.684-1.489,1.172-3.255,1.09s-3.171-.7-3.139-1.387,1.489-1.172,3.254-1.09S254.243,382.455,254.212,383.139Z" transform="translate(-195.291 -365.551)"/><path class="j" d="M336.367,379.35c-.032.684-1.489,1.172-3.254,1.09s-3.171-.7-3.139-1.387,1.489-1.172,3.254-1.09S336.4,378.666,336.367,379.35Z" transform="translate(-252.083 -362.932)"/><path class="k" d="M372.62,388.928a2.053,2.053,0,1,1-1.956-2.147A2.054,2.054,0,0,1,372.62,388.928Z" transform="translate(-278.726 -369.032)"/><path class="h" d="M163.189,363.088s-9.846,5.042-5.743,5.233l5.1.173A15.464,15.464,0,0,1,163.189,363.088Z" transform="translate(-132.129 -352.655)"/><path class="f" d="M385.854,385.077c-1.714.135-7.029-5.027-7.029-5.027-2.01-2.656,6.458-1.087,6.458-1.087l.2.032C386.613,380.554,387.035,382.355,385.854,385.077Z" transform="translate(-285.639 -363.312)"/><path class="f" d="M203.619,342.578c2.486-.867,13.028-4.328,19.975-3.231a.392.392,0,0,1,.317.48c-.372,1.562-1.726,7.191-2.5,9.585a1.089,1.089,0,0,1-.98.753l-17.848.966-1.043-2.825,1.347-5A1.194,1.194,0,0,1,203.619,342.578Z" transform="translate(-163.302 -336.097)"/><path class="f" d="M203.619,342.578c2.486-.867,13.028-4.328,19.975-3.231a.392.392,0,0,1,.317.48c-.372,1.562-1.726,7.191-2.5,9.585a1.089,1.089,0,0,1-.98.753l-17.848.966-1.043-2.825,1.347-5A1.194,1.194,0,0,1,203.619,342.578Z" transform="translate(-163.302 -336.097)"/><path class="f" d="M203.619,342.578c2.486-.867,13.028-4.328,19.975-3.231a.392.392,0,0,1,.317.48c-.372,1.562-1.726,7.191-2.5,9.585a1.089,1.089,0,0,1-.98.753l-17.848.966-1.043-2.825,1.347-5A1.194,1.194,0,0,1,203.619,342.578Z" transform="translate(-163.302 -336.097)"/><path class="f" d="M203.619,342.578c2.486-.867,13.028-4.328,19.975-3.231a.392.392,0,0,1,.317.48c-.372,1.562-1.726,7.191-2.5,9.585a1.089,1.089,0,0,1-.98.753l-17.848.966-1.043-2.825,1.347-5A1.194,1.194,0,0,1,203.619,342.578Z" transform="translate(-163.302 -336.097)"/><path class="h" d="M86.944,434c-.064.555-.1,1.139-.126,1.753,0,0-3.644.846-5.147-.383a24.83,24.83,0,0,1-3.836-.178l-.153-1.052s7.8.126,9.1-.135A.428.428,0,0,1,86.944,434Z" transform="translate(-77.682 -401.667)"/><path class="h" d="M81.634,415.34s-2.509,1.053-3.632.866c.336-.41,1.35-1.747.474-1.852,0,0,1.069-5.759,3.489-6.127C81.964,408.227,83.585,415.27,81.634,415.34Z" transform="translate(-77.903 -383.859)"/><path class="h" d="M89.44,415.34c-.463-1.543.331-7.113.331-7.113S91.391,415.27,89.44,415.34Z" transform="translate(-85.709 -383.859)"/><path class="h" d="M177.708,402.533c-1.068-.05-1.6-2.317-1.6-2.317.213-2.233-2.037-1.825-2.893-2.057-13.816-3.738-38.395-.233-43.6-.15a29.249,29.249,0,0,0-4.077,1.479,10.5,10.5,0,0,0-8.4-3.4c-10.049.668-9.066,10.045-9.066,10.045l.09.062c2.015-10.678,11.515-8.493,11.515-8.493a9.713,9.713,0,0,1,7.846,10.053c.02-.162,4.734.774,5.245.673l25.273.656,13.846.362s2.243.47,3.493-2.58c.061-.141.116-.293.172-.454a28.747,28.747,0,0,1,2.3-3.446C177.855,402.69,177.81,402.537,177.708,402.533Z" transform="translate(-98.67 -375.453)"/><path class="h" d="M188.833,426.872s20.055-4.114,35.862-1.3Z" transform="translate(-154.517 -395.169)"/><path class="h" d="M99.175,384.458s7.364,4.04,18.841-6.212l-10.678,1.72S102.777,382.783,99.175,384.458Z" transform="translate(-92.539 -363.134)"/><path class="h" d="M377.93,355.692c-.094-.037-.195-.083-.3-.132a13.089,13.089,0,0,1-6.672-7.2C371.128,348.541,376.863,354.607,377.93,355.692Z" transform="translate(-280.415 -342.477)"/><path class="l" d="M340.012,337.619s1.47-1.186,1.721.32Z" transform="translate(-259.022 -334.743)"/><rect class="l" width="0.15" height="3.334" transform="translate(84.297 0) rotate(37.172)"/><path class="h" d="M244.646,412.736c-.208,1.724-.729,4.65-1.9,4.932,0,0-2.427.528-2.895.24,0,0,.192-8.186-6.515-10.289-3.973-1.242-11.688-1.29-12.828,10.617,0,0-45.363-1.094-48.429-.6,0,0-1.191-.216-.945-2.072,0,0,.018-.531-.025-1.177,0,0,40.868-4.011,47.861-.757,0,0,3.966-9.7,13.792-7.429a10.843,10.843,0,0,1,6.448,4.3s3.383,3.041,5.342,2.251A.313.313,0,0,1,244.646,412.736Z" transform="translate(-142.256 -382.222)"/><path class="h" d="M125.934,371.511s10.285-2.052,13.019-4.007c0,0-6.587,3.869-3.221,3.64,18.751-1.278,61.354-2.171,61.359-2.072.1,2.229-72.022,3.487-72.022,3.487S126.188,372.237,125.934,371.511Z" transform="translate(-110.439 -355.708)"/><path class="h" d="M333.577,340.83a12.971,12.971,0,0,0-3.462.971.717.717,0,0,1-.642.114,71.009,71.009,0,0,0-11.639-2.432A117.181,117.181,0,0,1,333.577,340.83Z" transform="translate(-243.691 -336.339)"/><path class="m" d="M100.676,379.491l-.1.1a1.556,1.556,0,0,1-.117.117c-4.43,4.351-10.916,3.9-10.916,3.9a4.854,4.854,0,0,1,1.88-3.65,6.7,6.7,0,0,1,2.19-1.15c.168-.059.344-.109.525-.155,0,0,2.488-.39,5.525-1.091l.038.017S102.866,378.421,100.676,379.491Z" transform="translate(-85.88 -362.66)"/><path class="n" d="M224.745,427.962c-1.25,3.049-3.493,2.58-3.493,2.58l-13.846-.362-25.273-.656a4.75,4.75,0,0,1-1.3.1l-1.374-1.122s36.242-3.861,45.067-.608C224.6,427.918,224.675,427.939,224.745,427.962Z" transform="translate(-148.036 -396.55)"/><path class="o" d="M226.246,383.89a9.825,9.825,0,0,0-2.955,2.717,28.753,28.753,0,0,0-2.3,3.446c-.055.161-.111.312-.172.453-1.25,3.049-3.493,2.58-3.493,2.58l-13.846-.362-25.273-.656a4.752,4.752,0,0,1-1.3.1,1.962,1.962,0,0,1-1.795-2.4,20.317,20.317,0,0,1-1.33-7.562,34.927,34.927,0,0,1,.739-7.283c3.128-.569,17.01-1.2,30.187-1.678,13.357-.491,26-.835,26-.835A11.5,11.5,0,0,1,226.246,383.89Z" transform="translate(-144.113 -359.095)"/><path class="o" d="M270.093,375.481s-2.578,15.819-1.212,19.167" transform="translate(-209.575 -361.222)"/></g><g transform="translate(108.088 331.557)"><path class="p" d="M232.354,347.665a.194.194,0,0,1-.03.095c-7.215.062-16.437.386-25.851.81-10.755.49-21.757,1.112-30.3,1.625l-.006-.016s-.173-5.733,1.871-6.683c0,0,13.968-7.917,31.032-6.765,5.6.379,21.583.923,22.074,4.125A65.675,65.675,0,0,1,232.354,347.665Z" transform="translate(-176.167 -336.617)"/><path class="f" d="M285.4,341.17c-.447,2.3-1.8,9.288-1.788,9.756l17-.384s3.382-4.314,2.663-7.312c-.088-.366-11.232-2.638-16.971-2.781A.893.893,0,0,0,285.4,341.17Z" transform="translate(-250.438 -339.266)"/><path class="f" d="M183.788,356.054a22.122,22.122,0,0,1,5.05-2.412.287.287,0,0,1,.381.322c-.223,1.187-.856,4.434-1.171,4.638,0,0-3.406.91-4.7.1C183.345,358.7,183.02,356.682,183.788,356.054Z" transform="translate(-181.082 -348.373)"/><path class="d" d="M191.392,363.825s1.322,2.571.045,3.633c0,0-3.706.468-3.75-2.043C187.687,365.415,187.951,363.185,191.392,363.825Z" transform="translate(-184.13 -355.345)"/><g transform="translate(33.171 1.183)"><g class="w"><g class="r" transform="translate(1.726 -2.338)"><rect class="s" width="1.644" height="17.668" transform="translate(11.77 0) rotate(41.773)"/><rect class="s" width="3.667" height="17.668" transform="matrix(0.746, 0.666, -0.666, 0.746, 15.068, 1.033)"/></g></g></g><path class="f" d="M203.619,342.578c2.486-.867,13.028-4.328,19.975-3.231a.392.392,0,0,1,.317.48c-.372,1.562-1.726,7.191-2.5,9.585a1.089,1.089,0,0,1-.98.753l-17.848.966-1.043-2.825,1.347-5A1.194,1.194,0,0,1,203.619,342.578Z" transform="translate(-193.708 -338.357)"/><g transform="translate(7.834 0.777)"><g class="x"><g class="u" transform="translate(2.171 -2.823)"><rect class="s" width="1.476" height="21.462" transform="matrix(0.78, 0.626, -0.626, 0.78, 13.432, 0.129)"/><rect class="s" width="5.75" height="21.462" transform="translate(17.2 0) rotate(38.743)"/></g></g></g></g></g></g><g class="y" transform="translate(110 3640)"><circle class="at" cx="16" cy="16" r="16"/><circle class="a" cx="16" cy="16" r="15.5"/></g><g transform="translate(86 -37)"><g transform="translate(-22.246 3114.142)"><path class="c" d="M80.339,581.1s.023.4.092.967c.162,1.336.565,3.6,1.477,3.823a6.668,6.668,0,0,0,2.244.186S84,579.733,89.2,578.1c3.079-.963,9.06-1,9.944,8.229,0,0,35.161-.848,37.539-.462,0,0,.923-.167.732-1.606a7.4,7.4,0,0,1,.017-.81c.119-1.928.945-6.7,6.082-7.792,0,0,7.364-1.693,8.926,6.583.073.389.134.8.176,1.231s.081.883.1,1.359c0,0,2.824.656,3.989-.3a19.236,19.236,0,0,0,2.973-.138l.119-.815s-.029-.033-.076-.093c-.261-.318-1.046-1.354-.367-1.436a15.774,15.774,0,0,0,.185-5c-.391-2.813-1.848-5.827-6.23-6.174,0,0-10.561-2.134-13.454-3.616-5.258-2.7-14.169-8.323-27.235-7.591-5.642.317-14.953.2-22.495,2.226a3.2,3.2,0,0,0-.509,1.079s-5.221,5.522-5.524,5.8c-.252.233-.5.463-.728.694a8.939,8.939,0,0,0-.962,1.1c-.873,1.208-1.2,2.6-.285,4.714C82.117,575.289,79.754,579.206,80.339,581.1Z" transform="translate(0 -3.784)"/><g transform="translate(84.099 571.677)"><g transform="translate(0 0)"><path class="d" d="M332.325,635.561l1.806-.333s.689-9.219-7.6-9.372c-3.152-.058-8.472,2.05-7.732,9.962a3.172,3.172,0,0,0,2.142,1.556s-4.1-7.094,3.806-9.821C327.539,626.59,333.039,628.657,332.325,635.561Z" transform="translate(-265.515 -625.854)"/><path class="d" d="M110.272,642.877l1.162.06s.63-8.253-7.282-8.86a7.538,7.538,0,0,0-7.751,8.638s.115-.626,1.06-.329a7.041,7.041,0,0,1,4.634-6.269C104.828,635.012,110.152,636.074,110.272,642.877Z" transform="translate(-96.347 -632.098)"/></g><g transform="translate(0.873 1.047)"><g transform="translate(52.933 0)"><ellipse class="e" cx="6.58" cy="6.374" rx="6.58" ry="6.374" transform="translate(0 0.612) rotate(-2.664)"/><ellipse class="f" cx="4.751" cy="4.69" rx="4.751" ry="4.69" transform="matrix(0.999, -0.046, 0.046, 0.999, 2.133, 2.334)"/><path class="e" d="M336.893,647.8a3.267,3.267,0,1,0,3.11-3.443A3.281,3.281,0,0,0,336.893,647.8Z" transform="translate(-333.132 -640.972)"/><path class="f" d="M333.376,646.067l-.134-1.245,2.564-.134c.014-.047.029-.093.048-.138l-2.009-1.494.78-.98,1.9,1.693c.042-.025.085-.048.13-.069l-.4-2.532,1.246-.127.174,2.521a1.617,1.617,0,0,1,.19.045l1.569-2.033.947.819-1.669,1.809a1.556,1.556,0,0,1,.194.351l2.526-.22.04,1.252-2.531,0c-.013.04-.026.079-.042.117l2,1.66-.852.918-1.823-1.8a1.657,1.657,0,0,1-.214.105l.534,2.5-1.233.221-.344-2.647c-.048-.012-.1-.026-.142-.042l.029.022-1.477,2.139-1.007-.745,1.661-2a1.569,1.569,0,0,1-.175-.313Z" transform="translate(-330.357 -638.454)"/><g transform="translate(5.796 5.457)"><path class="g" d="M351.783,653.406a.357.357,0,1,0,.34-.373A.357.357,0,0,0,351.783,653.406Z" transform="translate(-350.257 -653.032)"/><path class="g" d="M345.409,654.416a.357.357,0,1,0,.34-.373A.357.357,0,0,0,345.409,654.416Z" transform="translate(-345.408 -653.801)"/><path class="g" d="M346.545,660.719a.357.357,0,1,0,.34-.373A.357.357,0,0,0,346.545,660.719Z" transform="translate(-346.272 -658.595)"/><path class="g" d="M352.984,659.706a.357.357,0,1,0,.34-.373A.357.357,0,0,0,352.984,659.706Z" transform="translate(-351.171 -657.825)"/></g></g><g transform="translate(0 2.153)"><path class="e" d="M100,645.9a6.584,6.584,0,1,0,6.277-6.673A6.48,6.48,0,0,0,100,645.9Z" transform="translate(-99.995 -639.224)"/><ellipse class="f" cx="4.751" cy="4.69" rx="4.751" ry="4.69" transform="translate(1.843 2.036) rotate(-2.669)"/><path class="e" d="M114.49,655.545a3.267,3.267,0,1,0,3.11-3.443A3.281,3.281,0,0,0,114.49,655.545Z" transform="translate(-111.019 -649.018)"/><path class="f" d="M110.973,653.815l-.134-1.245,2.564-.134c.014-.047.029-.093.048-.138l-2.009-1.494.78-.98,1.9,1.693c.042-.025.085-.048.13-.069l-.4-2.532,1.246-.127.174,2.521a1.681,1.681,0,0,1,.19.045l1.569-2.033.947.819-1.669,1.809a1.553,1.553,0,0,1,.194.351l2.526-.22.039,1.252-2.531,0c-.012.04-.026.079-.042.118l2,1.66-.852.919-1.823-1.8a1.642,1.642,0,0,1-.214.1l.533,2.505-1.233.221-.344-2.647c-.048-.012-.1-.026-.142-.042l.029.022-1.477,2.139-1.007-.745,1.661-2a1.563,1.563,0,0,1-.175-.314Z" transform="translate(-108.244 -646.501)"/><g transform="translate(5.507 5.159)"><path class="g" d="M129.38,661.154a.357.357,0,1,0,.34-.373A.357.357,0,0,0,129.38,661.154Z" transform="translate(-127.854 -660.78)"/><path class="g" d="M123.006,662.164a.357.357,0,1,0,.34-.373A.357.357,0,0,0,123.006,662.164Z" transform="translate(-123.005 -661.549)"/><path class="g" d="M124.143,668.467a.357.357,0,1,0,.34-.373A.357.357,0,0,0,124.143,668.467Z" transform="translate(-123.87 -666.343)"/><path class="g" d="M130.581,667.454a.357.357,0,1,0,.34-.373A.357.357,0,0,0,130.581,667.454Z" transform="translate(-128.768 -665.573)"/></g></g></g></g><g transform="translate(80.431 554.633)"><path class="z" d="M93.277,569.475l.015,0a20.462,20.462,0,0,0,3.654-.624c1.607-.05,3.523-.062,5.667-.045,11.984.1,31.112,1.141,43.521,1.887,7.175.436,12.1.771,12.1.771,3.6,2.564,11.187,5.6,11.187,5.6l.024-.013c-.391-2.813-1.848-5.827-6.23-6.174,0,0-1.837-.371-4.192-.913-3.286-.754-7.575-1.84-9.262-2.7-5.258-2.7-14.17-8.323-27.235-7.591-5.642.317-14.953.2-22.495,2.226a3.2,3.2,0,0,0-.509,1.079l0,0c-.13.138-4.575,4.839-5.4,5.68-.059.062-.1.1-.118.12C93.752,569.013,93.507,569.243,93.277,569.475Z" transform="translate(-90.344 -558.418)"/><path class="aa" d="M221.821,608.162c.025.53,1.154.909,2.522.845s2.458-.545,2.433-1.075-1.154-.909-2.523-.845S221.8,607.632,221.821,608.162Z" transform="translate(-188.126 -594.529)"/><path class="ab" d="M139.665,604.373c.025.53,1.154.909,2.523.845s2.458-.545,2.433-1.075-1.154-.909-2.523-.845S139.64,603.843,139.665,604.373Z" transform="translate(-125.63 -591.647)"/><path class="ac" d="M108.533,613.781a1.592,1.592,0,1,0,1.516-1.664A1.592,1.592,0,0,0,108.533,613.781Z" transform="translate(-101.948 -598.36)"/><path class="ad" d="M312.063,588.425s7.632,3.908,4.452,4.056l-3.951.134A11.986,11.986,0,0,0,312.063,588.425Z" transform="translate(-256.773 -580.338)"/><path class="f" d="M86.327,608.935c1.329.1,5.449-3.9,5.449-3.9,1.558-2.059-5.006-.843-5.006-.843l-.158.025C85.739,605.429,85.412,606.825,86.327,608.935Z" transform="translate(-84.641 -592.064)"/><path class="f" d="M232.056,567.14c-1.927-.672-10.1-3.355-15.483-2.5a.3.3,0,0,0-.246.372c.288,1.211,1.338,5.574,1.937,7.43a.845.845,0,0,0,.759.584l13.834.748.809-2.19-1.045-3.877A.925.925,0,0,0,232.056,567.14Z" transform="translate(-183.941 -562.117)"/><path class="f" d="M232.056,567.14c-1.927-.672-10.1-3.355-15.483-2.5a.3.3,0,0,0-.246.372c.288,1.211,1.338,5.574,1.937,7.43a.845.845,0,0,0,.759.584l13.834.748.809-2.19-1.045-3.877A.925.925,0,0,0,232.056,567.14Z" transform="translate(-183.941 -562.117)"/><path class="f" d="M232.056,567.14c-1.927-.672-10.1-3.355-15.483-2.5a.3.3,0,0,0-.246.372c.288,1.211,1.338,5.574,1.937,7.43a.845.845,0,0,0,.759.584l13.834.748.809-2.19-1.045-3.877A.925.925,0,0,0,232.056,567.14Z" transform="translate(-183.941 -562.117)"/><path class="f" d="M232.056,567.14c-1.927-.672-10.1-3.355-15.483-2.5a.3.3,0,0,0-.246.372c.288,1.211,1.338,5.574,1.937,7.43a.845.845,0,0,0,.759.584l13.834.748.809-2.19-1.045-3.877A.925.925,0,0,0,232.056,567.14Z" transform="translate(-183.941 -562.117)"/><path class="ae" d="M382.667,659.331c.05.43.081.883.1,1.359,0,0,2.824.656,3.989-.3a19.244,19.244,0,0,0,2.973-.138l.119-.815s-6.047.1-7.05-.1A.331.331,0,0,0,382.667,659.331Z" transform="translate(-310.481 -634.273)"/><path class="af" d="M398.215,639.077a7.861,7.861,0,0,0,2.815.671c-.261-.318-1.046-1.354-.367-1.436,0,0-.828-4.464-2.7-4.749C397.959,633.564,396.7,639.024,398.215,639.077Z" transform="translate(-321.741 -614.676)"/><path class="ag" d="M398.215,639.077c.359-1.2-.256-5.513-.256-5.513S396.7,639.024,398.215,639.077Z" transform="translate(-321.741 -614.676)"/><path class="ah" d="M156.314,626.416c.828-.039,1.242-1.8,1.242-1.8-.165-1.731,1.579-1.415,2.243-1.594,10.709-2.9,29.76-.18,33.792-.116a22.634,22.634,0,0,1,3.16,1.146,8.137,8.137,0,0,1,6.513-2.636c7.789.517,7.027,7.786,7.027,7.786l-.07.048c-1.562-8.276-8.926-6.583-8.926-6.583a7.529,7.529,0,0,0-6.082,7.793c-.016-.126-3.67.6-4.066.522l-19.59.509-10.732.28s-1.739.364-2.708-2c-.047-.11-.09-.227-.133-.352a22.265,22.265,0,0,0-1.781-2.671C156.2,626.537,156.235,626.419,156.314,626.416Z" transform="translate(-138.213 -605.426)"/><path class="ai" d="M213.155,651.7s-15.545-3.188-27.8-1Z" transform="translate(-160.389 -627.122)"/><path class="aj" d="M344.753,608.4s-5.708,3.132-14.6-4.815l8.277,1.334S341.961,607.1,344.753,608.4Z" transform="translate(-270.531 -591.868)"/><path class="ak" d="M96.813,579.381c.073-.028.151-.064.231-.1a10.143,10.143,0,0,0,5.172-5.577C102.086,573.839,97.641,578.54,96.813,579.381Z" transform="translate(-93.034 -569.138)"/><path class="l" d="M146.1,562.856s-1.14-.919-1.334.248Z" transform="translate(-129.51 -560.627)"/><rect class="l" width="0.116" height="2.584" transform="translate(15.586 2.059) rotate(142.828)"/><path class="al" d="M81.02,636.527c.162,1.336.565,3.6,1.477,3.823a6.667,6.667,0,0,0,2.244.186s-.149-6.345,5.05-7.975c3.079-.963,9.06-1,9.944,8.229,0,0,35.161-.848,37.539-.462,0,0,.923-.167.732-1.606,0,0-.014-.412.02-.912,0,0-31.678-3.109-37.1-.587,0,0-3.074-7.521-10.69-5.758a8.4,8.4,0,0,0-5,3.336s-2.622,2.357-4.141,1.745A.239.239,0,0,0,81.02,636.527Z" transform="translate(-81.02 -612.875)"/><path class="am" d="M187.154,595.947s-7.972-1.59-10.091-3.106c0,0,5.106,3,2.5,2.821-14.534-.991-47.557-1.683-47.56-1.606-.081,1.728,55.826,2.7,55.826,2.7S186.957,596.509,187.154,595.947Z" transform="translate(-119.799 -583.698)"/><path class="an" d="M121.525,565.864a10.04,10.04,0,0,1,2.683.753.555.555,0,0,0,.5.088,55.032,55.032,0,0,1,9.022-1.884A90.813,90.813,0,0,0,121.525,565.864Z" transform="translate(-111.832 -562.383)"/><path class="m" d="M362.842,604.394l.078.078a1.215,1.215,0,0,0,.091.091c3.434,3.372,8.462,3.021,8.462,3.021a3.763,3.763,0,0,0-1.457-2.829,5.185,5.185,0,0,0-1.7-.891c-.13-.046-.267-.085-.407-.12,0,0-1.928-.3-4.283-.846l-.029.013S361.144,603.565,362.842,604.394Z" transform="translate(-294.945 -591.348)"/><path class="ao" d="M164.2,652.99c.969,2.364,2.708,2,2.708,2l10.732-.28,19.59-.509a3.676,3.676,0,0,0,1.009.075l1.065-.87s-28.092-2.993-34.932-.471C164.318,652.956,164.258,652.972,164.2,652.99Z" transform="translate(-144.298 -628.642)"/><path class="o" d="M135.111,606.644a7.613,7.613,0,0,1,2.291,2.106,22.271,22.271,0,0,1,1.781,2.671c.043.125.086.242.133.352.969,2.364,2.708,2,2.708,2l10.732-.28,19.59-.509a3.678,3.678,0,0,0,1.009.075,1.521,1.521,0,0,0,1.391-1.863,15.742,15.742,0,0,0,1.031-5.861,27.084,27.084,0,0,0-.573-5.645c-2.424-.441-13.185-.927-23.4-1.3-10.353-.38-20.15-.647-20.15-.647A8.91,8.91,0,0,0,135.111,606.644Z" transform="translate(-119.409 -587.425)"/><path class="o" d="M216.65,600.818s2,12.262.939,14.856" transform="translate(-184.193 -589.766)"/></g><g transform="translate(92.677 556.385)"><path class="p" d="M132.192,570.518a.153.153,0,0,0,.023.074c5.592.048,12.741.3,20.037.628,8.337.38,16.865.862,23.483,1.26l0-.013s.134-4.444-1.45-5.18a47.443,47.443,0,0,0-24.054-5.244c-4.342.294-16.729.716-17.11,3.2A50.922,50.922,0,0,0,132.192,570.518Z" transform="translate(-132.191 -561.954)"/><path class="f" d="M156.665,566.344c.347,1.782,1.395,7.2,1.386,7.562l-13.175-.3s-2.622-3.344-2.064-5.667c.068-.284,8.707-2.045,13.155-2.156A.692.692,0,0,1,156.665,566.344Z" transform="translate(-140.211 -564.868)"/><path class="f" d="M292.023,580.844a17.131,17.131,0,0,0-3.914-1.87.222.222,0,0,0-.3.25,17.566,17.566,0,0,0,.907,3.595s2.64.705,3.646.079C292.366,582.9,292.618,581.331,292.023,580.844Z" transform="translate(-250.569 -574.89)"/><path class="d" d="M289.182,589.135s-1.025,1.993-.035,2.816c0,0,2.873.363,2.906-1.584C292.053,590.368,291.849,588.639,289.182,589.135Z" transform="translate(-251.259 -582.563)"/><g transform="translate(2.523 0.917)"><g class="ap"><g class="r" transform="translate(0.18 -1.812)"><rect class="s" width="1.274" height="13.695" transform="translate(13.799 10.213) rotate(138.227)"/><rect class="s" width="2.842" height="13.695" transform="matrix(-0.746, 0.666, -0.666, -0.746, 11.243, 11.014)"/></g></g></g><path class="f" d="M232.056,567.14c-1.927-.672-10.1-3.355-15.483-2.5a.3.3,0,0,0-.246.372c.288,1.211,1.338,5.574,1.937,7.43a.845.845,0,0,0,.759.584l13.834.748.809-2.19-1.045-3.877A.925.925,0,0,0,232.056,567.14Z" transform="translate(-196.187 -563.868)"/><g transform="translate(20.132 0.602)"><g class="aq"><g class="u" transform="translate(-1.144 -2.188)"><rect class="s" width="1.144" height="16.636" transform="matrix(-0.78, 0.626, -0.626, -0.78, 16.808, 13.075)"/><rect class="s" width="4.457" height="16.636" transform="translate(13.888 12.975) rotate(141.257)"/></g></g></g></g></g><g class="v" transform="translate(1.55 1822)"><g transform="translate(-22.246 1288.808)"><path class="c" d="M80.364,586.75s.03.5.116,1.221c.2,1.687.713,4.551,1.864,4.827,0,0,2.376.516,2.833.235,0,0-.188-8.012,6.377-10.071,3.888-1.216,11.44-1.263,12.556,10.391,0,0,44.4-1.071,47.4-.583,0,0,1.166-.211.925-2.028a9.343,9.343,0,0,1,.021-1.023c.15-2.434,1.193-8.462,7.68-9.84,0,0,9.3-2.138,11.271,8.313.092.491.169,1.008.223,1.554s.1,1.115.124,1.716c0,0,3.566.828,5.038-.376a24.289,24.289,0,0,0,3.755-.174l.15-1.029s-.037-.042-.1-.118c-.329-.4-1.321-1.71-.464-1.813a19.918,19.918,0,0,0,.233-6.313c-.494-3.552-2.333-7.358-7.867-7.8,0,0-13.336-2.694-16.988-4.566-6.64-3.4-17.892-10.51-34.39-9.586-7.125.4-18.881.251-28.4,2.81a4.043,4.043,0,0,0-.642,1.362s-6.593,6.973-6.975,7.326c-.319.294-.628.584-.919.877a11.288,11.288,0,0,0-1.215,1.389c-1.1,1.525-1.515,3.288-.36,5.953C82.609,579.409,79.625,584.354,80.364,586.75Z" transform="translate(0 -3.472)"/><g transform="translate(85.112 576.155)"><g transform="translate(0 0)"><path class="d" d="M335.9,638.111l2.28-.421s.87-11.642-9.592-11.835c-3.98-.073-10.7,2.588-9.763,12.579a4,4,0,0,0,2.7,1.965s-5.173-8.958,4.806-12.4C329.853,626.784,336.8,629.393,335.9,638.111Z" transform="translate(-251.534 -625.854)"/><path class="d" d="M113.93,645.193l1.467.076s.8-10.421-9.2-11.188a9.519,9.519,0,0,0-9.787,10.908s.145-.791,1.338-.415a8.89,8.89,0,0,1,5.851-7.916C107.055,635.262,113.779,636.6,113.93,645.193Z" transform="translate(-96.347 -631.582)"/></g><g transform="translate(1.102 1.322)"><g transform="translate(66.839 0)"><ellipse class="e" cx="8.309" cy="8.049" rx="8.309" ry="8.049" transform="translate(0 0.772) rotate(-2.664)"/><ellipse class="f" cx="5.999" cy="5.922" rx="5.999" ry="5.922" transform="matrix(0.999, -0.046, 0.046, 0.999, 2.694, 2.947)"/><path class="e" d="M336.894,648.7a4.125,4.125,0,1,0,3.927-4.347A4.143,4.143,0,0,0,336.894,648.7Z" transform="translate(-332.145 -640.084)"/><path class="f" d="M333.411,647.388l-.17-1.573,3.238-.169c.018-.059.037-.117.06-.174L334,643.586l.984-1.238,2.4,2.138c.053-.031.108-.06.164-.087l-.506-3.2,1.573-.16.22,3.183a2.043,2.043,0,0,1,.24.057l1.982-2.567,1.2,1.034-2.107,2.284a1.964,1.964,0,0,1,.244.443l3.189-.278.05,1.581-3.2,0c-.016.05-.033.1-.053.148l2.528,2.1-1.075,1.16-2.3-2.277a2.093,2.093,0,0,1-.27.133l.674,3.163-1.557.279-.435-3.342c-.061-.015-.121-.033-.179-.053l.037.027-1.866,2.7-1.272-.94,2.1-2.53a1.984,1.984,0,0,1-.221-.4Z" transform="translate(-329.6 -637.775)"/><g transform="translate(7.319 6.891)"><path class="g" d="M351.783,653.5a.45.45,0,1,0,.429-.471A.45.45,0,0,0,351.783,653.5Z" transform="translate(-349.856 -653.032)"/><path class="g" d="M345.409,654.514a.45.45,0,1,0,.429-.471A.45.45,0,0,0,345.409,654.514Z" transform="translate(-345.408 -653.737)"/><path class="g" d="M346.545,660.817a.45.45,0,1,0,.429-.471A.451.451,0,0,0,346.545,660.817Z" transform="translate(-346.201 -658.135)"/><path class="g" d="M352.984,659.8a.45.45,0,1,0,.429-.471A.45.45,0,0,0,352.984,659.8Z" transform="translate(-350.694 -657.429)"/></g></g><g transform="translate(0 2.718)"><path class="e" d="M100,647.659a8.313,8.313,0,1,0,7.926-8.426A8.182,8.182,0,0,0,100,647.659Z" transform="translate(-99.995 -639.224)"/><ellipse class="f" cx="5.999" cy="5.922" rx="5.999" ry="5.922" transform="translate(2.327 2.571) rotate(-2.669)"/><path class="e" d="M114.491,656.451a4.125,4.125,0,1,0,3.927-4.347A4.143,4.143,0,0,0,114.491,656.451Z" transform="translate(-110.108 -648.208)"/><path class="f" d="M111.009,655.135l-.17-1.572,3.238-.169c.018-.059.037-.117.06-.174l-2.537-1.886.984-1.238,2.4,2.138c.053-.031.108-.06.164-.087l-.506-3.2,1.573-.16.22,3.183a2.119,2.119,0,0,1,.24.057l1.982-2.567,1.2,1.034-2.107,2.284a1.962,1.962,0,0,1,.244.443l3.19-.278.05,1.581-3.2,0c-.016.05-.033.1-.053.148l2.528,2.1-1.075,1.16-2.3-2.277a2.074,2.074,0,0,1-.27.132l.674,3.163-1.557.279-.435-3.342c-.061-.015-.121-.033-.18-.053l.037.028-1.866,2.7-1.272-.94,2.1-2.53a1.972,1.972,0,0,1-.221-.4Z" transform="translate(-107.562 -645.899)"/><g transform="translate(6.953 6.514)"><path class="g" d="M129.38,661.252a.45.45,0,1,0,.429-.471A.45.45,0,0,0,129.38,661.252Z" transform="translate(-127.453 -660.78)"/><path class="g" d="M123.006,662.262a.45.45,0,1,0,.429-.471A.45.45,0,0,0,123.006,662.262Z" transform="translate(-123.005 -661.485)"/><path class="g" d="M124.143,668.565a.45.45,0,1,0,.429-.471A.45.45,0,0,0,124.143,668.565Z" transform="translate(-123.799 -665.884)"/><path class="g" d="M130.581,667.552a.45.45,0,1,0,.429-.471A.45.45,0,0,0,130.581,667.552Z" transform="translate(-128.291 -665.177)"/></g></g></g></g><g transform="translate(80.48 554.633)"><path class="z" d="M93.277,572.067c.006,0,.013,0,.019,0a25.839,25.839,0,0,0,4.614-.788c2.029-.063,4.449-.079,7.156-.057,15.133.127,39.286,1.44,54.955,2.383,9.06.551,15.285.973,15.285.973,4.541,3.238,14.126,7.076,14.126,7.076l.03-.017c-.494-3.552-2.333-7.358-7.867-7.8,0,0-2.32-.469-5.293-1.152-4.149-.952-9.565-2.324-11.7-3.414-6.64-3.4-17.892-10.51-34.39-9.586-7.125.4-18.881.251-28.4,2.81a4.043,4.043,0,0,0-.642,1.362l0,0c-.164.174-5.777,6.111-6.822,7.172-.075.079-.126.128-.15.151C93.877,571.484,93.568,571.774,93.277,572.067Z" transform="translate(-89.573 -558.105)"/><path class="aa" d="M221.821,608.447c.031.67,1.457,1.147,3.185,1.067s3.1-.688,3.073-1.358-1.457-1.147-3.185-1.067S221.79,607.777,221.821,608.447Z" transform="translate(-179.274 -591.232)"/><path class="ab" d="M139.665,604.658c.031.67,1.457,1.147,3.185,1.067s3.1-.688,3.073-1.358-1.457-1.147-3.185-1.067S139.634,603.988,139.665,604.658Z" transform="translate(-121.943 -588.588)"/><path class="ac" d="M108.534,614.219a2.01,2.01,0,1,0,1.914-2.1A2.01,2.01,0,0,0,108.534,614.219Z" transform="translate(-100.218 -594.746)"/><path class="ad" d="M312.063,588.425s9.637,4.935,5.621,5.121l-4.989.17A15.134,15.134,0,0,0,312.063,588.425Z" transform="translate(-242.248 -578.214)"/><path class="f" d="M86.471,610.274c1.678.132,6.88-4.92,6.88-4.92,1.967-2.6-6.321-1.064-6.321-1.064l-.2.031C85.729,605.847,85.315,607.609,86.471,610.274Z" transform="translate(-84.341 -588.971)"/><path class="f" d="M236.19,567.842c-2.433-.849-12.751-4.236-19.55-3.163a.384.384,0,0,0-.31.47c.364,1.529,1.689,7.038,2.445,9.382a1.067,1.067,0,0,0,.959.737l17.468.945,1.021-2.765-1.319-4.9A1.167,1.167,0,0,0,236.19,567.842Z" transform="translate(-175.435 -561.498)"/><path class="f" d="M236.19,567.842c-2.433-.849-12.751-4.236-19.55-3.163a.384.384,0,0,0-.31.47c.364,1.529,1.689,7.038,2.445,9.382a1.067,1.067,0,0,0,.959.737l17.468.945,1.021-2.765-1.319-4.9A1.167,1.167,0,0,0,236.19,567.842Z" transform="translate(-175.435 -561.498)"/><path class="f" d="M236.19,567.842c-2.433-.849-12.751-4.236-19.55-3.163a.384.384,0,0,0-.31.47c.364,1.529,1.689,7.038,2.445,9.382a1.067,1.067,0,0,0,.959.737l17.468.945,1.021-2.765-1.319-4.9A1.167,1.167,0,0,0,236.19,567.842Z" transform="translate(-175.435 -561.498)"/><path class="f" d="M236.19,567.842c-2.433-.849-12.751-4.236-19.55-3.163a.384.384,0,0,0-.31.47c.364,1.529,1.689,7.038,2.445,9.382a1.067,1.067,0,0,0,.959.737l17.468.945,1.021-2.765-1.319-4.9A1.167,1.167,0,0,0,236.19,567.842Z" transform="translate(-175.435 -561.498)"/><path class="ae" d="M382.667,659.333c.063.543.1,1.115.124,1.716,0,0,3.566.828,5.038-.376a24.3,24.3,0,0,0,3.754-.174l.15-1.029s-7.636.123-8.9-.132A.419.419,0,0,0,382.667,659.333Z" transform="translate(-291.517 -627.691)"/><path class="af" d="M398.411,640.526s2.456,1.03,3.555.848c-.329-.4-1.321-1.71-.464-1.813,0,0-1.046-5.636-3.415-6C398.087,633.564,396.5,640.458,398.411,640.526Z" transform="translate(-301.846 -609.713)"/><path class="ag" d="M398.411,640.526c.454-1.51-.324-6.962-.324-6.962S396.5,640.458,398.411,640.526Z" transform="translate(-301.846 -609.713)"/><path class="ah" d="M156.343,627.732c1.045-.049,1.569-2.268,1.569-2.268-.208-2.185,1.994-1.786,2.832-2.013,13.523-3.659,37.579-.228,42.67-.147a28.58,28.58,0,0,1,3.99,1.447,10.275,10.275,0,0,1,8.224-3.329c9.836.653,8.873,9.831,8.873,9.831l-.088.061C222.441,620.864,213.143,623,213.143,623a9.508,9.508,0,0,0-7.679,9.84c-.02-.159-4.634.758-5.134.659l-24.736.643-13.552.354s-2.2.46-3.419-2.525c-.06-.138-.114-.287-.168-.444a28.115,28.115,0,0,0-2.249-3.373C156.2,627.886,156.243,627.737,156.343,627.732Z" transform="translate(-133.486 -601.228)"/><path class="ai" d="M220.458,652.16s-19.629-4.026-35.1-1.268Z" transform="translate(-153.829 -621.131)"/><path class="aj" d="M348.59,609.662s-7.208,3.954-18.441-6.08l10.451,1.684S345.064,608.023,348.59,609.662Z" transform="translate(-254.868 -588.791)"/><path class="ak" d="M96.813,580.873c.092-.036.191-.081.292-.13a12.808,12.808,0,0,0,6.53-7.042C103.471,573.875,97.858,579.812,96.813,580.873Z" transform="translate(-92.041 -567.939)"/><path class="l" d="M146.449,562.946s-1.439-1.161-1.684.314Z" transform="translate(-125.503 -560.131)"/><rect class="l" width="0.147" height="3.263" transform="translate(19.681 2.6) rotate(142.828)"/><path class="al" d="M81.02,637.927c.2,1.687.713,4.551,1.864,4.827,0,0,2.376.516,2.833.235,0,0-.188-8.012,6.377-10.071,3.888-1.216,11.44-1.263,12.556,10.391,0,0,44.4-1.071,47.4-.583,0,0,1.166-.211.925-2.028,0,0-.018-.52.025-1.152,0,0-40-3.925-46.844-.741,0,0-3.881-9.5-13.5-7.271a10.613,10.613,0,0,0-6.311,4.213s-3.311,2.976-5.229,2.2A.3.3,0,0,0,81.02,637.927Z" transform="translate(-81.02 -608.062)"/><path class="am" d="M201.644,596.763s-10.066-2.008-12.742-3.922c0,0,6.448,3.787,3.152,3.563C173.7,595.152,132,594.279,132,594.376c-.1,2.182,70.492,3.413,70.492,3.413S201.4,597.473,201.644,596.763Z" transform="translate(-116.594 -581.296)"/><path class="an" d="M121.525,566.139a12.679,12.679,0,0,1,3.388.951.7.7,0,0,0,.628.111,69.511,69.511,0,0,1,11.392-2.38A114.674,114.674,0,0,0,121.525,566.139Z" transform="translate(-109.285 -561.742)"/><path class="m" d="M363,604.787l.1.1a1.525,1.525,0,0,0,.115.115c4.337,4.258,10.685,3.815,10.685,3.815a4.751,4.751,0,0,0-1.839-3.572,6.547,6.547,0,0,0-2.144-1.125c-.164-.057-.337-.107-.513-.152,0,0-2.435-.382-5.408-1.068l-.037.016S360.855,603.74,363,604.787Z" transform="translate(-277.265 -588.314)"/><path class="ao" d="M164.2,653.27c1.224,2.985,3.419,2.525,3.419,2.525l13.552-.354,24.736-.642a4.64,4.64,0,0,0,1.274.095l1.344-1.1s-35.472-3.779-44.109-.595C164.348,653.227,164.272,653.248,164.2,653.27Z" transform="translate(-139.068 -622.525)"/><path class="o" d="M136.063,608.983a9.612,9.612,0,0,1,2.892,2.659,28.118,28.118,0,0,1,2.248,3.373c.054.157.108.305.168.444,1.224,2.985,3.419,2.525,3.419,2.525l13.552-.354,24.736-.642a4.643,4.643,0,0,0,1.274.095,1.921,1.921,0,0,0,1.757-2.352,19.878,19.878,0,0,0,1.3-7.4,34.2,34.2,0,0,0-.723-7.128c-3.061-.557-16.649-1.17-29.546-1.643-13.073-.48-25.443-.817-25.443-.817A11.251,11.251,0,0,0,136.063,608.983Z" transform="translate(-116.236 -584.715)"/><path class="o" d="M216.65,600.818s2.523,15.483,1.186,18.759" transform="translate(-175.666 -586.862)"/></g><g transform="translate(95.943 556.845)"><path class="p" d="M132.192,572.768a.194.194,0,0,0,.029.093c7.061.06,16.088.377,25.3.792,10.527.479,21.3,1.089,29.653,1.591l.006-.016s.169-5.611-1.832-6.541c0,0-13.671-7.749-30.373-6.621-5.483.371-21.124.9-21.606,4.037A64.3,64.3,0,0,0,132.192,572.768Z" transform="translate(-132.191 -561.954)"/><path class="f" d="M160.326,566.491c.438,2.25,1.761,9.091,1.75,9.549l-16.637-.376s-3.31-4.222-2.606-7.156c.086-.358,10.994-2.582,16.611-2.722A.874.874,0,0,1,160.326,566.491Z" transform="translate(-139.548 -564.627)"/><path class="f" d="M293.129,581.339a21.632,21.632,0,0,0-4.943-2.361.28.28,0,0,0-.373.315c.218,1.162.838,4.34,1.146,4.539,0,0,3.334.89,4.6.1C293.564,583.932,293.881,581.953,293.129,581.339Z" transform="translate(-240.785 -573.821)"/><path class="d" d="M289.3,589.159s-1.294,2.517-.044,3.556c0,0,3.628.458,3.67-2C292.93,590.715,292.672,588.532,289.3,589.159Z" transform="translate(-241.418 -580.859)"/><g transform="translate(3.186 1.158)"><g class="ar"><g class="r" transform="translate(0.228 -2.288)"><rect class="s" width="1.609" height="17.293" transform="translate(17.425 12.897) rotate(138.227)"/><rect class="s" width="3.589" height="17.293" transform="matrix(-0.746, 0.666, -0.666, -0.746, 14.197, 13.908)"/></g></g></g><path class="f" d="M236.19,567.842c-2.433-.849-12.751-4.236-19.55-3.163a.384.384,0,0,0-.31.47c.364,1.529,1.689,7.038,2.445,9.382a1.067,1.067,0,0,0,.959.737l17.468.945,1.021-2.765-1.319-4.9A1.167,1.167,0,0,0,236.19,567.842Z" transform="translate(-190.897 -563.71)"/><g transform="translate(25.421 0.761)"><g class="as"><g class="u" transform="translate(-1.444 -2.763)"><rect class="s" width="1.445" height="21.006" transform="matrix(-0.78, 0.626, -0.626, -0.78, 21.224, 16.51)"/><rect class="s" width="5.628" height="21.006" transform="translate(17.536 16.384) rotate(141.257)"/></g></g></g></g></g></g><g class="y" transform="translate(59.55 3677)"><circle class="at" cx="16" cy="16" r="16"/><circle class="a" cx="16" cy="16" r="15.5"/></g></g></g></svg>