<svg xmlns="http://www.w3.org/2000/svg" xmlns:xlink="http://www.w3.org/1999/xlink" width="79.55" height="40.225" viewBox="0 0 79.55 40.225">
  <defs>
    <clipPath id="clip-path">
      <path id="Path_2891" data-name="Path 2891" d="M156.665,566.344c.347,1.782,1.395,7.2,1.386,7.562l-13.175-.3s-2.622-3.344-2.064-5.667c.068-.284,8.707-2.045,13.155-2.156A.692.692,0,0,1,156.665,566.344Z" transform="translate(-142.734 -565.785)" fill="none"/>
    </clipPath>
    <clipPath id="clip-path-2">
      <path id="Path_2893" data-name="Path 2893" d="M232.056,567.14c-1.927-.672-10.1-3.355-15.483-2.5a.3.3,0,0,0-.246.372c.288,1.211,1.338,5.574,1.937,7.43a.845.845,0,0,0,.759.584l13.834.748.809-2.19-1.045-3.877A.925.925,0,0,0,232.056,567.14Z" transform="translate(-216.319 -564.471)" fill="none"/>
    </clipPath>
    <clipPath id="clip-path-3">
      <circle id="Ellipse_298" data-name="Ellipse 298" cx="16" cy="16" r="16" transform="translate(58 1855)" fill="none" stroke="#707070" stroke-width="1"/>
    </clipPath>
    <clipPath id="clip-path-4">
      <path id="Path_3324" data-name="Path 3324" d="M160.326,566.491c.438,2.25,1.761,9.091,1.75,9.549l-16.637-.376s-3.31-4.222-2.606-7.156c.086-.358,10.994-2.582,16.611-2.722A.874.874,0,0,1,160.326,566.491Z" transform="translate(-142.734 -565.785)" fill="none"/>
    </clipPath>
    <clipPath id="clip-path-5">
      <path id="Path_3326" data-name="Path 3326" d="M236.19,567.842c-2.433-.849-12.751-4.236-19.55-3.163a.384.384,0,0,0-.31.47c.364,1.529,1.689,7.038,2.445,9.382a1.067,1.067,0,0,0,.959.737l17.468.945,1.021-2.765-1.319-4.9A1.167,1.167,0,0,0,236.19,567.842Z" transform="translate(-216.319 -564.471)" fill="none"/>
    </clipPath>
  </defs>
  <g id="Group_3518" data-name="Group 3518" transform="translate(-56.45 -4513.775)">
    <g id="Group_2098" data-name="Group 2098" transform="translate(-23.796 3959.142)">
      <path id="Path_2846" data-name="Path 2846" d="M80.339,581.1s.023.4.092.967c.162,1.336.565,3.6,1.477,3.823a6.668,6.668,0,0,0,2.244.186S84,579.733,89.2,578.1c3.079-.963,9.06-1,9.944,8.229,0,0,35.161-.848,37.539-.462,0,0,.923-.167.732-1.606a7.4,7.4,0,0,1,.017-.81c.119-1.928.945-6.7,6.082-7.792,0,0,7.364-1.693,8.926,6.583.073.389.134.8.176,1.231s.081.883.1,1.359c0,0,2.824.656,3.989-.3a19.236,19.236,0,0,0,2.973-.138l.119-.815s-.029-.033-.076-.093c-.261-.318-1.046-1.354-.367-1.436a15.774,15.774,0,0,0,.185-5c-.391-2.813-1.848-5.827-6.23-6.174,0,0-10.561-2.134-13.454-3.616-5.258-2.7-14.169-8.323-27.235-7.591-5.642.317-14.953.2-22.495,2.226a3.2,3.2,0,0,0-.509,1.079s-5.221,5.522-5.524,5.8c-.252.233-.5.463-.728.694a8.939,8.939,0,0,0-.962,1.1c-.873,1.208-1.2,2.6-.285,4.714C82.117,575.289,79.754,579.206,80.339,581.1Z" transform="translate(0 -3.784)" fill="#278a9c"/>
      <g id="Group_1903" data-name="Group 1903" transform="translate(84.099 571.677)">
        <g id="Group_1897" data-name="Group 1897" transform="translate(0 0)">
          <g id="Group_1896" data-name="Group 1896">
            <path id="Path_2847" data-name="Path 2847" d="M332.325,635.561l1.806-.333s.689-9.219-7.6-9.372c-3.152-.058-8.472,2.05-7.732,9.962a3.172,3.172,0,0,0,2.142,1.556s-4.1-7.094,3.806-9.821C327.539,626.59,333.039,628.657,332.325,635.561Z" transform="translate(-265.515 -625.854)" fill="#2a2b2a"/>
            <path id="Path_2848" data-name="Path 2848" d="M110.272,642.877l1.162.06s.63-8.253-7.282-8.86a7.538,7.538,0,0,0-7.751,8.638s.115-.626,1.06-.329a7.041,7.041,0,0,1,4.634-6.269C104.828,635.012,110.152,636.074,110.272,642.877Z" transform="translate(-96.347 -632.098)" fill="#2a2b2a"/>
          </g>
        </g>
        <g id="Group_1902" data-name="Group 1902" transform="translate(0.873 1.047)">
          <g id="Group_1899" data-name="Group 1899" transform="translate(52.933 0)">
            <ellipse id="Ellipse_245" data-name="Ellipse 245" cx="6.58" cy="6.374" rx="6.58" ry="6.374" transform="translate(0 0.612) rotate(-2.664)" fill="#3d4039"/>
            <ellipse id="Ellipse_246" data-name="Ellipse 246" cx="4.751" cy="4.69" rx="4.751" ry="4.69" transform="matrix(0.999, -0.046, 0.046, 0.999, 2.133, 2.334)" fill="#d6e3dd"/>
            <path id="Path_2849" data-name="Path 2849" d="M336.893,647.8a3.267,3.267,0,1,0,3.11-3.443A3.281,3.281,0,0,0,336.893,647.8Z" transform="translate(-333.132 -640.972)" fill="#3d4039"/>
            <path id="Path_2850" data-name="Path 2850" d="M333.376,646.067l-.134-1.245,2.564-.134c.014-.047.029-.093.048-.138l-2.009-1.494.78-.98,1.9,1.693c.042-.025.085-.048.13-.069l-.4-2.532,1.246-.127.174,2.521a1.617,1.617,0,0,1,.19.045l1.569-2.033.947.819-1.669,1.809a1.556,1.556,0,0,1,.194.351l2.526-.22.04,1.252-2.531,0c-.013.04-.026.079-.042.117l2,1.66-.852.918-1.823-1.8a1.657,1.657,0,0,1-.214.105l.534,2.5-1.233.221-.344-2.647c-.048-.012-.1-.026-.142-.042l.029.022-1.477,2.139-1.007-.745,1.661-2a1.569,1.569,0,0,1-.175-.313Z" transform="translate(-330.357 -638.454)" fill="#d6e3dd"/>
            <g id="Group_1898" data-name="Group 1898" transform="translate(5.796 5.457)">
              <path id="Path_2851" data-name="Path 2851" d="M351.783,653.406a.357.357,0,1,0,.34-.373A.357.357,0,0,0,351.783,653.406Z" transform="translate(-350.257 -653.032)" fill="#c6c6c6" stroke="#3d4039" stroke-miterlimit="10" stroke-width="0.1"/>
              <path id="Path_2852" data-name="Path 2852" d="M345.409,654.416a.357.357,0,1,0,.34-.373A.357.357,0,0,0,345.409,654.416Z" transform="translate(-345.408 -653.801)" fill="#c6c6c6" stroke="#3d4039" stroke-miterlimit="10" stroke-width="0.1"/>
              <path id="Path_2853" data-name="Path 2853" d="M346.545,660.719a.357.357,0,1,0,.34-.373A.357.357,0,0,0,346.545,660.719Z" transform="translate(-346.272 -658.595)" fill="#c6c6c6" stroke="#3d4039" stroke-miterlimit="10" stroke-width="0.1"/>
              <path id="Path_2854" data-name="Path 2854" d="M352.984,659.706a.357.357,0,1,0,.34-.373A.357.357,0,0,0,352.984,659.706Z" transform="translate(-351.171 -657.825)" fill="#c6c6c6" stroke="#3d4039" stroke-miterlimit="10" stroke-width="0.1"/>
            </g>
          </g>
          <g id="Group_1901" data-name="Group 1901" transform="translate(0 2.153)">
            <path id="Path_2855" data-name="Path 2855" d="M100,645.9a6.584,6.584,0,1,0,6.277-6.673A6.48,6.48,0,0,0,100,645.9Z" transform="translate(-99.995 -639.224)" fill="#3d4039"/>
            <ellipse id="Ellipse_247" data-name="Ellipse 247" cx="4.751" cy="4.69" rx="4.751" ry="4.69" transform="translate(1.843 2.036) rotate(-2.669)" fill="#d6e3dd"/>
            <path id="Path_2856" data-name="Path 2856" d="M114.49,655.545a3.267,3.267,0,1,0,3.11-3.443A3.281,3.281,0,0,0,114.49,655.545Z" transform="translate(-111.019 -649.018)" fill="#3d4039"/>
            <path id="Path_2857" data-name="Path 2857" d="M110.973,653.815l-.134-1.245,2.564-.134c.014-.047.029-.093.048-.138l-2.009-1.494.78-.98,1.9,1.693c.042-.025.085-.048.13-.069l-.4-2.532,1.246-.127.174,2.521a1.681,1.681,0,0,1,.19.045l1.569-2.033.947.819-1.669,1.809a1.553,1.553,0,0,1,.194.351l2.526-.22.039,1.252-2.531,0c-.012.04-.026.079-.042.118l2,1.66-.852.919-1.823-1.8a1.642,1.642,0,0,1-.214.1l.533,2.505-1.233.221-.344-2.647c-.048-.012-.1-.026-.142-.042l.029.022-1.477,2.139-1.007-.745,1.661-2a1.563,1.563,0,0,1-.175-.314Z" transform="translate(-108.244 -646.501)" fill="#d6e3dd"/>
            <g id="Group_1900" data-name="Group 1900" transform="translate(5.507 5.159)">
              <path id="Path_2858" data-name="Path 2858" d="M129.38,661.154a.357.357,0,1,0,.34-.373A.357.357,0,0,0,129.38,661.154Z" transform="translate(-127.854 -660.78)" fill="#c6c6c6" stroke="#3d4039" stroke-miterlimit="10" stroke-width="0.1"/>
              <path id="Path_2859" data-name="Path 2859" d="M123.006,662.164a.357.357,0,1,0,.34-.373A.357.357,0,0,0,123.006,662.164Z" transform="translate(-123.005 -661.549)" fill="#c6c6c6" stroke="#3d4039" stroke-miterlimit="10" stroke-width="0.1"/>
              <path id="Path_2860" data-name="Path 2860" d="M124.143,668.467a.357.357,0,1,0,.34-.373A.357.357,0,0,0,124.143,668.467Z" transform="translate(-123.87 -666.343)" fill="#c6c6c6" stroke="#3d4039" stroke-miterlimit="10" stroke-width="0.1"/>
              <path id="Path_2861" data-name="Path 2861" d="M130.581,667.454a.357.357,0,1,0,.34-.373A.357.357,0,0,0,130.581,667.454Z" transform="translate(-128.768 -665.573)" fill="#c6c6c6" stroke="#3d4039" stroke-miterlimit="10" stroke-width="0.1"/>
            </g>
          </g>
        </g>
      </g>
      <g id="Group_1904" data-name="Group 1904" transform="translate(80.431 554.633)">
        <path id="Path_2862" data-name="Path 2862" d="M93.277,569.475l.015,0a20.462,20.462,0,0,0,3.654-.624c1.607-.05,3.523-.062,5.667-.045,11.984.1,31.112,1.141,43.521,1.887,7.175.436,12.1.771,12.1.771,3.6,2.564,11.187,5.6,11.187,5.6l.024-.013c-.391-2.813-1.848-5.827-6.23-6.174,0,0-1.837-.371-4.192-.913-3.286-.754-7.575-1.84-9.262-2.7-5.258-2.7-14.17-8.323-27.235-7.591-5.642.317-14.953.2-22.495,2.226a3.2,3.2,0,0,0-.509,1.079l0,0c-.13.138-4.575,4.839-5.4,5.68-.059.062-.1.1-.118.12C93.752,569.013,93.507,569.243,93.277,569.475Z" transform="translate(-90.344 -558.418)" fill="#fff"/>
        <path id="Path_2863" data-name="Path 2863" d="M221.821,608.162c.025.53,1.154.909,2.522.845s2.458-.545,2.433-1.075-1.154-.909-2.523-.845S221.8,607.632,221.821,608.162Z" transform="translate(-188.126 -594.529)" fill="#fff"/>
        <path id="Path_2864" data-name="Path 2864" d="M139.665,604.373c.025.53,1.154.909,2.523.845s2.458-.545,2.433-1.075-1.154-.909-2.523-.845S139.64,603.843,139.665,604.373Z" transform="translate(-125.63 -591.647)" fill="#fff"/>
        <path id="Path_2865" data-name="Path 2865" d="M108.533,613.781a1.592,1.592,0,1,0,1.516-1.664A1.592,1.592,0,0,0,108.533,613.781Z" transform="translate(-101.948 -598.36)" fill="#fff"/>
        <path id="Path_2866" data-name="Path 2866" d="M312.063,588.425s7.632,3.908,4.452,4.056l-3.951.134A11.986,11.986,0,0,0,312.063,588.425Z" transform="translate(-256.773 -580.338)" fill="#fff"/>
        <path id="Path_2867" data-name="Path 2867" d="M86.327,608.935c1.329.1,5.449-3.9,5.449-3.9,1.558-2.059-5.006-.843-5.006-.843l-.158.025C85.739,605.429,85.412,606.825,86.327,608.935Z" transform="translate(-84.641 -592.064)" fill="#d6e3dd"/>
        <path id="Path_2868" data-name="Path 2868" d="M232.056,567.14c-1.927-.672-10.1-3.355-15.483-2.5a.3.3,0,0,0-.246.372c.288,1.211,1.338,5.574,1.937,7.43a.845.845,0,0,0,.759.584l13.834.748.809-2.19-1.045-3.877A.925.925,0,0,0,232.056,567.14Z" transform="translate(-183.941 -562.117)" fill="#d6e3dd"/>
        <path id="Path_2869" data-name="Path 2869" d="M232.056,567.14c-1.927-.672-10.1-3.355-15.483-2.5a.3.3,0,0,0-.246.372c.288,1.211,1.338,5.574,1.937,7.43a.845.845,0,0,0,.759.584l13.834.748.809-2.19-1.045-3.877A.925.925,0,0,0,232.056,567.14Z" transform="translate(-183.941 -562.117)" fill="#d6e3dd"/>
        <path id="Path_2870" data-name="Path 2870" d="M232.056,567.14c-1.927-.672-10.1-3.355-15.483-2.5a.3.3,0,0,0-.246.372c.288,1.211,1.338,5.574,1.937,7.43a.845.845,0,0,0,.759.584l13.834.748.809-2.19-1.045-3.877A.925.925,0,0,0,232.056,567.14Z" transform="translate(-183.941 -562.117)" fill="#d6e3dd"/>
        <path id="Path_2871" data-name="Path 2871" d="M232.056,567.14c-1.927-.672-10.1-3.355-15.483-2.5a.3.3,0,0,0-.246.372c.288,1.211,1.338,5.574,1.937,7.43a.845.845,0,0,0,.759.584l13.834.748.809-2.19-1.045-3.877A.925.925,0,0,0,232.056,567.14Z" transform="translate(-183.941 -562.117)" fill="#d6e3dd"/>
        <path id="Path_2872" data-name="Path 2872" d="M382.667,659.331c.05.43.081.883.1,1.359,0,0,2.824.656,3.989-.3a19.244,19.244,0,0,0,2.973-.138l.119-.815s-6.047.1-7.05-.1A.331.331,0,0,0,382.667,659.331Z" transform="translate(-310.481 -634.273)" fill="#fff"/>
        <path id="Path_2873" data-name="Path 2873" d="M398.215,639.077a7.861,7.861,0,0,0,2.815.671c-.261-.318-1.046-1.354-.367-1.436,0,0-.828-4.464-2.7-4.749C397.959,633.564,396.7,639.024,398.215,639.077Z" transform="translate(-321.741 -614.676)" fill="#fff"/>
        <path id="Path_2874" data-name="Path 2874" d="M398.215,639.077c.359-1.2-.256-5.513-.256-5.513S396.7,639.024,398.215,639.077Z" transform="translate(-321.741 -614.676)" fill="#fff"/>
        <path id="Path_2875" data-name="Path 2875" d="M156.314,626.416c.828-.039,1.242-1.8,1.242-1.8-.165-1.731,1.579-1.415,2.243-1.594,10.709-2.9,29.76-.18,33.792-.116a22.634,22.634,0,0,1,3.16,1.146,8.137,8.137,0,0,1,6.513-2.636c7.789.517,7.027,7.786,7.027,7.786l-.07.048c-1.562-8.276-8.926-6.583-8.926-6.583a7.529,7.529,0,0,0-6.082,7.793c-.016-.126-3.67.6-4.066.522l-19.59.509-10.732.28s-1.739.364-2.708-2c-.047-.11-.09-.227-.133-.352a22.265,22.265,0,0,0-1.781-2.671C156.2,626.537,156.235,626.419,156.314,626.416Z" transform="translate(-138.213 -605.426)" fill="#fff"/>
        <path id="Path_2876" data-name="Path 2876" d="M213.155,651.7s-15.545-3.188-27.8-1Z" transform="translate(-160.389 -627.122)" fill="#fff"/>
        <path id="Path_2877" data-name="Path 2877" d="M344.753,608.4s-5.708,3.132-14.6-4.815l8.277,1.334S341.961,607.1,344.753,608.4Z" transform="translate(-270.531 -591.868)" fill="#fff"/>
        <path id="Path_2878" data-name="Path 2878" d="M96.813,579.381c.073-.028.151-.064.231-.1a10.143,10.143,0,0,0,5.172-5.577C102.086,573.839,97.641,578.54,96.813,579.381Z" transform="translate(-93.034 -569.138)" fill="#fff"/>
        <path id="Path_2879" data-name="Path 2879" d="M146.1,562.856s-1.14-.919-1.334.248Z" transform="translate(-129.51 -560.627)" fill="#111"/>
        <rect id="Rectangle_1345" data-name="Rectangle 1345" width="0.116" height="2.584" transform="translate(15.586 2.059) rotate(142.828)" fill="#111"/>
        <path id="Path_2880" data-name="Path 2880" d="M81.02,636.527c.162,1.336.565,3.6,1.477,3.823a6.667,6.667,0,0,0,2.244.186s-.149-6.345,5.05-7.975c3.079-.963,9.06-1,9.944,8.229,0,0,35.161-.848,37.539-.462,0,0,.923-.167.732-1.606,0,0-.014-.412.02-.912,0,0-31.678-3.109-37.1-.587,0,0-3.074-7.521-10.69-5.758a8.4,8.4,0,0,0-5,3.336s-2.622,2.357-4.141,1.745A.239.239,0,0,0,81.02,636.527Z" transform="translate(-81.02 -612.875)" fill="#fff"/>
        <path id="Path_2881" data-name="Path 2881" d="M187.154,595.947s-7.972-1.59-10.091-3.106c0,0,5.106,3,2.5,2.821-14.534-.991-47.557-1.683-47.56-1.606-.081,1.728,55.826,2.7,55.826,2.7S186.957,596.509,187.154,595.947Z" transform="translate(-119.799 -583.698)" fill="#fff"/>
        <path id="Path_2882" data-name="Path 2882" d="M121.525,565.864a10.04,10.04,0,0,1,2.683.753.555.555,0,0,0,.5.088,55.032,55.032,0,0,1,9.022-1.884A90.813,90.813,0,0,0,121.525,565.864Z" transform="translate(-111.832 -562.383)" fill="#fff"/>
        <path id="Path_2883" data-name="Path 2883" d="M362.842,604.394l.078.078a1.215,1.215,0,0,0,.091.091c3.434,3.372,8.462,3.021,8.462,3.021a3.763,3.763,0,0,0-1.457-2.829,5.185,5.185,0,0,0-1.7-.891c-.13-.046-.267-.085-.407-.12,0,0-1.928-.3-4.283-.846l-.029.013S361.144,603.565,362.842,604.394Z" transform="translate(-294.945 -591.348)" fill="#e0e9ef"/>
        <path id="Path_2884" data-name="Path 2884" d="M164.2,652.99c.969,2.364,2.708,2,2.708,2l10.732-.28,19.59-.509a3.676,3.676,0,0,0,1.009.075l1.065-.87s-28.092-2.993-34.932-.471C164.318,652.956,164.258,652.972,164.2,652.99Z" transform="translate(-144.298 -628.642)" fill="#fff"/>
        <path id="Path_2885" data-name="Path 2885" d="M135.111,606.644a7.613,7.613,0,0,1,2.291,2.106,22.271,22.271,0,0,1,1.781,2.671c.043.125.086.242.133.352.969,2.364,2.708,2,2.708,2l10.732-.28,19.59-.509a3.678,3.678,0,0,0,1.009.075,1.521,1.521,0,0,0,1.391-1.863,15.742,15.742,0,0,0,1.031-5.861,27.084,27.084,0,0,0-.573-5.645c-2.424-.441-13.185-.927-23.4-1.3-10.353-.38-20.15-.647-20.15-.647A8.91,8.91,0,0,0,135.111,606.644Z" transform="translate(-119.409 -587.425)" fill="none" stroke="#707070" stroke-miterlimit="10" stroke-width="0.2"/>
        <path id="Path_2886" data-name="Path 2886" d="M216.65,600.818s2,12.262.939,14.856" transform="translate(-184.193 -589.766)" fill="none" stroke="#707070" stroke-miterlimit="10" stroke-width="0.2"/>
      </g>
      <g id="Group_1911" data-name="Group 1911" transform="translate(92.677 556.385)">
        <path id="Path_2887" data-name="Path 2887" d="M132.192,570.518a.153.153,0,0,0,.023.074c5.592.048,12.741.3,20.037.628,8.337.38,16.865.862,23.483,1.26l0-.013s.134-4.444-1.45-5.18a47.443,47.443,0,0,0-24.054-5.244c-4.342.294-16.729.716-17.11,3.2A50.922,50.922,0,0,0,132.192,570.518Z" transform="translate(-132.191 -561.954)" fill="#434443"/>
        <path id="Path_2888" data-name="Path 2888" d="M156.665,566.344c.347,1.782,1.395,7.2,1.386,7.562l-13.175-.3s-2.622-3.344-2.064-5.667c.068-.284,8.707-2.045,13.155-2.156A.692.692,0,0,1,156.665,566.344Z" transform="translate(-140.211 -564.868)" fill="#d6e3dd"/>
        <path id="Path_2889" data-name="Path 2889" d="M292.023,580.844a17.131,17.131,0,0,0-3.914-1.87.222.222,0,0,0-.3.25,17.566,17.566,0,0,0,.907,3.595s2.64.705,3.646.079C292.366,582.9,292.618,581.331,292.023,580.844Z" transform="translate(-250.569 -574.89)" fill="#d6e3dd"/>
        <path id="Path_2890" data-name="Path 2890" d="M289.182,589.135s-1.025,1.993-.035,2.816c0,0,2.873.363,2.906-1.584C292.053,590.368,291.849,588.639,289.182,589.135Z" transform="translate(-251.259 -582.563)" fill="#2a2b2a"/>
        <g id="Group_1907" data-name="Group 1907" transform="translate(2.523 0.917)">
          <g id="Group_1906" data-name="Group 1906" clip-path="url(#clip-path)">
            <g id="Group_1905" data-name="Group 1905" transform="translate(0.18 -1.812)" opacity="0.57">
              <rect id="Rectangle_1346" data-name="Rectangle 1346" width="1.274" height="13.695" transform="translate(13.799 10.213) rotate(138.227)" fill="#fff"/>
              <rect id="Rectangle_1347" data-name="Rectangle 1347" width="2.842" height="13.695" transform="matrix(-0.746, 0.666, -0.666, -0.746, 11.243, 11.014)" fill="#fff"/>
            </g>
          </g>
        </g>
        <path id="Path_2892" data-name="Path 2892" d="M232.056,567.14c-1.927-.672-10.1-3.355-15.483-2.5a.3.3,0,0,0-.246.372c.288,1.211,1.338,5.574,1.937,7.43a.845.845,0,0,0,.759.584l13.834.748.809-2.19-1.045-3.877A.925.925,0,0,0,232.056,567.14Z" transform="translate(-196.187 -563.868)" fill="#d6e3dd"/>
        <g id="Group_1910" data-name="Group 1910" transform="translate(20.132 0.602)">
          <g id="Group_1909" data-name="Group 1909" clip-path="url(#clip-path-2)">
            <g id="Group_1908" data-name="Group 1908" transform="translate(-1.144 -2.188)" opacity="0.56">
              <rect id="Rectangle_1348" data-name="Rectangle 1348" width="1.144" height="16.636" transform="matrix(-0.78, 0.626, -0.626, -0.78, 16.808, 13.075)" fill="#fff"/>
              <rect id="Rectangle_1349" data-name="Rectangle 1349" width="4.457" height="16.636" transform="translate(13.888 12.975) rotate(141.257)" fill="#fff"/>
            </g>
          </g>
        </g>
      </g>
    </g>
    <g id="Mask_Group_18" data-name="Mask Group 18" transform="translate(0 2667)" clip-path="url(#clip-path-3)">
      <g id="Group_2115" data-name="Group 2115" transform="translate(-22.246 1288.808)">
        <path id="Path_3279" data-name="Path 3279" d="M80.364,586.75s.03.5.116,1.221c.2,1.687.713,4.551,1.864,4.827,0,0,2.376.516,2.833.235,0,0-.188-8.012,6.377-10.071,3.888-1.216,11.44-1.263,12.556,10.391,0,0,44.4-1.071,47.4-.583,0,0,1.166-.211.925-2.028a9.343,9.343,0,0,1,.021-1.023c.15-2.434,1.193-8.462,7.68-9.84,0,0,9.3-2.138,11.271,8.313.092.491.169,1.008.223,1.554s.1,1.115.124,1.716c0,0,3.566.828,5.038-.376a24.289,24.289,0,0,0,3.755-.174l.15-1.029s-.037-.042-.1-.118c-.329-.4-1.321-1.71-.464-1.813a19.918,19.918,0,0,0,.233-6.313c-.494-3.552-2.333-7.358-7.867-7.8,0,0-13.336-2.694-16.988-4.566-6.64-3.4-17.892-10.51-34.39-9.586-7.125.4-18.881.251-28.4,2.81a4.043,4.043,0,0,0-.642,1.362s-6.593,6.973-6.975,7.326c-.319.294-.628.584-.919.877a11.288,11.288,0,0,0-1.215,1.389c-1.1,1.525-1.515,3.288-.36,5.953C82.609,579.409,79.625,584.354,80.364,586.75Z" transform="translate(0 -3.472)" fill="#278a9c"/>
        <g id="Group_2106" data-name="Group 2106" transform="translate(85.112 576.155)">
          <g id="Group_2100" data-name="Group 2100" transform="translate(0 0)">
            <g id="Group_2099" data-name="Group 2099">
              <path id="Path_3280" data-name="Path 3280" d="M335.9,638.111l2.28-.421s.87-11.642-9.592-11.835c-3.98-.073-10.7,2.588-9.763,12.579a4,4,0,0,0,2.7,1.965s-5.173-8.958,4.806-12.4C329.853,626.784,336.8,629.393,335.9,638.111Z" transform="translate(-251.534 -625.854)" fill="#2a2b2a"/>
              <path id="Path_3281" data-name="Path 3281" d="M113.93,645.193l1.467.076s.8-10.421-9.2-11.188a9.519,9.519,0,0,0-9.787,10.908s.145-.791,1.338-.415a8.89,8.89,0,0,1,5.851-7.916C107.055,635.262,113.779,636.6,113.93,645.193Z" transform="translate(-96.347 -631.582)" fill="#2a2b2a"/>
            </g>
          </g>
          <g id="Group_2105" data-name="Group 2105" transform="translate(1.102 1.322)">
            <g id="Group_2102" data-name="Group 2102" transform="translate(66.839 0)">
              <ellipse id="Ellipse_295" data-name="Ellipse 295" cx="8.309" cy="8.049" rx="8.309" ry="8.049" transform="translate(0 0.772) rotate(-2.664)" fill="#3d4039"/>
              <ellipse id="Ellipse_296" data-name="Ellipse 296" cx="5.999" cy="5.922" rx="5.999" ry="5.922" transform="matrix(0.999, -0.046, 0.046, 0.999, 2.694, 2.947)" fill="#d6e3dd"/>
              <path id="Path_3282" data-name="Path 3282" d="M336.894,648.7a4.125,4.125,0,1,0,3.927-4.347A4.143,4.143,0,0,0,336.894,648.7Z" transform="translate(-332.145 -640.084)" fill="#3d4039"/>
              <path id="Path_3283" data-name="Path 3283" d="M333.411,647.388l-.17-1.573,3.238-.169c.018-.059.037-.117.06-.174L334,643.586l.984-1.238,2.4,2.138c.053-.031.108-.06.164-.087l-.506-3.2,1.573-.16.22,3.183a2.043,2.043,0,0,1,.24.057l1.982-2.567,1.2,1.034-2.107,2.284a1.964,1.964,0,0,1,.244.443l3.189-.278.05,1.581-3.2,0c-.016.05-.033.1-.053.148l2.528,2.1-1.075,1.16-2.3-2.277a2.093,2.093,0,0,1-.27.133l.674,3.163-1.557.279-.435-3.342c-.061-.015-.121-.033-.179-.053l.037.027-1.866,2.7-1.272-.94,2.1-2.53a1.984,1.984,0,0,1-.221-.4Z" transform="translate(-329.6 -637.775)" fill="#d6e3dd"/>
              <g id="Group_2101" data-name="Group 2101" transform="translate(7.319 6.891)">
                <path id="Path_3284" data-name="Path 3284" d="M351.783,653.5a.45.45,0,1,0,.429-.471A.45.45,0,0,0,351.783,653.5Z" transform="translate(-349.856 -653.032)" fill="#c6c6c6" stroke="#3d4039" stroke-miterlimit="10" stroke-width="0.1"/>
                <path id="Path_3285" data-name="Path 3285" d="M345.409,654.514a.45.45,0,1,0,.429-.471A.45.45,0,0,0,345.409,654.514Z" transform="translate(-345.408 -653.737)" fill="#c6c6c6" stroke="#3d4039" stroke-miterlimit="10" stroke-width="0.1"/>
                <path id="Path_3286" data-name="Path 3286" d="M346.545,660.817a.45.45,0,1,0,.429-.471A.451.451,0,0,0,346.545,660.817Z" transform="translate(-346.201 -658.135)" fill="#c6c6c6" stroke="#3d4039" stroke-miterlimit="10" stroke-width="0.1"/>
                <path id="Path_3287" data-name="Path 3287" d="M352.984,659.8a.45.45,0,1,0,.429-.471A.45.45,0,0,0,352.984,659.8Z" transform="translate(-350.694 -657.429)" fill="#c6c6c6" stroke="#3d4039" stroke-miterlimit="10" stroke-width="0.1"/>
              </g>
            </g>
            <g id="Group_2104" data-name="Group 2104" transform="translate(0 2.718)">
              <path id="Path_3288" data-name="Path 3288" d="M100,647.659a8.313,8.313,0,1,0,7.926-8.426A8.182,8.182,0,0,0,100,647.659Z" transform="translate(-99.995 -639.224)" fill="#3d4039"/>
              <ellipse id="Ellipse_297" data-name="Ellipse 297" cx="5.999" cy="5.922" rx="5.999" ry="5.922" transform="translate(2.327 2.571) rotate(-2.669)" fill="#d6e3dd"/>
              <path id="Path_3289" data-name="Path 3289" d="M114.491,656.451a4.125,4.125,0,1,0,3.927-4.347A4.143,4.143,0,0,0,114.491,656.451Z" transform="translate(-110.108 -648.208)" fill="#3d4039"/>
              <path id="Path_3290" data-name="Path 3290" d="M111.009,655.135l-.17-1.572,3.238-.169c.018-.059.037-.117.06-.174l-2.537-1.886.984-1.238,2.4,2.138c.053-.031.108-.06.164-.087l-.506-3.2,1.573-.16.22,3.183a2.119,2.119,0,0,1,.24.057l1.982-2.567,1.2,1.034-2.107,2.284a1.962,1.962,0,0,1,.244.443l3.19-.278.05,1.581-3.2,0c-.016.05-.033.1-.053.148l2.528,2.1-1.075,1.16-2.3-2.277a2.074,2.074,0,0,1-.27.132l.674,3.163-1.557.279-.435-3.342c-.061-.015-.121-.033-.18-.053l.037.028-1.866,2.7-1.272-.94,2.1-2.53a1.972,1.972,0,0,1-.221-.4Z" transform="translate(-107.562 -645.899)" fill="#d6e3dd"/>
              <g id="Group_2103" data-name="Group 2103" transform="translate(6.953 6.514)">
                <path id="Path_3291" data-name="Path 3291" d="M129.38,661.252a.45.45,0,1,0,.429-.471A.45.45,0,0,0,129.38,661.252Z" transform="translate(-127.453 -660.78)" fill="#c6c6c6" stroke="#3d4039" stroke-miterlimit="10" stroke-width="0.1"/>
                <path id="Path_3292" data-name="Path 3292" d="M123.006,662.262a.45.45,0,1,0,.429-.471A.45.45,0,0,0,123.006,662.262Z" transform="translate(-123.005 -661.485)" fill="#c6c6c6" stroke="#3d4039" stroke-miterlimit="10" stroke-width="0.1"/>
                <path id="Path_3293" data-name="Path 3293" d="M124.143,668.565a.45.45,0,1,0,.429-.471A.45.45,0,0,0,124.143,668.565Z" transform="translate(-123.799 -665.884)" fill="#c6c6c6" stroke="#3d4039" stroke-miterlimit="10" stroke-width="0.1"/>
                <path id="Path_3294" data-name="Path 3294" d="M130.581,667.552a.45.45,0,1,0,.429-.471A.45.45,0,0,0,130.581,667.552Z" transform="translate(-128.291 -665.177)" fill="#c6c6c6" stroke="#3d4039" stroke-miterlimit="10" stroke-width="0.1"/>
              </g>
            </g>
          </g>
        </g>
        <g id="Group_2107" data-name="Group 2107" transform="translate(80.48 554.633)">
          <path id="Path_3295" data-name="Path 3295" d="M93.277,572.067c.006,0,.013,0,.019,0a25.839,25.839,0,0,0,4.614-.788c2.029-.063,4.449-.079,7.156-.057,15.133.127,39.286,1.44,54.955,2.383,9.06.551,15.285.973,15.285.973,4.541,3.238,14.126,7.076,14.126,7.076l.03-.017c-.494-3.552-2.333-7.358-7.867-7.8,0,0-2.32-.469-5.293-1.152-4.149-.952-9.565-2.324-11.7-3.414-6.64-3.4-17.892-10.51-34.39-9.586-7.125.4-18.881.251-28.4,2.81a4.043,4.043,0,0,0-.642,1.362l0,0c-.164.174-5.777,6.111-6.822,7.172-.075.079-.126.128-.15.151C93.877,571.484,93.568,571.774,93.277,572.067Z" transform="translate(-89.573 -558.105)" fill="#fff"/>
          <path id="Path_3296" data-name="Path 3296" d="M221.821,608.447c.031.67,1.457,1.147,3.185,1.067s3.1-.688,3.073-1.358-1.457-1.147-3.185-1.067S221.79,607.777,221.821,608.447Z" transform="translate(-179.274 -591.232)" fill="#fff"/>
          <path id="Path_3297" data-name="Path 3297" d="M139.665,604.658c.031.67,1.457,1.147,3.185,1.067s3.1-.688,3.073-1.358-1.457-1.147-3.185-1.067S139.634,603.988,139.665,604.658Z" transform="translate(-121.943 -588.588)" fill="#fff"/>
          <path id="Path_3298" data-name="Path 3298" d="M108.534,614.219a2.01,2.01,0,1,0,1.914-2.1A2.01,2.01,0,0,0,108.534,614.219Z" transform="translate(-100.218 -594.746)" fill="#fff"/>
          <path id="Path_3299" data-name="Path 3299" d="M312.063,588.425s9.637,4.935,5.621,5.121l-4.989.17A15.134,15.134,0,0,0,312.063,588.425Z" transform="translate(-242.248 -578.214)" fill="#fff"/>
          <path id="Path_3300" data-name="Path 3300" d="M86.471,610.274c1.678.132,6.88-4.92,6.88-4.92,1.967-2.6-6.321-1.064-6.321-1.064l-.2.031C85.729,605.847,85.315,607.609,86.471,610.274Z" transform="translate(-84.341 -588.971)" fill="#d6e3dd"/>
          <path id="Path_3301" data-name="Path 3301" d="M236.19,567.842c-2.433-.849-12.751-4.236-19.55-3.163a.384.384,0,0,0-.31.47c.364,1.529,1.689,7.038,2.445,9.382a1.067,1.067,0,0,0,.959.737l17.468.945,1.021-2.765-1.319-4.9A1.167,1.167,0,0,0,236.19,567.842Z" transform="translate(-175.435 -561.498)" fill="#d6e3dd"/>
          <path id="Path_3302" data-name="Path 3302" d="M236.19,567.842c-2.433-.849-12.751-4.236-19.55-3.163a.384.384,0,0,0-.31.47c.364,1.529,1.689,7.038,2.445,9.382a1.067,1.067,0,0,0,.959.737l17.468.945,1.021-2.765-1.319-4.9A1.167,1.167,0,0,0,236.19,567.842Z" transform="translate(-175.435 -561.498)" fill="#d6e3dd"/>
          <path id="Path_3303" data-name="Path 3303" d="M236.19,567.842c-2.433-.849-12.751-4.236-19.55-3.163a.384.384,0,0,0-.31.47c.364,1.529,1.689,7.038,2.445,9.382a1.067,1.067,0,0,0,.959.737l17.468.945,1.021-2.765-1.319-4.9A1.167,1.167,0,0,0,236.19,567.842Z" transform="translate(-175.435 -561.498)" fill="#d6e3dd"/>
          <path id="Path_3304" data-name="Path 3304" d="M236.19,567.842c-2.433-.849-12.751-4.236-19.55-3.163a.384.384,0,0,0-.31.47c.364,1.529,1.689,7.038,2.445,9.382a1.067,1.067,0,0,0,.959.737l17.468.945,1.021-2.765-1.319-4.9A1.167,1.167,0,0,0,236.19,567.842Z" transform="translate(-175.435 -561.498)" fill="#d6e3dd"/>
          <path id="Path_3305" data-name="Path 3305" d="M382.667,659.333c.063.543.1,1.115.124,1.716,0,0,3.566.828,5.038-.376a24.3,24.3,0,0,0,3.754-.174l.15-1.029s-7.636.123-8.9-.132A.419.419,0,0,0,382.667,659.333Z" transform="translate(-291.517 -627.691)" fill="#fff"/>
          <path id="Path_3306" data-name="Path 3306" d="M398.411,640.526s2.456,1.03,3.555.848c-.329-.4-1.321-1.71-.464-1.813,0,0-1.046-5.636-3.415-6C398.087,633.564,396.5,640.458,398.411,640.526Z" transform="translate(-301.846 -609.713)" fill="#fff"/>
          <path id="Path_3307" data-name="Path 3307" d="M398.411,640.526c.454-1.51-.324-6.962-.324-6.962S396.5,640.458,398.411,640.526Z" transform="translate(-301.846 -609.713)" fill="#fff"/>
          <path id="Path_3308" data-name="Path 3308" d="M156.343,627.732c1.045-.049,1.569-2.268,1.569-2.268-.208-2.185,1.994-1.786,2.832-2.013,13.523-3.659,37.579-.228,42.67-.147a28.58,28.58,0,0,1,3.99,1.447,10.275,10.275,0,0,1,8.224-3.329c9.836.653,8.873,9.831,8.873,9.831l-.088.061C222.441,620.864,213.143,623,213.143,623a9.508,9.508,0,0,0-7.679,9.84c-.02-.159-4.634.758-5.134.659l-24.736.643-13.552.354s-2.2.46-3.419-2.525c-.06-.138-.114-.287-.168-.444a28.115,28.115,0,0,0-2.249-3.373C156.2,627.886,156.243,627.737,156.343,627.732Z" transform="translate(-133.486 -601.228)" fill="#fff"/>
          <path id="Path_3309" data-name="Path 3309" d="M220.458,652.16s-19.629-4.026-35.1-1.268Z" transform="translate(-153.829 -621.131)" fill="#fff"/>
          <path id="Path_3310" data-name="Path 3310" d="M348.59,609.662s-7.208,3.954-18.441-6.08l10.451,1.684S345.064,608.023,348.59,609.662Z" transform="translate(-254.868 -588.791)" fill="#fff"/>
          <path id="Path_3311" data-name="Path 3311" d="M96.813,580.873c.092-.036.191-.081.292-.13a12.808,12.808,0,0,0,6.53-7.042C103.471,573.875,97.858,579.812,96.813,580.873Z" transform="translate(-92.041 -567.939)" fill="#fff"/>
          <path id="Path_3312" data-name="Path 3312" d="M146.449,562.946s-1.439-1.161-1.684.314Z" transform="translate(-125.503 -560.131)" fill="#111"/>
          <rect id="Rectangle_1390" data-name="Rectangle 1390" width="0.147" height="3.263" transform="translate(19.681 2.6) rotate(142.828)" fill="#111"/>
          <path id="Path_3313" data-name="Path 3313" d="M81.02,637.927c.2,1.687.713,4.551,1.864,4.827,0,0,2.376.516,2.833.235,0,0-.188-8.012,6.377-10.071,3.888-1.216,11.44-1.263,12.556,10.391,0,0,44.4-1.071,47.4-.583,0,0,1.166-.211.925-2.028,0,0-.018-.52.025-1.152,0,0-40-3.925-46.844-.741,0,0-3.881-9.5-13.5-7.271a10.613,10.613,0,0,0-6.311,4.213s-3.311,2.976-5.229,2.2A.3.3,0,0,0,81.02,637.927Z" transform="translate(-81.02 -608.062)" fill="#fff"/>
          <path id="Path_3314" data-name="Path 3314" d="M201.644,596.763s-10.066-2.008-12.742-3.922c0,0,6.448,3.787,3.152,3.563C173.7,595.152,132,594.279,132,594.376c-.1,2.182,70.492,3.413,70.492,3.413S201.4,597.473,201.644,596.763Z" transform="translate(-116.594 -581.296)" fill="#fff"/>
          <path id="Path_3315" data-name="Path 3315" d="M121.525,566.139a12.679,12.679,0,0,1,3.388.951.7.7,0,0,0,.628.111,69.511,69.511,0,0,1,11.392-2.38A114.674,114.674,0,0,0,121.525,566.139Z" transform="translate(-109.285 -561.742)" fill="#fff"/>
          <path id="Path_3316" data-name="Path 3316" d="M363,604.787l.1.1a1.525,1.525,0,0,0,.115.115c4.337,4.258,10.685,3.815,10.685,3.815a4.751,4.751,0,0,0-1.839-3.572,6.547,6.547,0,0,0-2.144-1.125c-.164-.057-.337-.107-.513-.152,0,0-2.435-.382-5.408-1.068l-.037.016S360.855,603.74,363,604.787Z" transform="translate(-277.265 -588.314)" fill="#e0e9ef"/>
          <path id="Path_3317" data-name="Path 3317" d="M164.2,653.27c1.224,2.985,3.419,2.525,3.419,2.525l13.552-.354,24.736-.642a4.64,4.64,0,0,0,1.274.095l1.344-1.1s-35.472-3.779-44.109-.595C164.348,653.227,164.272,653.248,164.2,653.27Z" transform="translate(-139.068 -622.525)" fill="#fff"/>
          <path id="Path_3318" data-name="Path 3318" d="M136.063,608.983a9.612,9.612,0,0,1,2.892,2.659,28.118,28.118,0,0,1,2.248,3.373c.054.157.108.305.168.444,1.224,2.985,3.419,2.525,3.419,2.525l13.552-.354,24.736-.642a4.643,4.643,0,0,0,1.274.095,1.921,1.921,0,0,0,1.757-2.352,19.878,19.878,0,0,0,1.3-7.4,34.2,34.2,0,0,0-.723-7.128c-3.061-.557-16.649-1.17-29.546-1.643-13.073-.48-25.443-.817-25.443-.817A11.251,11.251,0,0,0,136.063,608.983Z" transform="translate(-116.236 -584.715)" fill="none" stroke="#707070" stroke-miterlimit="10" stroke-width="0.2"/>
          <path id="Path_3319" data-name="Path 3319" d="M216.65,600.818s2.523,15.483,1.186,18.759" transform="translate(-175.666 -586.862)" fill="none" stroke="#707070" stroke-miterlimit="10" stroke-width="0.2"/>
        </g>
        <g id="Group_2114" data-name="Group 2114" transform="translate(95.943 556.845)">
          <path id="Path_3320" data-name="Path 3320" d="M132.192,572.768a.194.194,0,0,0,.029.093c7.061.06,16.088.377,25.3.792,10.527.479,21.3,1.089,29.653,1.591l.006-.016s.169-5.611-1.832-6.541c0,0-13.671-7.749-30.373-6.621-5.483.371-21.124.9-21.606,4.037A64.3,64.3,0,0,0,132.192,572.768Z" transform="translate(-132.191 -561.954)" fill="#434443"/>
          <path id="Path_3321" data-name="Path 3321" d="M160.326,566.491c.438,2.25,1.761,9.091,1.75,9.549l-16.637-.376s-3.31-4.222-2.606-7.156c.086-.358,10.994-2.582,16.611-2.722A.874.874,0,0,1,160.326,566.491Z" transform="translate(-139.548 -564.627)" fill="#d6e3dd"/>
          <path id="Path_3322" data-name="Path 3322" d="M293.129,581.339a21.632,21.632,0,0,0-4.943-2.361.28.28,0,0,0-.373.315c.218,1.162.838,4.34,1.146,4.539,0,0,3.334.89,4.6.1C293.564,583.932,293.881,581.953,293.129,581.339Z" transform="translate(-240.785 -573.821)" fill="#d6e3dd"/>
          <path id="Path_3323" data-name="Path 3323" d="M289.3,589.159s-1.294,2.517-.044,3.556c0,0,3.628.458,3.67-2C292.93,590.715,292.672,588.532,289.3,589.159Z" transform="translate(-241.418 -580.859)" fill="#2a2b2a"/>
          <g id="Group_2110" data-name="Group 2110" transform="translate(3.186 1.158)">
            <g id="Group_2109" data-name="Group 2109" clip-path="url(#clip-path-4)">
              <g id="Group_2108" data-name="Group 2108" transform="translate(0.228 -2.288)" opacity="0.57">
                <rect id="Rectangle_1391" data-name="Rectangle 1391" width="1.609" height="17.293" transform="translate(17.425 12.897) rotate(138.227)" fill="#fff"/>
                <rect id="Rectangle_1392" data-name="Rectangle 1392" width="3.589" height="17.293" transform="matrix(-0.746, 0.666, -0.666, -0.746, 14.197, 13.908)" fill="#fff"/>
              </g>
            </g>
          </g>
          <path id="Path_3325" data-name="Path 3325" d="M236.19,567.842c-2.433-.849-12.751-4.236-19.55-3.163a.384.384,0,0,0-.31.47c.364,1.529,1.689,7.038,2.445,9.382a1.067,1.067,0,0,0,.959.737l17.468.945,1.021-2.765-1.319-4.9A1.167,1.167,0,0,0,236.19,567.842Z" transform="translate(-190.897 -563.71)" fill="#d6e3dd"/>
          <g id="Group_2113" data-name="Group 2113" transform="translate(25.421 0.761)">
            <g id="Group_2112" data-name="Group 2112" clip-path="url(#clip-path-5)">
              <g id="Group_2111" data-name="Group 2111" transform="translate(-1.444 -2.763)" opacity="0.56">
                <rect id="Rectangle_1393" data-name="Rectangle 1393" width="1.445" height="21.006" transform="matrix(-0.78, 0.626, -0.626, -0.78, 21.224, 16.51)" fill="#fff"/>
                <rect id="Rectangle_1394" data-name="Rectangle 1394" width="5.628" height="21.006" transform="translate(17.536 16.384) rotate(141.257)" fill="#fff"/>
              </g>
            </g>
          </g>
        </g>
      </g>
    </g>
  </g>
</svg>
