<svg xmlns="http://www.w3.org/2000/svg" xmlns:xlink="http://www.w3.org/1999/xlink" width="82.495" height="41.906" viewBox="0 0 82.495 41.906">
  <defs>
    <clipPath id="clip-path">
      <path id="Path_2891" data-name="Path 2891" d="M156.665,566.344c.347,1.782,1.395,7.2,1.386,7.562l-13.175-.3s-2.622-3.344-2.064-5.667c.068-.284,8.707-2.045,13.155-2.156A.692.692,0,0,1,156.665,566.344Z" transform="translate(-142.734 -565.785)" fill="none"/>
    </clipPath>
    <clipPath id="clip-path-2">
      <path id="Path_2893" data-name="Path 2893" d="M232.056,567.14c-1.927-.672-10.1-3.355-15.483-2.5a.3.3,0,0,0-.246.372c.288,1.211,1.338,5.574,1.937,7.43a.845.845,0,0,0,.759.584l13.834.748.809-2.19-1.045-3.877A.925.925,0,0,0,232.056,567.14Z" transform="translate(-216.319 -564.471)" fill="none"/>
    </clipPath>
  </defs>
  <g id="Group_3517" data-name="Group 3517" transform="translate(-55.248 -4061.058)">
    <g id="Group_2062" data-name="Group 2062" transform="translate(294.564 4631.139) rotate(172)">
      <path id="Path_2846" data-name="Path 2846" d="M80.339,581.1s.023.4.092.967c.162,1.336.565,3.6,1.477,3.823a6.668,6.668,0,0,0,2.244.186S84,579.733,89.2,578.1c3.079-.963,9.06-1,9.944,8.229,0,0,35.161-.848,37.539-.462,0,0,.923-.167.732-1.606a7.4,7.4,0,0,1,.017-.81c.119-1.928.945-6.7,6.082-7.792,0,0,7.364-1.693,8.926,6.583.073.389.134.8.176,1.231s.081.883.1,1.359c0,0,2.824.656,3.989-.3a19.236,19.236,0,0,0,2.973-.138l.119-.815s-.029-.033-.076-.093c-.261-.318-1.046-1.354-.367-1.436a15.774,15.774,0,0,0,.185-5c-.391-2.813-1.848-5.827-6.23-6.174,0,0-10.561-2.134-13.454-3.616-5.258-2.7-14.169-8.323-27.235-7.591-5.642.317-14.953.2-22.495,2.226a3.2,3.2,0,0,0-.509,1.079s-5.221,5.522-5.524,5.8c-.252.233-.5.463-.728.694a8.939,8.939,0,0,0-.962,1.1c-.873,1.208-1.2,2.6-.285,4.714C82.117,575.289,79.754,579.206,80.339,581.1Z" transform="translate(0 -3.784)" fill="#278a9c"/>
      <g id="Group_1903" data-name="Group 1903" transform="translate(84.099 571.677)">
        <g id="Group_1897" data-name="Group 1897" transform="translate(0 0)">
          <g id="Group_1896" data-name="Group 1896">
            <path id="Path_2847" data-name="Path 2847" d="M332.325,635.561l1.806-.333s.689-9.219-7.6-9.372c-3.152-.058-8.472,2.05-7.732,9.962a3.172,3.172,0,0,0,2.142,1.556s-4.1-7.094,3.806-9.821C327.539,626.59,333.039,628.657,332.325,635.561Z" transform="translate(-265.515 -625.854)" fill="#2a2b2a"/>
            <path id="Path_2848" data-name="Path 2848" d="M110.272,642.877l1.162.06s.63-8.253-7.282-8.86a7.538,7.538,0,0,0-7.751,8.638s.115-.626,1.06-.329a7.041,7.041,0,0,1,4.634-6.269C104.828,635.012,110.152,636.074,110.272,642.877Z" transform="translate(-96.347 -632.098)" fill="#2a2b2a"/>
          </g>
        </g>
        <g id="Group_1902" data-name="Group 1902" transform="translate(0.873 1.047)">
          <g id="Group_1899" data-name="Group 1899" transform="translate(52.933 0)">
            <ellipse id="Ellipse_245" data-name="Ellipse 245" cx="6.58" cy="6.374" rx="6.58" ry="6.374" transform="translate(0 0.612) rotate(-2.664)" fill="#3d4039"/>
            <ellipse id="Ellipse_246" data-name="Ellipse 246" cx="4.751" cy="4.69" rx="4.751" ry="4.69" transform="matrix(0.999, -0.046, 0.046, 0.999, 2.133, 2.334)" fill="#d6e3dd"/>
            <path id="Path_2849" data-name="Path 2849" d="M336.893,647.8a3.267,3.267,0,1,0,3.11-3.443A3.281,3.281,0,0,0,336.893,647.8Z" transform="translate(-333.132 -640.972)" fill="#3d4039"/>
            <path id="Path_2850" data-name="Path 2850" d="M333.376,646.067l-.134-1.245,2.564-.134c.014-.047.029-.093.048-.138l-2.009-1.494.78-.98,1.9,1.693c.042-.025.085-.048.13-.069l-.4-2.532,1.246-.127.174,2.521a1.617,1.617,0,0,1,.19.045l1.569-2.033.947.819-1.669,1.809a1.556,1.556,0,0,1,.194.351l2.526-.22.04,1.252-2.531,0c-.013.04-.026.079-.042.117l2,1.66-.852.918-1.823-1.8a1.657,1.657,0,0,1-.214.105l.534,2.5-1.233.221-.344-2.647c-.048-.012-.1-.026-.142-.042l.029.022-1.477,2.139-1.007-.745,1.661-2a1.569,1.569,0,0,1-.175-.313Z" transform="translate(-330.357 -638.454)" fill="#d6e3dd"/>
            <g id="Group_1898" data-name="Group 1898" transform="translate(5.796 5.457)">
              <path id="Path_2851" data-name="Path 2851" d="M351.783,653.406a.357.357,0,1,0,.34-.373A.357.357,0,0,0,351.783,653.406Z" transform="translate(-350.257 -653.032)" fill="#c6c6c6" stroke="#3d4039" stroke-miterlimit="10" stroke-width="0.1"/>
              <path id="Path_2852" data-name="Path 2852" d="M345.409,654.416a.357.357,0,1,0,.34-.373A.357.357,0,0,0,345.409,654.416Z" transform="translate(-345.408 -653.801)" fill="#c6c6c6" stroke="#3d4039" stroke-miterlimit="10" stroke-width="0.1"/>
              <path id="Path_2853" data-name="Path 2853" d="M346.545,660.719a.357.357,0,1,0,.34-.373A.357.357,0,0,0,346.545,660.719Z" transform="translate(-346.272 -658.595)" fill="#c6c6c6" stroke="#3d4039" stroke-miterlimit="10" stroke-width="0.1"/>
              <path id="Path_2854" data-name="Path 2854" d="M352.984,659.706a.357.357,0,1,0,.34-.373A.357.357,0,0,0,352.984,659.706Z" transform="translate(-351.171 -657.825)" fill="#c6c6c6" stroke="#3d4039" stroke-miterlimit="10" stroke-width="0.1"/>
            </g>
          </g>
          <g id="Group_1901" data-name="Group 1901" transform="translate(0 2.153)">
            <path id="Path_2855" data-name="Path 2855" d="M100,645.9a6.584,6.584,0,1,0,6.277-6.673A6.48,6.48,0,0,0,100,645.9Z" transform="translate(-99.995 -639.224)" fill="#3d4039"/>
            <ellipse id="Ellipse_247" data-name="Ellipse 247" cx="4.751" cy="4.69" rx="4.751" ry="4.69" transform="translate(1.843 2.036) rotate(-2.669)" fill="#d6e3dd"/>
            <path id="Path_2856" data-name="Path 2856" d="M114.49,655.545a3.267,3.267,0,1,0,3.11-3.443A3.281,3.281,0,0,0,114.49,655.545Z" transform="translate(-111.019 -649.018)" fill="#3d4039"/>
            <path id="Path_2857" data-name="Path 2857" d="M110.973,653.815l-.134-1.245,2.564-.134c.014-.047.029-.093.048-.138l-2.009-1.494.78-.98,1.9,1.693c.042-.025.085-.048.13-.069l-.4-2.532,1.246-.127.174,2.521a1.681,1.681,0,0,1,.19.045l1.569-2.033.947.819-1.669,1.809a1.553,1.553,0,0,1,.194.351l2.526-.22.039,1.252-2.531,0c-.012.04-.026.079-.042.118l2,1.66-.852.919-1.823-1.8a1.642,1.642,0,0,1-.214.1l.533,2.505-1.233.221-.344-2.647c-.048-.012-.1-.026-.142-.042l.029.022-1.477,2.139-1.007-.745,1.661-2a1.563,1.563,0,0,1-.175-.314Z" transform="translate(-108.244 -646.501)" fill="#d6e3dd"/>
            <g id="Group_1900" data-name="Group 1900" transform="translate(5.507 5.159)">
              <path id="Path_2858" data-name="Path 2858" d="M129.38,661.154a.357.357,0,1,0,.34-.373A.357.357,0,0,0,129.38,661.154Z" transform="translate(-127.854 -660.78)" fill="#c6c6c6" stroke="#3d4039" stroke-miterlimit="10" stroke-width="0.1"/>
              <path id="Path_2859" data-name="Path 2859" d="M123.006,662.164a.357.357,0,1,0,.34-.373A.357.357,0,0,0,123.006,662.164Z" transform="translate(-123.005 -661.549)" fill="#c6c6c6" stroke="#3d4039" stroke-miterlimit="10" stroke-width="0.1"/>
              <path id="Path_2860" data-name="Path 2860" d="M124.143,668.467a.357.357,0,1,0,.34-.373A.357.357,0,0,0,124.143,668.467Z" transform="translate(-123.87 -666.343)" fill="#c6c6c6" stroke="#3d4039" stroke-miterlimit="10" stroke-width="0.1"/>
              <path id="Path_2861" data-name="Path 2861" d="M130.581,667.454a.357.357,0,1,0,.34-.373A.357.357,0,0,0,130.581,667.454Z" transform="translate(-128.768 -665.573)" fill="#c6c6c6" stroke="#3d4039" stroke-miterlimit="10" stroke-width="0.1"/>
            </g>
          </g>
        </g>
      </g>
      <g id="Group_1904" data-name="Group 1904" transform="translate(80.431 554.633)">
        <path id="Path_2862" data-name="Path 2862" d="M93.277,569.475l.015,0a20.462,20.462,0,0,0,3.654-.624c1.607-.05,3.523-.062,5.667-.045,11.984.1,31.112,1.141,43.521,1.887,7.175.436,12.1.771,12.1.771,3.6,2.564,11.187,5.6,11.187,5.6l.024-.013c-.391-2.813-1.848-5.827-6.23-6.174,0,0-1.837-.371-4.192-.913-3.286-.754-7.575-1.84-9.262-2.7-5.258-2.7-14.17-8.323-27.235-7.591-5.642.317-14.953.2-22.495,2.226a3.2,3.2,0,0,0-.509,1.079l0,0c-.13.138-4.575,4.839-5.4,5.68-.059.062-.1.1-.118.12C93.752,569.013,93.507,569.243,93.277,569.475Z" transform="translate(-90.344 -558.418)" fill="#fff"/>
        <path id="Path_2863" data-name="Path 2863" d="M221.821,608.162c.025.53,1.154.909,2.522.845s2.458-.545,2.433-1.075-1.154-.909-2.523-.845S221.8,607.632,221.821,608.162Z" transform="translate(-188.126 -594.529)" fill="#fff"/>
        <path id="Path_2864" data-name="Path 2864" d="M139.665,604.373c.025.53,1.154.909,2.523.845s2.458-.545,2.433-1.075-1.154-.909-2.523-.845S139.64,603.843,139.665,604.373Z" transform="translate(-125.63 -591.647)" fill="#fff"/>
        <path id="Path_2865" data-name="Path 2865" d="M108.533,613.781a1.592,1.592,0,1,0,1.516-1.664A1.592,1.592,0,0,0,108.533,613.781Z" transform="translate(-101.948 -598.36)" fill="#fff"/>
        <path id="Path_2866" data-name="Path 2866" d="M312.063,588.425s7.632,3.908,4.452,4.056l-3.951.134A11.986,11.986,0,0,0,312.063,588.425Z" transform="translate(-256.773 -580.338)" fill="#fff"/>
        <path id="Path_2867" data-name="Path 2867" d="M86.327,608.935c1.329.1,5.449-3.9,5.449-3.9,1.558-2.059-5.006-.843-5.006-.843l-.158.025C85.739,605.429,85.412,606.825,86.327,608.935Z" transform="translate(-84.641 -592.064)" fill="#d6e3dd"/>
        <path id="Path_2868" data-name="Path 2868" d="M232.056,567.14c-1.927-.672-10.1-3.355-15.483-2.5a.3.3,0,0,0-.246.372c.288,1.211,1.338,5.574,1.937,7.43a.845.845,0,0,0,.759.584l13.834.748.809-2.19-1.045-3.877A.925.925,0,0,0,232.056,567.14Z" transform="translate(-183.941 -562.117)" fill="#d6e3dd"/>
        <path id="Path_2869" data-name="Path 2869" d="M232.056,567.14c-1.927-.672-10.1-3.355-15.483-2.5a.3.3,0,0,0-.246.372c.288,1.211,1.338,5.574,1.937,7.43a.845.845,0,0,0,.759.584l13.834.748.809-2.19-1.045-3.877A.925.925,0,0,0,232.056,567.14Z" transform="translate(-183.941 -562.117)" fill="#d6e3dd"/>
        <path id="Path_2870" data-name="Path 2870" d="M232.056,567.14c-1.927-.672-10.1-3.355-15.483-2.5a.3.3,0,0,0-.246.372c.288,1.211,1.338,5.574,1.937,7.43a.845.845,0,0,0,.759.584l13.834.748.809-2.19-1.045-3.877A.925.925,0,0,0,232.056,567.14Z" transform="translate(-183.941 -562.117)" fill="#d6e3dd"/>
        <path id="Path_2871" data-name="Path 2871" d="M232.056,567.14c-1.927-.672-10.1-3.355-15.483-2.5a.3.3,0,0,0-.246.372c.288,1.211,1.338,5.574,1.937,7.43a.845.845,0,0,0,.759.584l13.834.748.809-2.19-1.045-3.877A.925.925,0,0,0,232.056,567.14Z" transform="translate(-183.941 -562.117)" fill="#d6e3dd"/>
        <path id="Path_2872" data-name="Path 2872" d="M382.667,659.331c.05.43.081.883.1,1.359,0,0,2.824.656,3.989-.3a19.244,19.244,0,0,0,2.973-.138l.119-.815s-6.047.1-7.05-.1A.331.331,0,0,0,382.667,659.331Z" transform="translate(-310.481 -634.273)" fill="#fff"/>
        <path id="Path_2873" data-name="Path 2873" d="M398.215,639.077a7.861,7.861,0,0,0,2.815.671c-.261-.318-1.046-1.354-.367-1.436,0,0-.828-4.464-2.7-4.749C397.959,633.564,396.7,639.024,398.215,639.077Z" transform="translate(-321.741 -614.676)" fill="#fff"/>
        <path id="Path_2874" data-name="Path 2874" d="M398.215,639.077c.359-1.2-.256-5.513-.256-5.513S396.7,639.024,398.215,639.077Z" transform="translate(-321.741 -614.676)" fill="#fff"/>
        <path id="Path_2875" data-name="Path 2875" d="M156.314,626.416c.828-.039,1.242-1.8,1.242-1.8-.165-1.731,1.579-1.415,2.243-1.594,10.709-2.9,29.76-.18,33.792-.116a22.634,22.634,0,0,1,3.16,1.146,8.137,8.137,0,0,1,6.513-2.636c7.789.517,7.027,7.786,7.027,7.786l-.07.048c-1.562-8.276-8.926-6.583-8.926-6.583a7.529,7.529,0,0,0-6.082,7.793c-.016-.126-3.67.6-4.066.522l-19.59.509-10.732.28s-1.739.364-2.708-2c-.047-.11-.09-.227-.133-.352a22.265,22.265,0,0,0-1.781-2.671C156.2,626.537,156.235,626.419,156.314,626.416Z" transform="translate(-138.213 -605.426)" fill="#fff"/>
        <path id="Path_2876" data-name="Path 2876" d="M213.155,651.7s-15.545-3.188-27.8-1Z" transform="translate(-160.389 -627.122)" fill="#fff"/>
        <path id="Path_2877" data-name="Path 2877" d="M344.753,608.4s-5.708,3.132-14.6-4.815l8.277,1.334S341.961,607.1,344.753,608.4Z" transform="translate(-270.531 -591.868)" fill="#fff"/>
        <path id="Path_2878" data-name="Path 2878" d="M96.813,579.381c.073-.028.151-.064.231-.1a10.143,10.143,0,0,0,5.172-5.577C102.086,573.839,97.641,578.54,96.813,579.381Z" transform="translate(-93.034 -569.138)" fill="#fff"/>
        <path id="Path_2879" data-name="Path 2879" d="M146.1,562.856s-1.14-.919-1.334.248Z" transform="translate(-129.51 -560.627)" fill="#111"/>
        <rect id="Rectangle_1345" data-name="Rectangle 1345" width="0.116" height="2.584" transform="translate(15.586 2.059) rotate(142.828)" fill="#111"/>
        <path id="Path_2880" data-name="Path 2880" d="M81.02,636.527c.162,1.336.565,3.6,1.477,3.823a6.667,6.667,0,0,0,2.244.186s-.149-6.345,5.05-7.975c3.079-.963,9.06-1,9.944,8.229,0,0,35.161-.848,37.539-.462,0,0,.923-.167.732-1.606,0,0-.014-.412.02-.912,0,0-31.678-3.109-37.1-.587,0,0-3.074-7.521-10.69-5.758a8.4,8.4,0,0,0-5,3.336s-2.622,2.357-4.141,1.745A.239.239,0,0,0,81.02,636.527Z" transform="translate(-81.02 -612.875)" fill="#fff"/>
        <path id="Path_2881" data-name="Path 2881" d="M187.154,595.947s-7.972-1.59-10.091-3.106c0,0,5.106,3,2.5,2.821-14.534-.991-47.557-1.683-47.56-1.606-.081,1.728,55.826,2.7,55.826,2.7S186.957,596.509,187.154,595.947Z" transform="translate(-119.799 -583.698)" fill="#fff"/>
        <path id="Path_2882" data-name="Path 2882" d="M121.525,565.864a10.04,10.04,0,0,1,2.683.753.555.555,0,0,0,.5.088,55.032,55.032,0,0,1,9.022-1.884A90.813,90.813,0,0,0,121.525,565.864Z" transform="translate(-111.832 -562.383)" fill="#fff"/>
        <path id="Path_2883" data-name="Path 2883" d="M362.842,604.394l.078.078a1.215,1.215,0,0,0,.091.091c3.434,3.372,8.462,3.021,8.462,3.021a3.763,3.763,0,0,0-1.457-2.829,5.185,5.185,0,0,0-1.7-.891c-.13-.046-.267-.085-.407-.12,0,0-1.928-.3-4.283-.846l-.029.013S361.144,603.565,362.842,604.394Z" transform="translate(-294.945 -591.348)" fill="#e0e9ef"/>
        <path id="Path_2884" data-name="Path 2884" d="M164.2,652.99c.969,2.364,2.708,2,2.708,2l10.732-.28,19.59-.509a3.676,3.676,0,0,0,1.009.075l1.065-.87s-28.092-2.993-34.932-.471C164.318,652.956,164.258,652.972,164.2,652.99Z" transform="translate(-144.298 -628.642)" fill="#fff"/>
        <path id="Path_2885" data-name="Path 2885" d="M135.111,606.644a7.613,7.613,0,0,1,2.291,2.106,22.271,22.271,0,0,1,1.781,2.671c.043.125.086.242.133.352.969,2.364,2.708,2,2.708,2l10.732-.28,19.59-.509a3.678,3.678,0,0,0,1.009.075,1.521,1.521,0,0,0,1.391-1.863,15.742,15.742,0,0,0,1.031-5.861,27.084,27.084,0,0,0-.573-5.645c-2.424-.441-13.185-.927-23.4-1.3-10.353-.38-20.15-.647-20.15-.647A8.91,8.91,0,0,0,135.111,606.644Z" transform="translate(-119.409 -587.425)" fill="none" stroke="#707070" stroke-miterlimit="10" stroke-width="0.2"/>
        <path id="Path_2886" data-name="Path 2886" d="M216.65,600.818s2,12.262.939,14.856" transform="translate(-184.193 -589.766)" fill="none" stroke="#707070" stroke-miterlimit="10" stroke-width="0.2"/>
      </g>
      <g id="Group_1911" data-name="Group 1911" transform="translate(92.677 556.385)">
        <path id="Path_2887" data-name="Path 2887" d="M132.192,570.518a.153.153,0,0,0,.023.074c5.592.048,12.741.3,20.037.628,8.337.38,16.865.862,23.483,1.26l0-.013s.134-4.444-1.45-5.18a47.443,47.443,0,0,0-24.054-5.244c-4.342.294-16.729.716-17.11,3.2A50.922,50.922,0,0,0,132.192,570.518Z" transform="translate(-132.191 -561.954)" fill="#434443"/>
        <path id="Path_2888" data-name="Path 2888" d="M156.665,566.344c.347,1.782,1.395,7.2,1.386,7.562l-13.175-.3s-2.622-3.344-2.064-5.667c.068-.284,8.707-2.045,13.155-2.156A.692.692,0,0,1,156.665,566.344Z" transform="translate(-140.211 -564.868)" fill="#d6e3dd"/>
        <path id="Path_2889" data-name="Path 2889" d="M292.023,580.844a17.131,17.131,0,0,0-3.914-1.87.222.222,0,0,0-.3.25,17.566,17.566,0,0,0,.907,3.595s2.64.705,3.646.079C292.366,582.9,292.618,581.331,292.023,580.844Z" transform="translate(-250.569 -574.89)" fill="#d6e3dd"/>
        <path id="Path_2890" data-name="Path 2890" d="M289.182,589.135s-1.025,1.993-.035,2.816c0,0,2.873.363,2.906-1.584C292.053,590.368,291.849,588.639,289.182,589.135Z" transform="translate(-251.259 -582.563)" fill="#2a2b2a"/>
        <g id="Group_1907" data-name="Group 1907" transform="translate(2.523 0.917)">
          <g id="Group_1906" data-name="Group 1906" clip-path="url(#clip-path)">
            <g id="Group_1905" data-name="Group 1905" transform="translate(0.18 -1.812)" opacity="0.57">
              <rect id="Rectangle_1346" data-name="Rectangle 1346" width="1.274" height="13.695" transform="translate(13.799 10.213) rotate(138.227)" fill="#fff"/>
              <rect id="Rectangle_1347" data-name="Rectangle 1347" width="2.842" height="13.695" transform="matrix(-0.746, 0.666, -0.666, -0.746, 11.243, 11.014)" fill="#fff"/>
            </g>
          </g>
        </g>
        <path id="Path_2892" data-name="Path 2892" d="M232.056,567.14c-1.927-.672-10.1-3.355-15.483-2.5a.3.3,0,0,0-.246.372c.288,1.211,1.338,5.574,1.937,7.43a.845.845,0,0,0,.759.584l13.834.748.809-2.19-1.045-3.877A.925.925,0,0,0,232.056,567.14Z" transform="translate(-196.187 -563.868)" fill="#d6e3dd"/>
        <g id="Group_1910" data-name="Group 1910" transform="translate(20.132 0.602)">
          <g id="Group_1909" data-name="Group 1909" clip-path="url(#clip-path-2)">
            <g id="Group_1908" data-name="Group 1908" transform="translate(-1.144 -2.188)" opacity="0.56">
              <rect id="Rectangle_1348" data-name="Rectangle 1348" width="1.144" height="16.636" transform="matrix(-0.78, 0.626, -0.626, -0.78, 16.808, 13.075)" fill="#fff"/>
              <rect id="Rectangle_1349" data-name="Rectangle 1349" width="4.457" height="16.636" transform="translate(13.888 12.975) rotate(141.257)" fill="#fff"/>
            </g>
          </g>
        </g>
      </g>
    </g>
    <rect id="Rectangle_1411" data-name="Rectangle 1411" width="78" height="4" transform="translate(58 4097)" fill="#4a4a4a"/>
  </g>
</svg>
