<svg xmlns="http://www.w3.org/2000/svg" width="43.137" height="43.257" viewBox="0 0 43.137 43.257">
  <g id="Group_2186" data-name="Group 2186" transform="translate(-612.043 -483.071)">
    <path id="Path_3496" data-name="Path 3496" d="M679.062,527.069c.5-.253.427.117.29.327a24.876,24.876,0,0,1-1.7,2.413c-.359.428-.9.7-1.34,1.233a8.446,8.446,0,0,0,.853.086c1.9.008,3.8.025,5.7-.008.632-.011.877.146.871.831-.02,2.081.008,2.08-2.082,2.08-1.953,0-3.907-.026-5.859.021a2.353,2.353,0,0,0-1.269.452,3.128,3.128,0,0,1-3.887.027,2.524,2.524,0,0,0-1.344-.477c-2.322-.047-4.646-.045-6.968-.008-.706.011-.9-.228-.887-.913.026-2,0-2,2-2,1.5,0,3.009,0,4.514,0,.278,0,.557-.028.989-.052-.217-.254-.316-.389-.436-.5a2,2,0,0,0-.322-.229,5.226,5.226,0,0,1-2.615-4.829c.059-5.379.022-10.759.024-16.138a4.564,4.564,0,0,1,1.9-3.659,2.075,2.075,0,0,0,.628-.679h-6.578v-3h.836c2.244,0,4.487-.011,6.731.008a1.342,1.342,0,0,0,1.153-.506,3.056,3.056,0,0,1,4.666-.012,1.629,1.629,0,0,0,1.047.488c2.531.041,5.064.022,7.673.022V505h-6.584l-.062.212.645.509a4.631,4.631,0,0,1,1.911,3.813c-.006,4.012.006,8.025-.011,12.037a11.162,11.162,0,0,1-.2,1.486l.021-.007c-.494.706-1.117.044-1.672.153-.422.083-.621-.206-.509-.562a1.036,1.036,0,0,1,.561-.554,2.644,2.644,0,0,1,.879-.021,1.109,1.109,0,0,0-.18-.145.493.493,0,0,0-.227-.06c-.961.125-1.023-.43-1.016-1.194.031-3.565.015-7.13.015-10.695a3.964,3.964,0,0,0-3.123-3.683c0,1.04-.013,2.066.012,3.091a.859.859,0,0,0,.269.535,2.74,2.74,0,0,1,.813,2.151c-.008,2.773,0,5.545-.006,8.318,0,.692.326,1.589-.849,1.577.306.127.718.175.844.391a.855.855,0,0,1-.281.792c-.89.3-.8,1.015-.831,1.684-.041.842-.061,1.686-.075,2.529-.012.671,0,1.342,0,2.234.509-.353.79-.537,1.06-.737.941-.7,1.788-1.583,3.135-1.4.2.026.421-.175.633-.271Zm-6.8-4.214c.047.469.1.938.138,1.408.044.6.015,1.154-.832,1.167.376-.041.9-.192.9-.345a18.2,18.2,0,0,0-.221-2.214,1.781,1.781,0,0,0-1.6-1c-.551-.057-.7-.308-.7-.817.014-3.086-.018-6.172.032-9.257a2.537,2.537,0,0,1,.54-1.591c1.2-1.255.347-2.648.5-3.995-.619.293-1.082.681-1.6.974a2.992,2.992,0,0,0-1.545,2.961c.053,3.586.008,7.173.029,10.76,0,.634.013,1.177-.621,1.116.141.132.5.312.577.572.242.864-.636.547-1.1.839l1.117.1a7.651,7.651,0,0,1-.035,2.036,1.648,1.648,0,0,0,.56,1.971c.8.646,1.626,1.272,2.508,1.959.152-.912.272-1.638.381-2.294-.084-.138-.283-.316-.293-.5a8.09,8.09,0,0,1,.024-2.09c.175-.806.013-1.244-.792-1.495-.174-.054-.309-.465-.315-.715,0-.106.419-.359.568-.309A19.029,19.029,0,0,1,672.26,522.854Zm1.109-.436c-1.137,1.446-.466,3.093-.575,4.653C673.095,525.532,672.481,523.892,673.369,522.418Z" transform="translate(-38.958 -13.71)" fill="#4a4a4a"/>
    <path id="Path_3497" data-name="Path 3497" d="M784.826,489.9c0,1.424.014,2.847,0,4.271a2.257,2.257,0,0,1-2.314,2.462c-1.235.067-2.479.067-3.715.012a2.308,2.308,0,0,1-2.36-2.514q-.011-4.231,0-8.463a2.324,2.324,0,0,1,2.518-2.511c1.16-.012,2.32-.016,3.48,0a2.266,2.266,0,0,1,2.384,2.314C784.859,486.945,784.825,488.423,784.826,489.9Zm-1.063,3.241c.006-.98-.73-1.5-1.449-1.11a2.578,2.578,0,0,1-2.927.012.918.918,0,0,0-1.4.437.977.977,0,0,0,.535,1.38,17.773,17.773,0,0,0,1.863.857,1.391,1.391,0,0,0,.9-.007,11.41,11.41,0,0,0,1.85-.88A2.72,2.72,0,0,0,783.762,493.14Zm-2.955-5.375c.874-.426,1.637-.775,2.378-1.166a1,1,0,1,0-.919-1.763,2.241,2.241,0,0,1-2.825-.016c-.1-.073-.271-.158-.364-.122-.347.133-.815.232-.972.5s-.132.923.058,1.054C779,486.826,779.916,487.271,780.807,487.765Zm2.979,1.654a1,1,0,0,0-1.517-.96,2.44,2.44,0,0,1-2.841-.019.57.57,0,0,0-.146-.06.992.992,0,0,0-.872,1.776,12.76,12.76,0,0,0,1.264.643,3.8,3.8,0,0,0,3.849-.848A2.188,2.188,0,0,0,783.786,489.419Z" transform="translate(-129.657 -0.058)" fill="#4a4a4a"/>
    <path id="Path_3498" data-name="Path 3498" d="M620.425,489.85c0,1.423.011,2.847,0,4.27a2.222,2.222,0,0,1-2.341,2.408q-1.857.038-3.716,0a2.213,2.213,0,0,1-2.3-2.289q-.029-4.428,0-8.856a2.24,2.24,0,0,1,2.3-2.3q1.9-.028,3.8,0a2.227,2.227,0,0,1,2.255,2.256C620.442,486.845,620.425,488.348,620.425,489.85Zm-1.146-.53a3.064,3.064,0,0,0-.242-.618,1.037,1.037,0,0,0-1.536-.244,2.03,2.03,0,0,1-2.475,0,1.244,1.244,0,0,0-.289-.125.965.965,0,0,0-1.327.5.927.927,0,0,0,.436,1.281c1.359.861,2.743,1.512,4.26.3.182-.145.45-.193.611-.353A5.856,5.856,0,0,0,619.279,489.319Zm.126,3.428a4.323,4.323,0,0,0-1.035-.838,1.275,1.275,0,0,0-.961.191,1.9,1.9,0,0,1-2.336-.014,1.11,1.11,0,0,0-.287-.13,1,1,0,0,0-1.4.494.95.95,0,0,0,.506,1.323,17.943,17.943,0,0,0,1.931.9,1.109,1.109,0,0,0,.757.018,15.7,15.7,0,0,0,2.065-.983C618.925,493.547,619.081,493.174,619.405,492.748Zm-5.2-8.246c-.263.259-.72.5-.775.818a1.347,1.347,0,0,0,.411,1.122c1.344.941,2.764,1.613,4.309.338a2.282,2.282,0,0,1,.417-.225.965.965,0,0,0,.54-1.371,1.045,1.045,0,0,0-1.491-.4.823.823,0,0,0-.138.078,1.92,1.92,0,0,1-2.4.019A5.7,5.7,0,0,0,614.209,484.5Z" transform="translate(-0.005)" fill="#4a4a4a"/>
    <path id="Path_3499" data-name="Path 3499" d="M778.964,623.968a12.428,12.428,0,0,1,3.439.084c.635.195,1.207.781,1.983.939.209.042.4.727.407,1.118.033,3.034.049,6.069,0,9.1a2.174,2.174,0,0,1-2.264,2.165c-1.292.026-2.586.027-3.878,0a2.217,2.217,0,0,1-2.218-2.222c-.029-2.981-.018-5.963-.006-8.945a2.844,2.844,0,0,1,1.854-2.212.592.592,0,0,1,.477.162,2.262,2.262,0,0,0,2.327.628C780.35,624.7,779.525,624.849,778.964,623.968Zm-.38,1.893c-.27.264-.729.507-.783.82a1.334,1.334,0,0,0,.409,1.126c1.325.864,2.671,1.54,4.271.4.922-.656,1.319-1.035,1.009-1.669s-.9-.726-1.914-.179a1.72,1.72,0,0,1-1.91-.038A8.192,8.192,0,0,0,778.584,625.861Zm0,3.59c-.285.288-.75.547-.814.882a1.326,1.326,0,0,0,.448,1.1,11.677,11.677,0,0,0,2.043,1,.861.861,0,0,0,.612.037,19.849,19.849,0,0,0,2.265-1.087.9.9,0,0,0,.284-1.314.93.93,0,0,0-1.222-.419,4.726,4.726,0,0,0-.928.429,1.152,1.152,0,0,1-1.314-.011C779.573,629.857,779.151,629.707,778.58,629.451Zm4.967,5.008c.01-.868-.518-1.343-1.142-1.242a1.628,1.628,0,0,0-.658.248,1.724,1.724,0,0,1-2.231.015,1.44,1.44,0,0,0-.285-.135,1.01,1.01,0,0,0-1.475.443c-.283.526-.045,1.058.625,1.4a13.291,13.291,0,0,0,1.715.8,1.706,1.706,0,0,0,1.046,0,8.693,8.693,0,0,0,1.7-.822A3.6,3.6,0,0,0,783.547,634.459Z" transform="translate(-129.65 -111.068)" fill="#4a4a4a"/>
    <path id="Path_3500" data-name="Path 3500" d="M617.856,624.744l.558-.71c1.855.767,2.014,1,2.011,2.984,0,2.585,0,5.17,0,7.756a2.311,2.311,0,0,1-2.633,2.6c-1.134.006-2.269.014-3.4,0a2.244,2.244,0,0,1-2.328-2.353c-.015-2.9.014-5.8-.014-8.705a2.455,2.455,0,0,1,1.576-2.248l.516.852v-1a2.262,2.262,0,0,1,.892.058c.108.054.018.5.018.819a3.321,3.321,0,0,1,.289-.339c.2-.183.388-.433.626-.5.346-.1.607.011.738.468.188.654.726.427,1.182.3Zm1.343,9.232a1.047,1.047,0,0,0-1.683-.936,2.18,2.18,0,0,1-2.55-.016c-.107-.071-.263-.165-.362-.135a2.609,2.609,0,0,0-1.133.461c-.372.4-.176.906.211,1.261a3.99,3.99,0,0,0,5.161-.031A2.107,2.107,0,0,0,619.2,633.976Zm.134-3.7c-.192-.341-.272-.7-.452-.756-.387-.131-.932-.292-1.224-.12a2.383,2.383,0,0,1-2.775-.033.3.3,0,0,0-.071-.033.994.994,0,0,0-1.394.5.951.951,0,0,0,.524,1.312,14.628,14.628,0,0,0,1.847.883,1.505,1.505,0,0,0,.979-.011,10.668,10.668,0,0,0,1.838-.9A3.757,3.757,0,0,0,619.333,630.276Zm-.107-3.469c0-.95-.776-1.474-1.463-1.071a2.5,2.5,0,0,1-2.91.023.916.916,0,0,0-1.394.428.935.935,0,0,0,.49,1.323,14.171,14.171,0,0,0,1.838.9,1.467,1.467,0,0,0,.977.007,11.831,11.831,0,0,0,1.9-.951A2.413,2.413,0,0,0,619.225,626.807Z" transform="translate(0 -111.085)" fill="#4a4a4a"/>
    <path id="Path_3501" data-name="Path 3501" d="M736.641,614.978l-.25.113-1.954.232c.206-.634.142-1.145.8-1.259.155-.027.316-.32.367-.518.025-.1-.173-.344-.306-.376-.728-.178-.611-.645-.445-1.261l1.618.346-.02-.025A1.922,1.922,0,0,1,736.641,614.978Z" transform="translate(-96.537 -101.619)" fill="#4a4a4a"/>
    <path id="Path_3502" data-name="Path 3502" d="M738.668,607.425l.294,1.5-.761-.241.02.025-1.568-.652.063-.289a7.394,7.394,0,0,1,1.19.147c.5.141.762.043.784-.5Z" transform="translate(-98.285 -98.078)" fill="#4a4a4a"/>
    <path id="Path_3503" data-name="Path 3503" d="M636.078,624.592c-.1,0-.234.033-.3-.017-.231-.165-.44-.36-.657-.544.252-.1.512-.309.753-.289.5.041.449.391.268.738-.024.046-.055.088-.083.131Z" transform="translate(-18.199 -110.952)" fill="#4a4a4a"/>
  </g>
</svg>
