<svg xmlns="http://www.w3.org/2000/svg" xmlns:xlink="http://www.w3.org/1999/xlink" width="60.285" height="51.538" viewBox="0 0 60.285 51.538">
  <defs>
    <clipPath id="clip-path">
      <path id="Path_2330" data-name="Path 2330" d="M124.356,79.166c-15.792.063-22.829-.059-25.936-.192a1.093,1.093,0,0,1-.818-1.612,62.084,62.084,0,0,1,5.132-8.938.928.928,0,0,1,.615-.319c1-.089,2.276-.136,3.881-.142,2.941-.012,6.714.115,10.707.25,3.206.107,6.514.219,9.934.283a.933.933,0,0,1,.658.3,39.07,39.07,0,0,1,6.386,8.716,1.089,1.089,0,0,1-.857,1.6C131.849,79.125,128.342,79.15,124.356,79.166Z" transform="translate(-97.476 -67.961)" fill="none"/>
    </clipPath>
    <clipPath id="clip-path-2">
      <path id="Path_2335" data-name="Path 2335" d="M135.345,148.217a.424.424,0,0,1-.017.069,7.608,7.608,0,0,1-2.3.826,9.056,9.056,0,0,1-1.23.144s-17.791,4.419-42.325.019a5.636,5.636,0,0,1-1.408-.147,6.772,6.772,0,0,1-1.075-.323,9.828,9.828,0,0,1,.883-3.666s.282-5.386,3-8.729a6.8,6.8,0,0,1,3.307-2.306s9.57-3.135,10.226-3.175,11.261-2.8,25.206,3.409a6.379,6.379,0,0,1,1.936,1.41c1.45,1.467,3.166,4.284,3.063,9.354A11.658,11.658,0,0,1,135.345,148.217Z" transform="translate(-86.99 -130.282)" fill="none"/>
    </clipPath>
  </defs>
  <g id="Group_2187" data-name="Group 2187" transform="translate(-74.576 -63.118)">
    <rect id="Rectangle_1279" data-name="Rectangle 1279" width="13.487" height="15.134" rx="6.743" transform="matrix(1, -0.004, 0.004, 1, 78.135, 99.522)" fill="#595958"/>
    <rect id="Rectangle_1280" data-name="Rectangle 1280" width="13.487" height="15.134" rx="6.743" transform="matrix(1, -0.004, 0.004, 1, 117.477, 99.364)" fill="#595958"/>
    <path id="Path_2307" data-name="Path 2307" d="M94.118,98.877s1.71-5.713,5.374-6.324c0,0,11.349-2.021,15.132-1.439a25.913,25.913,0,0,1,16.807,6.349s4.324,3.663,4.811,4.506c0,0,5.36,3.212,5.926,6.889a6.6,6.6,0,0,1,1.216,5.167s.193,2.51-.128,2.934a3.49,3.49,0,0,0,.35,1.167s-.181,1.194-2.625.955c0,0-9.33,2.349-12.653,1.616a15.874,15.874,0,0,1-10.006.238s.21-6.267-2.566-8.742c0,0-4.674-4.855-3.849,7.225,0,0-13.686-3.924-14.207-4.594,0,0,.1-9.175-3.636-8.265,0,0-1.579.155-1.007,5.635,0,0-1.039-.22-.164-7.5a8.249,8.249,0,0,0,.786-2.763A8.413,8.413,0,0,1,94.118,98.877Z" transform="translate(-9.271 -16.299)" fill="none" stroke="#fff" stroke-miterlimit="10" stroke-width="1"/>
    <path id="Path_2308" data-name="Path 2308" d="M133.777,104.219s-1.235,6.761-8.091,7.064c0,0-18.057,4.134-42.958.018,0,0-7.764.447-7.8-10.168a27.529,27.529,0,0,1,1.268-13.662c.006-.019.01-.029.01-.029a11.188,11.188,0,0,1,2.564-6.5s2.331-3.763,2.331-3.92c0,0,5.05-10.964,9.189-12.813A57.933,57.933,0,0,1,101.2,63.119s9.061-.069,14.312,1c.055,0,3.367.024,8.776,8.663,0,0,4.717,7.594,5.067,8.083,0,0,4.215,3.588,3.848,8.278,0,.017,0,.036,0,.053s0,.009,0,.013C133.308,89.57,135.651,97.864,133.777,104.219Z" transform="translate(0 0)" fill="#278a9c"/>
    <path id="Path_2309" data-name="Path 2309" d="M203.791,120.7" transform="translate(-70.681 -31.457)" fill="none" stroke="#000" stroke-miterlimit="10" stroke-width="1"/>
    <path id="Path_2310" data-name="Path 2310" d="M76.19,141.9s-.873-1.462-.867.218c0,0-.964,6.963,2.254,9.191,0,0,2.057,1.3,2.273-.867a6.447,6.447,0,0,0-1.66-5.032S76.256,142.224,76.19,141.9Z" transform="translate(-0.315 -43.79)" fill="#3d4039"/>
    <g id="Group_1665" data-name="Group 1665" transform="translate(77.064 73.257)">
      <path id="Path_2311" data-name="Path 2311" d="M84.157,92.221a3.109,3.109,0,0,1-.581.772,7.558,7.558,0,0,1-3.785-1.3,5.34,5.34,0,0,1-.031-1.343c.111-.056.494-2.1,5.2-1.754A8.516,8.516,0,0,1,84.157,92.221Z" transform="translate(-79.717 -87.146)" fill="#1c1c1c"/>
      <path id="Path_2312" data-name="Path 2312" d="M191.092,88.667a.252.252,0,0,1-.033.027A7.563,7.563,0,0,1,187.32,90a5.968,5.968,0,0,1-.853-1.031,15.285,15.285,0,0,1-1.541-3.185c.056-.007.112-.016.166-.021,4.865-.62,5.914,1.51,6.024,1.566A5.331,5.331,0,0,1,191.092,88.667Z" transform="translate(-138.01 -85.645)" fill="#1c1c1c"/>
      <path id="Path_2313" data-name="Path 2313" d="M191.293,87.324l-4.225.14-1.8-1.673c0-.011,0-.022,0-.033C190.134,85.138,191.183,87.268,191.293,87.324Z" transform="translate(-138.187 -85.645)" fill="#7a7974"/>
      <path id="Path_2314" data-name="Path 2314" d="M192.7,91.945a7.564,7.564,0,0,1-3.739,1.3,5.969,5.969,0,0,1-.853-1.031C188.813,92.237,192.148,92.321,192.7,91.945Z" transform="translate(-139.653 -88.896)" fill="#050505"/>
      <path id="Path_2315" data-name="Path 2315" d="M85,88.594a8.815,8.815,0,0,1-1.569,1.947c-.817.675-3.628-.193-3.628-.193C79.916,90.291,80.3,88.246,85,88.594Z" transform="translate(-79.762 -87.146)" fill="#7a7974"/>
      <path id="Path_2316" data-name="Path 2316" d="M84.236,95.566a3.109,3.109,0,0,1-.581.772,7.558,7.558,0,0,1-3.785-1.3,39.926,39.926,0,0,0,4.256.488A.1.1,0,0,1,84.236,95.566Z" transform="translate(-79.796 -90.491)" fill="#050505"/>
    </g>
    <g id="Group_1666" data-name="Group 1666" transform="translate(74.576 85.706)">
      <path id="Path_2317" data-name="Path 2317" d="M133.777,134.8s-.776,4.535-4.507,6.58a8.151,8.151,0,0,1-3.584.97s-18.057,4.419-42.958.019a6.578,6.578,0,0,1-2.52-.469c-2.27-.88-5.259-3.369-5.283-10.4a31.36,31.36,0,0,1,1.268-14.6c-.133.423-1.592,5.217-.329,7.993,0,0,6.366,4.474,8.284,4.612a.074.074,0,0,0,.023,0s26.5,3.849,41.261-.664c3.413-1.043,6.2-2.534,7.889-4.621a34.438,34.438,0,0,0-.115-5.456C133.359,119.342,135.63,128.085,133.777,134.8Z" transform="translate(-74.576 -116.901)" fill="#fff"/>
      <path id="Path_2318" data-name="Path 2318" d="M77.67,120.841a11.334,11.334,0,0,0-.881,4.052s-1.531-3.065.351-7.993A7.768,7.768,0,0,0,77.67,120.841Z" transform="translate(-75.415 -116.901)" fill="#fff"/>
      <path id="Path_2319" data-name="Path 2319" d="M202.188,123.282a9,9,0,0,1,.907,3.281s.347-4.485-.046-5.127A15.55,15.55,0,0,1,202.188,123.282Z" transform="translate(-144.43 -119.241)" fill="#fff"/>
    </g>
    <g id="Group_1667" data-name="Group 1667" transform="translate(74.897 95.374)">
      <path id="Path_2320" data-name="Path 2320" d="M199.451,137.472s.862-1.468.869.211c0,0,1.014,6.956-2.187,9.207,0,0-2.048,1.313-2.279-.85A6.447,6.447,0,0,1,197.477,141S199.387,137.8,199.451,137.472Z" transform="translate(-141.459 -136.878)" fill="#3d4039"/>
      <path id="Path_2321" data-name="Path 2321" d="M198.544,151.807s-2.048,1.313-2.279-.85a6.224,6.224,0,0,1,.1-2.071,6.529,6.529,0,0,0-.512,3.351c.232,2.163,2.279.85,2.279.85a5.559,5.559,0,0,0,1.982-3.363A4.687,4.687,0,0,1,198.544,151.807Z" transform="translate(-141.46 -143.074)" fill="#fff"/>
      <path id="Path_2322" data-name="Path 2322" d="M199.99,149.16a1.627,1.627,0,1,1,.153-2.644A1.927,1.927,0,0,1,199.99,149.16Z" transform="translate(-142.064 -141.718)" fill="#d6e3dd"/>
      <path id="Path_2323" data-name="Path 2323" d="M79.779,152.816a4.686,4.686,0,0,1-.036.56c-.216,2.165-2.273.867-2.273.867-1.37-.949-1.981-2.756-2.232-4.519.107,2.126.622,4.719,2.365,5.925,0,0,2.057,1.3,2.273-.867A6.228,6.228,0,0,0,79.779,152.816Z" transform="translate(-75.238 -143.507)" fill="#fff"/>
      <path id="Path_2324" data-name="Path 2324" d="M77.262,153.34c.753.922,1.847,1.274,2.443.786s.468-1.629-.285-2.55-1.847-1.274-2.443-.786S76.508,152.418,77.262,153.34Z" transform="translate(-75.942 -143.944)" fill="#d6e3dd"/>
    </g>
    <g id="Group_1668" data-name="Group 1668" transform="translate(76.195 80.506)">
      <path id="Path_2325" data-name="Path 2325" d="M91.121,115.517s-10.4-2.874-12.566-2.212c0,0-.958-2.609-.519-3.976a25.643,25.643,0,0,1,.712-3.475,13.52,13.52,0,0,1,2.025-3.475,16.351,16.351,0,0,1,1.719-.072,17.237,17.237,0,0,0,6.236,6.89S91.119,114.881,91.121,115.517Z" transform="translate(-77.921 -102.294)" fill="#d6e3dd"/>
      <path id="Path_2326" data-name="Path 2326" d="M189.821,113.563c-2.166-.642-11.6,2.36-11.6,2.36,0-.636,2.29-6.374,2.29-6.374,4.634-3.125,5.2-6.829,5.2-6.829a6.032,6.032,0,0,1,.86-.115,9.316,9.316,0,0,1,2.907,3.8,30.158,30.158,0,0,1,1.252,3.912C191.188,111.675,189.821,113.563,189.821,113.563Z" transform="translate(-133.683 -102.455)" fill="#d6e3dd"/>
    </g>
    <g id="Group_1673" data-name="Group 1673" transform="translate(81.693 64.695)">
      <g id="Group_1669" data-name="Group 1669" transform="translate(0)">
        <path id="Path_2327" data-name="Path 2327" d="M100.805,66.558c4.759-.5,15.048.182,25.811.363,0,0,6.806,6.69,8.049,12.115,0,0-40.7.386-41.063-.4C93.6,78.641,99.376,66.709,100.805,66.558Z" transform="translate(-91.511 -66.377)" fill="#3d4039"/>
        <path id="Path_2328" data-name="Path 2328" d="M124.356,79.166c-15.792.063-22.829-.059-25.936-.192a1.093,1.093,0,0,1-.818-1.612,62.084,62.084,0,0,1,5.132-8.938.928.928,0,0,1,.615-.319c1-.089,2.276-.136,3.881-.142,2.941-.012,6.714.115,10.707.25,3.206.107,6.514.219,9.934.283a.933.933,0,0,1,.658.3,39.07,39.07,0,0,1,6.386,8.716,1.089,1.089,0,0,1-.857,1.6C131.849,79.125,128.342,79.15,124.356,79.166Z" transform="translate(-93.51 -67.195)" fill="#d6e3dd"/>
        <path id="Path_2329" data-name="Path 2329" d="M91.209,91.718s-2.121,3.255-1.913,4c0,0,25.1-3.532,34.122.164,0,0,11.695.1,12.765,1.219s-2.631-4.991-3.439-4.987S91.764,93.1,91.209,91.718Z" transform="translate(-89.282 -79.454)" fill="#fff"/>
      </g>
      <g id="Group_1672" data-name="Group 1672" transform="translate(3.966 0.767)">
        <g id="Group_1671" data-name="Group 1671" clip-path="url(#clip-path)">
          <g id="Group_1670" data-name="Group 1670" transform="translate(-1.096 -12.561)">
            <path id="Path_3504" data-name="Path 3504" d="M0,0,8.129.412l1.917,38.094-8.129-.412Z" transform="matrix(0.728, 0.686, -0.686, 0.728, 24.721, 0)" fill="#fff" opacity="0.57"/>
            <path id="Path_3505" data-name="Path 3505" d="M0,0,3.882.2,5.8,38.291l-3.882-.2Z" transform="translate(32.46 8.064) rotate(43.282)" fill="#fff" opacity="0.54"/>
          </g>
        </g>
      </g>
    </g>
    <path id="Path_2331" data-name="Path 2331" d="M89.611,109.2c-6.868.59-9.817-3.123-9.981-3.343a13.52,13.52,0,0,1,2.025-3.475,16.351,16.351,0,0,1,1.719-.072A17.237,17.237,0,0,0,89.611,109.2Z" transform="translate(-2.608 -21.575)" fill="#fff" opacity="0.56"/>
    <path id="Path_2332" data-name="Path 2332" d="M191.924,106.4c-.019.018-.037.033-.056.051-3.61,3.168-8.911,3.094-8.911,3.094,4.634-3.125,5.2-6.829,5.2-6.829a6.032,6.032,0,0,1,.86-.115A9.316,9.316,0,0,1,191.924,106.4Z" transform="translate(-59.929 -21.746)" fill="#fff" opacity="0.49"/>
    <g id="Group_1676" data-name="Group 1676" transform="translate(80.584 85.542)">
      <path id="Path_2333" data-name="Path 2333" d="M135.345,148.217a.424.424,0,0,1-.017.069,7.608,7.608,0,0,1-2.3.826,9.056,9.056,0,0,1-1.23.144s-17.791,4.419-42.325.019a5.636,5.636,0,0,1-1.408-.147,6.772,6.772,0,0,1-1.075-.323,9.828,9.828,0,0,1,.883-3.666s.282-5.386,3-8.729a6.8,6.8,0,0,1,3.307-2.306s9.57-3.135,10.226-3.175,11.261-2.8,25.206,3.409a6.379,6.379,0,0,1,1.936,1.41c1.45,1.467,3.166,4.284,3.063,9.354A11.658,11.658,0,0,1,135.345,148.217Z" transform="translate(-86.99 -123.642)" fill="#434443"/>
      <g id="Group_1675" data-name="Group 1675" transform="translate(0 6.64)">
        <g id="Group_1674" data-name="Group 1674" clip-path="url(#clip-path-2)">
          <line id="Line_3" data-name="Line 3" y1="0.233" x2="59.136" transform="translate(-3.224 1.77)" fill="none" stroke="#4b4c4b" stroke-miterlimit="10" stroke-width="1"/>
          <line id="Line_4" data-name="Line 4" y1="0.233" x2="59.136" transform="translate(-3.109 3.639)" fill="none" stroke="#4b4c4b" stroke-miterlimit="10" stroke-width="1"/>
          <line id="Line_5" data-name="Line 5" y1="0.233" x2="59.136" transform="translate(-2.995 5.508)" fill="none" stroke="#4b4c4b" stroke-miterlimit="10" stroke-width="1"/>
          <line id="Line_6" data-name="Line 6" y1="0.233" x2="59.136" transform="translate(-2.881 7.377)" fill="none" stroke="#4b4c4b" stroke-miterlimit="10" stroke-width="1"/>
          <line id="Line_7" data-name="Line 7" y1="0.233" x2="59.136" transform="translate(-2.767 9.246)" fill="none" stroke="#4b4c4b" stroke-miterlimit="10" stroke-width="1"/>
          <line id="Line_8" data-name="Line 8" y1="0.233" x2="59.136" transform="translate(-2.653 11.115)" fill="none" stroke="#4b4c4b" stroke-miterlimit="10" stroke-width="1"/>
          <line id="Line_9" data-name="Line 9" y1="0.233" x2="59.136" transform="translate(-2.538 12.984)" fill="none" stroke="#4b4c4b" stroke-miterlimit="10" stroke-width="1"/>
          <line id="Line_10" data-name="Line 10" y1="0.233" x2="59.136" transform="translate(-2.424 14.853)" fill="none" stroke="#4b4c4b" stroke-miterlimit="10" stroke-width="1"/>
          <line id="Line_11" data-name="Line 11" y1="0.233" x2="59.136" transform="translate(-2.31 16.722)" fill="none" stroke="#4b4c4b" stroke-miterlimit="10" stroke-width="1"/>
          <path id="Path_2334" data-name="Path 2334" d="M134.61,145.1c.1-5.069-1.613-7.887-3.063-9.354a7.432,7.432,0,0,0-1.386-1.116h0a4.06,4.06,0,0,0-.55-.293c-13.945-6.214-24.553-3.45-25.206-3.409a.807.807,0,0,0-.093.014l-.042.009-.1.023-.063.016-.136.035-.069.018-.176.048-.076.021-.218.062-.067.02-.269.079-.053.015-.326.1-.03.009c-2.932.883-8.5,2.707-8.5,2.707a6.8,6.8,0,0,0-3.307,2.306c-2.717,3.343-3,8.729-3,8.729a9.828,9.828,0,0,0-.883,3.666,6.714,6.714,0,0,0,.98.3,10.275,10.275,0,0,1,.879-3.49s.282-5.386,3-8.729a6.8,6.8,0,0,1,3.307-2.306s9.57-3.134,10.226-3.175a37.045,37.045,0,0,1,9.831-.535,46.411,46.411,0,0,1,13.426,3.76,6.4,6.4,0,0,1,1.936,1.41c1.45,1.468,2.926,4.253,2.823,9.322,0,0,.872.806.881,3.419a4.335,4.335,0,0,0,1.05-.495.424.424,0,0,0,.017-.069A11.658,11.658,0,0,0,134.61,145.1Z" transform="translate(-86.99 -130.282)" fill="#2a2b2a"/>
        </g>
      </g>
      <path id="Rectangle_1283" data-name="Rectangle 1283" d="M2.771,0H21.355a2.771,2.771,0,0,1,2.771,2.771v0a2.771,2.771,0,0,1-2.771,2.771H2.771A2.771,2.771,0,0,1,0,2.771v0A2.771,2.771,0,0,1,2.771,0Z" transform="translate(12.615 13.852) rotate(-0.208)" fill="#bfc4c1"/>
      <path id="Path_2336" data-name="Path 2336" d="M135.32,164.6a8.324,8.324,0,0,1-1.226.4,6.02,6.02,0,0,1-1.227.152s-17.725,4.419-42.167.019a5.6,5.6,0,0,1-1.4-.147c-.008-.038-.015-.076-.023-.109-.314-1.454.812-3.586.812-3.586,1.027-.761,2.113.478,2.113.478,17.5,5.757,35.749,1.326,40.874-.148.916-.261,1.412-.431,1.412-.431C135.3,162.08,135.348,164.175,135.32,164.6Z" transform="translate(-88.14 -139.533)" fill="#fff"/>
      <path id="Path_2337" data-name="Path 2337" d="M92.333,161.769s-1.344.127-1.621,3.392a9.058,9.058,0,0,1-1.619-.182c-.435-1.475.943-3.687.943-3.687C91.153,160.531,92.333,161.769,92.333,161.769Z" transform="translate(-88.031 -139.517)" fill="#2a2b2a"/>
      <path id="Path_2338" data-name="Path 2338" d="M190.159,164.828a8.4,8.4,0,0,1-1.352.323c.507-1.484-.882-3.091-1.109-3.341,1-.261,1.534-.431,1.534-.431C190.113,162.236,190.188,164.4,190.159,164.828Z" transform="translate(-142.96 -139.689)" fill="#2a2b2a"/>
      <path id="Path_2339" data-name="Path 2339" d="M136.332,162.269c-4.484,6.227-32.361,3.661-32.361,3.661-5.758-.649-8.059-3.513-8.059-3.513C113.221,168.174,131.264,163.743,136.332,162.269Z" transform="translate(-91.594 -140.148)" fill="#fff"/>
      <path id="Path_2340" data-name="Path 2340" d="M100.255,116.561s9.479,2.257,12.854,2.02a18.511,18.511,0,0,1,11.487.065s9.57-.878,11.682-1.894l-.433,1.14s-13.727,3.19-13.76,3.3-2.478-2.7-6.752-.159l-14.672-3.356Z" transform="translate(-93.835 -116.561)" fill="#fff"/>
      <path id="Path_2341" data-name="Path 2341" d="M100.852,118.5l14.6,3.712s3.494-3.082,6.893.036l13.946-3.508-1.71,4.1-8.839,1.954s-5.419,11.4-14.533-.133l-8.68-1.946Z" transform="translate(-94.143 -117.561)" fill="#2e302a"/>
      <path id="Path_2342" data-name="Path 2342" d="M102.448,121.532l11.727,2.956s1.488.633,1.434,1.72c0,0,3.848,5.8,8.173-.1a2.1,2.1,0,0,1,2.338-1.735l10.108-2.662-.283.7-9.479,2.723a10.089,10.089,0,0,0-1.709,1.8s-5.237,6.478-10.06-.182c0,0-1.177-1.4-1.777-1.591s-10.14-2.867-10.14-2.867Z" transform="translate(-94.967 -119.126)" fill="#d6e3dd"/>
      <ellipse id="Ellipse_223" data-name="Ellipse 223" cx="3.5" cy="2.349" rx="3.5" ry="2.349" transform="matrix(1, -0.004, 0.004, 1, 21.296, 4.234)" fill="#d6e3dd"/>
    </g>
  </g>
</svg>
