<svg xmlns="http://www.w3.org/2000/svg" width="37.65" height="54.79" viewBox="0 0 37.65 54.79"><g transform="translate(-793.73 254.96)"><g transform="translate(793.73 -254.96)"><path d="M793.738-254.96h-.008l16.443,31.836Zm6.058,3.689h-.008l12.595,24.391.008-.008Z" transform="translate(-793.73 254.96)"/><path d="M793.74-254.96l16.435,31.836v22.955h4.705V-223.7l16.5-31.264Zm18.653,28.071-.008.008L799.79-251.271h25.475Z" transform="translate(-793.732 254.96)"/></g><g transform="translate(806.082 -246.618)"><path d="M809.945-243.455l.728-1.576h.788l-1.149,2.23v1.269h-.733V-242.8l-1.149-2.23h.791Z" transform="translate(-808.431 245.031)"/><path d="M813.193-241.532h-.721v-3.5h.721Z" transform="translate(-809.077 245.031)"/><path d="M816.23-243.048h-1.384v.937h1.624v.579h-2.345v-3.5h2.34v.584h-1.619v.834h1.384Z" transform="translate(-809.341 245.031)"/><path d="M818.14-242.111h1.531v.579h-2.252v-3.5h.721Z" transform="translate(-809.867 245.031)"/><path d="M820.59-241.532v-3.5h1.077a1.634,1.634,0,0,1,.825.208,1.448,1.448,0,0,1,.568.591,1.825,1.825,0,0,1,.2.871v.16a1.822,1.822,0,0,1-.2.868,1.435,1.435,0,0,1-.565.588,1.648,1.648,0,0,1-.824.212Zm.721-2.915v2.336h.349a.782.782,0,0,0,.646-.276,1.246,1.246,0,0,0,.229-.791v-.185a1.27,1.27,0,0,0-.221-.808.779.779,0,0,0-.646-.276Z" transform="translate(-810.374 245.031)"/></g></g></svg>