<svg xmlns="http://www.w3.org/2000/svg" xmlns:xlink="http://www.w3.org/1999/xlink" width="56.78" height="56.78" viewBox="0 0 56.78 56.78"><defs><clipPath id="clip-path"><path id="Path_2371" data-name="Path 2371" d="M0,0H56.78V56.78H0Z"/></clipPath></defs><g id="cracks" clip-path="url(#clip-path)"><path id="Path_2370" data-name="Path 2370" d="M3,32.39H14.829V27.658H3Zm15.378,0H30.207V27.658H18.378Zm15.378,0H45.585V27.658H33.756ZM3,41.853H7.732V37.121H3Zm9.463,0h4.732V37.121H12.463Zm9.463,0h4.732V37.121H21.927Zm9.463,0h4.732V37.121H31.39Zm9.463,0h4.732V37.121H40.853ZM3,22.927H21.927V18.195H3Zm23.658,0H45.585V18.195H26.658ZM3,4v9.463H45.585V4Z" transform="translate(4.097 5.463)"/></g></svg>