<svg xmlns="http://www.w3.org/2000/svg" width="45" height="46" viewBox="0 0 45 46"><g id="circle" transform="translate(-0.103 0.035)"><path id="Exclusion_4" data-name="Exclusion 4" d="M25.312,46H19.688V44.435h0a22.316,22.316,0,0,1-13.1-6.362A22.167,22.167,0,0,1,6.031,7.1l0,0L5.083,5.94,9.454,2.43l.893,1.093A22.723,22.723,0,0,0,6.589,6.531c-.187.185-.374.377-.556.571h0l6.31,7.725a12.354,12.354,0,0,0-2.5,7.474,12.664,12.664,0,0,0,9.844,12.234v9.9a23.135,23.135,0,0,0,5.624,0V46Zm0-1.565v-9.9a12.815,12.815,0,0,1-5.624,0V33.453h5.624v1.083A12.664,12.664,0,0,0,35.156,22.3a12.43,12.43,0,0,0-1.732-6.329l6.193-8.148,0,0c-.376-.438-.781-.873-1.2-1.291a22.8,22.8,0,0,0-2.968-2.48l1.275-1.677,4.493,3.353L39.619,7.823l0,0a22.3,22.3,0,0,1-14.3,36.61Zm7.437-27.574,0,0-4.491-3.354,1.251-1.645a12.748,12.748,0,0,1,3.917,4.113l-.673.886Zm-19.7-1.171,0,0-.7-.86a12.78,12.78,0,0,1,4.273-3.63L10.347,3.524a22.708,22.708,0,0,1,25.1.528l-5.935,7.807,0,0h0A12.732,12.732,0,0,0,16.615,11.2l.8.982-4.369,3.507Z" transform="translate(0.103 -0.035)"/></g></svg>