<svg xmlns="http://www.w3.org/2000/svg" width="46.039" height="52.693" viewBox="0 0 46.039 52.693"><g id="level-crossing" transform="translate(0)"><g id="Group_299" data-name="Group 299" transform="translate(0)"><path id="Path_2336" data-name="Path 2336" d="M-1036.84-106.377a8.887,8.887,0,0,1-.257-1.443c-.031-2.021-.016-4.042-.019-6.064a1.8,1.8,0,0,0-.055-.27h-1.9c-.553,0-1.107.008-1.659,0a2.652,2.652,0,0,1-2.534-2.181,2.671,2.671,0,0,1,1.911-2.987,3.857,3.857,0,0,1,.918-.113c1.054-.014,2.108-.007,3.163-.009a.844.844,0,0,0,.142-.034v-6.988h-1.707c-.023.307-.036.628-.073.947a.811.811,0,0,1-.832.757.807.807,0,0,1-.848-.686c-.047-.323-.069-.65-.106-1.015h-1.671c-.02.288-.048.59-.061.892a.794.794,0,0,1-.794.8.743.743,0,0,1-.88-.618c-.066-.35-.1-.706-.147-1.1h-1.385c-.311,0-.622.006-.934,0-.719-.018-1.163-.372-1.157-.916s.388-.856,1.128-.871c.775-.015,1.55,0,2.363,0v-8.874c-.821,0-1.628.005-2.436,0-.664-.006-1.012-.285-1.05-.821a.966.966,0,0,1,1.027-.941c.742-.027,1.486,0,2.229-.006.066,0,.133-.013.231-.023.09-.713-.139-1.735.98-1.7,1.012.029.8.97.844,1.684h1.73c.077-.691-.133-1.6.932-1.7.621-.061.856.425.915,1.71h1.708v-6.982h-2.621c0,.252.01.522,0,.79a.882.882,0,0,1-.953.928q-2.566.01-5.133,0a.86.86,0,0,1-.977-.988q-.006-3.4,0-6.791c0-.776.285-1.052,1.071-1.053,1.641,0,3.283.006,4.925.013.722,0,1.04.313,1.062,1.028.007.221,0,.444,0,.7h2.646c0-.585,0-1.165,0-1.745,0-1.71,0-3.421.019-5.131.007-.591.056-.876.875-.874q11.512.029,23.022,0c.787,0,.849.3.854.9.016,1.952,0,3.9,0,5.857v1.029c1.248,0,2.419-.009,3.589,0a2.658,2.658,0,0,1,2.5,3.423,2.651,2.651,0,0,1-2.526,1.867c-1.157.008-2.315,0-3.515,0v7.022h1.678c.161-1.4.329-1.7.959-1.714.541-.01.752.376.93,1.725h1.695c.075-.688-.2-1.729.925-1.7,1.01.026.838.987.9,1.724.816,0,1.609-.035,2.4.018a1.4,1.4,0,0,1,.9.381.827.827,0,0,1-.669,1.36c-.86.028-1.722.007-2.618.007v8.895h1.766c.242,0,.484-.014.725,0,.613.027,1.01.384,1,.886a.968.968,0,0,1-1.027.89c-.81.017-1.62,0-2.465,0-.085.736.128,1.741-.99,1.712-1.052-.028-.752-.989-.844-1.676h-1.716c-.052.72.115,1.689-.945,1.686s-.8-.99-.892-1.69h-1.722v7h2.623c0-.267-.008-.521,0-.775a.9.9,0,0,1,.936-.953q2.593-.015,5.185,0c.638,0,.947.349.954,1.086.014,1.451,0,2.9,0,4.354,0,.778.015,1.555,0,2.333s-.3,1.053-1.084,1.055c-1.625,0-3.249,0-4.873-.012-.831,0-1.112-.291-1.121-1.122,0-.189,0-.378,0-.606h-2.655c0,.582,0,1.159,0,1.736.007,1.572.036,3.145.012,4.716a6.888,6.888,0,0,1-.264,1.287Zm1.567-39.589v7h1.7c.1-.691-.188-1.6.886-1.708.605-.062.781.282.972,1.7H-1030c.032-.717-.207-1.675.86-1.682,1.089-.007.866.976.929,1.687h2.594c.006-1.238.221-1.74.846-1.713,1.122.048.89,1,1,1.719h2.573c.066-.705-.148-1.671.889-1.692,1.135-.023.859,1,.908,1.69h1.729c.071-.713-.113-1.673.909-1.695,1.1-.023.864.97.921,1.681h1.717v-6.992Zm14.083,19.5h-2.585c-.065,1.259-.289,1.741-.888,1.7-1.116-.073-.869-1.02-.962-1.716h-2.556a8.49,8.49,0,0,1-.143,1.086.793.793,0,0,1-.924.632.842.842,0,0,1-.75-.854c0-.286,0-.572,0-.863h-1.742c-.069.715.123,1.682-.9,1.7-1.069.019-.882-.964-.928-1.692h-1.724v6.982h21.169v-6.982h-1.73c-.076.7.2,1.587-.87,1.716-.578.07-.791-.337-.976-1.721h-1.713c-.024.718.2,1.681-.847,1.693S-1021.166-125.733-1021.19-126.463Zm7.07-31h-21.161v6.151h21.161Zm-21.169,49.5h21.163v-6.159h-21.163Zm9.641-20.346v-8.814h-2.556v8.814Zm4.425,0v-8.806h-2.561v8.806ZM-1045-151.264v5.246h3.467v-5.246Zm40.6,37.1v-5.245h-3.459v5.245Zm-14.983-22.967v8.813h1.7v-8.813Zm12.4,8.82c0-1.058,0-2.059,0-3.06,0-1.78,0-3.559-.026-5.339,0-.144-.139-.4-.229-.41-.491-.041-.987-.019-1.481-.019v8.827Zm-23.033-.011v-8.8h-1.7v8.8Zm-5.269.028c.438,0,.818-.029,1.192.008.436.043.557-.111.555-.544-.013-2.591,0-5.183.007-7.774,0-.167-.018-.335-.027-.5h-1.727Zm-5.4.021v-8.847h-1.7c-.014.154-.036.287-.037.419q0,3.361,0,6.721c0,.448.025.9.021,1.344,0,.263.1.373.366.365C-1041.609-128.284-1041.179-128.274-1040.688-128.274Zm1.867-8.857c-.012.213-.026.365-.027.518q-.015,2.175-.024,4.35c0,1.174-.01,2.348.01,3.521,0,.157.145.436.242.445.486.046.979.021,1.493.021v-8.855Zm24.679,8.81v-8.8h-1.7v8.8Zm1.865-8.81v8.851a9.673,9.673,0,0,1,1.174.009c.48.061.578-.128.573-.573-.021-2.209-.011-4.419-.012-6.628v-1.659Zm-12.1-12.389c-.792,0-1.5-.008-2.2.008a.427.427,0,0,0-.316.176c-.268.494-.508,1-.8,1.58.8,0,1.515.009,2.231-.01a.435.435,0,0,0,.3-.208C-1024.9-148.454-1024.662-148.948-1024.377-149.52Zm9.96,1.762c.8,0,1.517,0,2.233-.006a.328.328,0,0,0,.245-.131c.281-.518.545-1.045.843-1.625-.785,0-1.472-.007-2.158.007a.456.456,0,0,0-.343.143C-1013.875-148.865-1014.124-148.342-1014.417-147.758Zm-20.574,31.84c-.293-.571-.53-1.047-.781-1.515-.051-.1-.154-.23-.235-.232-.744-.018-1.488-.011-2.305-.011.287.573.514,1.055.772,1.52a.491.491,0,0,0,.342.228C-1036.495-115.908-1035.789-115.918-1034.99-115.918Zm18.81-1.759c.288.583.539,1.1.805,1.614a.314.314,0,0,0,.232.137c.731.01,1.463.006,2.283.006-.3-.579-.544-1.083-.814-1.576a.379.379,0,0,0-.271-.174C-1014.663-117.684-1015.38-117.677-1016.18-117.677Zm-12.64-31.844c-.778,0-1.466-.007-2.154.007a.454.454,0,0,0-.343.144c-.27.508-.51,1.033-.79,1.612.79,0,1.509.008,2.227-.009a.428.428,0,0,0,.3-.206C-1029.328-148.456-1029.1-148.951-1028.82-149.521Zm2.678,33.6c-.294-.589-.543-1.094-.8-1.594-.034-.067-.114-.158-.174-.159-.757-.011-1.514-.007-2.341-.007.286.585.508,1.068.761,1.534a.476.476,0,0,0,.338.217C-1027.656-115.907-1026.95-115.917-1026.142-115.917Zm5.523-1.765c.287.579.515,1.058.764,1.524a.441.441,0,0,0,.284.229c.729.019,1.459.01,2.256.01-.276-.571-.5-1.066-.759-1.548a.434.434,0,0,0-.3-.206C-1019.094-117.69-1019.812-117.682-1020.619-117.682Zm5.078-31.837c-.8,0-1.532-.007-2.264.009a.382.382,0,0,0-.263.191c-.256.5-.492,1-.762,1.564.783,0,1.486.008,2.19-.008a.433.433,0,0,0,.32-.18C-1016.057-148.435-1015.822-148.944-1015.541-149.518Zm-18.35,31.839c.3.587.545,1.093.814,1.587a.382.382,0,0,0,.278.167c.714.014,1.429.008,2.216.008-.283-.573-.513-1.07-.777-1.549a.492.492,0,0,0-.359-.2C-1032.409-117.689-1033.1-117.679-1033.892-117.679Zm-2.6-30.079c.738,0,1.44.006,2.141-.006a.4.4,0,0,0,.3-.14c.277-.508.53-1.029.8-1.564-2.252-.3-2.358-.251-3.209,1.567A1.282,1.282,0,0,0-1036.49-147.758Zm16.522-1.762c-.783,0-1.487-.006-2.19.006a.381.381,0,0,0-.286.145c-.277.509-.533,1.029-.827,1.607.8,0,1.523,0,2.243-.006a.331.331,0,0,0,.25-.132C-1020.508-148.412-1020.256-148.935-1019.968-149.52Zm-5.067,31.84c.294.582.558,1.112.834,1.635a.27.27,0,0,0,.2.117c.728.008,1.456.005,2.271.005-.285-.566-.509-1.046-.77-1.5a.548.548,0,0,0-.386-.241C-1023.573-117.693-1024.261-117.68-1025.034-117.68Zm13.294.023c.271.56.511,1.069.767,1.57a.335.335,0,0,0,.233.16c.351.018.7.007,1.046.007v-1.737Zm-27.983-30.1c.314,0,.572.019.826-.007.149-.015.365-.059.424-.162.283-.5.523-1.022.791-1.561h-2.041Zm29.732-.011c.462,0,.842.029,1.215-.006a.876.876,0,0,0,.7-1.389.7.7,0,0,0-1.254.044C-1009.542-148.692-1009.748-148.263-1009.991-147.766Zm-29.455,31.844c-.273-.571-.512-1.082-.766-1.585a.372.372,0,0,0-.225-.168,1.01,1.01,0,0,0-1.062.721.872.872,0,0,0,.717,1.024C-1040.362-115.888-1039.933-115.922-1039.446-115.922Z" transform="translate(1047.725 159.07)"/></g></g></svg>