<svg xmlns="http://www.w3.org/2000/svg" width="53.332" height="53.344" viewBox="0 0 53.332 53.344"><g transform="translate(-241.335 -4527.339)"><g transform="translate(184.953 5152.206)"><g transform="translate(68.218 -613.025)"><path d="M109.267-600.571q0-1.942,0-3.884a1.51,1.51,0,0,1,.046-.4.645.645,0,0,1,.644-.463.631.631,0,0,1,.617.456,1.646,1.646,0,0,1,.05.467q0,3.821,0,7.642c0,.651.221.874.869.874q3.173,0,6.347,0a1.443,1.443,0,0,1,.435.045.657.657,0,0,1,.425.7.659.659,0,0,1-.67.591c-2.284,0-4.568.018-6.852-.005a2,2,0,0,1-1.912-2.075C109.261-597.939,109.267-599.255,109.267-600.571Z" transform="translate(-89.052 605.326)"/><path d="M85.357-568.156c0,1.326,0,2.653,0,3.979,0,.564-.431.9-.905.729a.663.663,0,0,1-.449-.659c-.009-.316,0-.631,0-.947q0-3.458,0-6.916c0-.653-.219-.873-.87-.874q-3.222,0-6.443,0c-.556,0-.886-.4-.731-.869a.631.631,0,0,1,.639-.47c2.284,0,4.568-.016,6.852.006a2,2,0,0,1,1.911,2.076C85.362-570.788,85.357-569.472,85.357-568.156Z" transform="translate(-75.914 593.061)"/><path d="M85.357-600.53c0,1.274,0,2.548,0,3.821a2.033,2.033,0,0,1-2.176,2.167q-3.253,0-6.505,0a.67.67,0,0,1-.719-.884.648.648,0,0,1,.678-.458c.663,0,1.327,0,1.99,0q2.258,0,4.516,0c.63,0,.858-.227.858-.854q0-3.805,0-7.611c0-.073,0-.147,0-.221a.7.7,0,0,1,.679-.758.692.692,0,0,1,.679.755C85.36-603.224,85.357-601.877,85.357-600.53Z" transform="translate(-75.913 605.327)"/><path d="M110.628-568.128c0,1.316,0,2.632,0,3.948,0,.573-.459.925-.931.725a.714.714,0,0,1-.428-.741q0-1.626,0-3.253,0-2.274,0-4.547a2.035,2.035,0,0,1,2.185-2.19q3.253,0,6.506,0a.671.671,0,0,1,.7.921.66.66,0,0,1-.675.421c-.905,0-1.811,0-2.716,0h-3.757c-.671,0-.881.213-.881.894Z" transform="translate(-89.053 593.058)"/><path d="M100.618-603.279c0,.41,0,.82,0,1.23a.681.681,0,0,1-.694.762.679.679,0,0,1-.663-.761q-.008-1.245,0-2.491a.7.7,0,0,1,.678-.786.7.7,0,0,1,.68.785C100.622-604.121,100.618-603.7,100.618-603.279Z" transform="translate(-85.11 605.327)"/><path d="M77.961-581.98c.41,0,.82,0,1.23,0a.681.681,0,0,1,.761.663.678.678,0,0,1-.762.694q-1.262.009-2.523,0a.692.692,0,0,1-.754-.678.694.694,0,0,1,.755-.678C77.1-581.987,77.53-581.98,77.961-581.98Z" transform="translate(-75.913 596.13)"/><path d="M120.191-580.621c-.421,0-.841.006-1.261,0a.674.674,0,0,1-.742-.681.672.672,0,0,1,.748-.675q1.262-.009,2.523,0a.7.7,0,0,1,.767.665.7.7,0,0,1-.774.691C121.032-580.617,120.612-580.621,120.191-580.621Z" transform="translate(-92.568 596.13)"/><path d="M99.259-561.051c0-.41,0-.82,0-1.23.006-.482.269-.774.685-.771a.673.673,0,0,1,.671.751q.01,1.261,0,2.522a.694.694,0,0,1-.668.764.7.7,0,0,1-.688-.776C99.255-560.21,99.259-560.631,99.259-561.051Z" transform="translate(-85.11 588.672)"/><path d="M100.618-592.173c0,.421.005.841,0,1.262a.687.687,0,0,1-.678.752.683.683,0,0,1-.678-.75q-.011-1.278,0-2.556a.679.679,0,0,1,.66-.736.685.685,0,0,1,.7.734c.007.221,0,.442,0,.662Z" transform="translate(-85.109 600.944)"/><path d="M89.07-581.98c.421,0,.841-.006,1.262,0a.684.684,0,0,1,.748.681.684.684,0,0,1-.754.675q-1.262.01-2.524,0a.687.687,0,0,1-.764-.665.69.69,0,0,1,.77-.691C88.229-581.985,88.65-581.98,89.07-581.98Z" transform="translate(-80.296 596.13)"/><path d="M109.064-580.621c-.421,0-.842.006-1.262,0a.684.684,0,0,1-.745-.684.684.684,0,0,1,.756-.672c.841-.007,1.683-.006,2.524,0a.688.688,0,0,1,.762.668.692.692,0,0,1-.773.689C109.9-580.617,109.484-580.621,109.064-580.621Z" transform="translate(-88.182 596.13)"/><path d="M100.619-572.163c0,.41,0,.82,0,1.23,0,.481-.266.786-.671.791a.69.69,0,0,1-.686-.775q-.007-1.246,0-2.493a.69.69,0,0,1,.686-.775c.4,0,.666.309.671.79C100.622-572.984,100.619-572.573,100.619-572.163Z" transform="translate(-85.11 593.058)"/></g><path d="M107.6-608.57a26.672,26.672,0,0,0-34.95-14.187,26.66,26.66,0,0,0-16.272,24.544,26.672,26.672,0,0,0,26.653,26.69h.042a26.472,26.472,0,0,0,10.339-2.1A26.672,26.672,0,0,0,107.6-608.57ZM83.035-577.929a20.262,20.262,0,0,1-20.26-20.26,20.189,20.189,0,0,1,5.406-13.781l23.7,32.01A20.117,20.117,0,0,1,83.035-577.929Zm14.527-6.139L73.769-616.206a20.1,20.1,0,0,1,9.266-2.242,20.277,20.277,0,0,1,20.26,20.26A20.175,20.175,0,0,1,97.562-584.068Z"/></g></g></svg>