<svg id="off-ramp-slipway" xmlns="http://www.w3.org/2000/svg" xmlns:xlink="http://www.w3.org/1999/xlink" width="52.726" height="58.387" viewBox="0 0 52.726 58.387"><defs><clipPath id="clip-path"><rect width="4" height="58" fill="none"/></clipPath></defs><g id="Group_301" data-name="Group 301" transform="translate(0 0)"><g id="Group_271" data-name="Group 271" transform="translate(0 0)"><rect id="Rectangle_8" data-name="Rectangle 8" width="32" height="58" transform="translate(20.726 0.387)" fill="#262626"/><g id="Repeat_Grid_1" data-name="Repeat Grid 1" transform="translate(35.726 0.387)" clip-path="url(#clip-path)"><g id="Group_268" data-name="Group 268" transform="translate(-508 -1045)"><rect id="Rectangle_9" data-name="Rectangle 9" width="1" height="3" transform="translate(508 1045)" fill="#fff"/><rect id="Rectangle_10" data-name="Rectangle 10" width="1" height="3" transform="translate(508 1050)" fill="#fff"/></g><g id="Group_268-2" data-name="Group 268" transform="translate(-508 -1035)"><rect id="Rectangle_9-2" data-name="Rectangle 9" width="1" height="3" transform="translate(508 1045)" fill="#fff"/><rect id="Rectangle_10-2" data-name="Rectangle 10" width="1" height="3" transform="translate(508 1050)" fill="#fff"/></g><g id="Group_268-3" data-name="Group 268" transform="translate(-508 -1025)"><rect id="Rectangle_9-3" data-name="Rectangle 9" width="1" height="3" transform="translate(508 1045)" fill="#fff"/><rect id="Rectangle_10-3" data-name="Rectangle 10" width="1" height="3" transform="translate(508 1050)" fill="#fff"/></g><g id="Group_268-4" data-name="Group 268" transform="translate(-508 -1015)"><rect id="Rectangle_9-4" data-name="Rectangle 9" width="1" height="3" transform="translate(508 1045)" fill="#fff"/><rect id="Rectangle_10-4" data-name="Rectangle 10" width="1" height="3" transform="translate(508 1050)" fill="#fff"/></g><g id="Group_268-5" data-name="Group 268" transform="translate(-508 -1005)"><rect id="Rectangle_9-5" data-name="Rectangle 9" width="1" height="3" transform="translate(508 1045)" fill="#fff"/><rect id="Rectangle_10-5" data-name="Rectangle 10" width="1" height="3" transform="translate(508 1050)" fill="#fff"/></g><g id="Group_268-6" data-name="Group 268" transform="translate(-508 -995)"><rect id="Rectangle_9-6" data-name="Rectangle 9" width="1" height="3" transform="translate(508 1045)" fill="#fff"/><rect id="Rectangle_10-6" data-name="Rectangle 10" width="1" height="3" transform="translate(508 1050)" fill="#fff"/></g></g><line id="Line_10" data-name="Line 10" y2="58.001" transform="translate(49.984)" fill="none" stroke="#fff" stroke-width="1"/><path id="Path_2337" data-name="Path 2337" d="M488.224,1099.529v-6.6s-.472-10.374-6.837-15.09A62.858,62.858,0,0,0,470.069,1071h-9.9s16.033,9.431,19.334,14.147,2.829,14.382,2.829,14.382Z" transform="translate(-460.167 -1071)" fill="#262626"/><line id="Line_9" data-name="Line 9" y2="58.001" transform="translate(23.106)" fill="none" stroke="#fff" stroke-width="1"/></g></g></svg>