<svg xmlns="http://www.w3.org/2000/svg" xmlns:xlink="http://www.w3.org/1999/xlink" width="52.726" height="58.236" viewBox="0 0 52.726 58.236"><defs><clipPath id="clip-path"><rect width="4" height="58" fill="none"/></clipPath></defs><g id="Group_323" data-name="Group 323" transform="translate(0 -0.153)"><g id="Group_300" data-name="Group 300" transform="translate(0 0)"><g id="Group_270" data-name="Group 270" transform="translate(0 0)"><rect id="Rectangle_8" data-name="Rectangle 8" width="32" height="58" transform="translate(20.726 0.37)" fill="#262626"/><g id="Repeat_Grid_1" data-name="Repeat Grid 1" transform="translate(35.726 0.37)" clip-path="url(#clip-path)"><g id="Group_268" data-name="Group 268" transform="translate(-508 -1045)"><rect id="Rectangle_9" data-name="Rectangle 9" width="1" height="3" transform="translate(508 1045)" fill="#fff"/><rect id="Rectangle_10" data-name="Rectangle 10" width="1" height="3" transform="translate(508 1050)" fill="#fff"/></g><g id="Group_268-2" data-name="Group 268" transform="translate(-508 -1035)"><rect id="Rectangle_9-2" data-name="Rectangle 9" width="1" height="3" transform="translate(508 1045)" fill="#fff"/><rect id="Rectangle_10-2" data-name="Rectangle 10" width="1" height="3" transform="translate(508 1050)" fill="#fff"/></g><g id="Group_268-3" data-name="Group 268" transform="translate(-508 -1025)"><rect id="Rectangle_9-3" data-name="Rectangle 9" width="1" height="3" transform="translate(508 1045)" fill="#fff"/><rect id="Rectangle_10-3" data-name="Rectangle 10" width="1" height="3" transform="translate(508 1050)" fill="#fff"/></g><g id="Group_268-4" data-name="Group 268" transform="translate(-508 -1015)"><rect id="Rectangle_9-4" data-name="Rectangle 9" width="1" height="3" transform="translate(508 1045)" fill="#fff"/><rect id="Rectangle_10-4" data-name="Rectangle 10" width="1" height="3" transform="translate(508 1050)" fill="#fff"/></g><g id="Group_268-5" data-name="Group 268" transform="translate(-508 -1005)"><rect id="Rectangle_9-5" data-name="Rectangle 9" width="1" height="3" transform="translate(508 1045)" fill="#fff"/><rect id="Rectangle_10-5" data-name="Rectangle 10" width="1" height="3" transform="translate(508 1050)" fill="#fff"/></g><g id="Group_268-6" data-name="Group 268" transform="translate(-508 -995)"><rect id="Rectangle_9-6" data-name="Rectangle 9" width="1" height="3" transform="translate(508 1045)" fill="#fff"/><rect id="Rectangle_10-6" data-name="Rectangle 10" width="1" height="3" transform="translate(508 1050)" fill="#fff"/></g></g><line id="Line_10" data-name="Line 10" y2="58.001" transform="translate(49.984 0.153)" fill="none" stroke="#fff" stroke-width="1"/><path id="Path_2337" data-name="Path 2337" d="M488.224,1071v6.6s-.472,10.374-6.837,15.09a62.837,62.837,0,0,1-11.317,6.837h-9.9s16.033-9.431,19.334-14.146S482.329,1071,482.329,1071Z" transform="translate(-460.167 -1041.139)" fill="#262626"/><line id="Line_9" data-name="Line 9" y2="58.001" transform="translate(23.106 0.153)" fill="none" stroke="#fff" stroke-width="1"/></g></g></g></svg>