<svg xmlns="http://www.w3.org/2000/svg" width="41.105" height="32.824" viewBox="0 0 41.105 32.824"><g id="pedestrian-crossing" transform="translate(0)"><g id="Group_302" data-name="Group 302" transform="translate(0)"><path id="Path_2296" data-name="Path 2296" d="M-1126.179-491.4c.15,2.526-.735,5.03.586,7.516,1.585,2.982,3.022,6.044,4.456,9.1a2.776,2.776,0,0,1,.138,1.774,1.31,1.31,0,0,1-1.124.653,2.352,2.352,0,0,1-1.428-.977c-1.44-2.722-2.777-5.5-4.149-8.257l-1.024-2.064a40.3,40.3,0,0,0-3.407,4.181,7.708,7.708,0,0,0-.52,2.931c-.114.846-.175,1.7-.274,2.548-.132,1.129-.8,1.785-1.684,1.676-.856-.1-1.317-.764-1.2-1.928.2-1.958.438-3.912.73-5.858a3.045,3.045,0,0,1,.657-1.258,9.5,9.5,0,0,1,1.6-1.855c2.5-1.943,1.753-4.406,1.3-6.687-2.123,1.01-4.237,2.029-6.364,3.02-1.113.519-1.948.327-2.322-.473-.4-.855.005-1.619,1.145-2.165a3.84,3.84,0,0,1,.4-.192,16.337,16.337,0,0,0,7.6-5.4,2.016,2.016,0,0,1,2.754-.565c1.818.84,3.675,1.6,5.524,2.371a1.93,1.93,0,0,1,1.33,1.618c.182,1.284.484,2.551.7,3.83a1.441,1.441,0,0,1-1.175,1.827,1.412,1.412,0,0,1-1.661-1.275,13.15,13.15,0,0,1-.373-1.965C-1124-490.609-1124.69-491.249-1126.179-491.4Z" transform="translate(1150.279 501.85)"/><path id="Path_2297" data-name="Path 2297" d="M-1176.192-404.4c-1.068,2.172-2.033,4.162-3.035,6.134a.838.838,0,0,1-.631.335c-1.551.028-3.1.015-4.921.015.355-.579.583-.973.833-1.352.981-1.488,1.935-3,2.981-4.438a1.9,1.9,0,0,1,1.243-.662C-1178.626-404.467-1177.517-404.4-1176.192-404.4Z" transform="translate(1184.778 430.742)"/><path id="Path_2298" data-name="Path 2298" d="M-1038.432-404.76c1.2,0,2.385-.021,3.567.017a1.045,1.045,0,0,1,.738.363c1.33,1.947,2.624,3.918,4.071,6.1-1.85,0-3.46.015-5.07-.018a.821.821,0,0,1-.58-.4c-.945-1.886-1.86-3.787-2.774-5.688C-1038.516-404.467-1038.457-404.589-1038.432-404.76Z" transform="translate(1071.161 431.007)"/><path id="Path_2299" data-name="Path 2299" d="M-1099.512-397.934h-5.478c.16-1.213.308-2.362.466-3.51.014-.106.1-.2.128-.306.194-.842.2-2.29.606-2.414a13.659,13.659,0,0,1,3.758-.116C-1099.861-402.179-1099.69-400.1-1099.512-397.934Z" transform="translate(1122.809 430.685)"/><path id="Path_2300" data-name="Path 2300" d="M-1146.027-398.779c.818-2.128,1.481-4.139,2.4-6.026.2-.418,1.3-.4,2.055-.6a12.251,12.251,0,0,0,.024,2.071c.116.593.261,1.375.68,1.676,1.087.781.47,1.656.355,2.507a.623.623,0,0,1-.478.352C-1142.615-398.769-1144.239-398.779-1146.027-398.779Z" transform="translate(1154.681 431.501)"/><path id="Path_2301" data-name="Path 2301" d="M-1098.461-519.721a2.664,2.664,0,0,1-2.631,2.627,2.68,2.68,0,0,1-2.566-2.584,2.6,2.6,0,0,1,2.639-2.587A2.565,2.565,0,0,1-1098.461-519.721Z" transform="translate(1121.774 522.266)"/><path id="Path_2302" data-name="Path 2302" d="M-1063.621-391.471l1.288,3.516c-1.762,0-3.374.018-4.985-.024-.193-.005-.483-.312-.545-.532-.179-.629-.265-1.285-.428-2.142C-1066.4-389.363-1064.893-389.643-1063.621-391.471Z" transform="translate(1094.307 420.681)"/></g></g></svg>