<svg xmlns="http://www.w3.org/2000/svg" width="39.61" height="32.261" viewBox="0 0 39.61 32.261"><g id="property-driveway-access" transform="translate(0)"><g id="Group_303" data-name="Group 303" transform="translate(0)"><path id="Path_2338" data-name="Path 2338" d="M-1466-596.668a8.59,8.59,0,0,1,.621-.713,1.535,1.535,0,0,1,1.83-.45,1.925,1.925,0,0,1,1.25,1.759c0,1.079,0,2.157,0,3.281a10.533,10.533,0,0,0,5.279-2.411c1.9-1.428,3.756-2.928,6.129-3.515.9-.223,1.826-.361,2.813-.552a2.728,2.728,0,0,1,.069-.878c.09-.224.379-.511.577-.51s.469.284.591.508a1.6,1.6,0,0,1,.031.693q0,13.461,0,26.922c0,1.185-.036,1.227-1.252,1.228q-6.51,0-13.021,0h-1.132l.173.249c-.409.43-.763,1.14-1.237,1.231-.956.184-2.087.389-2.719-.789Zm17.9,24.107v-21.072c-.238,0-.414-.014-.587,0-1.262.117-1.262.119-1.262,1.4q0,9.447.01,18.894c0,.251.031.5.05.772ZM-1451.156-593c-1.825.461-1.842.482-1.842,2.165q0,7.292,0,14.584v3.653h1.842Zm-3.1,1.611c-.308.2-.515.347-.735.47a2.168,2.168,0,0,0-1.167,2.192c.071,4.8.033,9.606.033,14.409,0,.575,0,1.151,0,1.735h1.869Zm-7.988,4.163v14.645h1.778v-14.984Zm4.834,14.651v-16.371c-1.561.268-1.857,1.226-1.825,2.647.093,4.158.031,8.319.03,12.479,0,.4,0,.8,0,1.245Z" transform="translate(1466 601.904)"/><path id="Path_2339" data-name="Path 2339" d="M-1330.867-576.45a2.389,2.389,0,0,1-2.941.7c-.5-.361-.7-1.138-1.167-1.964-2.018-.349-4.375-.759-6.734-1.164-2.48-.426-4.959-.857-7.442-1.263-.667-.109-.918-.4-.916-1.111q.036-12.711.012-25.421c0-.489-.024-1.047.6-1.068.645-.022.652.537.636,1.028-.007.232,0,.465,0,.786a10.513,10.513,0,0,1,5.832,1.981c1.343.987,2.594,2.1,3.9,3.141a8.727,8.727,0,0,0,4.527,2.167c0-1.006,0-1.967,0-2.927a2.077,2.077,0,0,1,1.414-2.173c.734-.235,1.442.124,2.1,1.062a1.2,1.2,0,0,0,.181.17Zm-16.1-4.555c.023-.3.047-.469.047-.641q0-8.8,0-17.59c0-1.37-.013-1.379-1.412-1.472a3.264,3.264,0,0,0-.453.036v19.341Zm3.095.523v-.909q0-8.17,0-16.34c0-1.478-.232-1.756-1.863-2.174,0,1.212,0,2.4,0,3.587q-.008,7.421-.026,14.843c0,.49.1.782.649.8A11.733,11.733,0,0,1-1343.87-580.481Zm1.277-17.443v17.687l1.809.283c.019-.357.045-.615.045-.873,0-4.635-.085-9.273.048-13.9A3.341,3.341,0,0,0-1342.593-597.925Zm6.257,4.489c-.052.064-.085.086-.085.107-.018,4.561-.039,9.123-.031,13.684a.715.715,0,0,0,.423.514,10.181,10.181,0,0,0,1.408.23v-14.161Zm-3.031-1.724c-.067.045-.109.06-.109.075q-.03,7.467-.038,14.933a.641.641,0,0,0,.368.477,11.36,11.36,0,0,0,1.4.214,3.3,3.3,0,0,0,.074-.466q.009-6.811,0-13.621a.957.957,0,0,0-.275-.672A16.853,16.853,0,0,0-1339.367-595.16Z" transform="translate(1370.477 607.74)"/></g></g></svg>