<svg xmlns="http://www.w3.org/2000/svg" width="65.117" height="43.249" viewBox="0 0 65.117 43.249"><g transform="translate(-1237.874 -6915.001)"><g transform="translate(1237.874 6915)"><path d="M1818.611-1745.925h-22.139c-1.632,0-1.634,0-1.347-.994,1.323-4.566,2.664-9.13,3.968-13.7q3.179-11.135,6.323-22.274c.529-1.862,1.1-3.72,1.586-5.586.163-.622.748-.67,1.52-.669q8.761.01,17.522,0c.947,0,1.906.059,2.839-.014,1.251-.1,1.612.29,1.805.991,1.923,6.96,3.883,13.915,5.83,20.872q2.722,9.727,5.44,19.455c.536,1.915.535,1.915-2.51,1.915Zm-1.165-32.123c0,.479.033.959-.009,1.436-.045.507.321.673,1.059.651.673-.02,1.395.066,1.379-.606-.022-.957.012-1.915-.025-2.872a.618.618,0,0,0-.382-.485c-1.089-.365-2.019.026-2.019.817C1817.448-1778.754,1817.448-1778.4,1817.445-1778.048Zm0,27.805a13.726,13.726,0,0,1-.011,1.437c-.048.456.192.667.93.61.644-.05,1.524.18,1.509-.585-.02-.958.038-1.918-.045-2.874-.017-.2-.47-.514-.781-.547-1.466-.156-1.6-.053-1.6.9C1817.448-1750.949,1817.448-1750.6,1817.446-1750.243Zm.059-4.945c.371.017.6.035.837.037,1.526.018,1.527.017,1.529-1q0-.942,0-1.883c0-1.13,0-1.133-1.724-1.087a6.1,6.1,0,0,0-.642.081Zm-.06-31.652c0,1.208,0,2.336,0,3.463,0,.552.644.466,1.178.468.582,0,1.242.078,1.239-.514a22.12,22.12,0,0,1,.028-2.564c.082-.746-.361-1.014-1.474-.9C1818.154-1786.862,1817.883-1786.86,1817.446-1786.839Zm.05,24.756a8.574,8.574,0,0,0,1.523-.022c.334-.065.8-.327.811-.514a18.819,18.819,0,0,0,0-2.939c-.013-.178-.434-.44-.737-.491a10.235,10.235,0,0,0-1.6-.022Zm-.049-9a11.511,11.511,0,0,1-.011,1.357c-.065.552.35.7,1.123.686.71-.013,1.35.006,1.321-.644-.041-.9-.033-1.81,0-2.714.017-.489-.289-.622-1.042-.658-1.152-.057-1.555.2-1.4.92A5.026,5.026,0,0,1,1817.447-1771.087Z" transform="translate(-1786.322 1789.173)"/><path d="M1772.055-1745.881h-4.494l16.526-42.977h2.257Z" transform="translate(-1767.561 1788.958)"/><path d="M1914.214-1788.905h2.259l16.547,43.05c-1.47,0-2.789.021-4.1-.022a.822.822,0,0,1-.554-.467q-6.9-20.695-13.758-41.394C1914.484-1788.105,1914.359-1788.473,1914.214-1788.905Z" transform="translate(-1867.903 1788.99)"/></g><g transform="translate(1255.562 6935.3)"><path d="M2637.331-785.551a4.756,4.756,0,0,0,.284,3.559,29.435,29.435,0,0,1,1.7,3.923c.134.361-.089.853-.148,1.285-.408-.218-.966-.335-1.192-.674a16.622,16.622,0,0,1-1.067-2.23,18.657,18.657,0,0,0-1.191-2.253,6.367,6.367,0,0,1-2.118,4.526c-.323.318-.929.349-1.405.512.054-.464-.069-1.1.189-1.364,1.883-1.91,1.528-4.468,2.068-6.761a3.127,3.127,0,0,0-.01-1.642,6.146,6.146,0,0,0-.618,1.071c-.169.493-.147,1.058-.354,1.528-.137.313-.531.514-.809.765a2.961,2.961,0,0,1-.416-.979,4.707,4.707,0,0,1,2.66-4.44c1.265-.721,2.423-.654,3.05.663a5.608,5.608,0,0,0,3.51,3.365c.175.052.249.448.37.684-.293.106-.663.382-.866.29C2639.741-784.282,2638.555-784.924,2637.331-785.551Z" transform="translate(-2632.19 792.6)" fill="#3acce1"/><path d="M2647.046-803.548a1.5,1.5,0,0,1,1.543,1.453,1.477,1.477,0,0,1-1.436,1.55,1.5,1.5,0,0,1-1.6-1.5A1.513,1.513,0,0,1,2647.046-803.548Z" transform="translate(-2642.373 803.548)" fill="#3acce1"/></g></g></svg>