<svg xmlns="http://www.w3.org/2000/svg" width="50.634" height="44.33" viewBox="0 0 50.634 44.33"><g transform="translate(-1131.132 -6924.239)"><g transform="translate(1131.132 6928.136)"><path d="M-1132.59-493.47c.082,1.384-.4,2.756.321,4.118.868,1.634,1.656,3.311,2.441,4.987a1.521,1.521,0,0,1,.076.972.718.718,0,0,1-.616.358,1.29,1.29,0,0,1-.782-.535c-.789-1.491-1.522-3.013-2.273-4.524l-.561-1.131a22.067,22.067,0,0,0-1.867,2.29,4.225,4.225,0,0,0-.285,1.606c-.062.464-.1.931-.15,1.4-.072.618-.437.978-.923.918-.469-.057-.721-.418-.657-1.056.109-1.072.24-2.143.4-3.209a1.668,1.668,0,0,1,.36-.689,5.2,5.2,0,0,1,.876-1.016c1.372-1.064.96-2.414.711-3.664-1.163.553-2.321,1.112-3.486,1.655-.61.284-1.067.179-1.272-.259-.219-.468,0-.887.628-1.186a2.1,2.1,0,0,1,.22-.105,8.951,8.951,0,0,0,4.165-2.957,1.1,1.1,0,0,1,1.509-.309c1,.46,2.014.876,3.027,1.3a1.057,1.057,0,0,1,.729.887c.1.7.265,1.4.385,2.1a.789.789,0,0,1-.644,1,.774.774,0,0,1-.91-.7,7.224,7.224,0,0,1-.2-1.076C-1131.4-493.037-1131.775-493.387-1132.59-493.47Z" transform="translate(1158.295 495.298)" fill="#3acce1"/><path d="M-1174.2-404.4c-1.315,2.676-2.5,5.127-3.738,7.556a1.032,1.032,0,0,1-.777.412c-1.91.035-3.821.019-6.062.019.438-.713.718-1.2,1.026-1.666,1.209-1.833,2.383-3.691,3.672-5.467a2.337,2.337,0,0,1,1.531-.816C-1177.2-404.477-1175.834-404.4-1174.2-404.4Z" transform="translate(1184.778 436.843)"/><path d="M-1038.418-404.758c1.479,0,2.938-.026,4.394.021a1.287,1.287,0,0,1,.909.447c1.638,2.4,3.232,4.827,5.015,7.512-2.278,0-4.262.018-6.245-.023a1.011,1.011,0,0,1-.714-.5c-1.164-2.323-2.291-4.664-3.417-7.006C-1038.521-404.4-1038.449-404.548-1038.418-404.758Z" transform="translate(1078.734 437.09)"/><path d="M-1098.242-396.446h-6.748c.2-1.494.379-2.909.573-4.323.018-.13.127-.246.157-.377.239-1.038.243-2.82.746-2.974,1.367-.416,2.943-.143,4.629-.143Z" transform="translate(1126.939 436.789)"/><path d="M-1146.027-397.244c1.007-2.622,1.824-5.1,2.955-7.423.25-.514,4.471.245,5.4,0,0,1.106-1.418,5.922-1.56,6.969a.768.768,0,0,1-.589.434C-1141.824-397.231-1143.824-397.244-1146.027-397.244Z" transform="translate(1156.687 437.551)"/><path d="M-1100.81-520.871a1.46,1.46,0,0,1-1.441,1.439,1.468,1.468,0,0,1-1.406-1.416,1.425,1.425,0,0,1,1.446-1.417A1.405,1.405,0,0,1-1100.81-520.871Z" transform="translate(1126.085 518.369)" fill="#3acce1"/><path d="M-1063.04-394.445c.546,1.49,1.527,5.771,2.089,7.305-2.171,0-4.157.023-6.141-.03-.238-.006-.595-.385-.672-.655-.221-.775-.847-6.62-.847-6.62A34.881,34.881,0,0,1-1063.04-394.445Z" transform="translate(1100.337 427.452)"/></g></g></svg>