<svg xmlns="http://www.w3.org/2000/svg" width="55.223" height="41.146" viewBox="0 0 55.223 41.146"><path d="M347.956-676.483l-27.436,6.566-27.787-6.566,27.787,30.015Z" transform="translate(-292.733 676.484)"/><g transform="translate(24.649 32.924)" style="isolation:isolate"><g style="isolation:isolate"><path d="M332.257-623.669a.847.847,0,0,0-.329-.717,4.282,4.282,0,0,0-1.187-.528,8.4,8.4,0,0,1-1.357-.547,2.217,2.217,0,0,1-1.363-1.984,1.928,1.928,0,0,1,.366-1.156,2.374,2.374,0,0,1,1.05-.794,3.946,3.946,0,0,1,1.536-.286,3.6,3.6,0,0,1,1.528.311,2.438,2.438,0,0,1,1.042.876,2.3,2.3,0,0,1,.371,1.286h-1.649a1.079,1.079,0,0,0-.346-.855,1.423,1.423,0,0,0-.973-.3,1.522,1.522,0,0,0-.94.255.8.8,0,0,0-.335.673.772.772,0,0,0,.393.654,4.445,4.445,0,0,0,1.157.495,4.994,4.994,0,0,1,2.05,1.05,2.091,2.091,0,0,1,.643,1.561,1.927,1.927,0,0,1-.786,1.629,3.442,3.442,0,0,1-2.116.591,4.081,4.081,0,0,1-1.682-.338,2.655,2.655,0,0,1-1.157-.926,2.371,2.371,0,0,1-.4-1.363h1.655q0,1.324,1.583,1.325a1.54,1.54,0,0,0,.918-.239A.778.778,0,0,0,332.257-623.669Z" transform="translate(-327.772 629.682)"/></g></g></svg>