<svg id="good" xmlns="http://www.w3.org/2000/svg" width="48.331" height="48.331" viewBox="0 0 48.331 48.331"><path id="Path_15" data-name="Path 15" d="M0,0H48.331V48.331H0Z" fill="none"/><path id="Path_16" data-name="Path 16" d="M1,41.276H9.055V17.11H1ZM45.3,19.124A4.039,4.039,0,0,0,41.276,15.1H28.569l1.913-9.2.06-.644a3.031,3.031,0,0,0-.886-2.135L27.521,1,14.271,14.271a3.938,3.938,0,0,0-1.188,2.839V37.248a4.039,4.039,0,0,0,4.028,4.028H35.234a4,4,0,0,0,3.705-2.457l6.082-14.2a3.979,3.979,0,0,0,.282-1.47Z" transform="translate(1.014 1.014)"/></svg>