<svg xmlns="http://www.w3.org/2000/svg" width="53.806" height="53.806" viewBox="0 0 53.806 53.806"><g id="not-good-specify" transform="matrix(-1, 0.017, -0.017, -1, 53.806, 52.883)"><path id="Path_15" data-name="Path 15" d="M0,0H52.891V52.891H0Z" fill="none"/><path id="Path_16" data-name="Path 16" d="M0,44.076H8.815V17.63H0ZM48.483,19.834a4.421,4.421,0,0,0-4.408-4.408H30.17L32.263,5.355l.066-.705a3.317,3.317,0,0,0-.97-2.336L29.024,0l-14.5,14.523a4.309,4.309,0,0,0-1.3,3.107V39.668a4.421,4.421,0,0,0,4.408,4.408H37.464a4.378,4.378,0,0,0,4.055-2.689L48.175,25.85a4.354,4.354,0,0,0,.309-1.609Z" transform="translate(2.204 2.204)"/></g></svg>