<svg id="unknown" xmlns="http://www.w3.org/2000/svg" width="48.932" height="48.932" viewBox="0 0 48.932 48.932"><path id="Path_2249" data-name="Path 2249" d="M0,0H48.932V48.932H0Z" fill="none"/><path id="Path_2250" data-name="Path 2250" d="M22.388,2A20.388,20.388,0,1,0,42.777,22.388,20.4,20.4,0,0,0,22.388,2Zm2.039,34.66H20.35V32.583h4.078Zm4.22-15.8-1.835,1.876a6.941,6.941,0,0,0-2.385,5.77H20.35V27.486a8.206,8.206,0,0,1,2.385-5.77l2.528-2.569a3.987,3.987,0,0,0,1.2-2.875,4.078,4.078,0,0,0-8.155,0H14.233a8.155,8.155,0,1,1,16.311,0A6.488,6.488,0,0,1,28.648,20.859Z" transform="translate(2.078 2.078)"/></svg>