<svg id="Group_327" data-name="Group 327" xmlns="http://www.w3.org/2000/svg" width="23.034" height="44.613" viewBox="0 0 23.034 44.613"><g id="Group_311" data-name="Group 311"><path id="Path_2345" data-name="Path 2345" d="M340.8,607.6c-.155.318-.292.646-.468.952a1.533,1.533,0,0,1-2.722.142c-1.2-2.005-2.311-4.063-3.4-6.129a1.53,1.53,0,0,1,.645-2.028,1.579,1.579,0,0,1,2.12.555c.4.6.717,1.254,1.075,1.882.187.328.384.65.69,1.167.521-1.163.955-2.137,1.393-3.11a7.856,7.856,0,0,1,.393-.827,1.568,1.568,0,0,1,2.742-.016,1.256,1.256,0,0,0,1.385.757,10.922,10.922,0,0,1,1.337,0,1.814,1.814,0,0,0,1.942-.87,1.559,1.559,0,0,1,2.773.318c.471.945.86,1.93,1.289,2.9.108.243.23.479.409.848.619-1.094,1.124-2.079,1.716-3.008a1.59,1.59,0,1,1,2.724,1.64c-1.051,1.931-2.093,3.867-3.2,5.768a1.581,1.581,0,0,1-2.911-.1,3.418,3.418,0,0,0-.639-.97c-.017.241-.049.483-.049.724q0,13.375.006,26.749c0,1.457-.751,2.351-1.99,2.378a2.115,2.115,0,0,1-2.18-2.4q-.013-7.732,0-15.464a2.9,2.9,0,0,0-.031-.747c-.038-.14-.236-.237-.362-.353-.1.112-.265.211-.292.338a3.6,3.6,0,0,0-.031.749q0,7.816,0,15.632a2.081,2.081,0,0,1-3.981,1.01,2.9,2.9,0,0,1-.183-1.134q0-13.207.024-26.414,0-.442,0-.885Z" transform="translate(-334.042 -592.721)"/><path id="Path_2346" data-name="Path 2346" d="M376.418,573.268a3.683,3.683,0,0,1-3.658,3.668,3.662,3.662,0,1,1,3.658-3.668Z" transform="translate(-361.253 -569.612)"/></g></svg>